<?xml version="1.0" encoding="UTF-8" standalone="no"?>
<!-- Created with Inkscape (http://www.inkscape.org/) -->

<svg
   xmlns:dc="http://purl.org/dc/elements/1.1/"
   xmlns:cc="http://creativecommons.org/ns#"
   xmlns:rdf="http://www.w3.org/1999/02/22-rdf-syntax-ns#"
   xmlns:svg="http://www.w3.org/2000/svg"
   xmlns="http://www.w3.org/2000/svg"
   xmlns:sodipodi="http://sodipodi.sourceforge.net/DTD/sodipodi-0.dtd"
   xmlns:inkscape="http://www.inkscape.org/namespaces/inkscape"
   id="svg2"
   version="1.1"
   inkscape:version="0.91 r"
   width="512"
   height="512"
   sodipodi:docname="preferences-desktop-keyboard-shortcuts.svg">
  <metadata
     id="metadata8">
    <rdf:RDF>
      <cc:Work
         rdf:about="">
        <dc:format>image/svg+xml</dc:format>
        <dc:type
           rdf:resource="http://purl.org/dc/dcmitype/StillImage" />
        <dc:title />
      </cc:Work>
    </rdf:RDF>
  </metadata>
  <defs
     id="defs6">
    <clipPath
       id="clipPath6">
      <path
         inkscape:connector-curvature="0"
         id="path8"
         d="m 69.63,12.145 -0.052,0 c -22.727,-0.292 -46.47,4.077 -46.709,4.122 -2.424,0.451 -4.946,2.974 -5.397,5.397 -0.044,0.237 -4.414,23.983 -4.122,46.71 -0.292,22.777 4.078,46.523 4.122,46.761 0.451,2.423 2.974,4.945 5.398,5.398 0.237,0.044 23.982,4.413 46.709,4.121 22.779,0.292 46.524,-4.077 46.761,-4.121 2.423,-0.452 4.946,-2.976 5.398,-5.399 0.044,-0.236 4.413,-23.981 4.121,-46.709 0.292,-22.777 -4.077,-46.523 -4.121,-46.761 -0.453,-2.423 -2.976,-4.946 -5.398,-5.397 -0.238,-0.045 -23.984,-4.414 -46.71,-4.122" />
    </clipPath>
    <linearGradient
       y2="155.59"
       x2="20.030001"
       y1="261.26001"
       x1="18.6"
       gradientUnits="userSpaceOnUse"
       id="0"
       gradientTransform="matrix(3.9865643,0,0,3.9981502,160.48509,-581.34732)">
      <stop
         id="stop11"
         stop-color="#d3d3d3" />
      <stop
         id="stop13"
         stop-color="#fcf9f9"
         offset="1" />
    </linearGradient>
    <linearGradient
       id="linearGradient15"
       gradientUnits="userSpaceOnUse"
       x1="0"
       x2="459">
      <stop
         id="stop17"
         stop-color="#e3203a" />
      <stop
         id="stop19"
         stop-color="#fd5420"
         offset="1" />
    </linearGradient>
    <linearGradient
       id="linearGradient21"
       gradientUnits="userSpaceOnUse"
       x2="47"
       x1="0">
      <stop
         id="stop23"
         stop-color="#a9a3d4" />
      <stop
         id="stop25"
         stop-color="#87baff"
         offset=".47" />
      <stop
         id="stop27"
         stop-color="#89ec85"
         offset="1" />
    </linearGradient>
  </defs>
  <sodipodi:namedview
     pagecolor="#ffffff"
     bordercolor="#666666"
     borderopacity="1"
     objecttolerance="10"
     gridtolerance="10"
     guidetolerance="10"
     inkscape:pageopacity="0"
     inkscape:pageshadow="2"
     inkscape:window-width="1366"
     inkscape:window-height="744"
     id="namedview4"
     showgrid="false"
     inkscape:zoom="0.92187499"
     inkscape:cx="6.053665"
     inkscape:cy="215.07934"
     inkscape:window-x="0"
     inkscape:window-y="24"
     inkscape:window-maximized="1"
     inkscape:current-layer="svg2" />
  <rect
     width="441.35254"
     height="439.99643"
     x="35.825233"
     y="37.086525"
     rx="34.404049"
     id="rect31"
     style="fill:url(#0);stroke-width:1.31700003" />
  <path
     style="opacity:1;fill:#808080;fill-opacity:1;fill-rule:nonzero;stroke:none;stroke-width:0.75932205;stroke-miterlimit:4;stroke-dasharray:none;stroke-opacity:1"
     d="m 164.70631,351.29689 c -1.75366,-1.17887 -3.5614,4.2919 27.82488,-84.20669 11.00266,-31.02373 23.68528,-66.78937 28.18361,-79.47921 l 8.17878,-23.07243 22.22343,0.29277 22.22344,0.29277 8.07596,22.77966 c 40.17494,113.32031 57.01783,162.27255 56.13614,163.15424 -1.05951,1.0595 -24.38539,1.37534 -32.35471,0.43808 l -7.48635,-0.88045 -6.07298,-17.89631 -6.07297,-17.89631 -4.33898,-0.75304 c -5.67095,-0.98421 -55.1454,-0.97692 -60.6998,0.009 l -4.29301,0.76196 -6.19437,17.7081 c -3.40691,9.73945 -6.51875,18.03285 -6.91522,18.42975 -1.16472,1.16603 -36.71857,1.46047 -38.41785,0.31817 l 0,2.6e-4 z m 109.07974,-70.98086 c 0.40549,-0.4055 0.14783,-2.81499 -0.57259,-5.35442 -2.89509,-10.20513 -19.76828,-61.13211 -20.75762,-62.65107 -0.94204,-1.44633 -1.17733,-1.44633 -2.11765,0 -1.59654,2.45569 -21.7218,63.71402 -21.7218,66.11798 0,1.60464 0.94472,2.20416 4.0678,2.58142 6.07618,0.734 40.25092,0.15703 41.10186,-0.69391 z"
     id="path3380"
     inkscape:connector-curvature="0" />
</svg>
