<?xml version="1.0" encoding="UTF-8" standalone="no"?>
<!-- Created with Inkscape (http://www.inkscape.org/) -->

<svg
   xmlns:dc="http://purl.org/dc/elements/1.1/"
   xmlns:cc="http://creativecommons.org/ns#"
   xmlns:rdf="http://www.w3.org/1999/02/22-rdf-syntax-ns#"
   xmlns:svg="http://www.w3.org/2000/svg"
   xmlns="http://www.w3.org/2000/svg"
   xmlns:xlink="http://www.w3.org/1999/xlink"
   xmlns:sodipodi="http://sodipodi.sourceforge.net/DTD/sodipodi-0.dtd"
   xmlns:inkscape="http://www.inkscape.org/namespaces/inkscape"
   id="svg2"
   version="1.1"
   inkscape:version="0.91 r"
   width="512"
   height="512"
   sodipodi:docname="input-mouse.svg">
  <metadata
     id="metadata8">
    <rdf:RDF>
      <cc:Work
         rdf:about="">
        <dc:format>image/svg+xml</dc:format>
        <dc:type
           rdf:resource="http://purl.org/dc/dcmitype/StillImage" />
        <dc:title />
      </cc:Work>
    </rdf:RDF>
  </metadata>
  <defs
     id="defs6">
    <clipPath
       id="clipPath-717834183">
      <g
         id="g17"
         transform="translate(0,-1004.3622)">
        <path
           id="path19"
           fill="#1890d0"
           transform="matrix(15.333333,0,0,11.5,414.99999,878.8622)"
           d="m -24 13 c 0 1.105 -0.672 2 -1.5 2 -0.828 0 -1.5 -0.895 -1.5 -2 0 -1.105 0.672 -2 1.5 -2 0.828 0 1.5 0.895 1.5 2 z" />
      </g>
    </clipPath>
    <clipPath
       id="clipPath-699552035">
      <g
         id="g12"
         transform="translate(0,-1004.3622)">
        <path
           id="path14"
           fill="#1890d0"
           transform="matrix(15.333333,0,0,11.5,414.99999,878.8622)"
           d="m -24 13 c 0 1.105 -0.672 2 -1.5 2 -0.828 0 -1.5 -0.895 -1.5 -2 0 -1.105 0.672 -2 1.5 -2 0.828 0 1.5 0.895 1.5 2 z" />
      </g>
    </clipPath>
    <linearGradient
       gradientUnits="userSpaceOnUse"
       y2="1"
       x2="0"
       y1="47"
       id="linearGradient3764">
      <stop
         id="stop7"
         stop-opacity="1"
         stop-color="#3fc58b" />
      <stop
         id="stop9"
         stop-opacity="1"
         stop-color="#4eca95"
         offset="1" />
    </linearGradient>
    <clipPath
       clipPathUnits="userSpaceOnUse"
       id="clipPath4153">
      <path
         style="opacity:1;fill:none;fill-opacity:1;stroke:#000000;stroke-width:11.60000038;stroke-miterlimit:4;stroke-dasharray:none;stroke-dashoffset:0;stroke-opacity:1"
         id="path4155"
         sodipodi:type="arc"
         sodipodi:cx="256.54236"
         sodipodi:cy="255.45761"
         sodipodi:rx="240.27118"
         sodipodi:ry="240.27118"
         sodipodi:start="0"
         sodipodi:end="6.2831338"
         sodipodi:open="true"
         d="M 496.81354,255.45761 A 240.27118,240.27118 0 0 1 256.54545,495.72879 240.27118,240.27118 0 0 1 16.271179,255.4638 240.27118,240.27118 0 0 1 256.53308,15.186432 240.27118,240.27118 0 0 1 496.81354,255.44524" />
    </clipPath>
    <clipPath
       clipPathUnits="userSpaceOnUse"
       id="clipPath4164">
      <circle
         style="opacity:1;fill:none;fill-opacity:1;stroke:#000000;stroke-width:0.98726904;stroke-miterlimit:4;stroke-dasharray:none;stroke-dashoffset:0;stroke-opacity:1"
         id="circle4166"
         cx="255.17685"
         cy="255.43602"
         r="240.42513" />
    </clipPath>
    <clipPath
       clipPathUnits="userSpaceOnUse"
       id="clipPath3357">
      <circle
         style="opacity:1;fill:#808080;fill-opacity:1;stroke:none;stroke-width:0.89999998;stroke-miterlimit:4;stroke-dasharray:none;stroke-dashoffset:0;stroke-opacity:1"
         id="circle3359"
         cx="255.45761"
         cy="254.37288"
         r="233.76271" />
    </clipPath>
    <linearGradient
       gradientUnits="userSpaceOnUse"
       y2="524.27002"
       x2="412.13"
       y1="562.54999"
       x1="411.60001"
       id="0">
      <stop
         id="stop7-2"
         stop-color="#11aa43"
         style="stop-color:#109d3e;stop-opacity:1" />
      <stop
         id="stop9-9"
         stop-color="#65ff5d"
         offset="1"
         style="stop-color:#2bff20;stop-opacity:1" />
    </linearGradient>
    <linearGradient
       gradientUnits="userSpaceOnUse"
       y2="550.78003"
       x2="429.51001"
       y1="563.25"
       x1="429.04999"
       id="1">
      <stop
         id="stop12"
         stop-color="#276ad6" />
      <stop
         id="stop14"
         stop-color="#41aaff"
         offset="1" />
    </linearGradient>
    <linearGradient
       gradientUnits="userSpaceOnUse"
       y2="530.62"
       x2="412.85999"
       y1="539.22998"
       x1="413.17001"
       id="2">
      <stop
         id="stop17"
         stop-color="#ffcc06" />
      <stop
         id="stop19"
         stop-color="#fff834"
         offset="1" />
    </linearGradient>
    <linearGradient
       y2="518.14001"
       x2="0"
       y1="545.14001"
       gradientUnits="userSpaceOnUse"
       id="0-5">
      <stop
         id="stop7-0"
         stop-color="#30cf41" />
      <stop
         id="stop9-97"
         stop-color="#47f383"
         offset="1" />
    </linearGradient>
    <linearGradient
       inkscape:collect="always"
       xlink:href="#0"
       id="linearGradient4219"
       x1="439.45337"
       y1="426.85959"
       x2="86.729965"
       y2="84.76371"
       gradientUnits="userSpaceOnUse"
       gradientTransform="matrix(1.0553741,0,0,1.0553741,-15.313411,-13.292552)" />
  </defs>
  <sodipodi:namedview
     pagecolor="#ffffff"
     bordercolor="#666666"
     borderopacity="1"
     objecttolerance="10"
     gridtolerance="10"
     guidetolerance="10"
     inkscape:pageopacity="0"
     inkscape:pageshadow="2"
     inkscape:window-width="1219"
     inkscape:window-height="714"
     id="namedview4"
     showgrid="false"
     inkscape:zoom="1"
     inkscape:cx="77.358619"
     inkscape:cy="286.22723"
     inkscape:window-x="143"
     inkscape:window-y="24"
     inkscape:window-maximized="0"
     inkscape:current-layer="svg2" />
  <g
     id="g33"
     transform="matrix(12.508991,0,0,12.508991,1421.3021,-185.95175)" />
  <circle
     style="opacity:1;fill:url(#linearGradient4219);fill-opacity:1;fill-rule:nonzero;stroke:none;stroke-width:13.42917442;stroke-miterlimit:4;stroke-dasharray:none;stroke-opacity:1"
     id="path4211"
     cx="255.87067"
     cy="257.4939"
     r="247.76695" />
  <path
     inkscape:connector-curvature="0"
     id="path4223"
     d="m 253.68864,130.52718 -3.30724,-1.17956 -0.2188,-12.56859 c -0.25647,-14.73218 -1.59052,-21.11121 4.36865,-25.82876 5.29257,-4.189834 13.51532,-3.25923 39.21558,-4.338143 18.36854,-0.771124 25.53639,-1.083313 29.13078,-3.597402 2.10547,-1.472621 4.88628,-4.547093 6.17954,-6.832163 2.17279,-3.83889 2.35158,-6.073714 2.35158,-29.403118 0,-13.886638 0.39022,-25.371856 0.80163,-25.239326 0.44017,0.141791 2.15499,0.537098 3.85194,1.206742 l 3.07196,1.300129 -0.50002,25.941121 c -0.49597,25.731316 -1.35692,25.142589 -4.34776,29.833294 -1.66357,2.609234 -4.63166,6.153881 -6.96679,8.003913 -6.75773,4.659893 -20.10072,4.134383 -29.73358,4.498743 -14.21789,0.53778 -32.05041,1.54602 -34.31389,1.49616 -6.91293,-0.15225 -6.37141,5.62269 -5.60831,22.79204 0.33373,7.50899 0.0693,14.4279 -0.19233,14.66442 -0.26164,0.23653 -1.96395,-0.10089 -3.78294,-0.7495 z"
     style="opacity:1;fill:#f2f2f2;fill-opacity:1;fill-rule:nonzero;stroke:none;stroke-width:13.02345753;stroke-miterlimit:4;stroke-dasharray:none;stroke-opacity:1"
     sodipodi:nodetypes="ccsssccssscscccsscc" />
  <path
     style="fill:#f2f2f2;fill-opacity:1;fill-rule:nonzero;stroke:none"
     inkscape:connector-curvature="0"
     id="path61"
     d="m 253.6547,127.35122 0,120.3368 -90.17998,0 0,-36.10104 c 0,-36.10104 45.08999,-84.23576 90.17998,-84.23576" />
  <path
     style="fill:#e6e6e6;fill-opacity:1;fill-rule:nonzero;stroke:none"
     inkscape:connector-curvature="0"
     id="path63"
     d="m 163.47472,257.23056 0,73.35184 c 0,48.90121 33.81747,85.5771 90.17998,85.5771 56.36249,0 90.17994,-36.67589 90.17994,-85.5771 l 0,-73.35184 m -180.35992,0" />
  <path
     style="fill:#e6e6e6;fill-opacity:1;fill-rule:nonzero;stroke:none"
     inkscape:connector-curvature="0"
     id="path65"
     d="m 163.47472,219.2173 180.35992,0 0,45.48665 -180.35992,0 m 0,-45.48665" />
  <path
     style="fill:#e6e6e6;fill-opacity:1;fill-rule:nonzero;stroke:none"
     inkscape:connector-curvature="0"
     id="path67"
     d="m 253.24356,127.35122 0,125.04227 90.59108,0 0,-37.51268 c 0,-37.51268 -45.29549,-87.52959 -90.59108,-87.52959 m 0,0" />
  <path
     style="fill:#4d4d4d;fill-opacity:1;fill-rule:nonzero;stroke:none"
     inkscape:connector-curvature="0"
     id="path69"
     d="m 253.6547,187.51962 c 6.21116,0 11.27253,6.00984 11.27253,13.41483 l 0,35.7728 c 0,7.40499 -5.06137,13.41483 -11.27253,13.41483 -6.21117,0 -11.27252,-6.00984 -11.27252,-13.41483 l 0,-35.7728 c 0,-7.40499 5.06135,-13.41483 11.27252,-13.41483 m 0,0" />
</svg>
