<?xml version="1.0" encoding="UTF-8" standalone="no"?>
<svg
   xmlns:dc="http://purl.org/dc/elements/1.1/"
   xmlns:cc="http://creativecommons.org/ns#"
   xmlns:rdf="http://www.w3.org/1999/02/22-rdf-syntax-ns#"
   xmlns:svg="http://www.w3.org/2000/svg"
   xmlns="http://www.w3.org/2000/svg"
   xmlns:sodipodi="http://sodipodi.sourceforge.net/DTD/sodipodi-0.dtd"
   xmlns:inkscape="http://www.inkscape.org/namespaces/inkscape"
   viewBox="0 0 128 128"
   id="svg2"
   version="1.1"
   inkscape:version="0.91 r"
   sodipodi:docname="2048.svg"
   width="128"
   height="128">
  <metadata
     id="metadata27">
    <rdf:RDF>
      <cc:Work
         rdf:about="">
        <dc:format>image/svg+xml</dc:format>
        <dc:type
           rdf:resource="http://purl.org/dc/dcmitype/StillImage" />
        <dc:title></dc:title>
      </cc:Work>
    </rdf:RDF>
  </metadata>
  <sodipodi:namedview
     pagecolor="#ffffff"
     bordercolor="#666666"
     borderopacity="1"
     objecttolerance="10"
     gridtolerance="10"
     guidetolerance="10"
     inkscape:pageopacity="0"
     inkscape:pageshadow="2"
     inkscape:window-width="1366"
     inkscape:window-height="744"
     id="namedview25"
     showgrid="false"
     inkscape:zoom="3.4766083"
     inkscape:cx="74.176762"
     inkscape:cy="43.971136"
     inkscape:window-x="0"
     inkscape:window-y="24"
     inkscape:window-maximized="1"
     inkscape:current-layer="svg2" />
  <defs
     id="defs4">
    <linearGradient
       gradientTransform="matrix(0.63636,0,0,0.62142,-173.54,-308.33)"
       gradientUnits="userSpaceOnUse"
       y2="507.79999"
       x2="0"
       y1="542.79999"
       id="0">
      <stop
         stop-color="#197ff1"
         id="stop7" />
      <stop
         offset="1"
         stop-color="#21c6fb"
         id="stop9" />
    </linearGradient>
  </defs>
  <g
     transform="matrix(4.4057273,0,0,4.4057273,-317.21953,-12.016717)"
     id="g11"
     style="enable-background:new">
    <rect
       width="28"
       height="21.129999"
       x="72.459999"
       y="7.2280002"
       rx="0.99400002"
       id="rect13"
       style="fill:url(#0)" />
    <g
       transform="matrix(0.36356,0,0,0.36356,45.917,19.807)"
       id="g15"
       style="fill:#ffffff;fill-opacity:0.85;stroke:#ddf1fe">
      <path
         d="m 93.92,3.434 -11.445,0 0,-2.415 q 5.145,-5.171 6.589,-6.746 1.286,-1.444 1.733,-2.179 0.446,-0.761 0.446,-1.864 0,-1.129 -0.892,-1.995 -0.892,-0.866 -2.389,-0.866 -1.365,0 -2.205,0.814 -0.84,0.787 -1.076,1.706 l -2.205,-0.893 q 0.446,-1.418 1.864,-2.678 1.418,-1.26 3.675,-1.26 2.494,0 4.095,1.523 1.601,1.523 1.601,3.649 0,2.625 -2.861,5.617 l -5.25,5.276 8.321,0 0,2.31 z"
         id="path17"
         inkscape:connector-curvature="0" />
      <path
         d="m 108.66,1.15 q -1.995,2.704 -5.224,2.704 -3.229,0 -5.224,-2.704 -1.995,-2.704 -1.995,-6.694 0,-4.02 1.995,-6.694 1.995,-2.704 5.224,-2.704 3.229,0 5.224,2.704 1.995,2.678 1.995,6.694 0,3.99 -1.995,6.694 z m -5.224,0.394 q 2.153,0 3.439,-2.02 1.313,-2.02 1.313,-5.066 0,-3.071 -1.313,-5.066 -1.286,-2.02 -3.439,-2.02 -2.179,0 -3.465,2.02 -1.286,1.995 -1.286,5.066 0,3.045 1.286,5.066 1.286,2.02 3.465,2.02 z"
         id="path19"
         inkscape:connector-curvature="0" />
      <path
         d="m 123.83,3.434 -2.415,0 0,-3.78 -8.531,0 0,-1.837 8.321,-12.337 2.625,0 0,11.918 2.31,0 0,2.257 -2.31,0 0,3.78 z m -2.415,-6.04 0,-8.374 -0.105,0 -5.696,8.374 5.801,0 z"
         id="path21"
         inkscape:connector-curvature="0" />
      <path
         d="m 138.79,2.305 q -1.759,1.549 -4.331,1.549 -2.572,0 -4.331,-1.549 -1.759,-1.549 -1.759,-3.833 0,-1.496 0.814,-2.625 0.814,-1.155 2.126,-1.811 l 0,-0.105 q -1.024,-0.656 -1.68,-1.654 -0.656,-1.024 -0.656,-2.126 0,-2.179 1.549,-3.623 1.549,-1.47 3.938,-1.47 2.389,0 3.938,1.47 1.549,1.444 1.549,3.623 0,1.103 -0.656,2.126 -0.656,0.998 -1.68,1.654 l 0,0.105 q 1.313,0.656 2.126,1.811 0.814,1.129 0.814,2.625 0,2.284 -1.759,3.833 z m -6.51,-10.159 q 0.866,0.761 2.179,0.761 1.313,0 2.153,-0.761 0.866,-0.787 0.866,-2.047 0,-1.26 -0.866,-1.995 -0.84,-0.735 -2.153,-0.735 -1.313,0 -2.179,0.735 -0.84,0.735 -0.84,1.995 0,1.26 0.84,2.047 z m -0.394,8.505 q 1.05,0.893 2.572,0.893 1.523,0 2.572,-0.893 1.05,-0.892 1.05,-2.31 0,-1.391 -1.05,-2.284 -1.05,-0.892 -2.572,-0.892 -1.523,0 -2.572,0.893 -1.05,0.893 -1.05,2.284 0,1.417 1.05,2.31 z"
         id="path23"
         inkscape:connector-curvature="0" />
    </g>
  </g>
</svg>
