<?xml version="1.0" encoding="UTF-8" standalone="no"?>
<!-- Created with Inkscape (http://www.inkscape.org/) -->

<svg
   xmlns:dc="http://purl.org/dc/elements/1.1/"
   xmlns:cc="http://creativecommons.org/ns#"
   xmlns:rdf="http://www.w3.org/1999/02/22-rdf-syntax-ns#"
   xmlns:svg="http://www.w3.org/2000/svg"
   xmlns="http://www.w3.org/2000/svg"
   xmlns:xlink="http://www.w3.org/1999/xlink"
   xmlns:sodipodi="http://sodipodi.sourceforge.net/DTD/sodipodi-0.dtd"
   xmlns:inkscape="http://www.inkscape.org/namespaces/inkscape"
   id="svg2"
   version="1.1"
   inkscape:version="0.91 r"
   width="128"
   height="128"
   viewBox="0 0 128 128"
   sodipodi:docname="ailurus.svg">
  <metadata
     id="metadata8">
    <rdf:RDF>
      <cc:Work
         rdf:about="">
        <dc:format>image/svg+xml</dc:format>
        <dc:type
           rdf:resource="http://purl.org/dc/dcmitype/StillImage" />
        <dc:title />
      </cc:Work>
    </rdf:RDF>
  </metadata>
  <defs
     id="defs6">
    <linearGradient
       inkscape:collect="always"
       xlink:href="#0"
       id="linearGradient4229"
       x1="9.9486551"
       y1="65.674881"
       x2="118.10113"
       y2="65.674881"
       gradientUnits="userSpaceOnUse"
       gradientTransform="matrix(1.0523883,0,0,1.0523883,-3.0021177,-5.3406891)" />
    <linearGradient
       id="linearGradient3461"
       inkscape:collect="always">
      <stop
         id="stop3463"
         offset="0"
         style="stop-color:#1a1a1a;stop-opacity:1;" />
      <stop
         style="stop-color:#fbf8f8;stop-opacity:1"
         offset="0.07032402"
         id="stop3475" />
      <stop
         id="stop3468"
         offset="0.34195036"
         style="stop-color:#e7e5e5;stop-opacity:1" />
      <stop
         style="stop-color:#d3d3d3;stop-opacity:1"
         offset="0.65403521"
         id="stop3471" />
      <stop
         id="stop3472"
         offset="0.80463767"
         style="stop-color:#1a1a1a;stop-opacity:1" />
      <stop
         id="stop3466"
         offset="1"
         style="stop-color:#1a1a1a;stop-opacity:0;" />
    </linearGradient>
    <linearGradient
       id="linearGradient3849">
      <stop
         offset="0"
         style="stop-color:#414141;stop-opacity:1;"
         id="stop3851" />
      <stop
         offset="1"
         style="stop-color:#323232;stop-opacity:1;"
         id="stop3853" />
    </linearGradient>
    <linearGradient
       y2="48.0854"
       x2="78.466103"
       y1="56.3008"
       x1="64.477501"
       gradientUnits="userSpaceOnUse"
       id="linearGradient3834">
      <stop
         id="stop3836"
         style="stop-color:#b4b4b4;stop-opacity:1;"
         offset="0" />
      <stop
         offset="1"
         style="stop-color:#dcdcdc;stop-opacity:1;"
         id="stop3838" />
    </linearGradient>
    <linearGradient
       id="linearGradient21900"
       gradientUnits="userSpaceOnUse"
       x1="64.477501"
       y1="56.3008"
       x2="78.466103"
       y2="48.0854">
      <stop
         offset="0"
         style="stop-color:#2d7787;stop-opacity:1;"
         id="stop21902" />
      <stop
         id="stop21912"
         style="stop-color:#3c9fb4;stop-opacity:1;"
         offset="0.65713483" />
      <stop
         offset="1"
         style="stop-color:#64bacc;stop-opacity:1;"
         id="stop21910" />
    </linearGradient>
    <radialGradient
       inkscape:collect="always"
       xlink:href="#linearGradient3834"
       id="radialGradient3850"
       gradientUnits="userSpaceOnUse"
       gradientTransform="matrix(0.69246168,0.05092335,-0.0509484,0.69280223,-458.2293,60.606564)"
       cx="255.99385"
       cy="256"
       fx="255.99385"
       fy="256"
       r="216" />
    <linearGradient
       inkscape:collect="always"
       xlink:href="#circle53_2_-7"
       id="linearGradient28146"
       x1="-297.38913"
       y1="35.000004"
       x2="-301.88116"
       y2="467"
       gradientUnits="userSpaceOnUse"
       spreadMethod="pad" />
    <linearGradient
       id="circle53_2_-7"
       gradientUnits="userSpaceOnUse"
       x1="-175.6665"
       y1="582.19751"
       x2="-175.6665"
       y2="581.43579"
       gradientTransform="matrix(82,0,0,-82,14489.971,47794.699)">
      <stop
         offset="0"
         style="stop-color:#81B4E0"
         id="stop23-0" />
      <stop
         offset="1"
         style="stop-color:#0C5A94"
         id="stop25-1" />
    </linearGradient>
    <linearGradient
       y2="581.43579"
       x2="-175.6665"
       y1="582.19751"
       x1="-175.6665"
       gradientTransform="matrix(153.94325,0,0,-154.05949,27298.791,89890.334)"
       gradientUnits="userSpaceOnUse"
       id="linearGradient3069"
       xlink:href="#circle53_2_-7"
       inkscape:collect="always" />
    <linearGradient
       inkscape:collect="always"
       xlink:href="#linearGradient21900"
       id="linearGradient28182"
       gradientUnits="userSpaceOnUse"
       x1="-293.03772"
       y1="467"
       x2="-295.13644"
       y2="175.06828"
       gradientTransform="translate(550.00616,4.9999962)" />
    <linearGradient
       inkscape:collect="always"
       xlink:href="#circle53_2_-7"
       id="linearGradient4469"
       gradientUnits="userSpaceOnUse"
       gradientTransform="matrix(211.9635,0,0,-211.9635,37491.427,123580.79)"
       x1="-175.6665"
       y1="582.19751"
       x2="-175.6665"
       y2="581.43579" />
    <radialGradient
       inkscape:collect="always"
       xlink:href="#linearGradient3834"
       id="radialGradient3800"
       gradientUnits="userSpaceOnUse"
       gradientTransform="matrix(0.69246168,0.05092335,-0.0509484,0.69280223,-458.2293,60.606564)"
       cx="255.99385"
       cy="256"
       fx="255.99385"
       fy="256"
       r="216" />
    <linearGradient
       inkscape:collect="always"
       xlink:href="#circle53_2_-7"
       id="linearGradient3806"
       gradientUnits="userSpaceOnUse"
       spreadMethod="pad"
       x1="-297.38913"
       y1="35.000004"
       x2="-301.88116"
       y2="467"
       gradientTransform="translate(550.00616,4.9999962)" />
    <radialGradient
       inkscape:collect="always"
       xlink:href="#linearGradient3834"
       id="radialGradient3809"
       gradientUnits="userSpaceOnUse"
       gradientTransform="matrix(1.000738,0.00615701,-0.00615247,0.99999998,1.3922486,-1.5761555)"
       cx="255.99385"
       cy="256"
       fx="255.99385"
       fy="256"
       r="216" />
    <radialGradient
       inkscape:collect="always"
       xlink:href="#linearGradient3834"
       id="radialGradient3239"
       gradientUnits="userSpaceOnUse"
       gradientTransform="matrix(1.000738,0.00615701,-0.00615247,0.99999998,1.3922486,-1.5761555)"
       cx="255.99385"
       cy="256"
       fx="255.99385"
       fy="256"
       r="216" />
    <linearGradient
       inkscape:collect="always"
       xlink:href="#linearGradient4487"
       id="linearGradient4082"
       gradientUnits="userSpaceOnUse"
       gradientTransform="translate(-146.22032,369.08845)"
       x1="1006.1035"
       y1="476.25983"
       x2="1011.9534"
       y2="251.66064" />
    <linearGradient
       id="linearGradient4487">
      <stop
         id="stop4489"
         style="stop-color:#000000;stop-opacity:1"
         offset="0" />
      <stop
         id="stop4491"
         style="stop-color:#000000;stop-opacity:0"
         offset="1" />
    </linearGradient>
    <linearGradient
       id="linearGradient3737">
      <stop
         id="stop3739"
         style="stop-color:#ffffff;stop-opacity:1"
         offset="0" />
      <stop
         id="stop3741"
         style="stop-color:#ffffff;stop-opacity:0"
         offset="1" />
    </linearGradient>
    <linearGradient
       id="linearGradient4046">
      <stop
         id="stop4048"
         style="stop-color:#000000;stop-opacity:1;"
         offset="0" />
      <stop
         id="stop4050"
         style="stop-color:#ffffff;stop-opacity:0.2"
         offset="1" />
    </linearGradient>
    <linearGradient
       inkscape:collect="always"
       xlink:href="#ButtonShadow-0-1-1"
       id="linearGradient4110"
       gradientUnits="userSpaceOnUse"
       gradientTransform="matrix(1.023305,0,0,1.023305,-823.77704,592.83757)"
       x1="1012.5133"
       y1="484.41721"
       x2="1006.8082"
       y2="20.625916" />
    <linearGradient
       x1="45.447727"
       y1="92.539597"
       x2="45.447727"
       y2="7.0165396"
       id="ButtonShadow-0-1-1"
       gradientUnits="userSpaceOnUse"
       gradientTransform="matrix(1.0058652,0,0,0.994169,100,0)">
      <stop
         id="stop3750-8-9-3"
         style="stop-color:#000000;stop-opacity:1"
         offset="0" />
      <stop
         id="stop3752-5-6-4"
         style="stop-color:#000000;stop-opacity:0.58823532"
         offset="1" />
    </linearGradient>
    <linearGradient
       inkscape:collect="always"
       xlink:href="#ButtonShadow-0-1-1"
       id="linearGradient4112"
       gradientUnits="userSpaceOnUse"
       gradientTransform="matrix(1.0402541,0,0,1.0402541,-837.95116,592.51825)"
       x1="1012.5133"
       y1="484.41721"
       x2="1006.8082"
       y2="20.625916" />
    <linearGradient
       inkscape:collect="always"
       xlink:href="#ButtonShadow-0-1-1"
       id="linearGradient4114"
       gradientUnits="userSpaceOnUse"
       gradientTransform="matrix(1.0317796,0,0,1.0317796,-830.86406,592.67791)"
       x1="1012.5133"
       y1="484.41721"
       x2="1006.8082"
       y2="20.625916" />
    <linearGradient
       inkscape:collect="always"
       xlink:href="#ButtonShadow-0-1-1"
       id="linearGradient4116"
       gradientUnits="userSpaceOnUse"
       gradientTransform="matrix(1.0148305,0,0,1.0148305,-816.68996,592.99723)"
       x1="1012.5133"
       y1="484.41721"
       x2="1006.8082"
       y2="20.625916" />
    <linearGradient
       inkscape:collect="always"
       xlink:href="#ButtonShadow-0-1-1"
       id="linearGradient4118"
       gradientUnits="userSpaceOnUse"
       gradientTransform="matrix(1.0074153,0,0,1.0074153,-810.48879,593.1369)"
       x1="1012.5133"
       y1="484.41721"
       x2="1006.8082"
       y2="20.625916" />
    <linearGradient
       x1="45.447727"
       y1="92.539597"
       x2="45.447727"
       y2="7.0165396"
       id="ButtonShadow"
       gradientUnits="userSpaceOnUse"
       gradientTransform="scale(1.0058652,0.994169)">
      <stop
         id="stop3750"
         style="stop-color:#000000;stop-opacity:1"
         offset="0" />
      <stop
         id="stop3752"
         style="stop-color:#000000;stop-opacity:0.58823532"
         offset="1" />
    </linearGradient>
    <filter
       color-interpolation-filters="sRGB"
       id="filter3174">
      <feGaussianBlur
         id="feGaussianBlur3176"
         stdDeviation="1.71" />
    </filter>
    <radialGradient
       cx="47.098362"
       cy="78.286942"
       r="38.957481"
       fx="47.098362"
       fy="78.286942"
       id="radialGradient3205"
       xlink:href="#linearGradient3224"
       gradientUnits="userSpaceOnUse"
       gradientTransform="matrix(1.3830053,-1.0350102e-8,0,1.3123934,-18.038924,-24.218731)" />
    <linearGradient
       id="linearGradient3224">
      <stop
         id="stop3226"
         style="stop-color:#5a5361;stop-opacity:1;"
         offset="0" />
      <stop
         id="stop3228"
         style="stop-color:#1e1e1e;stop-opacity:1;"
         offset="1" />
    </linearGradient>
    <linearGradient
       x1="48"
       y1="90"
       x2="48"
       y2="5.9877172"
       id="linearGradient3427"
       xlink:href="#linearGradient3187"
       gradientUnits="userSpaceOnUse" />
    <linearGradient
       id="linearGradient3187">
      <stop
         id="stop3189"
         style="stop-color:#b4b4b4;stop-opacity:1"
         offset="0" />
      <stop
         id="stop3191"
         style="stop-color:#e6e6e6;stop-opacity:1"
         offset="1" />
    </linearGradient>
    <radialGradient
       inkscape:collect="always"
       xlink:href="#linearGradient3224"
       id="radialGradient3167"
       gradientUnits="userSpaceOnUse"
       gradientTransform="matrix(8.3647611,-5.3161446e-8,0,6.7408738,660.8532,-135.07841)"
       cx="47.098362"
       cy="78.286942"
       fx="47.098362"
       fy="78.286942"
       r="38.957481" />
    <radialGradient
       inkscape:collect="always"
       xlink:href="#linearGradient3224"
       id="radialGradient3173"
       gradientUnits="userSpaceOnUse"
       gradientTransform="matrix(1.0933989,0.0067271,-0.00672214,1.0925926,643.91204,108.92448)"
       cx="253.44975"
       cy="437.23599"
       fx="253.44975"
       fy="437.23599"
       r="216" />
    <linearGradient
       inkscape:collect="always"
       xlink:href="#linearGradient4487"
       id="linearGradient4082-9"
       gradientUnits="userSpaceOnUse"
       gradientTransform="translate(-146.22032,369.08845)"
       x1="1016.1035"
       y1="476.25983"
       x2="1011.9534"
       y2="251.66064" />
    <linearGradient
       inkscape:collect="always"
       xlink:href="#linearGradient3737"
       id="linearGradient4084-2"
       gradientUnits="userSpaceOnUse"
       gradientTransform="translate(778.59979,-360.55963)"
       x1="993.43896"
       y1="51.511765"
       x2="988.78552"
       y2="363.73825" />
    <linearGradient
       inkscape:collect="always"
       xlink:href="#linearGradient4046"
       id="linearGradient4086-4"
       gradientUnits="userSpaceOnUse"
       x1="1764.6487"
       y1="155.59685"
       x2="1763.6903"
       y2="-55.941216" />
    <linearGradient
       gradientUnits="userSpaceOnUse"
       y2="703.43585"
       x2="705.68512"
       y1="0.25315779"
       x1="0"
       id="linearGradient3468"
       xlink:href="#linearGradient3461"
       inkscape:collect="always" />
    <clipPath
       id="clipPath6">
      <path
         inkscape:connector-curvature="0"
         id="path8"
         d="m 69.63,12.145 -0.052,0 c -22.727,-0.292 -46.47,4.077 -46.709,4.122 -2.424,0.451 -4.946,2.974 -5.397,5.397 -0.044,0.237 -4.414,23.983 -4.122,46.71 -0.292,22.777 4.078,46.523 4.122,46.761 0.451,2.423 2.974,4.945 5.398,5.398 0.237,0.044 23.982,4.413 46.709,4.121 22.779,0.292 46.524,-4.077 46.761,-4.121 2.423,-0.452 4.946,-2.976 5.398,-5.399 0.044,-0.236 4.413,-23.981 4.121,-46.709 0.292,-22.777 -4.077,-46.523 -4.121,-46.761 -0.453,-2.423 -2.976,-4.946 -5.398,-5.397 -0.238,-0.045 -23.984,-4.414 -46.71,-4.122" />
    </clipPath>
    <linearGradient
       y2="155.59"
       x2="20.030001"
       y1="261.26001"
       x1="18.6"
       gradientUnits="userSpaceOnUse"
       id="0"
       gradientTransform="matrix(3.9865643,0,0,3.9981502,160.48509,-581.34732)">
      <stop
         id="stop11"
         stop-color="#d3d3d3" />
      <stop
         id="stop13"
         stop-color="#fcf9f9"
         offset="1" />
    </linearGradient>
    <linearGradient
       id="linearGradient15"
       gradientUnits="userSpaceOnUse"
       x1="0"
       x2="459">
      <stop
         id="stop17"
         stop-color="#e3203a" />
      <stop
         id="stop19"
         stop-color="#fd5420"
         offset="1" />
    </linearGradient>
    <linearGradient
       id="linearGradient21"
       gradientUnits="userSpaceOnUse"
       x2="47"
       x1="0">
      <stop
         id="stop23-8"
         stop-color="#a9a3d4" />
      <stop
         id="stop25-6"
         stop-color="#87baff"
         offset=".47" />
      <stop
         id="stop27"
         stop-color="#89ec85"
         offset="1" />
    </linearGradient>
    <linearGradient
       inkscape:collect="always"
       xlink:href="#linearGradient3336"
       id="linearGradient4543"
       x1="10.335485"
       y1="65.949181"
       x2="116.11928"
       y2="63.116219"
       gradientUnits="userSpaceOnUse"
       gradientTransform="translate(0.28329599,0)" />
    <linearGradient
       id="linearGradient3336"
       inkscape:collect="always">
      <stop
         id="stop3338"
         offset="0"
         style="stop-color:#cd9c6d;stop-opacity:1;" />
      <stop
         style="stop-color:#e9c6af;stop-opacity:1"
         offset="0.16435306"
         id="stop3344" />
      <stop
         id="stop3345"
         offset="0.79344928"
         style="stop-color:#c06b32;stop-opacity:1" />
      <stop
         id="stop3340"
         offset="1"
         style="stop-color:#cd9c6d;stop-opacity:0;" />
    </linearGradient>
  </defs>
  <sodipodi:namedview
     pagecolor="#ffffff"
     bordercolor="#666666"
     borderopacity="1"
     objecttolerance="10"
     gridtolerance="10"
     guidetolerance="10"
     inkscape:pageopacity="0"
     inkscape:pageshadow="2"
     inkscape:window-width="1345"
     inkscape:window-height="714"
     id="namedview4"
     showgrid="false"
     inkscape:zoom="3.529877"
     inkscape:cx="36.039973"
     inkscape:cy="69.929734"
     inkscape:window-x="10"
     inkscape:window-y="24"
     inkscape:window-maximized="0"
     inkscape:current-layer="svg2" />
  <rect
     style="opacity:1;fill:url(#linearGradient4229);fill-opacity:1;fill-rule:evenodd;stroke:none;stroke-width:0.52619416;stroke-miterlimit:4;stroke-dasharray:none;stroke-opacity:1"
     id="rect4221"
     width="113.2922"
     height="113.2922"
     x="7.7308292"
     y="7.1286855"
     ry="15.785824" />
  <g
     id="g4462"
     transform="translate(431.04223,-230.4262)">
    <rect
       ry="50"
       y="34.035957"
       x="36.038872"
       height="440.42761"
       width="440.42761"
       id="rect3484"
       style="opacity:1;fill:url(#linearGradient3468);fill-opacity:1;stroke:none;stroke-width:60;stroke-miterlimit:4;stroke-dasharray:none;stroke-dashoffset:0;stroke-opacity:1" />
    <g
       id="layer1"
       inkscape:label="Livello 1"
       transform="translate(0,-540.36218)" />
    <g
       id="g27124" />
    <g
       id="layer4"
       style="display:inline"
       transform="matrix(6.0482495,0,0,5.136321,1281.9571,109.31677)" />
    <path
       sodipodi:nodetypes="ccccccccccccccc"
       inkscape:connector-curvature="0"
       id="path18193"
       d="m 89.25,120.09375 0,38.875 c 0,-0.0141 45.18745,44.90625 45.18745,44.90625 l 0,0.0312 -45.1875,14.53125 0,37.625 c 0,-0.008 390.00005,390.00005 390.00005,390.00005 l 46.1875,-16.15625 151.9685,152 135.34375,0 0,-40.03125 -389.99975,-390 -15.46875,0 L 226.5,171 Z"
       style="font-style:normal;font-variant:normal;font-weight:bold;font-stretch:normal;font-size:48px;line-height:125%;font-family:'MgOpen Canonica';-inkscape-font-specification:'MgOpen Canonica Bold';text-align:start;writing-mode:lr-tb;text-anchor:start;display:none;fill:#000000;fill-opacity:0.31372549;stroke:none" />
    <path
       inkscape:connector-curvature="0"
       d="m 203.00756,196.0633 c 17.78246,-10.09015 35.44984,-20.41051 53.19394,-30.5774 17.84001,10.18608 35.62247,20.48725 53.48167,30.63495 -17.8592,10.20526 -35.66085,20.44888 -53.48167,30.67331 -17.70574,-10.28198 -35.54575,-20.37213 -53.19394,-30.73086 z m -77.26838,-15.03932 c 0.0384,10.20526 0.0191,20.4297 0.0191,30.65413 43.5258,24.80338 86.91732,49.81777 130.44313,74.58278 26.2229,-15.13524 52.44579,-30.28966 78.63033,-45.48245 0.0959,20.04604 -0.11512,40.0729 0.11513,60.11894 -26.06944,15.51888 -52.58009,30.28966 -78.74544,45.65508 -26.22291,-15.25033 -52.58009,-30.30883 -78.86054,-45.46326 -17.37964,9.8216 -34.70171,19.71994 -52.04297,29.59908 43.46825,25.37886 87.30097,50.14387 130.90351,75.31172 43.48742,-24.95684 87.08996,-49.68349 130.50066,-74.79379 -0.0959,-50.08631 -0.0768,-100.17263 -0.0191,-150.25896 C 343.25311,155.87531 299.70812,130.97602 256.22068,106 212.71407,130.95684 169.22663,155.97123 125.7392,181.02398 Z"
       style="fill:#808080;fill-opacity:1"
       id="path7" />
    <g
       transform="translate(-666.96165,-142.41134)"
       id="g8265" />
  </g>
  <path
     inkscape:connector-curvature="0"
     id="path4150"
     d="m 56.70448,104.71365 c -5.089452,-0.93991 -9.28216,-2.74229 -12.526779,-5.385078 -1.659132,-1.351383 -2.234753,-1.61652 -3.513138,-1.618188 -3.229183,-0.0036 -3.96258,-0.456135 -5.377581,-3.313743 -3.282244,-6.628514 -3.99975,-13.147499 -1.941792,-17.642671 0.866704,-1.893106 2.291341,-3.495391 6.079425,-6.837483 2.410654,-2.126832 2.708164,-3.480835 1.114892,-5.074114 -0.849956,-0.849957 -1.113223,-0.911753 -3.178102,-0.746009 -4.806173,0.385792 -10.976046,5.023094 -13.497388,10.144679 -1.116022,2.26696 -1.221523,2.760603 -1.221523,5.715719 0,2.913944 0.114135,3.467704 1.151852,5.588146 1.357556,2.774004 4.452448,6.259025 7.778006,8.758422 1.30982,0.984439 2.228016,1.84105 2.040391,1.903583 -0.513662,0.171224 -5.411223,-1.945712 -7.72563,-3.339379 -3.481803,-2.096633 -6.684657,-4.881007 -9.037829,-7.856907 -2.229556,-2.819576 -5.029181,-7.609714 -4.662072,-7.976795 0.103741,-0.103756 0.756262,-0.001 1.45001,0.227641 0.922563,0.304466 1.458744,0.310673 1.996046,0.02315 0.404068,-0.216247 0.734646,-0.458363 0.734646,-0.53802 0,-0.07965 -0.650835,-0.896823 -1.446254,-1.815895 -1.513764,-1.749005 -3.214852,-4.770829 -3.214852,-5.710867 0,-0.683719 0.471224,-0.695314 1.733307,-0.04266 2.024382,1.046858 5.079087,1.133186 5.079087,0.143545 0,-0.20718 -0.505257,-0.952149 -1.122797,-1.655488 -1.379864,-1.571586 -2.813017,-4.570978 -2.817712,-5.897173 -0.0036,-0.971506 0.02963,-0.986002 2.251719,-0.986002 2.882151,0 6.153363,-0.849109 7.888703,-2.04766 0.963461,-0.665442 1.720735,-1.690028 2.599464,-3.516949 1.444977,-3.0042 1.5201,-3.757252 0.467695,-4.688052 -0.424754,-0.375669 -1.289881,-1.812454 -1.9225,-3.19286 C 22.216318,39.3778 21.92848,26.826478 25.306706,23.045593 c 0.95511,-1.068961 1.214613,-1.157723 3.760779,-1.286299 2.23292,-0.112758 3.308647,0.04078 5.860839,0.836508 5.581636,1.740265 11.018067,4.941181 13.9676,8.223961 l 1.71325,1.906829 3.226923,-0.722304 c 2.593264,-0.580471 4.599849,-0.728338 10.21859,-0.753017 4.245796,-0.01864 7.828413,0.141866 9.122187,0.408711 l 2.13052,0.439422 1.41325,-1.470769 c 4.641924,-4.830854 13.437481,-8.928214 19.165716,-8.928214 2.78924,0 4.15324,0.656612 5.06123,2.4364 2.38112,4.667372 1.73073,16.386752 -1.281999,23.099978 l -0.938353,2.090953 1.561862,3.665506 c 2.46416,5.783037 4.48239,7.214554 10.83586,7.685836 1.53435,0.113815 2.86267,0.324978 2.95185,0.469251 0.38565,0.623996 -1.03744,4.042521 -2.5228,6.060227 l -1.61432,2.192923 0.85254,0.324149 c 0.95893,0.364584 3.31505,-0.06014 4.91057,-0.885228 0.65348,-0.337938 1.09767,-0.396699 1.24135,-0.164238 0.35067,0.567387 -1.36004,3.935397 -2.99851,5.90338 -2.05098,2.463464 -1.9793,2.84679 0.48492,2.592463 1.44332,-0.148963 1.97202,-0.0838 1.97202,0.242854 0,0.245512 -0.84707,1.870694 -1.88238,3.611521 -2.19003,3.682444 -6.53238,8.320753 -9.90708,10.582255 -2.74421,1.839008 -7.763956,4.241557 -9.423635,4.510322 l -1.196114,0.193696 1.052925,-0.823955 c 7.941974,-6.214893 10.961964,-10.981565 10.511664,-16.591233 -0.5322,-6.630212 -8.175076,-14.268494 -14.809974,-14.801087 -2.064896,-0.165743 -2.328155,-0.103958 -3.178111,0.746009 -0.605943,0.605953 -0.926711,1.319271 -0.926711,2.060842 0,1.19013 0.142205,1.355277 4.962601,5.762917 3.254145,2.975517 4.169278,5.143289 4.140332,9.807996 -0.01313,2.135878 -0.267215,4.527711 -0.628143,5.91603 -0.754876,2.903474 -3.369109,8.495402 -4.103363,8.777168 -0.301057,0.11552 -1.528816,0.309217 -2.728313,0.430416 -1.778973,0.179767 -2.420536,0.434328 -3.480809,1.381132 -2.957893,2.641306 -8.202004,4.835476 -13.680546,5.724016 -3.971269,0.64408 -10.962854,0.64928 -14.420443,0.0108 z m 14.367356,-1.09957 c 6.62919,-1.19709 12.86042,-4.152137 14.562347,-6.905922 1.592114,-2.576106 0.612042,-7.782072 -2.3217,-12.332474 -1.6062,-2.491284 -7.477797,-8.095372 -9.764151,-9.319285 -0.990338,-0.530126 -3.249187,-1.391346 -5.019663,-1.913809 -2.736919,-0.807642 -3.675536,-0.922681 -6.266713,-0.768037 -4.560173,0.27217 -8.511111,1.926587 -11.58891,4.852761 -5.124041,4.871635 -8.489732,11.395034 -8.489732,16.454921 0,2.100306 0.740299,3.389841 2.947683,5.13469 6.264798,4.952055 15.562038,6.671355 25.940839,4.797155 z M 59.242177,95.805096 c -0.954535,-0.697969 -0.400303,-1.319638 1.176504,-1.319638 1.235408,0 2.201823,-0.490752 2.201823,-1.118111 0,-0.141667 -0.584291,-0.618706 -1.298396,-1.060045 -1.645658,-1.017059 -3.362719,-3.68674 -3.362719,-5.228293 0,-1.534353 1.070621,-2.507143 3.553726,-3.229003 3.611417,-1.04987 9.367595,0.325513 9.648641,2.305454 0.298103,2.100245 -1.995217,5.368813 -4.501716,6.416095 -0.671439,0.280544 -1.156556,0.704925 -1.078023,0.943084 0.204682,0.620813 1.712967,1.317907 2.864874,1.324079 1.178418,0.0064 1.34894,0.917412 0.237731,1.270088 -1.019612,0.323622 -3.026771,-0.09138 -3.56215,-0.73646 -0.549747,-0.662395 -1.227494,-0.670153 -2.245684,-0.02571 -1.276461,0.807927 -2.880044,1.010203 -3.634611,0.458468 z M 46.298921,74.901118 c 0.698817,-0.698842 0.593955,-1.528947 -0.261225,-2.067493 -1.242318,-0.782361 -2.641255,0.980594 -1.688817,2.128237 0.564389,0.680038 1.229993,0.659306 1.950042,-0.06076 z m 37.762694,-0.924551 c 0.645337,-0.645347 0.518659,-1.648493 -0.260851,-2.065674 -0.875739,-0.468674 -1.727154,-0.150115 -2.013961,0.753521 -0.425128,1.339487 1.269824,2.317159 2.274812,1.312153 z M 54.260933,67.571608 c 1.507592,-0.56959 2.944647,-2.105926 3.189179,-3.409476 0.281356,-1.499702 -0.75814,-3.870681 -2.587621,-5.902044 -1.945247,-2.159951 -5.494068,-5.058629 -5.892046,-4.812657 -0.183295,0.113286 -0.333276,0.778428 -0.333276,1.478092 0,1.068871 -0.100286,1.231697 -0.627468,1.019154 -0.345092,-0.139131 -1.237906,-0.339711 -1.983994,-0.445728 l -1.356543,-0.192764 0.101625,1.572641 c 0.09765,1.511291 0.05962,1.576745 -0.974009,1.677702 -1.937133,0.189186 -2.055315,0.307267 -1.459947,1.45862 0.752634,1.455404 3.825746,4.747881 5.541166,5.936656 1.487817,1.031058 3.714428,1.957944 4.769468,1.98543 0.332283,0.0091 1.05834,-0.155878 1.613466,-0.365626 z m 23.494731,-0.32889 c 2.109177,-0.790184 5.042527,-3.184424 6.929964,-5.656349 1.655148,-2.167681 1.630624,-2.880039 -0.104114,-3.023614 l -1.344555,-0.111288 0.101634,-1.572641 0.101653,-1.572641 -1.356571,0.192764 c -0.746096,0.106017 -1.638911,0.306597 -1.984002,0.445728 -0.527201,0.212543 -0.62745,0.04971 -0.62745,-1.019154 0,-0.699664 -0.146462,-1.362628 -0.325454,-1.47326 -0.425183,-0.262778 -3.340564,2.068376 -5.526305,4.418878 -3.217879,3.460445 -3.836358,6.402218 -1.7629,8.385009 1.879076,1.796911 3.162247,2.011541 5.8981,0.986568 z M 33.553775,44.323148 c 0.905323,-1.271419 0.90618,-1.305796 0.06145,-2.492057 -1.532809,-2.152633 -2.08273,-7.849828 -0.927833,-9.612408 0.547541,-0.835654 0.76155,-0.903559 2.218343,-0.703883 2.041484,0.279817 5.701905,2.213877 6.671137,3.524834 0.885612,1.197841 1.408674,1.246142 2.796123,0.2582 1.044428,-0.743703 1.04482,-0.74551 0.413906,-1.827678 -1.549074,-2.656869 -6.777813,-5.429362 -10.315895,-5.469929 -1.870133,-0.02143 -2.397707,0.122944 -3.488121,0.954575 -1.943122,1.481987 -2.561027,3.474348 -2.346963,7.567236 0.186276,3.560961 1.198157,6.532551 2.754387,8.088783 0.991778,0.991773 1.279643,0.953492 2.163441,-0.287673 z m 62.163896,-2.37277 c 0.840155,-1.761779 1.444977,-6.046234 1.158452,-8.20612 -0.617731,-4.65669 -3.540607,-6.602261 -8.146163,-5.422375 -2.462328,0.630814 -4.665619,1.795057 -6.582895,3.478433 -1.575622,1.383432 -1.563086,1.946328 0.05844,2.623851 1.28515,0.53696 1.321544,0.527813 3.386404,-0.851042 2.180827,-1.456309 5.17444,-2.41102 6.370089,-2.031533 1.131986,0.359277 1.617341,2.082446 1.398627,4.965716 -0.107743,1.420441 -0.399765,3.029354 -0.64892,3.575364 -0.41407,0.907414 -0.364994,1.084619 0.571035,2.061646 1.3188,1.376511 1.70055,1.346103 2.434941,-0.19394 z"
     style="fill:#cd7a46" />
  <path
     inkscape:connector-curvature="0"
     id="path4148"
     d="m 71.942724,103.81295 c 1.676227,-0.36376 4.011912,-0.98817 5.190449,-1.38757 2.764972,-0.93705 3.017846,-0.71593 0.330951,0.28937 -2.245738,0.84024 -6.541048,1.82489 -7.785746,1.7848 -0.430808,-0.0139 0.588156,-0.32285 2.264346,-0.6866 z M 40.112027,97.31473 c -1.435013,-0.136206 -2.828534,-0.42975 -3.096698,-0.652311 -0.778306,-0.645921 -2.955149,-5.371464 -3.645478,-7.91372 -0.404633,-1.490066 -0.641654,-3.688265 -0.657207,-6.095292 -0.03382,-5.229183 0.491098,-6.303536 5.349019,-10.947935 3.288124,-3.143636 3.763103,-3.746737 3.763103,-4.77833 0,-0.836948 -0.316984,-1.497609 -1.088973,-2.269598 -1.025245,-1.025245 -1.221413,-1.08055 -3.351568,-0.94491 -4.91553,0.312999 -11.13024,4.954748 -13.761257,10.278256 -1.248865,2.526867 -1.339012,2.928338 -1.339012,5.962355 0,4.663615 1.190853,7.018874 5.942745,11.753475 1.929766,1.92271 3.44384,3.495834 3.364651,3.495834 -0.638281,0 -4.764956,-2.163806 -7.126232,-3.736601 -4.318576,-2.876516 -8.816098,-7.859569 -11.093016,-12.290581 -0.79675,-1.550478 -0.769956,-1.607947 0.627513,-1.345785 1.231798,0.231087 2.726845,-0.279144 2.726845,-0.930616 0,-0.193048 -0.723596,-1.23939 -1.608005,-2.325197 -1.624297,-1.994234 -2.405275,-3.287767 -2.843449,-4.709701 l -0.239747,-0.777994 1.81164,0.68836 c 2.139354,0.812888 4.414011,0.893779 5.007993,0.178107 0.340104,-0.409812 0.104497,-0.921549 -1.196798,-2.59947 -1.467095,-1.89169 -2.724365,-4.511063 -2.724365,-5.6759 0,-0.313272 0.947798,-0.496504 3.137286,-0.606498 5.453899,-0.273999 8.15084,-2.02634 10.139975,-6.588472 l 1.148123,-2.633268 -1.293464,-1.219889 c -2.863615,-2.700748 -4.51798,-8.367303 -4.788267,-16.400807 -0.196997,-5.856113 0.203917,-8.502429 1.614295,-10.654913 1.712849,-2.614148 6.884134,-2.435978 13.795172,0.475302 5.045017,2.125205 11.384501,6.934863 11.384501,8.637214 0,0.646359 0.416577,0.618665 5.916023,-0.393301 3.6242,-0.666895 13.034343,-0.685356 16.672454,-0.0327 2.80546,0.503277 3.226923,0.462408 3.226923,-0.312955 0,-0.573147 2.830649,-3.249635 5.019654,-4.746278 4.797557,-3.280132 11.702168,-5.683349 15.613147,-5.434317 1.945566,0.123885 2.470506,0.308215 3.392057,1.19113 2.73425,2.619574 3.27504,11.595628 1.19807,19.885599 -0.72334,2.887219 -1.769278,5.38144 -2.473,5.897458 -0.453491,0.332505 -0.290454,0.933327 1.126434,4.151673 2.162556,4.911956 2.617146,5.497953 5.282866,6.810287 1.77562,0.874129 2.89222,1.149735 5.36524,1.324254 2.86583,0.202246 3.12269,0.282439 3.11948,0.973871 -0.005,1.12322 -1.54084,4.210347 -2.81772,5.66464 -0.61754,0.70334 -1.1228,1.532546 -1.1228,1.842683 0,0.965836 2.27368,1.132611 4.68096,0.343336 1.35339,-0.443726 2.13144,-0.555884 2.13144,-0.307227 0,0.716047 -1.49531,3.224941 -3.06974,5.150505 -0.85495,1.045635 -1.46846,2.125285 -1.36335,2.399224 0.23783,0.61969 1.38374,0.816326 2.90926,0.499213 0.64091,-0.133224 1.16528,-0.131455 1.16528,0.004 0,0.135378 -0.83631,1.605096 -1.85845,3.266034 -4.06825,6.610693 -11.73476,12.831031 -17.861647,14.492324 -0.851761,0.230948 -0.842845,0.202558 0.179274,-0.570579 0.591593,-0.447483 2.107891,-1.78696 3.369538,-2.976592 7.849145,-7.401199 8.139685,-15.566564 0.810865,-22.787869 -3.470136,-3.419231 -6.613502,-5.094543 -9.958461,-5.307536 -2.130137,-0.13564 -2.326314,-0.08037 -3.35156,0.944911 -0.790669,0.79068 -1.088972,1.426695 -1.088972,2.32185 0,1.101597 0.379708,1.583251 3.565878,4.523295 4.802754,4.43172 5.586568,5.980378 5.552863,10.971438 -0.01468,2.166094 -0.267681,4.508062 -0.63922,5.916017 -0.664428,2.517631 -2.945422,7.670865 -3.656719,8.261173 -0.240722,0.199777 -1.53218,0.465434 -2.869925,0.590362 -2.303539,0.215103 -2.415722,0.190871 -2.119479,-0.457821 0.172044,-0.376718 0.372123,-1.820346 0.444629,-3.208069 0.145086,-2.776796 -0.763336,-5.848056 -2.581795,-8.728692 -1.359807,-2.154054 -8.330543,-8.905158 -10.424659,-10.096196 -0.986007,-0.560797 -3.244855,-1.446409 -5.019662,-1.968033 -2.724092,-0.800617 -3.679867,-0.91888 -6.133707,-0.758939 -3.243598,0.211416 -6.495957,1.177423 -8.816846,2.618756 -2.419706,1.502694 -8.356179,8.264634 -9.598078,10.932671 -2.05722,4.419775 -2.6313,8.171137 -1.620604,10.590123 0.298404,0.714142 0.500069,1.320596 0.448185,1.347673 -0.05187,0.02708 -1.268457,-0.06227 -2.703451,-0.198429 z m 6.186894,-22.413612 c 0.698817,-0.698842 0.593955,-1.528947 -0.261225,-2.067493 -1.242318,-0.782361 -2.641255,0.980594 -1.688817,2.128237 0.564389,0.680038 1.229993,0.659306 1.950042,-0.06076 z m 37.762694,-0.924551 c 0.645337,-0.645347 0.518659,-1.648493 -0.260851,-2.065674 -0.875739,-0.468674 -1.727154,-0.150115 -2.013961,0.753521 -0.425128,1.339487 1.269824,2.317159 2.274812,1.312153 z m -28.19729,-6.93571 c 3.647976,-2.355382 2.074606,-7.246496 -3.922248,-12.192982 -2.791538,-2.302575 -3.845629,-2.462903 -3.837743,-0.583715 0.0055,1.094995 -0.06765,1.17232 -0.89637,0.960207 -0.495739,-0.126876 -1.304705,-0.259419 -1.797727,-0.294528 -0.829844,-0.05911 -0.894072,0.04923 -0.865418,1.459987 0.02872,1.416487 -0.03592,1.523823 -0.917476,1.523823 -0.521639,0 -1.261628,0.230622 -1.644417,0.512475 -0.688241,0.506774 -0.688004,0.527457 0.02124,1.858807 1.496323,2.809307 5.590962,6.339513 8.545081,7.367134 2.143848,0.745776 3.445289,0.596126 5.315213,-0.611208 z m 22.75022,0.209383 c 2.955951,-1.296596 8.413862,-7.098371 7.910839,-8.40923 -0.117316,-0.305771 -0.837284,-0.655728 -1.599891,-0.777671 -1.357346,-0.217046 -1.385946,-0.253043 -1.358267,-1.709528 0.0258,-1.363879 -0.0464,-1.48506 -0.868089,-1.454804 -0.492986,0.01813 -1.339505,0.156519 -1.881101,0.307469 -0.942583,0.262693 -0.975605,0.228579 -0.77063,-0.796257 0.128885,-0.644359 0.04887,-1.172855 -0.200899,-1.327225 -0.883971,-0.546331 -2.266899,0.290917 -5.188981,3.141527 -4.299668,4.194524 -5.374245,6.896303 -3.781693,9.508377 0.937642,1.537913 3.310314,2.662649 5.010919,2.375387 0.690211,-0.116595 1.917705,-0.502711 2.727793,-0.858045 z M 34.073436,44.492055 c 1.116606,-1.463918 1.160723,-1.852013 0.264945,-2.331402 -0.985341,-0.527339 -1.821877,-2.934177 -2.041293,-5.873157 -0.241551,-3.234844 0.23517,-4.318141 1.973674,-4.485113 2.314169,-0.222258 6.856099,2.224961 7.558572,4.072595 0.184917,0.486417 0.508019,0.884392 0.717944,0.884392 0.655055,0 3.221507,-1.430746 3.221507,-1.795922 0,-1.214415 -3.455127,-4.272833 -6.415099,-5.67851 -3.552914,-1.687268 -6.441966,-1.801211 -8.370784,-0.330136 -1.943123,1.481987 -2.561027,3.474348 -2.346964,7.567236 0.187999,3.59391 1.105675,6.262269 2.82301,8.208526 1.125513,1.275536 1.484663,1.242771 2.614488,-0.238509 z m 61.459363,-2.179463 c 1.00001,-2.058325 1.653771,-6.228206 1.343324,-8.568334 -0.43275,-3.262292 -2.004397,-5.166214 -4.748828,-5.7528 -1.481636,-0.316686 -5.152915,0.617636 -7.245399,1.84391 -1.734684,1.016581 -4.692586,3.598747 -4.692586,4.096476 0,0.373417 2.353482,1.393338 3.215134,1.393338 0.339768,0 0.925116,-0.345427 1.300776,-0.767618 1.007295,-1.132052 4.785834,-2.817246 6.317521,-2.81757 0.996045,-2.13e-4 1.435961,0.19408 1.744403,0.770397 0.526581,0.983939 0.274591,6.957502 -0.318525,7.550617 -0.234978,0.234988 -0.427253,0.669659 -0.427253,0.965931 0,0.5172 2.061824,2.903375 2.508715,2.903375 0.11923,0 0.57046,-0.727978 1.002718,-1.617722 z M 59.242177,95.805096 c -0.954535,-0.697969 -0.400303,-1.319638 1.176504,-1.319638 1.235408,0 2.201823,-0.490752 2.201823,-1.118111 0,-0.141667 -0.584291,-0.618706 -1.298396,-1.060045 -1.645658,-1.017059 -3.362719,-3.68674 -3.362719,-5.228293 0,-1.534353 1.070621,-2.507143 3.553726,-3.229003 3.611417,-1.04987 9.367595,0.325513 9.648641,2.305454 0.298103,2.100245 -1.995217,5.368813 -4.501716,6.416095 -0.671439,0.280544 -1.156556,0.704925 -1.078023,0.943084 0.204682,0.620813 1.712967,1.317907 2.864874,1.324079 1.178418,0.0064 1.34894,0.917412 0.237731,1.270088 -1.019612,0.323622 -3.026771,-0.09138 -3.56215,-0.73646 -0.549747,-0.662395 -1.227494,-0.670153 -2.245684,-0.02571 -1.276461,0.807927 -2.880044,1.010203 -3.634611,0.458468 z"
     style="fill:url(#linearGradient4543);fill-opacity:1" />
  <path
     inkscape:connector-curvature="0"
     id="path4146"
     d="m 39.791806,96.997609 c -1.413916,-0.09987 -2.644446,-0.262264 -2.734503,-0.360872 -0.09007,-0.09855 -0.656031,-1.066673 -1.257698,-2.151279 -3.128169,-5.639126 -4.011949,-13.53961 -1.991925,-17.806475 0.666698,-1.408268 2.773349,-3.672963 6.16412,-6.626553 1.854516,-1.615407 1.90867,-1.715777 1.808157,-3.350411 -0.109676,-1.783465 0.08077,-2.033841 1.869987,-2.457884 0.733278,-0.173791 1.383393,0.117656 3.087836,1.384259 3.584413,2.663619 6.042958,3.235282 8.508303,1.978363 1.376437,-0.701743 1.386648,-0.701692 2.388354,0.01162 1.054784,0.751063 3.551875,3.516195 3.551875,3.933122 0,0.133366 -1.075553,0.507897 -2.390104,0.832298 -3.93957,0.972194 -6.033431,2.431026 -10.424659,7.263124 -3.525828,3.87979 -4.072685,4.664788 -5.120459,7.350211 -1.32065,3.38494 -1.840858,7.836586 -1.081515,9.255398 0.236701,0.442313 0.376982,0.831777 0.311706,0.865454 -0.06528,0.03364 -1.275541,-0.02051 -2.689475,-0.120342 z m 6.507115,-22.096491 c 0.698817,-0.698842 0.593955,-1.528947 -0.261225,-2.067493 -1.242318,-0.782361 -2.641255,0.980594 -1.688817,2.128237 0.564389,0.680038 1.229993,0.659306 1.950042,-0.06076 z m 40.143536,21.482926 c 0.574079,-1.496068 0.60081,-3.690952 0.0702,-5.762313 -1.05866,-4.132267 -2.400461,-6.179278 -7.130408,-10.87783 -4.61637,-4.585757 -7.000192,-6.13295 -11.047277,-7.170183 -0.973717,-0.249566 -1.770413,-0.656072 -1.770413,-0.903344 0,-0.590374 3.897177,-4.793048 4.444635,-4.793048 0.232881,0 1.056334,0.322694 1.829937,0.717098 0.773593,0.394405 1.82773,0.717099 2.342496,0.717099 1.696238,0 4.077362,-1.059858 6.363889,-2.832598 2.177125,-1.687947 2.300121,-1.734297 3.675108,-1.38529 1.538653,0.390553 1.595797,0.488669 1.077996,1.850568 -0.59792,1.572646 0.202048,2.902146 3.276892,5.446016 2.882834,2.385031 4.587223,4.578327 5.347195,6.881103 0.716668,2.171512 0.21524,9.12105 -0.882594,12.232163 -0.952812,2.70026 -2.539055,5.74171 -3.242595,6.2174 -0.214264,0.144876 -1.334562,0.265893 -2.489569,0.26892 -1.832672,0.0055 -2.070166,-0.07239 -1.865456,-0.605761 z M 84.061615,73.976567 c 0.645337,-0.645347 0.518659,-1.648493 -0.260851,-2.065674 -0.875739,-0.468674 -1.727154,-0.150115 -2.013961,0.753521 -0.425128,1.339487 1.269824,2.317159 2.274812,1.312153 z M 59.242177,95.805096 c -0.954535,-0.697969 -0.400303,-1.319638 1.176504,-1.319638 1.235408,0 2.201823,-0.490752 2.201823,-1.118111 0,-0.141667 -0.584291,-0.618706 -1.298396,-1.060045 -1.645658,-1.017059 -3.362719,-3.68674 -3.362719,-5.228293 0,-1.534353 1.070621,-2.507143 3.553726,-3.229003 3.611417,-1.04987 9.367595,0.325513 9.648641,2.305454 0.298103,2.100245 -1.995217,5.368813 -4.501716,6.416095 -0.671439,0.280544 -1.156556,0.704925 -1.078023,0.943084 0.204682,0.620813 1.712967,1.317907 2.864874,1.324079 1.178418,0.0064 1.34894,0.917412 0.237731,1.270088 -1.019612,0.323622 -3.026771,-0.09138 -3.56215,-0.73646 -0.549747,-0.662395 -1.227494,-0.670153 -2.245684,-0.02571 -1.276461,0.807927 -2.880044,1.010203 -3.634611,0.458468 z M 27.33261,49.91624 c -2.499215,-3.276645 -3.808004,-8.339843 -4.055226,-15.687998 -0.196997,-5.856113 0.203917,-8.502429 1.614295,-10.654913 1.712849,-2.614148 6.884134,-2.435978 13.795172,0.475302 4.934922,2.078835 11.727614,7.199539 11.29036,8.511303 -0.07549,0.226515 -1.063044,0.770445 -2.194566,1.20873 l -2.05732,0.796883 -0.605706,-0.774262 c -1.512552,-1.933352 -3.316131,-3.342947 -5.765933,-4.506347 -3.552914,-1.687268 -6.441966,-1.801211 -8.370784,-0.330136 -1.952212,1.488935 -2.561292,3.46989 -2.343982,7.623941 0.151795,2.902438 0.349057,3.751538 1.338273,5.760926 0.638135,1.296208 1.386721,2.443654 1.663518,2.549874 0.276797,0.106226 0.503287,0.43002 0.503287,0.719545 0,0.843053 -2.902481,5.492167 -3.428807,5.492167 -0.263286,0 -0.885466,-0.533256 -1.382581,-1.185015 z m 69.053773,-3.768717 -1.551024,-2.396483 0.741675,-1.528085 c 0.960963,-1.979766 1.604258,-6.178344 1.299089,-8.478697 -0.617731,-4.65669 -3.540607,-6.602261 -8.146163,-5.422375 -2.622904,0.671958 -4.85008,1.900039 -6.94086,3.827271 l -1.493141,1.37631 -1.935702,-0.56688 c -2.69592,-0.789524 -2.816107,-1.008092 -1.379253,-2.507986 4.544519,-4.743802 14.178071,-9.025635 19.538549,-8.684306 1.945566,0.123885 2.470506,0.308214 3.392057,1.19113 3.3034,3.164849 3.27703,15.41465 -0.05115,23.751631 -0.48963,1.226522 -0.955547,1.874112 -1.33727,1.858662 -0.322172,-0.01305 -1.283773,-1.102127 -2.136829,-2.420192 z m -63.188603,-5.5893 c -0.909417,-2.055929 -1.265302,-6.522096 -0.616993,-7.742872 0.675359,-1.271655 2.619603,-1.371475 5.04003,-0.258759 2.137858,0.982809 4.203949,2.607376 4.203949,3.305553 0,0.260274 -1.008407,1.266174 -2.240925,2.235337 -1.232499,0.969165 -2.752855,2.274661 -3.3786,2.901106 -1.542582,1.544317 -2.170178,1.45242 -3.007461,-0.440365 z m 57.389403,-1.296237 c -0.690192,-0.584256 -2.303658,-1.741059 -3.585471,-2.570676 -1.281794,-0.829615 -2.393896,-1.553158 -2.47128,-1.607866 -0.387522,-0.273925 1.092009,-1.416905 3.009093,-2.324594 2.564191,-1.214078 4.64104,-1.344472 5.186319,-0.325619 0.406184,0.75898 0.444931,5.419771 0.05662,6.809388 -0.343223,1.228271 -0.76279,1.23197 -2.195277,0.01936 z"
     style="fill:#996f53" />
  <path
     inkscape:connector-curvature="0"
     id="path4144"
     d="m 39.791806,96.997609 c -1.413916,-0.09987 -2.644446,-0.262264 -2.734503,-0.360872 -0.09007,-0.09855 -0.656031,-1.066673 -1.257698,-2.151279 -3.128169,-5.639126 -4.011949,-13.53961 -1.991925,-17.806475 0.666698,-1.408268 2.773349,-3.672963 6.16412,-6.626553 1.854516,-1.615407 1.90867,-1.715777 1.808157,-3.350411 -0.109676,-1.783465 0.08077,-2.033841 1.869987,-2.457884 0.733278,-0.173791 1.383393,0.117656 3.087836,1.384259 3.584413,2.663619 6.042958,3.235282 8.508303,1.978363 1.376437,-0.701743 1.386648,-0.701692 2.388354,0.01162 1.08756,0.774424 3.551875,3.52133 3.551875,3.959213 0,0.14773 -0.857559,0.446617 -1.905661,0.664209 -6.220792,1.29143 -13.342657,7.872139 -16.063229,14.842663 -1.287247,3.298185 -1.797955,7.766487 -1.047847,9.168068 0.236701,0.442313 0.376982,0.831777 0.311706,0.865454 -0.06528,0.03364 -1.275541,-0.02051 -2.689475,-0.120342 z m 6.860266,-21.859248 c 0.885011,-0.977905 0.478763,-2.438729 -0.764968,-2.750888 -1.247078,-0.312999 -2.062271,0.240114 -2.210712,1.500015 -0.208785,1.771921 1.75651,2.598063 2.97568,1.250873 z m 39.790385,21.245683 c 0.99846,-2.601934 0.33024,-6.439368 -1.852456,-10.638405 -0.968192,-1.862608 -2.312455,-3.546421 -4.963493,-6.217268 -3.03216,-3.054799 -4.12126,-3.897651 -6.560696,-5.077327 -1.608734,-0.777974 -3.729672,-1.620725 -4.713144,-1.872788 -0.983482,-0.252053 -1.788145,-0.66061 -1.788145,-0.907882 0,-0.590374 3.897176,-4.793048 4.444635,-4.793048 0.232881,0 1.056334,0.322694 1.829936,0.717098 0.773593,0.394405 1.827731,0.717099 2.342496,0.717099 1.696238,0 4.077362,-1.059858 6.36389,-2.832598 2.177125,-1.687947 2.30012,-1.734297 3.675107,-1.38529 1.538653,0.390553 1.595798,0.488669 1.077997,1.850568 -0.597921,1.572646 0.202047,2.902146 3.276892,5.446016 2.882834,2.385031 4.587222,4.578327 5.347195,6.881103 0.716667,2.171512 0.21524,9.12105 -0.882594,12.232163 -0.952813,2.70026 -2.539056,5.74171 -3.242595,6.2174 -0.214265,0.144876 -1.334563,0.265893 -2.489569,0.26892 -1.832672,0.0055 -2.070166,-0.07239 -1.865456,-0.605761 z M 84.420163,74.335105 c 0.931115,-0.931091 0.01468,-3.15521 -1.300174,-3.15521 -0.822076,0 -1.855035,1.089092 -1.855035,1.955872 0,1.029975 0.659669,1.6296 1.79274,1.6296 0.512714,0 1.125832,-0.193614 1.362469,-0.430262 z M 66.213341,95.519492 c -0.488946,-0.195073 -1.177899,-0.616172 -1.531022,-0.935736 -0.594821,-0.538287 -0.719594,-0.523709 -1.695964,0.198155 -0.661183,0.488837 -1.560333,0.773338 -2.412988,0.763491 l -1.359069,-0.01568 1.79274,-0.611768 c 2.301844,-0.785491 2.579999,-1.795667 0.785874,-2.854217 -1.893299,-1.11708 -3.232138,-3.102149 -3.266472,-4.843121 -0.02699,-1.36502 0.08306,-1.544867 1.402775,-2.292251 2.037473,-1.153919 4.608483,-1.392609 7.372625,-0.684467 3.611682,0.925279 4.203029,1.849052 2.863871,4.473996 -0.797552,1.563332 -2.26875,2.915856 -3.912092,3.596557 -1.953397,0.809122 -1.294649,2.372281 1.168153,2.771946 0.703895,0.114216 1.192805,0.348428 1.086484,0.520472 -0.246948,0.399547 -1.161816,0.364711 -2.294915,-0.08734 z M 28.164578,50.348754 c -1.067867,-1.067846 -2.683968,-4.676369 -3.597204,-8.031903 -0.649285,-2.385727 -0.78642,-3.894012 -0.814929,-8.963679 -0.03756,-6.678412 0.353561,-8.561945 2.123254,-10.224482 3.265961,-3.068212 16.66485,1.531105 22.313768,7.659453 0.837831,0.908948 1.523337,1.79479 1.523337,1.968527 0,0.173744 -0.88739,0.642789 -1.972005,1.042332 -1.084597,0.399537 -1.972014,0.601134 -1.972014,0.447991 0,-0.814987 -3.427111,-3.935303 -5.440242,-4.953229 -4.600825,-2.326362 -8.006192,-2.338358 -10.308236,-0.0363 -1.481746,1.481726 -1.933769,3.431058 -1.739698,7.501908 0.183431,3.847424 1.02045,6.238924 2.842765,8.1222 l 1.093933,1.130528 -1.511722,2.544581 c -0.831422,1.399518 -1.57399,2.544577 -1.650107,2.544577 -0.07613,0 -0.477021,-0.338626 -0.8909,-0.752501 z m 68.338629,-4.021958 -1.434183,-2.217209 0.800187,-1.613462 c 1.529244,-3.083549 1.935948,-7.467745 0.988669,-10.657593 -1.014889,-3.417543 -4.142547,-5.022392 -7.929574,-4.068804 -2.498321,0.62908 -5.681419,2.366573 -7.463119,4.073728 l -1.596298,1.52955 -1.811813,-0.504018 C 77.060603,32.591772 76.2453,32.199299 76.2453,31.99682 c 0,-1.280774 6.392343,-5.788043 10.912393,-7.69435 7.26118,-3.062383 11.815938,-2.973624 13.466827,0.262433 1.76879,3.467111 1.76714,12.240207 -0.004,18.595345 -0.767389,2.754291 -1.973942,5.448076 -2.422018,5.407467 -0.1439,-0.01305 -0.907,-1.021455 -1.695809,-2.240919 z M 33.753325,41.285199 c -0.883205,-1.347926 -1.250779,-3.064878 -1.250779,-5.842402 0,-3.852168 0.760237,-4.347625 4.515309,-2.942681 1.862465,0.696842 4.806911,2.872079 4.806911,3.551153 0,0.156255 -1.008407,1.07705 -2.240925,2.046213 -1.232499,0.969165 -2.752855,2.274661 -3.3786,2.901106 -1.362041,1.363586 -1.718929,1.405304 -2.451916,0.286611 z m 56.200008,-2.49725 c -1.038821,-0.841242 -2.689429,-2.004851 -3.668005,-2.585791 -0.978568,-0.580934 -1.782411,-1.155819 -1.786331,-1.277514 -0.02726,-0.8511 5.680243,-3.38513 7.036349,-3.123964 1.444977,0.278275 1.94387,3.141247 1.173404,6.73378 -0.213535,0.995708 -0.495893,1.804229 -0.627468,1.796705 -0.131538,-0.0075 -1.089146,-0.701966 -2.127949,-1.543216 z"
     style="fill:#ae5925" />
  <path
     inkscape:connector-curvature="0"
     id="path4142"
     d="m 66.213341,95.519492 c -0.488946,-0.195073 -1.177899,-0.616172 -1.531022,-0.935736 -0.594821,-0.538287 -0.719594,-0.523709 -1.695964,0.198155 -0.661183,0.488837 -1.560333,0.773338 -2.412988,0.763491 l -1.359069,-0.01568 1.79274,-0.611768 c 2.301844,-0.785491 2.579999,-1.795667 0.785874,-2.854217 -1.893299,-1.11708 -3.232138,-3.102149 -3.266472,-4.843121 -0.02699,-1.36502 0.08306,-1.544867 1.402775,-2.292251 2.037473,-1.153919 4.608483,-1.392609 7.372625,-0.684467 3.611682,0.925279 4.203029,1.849052 2.863871,4.473996 -0.797552,1.563332 -2.26875,2.915856 -3.912092,3.596557 -1.953397,0.809122 -1.294649,2.372281 1.168153,2.771946 0.703895,0.114216 1.192805,0.348428 1.086484,0.520472 -0.246948,0.399547 -1.161816,0.364711 -2.294915,-0.08734 z M 42.721127,81.428119 c -0.591593,-0.264063 -1.509069,-0.943475 -2.038831,-1.50979 -2.64049,-2.822732 -2.263754,-7.076253 0.846774,-9.560694 3.566024,-2.848225 8.957455,-0.592881 9.806089,4.102082 0.22597,1.250125 0.112383,1.443173 -2.575341,4.376727 -3.03865,3.316567 -3.740166,3.617637 -6.038691,2.591675 z m 3.930945,-6.289758 c 0.885011,-0.977905 0.478763,-2.438729 -0.764968,-2.750888 -1.247078,-0.312999 -2.062271,0.240114 -2.210712,1.500015 -0.208785,1.771921 1.75651,2.598063 2.97568,1.250873 z m 32.730514,4.056066 c -3.095968,-3.04555 -3.325139,-3.742673 -2.104418,-6.401066 0.783357,-1.705911 1.582943,-2.470369 3.360931,-3.213255 1.726078,-0.721192 2.984351,-0.685881 4.790766,0.134447 3.835309,1.741687 4.948579,6.807269 2.187217,9.952279 -0.628078,0.715359 -1.663708,1.518635 -2.301351,1.785063 -2.25945,0.944051 -2.943042,0.683951 -5.933145,-2.257468 z m 5.037577,-4.859322 c 0.931115,-0.931091 0.01468,-3.15521 -1.300174,-3.15521 -0.822076,0 -1.855035,1.089092 -1.855035,1.955872 0,1.029975 0.659669,1.6296 1.79274,1.6296 0.512714,0 1.125832,-0.193614 1.362469,-0.430262 z M 27.128183,48.860336 c -2.50195,-4.335448 -3.765438,-10.645434 -3.520222,-17.580154 0.234203,-6.622369 1.467806,-8.842823 5.079178,-9.142307 3.635896,-0.301518 10.847371,2.170718 15.561209,5.334694 2.064085,1.385451 5.105908,4.264327 5.105908,4.832409 0,0.363848 -2.591806,1.586015 -3.363402,1.586015 -0.160485,0 -0.989736,-0.776287 -1.842783,-1.725085 -2.823346,-3.140239 -8.567964,-5.334639 -11.592811,-4.428373 -1.889078,0.565982 -3.518344,2.228331 -4.028861,4.110642 -0.236473,0.871827 -0.339876,2.938025 -0.24579,4.911193 0.177669,3.726452 1.014515,6.223053 2.662935,7.944429 l 0.912379,0.952761 -1.485246,2.543074 c -0.816889,1.398693 -1.636203,2.543074 -1.820701,2.543074 -0.184517,0 -0.824311,-0.847069 -1.421793,-1.882372 z m 69.718028,-2.875838 -1.449709,-2.233458 0.833919,-2.067564 c 1.879168,-4.658861 1.349114,-10.559779 -1.145224,-12.749842 -2.91932,-2.563196 -8.852647,-1.367037 -13.444601,2.710429 l -1.596372,1.417512 -1.720197,-0.550097 c -0.946102,-0.302553 -1.720188,-0.746294 -1.720188,-0.986093 0,-1.137642 6.224757,-5.394082 10.573127,-7.229831 7.236911,-3.055212 11.798096,-2.963853 13.447554,0.269346 2.19552,4.303564 1.60813,15.526736 -1.149562,21.96488 -0.401224,0.936703 -0.830656,1.699743 -0.954244,1.695638 -0.123634,-0.0041 -0.877152,-1.012517 -1.674503,-2.24092 z"
     style="fill:#704830" />
  <path
     inkscape:connector-curvature="0"
     id="path4140"
     d="m 63.3376,93.117673 c 0,-0.387002 -0.494107,-0.886305 -1.219298,-1.232117 -1.624188,-0.774532 -3.103864,-2.781764 -3.338122,-4.528252 -0.184589,-1.376019 -0.143572,-1.442585 1.376875,-2.23551 3.268778,-1.704718 10.351486,-0.634226 10.351486,1.564548 0,1.5889 -1.927924,4.052915 -3.892845,4.975313 -1.144978,0.537494 -1.819936,1.083321 -1.829226,1.479248 -0.02042,0.867706 -1.44887,0.844805 -1.44887,-0.02325 z M 43.586527,81.235091 c -1.644955,-0.498505 -2.785229,-1.474449 -3.536878,-3.027151 -1.264472,-2.612054 -0.791161,-5.150779 1.332393,-7.146408 3.354295,-3.152279 9.406406,-0.763427 9.406406,3.712851 0,0.887351 -0.536044,1.711037 -2.578267,3.961822 -2.58433,2.848186 -2.902882,3.020359 -4.623654,2.498886 z m 3.257902,-5.752627 c 1.96142,-1.961431 -0.871618,-4.854712 -2.929795,-2.992084 -0.915835,0.828842 -0.842663,2.461888 0.141184,3.151025 1.072526,0.751216 1.927149,0.702502 2.788611,-0.158941 z m 32.959402,3.71356 c -1.35689,-1.309949 -2.559651,-2.673465 -2.672809,-3.030023 -0.355193,-1.119095 0.564953,-3.640109 1.767522,-4.842682 4.039072,-4.039083 10.669593,-0.405787 9.702777,5.316806 -0.423086,2.504243 -3.291097,4.925059 -5.847392,4.935643 -0.265702,0.001 -1.593245,-1.069784 -2.950098,-2.379744 z m 4.84171,-4.635543 c 1.203563,-1.203564 0.126807,-3.739135 -1.587847,-3.739135 -0.948692,0 -2.151288,1.236933 -2.151288,2.212696 0,1.78383 2.472429,2.793153 3.739135,1.526439 z M 27.474824,48.860336 c -0.927841,-1.512905 -2.036406,-4.475337 -2.777361,-7.421874 -0.429031,-1.706102 -0.594702,-4.015888 -0.605697,-8.443837 -0.01431,-5.800114 0.02844,-6.182122 0.88129,-7.888038 0.493013,-0.986004 1.299746,-1.992042 1.792731,-2.235635 3.420365,-1.690014 13.888848,1.861904 19.558315,6.636076 1.341173,1.129375 2.497638,2.234888 2.569953,2.456694 0.0723,0.221808 -0.536993,0.67076 -1.354046,0.997673 l -1.485501,0.594387 -1.690486,-1.717332 c -1.966179,-1.997449 -5.464912,-3.879459 -8.276005,-4.451775 -3.754279,-0.764337 -6.98906,1.027614 -7.897082,4.374691 -1.008516,3.717474 0.181316,10.43032 2.307642,13.019367 l 0.845653,1.029689 -1.255483,2.107597 c -0.690502,1.159179 -1.400341,2.107595 -1.577409,2.107595 -0.177031,0 -0.643495,-0.524376 -1.036514,-1.165278 z m 69.624425,-3.198866 -1.196661,-1.81551 0.832269,-2.55729 c 1.176668,-3.615478 1.181883,-8.325124 0.01176,-10.700717 -1.187052,-2.41013 -2.815552,-3.335469 -5.82646,-3.310709 -1.93695,0.01592 -2.838052,0.248275 -5.065857,1.306259 -1.490416,0.707789 -3.376604,1.889279 -4.191569,2.62554 l -1.481719,1.338648 -1.671631,-0.468028 -1.671632,-0.468028 1.831697,-1.68426 c 4.114486,-3.783274 12.619051,-7.509891 17.138435,-7.509891 2.382756,0 3.683769,0.629707 4.465059,2.161167 1.56802,3.073567 1.78588,10.182189 0.5025,16.395444 -0.60751,2.941111 -1.8461,6.55343 -2.236402,6.52229 -0.133735,-0.01067 -0.781671,-0.836379 -1.439845,-1.834915 z"
     style="fill:#603821" />
  <path
     sodipodi:nodetypes="csccsssscsccsc"
     style="opacity:1;fill:#ffffff;fill-opacity:1;fill-rule:evenodd;stroke:#ffffff;stroke-width:0.14341885;stroke-miterlimit:4;stroke-dasharray:none;stroke-opacity:1"
     d="m 33.494315,95.860499 c -0.03847,-0.06227 -0.830173,-0.720596 -1.759318,-1.462992 -2.024627,-1.617687 -3.089331,-2.587065 -4.377142,-3.985099 -4.408031,-4.808418 -6.030532,-10.66093 -3.687844,-15.668644 1.751367,-3.712923 5.090354,-7.100181 8.96132,-9.090897 2.121594,-1.091053 3.707263,-1.524559 5.679386,-1.552672 1.29815,-0.0185 1.665067,0.123277 2.356208,0.910439 1.37733,1.568684 1.018034,2.847681 -1.404562,4.999956 -1.704708,1.51446 -3.855759,3.660134 -4.587424,4.575962 -2.444057,3.059115 -3.116809,7.544078 -1.932538,12.883132 0.492493,2.220358 1.805923,5.681065 2.937162,7.739078 l 0.420442,0.764932 -1.267882,0 c -0.708407,0 -1.298742,-0.04996 -1.337808,-0.113195 z"
     id="path4207"
     inkscape:connector-curvature="0" />
  <path
     style="opacity:1;fill:#ffffff;fill-opacity:1;fill-rule:evenodd;stroke:#ffffff;stroke-width:0.14341885;stroke-miterlimit:4;stroke-dasharray:none;stroke-opacity:1"
     d="m 60.83513,104.24776 c -6.748575,-0.40826 -12.968764,-2.78061 -16.692802,-6.366526 -1.649378,-1.588203 -2.085191,-2.842355 -1.85004,-5.323984 0.464678,-4.904434 3.644475,-10.69978 8.34017,-15.200431 3.46687,-3.322865 7.691186,-4.937999 12.969549,-4.958803 1.928199,-0.0081 2.654101,0.111116 4.987672,0.815659 3.341002,1.008697 5.136167,1.844655 6.780357,3.157414 3.05548,2.439578 6.580943,6.034076 7.954982,8.110707 1.840494,2.781638 2.975033,6.210153 2.972098,8.981734 -0.0027,2.037619 -0.341646,2.968496 -1.537103,4.214398 -2.508168,2.613952 -8.78263,5.172542 -14.970254,6.104552 -2.958632,0.44564 -6.358857,0.62232 -8.954629,0.46528 z m 8.075864,-8.169687 c 0.138922,-0.05178 0.336521,-0.22225 0.439122,-0.378842 0.226974,-0.346431 0.07376,-0.730415 -0.321515,-0.805757 -0.140381,-0.0268 -0.614011,-0.107999 -1.052496,-0.180551 -0.956231,-0.158214 -1.957582,-0.60834 -2.209882,-0.993382 -0.169984,-0.25943 -0.167942,-0.297073 0.02781,-0.513361 0.116186,-0.128384 0.604193,-0.437865 1.084497,-0.687731 2.089102,-1.086885 3.844946,-3.259689 4.269408,-5.28331 0.255692,-1.218999 -0.128329,-1.952554 -1.368067,-2.613326 -2.151543,-1.146762 -5.884971,-1.495203 -8.337945,-0.778166 -2.966646,0.867174 -3.972911,2.177346 -3.309476,4.309019 0.48891,1.570808 1.848963,3.310388 3.446666,4.408432 0.932655,0.640979 1.073383,0.879312 0.740134,1.253541 -0.328717,0.369133 -0.860914,0.541359 -1.9256,0.623201 -1.557698,0.119741 -2.043034,0.566331 -1.343606,1.23642 0.733351,0.702582 2.048932,0.623202 3.718941,-0.224411 1.257207,-0.638099 1.645439,-0.658366 2.244472,-0.11717 0.912607,0.824492 2.745005,1.174935 3.89755,0.745394 z"
     id="path4209"
     inkscape:connector-curvature="0" />
  <path
     style="opacity:1;fill:#ffffff;fill-opacity:1;fill-rule:evenodd;stroke:#ffffff;stroke-width:0.14341885;stroke-miterlimit:4;stroke-dasharray:none;stroke-opacity:1"
     d="m 92.044423,95.933334 c 0,-0.02224 0.381185,-0.836682 0.847066,-1.809971 2.283546,-4.770736 2.853404,-7.151487 2.844169,-11.882487 -0.0055,-2.864723 -0.27356,-4.271252 -1.141212,-5.990102 -0.58802,-1.164827 -1.587656,-2.294071 -4.187923,-4.730849 -3.442509,-3.226062 -3.76004,-3.611845 -3.762611,-4.57114 -0.0027,-1.088435 1.068296,-2.543901 2.067896,-2.80956 0.709666,-0.188609 2.837277,0.02042 4.194532,0.412166 4.972565,1.435097 10.12679,6.365039 11.9444,11.424616 1.32154,3.678775 0.77233,7.581359 -1.57285,11.176493 -1.5676,2.403078 -4.723161,5.56476 -8.434472,8.450858 -0.464613,0.36132 -0.504482,0.370336 -1.63758,0.370336 -0.638764,0 -1.161415,-0.01823 -1.161415,-0.0403 z"
     id="path4211"
     inkscape:connector-curvature="0" />
  <path
     style="opacity:1;fill:#ffffff;fill-opacity:1;fill-rule:evenodd;stroke:#ffffff;stroke-width:0.14341885;stroke-miterlimit:4;stroke-dasharray:none;stroke-opacity:1"
     d="m 73.93588,67.616947 c -1.093084,-0.3921 -2.50473,-1.644167 -2.924288,-2.593727 -0.878182,-1.987472 0.108545,-4.466989 2.96536,-7.451704 1.811985,-1.893099 4.529941,-4.117838 5.030758,-4.117838 0.20099,0 0.395635,0.623315 0.395635,1.266892 0,1.181752 0.18386,1.47717 0.776702,1.248047 0.428219,-0.165491 2.481546,-0.561316 2.911835,-0.561316 0.34191,0 0.346732,0.0082 0.287491,0.488404 -0.03318,0.268623 -0.09129,0.959324 -0.129304,1.534891 l -0.06902,1.046487 0.897975,0.07814 c 1.210491,0.105304 1.628207,0.250445 1.714891,0.595894 0.105555,0.420576 -0.01176,0.734829 -0.623238,1.667618 -1.244106,1.898181 -3.61284,4.175755 -5.720932,5.500786 -1.951146,1.22638 -4.222193,1.760772 -5.513815,1.297445 z"
     id="path4213"
     inkscape:connector-curvature="0" />
  <path
     style="opacity:1;fill:#ffffff;fill-opacity:1;fill-rule:evenodd;stroke:#ffffff;stroke-width:0.14341885;stroke-miterlimit:4;stroke-dasharray:none;stroke-opacity:1"
     d="m 51.818134,67.763959 c -0.841842,-0.210212 -2.394526,-0.898298 -3.350056,-1.484609 -2.409933,-1.478715 -6.53896,-6.089179 -6.389261,-7.134247 0.03464,-0.242277 0.597309,-0.419071 1.841934,-0.57879 0.879869,-0.112915 0.933886,-0.226043 0.86117,-1.803997 -0.06227,-1.351254 -0.06163,-1.355015 0.198985,-1.355015 0.438147,0 2.270828,0.338989 2.814594,0.520616 0.699564,0.233673 0.790295,0.114666 0.911167,-1.195152 0.05406,-0.585892 0.150793,-1.11777 0.214985,-1.181953 0.459225,-0.459212 5.256445,3.670252 6.829259,5.878651 1.048303,1.471913 1.703039,3.10502 1.702839,4.247416 -1.1e-4,0.713044 -0.517802,1.766685 -1.224477,2.492204 -1.301733,1.336435 -2.994762,1.948563 -4.411139,1.594876 z"
     id="path4215"
     inkscape:connector-curvature="0" />
  <path
     style="opacity:1;fill:#ffffff;fill-opacity:1;fill-rule:evenodd;stroke:none;stroke-width:17.00600052;stroke-miterlimit:4;stroke-dasharray:none;stroke-opacity:1"
     d="m 44.5285,75.027012 c -0.344262,-0.344275 -0.405272,-0.483483 -0.405272,-0.925077 0,-0.388591 0.07348,-0.607124 0.291083,-0.865707 0.375724,-0.446557 0.976534,-0.656769 1.340908,-0.46918 1.009292,0.519633 1.185356,1.302742 0.465279,2.069929 -0.300783,0.32047 -0.560158,0.479714 -0.858817,0.527224 -0.379663,0.06035 -0.473594,0.02235 -0.833181,-0.337189 z"
     id="path4217"
     inkscape:connector-curvature="0" />
  <path
     style="opacity:1;fill:#ffffff;fill-opacity:1;fill-rule:evenodd;stroke:none;stroke-width:17.00600052;stroke-miterlimit:4;stroke-dasharray:none;stroke-opacity:1"
     d="m 82.549638,74.208281 c -0.803514,-0.359743 -1.000484,-1.37505 -0.397632,-2.049733 0.284738,-0.31871 0.413432,-0.375299 0.853448,-0.375299 0.593408,0 1.075699,0.293803 1.327981,0.808998 0.137929,0.281743 0.137929,0.393606 0,0.783684 -0.274883,0.777247 -1.074012,1.15013 -1.783797,0.83235 z"
     id="path4219"
     inkscape:connector-curvature="0" />
  <path
     style="opacity:1;fill:#ffffff;fill-opacity:1;fill-rule:evenodd;stroke:#ffffff;stroke-width:0.05008013;stroke-miterlimit:4;stroke-dasharray:none;stroke-opacity:1"
     d="m 31.845261,44.968004 c -0.8759,-0.726165 -1.899189,-2.445593 -2.443119,-4.105166 -0.603232,-1.840504 -0.926774,-5.633999 -0.654215,-7.670592 0.283877,-2.121163 1.302158,-3.73887 2.901338,-4.609253 2.278564,-1.240149 6.230854,-0.426069 9.927316,2.044797 1.935548,1.2938 3.60638,3.04281 3.60638,3.775123 0,0.435888 -1.467571,1.432277 -2.215427,1.504137 l -0.497081,0.04776 -0.872312,-0.904758 c -0.987496,-1.024227 -1.957597,-1.696301 -3.576638,-2.477853 -1.455586,-0.702647 -2.596744,-1.051529 -3.670585,-1.122195 -0.78107,-0.0514 -0.896166,-0.03558 -1.172389,0.161104 -0.40107,0.285587 -0.884197,1.293884 -1.012881,2.113904 -0.14488,0.923222 -0.124702,2.683095 0.04421,3.85617 0.282686,1.963182 0.730667,3.28028 1.511712,4.444544 0.581711,0.867128 0.586854,1.175227 0.03295,1.974148 -0.899993,1.298107 -1.279269,1.490425 -1.909266,0.968127 z"
     id="path4486"
     inkscape:connector-curvature="0" />
  <path
     style="opacity:1;fill:#ffffff;fill-opacity:1;fill-rule:evenodd;stroke:#ffffff;stroke-width:0.05008013;stroke-miterlimit:4;stroke-dasharray:none;stroke-opacity:1"
     d="m 94.287136,42.975342 c -0.39451,-0.194486 -1.600702,-1.452586 -1.737425,-1.812196 -0.07639,-0.200914 -0.04328,-0.419065 0.147399,-0.971226 0.487535,-1.41179 0.843209,-4.242022 0.716161,-5.698758 -0.201718,-2.312901 -0.904941,-3.179692 -2.462244,-3.034956 -1.579113,0.146763 -3.575294,0.962937 -5.814663,2.377427 -1.569408,0.991312 -1.765979,1.032848 -2.817091,0.595269 -0.952324,-0.396453 -1.27894,-0.684016 -1.27894,-1.126017 0,-0.278011 0.114066,-0.439604 0.729529,-1.033502 2.164957,-2.089094 5.106565,-3.60934 7.939989,-4.103448 2.259523,-0.394028 4.002857,0.0632 5.302838,1.390792 0.71187,0.726989 1.138658,1.490724 1.518113,2.716657 0.26676,0.861838 0.278188,0.985133 0.27827,3.002115 7.1e-5,1.744917 -0.03725,2.300224 -0.21902,3.258531 -0.497547,2.623149 -1.298263,4.611869 -1.852804,4.601768 -0.06886,-0.0013 -0.271411,-0.07436 -0.450112,-0.162456 z"
     id="path4488"
     inkscape:connector-curvature="0" />
</svg>
