<?xml version="1.0" encoding="UTF-8" standalone="no"?>
<!-- Created with Inkscape (http://www.inkscape.org/) -->

<svg
   xmlns:dc="http://purl.org/dc/elements/1.1/"
   xmlns:cc="http://creativecommons.org/ns#"
   xmlns:rdf="http://www.w3.org/1999/02/22-rdf-syntax-ns#"
   xmlns:svg="http://www.w3.org/2000/svg"
   xmlns="http://www.w3.org/2000/svg"
   xmlns:xlink="http://www.w3.org/1999/xlink"
   xmlns:sodipodi="http://sodipodi.sourceforge.net/DTD/sodipodi-0.dtd"
   xmlns:inkscape="http://www.inkscape.org/namespaces/inkscape"
   id="svg2"
   version="1.1"
   inkscape:version="0.91 r"
   width="512"
   height="512"
   sodipodi:docname="application-x-executable.svg">
  <metadata
     id="metadata8">
    <rdf:RDF>
      <cc:Work
         rdf:about="">
        <dc:format>image/svg+xml</dc:format>
        <dc:type
           rdf:resource="http://purl.org/dc/dcmitype/StillImage" />
        <dc:title />
      </cc:Work>
    </rdf:RDF>
  </metadata>
  <defs
     id="defs6">
    <linearGradient
       inkscape:collect="always"
       xlink:href="#linearGradient3355"
       id="linearGradient3340"
       x1="-134.50847"
       y1="-193.08475"
       x2="683.38983"
       y2="685.55933"
       gradientUnits="userSpaceOnUse" />
    <linearGradient
       id="linearGradient3355"
       inkscape:collect="always">
      <stop
         id="stop3357"
         offset="0"
         style="stop-color:#b7c8be;stop-opacity:1;" />
      <stop
         style="stop-color:#4d4d4d;stop-opacity:1"
         offset="0.60008222"
         id="stop3363" />
      <stop
         id="stop3365"
         offset="1"
         style="stop-color:#1a1a1a;stop-opacity:1" />
      <stop
         id="stop3359"
         offset="1"
         style="stop-color:#b7c8be;stop-opacity:0;" />
    </linearGradient>
    <linearGradient
       gradientUnits="userSpaceOnUse"
       y2="-30.721"
       x2="0"
       y1="17.279"
       id="0"
       gradientTransform="matrix(2.4955507,0,0,2.4955507,240.71244,33.087543)">
      <stop
         id="stop3341"
         stop-color="#dc3c30" />
      <stop
         id="stop3343"
         stop-color="#ff786d"
         offset="1" />
    </linearGradient>
    <linearGradient
       id="0-9"
       x1="-48.953"
       y1="-5.178"
       x2="-49.554"
       y2="-30.891"
       gradientUnits="userSpaceOnUse">
      <stop
         id="stop3394"
         stop-color="#566069" />
      <stop
         id="stop3396"
         stop-color="#6c7884"
         offset="1" />
    </linearGradient>
    <linearGradient
       id="1"
       x1="43.691"
       y1="15.429"
       x2="42.36"
       y2="-4.937"
       gradientUnits="userSpaceOnUse">
      <stop
         id="stop3399"
         stop-color="#d5dbff" />
      <stop
         id="stop3401"
         stop-color="#f9ffff"
         offset="1" />
    </linearGradient>
    <linearGradient
       id="2"
       x1="-56.27"
       y1="3.509"
       x2="-56.38"
       y2="-26.783"
       gradientUnits="userSpaceOnUse">
      <stop
         id="stop3404"
         stop-color="#197ff1" />
      <stop
         id="stop3406"
         stop-color="#21c6fb"
         offset="1" />
    </linearGradient>
    <linearGradient
       gradientUnits="userSpaceOnUse"
       y2="-1.823"
       x2="22.382"
       y1="48.821"
       x1="23.2"
       id="0-7">
      <stop
         id="stop3457"
         stop-color="#7737c5" />
      <stop
         id="stop3459"
         offset="1"
         stop-color="#9371ff" />
    </linearGradient>
    <linearGradient
       gradientUnits="userSpaceOnUse"
       y2="501.51"
       x2="0"
       y1="546.29"
       id="0-3">
      <stop
         id="stop3484"
         stop-color="#197cf1" />
      <stop
         id="stop3486"
         stop-color="#20bcfa"
         offset="1" />
    </linearGradient>
    <linearGradient
       y2="9.965"
       x2="0"
       y1="36.965"
       gradientUnits="userSpaceOnUse"
       id="0-5">
      <stop
         id="stop3509"
         stop-color="#2b65bd" />
      <stop
         id="stop3511"
         stop-color="#64a3dc"
         offset="1" />
    </linearGradient>
    <linearGradient
       id="linearGradient3579"
       y1="545.8"
       x2="0"
       y2="517.8"
       gradientUnits="userSpaceOnUse">
      <stop
         id="stop3581"
         stop-color="#3889e9" />
      <stop
         id="stop3583"
         stop-color="#5ea5fb"
         offset="1" />
    </linearGradient>
    <linearGradient
       id="0-8"
       gradientUnits="userSpaceOnUse"
       y1="545.14"
       x2="0"
       y2="518.14">
      <stop
         id="stop3586"
         stop-color="#00a661" />
      <stop
         id="stop3588"
         stop-color="#37ce97"
         offset="1" />
    </linearGradient>
    <linearGradient
       y2="-51.27"
       x2="0"
       y1="-2.471"
       gradientUnits="userSpaceOnUse"
       id="0-6">
      <stop
         id="stop3639"
         stop-color="#0a80fd" />
      <stop
         id="stop3641"
         stop-color="#56c5fa"
         offset="1" />
    </linearGradient>
    <linearGradient
       id="linearGradient3663"
       y1="545.8"
       x2="0"
       y2="517.8"
       gradientUnits="userSpaceOnUse">
      <stop
         id="stop3665"
         stop-color="#3889e9" />
      <stop
         id="stop3667"
         stop-color="#5ea5fb"
         offset="1" />
    </linearGradient>
    <linearGradient
       id="0-0"
       gradientUnits="userSpaceOnUse"
       x1="414.43"
       y1="545.87"
       x2="387.16"
       y2="517.7">
      <stop
         id="stop3670"
         stop-color="#80256c" />
      <stop
         id="stop3672"
         stop-color="#4567bd"
         offset="1" />
    </linearGradient>
    <linearGradient
       gradientUnits="userSpaceOnUse"
       y2="427.54"
       x2="543.74"
       y1="484.81"
       x1="543.95"
       id="8"
       xlink:href="#1-6"
       gradientTransform="matrix(0.53361,0,0,0.53476,-221.94,-216.11)" />
    <linearGradient
       xlink:href="#3"
       id="5"
       y1="28.442"
       x2="0"
       y2="25.17"
       gradientUnits="userSpaceOnUse" />
    <linearGradient
       xlink:href="#3"
       id="7"
       gradientUnits="userSpaceOnUse"
       x1="69.39"
       y1="24.14"
       x2="69.26"
       y2="21.988" />
    <linearGradient
       id="6"
       gradientUnits="userSpaceOnUse"
       gradientTransform="matrix(0.68488,0,0,0.84437,-199.89,-405.47)"
       x1="391.57"
       y1="531.8"
       x2="390.88"
       y2="507.67">
      <stop
         id="stop3726"
         stop-color="#d3d3d3" />
      <stop
         id="stop3728"
         stop-color="#fcf9f9"
         offset="1" />
    </linearGradient>
    <linearGradient
       xlink:href="#3"
       id="4"
       gradientUnits="userSpaceOnUse"
       x1="74.3"
       y1="26.87"
       x2="88.18"
       y2="40.747" />
    <linearGradient
       id="3">
      <stop
         id="stop3732"
         stop-color="#222c35" />
      <stop
         id="stop3734"
         stop-color="#545e67"
         offset="1" />
    </linearGradient>
    <linearGradient
       xlink:href="#1-6"
       id="0-61"
       gradientUnits="userSpaceOnUse"
       x1="80.34"
       y1="43.46"
       x2="80.06"
       y2="25.427" />
    <linearGradient
       xlink:href="#3"
       id="2-0"
       gradientUnits="userSpaceOnUse"
       x1="80.978"
       y1="44.46"
       x2="80.37"
       y2="22.484" />
    <linearGradient
       id="1-6">
      <stop
         id="stop3739"
         stop-color="#197ff1" />
      <stop
         id="stop3741"
         stop-color="#21c6fb"
         offset="1" />
    </linearGradient>
    <linearGradient
       gradientTransform="matrix(0.35533,0,0,0.34923,314.86,-49.68)"
       gradientUnits="userSpaceOnUse"
       y2="104.85"
       x2="-1060.26"
       y1="203.1"
       x1="-1092.91"
       id="0-2">
      <stop
         id="stop3816"
         stop-color="#f2b333" />
      <stop
         id="stop3818"
         stop-color="#fcde3f"
         offset="1" />
    </linearGradient>
    <linearGradient
       gradientUnits="userSpaceOnUse"
       y2=".059"
       x2="-55.927"
       y1="41.34"
       x1="-50.952"
       id="1-3">
      <stop
         id="stop3821"
         stop-color="#1584d8" />
      <stop
         id="stop3823"
         stop-color="#1cb2ff"
         offset="1" />
    </linearGradient>
    <linearGradient
       xlink:href="#3"
       id="5-1"
       y1="28.442"
       x2="0"
       y2="25.17"
       gradientUnits="userSpaceOnUse" />
    <filter
       id="filter4020"
       color-interpolation-filters="sRGB">
      <feGaussianBlur
         id="feGaussianBlur4022"
         stdDeviation="1.71" />
    </filter>
    <linearGradient
       id="linearGradient4024"
       y1="92.54"
       x2="0"
       y2="7.02"
       gradientUnits="userSpaceOnUse"
       gradientTransform="scale(1.0059.99417)">
      <stop
         id="stop4026" />
      <stop
         id="stop4028"
         stop-opacity=".588"
         offset="1" />
    </linearGradient>
    <linearGradient
       gradientTransform="matrix(1.03458,0,0,1,4.382,0)"
       id="0-52"
       x1="-123.97"
       y1="73.5"
       x2="-125.19"
       y2="-26.05"
       gradientUnits="userSpaceOnUse">
      <stop
         id="stop4031"
         stop-color="#c52828" />
      <stop
         id="stop4033"
         stop-color="#ff5454"
         offset="1" />
    </linearGradient>
    <linearGradient
       id="3-7">
      <stop
         id="stop4085"
         stop-color="#2e3436" />
      <stop
         id="stop4087"
         stop-color="#555753"
         offset="1" />
    </linearGradient>
    <linearGradient
       gradientUnits="userSpaceOnUse"
       y2="491.06"
       x2="66.53"
       y1="569.24"
       x1="70.03"
       id="4-7">
      <stop
         id="stop4090"
         stop-color="#0a80fd" />
      <stop
         id="stop4092"
         stop-color="#56c5fa"
         offset="1" />
    </linearGradient>
    <linearGradient
       gradientTransform="matrix(1.0021,0,0,1,-0.15,0.002)"
       gradientUnits="userSpaceOnUse"
       y2="462.68"
       x2="72.29"
       y1="491.15"
       x1="72.85"
       id="2-4"
       xlink:href="#3-7" />
    <linearGradient
       gradientUnits="userSpaceOnUse"
       y2="462.83"
       x2="96.33"
       y1="490.36"
       x1="96.68"
       id="0-67"
       xlink:href="#3-7" />
    <linearGradient
       gradientUnits="userSpaceOnUse"
       y2="461.93"
       x2="44.26"
       y1="490.59"
       x1="44.16"
       id="1-5"
       xlink:href="#3-7" />
    <filter
       id="filter4157"
       color-interpolation-filters="sRGB">
      <feGaussianBlur
         id="feGaussianBlur4159"
         stdDeviation="1.71" />
    </filter>
    <linearGradient
       id="linearGradient4161"
       y1="92.54"
       x2="0"
       y2="7.02"
       gradientUnits="userSpaceOnUse"
       gradientTransform="scale(1.0059.99417)">
      <stop
         id="stop4163" />
      <stop
         id="stop4165"
         stop-opacity=".588"
         offset="1" />
    </linearGradient>
    <linearGradient
       id="linearGradient4215"
       y1="545.8"
       x2="0"
       y2="517.8"
       gradientUnits="userSpaceOnUse">
      <stop
         id="stop4217"
         stop-color="#3889e9" />
      <stop
         id="stop4219"
         stop-color="#5ea5fb"
         offset="1" />
    </linearGradient>
    <linearGradient
       id="0-33"
       gradientUnits="userSpaceOnUse"
       y1="545.14"
       x2="0"
       y2="518.14">
      <stop
         id="stop4222"
         stop-color="#7e19bf" />
      <stop
         id="stop4224"
         stop-color="#bd30fa"
         offset="1" />
    </linearGradient>
    <linearGradient
       id="linearGradient4255"
       x1="408.57"
       y1="552.8"
       x2="409.57"
       y2="503.8"
       gradientUnits="userSpaceOnUse">
      <stop
         id="stop4257"
         stop-color="#197cf1" />
      <stop
         id="stop4259"
         stop-color="#59d0ff"
         offset="1" />
    </linearGradient>
    <linearGradient
       gradientUnits="userSpaceOnUse"
       y2="501.03"
       x2="462.18"
       y1="549.43"
       x1="511.29"
       id="0-4">
      <stop
         id="stop4262"
         stop-color="#80256c" />
      <stop
         id="stop4264"
         stop-color="#4567bd"
         offset="1" />
    </linearGradient>
    <linearGradient
       gradientTransform="matrix(-0.32279,0,0,0.35147,161.26,-143.94)"
       gradientUnits="userSpaceOnUse"
       y2="507.87"
       x2="0"
       y1="546.8"
       id="0-612">
      <stop
         id="stop4309"
         stop-color="#4fd127" />
      <stop
         id="stop4311"
         stop-color="#c6f61a"
         offset="1" />
    </linearGradient>
    <linearGradient
       gradientUnits="userSpaceOnUse"
       y2="22.749"
       x2="34.15"
       y1="46.44"
       x1="34.17"
       id="1-69">
      <stop
         id="stop4314"
         stop-color="#1074f5" />
      <stop
         id="stop4316"
         stop-color="#02befd"
         offset="1" />
    </linearGradient>
    <linearGradient
       y2="517.77"
       x2="400.7"
       y1="546.07"
       x1="400.51"
       gradientUnits="userSpaceOnUse"
       id="3-6"
       xlink:href="#4-8" />
    <linearGradient
       id="4-8">
      <stop
         id="stop4343"
         stop-color="#566069" />
      <stop
         id="stop4345"
         stop-color="#6c7884"
         offset="1" />
    </linearGradient>
    <linearGradient
       id="2-5"
       y1="542.8"
       x2="0"
       y2="507.8"
       gradientUnits="userSpaceOnUse"
       gradientTransform="matrix(1.31487,0,0,1.21841,-245.58,-140.56)">
      <stop
         id="stop4348"
         stop-color="#2fae61" />
      <stop
         id="stop4350"
         stop-color="#4bdf88"
         offset="1" />
    </linearGradient>
    <linearGradient
       y2="526.2"
       x2="0"
       y1="542.2"
       gradientUnits="userSpaceOnUse"
       id="0-81">
      <stop
         id="stop4353"
         stop-color="#d0d0d0" />
      <stop
         id="stop4355"
         stop-color="#f1eeee"
         offset="1" />
    </linearGradient>
    <linearGradient
       xlink:href="#4-8"
       id="1-2"
       y1="542.8"
       x2="0"
       y2="507.8"
       gradientUnits="userSpaceOnUse"
       gradientTransform="matrix(1.31487,0,0,1.21841,-250.19,-160.77)" />
    <linearGradient
       y2="-25.291"
       x2="0"
       y1="20.995"
       gradientUnits="userSpaceOnUse"
       id="0-1">
      <stop
         id="stop4399"
         stop-color="#566069" />
      <stop
         id="stop4401"
         stop-color="#6c7884"
         offset="1" />
    </linearGradient>
    <clipPath
       id="clipPath4429">
      <path
         id="path4431"
         fill="#1890d0"
         transform="matrix(15.33333 0 0 11.5 415-125.5)"
         d="m-24 13c0 1.105-.672 2-1.5 2-.828 0-1.5-.895-1.5-2 0-1.105.672-2 1.5-2 .828 0 1.5.895 1.5 2" />
    </clipPath>
    <clipPath
       id="clipPath4433">
      <path
         id="path4435"
         fill="#1890d0"
         transform="matrix(15.33333 0 0 11.5 415-125.5)"
         d="m-24 13c0 1.105-.672 2-1.5 2-.828 0-1.5-.895-1.5-2 0-1.105.672-2 1.5-2 .828 0 1.5.895 1.5 2" />
    </clipPath>
    <linearGradient
       id="0-02"
       x1="-989.67"
       y1="433.28"
       x2="-1003.64"
       y2="317.35"
       gradientUnits="userSpaceOnUse"
       gradientTransform="matrix(0.99978,0,0,0.98633,-0.833,5.996)">
      <stop
         id="stop4438"
         stop-color="#1584d8" />
      <stop
         id="stop4440"
         stop-color="#1cb2ff"
         offset="1" />
    </linearGradient>
    <linearGradient
       id="1-7"
       x1="-1092.91"
       y1="203.1"
       x2="-1060.26"
       y2="104.85"
       gradientUnits="userSpaceOnUse"
       gradientTransform="matrix(0.99834,0,0,0.98513,-2.169,6.702)">
      <stop
         id="stop4443"
         stop-color="#f2b333" />
      <stop
         id="stop4445"
         stop-color="#fcde3f"
         offset="1" />
    </linearGradient>
    <filter
       id="filter4520"
       color-interpolation-filters="sRGB">
      <feGaussianBlur
         id="feGaussianBlur4522"
         stdDeviation="1.71" />
    </filter>
    <linearGradient
       id="linearGradient4524"
       y1="92.54"
       x2="0"
       y2="7.02"
       gradientUnits="userSpaceOnUse"
       gradientTransform="scale(1.0059.99417)">
      <stop
         id="stop4526" />
      <stop
         id="stop4528"
         stop-opacity=".588"
         offset="1" />
    </linearGradient>
    <linearGradient
       gradientTransform="matrix(1.03458,0,0,1,4.382,0)"
       id="0-339"
       x1="-123.97"
       y1="73.5"
       x2="-125.19"
       y2="-26.05"
       gradientUnits="userSpaceOnUse">
      <stop
         id="stop4531"
         stop-color="#1074f5" />
      <stop
         id="stop4533"
         stop-color="#02befd"
         offset="1" />
    </linearGradient>
  </defs>
  <sodipodi:namedview
     pagecolor="#ffffff"
     bordercolor="#666666"
     borderopacity="1"
     objecttolerance="10"
     gridtolerance="10"
     guidetolerance="10"
     inkscape:pageopacity="0"
     inkscape:pageshadow="2"
     inkscape:window-width="1149"
     inkscape:window-height="714"
     id="namedview4"
     showgrid="false"
     inkscape:zoom="0.65186406"
     inkscape:cx="364.65872"
     inkscape:cy="96.264402"
     inkscape:window-x="91"
     inkscape:window-y="24"
     inkscape:window-maximized="0"
     inkscape:current-layer="svg2" />
  <path
     sodipodi:type="arc"
     style="fill:#ffffff;fill-opacity:1;fill-rule:nonzero;stroke:#4169e1;stroke-width:0;stroke-linecap:round;stroke-linejoin:miter;stroke-miterlimit:4;stroke-opacity:1;stroke-dasharray:none"
     id="path3012"
     sodipodi:cx="278.77966"
     sodipodi:cy="273.35593"
     sodipodi:rx="137.76271"
     sodipodi:ry="134.50847"
     d="m 416.54237,273.35593 a 137.76271,134.50847 0 1 1 -275.52542,0 137.76271,134.50847 0 1 1 275.52542,0 z"
     transform="matrix(1.1612903,0,0,1.1612903,-67.184257,-59.106617)" />
  <path
     inkscape:connector-curvature="0"
     id="path2986"
     d="m 222.26198,501.14565 c -4.30086,-1.91972 -8.8755,-6.83229 -10.9168,-11.72322 -1.05206,-2.5207 -2.10198,-12.21014 -3.0009,-27.69445 -0.76045,-13.09948 -1.76183,-24.86184 -2.22527,-26.13857 -0.61471,-1.69349 -3.61992,-3.29116 -11.11126,-5.90712 -5.64776,-1.97219 -14.15283,-5.53872 -18.90014,-7.92563 -4.74732,-2.38689 -9.66575,-4.33982 -10.92986,-4.33982 -1.4178,0 -9.17289,6.30634 -20.24155,16.46016 -9.86873,9.05309 -19.53853,17.27834 -21.48843,18.27834 -4.01368,2.05841 -13.04408,2.39342 -17.70735,0.65691 -3.70788,-1.38073 -42.93205,-40.0341 -45.446972,-44.7856 -2.494396,-4.71271 -2.227632,-13.52832 0.570993,-18.86902 1.273967,-2.43114 9.570429,-12.28384 18.4366,-21.89489 9.544086,-10.3459 16.120313,-18.37742 16.120313,-19.68764 0,-1.21716 -1.952925,-6.09719 -4.339822,-10.84451 -2.386907,-4.74731 -5.945723,-13.23031 -7.908496,-18.85111 -1.962772,-5.6208 -4.371725,-10.63588 -5.353239,-11.14463 -0.981514,-0.50874 -12.50232,-1.51584 -25.601799,-2.23798 -15.234677,-0.83984 -25.488406,-1.91133 -28.454859,-2.97347 -5.653171,-2.02412 -12.166154,-8.95574 -13.086319,-13.92748 -0.373222,-2.0165 -0.526018,-16.95603 -0.339545,-33.19894 l 0.339035,-29.53257 3.394499,-4.25467 c 5.998764,-7.51887 8.818558,-8.27414 37.470636,-10.03647 16.217077,-0.99749 26.07544,-2.05371 26.894321,-2.88146 0.711017,-0.71871 3.141161,-6.29174 5.40032,-12.38453 2.259159,-6.09278 5.790047,-14.43022 7.846416,-18.52763 2.056369,-4.09742 3.738852,-8.35042 3.738852,-9.45112 0,-1.1007 -6.783104,-9.44161 -15.073562,-18.53535 -8.290458,-9.09373 -16.220512,-18.05098 -17.622339,-19.90501 -3.942738,-5.21453 -5.276016,-11.67174 -3.716142,-17.99765 1.177812,-4.77647 3.335244,-7.36582 21.353613,-25.628509 11.02389,-11.173374 21.892946,-21.268004 24.153466,-22.432512 5.24571,-2.702336 13.58672,-2.739746 18.79521,-0.0843 2.19318,1.118147 11.81505,9.218777 21.38193,18.001398 9.56689,8.782622 18.04255,16.336501 18.83484,16.786421 0.83494,0.47414 5.9883,-1.3363 12.25898,-4.306755 5.95017,-2.818609 14.85312,-6.484546 19.78434,-8.146524 6.68624,-2.253465 9.28056,-3.693366 10.2037,-5.663251 0.68083,-1.452818 1.84845,-13.359253 2.59471,-26.458732 1.43521,-25.192589 2.29758,-29.174902 7.49239,-34.5984 5.77848,-6.032872 9.10175,-6.527787 41.4002,-6.165491 l 29.4183,0.329989 4.60225,3.047626 c 7.91816,5.243453 8.87664,8.503447 10.74144,36.533985 0.90266,13.568235 1.88767,25.726302 2.18892,27.017905 0.42397,1.817753 2.84874,3.151873 10.73157,5.904547 5.60112,1.955893 14.57094,5.759495 19.93294,8.452459 5.36201,2.692962 10.17874,4.896292 10.70384,4.896292 0.5251,0 9.13419,-7.507735 19.13132,-16.68384 9.99711,-9.176115 20.02608,-17.65062 22.2866,-18.832231 5.34357,-2.793175 13.2972,-2.767729 19.14106,0.06126 2.7747,1.343203 12.20097,9.922093 24.03971,21.878622 20.32185,20.524051 21.92338,22.872191 21.93916,32.167091 0.0112,6.57408 -2.91549,10.88667 -20.38644,30.04035 -9.49951,10.41446 -17.27184,19.37698 -17.27184,19.91669 0,0.53971 2.47945,6.14961 5.5099,12.46644 3.03044,6.31683 6.64457,15.16341 8.03139,19.65907 1.72287,5.585 3.22323,8.472 4.73705,9.115 1.21856,0.51759 13.46663,1.64375 27.21794,2.50259 27.2897,1.70436 31.68548,2.82722 36.26096,9.26258 4.3254,6.08362 4.82847,10.64305 4.45389,40.36657 l -0.35831,28.43287 -3.33867,4.74734 c -5.96165,8.47704 -7.4673,8.91135 -37.74248,10.88694 -14.79312,0.96532 -27.15606,2.0146 -27.47321,2.33176 -0.31716,0.31716 -2.15365,5.04527 -4.08109,10.5069 -1.92745,5.46165 -5.71766,14.33754 -8.42269,19.72423 -2.70506,5.38668 -4.76583,10.45844 -4.57953,11.27058 0.18631,0.81214 7.56699,9.357 16.40153,18.98858 8.83453,9.63158 17.18441,19.72394 18.55528,22.42745 2.9119,5.74259 3.18198,11.82324 0.78045,17.57091 -2.11933,5.07227 -38.0926,41.63744 -43.93967,44.66265 -4.88898,2.5295 -13.79465,2.80128 -18.91195,0.57716 -1.96058,-0.85213 -11.78995,-9.07509 -21.84304,-18.27325 -10.05309,-9.19817 -19.0779,-16.72623 -20.05514,-16.72903 -0.97724,-0.003 -6.64017,2.26759 -12.58429,5.04529 -5.94413,2.77771 -14.75197,6.34993 -19.57297,7.93828 -6.66342,2.19535 -8.89443,3.44155 -9.30323,5.19658 -0.29576,1.26977 -1.2763,13.40995 -2.17896,26.9782 -1.98537,29.84285 -3.126,33.07797 -13.51793,38.34024 -3.01332,1.52589 -7.99984,1.78875 -33.23335,1.7519 -22.33262,-0.0326 -30.51147,-0.41089 -33.01142,-1.52676 z m 43.75724,-132.50462 c 26.78112,-2.80677 49.15657,-13.48771 68.20616,-32.55826 14.51901,-14.53499 23.8874,-30.84407 29.52845,-51.40499 3.53643,-12.88981 3.51558,-41.35248 -0.0399,-54.39963 -10.78971,-39.59432 -39.13333,-68.74625 -78.30863,-80.54181 -9.12821,-2.74847 -11.60682,-3.00909 -29.35613,-3.08662 -17.00063,-0.0742 -20.54479,0.23162 -28.80223,2.48586 -41.22993,11.25552 -72.76306,44.38443 -81.37953,85.49784 -7.7414,36.93802 3.5778,74.64033 30.54545,101.7417 14.12004,14.19006 32.44092,24.60186 52.28941,29.71619 5.65987,1.45837 13.69183,2.58238 25.13135,3.51692 0.91392,0.0747 6.39742,-0.36058 12.18556,-0.9672 z m -27.47101,-46.4431 c -28.24696,-7.66077 -48.01557,-31.70052 -49.7659,-60.51815 -1.22382,-20.14894 5.2603,-37.19647 19.56861,-51.44824 26.05766,-25.95469 67.66639,-26.19795 93.39392,-0.546 21.19059,21.12833 26.27511,51.17802 13.12257,77.55487 -11.20256,22.46624 -31.84016,35.72424 -57.15268,36.716 -8.61738,0.33764 -12.87949,-0.0534 -19.16652,-1.75848 z m 31.60201,-27.93457 c 7.80185,-2.91905 17.10779,-11.56877 21.02165,-19.53928 2.76183,-5.62442 3.09528,-7.49672 3.09548,-17.38121 2.1e-4,-10.51503 -0.19264,-11.43349 -3.79628,-18.07997 -7.2743,-13.41658 -18.06759,-20.21506 -33.31407,-20.98387 -12.24764,-0.6176 -19.57845,1.97666 -28.42009,10.05742 -11.2101,10.2454 -15.67052,24.48856 -12.07007,38.54251 3.11639,12.16444 9.71875,20.42413 20.82444,26.05181 10.36058,5.25011 21.02537,5.68526 32.65894,1.33259 z"
     style="fill:url(#linearGradient3340);fill-opacity:1.0" />
</svg>
