<?xml version="1.0" encoding="UTF-8" standalone="no"?>
<svg
   xmlns:dc="http://purl.org/dc/elements/1.1/"
   xmlns:cc="http://creativecommons.org/ns#"
   xmlns:rdf="http://www.w3.org/1999/02/22-rdf-syntax-ns#"
   xmlns:svg="http://www.w3.org/2000/svg"
   xmlns="http://www.w3.org/2000/svg"
   xmlns:sodipodi="http://sodipodi.sourceforge.net/DTD/sodipodi-0.dtd"
   xmlns:inkscape="http://www.inkscape.org/namespaces/inkscape"
   viewBox="0 0 128 128"
   id="svg2"
   version="1.1"
   inkscape:version="0.91 r"
   sodipodi:docname="avastgui.svg"
   width="128"
   height="128">
  <metadata
     id="metadata17">
    <rdf:RDF>
      <cc:Work
         rdf:about="">
        <dc:format>image/svg+xml</dc:format>
        <dc:type
           rdf:resource="http://purl.org/dc/dcmitype/StillImage" />
        <dc:title></dc:title>
      </cc:Work>
    </rdf:RDF>
  </metadata>
  <sodipodi:namedview
     pagecolor="#ffffff"
     bordercolor="#666666"
     borderopacity="1"
     objecttolerance="10"
     gridtolerance="10"
     guidetolerance="10"
     inkscape:pageopacity="0"
     inkscape:pageshadow="2"
     inkscape:window-width="1366"
     inkscape:window-height="744"
     id="namedview15"
     showgrid="false"
     inkscape:zoom="3.4766083"
     inkscape:cx="37.921894"
     inkscape:cy="53.004006"
     inkscape:window-x="0"
     inkscape:window-y="24"
     inkscape:window-maximized="1"
     inkscape:current-layer="svg2" />
  <defs
     id="defs4">
    <linearGradient
       id="0"
       y1="546.78003"
       x2="0"
       y2="500.79999"
       gradientUnits="userSpaceOnUse"
       gradientTransform="matrix(2.6004259,0,0,2.6013479,-998.27515,-1298.4058)">
      <stop
         stop-color="#f16419"
         id="stop7" />
      <stop
         offset="1"
         stop-color="#feb600"
         id="stop9" />
    </linearGradient>
  </defs>
  <path
     d="m 64.024858,4.3492662 c -8.108129,0 -15.820992,1.6076327 -23.221803,4.7838796 C 26.100246,15.444016 15.331883,26.143358 9.0128478,40.877394 5.8481297,48.260019 4.311278,55.978208 4.311278,64.089228 c 0,8.113587 1.5342513,15.907239 4.7015698,23.289869 6.3164352,14.734043 17.0873982,25.490613 31.7902072,31.804093 7.403413,3.17622 15.103272,4.78387 23.221803,4.78387 8.108127,0 15.873,-1.62584 23.281613,-4.78387 14.825029,-6.32649 25.538779,-17.09607 31.847419,-31.804093 3.17512,-7.406031 4.77958,-15.176257 4.77958,-23.289869 0,-8.11102 -1.60186,-15.805796 -4.77958,-23.211834 C 112.84525,26.166771 102.1341,15.457023 87.306471,9.1331458 79.897858,5.9699052 72.138186,4.3492662 64.024858,4.3492662"
     id="path11"
     inkscape:connector-curvature="0"
     style="opacity:0.98999999;fill:url(#0);enable-background:new" />
  <path
     d="m 88.357843,24.323225 c -1.38062,-0.102176 -2.806098,0.07975 -4.206655,0.545768 -1.67718,0.558229 -2.836004,1.278445 -4.126909,2.56935 -1.672195,1.672195 -2.551904,3.451551 -2.960608,5.838977 -0.226781,1.32081 -0.388767,1.819229 -0.780026,2.646605 -1.497748,3.174928 -4.762392,5.372955 -8.022052,5.372955 -0.271638,0 -1.136395,-0.04735 -1.946326,-0.152017 -3.274612,-0.428641 -4.767376,-0.480975 -8.176562,-0.152018 -0.922075,0.08722 -2.038533,0.152018 -2.414839,0.152018 -1.619862,0 -2.604239,-0.610564 -3.27212,-1.946326 -0.413688,-0.83236 -0.563214,-1.24854 -0.545769,-2.726352 0.01495,-1.236079 0.04236,-1.383112 -0.157002,-1.946326 -0.318988,-0.907122 -0.620532,-1.323302 -1.323302,-2.026072 -1.024251,-1.019267 -2.098344,-1.480305 -3.503885,-1.480305 -0.917091,2.5e-4 -1.567528,0.14205 -2.337585,0.545769 -1.622353,0.84482 -2.636636,2.404871 -2.726351,4.204164 -0.0623,1.248539 0.176938,1.996167 0.85728,3.037863 0.493435,0.755105 1.089046,1.300873 2.180583,1.869071 1.178761,0.610563 1.806768,1.188729 2.337585,2.257837 0.336432,0.675358 0.311511,0.73766 0.311511,1.480305 0,0.700278 0,0.772549 -0.234256,1.246047 -0.139558,0.284099 -0.540785,0.817407 -0.857281,1.168792 -2.920735,3.242215 -4.695106,6.743608 -5.452703,10.511655 -0.358861,1.781847 -0.463529,2.746288 -0.388767,4.672677 0.03489,0.922075 0.08224,1.948818 0.07726,2.257838 -0.02741,1.764403 -1.283428,2.980545 -3.972398,3.892651 -0.647945,0.219305 -0.942012,0.279115 -1.791816,0.311512 -0.657913,0.02741 -1.183745,0 -1.557559,-0.07726 -0.336433,-0.06479 -1.024251,-0.07975 -1.714561,-0.07975 -1.30835,0 -1.928881,0.144542 -2.960609,0.623024 -3.822873,1.766895 -5.502544,6.205315 -3.738141,9.965886 2.252853,4.80725 8.640091,5.843961 12.305962,2.023581 0.543277,-0.565706 0.814915,-0.994346 1.40305,-2.023581 0.186907,-0.328957 0.568197,-0.789994 0.85728,-1.091538 1.298381,-1.353207 3.072753,-2.02358 5.141191,-2.02358 1.477812,0 2.352537,0.314004 3.503885,1.246047 1.916421,1.550083 4.587946,2.900798 6.930515,3.58114 2.59427,0.755104 4.062114,0.872233 8.410819,0.780025 1.275952,-0.02741 1.672195,0.04237 2.257837,0.152018 1.62983,0.326464 3.219787,0.956964 4.595423,1.869071 1.01179,0.672865 2.679001,2.337585 3.349375,3.346883 0.90463,1.363176 1.575004,3.077737 1.791816,4.43842 0.363846,2.287743 0.79747,3.650919 1.557559,5.1387 2.055978,4.034701 5.731817,6.736131 10.27989,7.551051 1.253523,0.22179 3.954954,0.17693 5.218446,-0.0773 4.323784,-0.8822 7.924862,-3.60855 9.891122,-7.473791 1.06911,-2.100837 1.55507,-4.022241 1.55756,-6.462002 0.005,-5.696928 -3.30451,-10.748404 -8.567821,-13.003749 -1.206174,-0.518356 -2.090867,-0.730184 -3.738142,-1.011791 -1.634814,-0.279114 -2.726351,-0.637976 -3.895144,-1.246047 -2.733827,-1.425478 -4.951791,-4.042177 -5.918724,-6.930515 -0.5358,-1.599924 -0.755105,-3.172436 -0.623024,-5.061444 0.08224,-1.193713 0.03489,-5.181064 -0.07726,-7.942305 -0.07227,-1.769387 0.186907,-2.858432 0.934536,-4.361165 0.859772,-1.722038 2.280266,-3.1525 4.049653,-4.047162 0.919583,-0.466021 1.58248,-0.632992 2.880862,-0.85728 1.375636,-0.236749 2.355029,-0.538293 3.42663,-1.089046 2.469665,-1.268476 4.333752,-3.42663 5.218446,-6.073234 0.376306,-1.126427 0.468513,-2.055978 0.468513,-3.346883 0,-1.295889 -0.164478,-2.207996 -0.545768,-3.349375 -1.398065,-4.186719 -5.128731,-6.925531 -9.2681,-7.242027 M 59.688788,47.213113 c 4.809742,-0.321481 9.641914,1.971246 12.383218,6.073234 0.989361,1.480304 1.776863,3.461519 2.103327,5.215954 0.229273,1.228602 0.169463,3.992335 -0.07725,5.138699 -0.717724,3.334422 -2.459698,6.150489 -5.061444,8.176562 -2.160646,1.682164 -4.572994,2.576826 -7.399029,2.803606 -0.565706,0.04735 -1.15384,0.08722 -1.246047,0.07975 -1.019267,-0.06479 -1.811753,-0.176938 -2.492095,-0.311512 -5.694436,-1.161316 -9.896107,-5.637117 -10.825658,-11.44619 -0.132081,-0.827375 -0.134574,-3.277104 0,-4.049653 0.540784,-3.125087 1.68964,-5.427782 3.815396,-7.551047 1.233587,-1.231094 2.24787,-1.948818 3.660887,-2.646604 1.178761,-0.58315 1.908945,-0.894662 3.115118,-1.1663 0.682834,-0.15451 1.338255,-0.266654 2.026073,-0.311512 m 1.480304,5.213462 c -4.042177,-0.239241 -7.725493,2.337584 -8.799585,6.384746 -0.1894,0.715231 -0.234257,0.887185 -0.234257,2.103328 0,1.216142 0.04237,1.465351 0.234257,2.180582 0.4411,1.654751 1.48778,3.316978 2.726351,4.361166 0.95198,0.799962 2.100836,1.410525 2.960608,1.557559 2.337585,0.406211 4.635296,-1.188729 4.984189,-3.503885 l 0,-0.311512 -1.480304,0 c -1.066616,0 -1.622353,0 -1.946326,-0.07975 -1.896484,-0.493435 -3.192373,-2.210488 -3.192373,-4.126909 0,-1.176268 0.396243,-2.188059 1.246047,-3.037863 0.802455,-0.802454 1.881532,-1.246047 2.960609,-1.246047 1.91642,0 3.805428,1.457875 4.206655,3.346883 0.08972,0.423656 0.07726,1.353207 0.07726,4.361165 l 0,3.815397 0.468514,0 c 0.969425,-0.109652 2.021089,-0.590626 2.649096,-1.246047 0.371323,-0.388767 0.755105,-1.211158 0.934536,-1.791816 0.139557,-0.456053 0.157002,-0.745136 0.157002,-2.880861 0,-3.060293 -0.104668,-3.773032 -0.934536,-5.372956 -1.039203,-2.006136 -3.120102,-3.638458 -5.2957,-4.204164 -0.585643,-0.152017 -1.136396,-0.276622 -1.714561,-0.311511"
     id="path13"
     inkscape:connector-curvature="0"
     style="fill-opacity:0.74599998" />
</svg>
