<?xml version="1.0" encoding="UTF-8" standalone="no"?>
<!-- Generator: Adobe Illustrator 18.0.0, SVG Export Plug-In . SVG Version: 6.00 Build 0)  -->

<svg
   xmlns:dc="http://purl.org/dc/elements/1.1/"
   xmlns:cc="http://creativecommons.org/ns#"
   xmlns:rdf="http://www.w3.org/1999/02/22-rdf-syntax-ns#"
   xmlns:svg="http://www.w3.org/2000/svg"
   xmlns="http://www.w3.org/2000/svg"
   xmlns:xlink="http://www.w3.org/1999/xlink"
   xmlns:sodipodi="http://sodipodi.sourceforge.net/DTD/sodipodi-0.dtd"
   xmlns:inkscape="http://www.inkscape.org/namespaces/inkscape"
   version="1.1"
   x="0px"
   y="0px"
   viewBox="0 0 512 512"
   enable-background="new 0 0 512 512"
   xml:space="preserve"
   id="svg2"
   inkscape:version="0.91 r"
   sodipodi:docname="avogadro-icon.svg"><metadata
     id="metadata210"><rdf:RDF><cc:Work
         rdf:about=""><dc:format>image/svg+xml</dc:format><dc:type
           rdf:resource="http://purl.org/dc/dcmitype/StillImage" /></cc:Work></rdf:RDF></metadata><defs
     id="defs208"><linearGradient
       inkscape:collect="always"
       xlink:href="#0"
       id="linearGradient4411"
       x1="-30.372881"
       y1="-34.711864"
       x2="559.72882"
       y2="555.38983"
       gradientUnits="userSpaceOnUse" /><linearGradient
       y2="28.27"
       x2="0"
       y1="46.601002"
       gradientUnits="userSpaceOnUse"
       id="0"><stop
         offset="0"
         stop-color="#db50c8"
         id="stop9" /><stop
         stop-color="#981fe7"
         id="stop7"
         offset="1" /></linearGradient><linearGradient
       id="1"
       y1="518.34003"
       x2="0"
       y2="544.98999"
       gradientUnits="userSpaceOnUse"
       gradientTransform="matrix(0.77564,0,0,0.77048,-234.97,-435.41)"><stop
         id="stop12"
         stop-color="#db50c8" /><stop
         id="stop14"
         stop-color="#981fe7"
         offset="1" /></linearGradient></defs><sodipodi:namedview
     pagecolor="#ffffff"
     bordercolor="#666666"
     borderopacity="1"
     objecttolerance="10"
     gridtolerance="10"
     guidetolerance="10"
     inkscape:pageopacity="0"
     inkscape:pageshadow="2"
     inkscape:window-width="1366"
     inkscape:window-height="744"
     id="namedview206"
     showgrid="false"
     inkscape:zoom="0.4609375"
     inkscape:cx="180.0678"
     inkscape:cy="256"
     inkscape:window-x="0"
     inkscape:window-y="24"
     inkscape:window-maximized="1"
     inkscape:current-layer="svg2" /><circle
     style="opacity:1;fill:url(#linearGradient4411);fill-opacity:1.0;fill-rule:nonzero;stroke:none;stroke-width:33.90000153;stroke-miterlimit:4;stroke-dasharray:none;stroke-opacity:1"
     id="path3603"
     cx="259.25424"
     cy="257.08475"
     r="241.89832" /><g
     id="g130"
     transform="matrix(1.3434762,0,0,1.2955493,-86.845155,-75.253837)"><path
       style="fill:none"
       inkscape:connector-curvature="0"
       id="path132"
       d="m 196.7,296.4 c -2.1,-1.9 -3.5,-4.7 -3.6,-7.8 -2.8,-0.4 -5.5,-0.8 -8.1,-1.2 -4.6,6.5 -8.8,12.9 -12.3,18.9 -12.7,21.7 -16.5,37.5 -10.5,43.6 1.8,1.8 4.7,2.8 8.3,2.8 10.2,0 25.6,-6.7 43.5,-18.3 l -31.4,0 14.1,-38 z" /><path
       style="fill:none"
       inkscape:connector-curvature="0"
       id="path134"
       d="m 203.9,277 6.1,-16.4 c -0.7,-0.8 -1.4,-1.6 -2.1,-2.4 -7.7,8.9 -14.8,17.7 -21,26.3 2.1,0.3 4.2,0.7 6.4,1 1.2,-4.8 5.5,-8.4 10.6,-8.5 z" /><path
       style="fill:none"
       inkscape:connector-curvature="0"
       id="path136"
       d="m 217.7,331.9 c 2.3,-1.5 4.6,-3.1 6.9,-4.8 -0.6,-3.6 -1.1,-7.3 -1.6,-11.1 l -5.3,15.9 z" /><path
       style="fill:none"
       inkscape:connector-curvature="0"
       id="path138"
       d="m 183.6,228 c -36,6.1 -60.3,16.5 -60.3,28 0,11.5 24.3,21.9 60.4,28 6.5,-9.1 14,-18.5 22.3,-28 -8.5,-9.6 -16,-19.1 -22.4,-28 z" /><path
       style="fill:none"
       inkscape:connector-curvature="0"
       id="path140"
       d="m 251.4,302.1 -23.8,0 -2.4,7.1 c 0.6,5.5 1.4,10.8 2.2,15.9 8.5,-6.2 17.3,-13.2 26.3,-21 -0.7,-0.7 -1.5,-1.4 -2.3,-2 z" /><path
       style="fill:none"
       inkscape:connector-curvature="0"
       id="path142"
       d="m 215.8,244.9 3.9,-10.6 c 0.2,-3.6 0.3,-7.2 0.6,-10.7 -11.8,0.9 -23,2.2 -33.4,3.8 6.1,8.5 13.2,17.3 20.9,26.3 2.7,-2.9 5.3,-5.9 8,-8.8 z" /><path
       style="fill:none"
       inkscape:connector-curvature="0"
       id="path144"
       d="m 284.3,302.1 -23.7,0 c -0.8,0.7 -1.5,1.4 -2.3,2 9,7.8 17.8,14.8 26.3,21 0.8,-5 1.5,-10.3 2.1,-15.7 l -2.4,-7.3 z" /><path
       style="fill:none"
       inkscape:connector-curvature="0"
       id="path146"
       d="m 329.5,334.4 -31.5,0 c 18,11.6 33.4,18.3 43.5,18.3 3.7,0 6.5,-0.9 8.3,-2.8 6,-6 2.2,-21.9 -10.5,-43.6 -3.5,-6.1 -7.7,-12.4 -12.3,-18.9 -4.6,0.8 -9.5,1.4 -14.5,2 l 17,45 z" /><path
       style="fill:none"
       inkscape:connector-curvature="0"
       id="path148"
       d="m 228,328.3 c 6.1,36.1 16.5,60.4 28,60.4 7.8,0 15.1,-11.2 20.9,-29.6 -3.7,-1.8 -6.2,-5.6 -6.2,-10 0,-6.2 5,-11.2 11.2,-11.2 0.1,0 0.3,0 0.4,0 0.6,-3.1 1.2,-6.4 1.8,-9.7 -9,-6.5 -18.5,-14 -28,-22.3 -9.7,8.5 -19.1,15.9 -28.1,22.4 z" /><path
       style="fill:none"
       inkscape:connector-curvature="0"
       id="path150"
       d="m 301.9,260.8 9.6,25.7 c 4.7,-0.6 9.2,-1.2 13.6,-1.9 -6.2,-8.5 -13.3,-17.4 -21,-26.3 -0.7,0.8 -1.5,1.6 -2.2,2.5 z" /><path
       style="fill:none"
       inkscape:connector-curvature="0"
       id="path152"
       d="m 287.4,327.1 c 2.3,1.7 4.6,3.3 6.9,4.8 L 289,316.1 c -0.5,3.8 -1,7.5 -1.6,11 z" /><path
       style="fill:none"
       inkscape:connector-curvature="0"
       id="path154"
       d="m 224.6,184.9 c -5.1,-3.7 -10.1,-7 -14.9,-9.9 -2,2.8 -5.3,4.7 -9.1,4.7 -6.2,0 -11.2,-5 -11.2,-11.2 0,-1.4 0.3,-2.7 0.7,-3.9 -7.7,-3.4 -14.4,-5.2 -19.7,-5.2 -3.7,0 -6.5,0.9 -8.3,2.8 -8.2,8.2 1.7,32.7 22.8,62.5 10.9,-1.8 22.9,-3.1 35.6,-4 1,-12.9 2.3,-24.9 4.1,-35.8 z" /><path
       style="fill:none"
       inkscape:connector-curvature="0"
       id="path156"
       d="m 328.4,284 c 36.1,-6.1 60.4,-16.5 60.4,-28 0,-11.5 -24.3,-21.9 -60.4,-28 -6.5,9.1 -14,18.5 -22.3,28 8.2,9.5 15.7,18.9 22.3,28 z" /><path
       style="fill:none"
       inkscape:connector-curvature="0"
       id="path158"
       d="m 223.4,223.4 c 0,0.5 -0.1,0.9 -0.1,1.4 l 0.5,-1.4 c -0.1,0 -0.2,0 -0.4,0 z" /><path
       style="fill:none"
       inkscape:connector-curvature="0"
       id="path160"
       d="m 256.5,219.3 -0.7,-2.1 -0.7,2.1 c 0.3,0 0.6,0 0.9,0 0.2,0 0.4,0 0.5,0 z" /><path
       style="fill:none"
       inkscape:connector-curvature="0"
       id="path162"
       d="m 288.6,223.4 c -0.2,0 -0.4,0 -0.7,0 l 0.8,2.1 c 0,-0.7 -0.1,-1.4 -0.1,-2.1 z" /><path
       style="fill:none"
       inkscape:connector-curvature="0"
       id="path164"
       d="m 256,302.1 c 0,0 0,0 0,0 l 0,0 c 0,0 0,0 0,0 z" /><path
       style="fill:none"
       inkscape:connector-curvature="0"
       id="path166"
       d="m 302.1,256 c -1.1,-1.3 -2.3,-2.6 -3.4,-3.9 l 2,5.5 c 0.5,-0.5 1,-1.1 1.4,-1.6 z" /><path
       style="fill:none"
       inkscape:connector-curvature="0"
       id="path168"
       d="m 286.7,220.3 c 0.5,0 1.1,0.1 1.6,0.1 -0.9,-11.9 -2.2,-23.1 -3.8,-33.4 -2.6,1.9 -5.3,3.9 -8,6 l 10.2,27.3 z" /><path
       style="fill:none"
       inkscape:connector-curvature="0"
       id="path170"
       d="m 225,220.3 10.2,-27.5 c -2.6,-2 -5.2,-4 -7.8,-5.9 -1.6,10.3 -2.9,21.6 -3.8,33.4 0.5,0 0.9,0 1.4,0 z" /><path
       style="fill:none"
       inkscape:connector-curvature="0"
       id="path172"
       d="m 240.9,177.6 29.9,0 4.6,12.4 c 2.9,-2.2 5.8,-4.4 8.6,-6.4 -6.1,-36.1 -16.5,-60.4 -28,-60.4 -11.5,0 -21.9,24.3 -28,60.4 2.8,2 5.5,4 8.4,6.2 l 4.5,-12.2 z" /><path
       style="fill:none"
       inkscape:connector-curvature="0"
       id="path174"
       d="m 327.1,224.6 c 4.6,-6.5 8.8,-12.9 12.3,-18.9 8,-13.6 12.4,-24.9 13.1,-33 -1.1,0.4 -2.4,0.6 -3.6,0.6 -6.2,0 -11.2,-5 -11.2,-11.2 0,-0.9 0.1,-1.8 0.3,-2.6 -12.2,1.5 -30.2,10.7 -50.7,25.3 1.8,10.9 3.2,22.9 4.1,35.7 12.8,1 24.8,2.3 35.7,4.1 z" /><path
       style="fill:none"
       inkscape:connector-curvature="0"
       id="path176"
       d="m 292.2,234.9 3.6,9.6 c 2.8,3.1 5.6,6.1 8.3,9.2 7.7,-8.9 14.8,-17.7 21,-26.3 -10.3,-1.6 -21.6,-2.9 -33.4,-3.8 0.2,3.7 0.4,7.5 0.5,11.3 z" /><path
       style="fill:none"
       inkscape:connector-curvature="0"
       id="path178"
       d="m 254.1,222.3 -17.8,53.6 39.2,0 -18,-53.6 c -0.5,0 -1,0 -1.5,0 -0.6,0 -1.2,0 -1.9,0 z" /><path
       style="fill:none"
       inkscape:connector-curvature="0"
       id="path180"
       d="m 209.9,256 c 0.4,0.5 0.9,1 1.3,1.5 l 1.9,-5 c -1.1,1.1 -2.2,2.3 -3.2,3.5 z" /><g
       id="g182"><path
         style="fill:#393c3d"
         inkscape:connector-curvature="0"
         id="path184"
         d="m 301.9,260.8 -1.2,-3.2 -2,-5.5 c -2,-2.2 -4,-4.5 -6.1,-6.7 0.1,3.5 0.1,7 0.1,10.6 0,3.6 0,7.1 -0.1,10.6 0,1.5 -0.1,3 -0.1,4.5 -0.2,5.9 -0.4,11.7 -0.8,17.3 6.9,-0.5 13.5,-1.1 19.9,-1.9 l -9.7,-25.7 z" /><path
         style="fill:#393c3d"
         inkscape:connector-curvature="0"
         id="path186"
         d="m 271.1,219.6 c 1.1,1 2.2,2.1 3.3,3.1 2.5,2.4 5,4.9 7.6,7.4 2.5,2.5 5,5 7.4,7.6 -0.2,-4.1 -0.4,-8.1 -0.6,-12.1 l -0.8,-2.1 -1.2,-3.1 -10.2,-27.3 c -6,4.6 -12.1,9.6 -18.3,15 4.2,3.5 8.5,7.4 12.8,11.5 z" /><path
         style="fill:#393c3d"
         inkscape:connector-curvature="0"
         id="path188"
         d="m 275.4,190 -4.6,-12.4 -29.9,0 -4.6,12.2 c 6.4,4.9 13,10.3 19.7,16.1 6.6,-5.7 13.1,-11 19.4,-15.9 z" /><path
         style="fill:#393c3d"
         inkscape:connector-curvature="0"
         id="path190"
         d="m 295.8,244.6 -3.6,-9.6 c 0.1,2 0.1,4 0.2,6 1.2,1.1 2.3,2.3 3.4,3.6 z" /><path
         style="fill:#393c3d"
         inkscape:connector-curvature="0"
         id="path192"
         d="m 312.6,289.4 c -6.8,0.8 -13.9,1.5 -21.2,2 -0.6,8.6 -1.4,16.9 -2.4,24.7 l 5.3,15.8 c 1.2,0.8 2.5,1.7 3.7,2.4 l 31.4,0 -16.8,-44.9 z" /><path
         style="fill:#393c3d"
         inkscape:connector-curvature="0"
         id="path194"
         d="m 222.7,237.6 c 2.4,-2.5 4.9,-5.1 7.4,-7.6 2.5,-2.5 5,-5 7.6,-7.4 1.1,-1.1 2.2,-2.1 3.3,-3.1 4.3,-4 8.5,-7.9 12.8,-11.7 -6.3,-5.4 -12.4,-10.5 -18.5,-15.1 l -10.3,27.6 -1.2,3.1 -0.5,1.4 -3.5,9.5 -3.9,10.6 c 1.2,-1.3 2.5,-2.7 3.7,-4 1,-1.1 2,-2.2 3.1,-3.3 z" /><path
         style="fill:#393c3d"
         inkscape:connector-curvature="0"
         id="path196"
         d="m 289.5,269.9 c 0.1,-4.6 0.2,-9.2 0.2,-13.9 0,-4.7 -0.1,-9.3 -0.2,-13.9 -3.1,-3.3 -6.4,-6.6 -9.7,-9.9 -3.3,-3.3 -6.6,-6.5 -9.9,-9.7 -1.1,-1 -2.2,-2.1 -3.3,-3.1 -3.5,-3.3 -7.1,-6.5 -10.6,-9.6 -3.5,3.1 -7,6.3 -10.6,9.6 -1.1,1 -2.2,2.1 -3.3,3.1 -3.3,3.1 -6.6,6.4 -9.9,9.7 -3.3,3.3 -6.5,6.6 -9.7,9.9 -1,1.1 -2.1,2.2 -3.1,3.3 -2.2,2.3 -4.3,4.7 -6.4,7 l -1.9,5 -1.2,3.2 -6.1,16.4 c 0.1,0 0.2,0 0.3,0 6.1,0 11.1,4.9 11.2,11 1.7,0.1 3.3,0.3 5,0.4 1,0.1 2,0.1 3.1,0.2 4.7,0.3 9.4,0.6 14.2,0.7 1.5,0.1 3,0.1 4.5,0.1 4.6,0.1 9.2,0.2 13.9,0.2 4.7,0 9.3,-0.1 13.9,-0.2 1.5,0 3,-0.1 4.5,-0.1 4.8,-0.2 9.6,-0.4 14.2,-0.7 0.3,-4.7 0.6,-9.4 0.7,-14.2 0.1,-1.5 0.1,-3 0.2,-4.5 z m -53.1,6 17.8,-53.6 1,-3 0.7,-2.1 0.7,2.1 1,3 18,53.6 -39.2,0 z" /><path
         style="fill:#393c3d"
         inkscape:connector-curvature="0"
         id="path198"
         d="m 266.6,292.6 c -3.5,0.1 -7,0.1 -10.6,0.1 -3.6,0 -7.1,0 -10.6,-0.1 -1.5,0 -3,-0.1 -4.5,-0.1 -5.9,-0.2 -11.7,-0.4 -17.3,-0.8 -1,-0.1 -2.1,-0.1 -3.1,-0.2 -1.9,-0.1 -3.7,-0.3 -5.6,-0.4 -1.3,4.8 -5.6,8.3 -10.8,8.3 -2.9,0 -5.5,-1.1 -7.5,-2.9 l -14.1,37.9 31.5,0 c 1.2,-0.8 2.5,-1.6 3.7,-2.4 l 5.3,-16 2.3,-6.8 2.4,-7.1 23.8,0 4.5,0 0.1,0 4.5,0 23.7,0 2.5,7.3 c 0.7,-5.7 1.2,-11.6 1.7,-17.7 -5.6,0.4 -11.4,0.6 -17.3,0.8 -1.6,0 -3.1,0 -4.6,0.1 z" /></g><g
       id="g200"><path
         style="fill:#ffffff"
         inkscape:connector-curvature="0"
         id="path202"
         d="m 257.5,222.3 -1,-3 c -0.2,0 -0.4,0 -0.5,0 -0.3,0 -0.6,0 -0.9,0 l -1,3 c 0.6,0 1.2,0 1.9,0 0.5,0 1,0 1.5,0 z" /><path
         style="fill:#ffffff"
         inkscape:connector-curvature="0"
         id="path204"
         d="m 391.8,256 c 0,-13.1 -24.2,-24.4 -61.4,-30.8 4.3,-6.2 8.2,-12.2 11.6,-18 5.7,-9.7 13.3,-24.8 13.6,-36.1 2.7,-2 4.5,-5.3 4.5,-8.9 0,-6.2 -5,-11.2 -11.2,-11.2 -4.1,0 -7.6,2.2 -9.6,5.4 -12.5,1 -31.2,10.2 -52.5,25.2 -6.5,-37.2 -17.8,-61.4 -30.8,-61.4 -13,0 -24.4,24.2 -30.8,61.4 -4.8,-3.4 -9.6,-6.5 -14.1,-9.3 0.5,-1.2 0.7,-2.5 0.7,-3.9 0,-6.2 -5,-11.2 -11.2,-11.2 -3.7,0 -7,1.8 -9.1,4.7 -8.3,-3.6 -15.4,-5.6 -21.1,-5.6 -4.5,0 -8,1.2 -10.5,3.7 -9.2,9.2 -0.1,34.3 21.6,65.2 -37.2,6.5 -61.3,17.7 -61.3,30.8 0,13.1 24.2,24.4 61.4,30.8 -4.3,6.2 -8.2,12.2 -11.6,18 -7.9,13.5 -19.7,37.5 -10,47.2 2.4,2.4 6,3.7 10.5,3.7 12.4,0 32.1,-9.4 54.7,-25.3 6.5,37.2 17.8,61.4 30.8,61.4 9.1,0 17.4,-11.8 23.8,-31.6 0.7,0.1 1.4,0.2 2.1,0.2 6.2,0 11.2,-5 11.2,-11.2 0,-5 -3.2,-9.2 -7.7,-10.6 0.5,-2.7 1.1,-5.4 1.5,-8.2 22.6,15.9 42.3,25.3 54.7,25.3 4.5,0 8,-1.2 10.5,-3.7 9.7,-9.7 -2.1,-33.7 -10,-47.2 -3.4,-5.8 -7.3,-11.8 -11.6,-18 37.1,-6.4 61.3,-17.7 61.3,-30.8 z m -53.7,-96.4 c -0.2,0.8 -0.3,1.7 -0.3,2.6 0,6.2 5,11.2 11.2,11.2 1.3,0 2.5,-0.2 3.6,-0.6 -0.7,8 -5.2,19.4 -13.1,33 -3.5,6.1 -7.7,12.4 -12.3,18.9 -10.9,-1.8 -22.9,-3.2 -35.7,-4.1 -0.9,-12.8 -2.3,-24.8 -4.1,-35.7 20.4,-14.6 38.5,-23.8 50.7,-25.3 z M 215.3,288 c -0.1,-6.1 -5.1,-11 -11.2,-11 -0.1,0 -0.2,0 -0.3,0 -5.1,0.1 -9.4,3.7 -10.6,8.5 -2.2,-0.3 -4.3,-0.6 -6.4,-1 6.2,-8.5 13.3,-17.4 21,-26.3 0.7,0.8 1.4,1.6 2.1,2.4 l 1.2,-3.2 c -0.4,-0.5 -0.9,-1 -1.3,-1.5 1,-1.2 2.1,-2.3 3.1,-3.5 2.1,-2.3 4.2,-4.7 6.4,-7 1,-1.1 2,-2.2 3.1,-3.3 3.1,-3.3 6.4,-6.6 9.7,-9.9 3.3,-3.3 6.6,-6.5 9.9,-9.7 1.1,-1 2.2,-2.1 3.3,-3.1 3.5,-3.3 7.1,-6.5 10.6,-9.6 3.5,3.1 7,6.3 10.6,9.6 1.1,1 2.2,2.1 3.3,3.1 3.3,3.1 6.6,6.4 9.9,9.7 3.3,3.3 6.5,6.6 9.7,9.9 0.1,4.6 0.2,9.2 0.2,13.9 0,4.7 -0.1,9.3 -0.2,13.9 0,1.5 -0.1,3 -0.1,4.5 -0.2,4.8 -0.4,9.6 -0.7,14.2 -4.7,0.3 -9.4,0.6 -14.2,0.7 -1.5,0.1 -3,0.1 -4.5,0.1 -4.6,0.1 -9.2,0.2 -13.9,0.2 -4.7,0 -9.3,-0.1 -13.9,-0.2 -1.5,0 -3,-0.1 -4.5,-0.1 -4.8,-0.2 -9.6,-0.4 -14.2,-0.7 -1,-0.1 -2,-0.1 -3.1,-0.2 -1.6,-0.2 -3.3,-0.3 -5,-0.4 z m 8,-63.2 c 0,-0.5 0.1,-0.9 0.1,-1.4 0.1,0 0.3,0 0.4,0 l 1.2,-3.1 c -0.5,0 -0.9,0.1 -1.4,0.1 0.9,-11.9 2.2,-23.1 3.8,-33.4 2.6,1.9 5.2,3.8 7.8,5.9 6,4.7 12.2,9.7 18.5,15.1 -4.3,3.7 -8.5,7.6 -12.8,11.7 -1.1,1 -2.2,2.1 -3.3,3.1 -2.5,2.4 -5,4.9 -7.6,7.4 -2.5,2.5 -5,5 -7.4,7.6 -1,1.1 -2.1,2.2 -3.1,3.3 -1.2,1.3 -2.5,2.6 -3.7,4 -2.7,2.9 -5.4,5.9 -7.9,8.8 -7.8,-9 -14.8,-17.8 -20.9,-26.3 10.3,-1.6 21.5,-2.9 33.4,-3.8 -0.2,3.5 -0.4,7.1 -0.6,10.7 l 3.5,-9.7 z m 64.6,-1.4 c 0.2,0 0.4,0 0.7,0 0,0.7 0.1,1.4 0.1,2.1 0.2,4 0.4,8 0.6,12.1 -2.4,-2.5 -4.9,-5.1 -7.4,-7.6 -2.5,-2.5 -5,-5 -7.6,-7.4 -1.1,-1.1 -2.2,-2.1 -3.3,-3.1 -4.3,-4 -8.5,-7.9 -12.8,-11.7 6.2,-5.3 12.3,-10.4 18.3,-15 2.7,-2.1 5.4,-4.1 8,-6 1.6,10.3 2.9,21.6 3.8,33.4 -0.5,0 -1.1,-0.1 -1.6,-0.1 l 1.2,3.3 z m 4.5,47.7 c 0,-1.5 0.1,-3 0.1,-4.5 0.1,-3.5 0.1,-7 0.1,-10.6 0,-3.6 0,-7.1 -0.1,-10.6 2.1,2.2 4.1,4.5 6.1,6.7 1.2,1.3 2.3,2.6 3.4,3.9 -0.5,0.5 -0.9,1.1 -1.4,1.6 l 1.2,3.2 c 0.7,-0.8 1.5,-1.6 2.2,-2.5 7.7,8.9 14.8,17.7 21,26.3 -4.4,0.7 -8.9,1.3 -13.6,1.9 -6.4,0.8 -13,1.4 -19.9,1.9 0.5,-5.7 0.8,-11.4 0.9,-17.3 z m 3.4,-26.5 c -1.1,-1.2 -2.3,-2.4 -3.4,-3.6 -0.1,-2 -0.1,-4 -0.2,-6 -0.2,-3.8 -0.4,-7.6 -0.6,-11.3 11.9,0.9 23.1,2.2 33.4,3.8 -6.2,8.5 -13.3,17.4 -21,26.3 -2.6,-3.1 -5.3,-6.2 -8.2,-9.2 z M 256,123.2 c 11.5,0 21.9,24.3 28,60.4 -2.8,2 -5.7,4.2 -8.6,6.4 -6.4,4.9 -12.9,10.2 -19.4,15.9 -6.7,-5.8 -13.2,-11.1 -19.7,-16.1 -2.8,-2.2 -5.6,-4.2 -8.4,-6.2 6.2,-36 16.6,-60.4 28.1,-60.4 z m -93.9,38.9 c 1.8,-1.8 4.7,-2.8 8.3,-2.8 5.3,0 12,1.8 19.7,5.2 -0.5,1.2 -0.7,2.5 -0.7,3.9 0,6.2 5,11.2 11.2,11.2 3.7,0 7.1,-1.9 9.1,-4.7 4.8,3 9.8,6.3 14.9,9.9 -1.8,10.9 -3.2,22.9 -4.1,35.7 -12.7,0.9 -24.7,2.3 -35.6,4 C 163.8,194.8 154,170.3 162.1,162.1 Z M 123.2,256 c 0,-11.5 24.3,-21.9 60.3,-28 6.5,9 13.9,18.4 22.3,28 -8.2,9.5 -15.7,18.9 -22.3,28 -35.9,-6.1 -60.3,-16.5 -60.3,-28 z m 94.5,75.9 c -1.2,0.8 -2.5,1.6 -3.7,2.4 -18,11.6 -33.4,18.3 -43.5,18.3 -3.7,0 -6.5,-0.9 -8.3,-2.8 -6,-6 -2.2,-21.9 10.5,-43.6 3.5,-6.1 7.7,-12.4 12.3,-18.9 2.6,0.4 5.4,0.8 8.1,1.2 0.1,3.1 1.5,5.9 3.6,7.8 2,1.8 4.6,2.9 7.5,2.9 5.2,0 9.5,-3.5 10.8,-8.3 1.8,0.2 3.7,0.3 5.6,0.4 1,0.1 2,0.1 3.1,0.2 5.6,0.4 11.4,0.6 17.3,0.8 1.5,0 3,0.1 4.5,0.1 3.5,0.1 7,0.1 10.6,0.1 3.6,0 7.1,0 10.6,-0.1 1.5,0 3,-0.1 4.5,-0.1 5.9,-0.2 11.7,-0.4 17.3,-0.8 -0.4,6.1 -1,12 -1.7,17.7 -0.6,5.4 -1.3,10.7 -2.1,15.7 -8.5,-6.2 -17.3,-13.2 -26.3,-21 0.8,-0.7 1.5,-1.3 2.3,-2 l -4.5,0 c 0,0 0,0 -0.1,0 0,0 0,0 -0.1,0 l -4.5,0 c 0.8,0.7 1.5,1.4 2.3,2 -9,7.8 -17.8,14.8 -26.3,21 -0.8,-5.1 -1.5,-10.4 -2.2,-15.9 l -2.3,7 c 0.5,3.8 1,7.5 1.6,11.1 -2.3,1.7 -4.6,3.3 -6.9,4.8 z m 64.5,6.1 c -0.1,0 -0.3,0 -0.4,0 -6.2,0 -11.2,5 -11.2,11.2 0,4.4 2.5,8.2 6.2,10 -5.8,18.4 -13.1,29.6 -20.9,29.6 -11.5,0 -21.9,-24.3 -28,-60.4 9,-6.5 18.5,-14 28,-22.3 9.6,8.3 19,15.8 28,22.3 -0.4,3.3 -1,6.5 -1.7,9.6 z m 57.2,-31.7 c 12.7,21.7 16.5,37.5 10.5,43.6 -1.8,1.8 -4.7,2.8 -8.3,2.8 -10.2,0 -25.6,-6.7 -43.5,-18.3 -1.2,-0.8 -2.5,-1.6 -3.7,-2.4 -2.3,-1.5 -4.6,-3.1 -6.9,-4.8 0.6,-3.6 1.1,-7.2 1.6,-11 1,-7.8 1.8,-16.1 2.4,-24.7 7.3,-0.5 14.4,-1.2 21.2,-2 5,-0.6 9.8,-1.3 14.5,-2 4.5,6.4 8.7,12.7 12.2,18.8 z m -11,-22.3 c -6.5,-9.1 -14,-18.5 -22.3,-28 8.2,-9.5 15.7,-18.9 22.3,-28 36.1,6.1 60.4,16.5 60.4,28 0,11.5 -24.4,21.9 -60.4,28 z" /></g></g></svg>