<?xml version="1.0" encoding="UTF-8" standalone="no"?>
<svg
   xmlns:dc="http://purl.org/dc/elements/1.1/"
   xmlns:cc="http://creativecommons.org/ns#"
   xmlns:rdf="http://www.w3.org/1999/02/22-rdf-syntax-ns#"
   xmlns:svg="http://www.w3.org/2000/svg"
   xmlns="http://www.w3.org/2000/svg"
   xmlns:sodipodi="http://sodipodi.sourceforge.net/DTD/sodipodi-0.dtd"
   xmlns:inkscape="http://www.inkscape.org/namespaces/inkscape"
   viewBox="0 0 128 128"
   id="svg2"
   version="1.1"
   inkscape:version="0.91 r"
   sodipodi:docname="oceanaudio.svg"
   width="128"
   height="128">
  <metadata
     id="metadata25">
    <rdf:RDF>
      <cc:Work
         rdf:about="">
        <dc:format>image/svg+xml</dc:format>
        <dc:type
           rdf:resource="http://purl.org/dc/dcmitype/StillImage" />
        <dc:title></dc:title>
      </cc:Work>
    </rdf:RDF>
  </metadata>
  <sodipodi:namedview
     pagecolor="#ffffff"
     bordercolor="#666666"
     borderopacity="1"
     objecttolerance="10"
     gridtolerance="10"
     guidetolerance="10"
     inkscape:pageopacity="0"
     inkscape:pageshadow="2"
     inkscape:window-width="1366"
     inkscape:window-height="744"
     id="namedview23"
     showgrid="false"
     inkscape:zoom="2.4583333"
     inkscape:cx="124.11006"
     inkscape:cy="81.631267"
     inkscape:window-x="0"
     inkscape:window-y="24"
     inkscape:window-maximized="1"
     inkscape:current-layer="svg2" />
  <defs
     id="defs4">
    <linearGradient
       id="0"
       x1="25.422001"
       y1="46.779999"
       x2="24.209999"
       y2="1.627"
       gradientUnits="userSpaceOnUse"
       gradientTransform="matrix(2.1645556,0,0,2.1645556,6.5108037,13.290465)">
      <stop
         stop-color="#f15f19"
         id="stop7" />
      <stop
         stop-color="#fbb521"
         offset="1"
         id="stop9" />
    </linearGradient>
  </defs>
  <path
     d="m 12.96118,13.286136 90.99791,0 c 3.57586,0 6.45471,2.878859 6.45471,6.454705 l 0,90.997929 c 0,3.57584 -2.87885,6.4547 -6.45471,6.4547 l -90.99791,0 c -3.5758473,0 -6.4547054,-2.87886 -6.4547054,-6.4547 l 0,-90.997929 c 0,-3.575846 2.8788581,-6.454705 6.4547054,-6.454705"
     id="path11"
     inkscape:connector-curvature="0"
     style="fill:url(#0);fill-rule:evenodd" />
  <path
     inkscape:connector-curvature="0"
     id="path2984"
     d="m 110.49191,63.782639 -2.5e-4,-34.424286 0.8911,1.001425 c 1.73535,1.950223 4.16117,5.685911 5.97698,9.20434 7.71805,14.955013 7.85347,32.603061 0.36605,47.702098 -1.7613,3.55179 -4.49508,7.855938 -6.23347,9.814094 l -1.00016,1.126619 -2.5e-4,-34.42429 z"
     style="fill:#2b2b2b" />
  <g
     id="g3378"
     transform="matrix(0.95666458,0,0,0.95666458,-0.4963426,0.96491196)">
    <path
       sodipodi:nodetypes="cssscccsssssssssccc"
       inkscape:connector-curvature="0"
       id="path3007"
       d="M 47.608404,99.017049 C 43.970306,97.216194 41.04472,92.733678 41.04472,88.960323 c 0,-6.283371 6.430986,-12.297127 12.320915,-11.521569 1.580312,0.208081 3.657024,0.632988 4.614922,0.944243 l 1.741625,0.565894 0.206355,-23.658339 0.206341,-23.658341 1.861971,0 c 1.498009,0 2.043568,0.609248 2.791008,3.11676 1.350448,4.530542 2.949494,7.265542 7.012804,11.99467 4.641341,5.401889 6.403374,8.922037 7.322378,14.628551 0.766297,4.758218 0.210459,9.732997 -1.552452,13.894649 -0.923135,2.179243 -1.023499,1.836221 -1.481952,-5.064746 C 75.74294,64.998546 75.11796,61.874007 73.984558,59.683045 71.926003,55.703682 66.060476,49.021518 65.13052,49.596285 64.731781,49.842709 64.420423,59.188427 64.420423,70.910372 L 63.869457,89.8572 62.173409,94.887522 c -1.606011,4.501418 -9.569114,6.559578 -14.565005,4.129527 z"
       style="fill:#ffffff;fill-opacity:1;fill-rule:evenodd;stroke:#ffffff;stroke-width:0;stroke-linecap:round;stroke-linejoin:miter;stroke-miterlimit:4;stroke-dasharray:none;stroke-opacity:1" />
    <ellipse
       id="path2985"
       style="fill:#ffffff;fill-opacity:1;fill-rule:evenodd;stroke:#ffffff;stroke-width:0;stroke-linecap:round;stroke-linejoin:miter;stroke-miterlimit:4;stroke-dasharray:none;stroke-opacity:1"
       cx="55.242657"
       cy="90.288193"
       rx="8.6351042"
       ry="8.4809055" />
  </g>
</svg>
