<?xml version="1.0" encoding="UTF-8" standalone="no"?>
<!-- Created with Inkscape (http://www.inkscape.org/) -->

<svg
   xmlns:dc="http://purl.org/dc/elements/1.1/"
   xmlns:cc="http://creativecommons.org/ns#"
   xmlns:rdf="http://www.w3.org/1999/02/22-rdf-syntax-ns#"
   xmlns:svg="http://www.w3.org/2000/svg"
   xmlns="http://www.w3.org/2000/svg"
   xmlns:sodipodi="http://sodipodi.sourceforge.net/DTD/sodipodi-0.dtd"
   xmlns:inkscape="http://www.inkscape.org/namespaces/inkscape"
   id="svg2"
   version="1.1"
   inkscape:version="0.91 r"
   width="512"
   height="512"
   sodipodi:docname="blockify.svg">
  <metadata
     id="metadata8">
    <rdf:RDF>
      <cc:Work
         rdf:about="">
        <dc:format>image/svg+xml</dc:format>
        <dc:type
           rdf:resource="http://purl.org/dc/dcmitype/StillImage" />
        <dc:title />
      </cc:Work>
    </rdf:RDF>
  </metadata>
  <defs
     id="defs6">
    <clipPath
       id="clipPath6">
      <rect
         style="fill:#ffffff"
         id="rect8"
         width="84"
         height="84"
         rx="6"
         x="6"
         y="6" />
    </clipPath>
    <filter
       style="color-interpolation-filters:sRGB"
       id="filter10">
      <feGaussianBlur
         id="feGaussianBlur12"
         stdDeviation="1.71" />
    </filter>
    <filter
       style="color-interpolation-filters:sRGB"
       id="filter14"
       x="-0.192"
       y="-0.192"
       width="1.3839999"
       height="1.3839999">
      <feGaussianBlur
         id="feGaussianBlur16"
         stdDeviation="5.28" />
    </filter>
    <linearGradient
       gradientTransform="matrix(2.3813559,0,0,2.3813559,6.9152543,7.1864404)"
       y2="-0.20299999"
       x2="23.593"
       y1="47.592999"
       x1="24.610001"
       gradientUnits="userSpaceOnUse"
       id="0">
      <stop
         offset="0"
         stop-color="#ff5454"
         id="stop21" />
      <stop
         stop-color="#c52828"
         id="stop19"
         offset="1"
         style="stop-color:#c40d0d;stop-opacity:1" />
    </linearGradient>
    <linearGradient
       id="linearGradient23"
       y1="20.221001"
       x2="0"
       y2="138.66"
       gradientUnits="userSpaceOnUse">
      <stop
         id="stop25"
         stop-color="#fff" />
      <stop
         id="stop27"
         stop-opacity="0"
         stop-color="#fff"
         offset="1" />
    </linearGradient>
    <linearGradient
       id="linearGradient29"
       y1="92.540001"
       x2="0"
       y2="7.02"
       gradientUnits="userSpaceOnUse"
       gradientTransform="scale(1.0059,0.99417)">
      <stop
         id="stop31" />
      <stop
         id="stop33"
         stop-opacity=".588"
         offset="1" />
    </linearGradient>
    <linearGradient
       gradientTransform="matrix(1.3152311,0,0,1.3152311,686.52919,-371.3295)"
       y2="301.29999"
       x2="0"
       y1="653.96002"
       gradientUnits="userSpaceOnUse"
       id="0-0">
      <stop
         id="stop7"
         stop-color="#c52828"
         style="stop-color:#b31c1c;stop-opacity:1" />
      <stop
         style="stop-color:#ff0000;stop-opacity:1"
         offset="0.41732636"
         stop-color="#c52828"
         id="stop3400" />
      <stop
         id="stop9"
         stop-color="#ff5454"
         offset="1" />
    </linearGradient>
  </defs>
  <sodipodi:namedview
     pagecolor="#ffffff"
     bordercolor="#666666"
     borderopacity="1"
     objecttolerance="10"
     gridtolerance="10"
     guidetolerance="10"
     inkscape:pageopacity="0"
     inkscape:pageshadow="2"
     inkscape:window-width="1208"
     inkscape:window-height="714"
     id="namedview4"
     showgrid="false"
     inkscape:zoom="0.4609375"
     inkscape:cx="399.53785"
     inkscape:cy="399.49925"
     inkscape:window-x="15"
     inkscape:window-y="24"
     inkscape:window-maximized="0"
     inkscape:current-layer="svg2" />
  <circle
     style="fill:url(#0-0);fill-opacity:1"
     id="circle13"
     r="228.12683"
     cy="258.33737"
     cx="257.90854" />
  <path
     inkscape:connector-curvature="0"
     id="path2990"
     d="m 308.44392,474.5801 c -4.68443,-6.75964 -21.7084,-22.10474 -30.15726,-27.18322 -16.84734,-10.12667 -34.09806,-15.275 -54.78666,-16.3506 -24.40164,-1.26865 -46.72001,5.29159 -69.27576,20.36285 l -8.27577,5.52968 -8.72423,-5.3128 c -13.90992,-8.47071 -27.78262,-19.44657 -41.023826,-32.45737 -8.60897,-8.45916 -12.11816,-12.55837 -11.69494,-13.66127 0.82283,-2.14427 11.39604,-10.50525 22.531016,-17.81687 11.16243,-7.32964 32.25317,-17.77689 44.43789,-22.0122 33.36725,-11.5982 74.09446,-14.37185 108.52562,-7.39095 47.51491,9.63362 89.97668,35.90675 120.89925,74.80614 3.90541,4.91286 7.10075,9.7658 7.10075,10.78429 0,3.51866 -24.74362,17.73786 -44.5,25.57242 -12.04941,4.7783 -26.37013,9.21082 -29.75861,9.21082 -1.76045,0 -3.28131,-1.1716 -5.29747,-4.08092 z M 339.9535,335.79441 C 316.49179,324.07918 293.96896,317.18802 265.5,313.01438 c -9.03601,-1.32471 -18.42199,-1.76048 -38,-1.76427 -27.6142,-0.005 -41.738,1.20201 -69.04818,5.90246 -9.83862,1.69336 -15.11473,2.17872 -17.1958,1.58188 -12.43266,-3.56564 -15.12745,-16.11371 -5.24616,-24.42827 6.14337,-5.16931 26.5338,-9.47936 57.49014,-12.15204 58.15451,-5.02088 113.22449,4.16505 154.93388,25.8437 23.60026,12.26634 30.11851,25.47343 16.56612,33.56579 -1.925,1.14945 -4.85,2.06826 -6.5,2.04179 -1.66133,-0.0266 -9.93721,-3.5121 -18.5465,-7.81101 z M 374,277.0226 c -32.29,-17.49359 -63.89459,-27.14749 -106.5,-32.53135 -12.83583,-1.62201 -60.26099,-1.62831 -75.5,-0.01 -17.50856,1.85928 -35.50489,4.1232 -45.55754,5.73108 -12.29867,1.96713 -17.75857,1.83826 -22.39808,-0.52864 -7.65783,-3.90673 -10.6334,-11.57332 -7.58744,-19.54906 3.80192,-9.95519 15.74112,-14.77216 48.04306,-19.3834 61.32189,-8.75397 117.17098,-5.5776 167.20178,9.50946 22.61036,6.81827 46.40308,17.75513 59.35816,27.28531 15.13672,11.13507 17.20382,23.55256 5.18912,31.17205 -6.95696,4.41198 -11.63372,4.0556 -22.24906,-1.69542 z m 31.84084,-67.87251 C 363.96789,186.50421 325.48546,174.8898 271,168.45369 c -14.57631,-1.72183 -61.54113,-1.3868 -81,0.57782 -19.14125,1.93256 -40.13895,4.86965 -54.80076,7.66536 -17.71858,3.37858 -24.17603,2.18455 -31.37629,-5.80168 -8.982266,-9.96277 -4.437786,-23.85662 10.22402,-31.25788 9.48785,-4.78945 28.43925,-8.73384 60.95303,-12.68627 21.25313,-2.58357 86.19295,-2.55447 107.5,0.0482 55.10279,6.73074 105.94577,22.61862 136.2848,42.58752 17.5676,11.56285 23.77285,22.97201 18.04093,33.17059 -3.37437,6.00383 -12.08507,10.90367 -19.38411,10.90367 -1.96545,0 -6.57201,-1.79125 -11.60078,-4.51093 z"
     style="fill:#501616" />
</svg>
