<?xml version="1.0" encoding="UTF-8" standalone="no"?>
<svg
   xmlns:dc="http://purl.org/dc/elements/1.1/"
   xmlns:cc="http://creativecommons.org/ns#"
   xmlns:rdf="http://www.w3.org/1999/02/22-rdf-syntax-ns#"
   xmlns:svg="http://www.w3.org/2000/svg"
   xmlns="http://www.w3.org/2000/svg"
   xmlns:sodipodi="http://sodipodi.sourceforge.net/DTD/sodipodi-0.dtd"
   xmlns:inkscape="http://www.inkscape.org/namespaces/inkscape"
   viewBox="0 0 128 128"
   id="svg2"
   version="1.1"
   inkscape:version="0.91 r"
   sodipodi:docname="blogger.svg"
   width="128"
   height="128">
  <metadata
     id="metadata19">
    <rdf:RDF>
      <cc:Work
         rdf:about="">
        <dc:format>image/svg+xml</dc:format>
        <dc:type
           rdf:resource="http://purl.org/dc/dcmitype/StillImage" />
        <dc:title></dc:title>
      </cc:Work>
    </rdf:RDF>
  </metadata>
  <sodipodi:namedview
     pagecolor="#ffffff"
     bordercolor="#666666"
     borderopacity="1"
     objecttolerance="10"
     gridtolerance="10"
     guidetolerance="10"
     inkscape:pageopacity="0"
     inkscape:pageshadow="2"
     inkscape:window-width="1366"
     inkscape:window-height="744"
     id="namedview17"
     showgrid="false"
     inkscape:zoom="2.4583333"
     inkscape:cx="64.590814"
     inkscape:cy="42.007777"
     inkscape:window-x="0"
     inkscape:window-y="24"
     inkscape:window-maximized="1"
     inkscape:current-layer="svg2" />
  <defs
     id="defs4">
    <linearGradient
       id="0"
       gradientUnits="userSpaceOnUse"
       y1="653.96002"
       x2="0"
       y2="301.29999">
      <stop
         stop-color="#f15f19"
         id="stop7" />
      <stop
         offset="1"
         stop-color="#fbb521"
         id="stop9" />
    </linearGradient>
  </defs>
  <g
     transform="matrix(7.1142131,0,0,7.1142131,-14.717762,-7349.724)"
     id="g11"
     style="fill:#ffffff;fill-opacity:0.85100002;enable-background:new">
    <circle
       cx="-325.89001"
       cy="478.75"
       r="173.45"
       transform="matrix(0.04813,0,0,0.04813,26.788,1019.08)"
       id="circle13"
       style="fill:url(#0);fill-opacity:1" />
    <path
       d="m 10.931,1037.95 c -0.182,0 -0.408,0 -0.694,0 -1.066,10e-4 -1.066,10e-4 -1.314,0.076 -0.505,0.136 -1.038,0.488 -1.366,0.872 -0.361,0.424 -0.628,0.905 -0.628,1.484 0,0.274 0,1.932 0,2.972 0.057,2.245 1.366,2.886 2.435,2.942 0.228,0 3.13,0 3.478,0 1.33,-0.108 2.401,-1.347 2.435,-2.239 l 0,-1.245 c 0.004,-1.031 0.004,-1.387 -0.113,-1.526 -0.122,-0.145 -0.215,-0.213 -0.584,-0.213 -0.36,0 -0.489,0.016 -0.607,-0.073 -0.15,-0.113 -0.187,-0.212 -0.212,-0.534 -0.081,-1.152 -0.798,-2.075 -1.867,-2.41 -0.262,-0.083 -0.42,-0.109 -0.966,-0.113 m -1.355,2.094 1.531,0 c 0.307,0 0.557,0.247 0.557,0.557 0,0.309 -0.249,0.486 -0.557,0.486 l -1.531,0 c -0.309,0 -0.557,-0.178 -0.557,-0.486 0,-0.309 0.247,-0.557 0.557,-0.557 m 0,3.13 3.061,0 c 0.309,0 0.557,0.179 0.557,0.486 0,0.309 -0.247,0.557 -0.557,0.557 l -3.061,0 c -0.309,0 -0.557,-0.247 -0.557,-0.557 0,-0.307 0.247,-0.486 0.557,-0.486"
       id="path15"
       inkscape:connector-curvature="0"
       style="fill:#ffffff;fill-opacity:0.85" />
  </g>
</svg>
