<?xml version="1.0" encoding="UTF-8" standalone="no"?>
<svg
   xmlns:dc="http://purl.org/dc/elements/1.1/"
   xmlns:cc="http://creativecommons.org/ns#"
   xmlns:rdf="http://www.w3.org/1999/02/22-rdf-syntax-ns#"
   xmlns:svg="http://www.w3.org/2000/svg"
   xmlns="http://www.w3.org/2000/svg"
   xmlns:sodipodi="http://sodipodi.sourceforge.net/DTD/sodipodi-0.dtd"
   xmlns:inkscape="http://www.inkscape.org/namespaces/inkscape"
   viewBox="0 0 129 128"
   id="svg2"
   version="1.1"
   inkscape:version="0.91 r"
   sodipodi:docname="bzr.svg"
   width="129"
   height="128">
  <metadata
     id="metadata24">
    <rdf:RDF>
      <cc:Work
         rdf:about="">
        <dc:format>image/svg+xml</dc:format>
        <dc:type
           rdf:resource="http://purl.org/dc/dcmitype/StillImage" />
        <dc:title></dc:title>
      </cc:Work>
    </rdf:RDF>
  </metadata>
  <sodipodi:namedview
     pagecolor="#ffffff"
     bordercolor="#666666"
     borderopacity="1"
     objecttolerance="10"
     gridtolerance="10"
     guidetolerance="10"
     inkscape:pageopacity="0"
     inkscape:pageshadow="2"
     inkscape:window-width="1366"
     inkscape:window-height="744"
     id="namedview22"
     showgrid="false"
     inkscape:zoom="2.4583333"
     inkscape:cx="128.00756"
     inkscape:cy="37.087842"
     inkscape:window-x="0"
     inkscape:window-y="24"
     inkscape:window-maximized="1"
     inkscape:current-layer="svg2" />
  <defs
     id="defs4">
    <linearGradient
       id="0"
       gradientUnits="userSpaceOnUse"
       x1="3.1470001"
       x2="18.771999">
      <stop
         stop-color="#e6f3ff"
         id="stop7" />
      <stop
         offset="1"
         stop-color="#dcffe7"
         id="stop9" />
    </linearGradient>
    <linearGradient
       id="1"
       x1="409.57001"
       y1="542.79999"
       x2="409.94"
       y2="501.23001"
       gradientUnits="userSpaceOnUse"
       gradientTransform="matrix(6.41335,0,0,6.2627,-2557.31,-3223.66)">
      <stop
         stop-color="#197cf1"
         id="stop12" />
      <stop
         offset="1"
         stop-color="#20bcfa"
         id="stop14" />
    </linearGradient>
    <linearGradient
       gradientUnits="userSpaceOnUse"
       y2="-27.875"
       x2="0"
       y1="22.12"
       id="0-0">
      <stop
         id="stop3357"
         stop-color="#f15f19" />
      <stop
         id="stop3359"
         stop-color="#fbb521"
         offset="1" />
    </linearGradient>
    <linearGradient
       gradientUnits="userSpaceOnUse"
       y2="-19.01"
       x2="66.58"
       y1="17.05"
       x1="66.957"
       id="1-7">
      <stop
         id="stop3362"
         stop-color="#e2e2e2" />
      <stop
         id="stop3364"
         stop-color="#fff"
         offset="1" />
    </linearGradient>
  </defs>
  <g
     id="g3366"
     transform="matrix(2.491363,0,0,2.4914377,-103.1757,68.390289)"
     style="enable-background:new">
    <path
       style="fill:url(#1-7);fill-rule:evenodd"
       id="path3368"
       d="m 58.648,-18.477 2.156,-2.148 11.313,4.51 14.257,13.99 -16,19.375 -10.125,-5.625 z"
       inkscape:connector-curvature="0" />
    <path
       style="fill:url(#0-0)"
       id="path3370"
       d="M 90.47,-4.01 69.512,-24.967 c -1.206,-1.207 -3.164,-1.207 -4.372,0 l -4.352,4.352 5.52,5.52 c 1.283,-0.433 2.754,-0.142 3.777,0.88 1.028,1.029 1.317,2.513 0.872,3.8 l 5.321,5.32 c 1.288,-0.444 2.772,-0.157 3.801,0.873 1.437,1.436 1.437,3.764 0,5.202 -1.438,1.437 -3.765,1.437 -5.204,0 -1.08,-1.082 -1.348,-2.669 -0.8,-4 l -4.963,-4.962 0,13.06 c 0.35,0.173 0.681,0.404 0.972,0.695 1.437,1.436 1.437,3.764 0,5.203 -1.437,1.436 -3.766,1.436 -5.201,0 -1.437,-1.439 -1.437,-3.766 0,-5.203 0.355,-0.355 0.766,-0.623 1.205,-0.803 l 0,-13.179 c -0.439,-0.18 -0.849,-0.446 -1.205,-0.803 -1.088,-1.088 -1.35,-2.685 -0.792,-4.02 l -5.442,-5.443 -14.371,14.37 c -1.207,1.208 -1.207,3.166 0,4.373 l 20.959,20.957 c 1.207,1.207 3.164,1.207 4.372,0 l 20.86,-20.86 c 1.207,-1.207 1.207,-3.166 0,-4.373"
       inkscape:connector-curvature="0" />
  </g>
</svg>
