<?xml version="1.0" encoding="UTF-8" standalone="no"?>
<!-- Generator: flash2svg, http://dissentgraphics.com/tools/flash2svg -->

<svg
   xmlns:dc="http://purl.org/dc/elements/1.1/"
   xmlns:cc="http://creativecommons.org/ns#"
   xmlns:rdf="http://www.w3.org/1999/02/22-rdf-syntax-ns#"
   xmlns:svg="http://www.w3.org/2000/svg"
   xmlns="http://www.w3.org/2000/svg"
   xmlns:xlink="http://www.w3.org/1999/xlink"
   xmlns:sodipodi="http://sodipodi.sourceforge.net/DTD/sodipodi-0.dtd"
   xmlns:inkscape="http://www.inkscape.org/namespaces/inkscape"
   id="Calibre"
   image-rendering="optimizeSpeed"
   version="1.1"
   style="background-color:#ffffff"
   x="0px"
   y="0px"
   width="1024px"
   height="1024px"
   viewBox="0 0 1024 1024"
   enable-background="new 0 0 1024 1024"
   inkscape:version="0.91 r"
   sodipodi:docname="calibre.svg">
  <metadata
     id="metadata53">
    <rdf:RDF>
      <cc:Work
         rdf:about="">
        <dc:format>image/svg+xml</dc:format>
        <dc:type
           rdf:resource="http://purl.org/dc/dcmitype/StillImage" />
      </cc:Work>
    </rdf:RDF>
  </metadata>
  <sodipodi:namedview
     pagecolor="#ffffff"
     bordercolor="#666666"
     borderopacity="1"
     objecttolerance="10"
     gridtolerance="10"
     guidetolerance="10"
     inkscape:pageopacity="0"
     inkscape:pageshadow="2"
     inkscape:window-width="1366"
     inkscape:window-height="744"
     id="namedview51"
     showgrid="false"
     inkscape:zoom="0.46093751"
     inkscape:cx="54.500266"
     inkscape:cy="535.89753"
     inkscape:window-x="0"
     inkscape:window-y="24"
     inkscape:window-maximized="1"
     inkscape:current-layer="Calibre" />
  <defs
     transform="matrix(1 0 0 1 0 0) "
     id="defs3">
    <linearGradient
       gradientTransform="matrix(0,-1,1,0,-1.5e-6,47.999998)"
       gradientUnits="userSpaceOnUse"
       x2="47"
       x1="1"
       id="linearGradient3764">
      <stop
         id="stop7"
         stop-opacity="1"
         stop-color="#b80000" />
      <stop
         id="stop9"
         stop-opacity="1"
         stop-color="#cb0000"
         offset="1" />
    </linearGradient>
    <clipPath
       id="clipPath-292987263">
      <g
         id="g12"
         transform="translate(0,-1004.3622)">
        <path
           style="fill:#1890d0"
           inkscape:connector-curvature="0"
           id="path14"
           transform="matrix(15.333333,0,0,11.5,414.99999,878.8622)"
           d="m -24,13 c 0,1.105 -0.672,2 -1.5,2 -0.828,0 -1.5,-0.895 -1.5,-2 0,-1.105 0.672,-2 1.5,-2 0.828,0 1.5,0.895 1.5,2 z" />
      </g>
    </clipPath>
    <clipPath
       id="clipPath-303915126">
      <g
         id="g17"
         transform="translate(0,-1004.3622)">
        <path
           style="fill:#1890d0"
           inkscape:connector-curvature="0"
           id="path19"
           transform="matrix(15.333333,0,0,11.5,414.99999,878.8622)"
           d="m -24,13 c 0,1.105 -0.672,2 -1.5,2 -0.828,0 -1.5,-0.895 -1.5,-2 0,-1.105 0.672,-2 1.5,-2 0.828,0 1.5,0.895 1.5,2 z" />
      </g>
    </clipPath>
    <linearGradient
       gradientUnits="userSpaceOnUse"
       y2="-30.721"
       x2="0"
       y1="17.279"
       id="0"
       gradientTransform="matrix(2.4955507,0,0,2.4955507,240.71244,33.087543)">
      <stop
         id="stop3341"
         stop-color="#dc3c30" />
      <stop
         id="stop3343"
         stop-color="#ff786d"
         offset="1" />
    </linearGradient>
    <linearGradient
       id="0-9"
       x1="-48.953"
       y1="-5.178"
       x2="-49.554"
       y2="-30.891"
       gradientUnits="userSpaceOnUse">
      <stop
         id="stop3394"
         stop-color="#566069" />
      <stop
         id="stop3396"
         stop-color="#6c7884"
         offset="1" />
    </linearGradient>
    <linearGradient
       id="1"
       x1="43.691"
       y1="15.429"
       x2="42.36"
       y2="-4.937"
       gradientUnits="userSpaceOnUse">
      <stop
         id="stop3399"
         stop-color="#d5dbff" />
      <stop
         id="stop3401"
         stop-color="#f9ffff"
         offset="1" />
    </linearGradient>
    <linearGradient
       id="2"
       x1="-56.27"
       y1="3.509"
       x2="-56.38"
       y2="-26.783"
       gradientUnits="userSpaceOnUse">
      <stop
         id="stop3404"
         stop-color="#197ff1" />
      <stop
         id="stop3406"
         stop-color="#21c6fb"
         offset="1" />
    </linearGradient>
    <linearGradient
       gradientUnits="userSpaceOnUse"
       y2="-1.823"
       x2="22.382"
       y1="48.821"
       x1="23.2"
       id="0-7">
      <stop
         id="stop3457"
         stop-color="#7737c5" />
      <stop
         id="stop3459"
         offset="1"
         stop-color="#9371ff" />
    </linearGradient>
    <linearGradient
       gradientUnits="userSpaceOnUse"
       y2="501.51"
       x2="0"
       y1="546.29"
       id="0-3">
      <stop
         id="stop3484"
         stop-color="#197cf1" />
      <stop
         id="stop3486"
         stop-color="#20bcfa"
         offset="1" />
    </linearGradient>
    <linearGradient
       y2="9.965"
       x2="0"
       y1="36.965"
       gradientUnits="userSpaceOnUse"
       id="0-5">
      <stop
         id="stop3509"
         stop-color="#2b65bd" />
      <stop
         id="stop3511"
         stop-color="#64a3dc"
         offset="1" />
    </linearGradient>
    <linearGradient
       id="linearGradient3579"
       y1="545.8"
       x2="0"
       y2="517.8"
       gradientUnits="userSpaceOnUse">
      <stop
         id="stop3581"
         stop-color="#3889e9" />
      <stop
         id="stop3583"
         stop-color="#5ea5fb"
         offset="1" />
    </linearGradient>
    <linearGradient
       id="0-8"
       gradientUnits="userSpaceOnUse"
       y1="545.14"
       x2="0"
       y2="518.14">
      <stop
         id="stop3586"
         stop-color="#00a661" />
      <stop
         id="stop3588"
         stop-color="#37ce97"
         offset="1" />
    </linearGradient>
    <linearGradient
       inkscape:collect="always"
       xlink:href="#0-9"
       id="linearGradient4311"
       x1="24.545013"
       y1="513.15735"
       x2="997.14038"
       y2="513.15735"
       gradientUnits="userSpaceOnUse" />
  </defs>
  <circle
     style="opacity:1;fill:url(#linearGradient4311);fill-opacity:1.0;fill-rule:nonzero;stroke:none;stroke-width:2.00600004;stroke-miterlimit:4;stroke-dasharray:none;stroke-opacity:1"
     id="path4303"
     cx="510.84271"
     cy="513.15735"
     r="486.2977" />
  <g
     id="Calque.__211"
     transform="translate(8.494534,-0.107653)">
    <g
       id="shape44">
      <path
         id="path31"
         d="m 354,240.1 q 0,-20 -20,-20 l -130.55,0 c -13.35,0 -20,6.65 -20,20 l 0,464.1 c 0,13.35 6.65,20 20,20 l 130.55,0 c 13.35,0 20,-6.65 20,-20 l 0,-464.1 z"
         inkscape:connector-curvature="0"
         style="fill:#46331b;fill-opacity:1" />
    </g>
  </g>
  <g
     id="Symbole.__2039"
     transform="translate(-4.4373416,-2.107653)">
    <g
       id="shape45">
      <path
         id="path32"
         d="m 307.7,323.4 c -3.9,-3.9 -8.6,-5.85 -14.15,-5.85 l -18,0 c -5.55,0 -10.25,1.95 -14.15,5.85 -3.9,3.9 -5.85,8.6 -5.85,14.15 l 0,18 c 0,5.55 1.95,10.25 5.85,14.15 3.9,3.9 8.6,5.85 14.15,5.85 l 18,0 c 5.55,0 10.25,-1.95 14.15,-5.85 3.9,-3.9 5.85,-8.6 5.85,-14.15 l 0,-18 c 0,-5.55 -1.95,-10.25 -5.85,-14.15 z m 0,116 c -3.9,-3.9 -8.6,-5.85 -14.15,-5.85 l -18,0 c -5.55,0 -10.25,1.95 -14.15,5.85 -3.9,3.9 -5.85,8.6 -5.85,14.15 l 0,18 c 0,5.55 1.95,10.25 5.85,14.15 3.9,3.9 8.6,5.85 14.15,5.85 l 18,0 c 5.55,0 10.25,-1.95 14.15,-5.85 3.9,-3.9 5.85,-8.6 5.85,-14.15 l 0,-18 c 0,-5.55 -1.95,-10.25 -5.85,-14.15 z m 5.85,130.15 c 0,-5.55 -1.95,-10.25 -5.85,-14.15 -3.9,-3.9 -8.6,-5.85 -14.15,-5.85 l -18,0 c -5.55,0 -10.25,1.95 -14.15,5.85 -3.9,3.9 -5.85,8.6 -5.85,14.15 l 0,18 c 0,5.55 1.95,10.25 5.85,14.15 3.9,3.9 8.6,5.85 14.15,5.85 l 18,0 c 5.55,0 10.25,-1.95 14.15,-5.85 3.9,-3.9 5.85,-8.6 5.85,-14.15 l 0,-18 z m 0,116 c 0,-5.55 -1.95,-10.25 -5.85,-14.15 -3.9,-3.9 -8.6,-5.85 -14.15,-5.85 l -18,0 c -5.55,0 -10.25,1.95 -14.15,5.85 -3.9,3.9 -5.85,8.6 -5.85,14.15 l 0,18 c 0,5.55 1.95,10.25 5.85,14.15 3.9,3.9 8.6,5.85 14.15,5.85 l 18,0 c 5.55,0 10.25,-1.95 14.15,-5.85 3.9,-3.9 5.85,-8.6 5.85,-14.15 l 0,-18 z"
         inkscape:connector-curvature="0"
         style="fill:#aa8356;fill-opacity:1" />
    </g>
  </g>
  <g
     id="circle2">
    <g
       id="Symbole.__2032_1"
       overflow="visible">
      <g
         id="Calque.__212">
        <g
           id="shape46">
          <path
             id="path33"
             fill="#485052"
             fill-opacity="1"
             d="M530,332 C530,318.65 523.35,312 510,312 L384,312 Q364,312 364,332 L364,704.2 C364,717.55 370.65,724.2 384,724.2 L510,724.2 C523.35,724.2 530,717.55 530,704.2 L530,332z" />
        </g>
      </g>
      <g
         id="Calque.__213">
        <g
           id="shape47">
          <path
             id="path34"
             fill="#CBDEE3"
             fill-opacity="1"
             d="M530.5,379.1 L530.5,353.1 364.5,353.1 364.5,379.1 530.5,379.1z M530.5,682.1 L530.5,656.1 364.5,656.1 364.5,682.1 530.5,682.1z" />
        </g>
      </g>
    </g>
  </g>
  <g
     id="Calque.__205"
     transform="matrix(0.99534126,-0.09641461,0.09641461,0.99534126,-58.71329,96.214675)">
    <g
       id="Symbole.__2034_1"
       overflow="visible"
       style="overflow:visible">
      <g
         id="Calque.__214">
        <g
           id="shape48">
          <path
             id="path35"
             d="m 809.87,391.327 -6.629,-16.842 c -4.89,-12.423 -13.513,-16.175 -25.936,-11.286 l -83.746,32.964 c -12.422,4.889 -16.174,13.513 -11.285,25.935 l 6.629,16.842 120.967,-47.613 z m 90.571,284.71 c 12.422,-4.889 16.174,-13.513 11.285,-25.935 l -94.531,-240.165 -120.966,47.613 94.53,240.165 c 4.89,12.423 13.513,16.175 25.936,11.286 l 83.746,-32.964 z M 854.042,587.37 c 12.254,5.333 20.868,14.247 25.776,26.716 4.907,12.469 4.681,24.863 -0.651,37.118 -5.332,12.254 -14.247,20.868 -26.716,25.775 -12.469,4.908 -24.863,4.682 -37.117,-0.65 -12.255,-5.332 -20.868,-14.247 -25.776,-26.716 -4.908,-12.469 -4.682,-24.863 0.651,-37.117 5.332,-12.255 14.247,-20.868 26.715,-25.776 12.469,-4.908 24.863,-4.682 37.118,0.65 z"
             inkscape:connector-curvature="0"
             style="fill:#3c5687;fill-opacity:1" />
          <path
             id="path36"
             d="m 817.195,409.937 -7.325,-18.61 -120.967,47.613 7.326,18.61 120.966,-47.613 z"
             inkscape:connector-curvature="0"
             style="fill:#5377bb;fill-opacity:1" />
          <path
             id="path37"
             d="m 854.042,587.37 c -12.255,-5.332 -24.649,-5.558 -37.118,-0.65 -12.468,4.908 -21.383,13.521 -26.715,25.776 -5.333,12.254 -5.559,24.648 -0.651,37.117 4.908,12.469 13.521,21.384 25.776,26.716 12.254,5.332 24.648,5.558 37.117,0.65 12.469,-4.907 21.384,-13.521 26.716,-25.775 5.332,-12.255 5.558,-24.649 0.651,-37.118 -4.908,-12.469 -13.522,-21.383 -25.776,-26.716 z"
             inkscape:connector-curvature="0"
             style="fill:#597bb8;fill-opacity:1" />
        </g>
      </g>
    </g>
  </g>
  <g
     style="overflow:visible;fill:#999999"
     overflow="visible"
     id="Symbole.__2036_1"
     transform="translate(-8,0)">
    <g
       style="fill:#999999"
       id="Calque.__215">
      <g
         style="fill:#999999"
         id="shape49">
        <path
           inkscape:connector-curvature="0"
           style="fill:#999999;fill-opacity:1"
           d="m 566.824,253.662 c -4.359,-3.378 -9.267,-4.722 -14.773,-4.024 l -3.968,0.503 q -8.235,1.043 -13.303,7.582 c -3.378,4.359 -4.722,9.267 -4.024,14.773 l 44.774,353.324 43.651,-5.531 -44.774,-353.324 c -0.698,-5.506 -3.224,-9.924 -7.583,-13.303 z"
           id="path38" />
        <path
           inkscape:connector-curvature="0"
           style="fill:#999999;fill-opacity:1"
           d="m 611.917,722.059 c 5.506,-0.697 9.924,-3.223 13.303,-7.582 3.378,-4.359 4.722,-9.267 4.024,-14.773 l -10.063,-79.415 -43.651,5.531 10.063,79.415 c 0.698,5.506 3.224,9.924 7.583,13.303 4.359,3.378 9.267,4.722 14.773,4.024 l 3.968,-0.503 z"
           id="path39" />
      </g>
    </g>
  </g>
  <g
     style="overflow:visible;fill:#999999"
     overflow="visible"
     id="Symbole.__2036_2"
     transform="matrix(0.99754167,-0.0700758,0.0700758,0.99754167,-40.37742,55.137649)">
    <g
       style="fill:#999999"
       id="Calque.__216">
      <g
         style="fill:#999999"
         id="shape50">
        <path
           inkscape:connector-curvature="0"
           style="fill:#999999;fill-opacity:1"
           d="m 623.31,255.355 c -4.684,-2.912 -9.705,-3.743 -15.109,-2.482 l -3.896,0.909 q -8.083,1.885 -12.451,8.911 c -2.912,4.685 -3.743,9.705 -2.482,15.11 l 80.919,346.835 42.849,-9.997 -80.918,-346.835 c -1.261,-5.405 -4.228,-9.539 -8.912,-12.451 z"
           id="path40" />
        <path
           inkscape:connector-curvature="0"
           style="fill:#999999;fill-opacity:1"
           d="m 716.395,716.618 c 5.405,-1.261 9.539,-4.227 12.451,-8.911 2.912,-4.685 3.743,-9.705 2.482,-15.11 l -18.188,-77.956 -42.849,9.997 18.187,77.956 c 1.261,5.405 4.228,9.539 8.912,12.451 4.684,2.912 9.705,3.743 15.109,2.482 l 3.896,-0.909 z"
           id="path41" />
      </g>
    </g>
  </g>
  <g
     transform="matrix(0.44870691,-0.97308421,1.894684,0.23044983,-701.69348,1276.3801)"
     style="overflow:visible;fill:#999999"
     overflow="visible"
     id="Symbole.__2036_2-6">
    <g
       style="fill:#999999"
       id="Calque.__216-7">
      <g
         style="fill:#999999"
         id="shape50-5">
        <path
           inkscape:connector-curvature="0"
           style="fill:#999999;fill-opacity:1"
           d="m 623.31,255.355 c -4.684,-2.912 -9.705,-3.743 -15.109,-2.482 l -3.896,0.909 q -8.083,1.885 -12.451,8.911 c -2.912,4.685 -3.743,9.705 -2.482,15.11 l 80.919,346.835 42.849,-9.997 -80.918,-346.835 c -1.261,-5.405 -4.228,-9.539 -8.912,-12.451 z"
           id="path40-3" />
        <path
           inkscape:connector-curvature="0"
           style="fill:#999999;fill-opacity:1"
           d="m 716.395,716.618 c 5.405,-1.261 9.539,-4.227 12.451,-8.911 2.912,-4.685 3.743,-9.705 2.482,-15.11 l -18.188,-77.956 -42.849,9.997 18.187,77.956 c 1.261,5.405 4.228,9.539 8.912,12.451 4.684,2.912 9.705,3.743 15.109,2.482 l 3.896,-0.909 z"
           id="path41-5" />
      </g>
    </g>
  </g>
</svg>
