<?xml version="1.0" encoding="UTF-8" standalone="no"?>
<svg
   xmlns:dc="http://purl.org/dc/elements/1.1/"
   xmlns:cc="http://creativecommons.org/ns#"
   xmlns:rdf="http://www.w3.org/1999/02/22-rdf-syntax-ns#"
   xmlns:svg="http://www.w3.org/2000/svg"
   xmlns="http://www.w3.org/2000/svg"
   xmlns:sodipodi="http://sodipodi.sourceforge.net/DTD/sodipodi-0.dtd"
   xmlns:inkscape="http://www.inkscape.org/namespaces/inkscape"
   viewBox="0 0 129 128"
   id="svg2"
   version="1.1"
   inkscape:version="0.91 r"
   sodipodi:docname="canopy.svg"
   width="129"
   height="128">
  <metadata
     id="metadata24">
    <rdf:RDF>
      <cc:Work
         rdf:about="">
        <dc:format>image/svg+xml</dc:format>
        <dc:type
           rdf:resource="http://purl.org/dc/dcmitype/StillImage" />
        <dc:title></dc:title>
      </cc:Work>
    </rdf:RDF>
  </metadata>
  <sodipodi:namedview
     pagecolor="#ffffff"
     bordercolor="#666666"
     borderopacity="1"
     objecttolerance="10"
     gridtolerance="10"
     guidetolerance="10"
     inkscape:pageopacity="0"
     inkscape:pageshadow="2"
     inkscape:window-width="1366"
     inkscape:window-height="744"
     id="namedview22"
     showgrid="false"
     inkscape:zoom="2.4583333"
     inkscape:cx="128.00756"
     inkscape:cy="37.087842"
     inkscape:window-x="0"
     inkscape:window-y="24"
     inkscape:window-maximized="1"
     inkscape:current-layer="svg2" />
  <defs
     id="defs4">
    <linearGradient
       id="0"
       gradientUnits="userSpaceOnUse"
       x1="3.1470001"
       x2="18.771999">
      <stop
         stop-color="#e6f3ff"
         id="stop7" />
      <stop
         offset="1"
         stop-color="#dcffe7"
         id="stop9" />
    </linearGradient>
    <linearGradient
       id="1"
       x1="409.57001"
       y1="542.79999"
       x2="409.94"
       y2="501.23001"
       gradientUnits="userSpaceOnUse"
       gradientTransform="matrix(6.41335,0,0,6.2627,-2557.31,-3223.66)">
      <stop
         stop-color="#197cf1"
         id="stop12" />
      <stop
         offset="1"
         stop-color="#20bcfa"
         id="stop14" />
    </linearGradient>
    <linearGradient
       gradientUnits="userSpaceOnUse"
       y2="-27.875"
       x2="0"
       y1="22.12"
       id="0-0">
      <stop
         id="stop3357"
         stop-color="#f15f19" />
      <stop
         id="stop3359"
         stop-color="#fbb521"
         offset="1" />
    </linearGradient>
    <linearGradient
       gradientUnits="userSpaceOnUse"
       y2="-19.01"
       x2="66.58"
       y1="17.05"
       x1="66.957"
       id="1-7">
      <stop
         id="stop3362"
         stop-color="#e2e2e2" />
      <stop
         id="stop3364"
         stop-color="#fff"
         offset="1" />
    </linearGradient>
    <linearGradient
       y2="5.141"
       x2="0"
       y1="53.939"
       gradientUnits="userSpaceOnUse"
       id="0-6">
      <stop
         id="stop3409"
         stop-color="#5dae33" />
      <stop
         id="stop3411"
         stop-color="#9be058"
         offset="1" />
    </linearGradient>
    <linearGradient
       gradientUnits="userSpaceOnUse"
       y2="-11.08"
       x2="-22.23"
       y1="20.411"
       x1="-25.286"
       id="3">
      <stop
         id="stop3440"
         stop-color="#d3d3d3" />
      <stop
         id="stop3442"
         stop-color="#fcf9f9"
         offset="1" />
    </linearGradient>
    <linearGradient
       gradientUnits="userSpaceOnUse"
       y2="-10.81"
       x2="-10.279"
       y1="3.24"
       x1="-10.576"
       id="2">
      <stop
         id="stop3445"
         stop-color="#1764d6" />
      <stop
         id="stop3447"
         stop-color="#28c0ff"
         offset="1" />
    </linearGradient>
    <linearGradient
       gradientUnits="userSpaceOnUse"
       y2="-20.22"
       x2="-16.896"
       y1="27.344"
       x1="-16.312"
       id="0-3">
      <stop
         id="stop3450"
         stop-color="#141414" />
      <stop
         id="stop3452"
         stop-color="#2d2d2f"
         offset="1" />
    </linearGradient>
    <linearGradient
       gradientUnits="userSpaceOnUse"
       y2="10.298"
       x2="-13.376"
       y1="20.14"
       x1="-13.05"
       id="1-5">
      <stop
         id="stop3455"
         stop-color="#ff9300" />
      <stop
         id="stop3457"
         stop-color="#ffd702"
         offset="1" />
    </linearGradient>
    <linearGradient
       gradientUnits="userSpaceOnUse"
       y2="-7.344"
       x2="0"
       y1="19.371"
       id="3-7">
      <stop
         id="stop7-6"
         stop-color="#bfc1c1" />
      <stop
         id="stop9-9"
         stop-color="#f1f2f3"
         offset="1" />
    </linearGradient>
    <linearGradient
       gradientTransform="matrix(-0.55046,0,0,-0.55168,244.17,292.89)"
       gradientUnits="userSpaceOnUse"
       y2="533.2"
       x2="409.27"
       y1="506.48"
       x1="408.52"
       id="2-9">
      <stop
         id="stop12-6"
         stop-color="#222c35" />
      <stop
         id="stop14-2"
         stop-color="#545e67"
         offset="1" />
    </linearGradient>
    <linearGradient
       gradientTransform="matrix(.4325 0 0 .43346-157.44-219.19)"
       gradientUnits="userSpaceOnUse"
       y2="531"
       x2="419.77"
       y1="509.53"
       x1="398.3"
       id="0-2">
      <stop
         id="stop17"
         stop-color="#18222a" />
      <stop
         id="stop19"
         stop-color="#566069"
         offset="1" />
    </linearGradient>
    <linearGradient
       gradientUnits="userSpaceOnUse"
       y2="509.98"
       x2="407.51"
       y1="529.56"
       x1="407.38"
       id="1-2"
       gradientTransform="matrix(0.55046,0,0,0.55168,-205.63,-280.64)">
      <stop
         id="stop22"
         stop-color="#08f" />
      <stop
         id="stop24"
         stop-color="#02c3ff"
         offset="1" />
    </linearGradient>
    <linearGradient
       id="0-62"
       x1="-48.953"
       y1="-5.178"
       x2="-49.554"
       y2="-30.891"
       gradientUnits="userSpaceOnUse">
      <stop
         id="stop3572"
         stop-color="#566069" />
      <stop
         id="stop3574"
         stop-color="#6c7884"
         offset="1" />
    </linearGradient>
    <linearGradient
       id="1-8"
       x1="43.691"
       y1="15.429"
       x2="42.36"
       y2="-4.937"
       gradientUnits="userSpaceOnUse">
      <stop
         id="stop3577"
         stop-color="#d5dbff" />
      <stop
         id="stop3579"
         stop-color="#f9ffff"
         offset="1" />
    </linearGradient>
    <linearGradient
       id="2-7"
       x1="-56.27"
       y1="3.509"
       x2="-56.38"
       y2="-26.783"
       gradientUnits="userSpaceOnUse">
      <stop
         id="stop3582"
         stop-color="#ff9300" />
      <stop
         id="stop3584"
         stop-color="#ffd702"
         offset="1" />
    </linearGradient>
  </defs>
  <g
     id="g3586"
     transform="matrix(2.3899499,0,0,2.3899499,-70.783831,77.024508)"
     style="enable-background:new">
    <rect
       style="fill:url(#0-62)"
       id="rect3588"
       rx="1.217"
       width="40.626999"
       height="31.200001"
       x="-76.550003"
       y="-28.459999"
       transform="matrix(-0.99998,-0.00628,-0.00628,0.99998,0,0)" />
    <rect
       style="fill:url(#2-7)"
       id="rect3590"
       rx="1.217"
       transform="matrix(-0.98432,-0.17638,-0.17638,0.98432,0,0)"
       width="40.626999"
       height="31.200001"
       x="-77.260002"
       y="-27.351" />
    <path
       id="path3592"
       d="m 67.797,-4.321 -1.083,-1.124 c -0.135,-0.14 -0.535,0.014 -1.01,0.351 L 65.24,-5.576 c 0.354,-0.457 0.524,-0.851 0.389,-0.991 l -2.652,-2.754 c -1.598,-0.743 -3.349,-1.1 -5.11,-1.044 l -0.889,0.029 c -0.148,0.005 -0.279,0.096 -0.336,0.233 -0.056,0.137 -0.025,0.295 0.077,0.401 0.042,0.044 0.094,0.076 0.151,0.095 l 1,0.336 c 1.137,0.381 2.055,1.231 2.522,2.335 l 0.03,0.071 0.646,0.671 -4.637,4.466 c -0.156,-0.124 -0.392,-0.119 -0.569,0.027 l -6.03,4.458 c -0.531,0.436 -0.879,1.054 -0.959,1.701 -0.081,0.648 0.113,1.265 0.535,1.703 0.422,0.438 1.032,0.655 1.682,0.599 0.65,-0.056 1.279,-0.381 1.736,-0.895 l 4.683,-5.853 c 0.152,-0.172 0.166,-0.407 0.048,-0.568 l 4.637,-4.466 0.877,0.91 c 0.135,0.14 0.535,-0.014 1.01,-0.351 l 0.464,0.482 c -0.354,0.457 -0.524,0.851 -0.389,0.991 l 1.083,1.124 c 0.192,0.199 0.919,-0.189 1.624,-0.868 0.705,-0.679 1.12,-1.39 0.928,-1.59"
       inkscape:connector-curvature="0"
       style="fill-opacity:0.73699999" />
    <path
       style="fill:url(#1-8)"
       id="path3594"
       d="M 43.005,-5.0361 A 10.466615,10.466615 0 0 0 32.683,5.57425 10.466615,10.466615 0 0 0 43.29335,15.893999 10.466615,10.466615 0 0 0 53.61535,5.2859 10.466615,10.466615 0 0 0 43.005,-5.0361 m -3.082,6.091 7.709,4.244 -7.529,4.555 -0.18,-8.799 z"
       inkscape:connector-curvature="0" />
  </g>
</svg>
