<?xml version="1.0" encoding="UTF-8" standalone="no"?>
<svg
   xmlns:dc="http://purl.org/dc/elements/1.1/"
   xmlns:cc="http://creativecommons.org/ns#"
   xmlns:rdf="http://www.w3.org/1999/02/22-rdf-syntax-ns#"
   xmlns:svg="http://www.w3.org/2000/svg"
   xmlns="http://www.w3.org/2000/svg"
   xmlns:xlink="http://www.w3.org/1999/xlink"
   xmlns:sodipodi="http://sodipodi.sourceforge.net/DTD/sodipodi-0.dtd"
   xmlns:inkscape="http://www.inkscape.org/namespaces/inkscape"
   width="256"
   viewBox="0 0 72.248891 72.248891"
   height="256"
   id="svg2"
   version="1.1"
   inkscape:version="0.91 r"
   sodipodi:docname="chrome-fnibmbcdeepaahjmddiihohjanlimlmj-Default.svg">
  <metadata
     id="metadata274">
    <rdf:RDF>
      <cc:Work
         rdf:about="">
        <dc:format>image/svg+xml</dc:format>
        <dc:type
           rdf:resource="http://purl.org/dc/dcmitype/StillImage" />
        <dc:title></dc:title>
      </cc:Work>
    </rdf:RDF>
  </metadata>
  <sodipodi:namedview
     pagecolor="#ffffff"
     bordercolor="#666666"
     borderopacity="1"
     objecttolerance="10"
     gridtolerance="10"
     guidetolerance="10"
     inkscape:pageopacity="0"
     inkscape:pageshadow="2"
     inkscape:window-width="1366"
     inkscape:window-height="744"
     id="namedview272"
     showgrid="false"
     inkscape:zoom="1.6287359"
     inkscape:cx="56.316004"
     inkscape:cy="107.66032"
     inkscape:window-x="0"
     inkscape:window-y="24"
     inkscape:window-maximized="1"
     inkscape:current-layer="svg2"
     showguides="false">
    <sodipodi:guide
       position="8.0000003,8.0000042"
       orientation="-31.999998,0"
       id="guide4578" />
    <sodipodi:guide
       position="8.0000003,40.000002"
       orientation="0,31.999999"
       id="guide4580" />
    <sodipodi:guide
       position="39.999999,40.000002"
       orientation="31.999998,0"
       id="guide4582" />
    <sodipodi:guide
       position="39.999999,8.0000042"
       orientation="0,-31.999999"
       id="guide4584" />
    <inkscape:grid
       type="xygrid"
       id="grid4586" />
  </sodipodi:namedview>
  <defs
     id="defs4">
    <linearGradient
       inkscape:collect="always"
       id="linearGradient4604">
      <stop
         style="stop-color:#fe8318;stop-opacity:1"
         offset="0"
         id="stop4606" />
      <stop
         style="stop-color:#f85606;stop-opacity:1"
         offset="1"
         id="stop4608" />
    </linearGradient>
    <linearGradient
       id="linearGradient4252"
       inkscape:collect="always">
      <stop
         id="stop4254"
         offset="0"
         style="stop-color:#e0e4eb;stop-opacity:1" />
      <stop
         id="stop4256"
         offset="1"
         style="stop-color:#f0f0ef;stop-opacity:1" />
    </linearGradient>
    <linearGradient
       gradientTransform="matrix(1.3614849,0,0,1.3614849,3.554765,-1436.2913)"
       gradientUnits="userSpaceOnUse"
       y2="1024.3622"
       x2="48"
       y1="1024.3622"
       x1="7.0866143e-08"
       id="linearGradient3801"
       xlink:href="#linearGradient4252"
       inkscape:collect="always" />
    <filter
       id="filter3985"
       height="1.3107746"
       width="1.1436011"
       y="-0.15538733"
       x="-0.071800567"
       style="color-interpolation-filters:sRGB">
      <feGaussianBlur
         id="feGaussianBlur3987"
         stdDeviation="6.7803529" />
    </filter>
    <filter
       id="filter3989"
       style="color-interpolation-filters:sRGB">
      <feGaussianBlur
         id="feGaussianBlur3991"
         stdDeviation="6.7803529" />
    </filter>
    <filter
       id="filter3993"
       height="1.1447482"
       width="1.2981865"
       y="-0.072374105"
       x="-0.1490933"
       style="color-interpolation-filters:sRGB">
      <feGaussianBlur
         id="feGaussianBlur3995"
         stdDeviation="6.7803529" />
    </filter>
    <filter
       id="filter3997"
       height="1.2207661"
       width="1.1631417"
       y="-0.11038305"
       x="-0.081570871"
       style="color-interpolation-filters:sRGB">
      <feGaussianBlur
         id="feGaussianBlur3999"
         stdDeviation="6.7803529" />
    </filter>
    <filter
       id="filter4001"
       height="1.257324"
       width="1.149857"
       y="-0.12866202"
       x="-0.07492853"
       style="color-interpolation-filters:sRGB">
      <feGaussianBlur
         id="feGaussianBlur4003"
         stdDeviation="6.7803529" />
    </filter>
    <filter
       id="filter4005"
       height="1.152902"
       width="1.2446516"
       y="-0.076450996"
       x="-0.12232576"
       style="color-interpolation-filters:sRGB">
      <feGaussianBlur
         id="feGaussianBlur4007"
         stdDeviation="6.7803529" />
    </filter>
    <filter
       id="filter4009"
       height="1.1597476"
       width="1.2244866"
       y="-0.079873785"
       x="-0.11224329"
       style="color-interpolation-filters:sRGB">
      <feGaussianBlur
         id="feGaussianBlur4011"
         stdDeviation="6.7803529" />
    </filter>
    <filter
       id="filter3985-9"
       height="1.3107746"
       width="1.1436011"
       y="-0.15538733"
       x="-0.071800567"
       style="color-interpolation-filters:sRGB">
      <feGaussianBlur
         id="feGaussianBlur3987-0"
         stdDeviation="6.7803529" />
    </filter>
    <filter
       id="filter3989-9"
       style="color-interpolation-filters:sRGB">
      <feGaussianBlur
         id="feGaussianBlur3991-1"
         stdDeviation="6.7803529" />
    </filter>
    <filter
       id="filter3993-8"
       height="1.1447482"
       width="1.2981865"
       y="-0.072374105"
       x="-0.1490933"
       style="color-interpolation-filters:sRGB">
      <feGaussianBlur
         id="feGaussianBlur3995-4"
         stdDeviation="6.7803529" />
    </filter>
    <filter
       id="filter3997-0"
       height="1.2207661"
       width="1.1631417"
       y="-0.11038305"
       x="-0.081570871"
       style="color-interpolation-filters:sRGB">
      <feGaussianBlur
         id="feGaussianBlur3999-7"
         stdDeviation="6.7803529" />
    </filter>
    <filter
       id="filter4001-9"
       height="1.257324"
       width="1.149857"
       y="-0.12866202"
       x="-0.07492853"
       style="color-interpolation-filters:sRGB">
      <feGaussianBlur
         id="feGaussianBlur4003-7"
         stdDeviation="6.7803529" />
    </filter>
    <filter
       id="filter4005-7"
       height="1.152902"
       width="1.2446516"
       y="-0.076450996"
       x="-0.12232576"
       style="color-interpolation-filters:sRGB">
      <feGaussianBlur
         id="feGaussianBlur4007-7"
         stdDeviation="6.7803529" />
    </filter>
    <filter
       id="filter4009-8"
       height="1.1597476"
       width="1.2244866"
       y="-0.079873785"
       x="-0.11224329"
       style="color-interpolation-filters:sRGB">
      <feGaussianBlur
         id="feGaussianBlur4011-6"
         stdDeviation="6.7803529" />
    </filter>
    <linearGradient
       inkscape:collect="always"
       xlink:href="#linearGradient4604"
       id="linearGradient4610"
       x1="2.54"
       y1="6.4911113"
       x2="11.288889"
       y2="6.4911113"
       gradientUnits="userSpaceOnUse"
       gradientTransform="matrix(4.824159,0,0,4.824159,3.554765,3.516142)" />
  </defs>
  <rect
     style="fill:url(#linearGradient3801);fill-opacity:1;stroke:none"
     id="rect2991"
     width="65.351273"
     height="65.351273"
     x="3.5547647"
     y="-68.867401"
     ry="9.8026905"
     transform="scale(1,-1)" />
  <path
     style="display:none;fill:#dbdbdb;fill-opacity:1;fill-rule:nonzero;stroke:none;stroke-width:25;marker-mid:none;filter:url(#filter3985);enable-background:new"
     id="path3095"
     transform="matrix(0.02505593,0,0,0.02506603,-51.194986,59.962945)"
     inkscape:connector-curvature="0"
     d="m 324.38759,135.62452 c -45.38059,3.2742 -125.14974,80.45343 -113.93317,80.06244 92.77726,-3.23392 150.72813,2.10512 223.11793,24.5811 10.71863,3.32799 -11.56647,-97.10992 -109.18476,-104.64354 z" />
  <path
     style="display:none;fill:#dbdbdb;fill-opacity:1;fill-rule:nonzero;stroke:#000000;stroke-width:0;stroke-linecap:butt;stroke-linejoin:round;stroke-miterlimit:4;stroke-dasharray:none;stroke-dashoffset:1;stroke-opacity:1;marker-mid:none;filter:url(#filter3989);enable-background:new"
     id="path3097"
     transform="matrix(0.02505593,0,0,0.02506603,-51.194986,59.962945)"
     inkscape:connector-curvature="0"
     d="M 186.37822,72.150309 C 160.57833,109.62675 157.33905,256.29261 163.99898,247.2588 218.88951,172.80293 350.45207,80.852043 428.9148,43.825512 525.90264,-1.943011 243.81268,3.6410539 186.37822,72.150309 Z" />
  <path
     style="display:none;fill:#dbdbdb;fill-opacity:1;fill-rule:nonzero;stroke:none;stroke-width:25;marker-mid:none;filter:url(#filter3993);enable-background:new"
     id="path3099"
     transform="matrix(0.02505593,0,0,0.02506603,-51.194986,59.962945)"
     inkscape:connector-curvature="0"
     d="M 69.5521,231.67976 C 84.41923,274.68075 179.56014,331.84683 176.28962,321.11052 149.23774,232.30583 139.45061,174.93843 142.49683,99.2009 142.94789,87.986573 51.65499,135.42084 69.5521,231.67976 Z" />
  <path
     style="display:none;fill:#dbdbdb;fill-opacity:1;fill-rule:nonzero;stroke:none;stroke-width:25;marker-mid:none;filter:url(#filter3997);enable-background:new"
     id="path3101"
     transform="matrix(0.02505593,0,0,0.02506603,-51.194986,59.962945)"
     inkscape:connector-curvature="0"
     d="m 81.97729,372.8505 c 42.13653,17.1648 147.83895,-16.69886 137.60948,-21.31646 -84.61255,-38.1942 -134.204,-68.649 -189.1504,-120.86343 -8.1358,-7.73129 -32.64264,92.18775 51.54092,142.17989 z" />
  <path
     style="display:none;fill:#dbdbdb;fill-opacity:1;fill-rule:nonzero;stroke:none;stroke-width:25;marker-mid:none;filter:url(#filter4001);enable-background:new"
     id="path3103"
     transform="matrix(0.02505593,0,0,0.02506603,-51.194986,59.962945)"
     inkscape:connector-curvature="0"
     d="m 203.88504,453.62703 c 40.28664,-21.14484 82.54559,-123.77977 72.42084,-118.93689 -83.74641,40.05772 -138.99861,58.33341 -214.33707,66.67436 -11.15521,1.23503 49.42757,84.38627 141.91623,52.26253 z" />
  <path
     style="display:none;fill:#dbdbdb;fill-opacity:1;fill-rule:nonzero;stroke:none;stroke-width:25;marker-mid:none;filter:url(#filter4005);enable-background:new"
     id="path3105"
     transform="matrix(0.02505593,0,0,0.02506603,-51.194986,59.962945)"
     inkscape:connector-curvature="0"
     d="m 345.96158,410.03296 c 9.84126,-44.42146 -41.30053,-142.93171 -44.13379,-132.07183 -23.43513,89.82691 -45.12493,143.83025 -87.36533,206.76832 -6.25446,9.31914 96.3617,16.68976 131.49912,-74.69649 z" />
  <path
     style="display:none;fill:#dbdbdb;fill-opacity:1;fill-rule:nonzero;stroke:none;stroke-width:25;marker-mid:none;filter:url(#filter4009);enable-background:new"
     id="path3107"
     transform="matrix(0.02505593,0,0,0.02506603,-51.194986,59.962945)"
     inkscape:connector-curvature="0"
     d="M 401.89383,270.24178 C 374.5208,233.89852 266.4087,208.76833 272.82303,217.97814 c 53.05584,76.17847 80.01415,127.7542 100.41172,200.75689 3.02024,10.80938 75.29683,-62.40604 28.65908,-148.49325 z" />
  <path
     style="display:none;fill:#dbdbdb;fill-opacity:1;fill-rule:nonzero;stroke:none;stroke-width:25;marker-mid:none;filter:url(#filter3985-9);enable-background:new"
     id="path3095-7"
     transform="matrix(0.02505593,0,0,0.02506603,-118.68138,53.542395)"
     inkscape:connector-curvature="0"
     d="m 324.38759,135.62452 c -45.38059,3.2742 -125.14974,80.45343 -113.93317,80.06244 92.77726,-3.23392 150.72813,2.10512 223.11793,24.5811 10.71863,3.32799 -11.56647,-97.10992 -109.18476,-104.64354 z" />
  <path
     style="display:none;fill:#dbdbdb;fill-opacity:1;fill-rule:nonzero;stroke:#000000;stroke-width:0;stroke-linecap:butt;stroke-linejoin:round;stroke-miterlimit:4;stroke-dasharray:none;stroke-dashoffset:1;stroke-opacity:1;marker-mid:none;filter:url(#filter3989-9);enable-background:new"
     id="path3097-4"
     transform="matrix(0.02505593,0,0,0.02506603,-118.68138,53.542395)"
     inkscape:connector-curvature="0"
     d="M 186.37822,72.150309 C 160.57833,109.62675 157.33905,256.29261 163.99898,247.2588 218.88951,172.80293 350.45207,80.852043 428.9148,43.825512 525.90264,-1.943011 243.81268,3.6410539 186.37822,72.150309 Z" />
  <path
     style="display:none;fill:#dbdbdb;fill-opacity:1;fill-rule:nonzero;stroke:none;stroke-width:25;marker-mid:none;filter:url(#filter3993-8);enable-background:new"
     id="path3099-9"
     transform="matrix(0.02505593,0,0,0.02506603,-118.68138,53.542395)"
     inkscape:connector-curvature="0"
     d="M 69.5521,231.67976 C 84.41923,274.68075 179.56014,331.84683 176.28962,321.11052 149.23774,232.30583 139.45061,174.93843 142.49683,99.2009 142.94789,87.986573 51.65499,135.42084 69.5521,231.67976 Z" />
  <path
     style="display:none;fill:#dbdbdb;fill-opacity:1;fill-rule:nonzero;stroke:none;stroke-width:25;marker-mid:none;filter:url(#filter3997-0);enable-background:new"
     id="path3101-4"
     transform="matrix(0.02505593,0,0,0.02506603,-118.68138,53.542395)"
     inkscape:connector-curvature="0"
     d="m 81.97729,372.8505 c 42.13653,17.1648 147.83895,-16.69886 137.60948,-21.31646 -84.61255,-38.1942 -134.204,-68.649 -189.1504,-120.86343 -8.1358,-7.73129 -32.64264,92.18775 51.54092,142.17989 z" />
  <path
     style="display:none;fill:#dbdbdb;fill-opacity:1;fill-rule:nonzero;stroke:none;stroke-width:25;marker-mid:none;filter:url(#filter4001-9);enable-background:new"
     id="path3103-3"
     transform="matrix(0.02505593,0,0,0.02506603,-118.68138,53.542395)"
     inkscape:connector-curvature="0"
     d="m 203.88504,453.62703 c 40.28664,-21.14484 82.54559,-123.77977 72.42084,-118.93689 -83.74641,40.05772 -138.99861,58.33341 -214.33707,66.67436 -11.15521,1.23503 49.42757,84.38627 141.91623,52.26253 z" />
  <path
     style="display:none;fill:#dbdbdb;fill-opacity:1;fill-rule:nonzero;stroke:none;stroke-width:25;marker-mid:none;filter:url(#filter4005-7);enable-background:new"
     id="path3105-1"
     transform="matrix(0.02505593,0,0,0.02506603,-118.68138,53.542395)"
     inkscape:connector-curvature="0"
     d="m 345.96158,410.03296 c 9.84126,-44.42146 -41.30053,-142.93171 -44.13379,-132.07183 -23.43513,89.82691 -45.12493,143.83025 -87.36533,206.76832 -6.25446,9.31914 96.3617,16.68976 131.49912,-74.69649 z" />
  <path
     style="display:none;fill:#dbdbdb;fill-opacity:1;fill-rule:nonzero;stroke:none;stroke-width:25;marker-mid:none;filter:url(#filter4009-8);enable-background:new"
     id="path3107-0"
     transform="matrix(0.02505593,0,0,0.02506603,-118.68138,53.542395)"
     inkscape:connector-curvature="0"
     d="M 401.89383,270.24178 C 374.5208,233.89852 266.4087,208.76833 272.82303,217.97814 c 53.05584,76.17847 80.01415,127.7542 100.41172,200.75689 3.02024,10.80938 75.29683,-62.40604 28.65908,-148.49325 z" />
  <path
     style="fill:url(#linearGradient4610);fill-opacity:1;stroke:none"
     d="m 17.65975,21.814503 c -1.327502,0 -2.396213,1.068711 -2.396213,2.396208 0,1.327502 1.068711,2.396213 2.396213,2.396213 l 7.272882,0 c -0.04944,0.192426 -0.08424,0.390757 -0.08424,0.599057 l 0,20.966866 c 0,1.327503 1.068711,2.396214 2.396214,2.396214 1.327501,0 2.396213,-1.068711 2.396213,-2.396214 l 0,-20.966866 c 0,-0.208288 -0.03479,-0.406619 -0.08424,-0.599057 l 7.272882,0 c 1.327502,0 2.396213,-1.068711 2.396213,-2.396213 0,-1.327497 -1.068711,-2.396208 -2.396213,-2.396208 l -19.169707,0 z m 22.764028,0 0,4.193371 0.599054,0 c 5.641884,0 10.183909,4.542024 10.183909,10.183905 0,5.641886 -4.542025,10.183911 -10.183909,10.183911 l -6.589588,0 0,4.193371 8.386748,0 c 7.965015,0 14.377283,-6.412268 14.377283,-14.377282 0,-7.965014 -6.412268,-14.377276 -14.377283,-14.377276 l -2.396214,0 z"
     id="rect4588"
     inkscape:connector-curvature="0" />
</svg>
