<?xml version="1.0" encoding="UTF-8" standalone="no"?>
<svg
   xmlns:dc="http://purl.org/dc/elements/1.1/"
   xmlns:cc="http://creativecommons.org/ns#"
   xmlns:rdf="http://www.w3.org/1999/02/22-rdf-syntax-ns#"
   xmlns:svg="http://www.w3.org/2000/svg"
   xmlns="http://www.w3.org/2000/svg"
   xmlns:xlink="http://www.w3.org/1999/xlink"
   xmlns:sodipodi="http://sodipodi.sourceforge.net/DTD/sodipodi-0.dtd"
   xmlns:inkscape="http://www.inkscape.org/namespaces/inkscape"
   width="256"
   viewBox="0 0 72.248891 72.248891"
   height="256"
   id="svg2"
   version="1.1"
   inkscape:version="0.91 r"
   sodipodi:docname="chrome-fhbjgbiflinjbdggehcddcbncdddomop-Default.svg">
  <metadata
     id="metadata22">
    <rdf:RDF>
      <cc:Work
         rdf:about="">
        <dc:format>image/svg+xml</dc:format>
        <dc:type
           rdf:resource="http://purl.org/dc/dcmitype/StillImage" />
        <dc:title></dc:title>
      </cc:Work>
    </rdf:RDF>
  </metadata>
  <sodipodi:namedview
     pagecolor="#ffffff"
     bordercolor="#666666"
     borderopacity="1"
     objecttolerance="10"
     gridtolerance="10"
     guidetolerance="10"
     inkscape:pageopacity="0"
     inkscape:pageshadow="2"
     inkscape:window-width="1366"
     inkscape:window-height="744"
     id="namedview20"
     showgrid="false"
     inkscape:showpageshadow="false"
     borderlayer="true"
     inkscape:zoom="1.6287359"
     inkscape:cx="188.62557"
     inkscape:cy="101.89857"
     inkscape:window-x="0"
     inkscape:window-y="24"
     inkscape:window-maximized="1"
     inkscape:current-layer="svg2"
     inkscape:object-nodes="true">
    <inkscape:grid
       type="xygrid"
       id="grid4161" />
  </sodipodi:namedview>
  <defs
     id="defs4">
    <linearGradient
       inkscape:collect="always"
       id="linearGradient4153">
      <stop
         style="stop-color:#000000;stop-opacity:1;"
         offset="0"
         id="stop4155" />
      <stop
         id="stop4165"
         offset="0.0255456"
         style="stop-color:#216778;stop-opacity:1" />
      <stop
         style="stop-color:#164450;stop-opacity:1"
         offset="0.04212232"
         id="stop4167" />
      <stop
         id="stop4163"
         offset="0.50103348"
         style="stop-color:#5fbcd3;stop-opacity:1" />
      <stop
         id="stop4161"
         offset="0.95171535"
         style="stop-color:#afdde9;stop-opacity:1" />
      <stop
         style="stop-color:#000000;stop-opacity:0;"
         offset="1"
         id="stop4157" />
    </linearGradient>
    <linearGradient
       id="linearGradient3373">
      <stop
         style="stop-color:#638fa8;stop-opacity:1"
         offset="0"
         id="stop3375" />
      <stop
         style="stop-color:#cae6f6;stop-opacity:1"
         offset="1"
         id="stop3377" />
    </linearGradient>
    <linearGradient
       id="linearGradient980">
      <stop
         id="stop982"
         offset="0"
         style="stop-color:#1b8737;stop-opacity:1" />
      <stop
         id="stop984"
         offset="1"
         style="stop-color:#2db329;stop-opacity:1" />
    </linearGradient>
    <linearGradient
       gradientTransform="matrix(4.9568242,0,0,4.9568242,8.541407,20.51406)"
       inkscape:collect="always"
       xlink:href="#linearGradient4153"
       id="linearGradient4159-5"
       x1="-1.6933334"
       y1="-4.2333336"
       x2="12.982223"
       y2="10.724444"
       gradientUnits="userSpaceOnUse" />
  </defs>
  <path
     style="opacity:1;fill:#e18f31;fill-opacity:1;fill-rule:nonzero;stroke:none;stroke-width:13.80000019;stroke-miterlimit:4;stroke-dasharray:none;stroke-opacity:1"
     d=""
     id="path3364"
     inkscape:connector-curvature="0" />
  <g
     id="g4315"
     transform="translate(0.34655376,-0.17327688)">
    <rect
       ry="7.2338457"
       y="3.7269485"
       x="2.9457071"
       height="65.749519"
       width="65.749519"
       id="rect3351-4"
       style="opacity:1;fill:url(#linearGradient4159-5);fill-opacity:1;fill-rule:nonzero;stroke:none;stroke-width:0.56444442;stroke-miterlimit:4;stroke-dasharray:none;stroke-opacity:1" />
    <path
       inkscape:connector-curvature="0"
       id="rect3351"
       d="m 15.132002,3.7107141 c -0.0692,0.1581971 -0.150885,0.3079675 -0.218595,0.4398984 -0.09606,0.1867483 -0.07653,0.3397556 -0.183056,0.4125763 -0.423015,0.2850421 -1.146174,-0.2352261 -1.683082,-0.3196755 -0.303804,-0.045702 -0.544141,0.073549 -0.819685,0.090165 -0.282936,0.015267 -0.562868,-0.1342853 -0.819681,0 C 11.175527,4.2630778 11.21776,3.9588676 10.998073,3.9238378 10.832763,3.8947412 10.6506,4.0865505 10.498068,4.1068982 10.351247,4.1290552 10.202542,4.063179 10.041793,4.063179 9.7461676,4.0770086 9.4611155,4.2285585 9.1319428,4.2954211 8.7700946,4.3674091 8.3838588,4.3115804 8.0390324,4.3336878 7.6427839,4.3648167 7.2444829,4.5287438 6.8586933,4.5577363 4.551822,5.7639869 2.9679332,8.1524967 2.9679332,10.9458 l 0,17.74614 c 0.1883594,0.285042 0.3332473,0.602846 0.2896273,1.005478 -0.023297,0.22219 -0.2392659,0.452295 -0.229501,0.683069 0.00892,0.199487 0.2800606,0.392377 0.502741,0.546456 0.2346064,0.162945 0.4017506,0.364401 0.5901694,0.453559 0.132595,0.06367 0.3848478,0.06874 0.5464551,0.139346 0.2107146,0.09552 0.3980826,0.332256 0.639356,0.456291 0.2985991,0.152145 0.6846068,0.23876 1.0464599,0.407109 0.3485144,0.16128 0.8151448,0.411049 1.0929056,0.412571 0.2792675,0 0.5579056,-0.308002 0.8661358,-0.322407 0.7230718,-0.02221 1.0554913,0.939639 1.6393655,1.229525 0.1466232,0.07199 0.3573372,0.04719 0.5464552,0.0929 0.153364,0.03321 0.263108,0.135297 0.40983,0.183061 0.312032,0.106596 0.657701,0.07491 0.907119,0.185796 0.376025,0.167095 0.682232,0.857498 1.005477,1.046462 0.01586,0.190491 -0.06335,0.447304 0,0.590172 0.15262,0.207379 0.384996,0.182664 0.63662,0.316944 0.300829,0.162664 0.397785,0.557886 0.68307,0.685801 0.09746,0.04293 0.344405,0.04303 0.500007,0.0929 0.390945,0.116292 0.528308,0.598852 0.8634,0.500007 0.219686,-0.06507 0.191779,-0.289999 0.226774,-0.500007 0.145235,-0.157959 0.276393,-0.40984 0.502741,-0.40984 0.366409,-0.01799 0.413151,0.371003 0.546455,0.726785 0.07519,0.201287 0.265637,0.380685 0.31694,0.592905 0.09012,0.36617 0.0752,1.466391 0,1.685814 -0.09235,0.268566 -0.456078,0.385017 -0.680339,0.683069 -0.104936,0.139817 -0.146276,0.312112 -0.226775,0.40984 -0.143649,0.175541 -0.392035,0.244441 -0.500005,0.407109 -0.06107,0.09276 -0.126994,0.288671 -0.185782,0.412572 -0.177999,0.375439 -0.422073,0.642298 -0.27322,1.09291 0.06117,0.185366 0.365368,0.281692 0.366111,0.500008 6.35e-4,0.257075 -0.55049,0.491796 -0.592905,0.773235 -0.03222,0.208489 0.160551,0.590817 0.226774,0.863399 0.04992,0.205996 0.47422,0.322109 0.595637,0.459022 0.206997,0.23243 0.357338,0.568841 0.546455,0.860668 0.373795,0.574372 0.682387,1.266186 1.04646,1.822428 0.191433,0.291551 0.464802,0.563812 0.592906,0.866133 0.06548,0.152278 0.02627,0.316527 0.08744,0.453559 0.210814,0.475672 1.15904,0.995945 1.639366,1.232257 0.224891,0.109368 0.476797,0.158088 0.68307,0.273226 0.312676,0.174182 0.935095,0.635608 1.09291,0.909849 0.141518,0.246156 0.204816,0.837742 0.27322,1.22952 0.09086,0.517641 0.0233,0.895782 0.04659,1.456305 0.01338,0.303209 0.08922,0.652288 0.09289,0.956295 0.0014,0.106622 -0.04015,0.164765 -0.04362,0.27322 -0.01338,0.367698 0.075,0.766583 0.04362,1.136625 -0.01735,0.20204 -0.05859,0.378106 -0.04362,0.546455 0.01537,0.183303 0.116982,0.340137 0.131158,0.50001 0.01487,0.172894 -0.05785,0.41211 -0.04362,0.546455 0.04015,0.372158 0.336866,0.662321 0.40983,1.002746 0.05809,0.271088 0.08412,0.812131 0.04907,1.136624 -0.01785,0.170416 -0.116089,0.364575 -0.142063,0.551923 -0.01933,0.147267 0.02082,0.266082 0,0.404378 -0.02974,0.206253 -0.192126,0.400759 -0.180329,0.592905 0.02627,0.397537 0.483935,0.695051 0.546455,1.092915 0.02181,0.13433 -0.05239,0.280011 -0.04659,0.409831 0.01091,0.24566 0.130959,0.458109 0.183055,0.685801 0.07966,0.344995 0.0069,0.795605 0.363385,0.953564 0.369383,-0.112123 -0.08085,-0.496892 0.13661,-0.680339 0.423016,0.130166 0.28472,0.801925 0.409831,1.226794 -0.166798,0.106622 -0.350497,-0.113412 -0.456276,0.09289 -0.0916,0.178842 0.129918,0.332653 0.13661,0.456276 0.01289,0.214333 -0.129621,0.486116 -0.09016,0.63662 0.06484,0.249328 0.520655,0.200553 0.592906,0.40983 0.07743,0.222611 -0.185237,0.403337 -0.183056,0.639351 0.0024,0.239613 0.34792,0.671957 0.592906,0.997288 0.113214,0.149002 0.268065,0.233367 0.363385,0.368837 0.06226,0.08689 0.109992,0.213788 0.163922,0.325119 l 2.838838,0 c -0.147119,-0.149796 -0.270891,-0.302714 -0.270494,-0.456276 0,-0.231434 0.270494,-0.296369 0.319665,-0.505467 0.03668,-0.153959 -0.06325,-0.177207 0,-0.363385 0.117626,-0.347721 0.421628,-0.370721 0.40983,-0.726789 -0.02082,-0.586809 -1.11408,-0.35486 -1.13936,-0.959032 -0.01735,-0.403386 0.559942,-0.394216 0.636624,-0.773235 0.03569,-0.17562 -0.03569,-0.219389 -0.04362,-0.500005 0.06632,-0.288536 0.349556,-0.343161 0.409831,-0.636619 -0.12288,-0.210665 -0.407501,-0.07311 -0.592901,-0.183056 -0.180131,-0.105233 -0.252798,-0.320855 -0.226775,-0.543724 0.307571,-0.13433 0.916299,0.289528 1.136625,-0.142062 0.109546,-0.203528 -0.151877,-0.701951 0,-0.907114 0.103548,-0.138444 0.694372,-0.149845 0.912581,-0.185782 0.312776,-0.05413 0.689593,-0.109595 0.866131,-0.226775 0.19282,-0.128728 0.440513,-0.500153 0.407104,-0.863399 -0.01636,-0.173737 -0.140675,-0.209872 -0.273221,-0.363385 -0.110933,-0.130166 -0.146275,-0.290222 -0.226774,-0.412556 -0.137701,-0.207096 -0.348713,-0.161642 -0.40983,-0.456276 0.423015,-0.08169 1.073697,0.314015 1.685815,0.142063 0.290371,-0.0803 0.682193,-0.689182 0.81695,-0.961763 0.04312,-0.08303 0.04263,-0.209327 0.09016,-0.314213 0.0514,-0.112124 0.166054,-0.213441 0.183056,-0.27322 0.0456,-0.161295 0.0074,-0.261473 0.04362,-0.363385 0.107265,-0.299541 0.418356,-0.418406 0.595637,-0.639356 0.133982,-0.167045 0.192324,-0.379742 0.319665,-0.546455 0.138593,-0.181767 0.269057,-0.340138 0.360659,-0.500005 0.08719,-0.538197 -0.213292,-0.894627 -0.08744,-1.36614 0.141518,-0.529236 0.850398,-0.853977 1.363405,-1.092911 0.176562,-0.0803 0.358973,-0.223652 0.50274,-0.27322 0.355058,-0.127341 0.811899,-0.06488 1.136625,-0.183055 0.552567,-0.201446 0.590923,-0.772754 0.863399,-1.275976 0.129572,-0.238523 0.297013,-0.467181 0.322392,-0.636615 0.0233,-0.152373 -0.02627,-0.319567 0,-0.500004 0.02627,-0.176958 0.181073,-0.306827 0.229501,-0.502741 0.06399,-0.255425 0.08744,-0.669078 0.08744,-0.953563 0,-0.233685 -0.126102,-0.428642 -0.13661,-0.639353 -0.03767,-0.764965 0.263504,-0.859559 0.546455,-1.275973 0.140823,-0.206962 0.223404,-0.441906 0.322392,-0.590172 0.475161,-0.708752 1.283723,-1.024016 1.224063,-2.095657 -0.01933,-0.354398 -0.238622,-1.162455 -0.50001,-1.275972 -0.148903,-0.06645 -0.467181,-0.01675 -0.683065,-0.09016 -0.697057,-0.259842 -1.141185,-1.127839 -1.863414,-1.183075 -0.154207,-0.01517 -0.285464,0.04099 -0.459002,0.04099 -0.28591,0 -0.729987,-0.190089 -1.046465,-0.226779 -0.201099,-0.02354 -0.469461,0.06091 -0.59017,0 -0.184691,-0.08859 -0.167292,-0.398117 -0.316939,-0.500007 -0.119856,-0.0803 -0.366309,-0.113427 -0.546455,-0.183061 -0.29047,-0.11075 -0.533776,-0.249834 -0.868867,-0.27323 -0.103449,0 -0.243529,0.01938 -0.363385,0 -0.185435,-0.03043 -0.328736,-0.212018 -0.500009,-0.316944 -0.213739,-0.132893 -0.411466,-0.226512 -0.500005,-0.412572 0.193564,-0.635416 -0.328737,-0.81594 -0.459002,-1.183076 -0.06102,-0.172076 -0.03371,-0.346759 -0.08744,-0.500006 -0.07668,-0.219845 -0.308165,-0.362885 -0.546455,-0.546456 -0.426683,-0.328097 -0.802693,-0.607482 -1.412591,-0.68307 -0.268015,-0.03321 -0.495801,0.06451 -0.81968,0.04099 -0.34326,-0.02355 -0.789642,-0.340534 -1.046465,-0.633888 -0.249526,-0.286703 -0.37543,-0.548888 -0.5929,-0.685801 -0.206254,-0.132903 -0.49594,-0.138251 -0.636625,-0.27323 -0.06251,-0.06091 -0.0233,-0.133161 -0.09017,-0.270494 -0.103449,-0.21416 -0.268313,-0.335686 -0.139336,-0.592904 -0.23535,-0.117675 -0.242984,0.225461 -0.500005,0.180329 -0.229302,-0.32547 -0.433028,-0.45808 -0.953564,-0.36339 -0.23758,0.04154 -0.3616,0.302272 -0.639351,0.316944 -0.227816,0 -0.428716,-0.229758 -0.72952,-0.273225 -0.227122,-0.03182 -0.475013,0.03182 -0.63662,0 -0.251658,-0.04709 -0.360114,-0.25593 -0.590175,-0.407109 -0.168284,-0.109367 -0.451913,-0.27323 -0.546455,-0.27323 -0.296269,0.01383 -0.550212,0.623766 -0.959026,0.407109 -0.199463,-0.251682 0.325514,-0.398682 0.09016,-0.633888 -0.178743,-0.178719 -0.307918,0.08051 -0.450823,0.180329 -0.163079,0.11075 -0.321846,0.252808 -0.502736,0.319675 -0.405121,0.150767 -0.642444,0.06398 -0.959031,0.22678 -0.293296,0.150762 -0.333942,0.378825 -0.500005,0.680337 -0.136263,0.24739 -0.429856,0.62755 -0.633889,0.642086 -0.247197,0.02077 -0.505383,-0.359801 -0.72952,-0.45629 -0.675368,-0.292245 -0.991117,0.258409 -1.551932,0.273225 -0.520512,0 -1.250188,-0.830176 -1.224061,-1.31969 0.01636,-0.29847 0.144591,-0.770286 0.180329,-1.139359 0.02875,-0.29335 0.267674,-0.461089 0.270499,-0.729518 0.0046,-0.357858 -0.497132,-0.640431 -0.729518,-0.68307 -0.550976,-0.102437 -1.322109,0.251262 -1.953578,0 -0.120699,-0.199353 0.159114,-0.351949 0.226774,-0.546455 0.03817,-0.109367 3.32e-4,-0.242126 0.04659,-0.363395 0.07004,-0.18647 0.272675,-0.347656 0.360659,-0.546455 0.06622,-0.150762 0.07242,-0.358041 0.139336,-0.546455 0.07668,-0.214576 0.210368,-0.349665 0.226775,-0.500007 0.02181,-0.199765 -0.02478,-0.459349 -0.180329,-0.590172 -0.489933,0.02632 -0.814407,0.05326 -1.092911,0.180329 -0.638136,0.29044 -0.501858,1.161806 -1.13936,1.366139 -0.22043,0.0706 -0.5304847,0.09509 -0.7732303,0.136615 -0.2092275,0.03738 -0.4671806,0.136615 -0.6830702,0.136615 -0.2554747,0 -0.7142436,-0.246622 -0.8661356,-0.40984 -0.1355196,-0.145775 -0.4627691,-0.874553 -0.500005,-1.002746 -0.2510135,-0.86883 0.032715,-1.671986 0.3633848,-2.275986 0.07004,-0.130127 0.1746289,-0.275555 0.2267747,-0.409841 0.078913,-0.204474 0.031228,-0.508573 0.092891,-0.729518 0.1130652,-0.411297 0.6658849,-0.621855 1.0464599,-0.819683 0.4311446,-0.224405 0.7739734,-0.600525 1.2759757,-0.633888 0.250171,-0.0166 0.622974,0.08267 0.863399,0.133884 0.222017,0.04293 0.400809,0.168527 0.592906,0.18306 0.545052,0.04154 0.694684,-0.39892 1.139356,-0.636621 0.459398,0.06645 0.724514,-0.0457 1.139363,0 0.282936,0.03182 0.503618,0.348678 0.724053,0.366126 0.185435,0.01383 0.367053,-0.21348 0.546455,-0.185796 0.174233,0.0291 0.471642,0.423565 0.50001,0.636621 0.03519,0.265249 -0.209822,0.484693 -0.133884,0.775966 0.277781,0.282965 0.786212,0.336653 1.183075,0.500007 0.2584,-0.213188 0.03519,-0.601687 0,-0.909849 -0.01487,-0.137051 0.01388,-0.240703 0,-0.366125 -0.0233,-0.212083 -0.13314,-0.408542 -0.133883,-0.590172 -0.0043,-0.839204 0.713044,-1.217922 1.27597,-1.549202 0.24348,-0.144392 0.422421,-0.395069 0.633889,-0.500006 0.298599,-0.14868 0.526043,-0.179853 0.773235,-0.319675 0.446808,-0.251123 0.833807,-0.488743 1.183075,-0.773235 0.161543,-0.380292 -0.01933,-0.900117 0,-1.275973 0.161642,-0.09967 0.331512,0.06171 0.502741,0.04372 0.269601,-0.05952 0.25711,-0.440761 0.40983,-0.592904 0.08779,-0.08583 0.348812,-0.139981 0.459002,-0.22678 0.268858,-0.210566 0.352827,-0.546222 0.587443,-0.63662 0.08407,-0.03321 0.277285,-0.01333 0.40983,-0.04099 0.17567,-0.04565 0.445073,-0.2658 0.729521,-0.363395 0.184691,-0.06367 0.568582,-0.06602 0.639351,-0.136615 0.08704,-0.08998 0.01537,-0.326397 0.04362,-0.459021 0.143004,-0.665882 1.136773,-0.822333 1.72953,-1.046463 0.415481,-0.157959 0.863171,-0.452127 1.319695,-0.363395 -0.08942,0.316464 -0.525691,0.206006 -0.453549,0.590172 0.100623,0.533258 0.81163,-0.147733 1.000014,-0.226779 0.359717,-0.150896 0.986963,-0.236416 1.459031,-0.407109 0.413994,-0.148819 1.163441,-0.392541 0.77324,-0.866132 -0.325465,-0.02077 -0.489536,0.376421 -0.77324,0.497274 -0.195893,0.03048 -0.152967,-0.162088 -0.319665,-0.177598 -0.157925,-0.01383 -0.246751,0.163744 -0.40983,0.136615 -0.162287,-0.0291 -0.384452,-0.266494 -0.409831,-0.45629 -0.06474,-0.492297 0.388962,-0.728647 0.592901,-1.095643 -0.134727,-0.445495 -0.720584,-0.09703 -1.09291,-0.270494 0.03569,-0.264967 0.280358,-0.449198 0.590174,-0.500007 0.253839,-0.04154 0.851592,0.01487 1.002746,0.136615 0.08863,0.07337 -6.6e-4,0.242359 0.13661,0.366126 0.15039,0.137051 0.304944,0.124733 0.500004,0.0929 0.07073,-0.335156 -0.418504,-0.233685 -0.363384,-0.456291 0.39833,-0.260674 1.061479,-0.06875 1.549206,-0.139346 0.280704,-0.04154 0.570897,-0.220837 0.81968,-0.360659 0.236738,-0.134285 0.522236,-0.362329 0.773235,-0.142077 0.06855,0.240327 -0.188409,0.293236 -0.322392,0.412571 -0.45122,0.401463 -0.919764,0.902616 -1.270509,1.368871 0.215226,0.210144 0.589486,0.09508 0.953564,0.136615 0.142261,0.02072 0.305787,0.06521 0.456276,0.0929 0.17567,0.03182 0.365021,0.01333 0.502736,0.04099 0.24804,0.0623 0.342368,0.319675 0.587438,0.319675 0.403535,-9.68e-4 0.414391,-0.413082 0.185782,-0.685801 0.07227,-0.278256 0.185732,-0.44142 0.08744,-0.636621 -0.181717,-0.362701 -0.872847,0.01631 -0.907113,-0.453559 -0.02181,-0.294455 0.256862,-0.282495 0.363385,-0.502739 -0.04858,-0.568176 0.467577,-0.629774 0.412556,-1.139361 -0.0228,-0.213188 -0.219191,-0.210213 -0.368837,-0.40984 -0.07743,-0.103835 -0.09011,-0.285042 -0.183056,-0.363394 C 33.179204,11.365244 32.528204,11.394221 32.49024,10.896678 32.47636,10.603194 32.5749,10.354556 32.53386,10.03601 32.495705,9.7387732 32.293764,8.9043518 32.033868,8.8474539 31.704685,8.7768539 31.382051,9.3460901 30.987403,9.5332553 30.772872,9.635693 30.426687,9.7572889 30.211437,9.7163158 30.071506,9.6886567 29.825895,9.4865372 29.804333,9.216309 29.780541,8.9063489 30.020253,8.9046685 30.077553,8.5742238 30.028481,8.3783351 29.812611,8.4040214 29.621278,8.2572795 29.404565,8.0928171 29.226467,7.7515283 28.938213,7.7108249 28.794564,7.6886679 28.624941,7.8363267 28.481937,7.8501711 28.043258,7.880606 27.632471,7.547671 27.298862,7.6233914 c -0.398331,0.092752 -0.390945,0.7017342 -0.775966,0.8196823 0.05215,0.2882294 -0.320261,0.4991983 -0.363385,0.7267859 -0.02924,0.1524224 0.03718,0.3137373 0.04659,0.4535594 0.08863,1.410534 -1.041424,2.086863 -2.415331,2.049208 -0.269503,0.257774 -0.216663,0.739343 -0.363385,1.092911 -0.123524,0.297087 -0.569014,0.617823 -0.866136,0.592905 -0.219686,-0.01517 -0.452806,-0.341843 -0.453549,-0.546457 -7.44e-4,-0.252366 0.354809,-0.394707 0.13661,-0.683069 0.03123,-0.195884 0.463463,-0.278132 0.40983,-0.590172 -0.05517,-0.324359 -0.50747,-0.175977 -0.912581,-0.226779 -0.294881,-0.03599 -0.694932,-0.224465 -0.9563,-0.368858 -0.345441,-0.191323 -0.64242,-0.534661 -1.092911,-0.590171 -0.256168,-0.03182 -0.46946,0.05383 -0.590169,-0.0929 -0.132446,-0.157816 0.03618,-0.3907814 0.04362,-0.500007 -0.0079,-0.1798336 -0.345639,-0.2367578 -0.360658,-0.4125714 -0.01091,-0.1204409 0.330421,-0.4838157 0.456275,-0.592904 0.233021,-0.2025359 0.668438,-0.4308026 1.043729,-0.6338881 0.367152,-0.1989323 0.783426,-0.4271197 1.139361,-0.5464547 0.152025,-0.04709 0.313073,0.0172 0.459002,-0.046445 0.37305,-0.1384391 0.644312,-0.3938543 0.997278,-0.4972747 0.183948,-0.05398 0.34093,-0.047189 0.54646,-0.095627 0.489189,-0.1079794 0.859751,-0.4727075 1.275971,-0.5437229 -0.09235,0.339587 -0.457812,0.3827659 -0.546455,0.7267854 0.356643,0.6492693 0.947695,-0.136615 1.36614,-0.136615 0.379842,0 0.760223,0.5546738 1.000015,0.043719 C 26.435879,6.7502437 26.221447,6.5900837 25.97646,6.4321301 25.750132,6.286216 25.362498,6.1574526 25.386291,5.8419597 c 0.271832,-0.119058 0.393027,0.1792239 0.63662,0.1803293 0.132545,8.312e-4 0.319318,-0.1345035 0.456276,-0.1803293 0.306827,-0.1052136 0.804343,-0.1503008 1.046464,-0.3661259 0.14588,-0.1301266 0.113611,-0.3338867 0.226775,-0.5000068 0.09681,-0.141205 0.350745,-0.1769437 0.45355,-0.3196755 0.12511,-0.1740142 0.02577,-0.3180596 0.185781,-0.4098401 0.344103,-0.1522786 0.752684,0.034599 1.133894,0 0.18023,-0.015267 0.28923,-0.1947239 0.459002,-0.1803293 0.329926,0.027659 0.498612,0.5763042 0.72952,0.7267864 0.169028,0.1093674 0.470948,0.1023287 0.500005,0.3196755 0.05735,0.4302673 -0.531267,0.465312 -0.912581,0.6830693 -0.189896,0.1079794 -0.264893,0.3675534 -0.497274,0.4562905 -0.623965,0.2383885 -1.579115,-0.2660129 -1.778711,0.4098401 0.288239,0.4241753 0.821623,-0.040993 1.185806,-0.040993 0.259886,0 0.567492,0.2358655 0.726789,0.4071089 0.1378,0.1457753 0.195844,0.4499607 0.363385,0.5464559 0.111677,0.065068 0.277086,0.052731 0.412556,0.095627 0.432632,0.1329024 0.799695,0.3737347 1.27324,0.2732301 0.162336,-0.2850422 -0.327745,-0.371509 -0.139336,-0.5956368 0.317336,0.027659 0.531738,0.1743861 0.775966,0.2732301 0.341128,-0.2490507 0.558406,-0.2822961 0.546455,-0.6830694 -0.0089,-0.3350169 -0.413102,-0.3863052 -0.407104,-0.7732349 0.0036,-0.2184522 0.151728,-0.3169443 0.316939,-0.3169443 0.379743,-0.013829 0.450923,0.5491929 0.729521,0.5901719 0.168185,0.026321 0.675377,-0.2238105 0.775966,-0.27323 0.142162,-0.0706 0.576032,-0.3105104 0.590169,-0.4562906 C 35.197774,5.4904594 34.713542,5.2098179 34.490163,5.117897 34.172183,4.9863776 33.887899,5.0238017 33.760647,4.7517711 33.692838,4.6029524 33.797823,4.446867 33.670483,4.341931 33.655612,4.1821775 33.856711,4.0865852 33.809819,3.9320909 33.772643,3.8109064 33.639552,3.7689766 33.481925,3.7107786 l -7.308842,0 c -0.0079,0.044611 -0.0233,0.091681 -0.01388,0.1256852 0.08863,0.3157745 0.66409,0.063958 0.81968,0.3633897 -0.03569,0.365888 -0.419694,0.5723933 -0.729516,0.7295192 -0.288883,0.145909 -0.644263,0.5065651 -0.9563,0.3196755 C 25.170982,4.9313356 25.638013,4.9279005 25.522569,4.6561441 25.436866,4.453752 25.047061,4.5770034 24.883213,4.382919 24.729056,4.20026 24.794288,3.9634229 24.842071,3.7107786 l -1.52461,0 c -0.119211,0.1084057 -0.291709,0.1886517 -0.300532,0.3825181 -0.0079,0.18426 0.252055,0.2769824 0.226775,0.4590217 -0.03519,0.2491846 -0.706774,0.6002006 -0.956295,0.4508282 0.0043,-0.2897462 0.416918,-0.2317117 0.412556,-0.5000068 -0.0024,-0.1121333 -0.185683,-0.251083 -0.319666,-0.2732251 -0.244966,-0.04015 -0.652878,0.1066857 -0.819685,0.2732251 -0.138543,0.1384342 -0.10786,0.3862159 -0.27322,0.5000068 -0.261274,0.1789958 -0.649681,0.095632 -0.953564,0.095632 -0.592653,0.013829 -0.90176,0.03673 -1.322421,-0.1830655 -0.124417,-0.065068 -0.387723,-0.1619642 -0.366111,-0.3633947 0.463909,-0.015267 0.922975,0.1899753 1.459036,0.090165 0.19292,-0.036036 0.225387,-0.1889244 0.407104,-0.2732301 0.198868,-0.094135 0.440215,-0.019877 0.502736,-0.2240484 C 21.00079,3.8284734 20.69659,3.8846838 20.598891,3.7107736 l -5.467288,0 z m 48.1072,0.2240485 c -0.0518,0.030435 -0.104044,0.06486 -0.155743,0.084702 -0.310545,0.117675 -0.665667,0.061896 -1.000015,0.1338838 -0.320161,0.0706 -0.575546,0.4548779 -0.868862,0.5000073 -0.214481,0.034599 -0.585068,-0.1133775 -0.680339,0.092896 -0.0571,0.2130542 0.177108,0.2642037 0.09289,0.4098402 -0.189896,0.3300352 -0.700221,0.4572918 -0.9563,0.7759675 -0.06999,0.087215 -0.06741,0.2222541 -0.13661,0.3169443 -0.09973,0.1356683 -0.292354,0.2014503 -0.366111,0.3196755 -0.118319,0.1885477 -0.063,0.3166717 -0.226775,0.4098401 -0.259043,0.147297 -0.645522,0.084331 -0.90985,0.1857967 -0.157032,0.059526 -0.268313,0.1973708 -0.40983,0.27323 -0.374538,0.1994874 -0.867295,0.2464038 -1.092915,0.6338876 -0.06255,0.3333564 0.05448,0.6248365 0.09016,0.8661317 0.02479,0.1650176 -0.0089,0.295744 0.04659,0.4535593 0.09676,0.2763232 0.495484,0.5464557 0.863399,0.5464557 0.559968,0 0.963582,-0.6761416 1.412591,-0.5901719 0.219736,0.041538 0.253194,0.391376 0.363385,0.5901719 0.102061,0.1831497 0.569083,0.4720927 0.502741,0.7759667 -0.05299,0.243375 -0.592068,0.316944 -0.866131,0.316944 -0.0233,-0.266489 0.03222,-0.71098 -0.183056,-0.863399 -0.446015,0.212082 -0.786315,0.147822 -0.909845,0.500006 -0.156387,0.443968 0.2928,0.771366 0.229501,1.183076 -0.06706,0.43289 -0.973485,0.294832 -1.368871,0.366126 -0.295625,0.05397 -0.393126,0.437415 -0.63662,0.729518 -0.169077,0.203359 -0.478532,0.38929 -0.729521,0.497275 -0.12278,0.05539 -0.294683,0.06597 -0.407104,0.139346 -0.166053,0.10798 -0.224197,0.373066 -0.412556,0.500007 -0.135619,0.09414 -0.630235,0.363395 -0.773235,0.363395 -0.167541,0 -0.335676,-0.173995 -0.456276,-0.136615 -0.177156,0.05816 -0.163773,0.432834 -0.363384,0.502739 -0.390945,0.138434 -1.044093,-0.358493 -1.180339,0.224048 0.167541,0.337233 0.61454,0.226373 0.907109,0.412571 0.183947,0.114905 0.544462,0.665988 0.592905,0.8634 0.04065,0.166683 -0.02429,0.825684 -0.09289,1.002746 -0.18246,0.47068 -0.592548,0.285171 -1.133885,0.270493 -0.148209,0 -0.319319,0.06033 -0.456276,0.04372 -0.912943,-0.0623 -1.822485,-0.377006 -2.235002,0.273225 0.03321,0.500311 0.159362,0.797288 0.04907,1.232257 -0.08114,0.319095 -0.380237,0.635292 -0.366111,0.91258 0.0069,0.142727 0.192424,0.257844 0.226775,0.450824 0.01784,0.10383 -0.04759,0.319264 0,0.412571 0.149696,0.289885 0.553028,0.04451 0.819685,0.09017 0.26063,0.04154 0.54937,0.440285 0.546456,0.73225 -0.0024,0.203225 -0.190838,0.53349 -0.319666,0.729518 -0.257557,0.390811 -0.587676,0.378815 -0.956295,0.58744 -0.307472,0.174292 -0.453649,0.472648 -0.633889,0.775966 -0.19515,0.327408 -0.309901,0.525727 -0.229501,1.000013 -0.263604,0.523016 -0.680894,0.844279 -1.226794,1.092911 -0.161493,0.07337 -0.351835,0.121774 -0.500005,0.232242 -0.117576,0.08168 -0.19857,0.308855 -0.366111,0.497275 -0.206253,0.230913 -0.437737,0.32433 -0.546455,0.500006 -0.08412,0.137052 -0.09349,0.410168 -0.185782,0.592905 -0.125854,0.246973 -0.422123,0.341639 -0.587438,0.592904 -0.07594,0.114899 -0.09894,0.347726 -0.183056,0.500006 -0.186921,0.339444 -0.534276,0.611102 -0.500004,0.909849 0.0342,0.289057 0.387524,0.338491 0.40983,0.590172 0.01338,0.142588 -0.09889,0.211076 -0.09289,0.366126 0.0099,0.226204 0.165161,0.418891 0.183056,0.592904 0.04461,0.438014 -0.144194,0.607815 -0.226775,0.907116 -0.03966,0.142865 -0.05571,0.300299 -0.09289,0.412571 -0.07227,0.219146 -0.357437,0.426649 -0.363385,0.685802 -0.0036,0.18481 0.167392,0.33171 0.183056,0.590171 0.01091,0.177891 -0.08035,0.339112 -0.04907,0.50274 0.0626,0.321172 0.61945,0.701645 0.868862,0.950832 0.333594,0.333773 0.809821,0.607538 0.953564,0.959029 0.121393,0.29847 0.09012,0.684751 0.322392,0.909849 0.172002,0.165018 0.459894,0.236931 0.680334,0.40984 0.205411,0.159476 0.419793,0.328767 0.639356,0.500007 0.359023,0.280755 0.928096,0.817258 1.500019,0.773235 0.298599,-0.02354 0.620238,-0.254557 0.959032,-0.314213 0.348514,-0.05952 0.782405,-0.08108 1.133893,-0.04372 0.269602,0.0291 0.539705,0.194997 0.819683,0.180329 0.295526,-0.01383 0.62046,-0.260372 0.956295,-0.407109 0.581549,-0.253204 1.472861,-0.582791 2.322435,-0.459021 0.647129,0.09691 0.600916,0.85283 1.049192,1.136627 0.520531,0.04154 0.954357,-0.192701 1.36614,-0.0929 0.311289,0.07614 0.699799,0.529272 0.729521,0.775966 0.03073,0.255837 -0.14583,0.661866 -0.183056,0.819685 -0.08124,0.343874 -0.121293,0.740851 -0.183055,0.959028 -0.04759,0.169032 -0.183205,0.28466 -0.18033,0.453559 0.003,0.153944 0.204866,0.524114 0.363385,0.726785 0.193663,0.248769 0.494195,0.413261 0.729521,0.683071 0.431888,0.493665 0.654965,1.127782 0.953564,1.778711 0.108802,0.236034 0.311734,0.56818 0.316939,0.816951 0.0037,0.183839 -0.104589,0.360946 -0.08744,0.546457 0.03718,0.395098 0.272575,0.562231 0.314213,0.909847 0.09676,0.819827 -0.666549,1.058489 -0.816954,1.732264 -0.03569,0.161285 0.03371,0.355617 0,0.500007 -0.05061,0.218615 -0.194754,0.38567 -0.226775,0.592904 -0.03172,0.211378 -0.110289,0.605248 -0.09016,0.819685 0.03024,0.3158 0.380437,0.584732 0.546456,0.863395 0.176512,0.296368 0.338699,0.803857 0.54646,1.185805 0.115444,0.211656 0.266627,0.373646 0.314213,0.546455 0.06181,0.224247 0.01735,0.547903 0.04907,0.819685 0.02578,0.220579 0.15049,0.410376 0.18033,0.587439 0.0916,0.542836 0.09433,1.096643 0.366111,1.549201 0.134924,0.226526 0.409731,0.352678 0.592905,0.639351 0.172696,0.2697 0.235102,0.624361 0.407104,0.953569 0.179487,0.342467 0.409682,0.58771 0.412557,0.775966 0.0024,0.161295 -0.190194,0.325713 -0.185782,0.500004 0.0119,0.453649 0.533235,0.90985 0.915312,0.90985 0.172002,0 0.358329,-0.146424 0.543724,-0.177603 0.108802,-0.0223 0.210467,0.02082 0.316939,0 0.183155,-0.03172 0.320558,-0.167243 0.459002,-0.185781 0.378256,-0.05829 0.775738,0.07167 1.133894,0.04362 0.615077,-0.04213 1.294142,-0.357189 1.685816,-0.639351 0.315204,-0.226081 0.614319,-0.497814 0.89892,-0.762305 l 0,-34.240892 c -0.02677,0.0093 -0.04808,0.03133 -0.07648,0.03554 -0.485521,0.07199 -1.030494,-0.342868 -1.595651,-0.407108 -0.131108,-0.01383 -0.263208,0.02766 -0.366111,0 -0.136263,-0.0346 -0.21929,-0.226572 -0.360659,-0.273231 -0.245065,-0.07337 -0.4707,-0.03747 -0.685801,-0.09563 -0.290421,-0.511801 -1.740381,-0.526319 -1.866145,0.22678 -0.05591,0.331974 0.17676,0.812106 -0.31694,0.868865 -0.313519,0.03604 -0.663258,-0.319398 -1.09291,-0.412572 -0.17572,-0.03871 -0.409483,-0.03896 -0.546455,-0.09016 -0.321649,-0.109368 -0.269503,-0.397711 -0.546455,-0.592905 -0.160899,-0.112133 -0.568474,-0.294713 -0.822417,-0.322407 -0.157825,-0.0166 -0.330471,0.06587 -0.497273,0.04372 -0.198125,-0.02354 -0.471841,-0.171337 -0.639356,-0.273225 -0.160007,-0.09829 -0.505487,-0.220831 -0.546456,-0.360658 -0.06256,-0.217347 0.396893,-0.457133 0.412557,-0.642085 0.0114,-0.139818 -0.148854,-0.236525 -0.183056,-0.450829 -0.01983,-0.131509 0.06845,-0.280015 0.04362,-0.366125 -0.04312,-0.150762 -0.308958,-0.319676 -0.546455,-0.319676 -0.21007,0 -0.410673,0.185797 -0.590174,0.185797 -0.259192,0.01383 -0.681826,-0.163843 -1.002746,-0.139347 -0.196637,0.01383 -0.363286,0.125502 -0.546455,0.139347 -0.513874,0.04015 -0.968534,-0.02488 -1.366135,0 -0.289628,0.01517 -0.776953,0.150985 -1.046465,0.27323 -0.137007,0.06368 -0.233417,0.184071 -0.409831,0.27323 -0.07966,0.04015 -0.16759,0.03896 -0.27322,0.09016 -0.16754,0.07475 -0.343458,0.278975 -0.502736,0.319676 -0.230889,0.06091 -0.580316,-0.0631 -0.99728,-0.04372 -0.299343,0.01383 -0.818045,-4.49e-4 -0.822416,-0.363395 -0.0074,-0.545718 0.940974,-0.360212 1.456305,-0.45629 0.194307,-0.03604 0.314163,-0.178654 0.546452,-0.316945 0.111082,-0.06645 0.215374,-0.113253 0.319665,-0.185796 0.178644,-0.120441 0.473873,-0.403724 0.50001,-0.546456 0.0233,-0.132902 -0.105729,-0.309514 -0.09016,-0.407108 0.02032,-0.127361 0.156933,-0.252159 0.31694,-0.409841 0.248684,-0.245585 0.560869,-0.568515 0.86613,-0.729517 0.208534,-0.109368 0.496858,-0.106835 0.592901,-0.27323 0.02181,-0.189108 -0.05329,-0.281756 -0.04907,-0.45356 0.128085,-0.114899 0.215176,-0.249695 0.322392,-0.273225 0.317981,-0.06922 0.627177,0.245155 0.997279,0.229511 0.160006,0 0.287099,-0.113214 0.459051,-0.229511 0.144442,-0.09691 0.314759,-0.154102 0.456276,-0.226779 0.155595,-0.07891 0.310892,-0.258687 0.500005,-0.273226 0.463958,-0.03043 0.655326,0.493874 0.86613,0.773235 0.176463,0.232163 0.666688,0.61275 0.956301,0.775966 0.163129,0.09414 0.410672,0.09758 0.590169,0.177598 0.382766,0.172359 1.123955,0.766513 1.136629,1.142092 0.0069,0.187443 -0.16293,0.327379 -0.133883,0.500007 0.289627,0.04565 0.582719,-0.305197 0.590174,-0.595636 0.0043,-0.181767 -0.171754,-0.259227 -0.13661,-0.450828 0.13552,-0.291273 0.551699,-0.01755 0.726784,-0.136615 -0.03371,-0.329897 -0.491816,-0.331498 -0.773234,-0.502739 -0.151878,-0.09414 -0.249279,-0.299298 -0.407104,-0.363395 -0.22856,-0.09691 -0.507777,-0.09138 -0.685802,-0.22678 -0.166797,-0.131519 -0.245264,-0.39716 -0.40983,-0.592904 -0.239018,-0.285042 -0.736649,-0.359291 -0.592906,-1.002746 0.07148,-0.09691 0.208732,-0.220896 0.319666,-0.180329 0.218943,0.05539 0.204519,0.249873 0.366111,0.363395 0.117625,0.08029 0.275302,0.05357 0.407104,0.136615 0.154851,0.09829 0.234904,0.355439 0.40983,0.502739 0.247296,0.207934 0.700776,0.377879 1.049191,0.543723 0.326209,0.153939 0.845853,0.355459 0.90985,0.636621 0.03569,0.157815 -0.06711,0.320587 -0.04659,0.459022 0.02578,0.175124 0.189053,0.337133 0.27322,0.453559 0.227865,0.314391 0.524963,0.621628 0.775966,1.002746 -0.0074,0.518311 0.191631,0.843145 0.773235,0.773234 0.209971,-0.11075 0.108654,-0.278569 0.27322,-0.453559 0.154851,-0.164463 0.497066,-0.129919 0.50001,-0.368858 0.0043,-0.370324 -0.889487,-0.452116 -0.773235,-0.997281 0.0342,-0.174847 0.208534,-0.09702 0.363385,-0.09563 0.251757,-0.290718 0.795377,-0.631769 1.139361,-0.180329 0.148159,0.888211 0.41786,1.658443 1.049196,2.139373 0.443289,-0.1596 0.665548,0.250195 1.079249,0.18306 l 0,-2.745938 c -0.201445,-0.01348 -0.403783,-0.03301 -0.535525,0.0109 -0.268908,0.09137 -0.288983,0.75261 -0.816954,0.316944 -0.02875,-0.274241 0.343904,-0.183487 0.363384,-0.40984 -0.01933,-0.219568 -0.292056,-0.337485 -0.319665,-0.592904 -0.03073,-0.289613 0.218497,-0.401835 0.319665,-0.729518 0.03172,-0.105209 0.01338,-0.20041 0.04362,-0.27323 0.0512,-0.117675 0.179387,-0.182803 0.27322,-0.316945 0.166252,-0.239558 0.362393,-0.700525 0.67214,-0.789628 l 0,-5.068374 c 0,-3.4000203 -2.326827,-6.2288008 -5.478218,-7.0110273 z m -47.86949,0.5792436 c 0.152819,-0.01383 0.320062,0.1304289 0.456276,0.3196755 0.480316,0.05398 1.040774,-0.06489 1.366135,0.090165 0.07227,0.1457752 -0.08739,0.2107939 -0.185782,0.2732251 -0.566634,-0.4143409 -1.361104,0.2620128 -1.909864,-0.1830605 0.01933,-0.3103715 0.120401,-0.4824576 0.27322,-0.4972745 l 0,-0.00273 z M 29.894496,4.8746647 C 29.663904,4.93835 29.4463,5.1372723 29.481939,5.2899722 c 0.07966,0.3387543 0.930634,-0.013978 0.868862,-0.2732251 -0.05344,-0.083062 -0.13433,-0.128233 -0.229501,-0.1420775 -0.07138,-0.013829 -0.149944,-0.023545 -0.226775,0 z M 11.454354,5.6506322 c 0.30767,-0.024883 0.563546,0.037821 0.633888,0.3633898 -0.119955,0.1705544 -0.308909,0.062406 -0.497273,0.095632 -0.458655,0.076137 -0.959542,0.3767781 -1.366141,0.2732251 0.03718,-0.257631 0.206749,-0.4082292 0.31694,-0.5929036 0.262117,-0.024883 0.604935,-0.1144233 0.912581,-0.1393463 z m 20.166941,0 c 0.04967,-0.037374 0.120252,-0.044314 0.185781,0 0.02082,0.1474358 -0.04065,0.2005036 -0.185781,0.1830605 -0.05809,-0.073371 -0.04967,-0.1458248 0,-0.1830605 z M 64.129924,6.150639 c 0.247643,-0.01383 0.469114,0.016209 0.595636,0.136615 0,0.6640821 -1.336419,0.7898551 -1.366135,1.3224224 -0.0069,0.1148992 0.109695,0.3117347 0.13661,0.5000063 0.02478,0.1697266 0.01091,0.2757233 0.04114,0.3661259 0.09676,0.2873917 0.474269,0.5247571 0.775966,0.5437229 0.706679,0.044265 1.790013,-0.7115134 2.4126,-0.1803292 -0.272576,0.5956948 -1.25481,0.1153155 -1.95631,0.3633947 -0.139931,0.04709 -0.241,0.1772213 -0.366111,0.2267796 -0.168284,0.067834 -0.452806,8.88e-5 -0.453549,0.2732301 0.138444,0.2760455 0.332851,-0.043719 0.502741,-0.043719 0.19059,0 0.476152,0.2192949 0.450823,0.4562903 -0.05829,0.544889 -0.54471,-0.01666 -0.863404,0 -0.46391,0.0291 -0.545628,0.64251 -0.456276,1.139359 -0.210665,0.114899 -0.442248,0.473843 -0.726785,0.500007 -0.1779,0.01666 -0.353124,-0.159253 -0.592905,-0.18306 -0.530881,-0.05675 -0.993675,0.424512 -1.500019,0.40984 -0.219687,0 -0.470353,-0.270494 -0.819681,-0.270494 -0.18023,0 -0.317286,0.117229 -0.502741,0.136615 -0.233813,0.02488 -0.609942,-0.04441 -0.592905,-0.232242 0.02577,-0.291551 0.459448,-0.05139 0.685801,-0.09016 0.284522,-0.04709 0.216217,-0.28354 0.40983,-0.319675 0.129621,-0.02766 0.215523,0.06724 0.409831,0.04372 0.209971,-0.02355 0.394513,-0.329793 0.587438,-0.412572 0.377462,-0.164462 0.715686,-0.05432 0.775966,-0.360658 0.03272,-0.172076 -0.134826,-0.450769 -0.09016,-0.642085 0.09983,-0.423065 0.897666,-0.325599 0.8634,-0.8196833 -0.01983,-0.2934836 -0.659496,-0.3982412 -0.729516,-0.6776048 -0.04461,-0.1806614 0.0799,-0.483682 0.139336,-0.5929041 0.267272,-0.492971 1.099072,-0.509452 1.363405,-0.9125805 C 63.387622,6.6423089 63.406458,6.424159 63.493451,6.3309935 63.614843,6.200867 63.882462,6.1629869 64.13007,6.1506643 Z m -38.92675,1.3169575 0,0.00273 c -0.112322,-0.023545 -0.2411,-3.187e-4 -0.319666,0.043719 -0.115444,0.0706 -0.0978,0.1741382 -0.08744,0.2295108 0.06325,0.3131474 0.639866,0.028155 0.633888,-0.136615 -0.003,-0.078913 -0.114403,-0.1156724 -0.226774,-0.1393462 z m -13.47559,0.2759613 c 0.163079,0 0.315749,0.1630299 0.453549,0.27323 -0.04263,0.1792735 -0.286009,0.1712335 -0.453549,0.2295109 -0.282192,0.098289 -0.682837,0.2746725 -1.139361,0.1857966 0.02379,-0.2197013 0.387078,-0.2362323 0.63662,-0.3688571 0.214382,-0.1121333 0.289082,-0.3196755 0.502741,-0.3196755 z m 41.115304,1.7322633 c -0.151134,0.1920125 -0.42822,0.1356881 -0.685793,0.2267797 -0.20784,0.071988 -0.582995,0.4197832 -0.636623,0.5464552 -0.08868,0.210011 0.02181,0.449708 0,0.773235 0.168284,0.07199 0.258945,0.388773 0.546458,0.546455 0.108753,0.06091 0.266528,0.03881 0.363385,0.09563 0.168284,0.09691 0.307521,0.28536 0.27322,0.45356 -0.04982,0.241576 -0.381973,0.18657 -0.546466,0.366126 0.02825,0.34318 -0.234111,0.407089 -0.319666,0.63662 0.0514,0.14591 0.296617,0.09977 0.319666,0.273231 -0.03272,0.187308 -0.39268,0.21174 -0.319666,0.40984 0.31575,0.246418 0.660426,-0.05962 0.959047,-0.09563 0.659714,-0.08168 1.321683,0.0937 1.726799,-0.22678 -0.05517,-0.315224 0.353967,-0.401899 0.319666,-0.683069 -0.02577,-0.212227 -0.39154,-0.260506 -0.546455,-0.407109 -0.08258,-0.07753 -0.125408,-0.259743 -0.226775,-0.412571 -0.116138,-0.175125 -0.324027,-0.283 -0.453549,-0.45356 -0.17344,-0.23022 -0.54709,-0.60112 -0.546455,-0.775966 0.0025,-0.200871 0.272327,-0.224242 0.316939,-0.500007 -0.05135,-0.2530658 -0.507346,-0.09732 -0.543724,-0.3633948 0.01933,-0.1665394 0.132446,-0.179789 0.133884,-0.3661259 -0.0342,-0.030485 -0.06617,-0.057583 -0.133884,-0.040993 l 0,-0.00273 z m -2.008217,1.8196969 c -0.120501,0.01383 -0.262167,0.07704 -0.360659,0.139346 -0.224147,0.137051 -0.285463,0.346814 -0.459002,0.412571 -0.239067,0.09275 -0.417909,-6.37e-4 -0.453549,0.224049 -0.02925,0.181905 0.18831,0.285458 0.183055,0.45629 -0.08714,0.216515 -0.369432,0.238364 -0.412556,0.500007 0.298599,0.488133 1.044472,0.06566 1.415317,-0.04372 0.166797,-0.04709 0.40988,-0.04466 0.50001,-0.180329 0.102804,-0.157121 0.01388,-0.413974 0.09016,-0.639353 0.08555,-0.248079 0.302218,-0.278791 0.273221,-0.500007 -0.02825,-0.220806 -0.41449,-0.402538 -0.775966,-0.366125 l 0,-0.0027 z m -36.15076,0.866132 c 0.551714,-0.130137 0.329083,0.851595 0,0.866131 -0.458755,0.01383 -0.369482,-0.780162 0,-0.866131 z m 3.327912,2.595663 c 0.139584,-0.03044 0.287595,-0.03182 0.407104,0 0.267272,0.0706 0.953703,0.842894 0.366111,1.092911 -0.05576,0.02632 -0.863444,0.112272 -1.002746,0.0929 -0.203923,-0.0346 -0.340186,-0.329718 -0.546455,-0.366126 -0.407352,-0.0706 -0.953014,0.508713 -1.232256,0.04372 0.07063,-0.262617 0.374636,-0.278811 0.685801,-0.363394 0.41444,-0.110751 0.903624,-0.412101 1.322421,-0.500007 z m 1.502751,1.412588 c 0.1377,0.01517 0.330471,0.163064 0.497273,0.177598 0.157825,0.01383 0.269354,-0.06594 0.366111,-0.03827 0.246454,0.06507 0.365516,0.407848 0.133884,0.590172 -0.19282,0.02632 -0.261869,-0.07002 -0.407104,-0.04372 -0.400561,0.06922 -0.564057,0.845848 -0.863399,0.819683 -0.282292,-0.02632 -0.42599,-0.705376 -0.139337,-0.909848 0.01091,-0.178585 -0.145631,-0.23306 -0.13661,-0.409841 0.0864,-0.109367 0.313965,-0.203552 0.549187,-0.18306 l 0,-0.0027 z m -1.31969,0.09016 0,0.0027 c 0.08213,0 0.147069,0.01333 0.177603,0.04099 -0.03965,0.314253 -0.303705,0.312419 -0.546456,0.459022 -0.419297,0.253205 -0.639846,0.64248 -0.773234,1.183076 -0.03866,0.157959 -0.437044,0.588543 -0.63662,0.546456 -0.467627,-0.09829 0.123028,-0.964405 0.229501,-1.095643 0.117576,-0.145775 0.267916,-0.286192 0.407104,-0.45356 0.134726,-0.162945 0.235796,-0.409746 0.366111,-0.500006 0.142409,-0.09829 0.529582,-0.192474 0.775966,-0.183061 z m 3.502779,1.049195 c 0.149647,0 0.255475,0.03192 0.316939,0.0929 -0.09606,0.389428 -0.922678,0.280412 -1.229525,0.139346 0.01983,-0.145909 0.263356,-0.167243 0.456276,-0.185797 0.136659,-0.01383 0.306629,-0.04377 0.456275,-0.04099 l 0,-0.0055 z m -1.909859,0.726785 0,0.0027 c 0.100623,0 0.212152,0.01462 0.316939,0.04372 -0.271733,0.227176 -0.580315,0.352574 -1.046465,0.500007 -0.224147,0.0706 -0.601382,0.159337 -0.639351,-0.0929 -0.04659,-0.307194 0.295229,-0.245541 0.500005,-0.27323 0.257507,-0.0346 0.567016,-0.170634 0.868867,-0.180329 z m 38.424009,0 0,0.0027 c -0.191185,0.06368 -0.291561,0.451106 0,0.502739 0.135569,-0.0803 0.263058,-0.16529 0.229501,-0.415308 -0.0749,-0.07891 -0.165806,-0.108167 -0.229501,-0.09016 z m -0.09016,0.822416 c -0.09448,0.02766 -0.172002,0.07604 -0.27322,0.18306 0.0074,0.329064 0.01636,0.577112 -0.04907,0.8634 0.189995,0.363122 0.635356,0.01234 0.732247,-0.229511 0.113958,-0.613414 -0.126498,-0.894337 -0.40983,-0.816951 z m 2.139375,1.636634 c -0.114007,0.02221 -0.19634,0.07566 -0.27322,0.139346 0.215969,0.353843 0.656075,0.458963 1.139361,0.546455 0.174232,-0.131509 0.193564,-0.41384 0.27322,-0.639353 -0.317782,0 -0.79728,-0.104623 -1.139356,-0.04372 l 0,-0.0027 z m -39.926764,15.29802 c 0.282935,-0.13151 0.320558,0.421231 0.08744,0.459021 -0.22043,0.0346 -0.301226,-0.3599 -0.08744,-0.459021 z"
       style="opacity:1;fill:#6e98b0;fill-opacity:1;fill-rule:nonzero;stroke:none;stroke-width:0.56444442;stroke-miterlimit:4;stroke-dasharray:none;stroke-opacity:1" />
    <g
       style="fill:#8aff8a;fill-opacity:0.74901961"
       transform="matrix(0.28222226,0,0,0.28222226,84.231643,-0.61275517)"
       id="g3374">
      <path
         sodipodi:nodetypes="ccccsssssssssccc"
         style="opacity:1;fill:#8aff8a;fill-opacity:0.74901961;fill-rule:nonzero;stroke:none;stroke-width:13.80000019;stroke-miterlimit:4;stroke-dasharray:none;stroke-opacity:1"
         d="m -248.88122,128 6.48656,0 6.48656,0 c 1.72572,-12.31673 4.96073,-26.60835 11.14878,-36.063542 1.13895,-1.664471 8.97408,-11.765923 15.04998,-16.349683 12.40378,-9.357627 25.12837,-13.680054 40.27205,-13.680054 13.7469,0 28.07068,4.377375 37.69492,11.519632 5.7331,4.254602 4.54253,11.305975 -2.32251,13.755471 -1.32703,0.473497 -4.58255,-0.575858 -9.22033,-2.971995 -17.91418,-9.255472 -33.11678,-9.613167 -49.91781,-1.174492 -11.69855,5.875849 -23.83474,22.080023 -25.55222,34.117203 -0.38307,2.68475 -0.9479,6.19957 -1.25519,7.81072 -0.55283,2.89858 -0.48891,2.93277 6.08376,3.25423 l 6.64246,0.32488 -20.90978,29.83051 z"
         id="path3370"
         inkscape:connector-curvature="0" />
      <path
         sodipodi:nodetypes="sccsssscccsscsss"
         style="opacity:1;fill:#8aff8a;fill-opacity:0.74901961;fill-rule:nonzero;stroke:none;stroke-width:13.80000019;stroke-miterlimit:4;stroke-dasharray:none;stroke-opacity:1"
         d="m -183.75243,192.46894 c -7.94998,-1.58395 -19.23622,-6.84472 -23.92215,-11.15064 -3.66548,-4.46583 -0.4141,-10.91216 4.14021,-12.22392 0.77382,0 5.22324,0.93552 9.88761,3.25079 13.17023,6.53736 24.38849,8.16298 35.5993,5.15865 19.614,-5.25626 33.53782,-19.06627 37.90485,-37.59501 2.75567,-11.69192 2.67777,-11.90881 -4.27773,-11.90881 -3.28135,0 -5.9661,-0.43484 -5.9661,-0.9663 l 20.75217,-29.86119 c 3.6194,5.77007 7.05191,11.38826 10.163084,16.02651 5.071186,7.54579 9.220339,13.96293 9.220339,14.2603 0,0.29737 -2.861983,0.54068 -6.359962,0.54068 l -6.359961,0 -0.56539,6.77966 c -0.72353,8.67574 -5.20288,21.39074 -10.22235,29.01695 -15.53242,23.59881 -41.68606,34.3124 -69.99392,28.67233 z"
         id="path3372"
         inkscape:connector-curvature="0" />
    </g>
  </g>
</svg>
