<?xml version="1.0" encoding="UTF-8" standalone="no"?>
<svg
   xmlns:dc="http://purl.org/dc/elements/1.1/"
   xmlns:cc="http://creativecommons.org/ns#"
   xmlns:rdf="http://www.w3.org/1999/02/22-rdf-syntax-ns#"
   xmlns:svg="http://www.w3.org/2000/svg"
   xmlns="http://www.w3.org/2000/svg"
   xmlns:xlink="http://www.w3.org/1999/xlink"
   xmlns:sodipodi="http://sodipodi.sourceforge.net/DTD/sodipodi-0.dtd"
   xmlns:inkscape="http://www.inkscape.org/namespaces/inkscape"
   width="256"
   viewBox="0 0 72.24889 72.248891"
   height="256"
   id="svg2"
   version="1.1"
   inkscape:version="0.91 r"
   sodipodi:docname="chrome-dkfhfaphfkopdgpbfkebjfcblcafcmpi-Default.svg">
  <metadata
     id="metadata26">
    <rdf:RDF>
      <cc:Work
         rdf:about="">
        <dc:format>image/svg+xml</dc:format>
        <dc:type
           rdf:resource="http://purl.org/dc/dcmitype/StillImage" />
        <dc:title />
      </cc:Work>
    </rdf:RDF>
  </metadata>
  <sodipodi:namedview
     pagecolor="#ffffff"
     bordercolor="#666666"
     borderopacity="1"
     objecttolerance="10"
     gridtolerance="10"
     guidetolerance="10"
     inkscape:pageopacity="0"
     inkscape:pageshadow="2"
     inkscape:window-width="1366"
     inkscape:window-height="744"
     id="namedview24"
     showgrid="false"
     inkscape:zoom="1.6287359"
     inkscape:cx="120.11496"
     inkscape:cy="137.15017"
     inkscape:window-x="0"
     inkscape:window-y="24"
     inkscape:window-maximized="1"
     inkscape:current-layer="svg2"
     inkscape:object-nodes="true">
    <inkscape:grid
       type="xygrid"
       id="grid4153" />
  </sodipodi:namedview>
  <defs
     id="defs4">
    <linearGradient
       id="linearGradient4716"
       inkscape:collect="always">
      <stop
         id="stop4718"
         offset="0"
         style="stop-color:#4accc7;stop-opacity:1;" />
      <stop
         style="stop-color:#0044aa;stop-opacity:1"
         offset="0.12016467"
         id="stop3346" />
      <stop
         style="stop-color:#2a7fff;stop-opacity:1"
         offset="0.47933373"
         id="stop3344" />
      <stop
         id="stop3348"
         offset="0.93009132"
         style="stop-color:#d5e5ff;stop-opacity:1" />
      <stop
         id="stop4720"
         offset="1"
         style="stop-color:#7cdad7;stop-opacity:1" />
    </linearGradient>
    <linearGradient
       inkscape:collect="always"
       xlink:href="#linearGradient4716"
       id="linearGradient4227"
       x1="12.546065"
       y1="12.579146"
       x2="1.5727365"
       y2="1.2669438"
       gradientUnits="userSpaceOnUse"
       gradientTransform="matrix(7.5163876,0,0,7.5163876,-14.869396,-14.728566)" />
  </defs>
  <path
     style="fill:#000000;fill-opacity:0.23529412"
     inkscape:connector-curvature="0"
     id="path4221"
     d="m 44.208577,4.3630561 c -8.321739,0 -15.450743,5.0243289 -18.630908,12.1653869 -1.25638,-0.788498 -2.660854,-1.276087 -4.253632,-1.276087 -4.510509,0 -8.166972,3.656479 -8.166972,8.166973 0,1.363817 0.344704,2.613008 0.935801,3.743192 -6.2543218,2.29001 -10.7191533,8.265428 -10.7191533,15.313074 0,9.020993 7.3129263,16.333945 16.3339453,16.333945 l 2.722324,0 0,10.889294 10.889298,-10.889294 21.778591,0 c 7.517482,0 13.611623,-6.094124 13.611623,-13.611616 0,-4.767513 -2.499612,-8.968532 -6.210304,-11.399739 1.353183,-2.729337 2.126818,-5.764839 2.126818,-9.017693 0,-11.276236 -9.141218,-20.4174359 -20.417431,-20.4174359 z M 25.577669,26.141651 c 0.475458,2.3e-5 1.234056,-0.02774 2.296961,0 l 2.382034,0 5.784939,12.505674 5.699868,-12.505674 4.593919,0 c 0.923032,2.3e-5 1.593027,0.173716 1.956674,0.425389 0.559403,0.475493 0.850732,1.030214 0.850732,1.701452 -5.8e-5,1.258628 -0.757513,1.986996 -2.21189,2.126818 l 0,16.078729 c 1.70608,0 2.552126,0.643284 2.552177,2.041739 -5.1e-5,0.755172 -0.349685,1.424097 -1.02087,1.871603 -0.335699,0.19579 -0.86233,0.255199 -1.701452,0.255199 l -5.444651,0 c -1.846007,0 -2.807424,-0.728363 -2.807396,-2.126818 -2.8e-5,-0.811106 0.349707,-1.39496 1.02087,-1.786525 0.307517,-0.195791 0.91952,-0.255198 1.786526,-0.255198 l 1.446237,0 0,-12.165387 -4.678996,10.549007 -3.828269,0 -4.934212,-10.549007 0,12.165387 1.446234,0 c 0.895045,0 1.565092,0.08865 1.956671,0.340323 0.559386,0.419552 0.850422,0.974256 0.850731,1.701451 -2.7e-5,0.755166 -0.349736,1.424091 -1.020873,1.871597 -0.335688,0.19579 -0.947394,0.255198 -1.786524,0.255198 l -5.359575,0 c -0.922923,0 -1.593106,-0.145687 -1.956671,-0.425389 -0.587263,-0.419552 -0.850732,-1.002227 -0.850732,-1.701452 0,-1.39845 0.845986,-2.04174 2.55218,-2.04174 l 0,-16.078728 c -1.454434,-0.139909 -2.211893,-0.840232 -2.211893,-2.12683 0,-0.755131 0.349707,-1.424068 1.020871,-1.871602 0.335688,-0.195792 0.889142,-0.255199 1.61638,-0.255199 z" />
  <path
     d="m 44.208577,3.5145434 c -8.321739,0 -15.450743,5.0243236 -18.630908,12.1653866 -1.25638,-0.788504 -2.660854,-1.276092 -4.253632,-1.276092 -4.510509,0 -8.166972,3.656479 -8.166972,8.166972 0,1.363817 0.344704,2.613008 0.935801,3.743198 -6.2543218,2.29001 -10.7191533,8.265429 -10.7191533,15.313074 0,9.020987 7.3129263,16.333945 16.3339453,16.333945 l 2.722324,0 0,10.889294 10.889298,-10.889294 21.778591,0 c 7.517482,0 13.611623,-6.094129 13.611623,-13.611622 0,-4.767506 -2.499612,-8.968525 -6.210304,-11.399733 1.353183,-2.729343 2.126818,-5.764838 2.126818,-9.017698 0,-11.276236 -9.141218,-20.4174306 -20.417431,-20.4174306 z M 25.577669,25.293139 c 0.475458,2.2e-5 1.234056,-0.02774 2.296961,0 l 2.382034,0 5.784939,12.505673 5.699868,-12.505673 4.593919,0 c 0.923032,2.2e-5 1.593027,0.173715 1.956674,0.425388 0.559403,0.475493 0.850732,1.030209 0.850732,1.701452 -5.8e-5,1.258628 -0.757513,1.98699 -2.21189,2.126812 l 0,16.078729 c 1.70608,0 2.552126,0.643284 2.552177,2.041745 -5.1e-5,0.755166 -0.349685,1.424092 -1.02087,1.871597 -0.335699,0.195791 -0.86233,0.255199 -1.701452,0.255199 l -5.444651,0 c -1.846007,0 -2.807424,-0.728362 -2.807396,-2.126818 -2.8e-5,-0.811106 0.349707,-1.394959 1.02087,-1.786525 0.307517,-0.19579 0.91952,-0.255198 1.786526,-0.255198 l 1.446237,0 0,-12.165387 -4.678996,10.549007 -3.828269,0 -4.934212,-10.549007 0,12.165387 1.446234,0 c 0.895045,0 1.565092,0.08865 1.956671,0.340323 0.559386,0.419551 0.850422,0.974263 0.850731,1.701451 -2.7e-5,0.755172 -0.349736,1.424097 -1.020873,1.871597 -0.335688,0.195791 -0.947394,0.255199 -1.786524,0.255199 l -5.359575,0 c -0.922923,0 -1.593106,-0.145688 -1.956671,-0.425389 -0.587263,-0.419552 -0.850732,-1.002227 -0.850732,-1.701452 0,-1.39845 0.845986,-2.041741 2.55218,-2.041741 l 0,-16.078728 c -1.454434,-0.139908 -2.211893,-0.840232 -2.211893,-2.12683 0,-0.75513 0.349707,-1.424061 1.020871,-1.871596 0.335688,-0.19579 0.889142,-0.255199 1.61638,-0.255199 z"
     id="path18"
     inkscape:connector-curvature="0"
     style="fill:url(#linearGradient4227);fill-opacity:1" />
  <text
     x="-57.152203"
     y="66.981941"
     word-spacing="0"
     line-height="125%"
     letter-spacing="0"
     font-size="40"
     id="text20"
     sodipodi:linespacing="125%"
     style="font-size:14.68286896px;line-height:125%;font-family:Sans;letter-spacing:0;word-spacing:0">
    <tspan
       id="tspan22" />
  </text>
  <path
     style="fill:#1663d6;fill-opacity:1"
     d="m 13.225291,21.901 c -0.01855,0.224686 -0.06629,0.441744 -0.06629,0.671192 0,0.812041 0.13265,1.577892 0.356307,2.307734 0.195965,-0.08056 0.376199,-0.187874 0.575896,-0.261036 -0.439501,-0.840335 -0.739259,-1.747788 -0.865912,-2.717907 z m 51.354311,1.110369 c -0.113844,2.956908 -0.836122,5.73213 -2.079857,8.240718 0.192555,0.126154 0.365173,0.278776 0.551024,0.414293 0.993067,-2.390379 1.574389,-4.978635 1.574389,-7.735255 0,-0.310446 -0.03178,-0.612731 -0.04565,-0.919779 z m -39.003589,0.584183 c -0.727239,4.7e-5 -1.280138,0.06108 -1.615826,0.256875 -0.671165,0.447523 -1.019215,1.113425 -1.019215,1.868557 0,0.339109 0.06161,0.632662 0.165723,0.89078 0.162135,-0.416085 0.436872,-0.78699 0.85349,-1.064791 0.335688,-0.195791 0.888587,-0.252713 1.615826,-0.252713 0.475457,2.2e-5 1.236542,-0.02774 2.299448,0 l 2.38231,0 5.783833,12.504015 5.700973,-12.504015 4.594751,0 c 0.923026,2.2e-5 1.591917,0.170941 1.955564,0.422615 0.317323,0.269762 0.534785,0.571481 0.675334,0.899061 0.108934,-0.261093 0.174005,-0.555647 0.174005,-0.894918 0,-0.671244 -0.289988,-1.223191 -0.849345,-1.69869 -0.36367,-0.251674 -1.032537,-0.426718 -1.955564,-0.426718 l -4.59475,0 -5.700971,12.508166 -5.783834,-12.508166 -2.38231,0 c -1.062905,-0.02774 -1.82399,2.3e-5 -2.299448,0 z M 3.4267451,40.951199 c -0.00942,0.227749 -0.05386,0.44521 -0.05386,0.675329 0,9.020993 7.3154119,16.336429 16.3364309,16.336429 l 2.722048,0 0,-1.69869 -2.722048,0 c -8.676841,0 -15.7536896,-6.769464 -16.2825699,-15.313068 z M 68.660604,43.61524 c -0.494967,7.067179 -6.371618,12.649027 -13.564662,12.649027 l -21.776385,0 -10.888194,10.888191 0,1.698696 10.888194,-10.888197 21.776385,0 c 7.517475,0 13.614384,-6.096886 13.614384,-13.614379 0,-0.248783 -0.0364,-0.487801 -0.0497,-0.733338 z m -43.507191,0.314896 c -1.706195,0 -2.552182,0.639978 -2.552182,2.038428 0,0.293456 0.05606,0.563102 0.153299,0.81206 0.312977,-0.783095 1.109455,-1.155936 2.398884,-1.155942 l 0,-1.694546 z m 4.168006,0 0,1.694546 1.445959,0 c 0.895044,6e-6 1.563985,0.08807 1.955566,0.339745 0.314474,0.235839 0.534455,0.521435 0.675331,0.849345 0.108084,-0.263751 0.178148,-0.545939 0.17816,-0.845202 -3.12e-4,-0.727188 -0.294109,-1.27916 -0.853491,-1.698689 -0.391583,-0.251674 -1.060522,-0.339745 -1.955566,-0.339745 l -1.445959,0 z m 11.994412,0 c -0.867005,5e-6 -1.478177,0.05721 -1.785697,0.252714 -0.671164,0.391582 -1.023383,0.974592 -1.023357,1.785698 -6e-6,0.329111 0.06438,0.615938 0.169872,0.870061 0.162939,-0.394933 0.44031,-0.716018 0.853488,-0.957069 0.30752,-0.195792 0.918691,-0.256876 1.785696,-0.256876 l 1.44596,0 0,-1.694546 -1.44596,0 z m 5.613965,0 0,1.694546 c 1.279559,0 2.076795,0.364306 2.394742,1.135224 0.09437,-0.249016 0.157418,-0.511784 0.157418,-0.791342 -5.7e-5,-1.398455 -0.846102,-2.038428 -2.552183,-2.038428 z"
     id="path4244"
     inkscape:connector-curvature="0" />
</svg>
