<?xml version="1.0" encoding="UTF-8" standalone="no"?>
<svg
   xmlns:dc="http://purl.org/dc/elements/1.1/"
   xmlns:cc="http://creativecommons.org/ns#"
   xmlns:rdf="http://www.w3.org/1999/02/22-rdf-syntax-ns#"
   xmlns:svg="http://www.w3.org/2000/svg"
   xmlns="http://www.w3.org/2000/svg"
   xmlns:xlink="http://www.w3.org/1999/xlink"
   xmlns:sodipodi="http://sodipodi.sourceforge.net/DTD/sodipodi-0.dtd"
   xmlns:inkscape="http://www.inkscape.org/namespaces/inkscape"
   width="256"
   viewBox="0 0 72.248891 72.248891"
   height="256"
   id="svg2"
   version="1.1"
   inkscape:version="0.91 r"
   sodipodi:docname="chrome-gighmmpiobklfepjocnamgkkbiglidom-Default.svg">
  <metadata
     id="metadata22">
    <rdf:RDF>
      <cc:Work
         rdf:about="">
        <dc:format>image/svg+xml</dc:format>
        <dc:type
           rdf:resource="http://purl.org/dc/dcmitype/StillImage" />
        <dc:title></dc:title>
      </cc:Work>
    </rdf:RDF>
  </metadata>
  <sodipodi:namedview
     pagecolor="#ffffff"
     bordercolor="#666666"
     borderopacity="1"
     objecttolerance="10"
     gridtolerance="10"
     guidetolerance="10"
     inkscape:pageopacity="0"
     inkscape:pageshadow="2"
     inkscape:window-width="1366"
     inkscape:window-height="744"
     id="namedview20"
     showgrid="true"
     inkscape:zoom="1.6287359"
     inkscape:cx="190.62606"
     inkscape:cy="137.4832"
     inkscape:window-x="0"
     inkscape:window-y="24"
     inkscape:window-maximized="1"
     inkscape:current-layer="svg2">
    <inkscape:grid
       type="xygrid"
       id="grid2999"
       empspacing="5"
       visible="true"
       enabled="true"
       snapvisiblegridlinesonly="true" />
  </sodipodi:namedview>
  <defs
     id="defs4">
    <linearGradient
       id="linearGradient4212">
      <stop
         id="stop4214"
         style="stop-color:#ffb9b9;stop-opacity:1"
         offset="0" />
      <stop
         id="stop4216"
         style="stop-color:#fff6f5;stop-opacity:1"
         offset="1" />
    </linearGradient>
    <linearGradient
       id="linearGradient10016">
      <stop
         offset="0"
         style="stop-color:#be0000;stop-opacity:1"
         id="stop10018" />
      <stop
         offset="1"
         style="stop-color:#fa4a31;stop-opacity:1"
         id="stop10020" />
    </linearGradient>
    <linearGradient
       inkscape:collect="always"
       xlink:href="#linearGradient10016"
       id="linearGradient859"
       gradientUnits="userSpaceOnUse"
       gradientTransform="matrix(1.3804104,0,0,1.3804104,2.7286364,1383.0489)"
       x1="-1.076206e-05"
       y1="-1027.3622"
       x2="47.999989"
       y2="-1027.3622" />
    <linearGradient
       inkscape:collect="always"
       xlink:href="#linearGradient4212"
       id="linearGradient4246"
       x1="2.2576635"
       y1="6.4911041"
       x2="11.289004"
       y2="6.4911041"
       gradientUnits="userSpaceOnUse"
       gradientTransform="matrix(4.891094,0,0,4.891094,2.729461,3.3839542)" />
  </defs>
  <rect
     style="fill:url(#linearGradient859);fill-opacity:1;stroke:none"
     id="rect2991-1-7"
     width="66.259705"
     height="66.259705"
     x="2.7286215"
     y="-69.642799"
     ry="9.7733059"
     transform="scale(1,-1)" />
  <path
     style="fill:url(#linearGradient4246);fill-opacity:1"
     d="m 44.626013,15.254639 12.490787,12.490783 0,17.580916 -12.490786,12.444939 -17.580914,0 -12.444949,-12.444939 0,-17.580916 12.444949,-12.490783 17.580914,0 z m -1.148514,2.833547 -15.278492,0 -10.765312,10.805751 0,15.278491 10.765312,10.765315 15.278492,0 10.805749,-10.765315 0,-15.278491 -10.805749,-10.805751 z m -6.047231,6.001398 c 0.304158,-0.0082 0.595702,0.0604 0.806118,0.212985 0.122572,0.08894 0.317802,0.349537 0.434065,0.579649 l 0.21299,0.42057 0,5.470275 c 0,4.174231 0.02424,5.494224 0.102453,5.572729 0.272698,0.273601 0.399365,-1.058752 0.533818,-5.63204 0.112498,-3.826331 0.183563,-4.731512 0.399016,-5.020037 0.596163,-0.798261 1.676488,-0.779083 2.092133,0.03802 0.160573,0.315592 0.171689,0.563933 0.226469,5.192585 0.0318,2.690992 0.09893,5.10948 0.14828,5.413659 0.04921,0.302311 0.08805,0.584157 0.08897,0.628176 0.0011,0.05069 0.0318,0.05069 0.08088,0 0.101787,-0.105252 0.227996,-1.311865 0.342396,-3.251432 0.155928,-2.642924 0.261544,-3.658004 0.407107,-3.906565 0.0741,-0.126523 0.289671,-0.291621 0.477202,-0.366675 0.480634,-0.19232 0.916936,-0.04298 1.221309,0.417869 0.222264,0.336477 0.222341,0.338847 0.21838,2.032817 -0.009,3.827174 -0.217388,11.000005 -0.342402,11.79788 -0.116803,0.745512 -0.397,1.694526 -0.622794,2.22156 -0.898193,1.555715 -0.910051,1.532151 -2.342862,3.024963 l -4.081813,0 -4.381077,0 -0.285785,-0.355876 c -0.487416,-0.607306 -1.009575,-1.16413 -2.240409,-2.391628 -1.332798,-1.32919 -1.213051,-1.130495 -2.418353,-3.973971 -1.071849,-2.528633 -2.01125,-4.919051 -2.01125,-5.114402 0,-0.440131 1.33998,-0.62214 2.267375,-0.307325 0.790352,0.268256 1.221937,0.84407 1.528658,2.043607 0.189361,0.740498 0.332344,0.915476 0.830382,1.005624 0,0 0.570007,0.129333 0.598522,-1.334547 l 0.05125,-0.514965 c 0.06637,-0.688456 0.19016,-2.954383 0.350486,-6.392326 0.255801,-5.485684 0.259852,-5.536447 0.417885,-5.777625 0.532121,-0.812091 1.882274,-0.792987 2.367129,0.03251 0.165175,0.281095 0.172707,0.470165 0.223775,4.693815 0.04921,4.065233 0.08793,5.078587 0.215685,5.739882 0.228254,1.181462 0.533817,-3.624791 0.533817,-8.376617 0,-2.891231 0.0172,-3.002997 0.477202,-3.423979 0.272576,-0.249465 0.681984,-0.388719 1.073027,-0.399022 z"
     id="path16"
     inkscape:connector-curvature="0" />
</svg>
