<?xml version="1.0" encoding="UTF-8" standalone="no"?>
<!-- Created with Inkscape (http://www.inkscape.org/) -->

<svg
   xmlns:dc="http://purl.org/dc/elements/1.1/"
   xmlns:cc="http://creativecommons.org/ns#"
   xmlns:rdf="http://www.w3.org/1999/02/22-rdf-syntax-ns#"
   xmlns:svg="http://www.w3.org/2000/svg"
   xmlns="http://www.w3.org/2000/svg"
   xmlns:xlink="http://www.w3.org/1999/xlink"
   xmlns:sodipodi="http://sodipodi.sourceforge.net/DTD/sodipodi-0.dtd"
   xmlns:inkscape="http://www.inkscape.org/namespaces/inkscape"
   id="svg3067"
   version="1.1"
   inkscape:version="0.91 r"
   width="513"
   height="513"
   sodipodi:docname="contact-import-wizard.svg">
  <metadata
     id="metadata3073">
    <rdf:RDF>
      <cc:Work
         rdf:about="">
        <dc:format>image/svg+xml</dc:format>
        <dc:type
           rdf:resource="http://purl.org/dc/dcmitype/StillImage" />
        <dc:title />
      </cc:Work>
    </rdf:RDF>
  </metadata>
  <defs
     id="defs3071">
    <clipPath
       id="clipPath3362"
       clipPathUnits="userSpaceOnUse">
      <rect
         rx="34.298302"
         y="-164.84274"
         x="-359.67166"
         height="630.11896"
         width="507.22928"
         id="rect3364"
         style="opacity:1;fill:#f57900;fill-opacity:0.84153;fill-rule:nonzero;stroke:none;stroke-width:95.80000305;stroke-miterlimit:4;stroke-dasharray:none;stroke-opacity:1" />
    </clipPath>
    <clipPath
       id="clipPath3366"
       clipPathUnits="userSpaceOnUse">
      <rect
         rx="34.298302"
         y="-164.84274"
         x="-359.67166"
         height="630.11896"
         width="507.22928"
         id="rect3368"
         style="opacity:1;fill:#f57900;fill-opacity:0.84153;fill-rule:nonzero;stroke:none;stroke-width:95.80000305;stroke-miterlimit:4;stroke-dasharray:none;stroke-opacity:1" />
    </clipPath>
    <linearGradient
       id="0"
       x1="-123.97"
       y1="73.5"
       x2="-125.19"
       y2="-26.049999"
       gradientUnits="userSpaceOnUse"
       gradientTransform="matrix(0.07441,0,0,0.12847,437.54,506.97)">
      <stop
         id="stop17"
         stop-color="#0a80fd"
         offset="0" />
      <stop
         id="stop19"
         stop-color="#56c5fa"
         offset="1" />
    </linearGradient>
    <linearGradient
       id="1"
       x1="-123.97"
       y1="73.5"
       x2="-125.19"
       y2="-26.049999"
       gradientUnits="userSpaceOnUse"
       gradientTransform="matrix(0.68359704,0,0,1.1802407,518.47809,231.39387)">
      <stop
         id="stop22"
         stop-color="#ff9300" />
      <stop
         id="stop24"
         stop-color="#ffd702"
         offset="1" />
    </linearGradient>
    <linearGradient
       id="2"
       x1="-123.97"
       y1="73.5"
       x2="-125.19"
       y2="-26.049999"
       gradientUnits="userSpaceOnUse"
       gradientTransform="matrix(0.68359704,0,0,1.1802407,518.47809,364.32827)">
      <stop
         id="stop12"
         stop-color="#5dae33" />
      <stop
         id="stop14"
         stop-color="#9be058"
         offset="1" />
    </linearGradient>
    <linearGradient
       id="3"
       x1="-123.97"
       y1="73.5"
       x2="-125.19"
       y2="-26.049999"
       gradientUnits="userSpaceOnUse"
       gradientTransform="matrix(4.6689574,0,0,5.1082592,996.34625,-512.15252)">
      <stop
         id="stop7"
         stop-color="#141414" />
      <stop
         id="stop9"
         stop-color="#2d2d2f"
         offset="1" />
    </linearGradient>
    <linearGradient
       gradientUnits="userSpaceOnUse"
       y2="168.64098"
       x2="-44.394501"
       y1="159.2569"
       x1="-363.59406"
       id="linearGradient4229"
       xlink:href="#0-4"
       inkscape:collect="always" />
    <linearGradient
       id="0-4"
       x1="423.61"
       y1="578.01"
       x2="422.88"
       y2="530.42"
       gradientUnits="userSpaceOnUse">
      <stop
         stop-color="#197cf1"
         id="stop3370" />
      <stop
         offset="1"
         stop-color="#20bcfa"
         id="stop3372" />
    </linearGradient>
  </defs>
  <sodipodi:namedview
     pagecolor="#ffffff"
     bordercolor="#666666"
     borderopacity="1"
     objecttolerance="10"
     gridtolerance="10"
     guidetolerance="10"
     inkscape:pageopacity="0"
     inkscape:pageshadow="2"
     inkscape:window-width="1366"
     inkscape:window-height="744"
     id="namedview3069"
     showgrid="false"
     inkscape:zoom="0.65059337"
     inkscape:cx="299.11818"
     inkscape:cy="235.24147"
     inkscape:window-x="0"
     inkscape:window-y="24"
     inkscape:window-maximized="1"
     inkscape:current-layer="svg3067" />
  <g
     id="g3388"
     transform="translate(-2.0759628,0.83474011)">
    <rect
       id="rect30"
       rx="5.5643678"
       y="47.852684"
       x="397.9436"
       height="128.9295"
       width="72.176949"
       style="fill:#eeeeec;fill-rule:evenodd;stroke-width:1.11399996" />
    <rect
       id="rect32"
       rx="5.5643678"
       y="192.20671"
       x="397.9436"
       height="128.9295"
       width="72.176949"
       style="fill:#eeeeec;fill-rule:evenodd;stroke-width:1.11399996" />
    <rect
       id="rect34"
       rx="5.5643678"
       y="336.76016"
       x="397.9436"
       height="128.9295"
       width="72.176949"
       style="fill:#eeeeec;fill-rule:evenodd;stroke-width:1.11399996" />
    <rect
       rx="35.19479"
       y="20.507767"
       x="53.557106"
       height="473.00809"
       width="395.88586"
       id="rect3341"
       style="opacity:1;fill:#d3d7cf;fill-opacity:1;fill-rule:nonzero;stroke:none;stroke-width:95.80000305;stroke-miterlimit:4;stroke-dasharray:none;stroke-opacity:1" />
    <rect
       transform="matrix(1.0874061,0,0,1.0874061,497.44796,81.928114)"
       clip-path="url(#clipPath3362)"
       rx="34.298294"
       y="-56.480129"
       x="-428.07077"
       height="434.98752"
       width="385.80167"
       id="rect3341-6"
       style="opacity:1;fill:url(#linearGradient4229);fill-opacity:1;fill-rule:nonzero;stroke:none;stroke-width:95.80000305;stroke-miterlimit:4;stroke-dasharray:none;stroke-opacity:1" />
    <path
       style="fill:#ffffff;fill-opacity:0.80874317"
       d="m 260.22888,394.19248 c -20.34759,-2.51961 -40.06013,-9.81056 -57.0304,-21.09346 -26.35369,-17.52161 -45.53517,-43.16236 -54.55834,-72.93062 -2.10236,-6.93587 -4.23561,-17.41761 -4.98548,-24.49619 -0.69194,-6.53163 -0.69194,-22.52617 0,-29.05781 5.61578,-53.01115 43.12698,-98.28511 94.27942,-113.79012 6.93587,-2.10236 17.41762,-4.23561 24.49618,-4.98549 6.53164,-0.69193 22.52618,-0.69193 29.05781,0 30.94196,3.27787 59.66596,17.35827 81.69927,40.04869 15.15635,15.60836 25.87363,33.71972 32.09087,54.23074 3.86182,12.7404 5.52326,24.47994 5.52326,39.02508 0,10.932 -0.54783,16.92677 -2.41121,26.38515 -9.47903,48.11342 -45.33435,87.66584 -92.40601,101.93389 -6.93587,2.10236 -17.41761,4.23561 -24.49618,4.98548 -6.85221,0.7259 -24.49913,0.58174 -31.25919,-0.25534 z M 195.66041,349.468 c 3.23063,-2.20583 13.31814,-6.99719 23.22323,-11.03057 18.27158,-7.44024 24.52067,-10.89789 28.43884,-15.73534 3.4709,-4.28524 3.54254,-4.60746 3.60809,-16.22919 l 0.0596,-10.56195 -2.72216,-3.58583 c -4.31187,-5.67991 -7.47952,-12.706 -8.93556,-19.81971 -0.55954,-2.73371 -0.80616,-3.11187 -2.63922,-4.04704 -4.40827,-2.24893 -7.04939,-8.35187 -7.04939,-16.28927 0,-4.90448 0.0523,-5.12734 1.77989,-7.57999 1.76605,-2.50734 1.77501,-2.54926 1.15414,-5.40339 -4.49859,-20.67973 -4.46212,-36.23737 0.11223,-47.87786 6.29599,-16.02154 21.35268,-24.37604 44.00769,-24.41854 11.61998,-0.0217 18.10122,2.00046 23.00415,7.1777 1.62817,1.71925 2.61229,2.29102 4.44399,2.58191 1.29398,0.20549 4.05589,1.19266 6.13759,2.19371 7.51128,3.61203 12.7221,11.08869 14.54461,20.86913 1.9593,10.51452 0.6205,25.91819 -3.4997,40.26573 -0.57195,1.99171 -0.51166,2.22941 1.17157,4.61916 1.72134,2.44384 1.77455,2.67093 1.77455,7.57244 0,7.92469 -2.64159,14.04059 -7.03184,16.28032 -1.90178,0.97022 -2.05029,1.23111 -2.89915,5.09269 -1.62342,7.38518 -5.83615,16.27653 -9.52645,20.10648 l -1.8502,1.92021 0.2239,10.62751 c 0.22153,10.51389 0.23993,10.65691 1.72132,13.37798 3.2245,5.92282 9.2862,10.11986 22.5334,15.60186 17.32064,7.16768 23.89355,10.13481 28.22227,12.74005 2.97579,1.79097 4.79602,2.58074 5.46134,2.36958 1.33058,-0.4223 9.69852,-9.73544 14.39941,-16.02586 11.99037,-16.04474 19.8732,-35.12774 23.07604,-55.86349 1.29489,-8.38307 1.29043,-26.17392 -0.0109,-34.50624 -2.08336,-13.36331 -5.91747,-25.59113 -11.62881,-37.08738 -18.12203,-36.47753 -51.79844,-60.91074 -92.75475,-67.29626 -8.36636,-1.3044 -26.1399,-1.3044 -34.50624,0 -13.36331,2.08348 -25.59115,5.91757 -37.08739,11.6289 -36.47753,18.12201 -60.91073,51.79843 -67.29625,92.75474 -1.3044,8.36635 -1.3044,26.1399 0,34.50624 4.09129,26.24128 15.16326,48.8351 33.37092,68.09772 2.10658,2.22864 4.18304,4.05042 4.61438,4.04842 0.43133,-0.002 1.49004,-0.48557 2.3527,-1.07457 z"
       id="path2982-7"
       inkscape:connector-curvature="0" />
  </g>
  <g
     id="g3356"
     style="fill:#44aa00;stroke:#44aa00;stroke-width:44.80791092;stroke-miterlimit:4;stroke-dasharray:none;stroke-opacity:1"
     transform="matrix(0.47480454,0,0,0.47480454,-3.5762499,240.10164)">
    <path
       id="path3338-8"
       d="m 739.30565,294.73771 0,-215.108092 30.76062,0 30.76059,0 0,215.108092 0,215.10809 -30.76059,0 -30.76062,0 0,-215.10809 z"
       style="fill:#44aa00;stroke:#44aa00;stroke-width:44.80791092;stroke-miterlimit:4;stroke-dasharray:none;stroke-opacity:1"
       inkscape:connector-curvature="0" />
    <path
       id="path3338-87"
       d="m 773.14037,260.90299 215.10809,0 0,30.76061 0,30.76059 -215.10809,0 -215.10809,0 0,-30.76059 0,-30.76061 215.10809,0 z"
       style="fill:#44aa00;stroke:#44aa00;stroke-width:44.80791092;stroke-miterlimit:4;stroke-dasharray:none;stroke-opacity:1"
       inkscape:connector-curvature="0" />
  </g>
</svg>
