<?xml version="1.0" encoding="UTF-8" standalone="no"?>
<!-- Generator: flash2svg, http://dissentgraphics.com/tools/flash2svg -->

<svg
   xmlns:dc="http://purl.org/dc/elements/1.1/"
   xmlns:cc="http://creativecommons.org/ns#"
   xmlns:rdf="http://www.w3.org/1999/02/22-rdf-syntax-ns#"
   xmlns:svg="http://www.w3.org/2000/svg"
   xmlns="http://www.w3.org/2000/svg"
   xmlns:xlink="http://www.w3.org/1999/xlink"
   xmlns:sodipodi="http://sodipodi.sourceforge.net/DTD/sodipodi-0.dtd"
   xmlns:inkscape="http://www.inkscape.org/namespaces/inkscape"
   id="Drive-Removable"
   image-rendering="optimizeSpeed"
   version="1.1"
   style="background-color:#ffffff"
   x="0px"
   y="0px"
   width="1024px"
   height="1024px"
   viewBox="0 0 1024 1024"
   enable-background="new 0 0 1024 1024"
   inkscape:version="0.91 r"
   sodipodi:docname="ddrescue-gui.svg">
  <metadata
     id="metadata26">
    <rdf:RDF>
      <cc:Work
         rdf:about="">
        <dc:format>image/svg+xml</dc:format>
        <dc:type
           rdf:resource="http://purl.org/dc/dcmitype/StillImage" />
        <dc:title />
      </cc:Work>
    </rdf:RDF>
  </metadata>
  <sodipodi:namedview
     pagecolor="#ffffff"
     bordercolor="#666666"
     borderopacity="1"
     objecttolerance="10"
     gridtolerance="10"
     guidetolerance="10"
     inkscape:pageopacity="0"
     inkscape:pageshadow="2"
     inkscape:window-width="1349"
     inkscape:window-height="701"
     id="namedview24"
     showgrid="false"
     inkscape:zoom="0.32593203"
     inkscape:cx="856.72479"
     inkscape:cy="672.07308"
     inkscape:window-x="13"
     inkscape:window-y="37"
     inkscape:window-maximized="0"
     inkscape:current-layer="Drive-Removable" />
  <defs
     transform="matrix(1 0 0 1 0 0) "
     id="defs3">
    <linearGradient
       id="linearGradient5076"
       inkscape:collect="always">
      <stop
         id="stop5078"
         offset="0"
         style="stop-color:#c52828;stop-opacity:1" />
      <stop
         id="stop5080"
         offset="1"
         style="stop-color:#ff5454;stop-opacity:1" />
    </linearGradient>
    <linearGradient
       gradientTransform="matrix(0.95323403,0,0,0.95323401,12.503542,5.4841689)"
       gradientUnits="userSpaceOnUse"
       y2="-118.49677"
       x2="223.75114"
       y1="308.28076"
       x1="223.75114"
       id="linearGradient4975"
       xlink:href="#linearGradient5076"
       inkscape:collect="always" />
    <linearGradient
       gradientUnits="userSpaceOnUse"
       y2="-128.3981"
       x2="217.88428"
       y1="314.41678"
       x1="220.51286"
       id="linearGradient4227"
       xlink:href="#linearGradient5076"
       inkscape:collect="always" />
    <linearGradient
       inkscape:collect="always"
       xlink:href="#linearGradient5076"
       id="linearGradient4294"
       gradientUnits="userSpaceOnUse"
       x1="220.51286"
       y1="314.41678"
       x2="217.88428"
       y2="-128.3981" />
    <linearGradient
       inkscape:collect="always"
       xlink:href="#linearGradient5076"
       id="linearGradient4296"
       gradientUnits="userSpaceOnUse"
       x1="220.51286"
       y1="314.41678"
       x2="217.88428"
       y2="-128.3981" />
    <linearGradient
       inkscape:collect="always"
       xlink:href="#linearGradient5076"
       id="linearGradient4298"
       gradientUnits="userSpaceOnUse"
       x1="220.51286"
       y1="314.41678"
       x2="217.88428"
       y2="-128.3981" />
    <linearGradient
       inkscape:collect="always"
       xlink:href="#linearGradient5076"
       id="linearGradient4300"
       gradientUnits="userSpaceOnUse"
       x1="220.51286"
       y1="314.41678"
       x2="217.88428"
       y2="-128.3981" />
    <linearGradient
       inkscape:collect="always"
       xlink:href="#linearGradient5076"
       id="linearGradient4302"
       gradientUnits="userSpaceOnUse"
       x1="220.51286"
       y1="314.41678"
       x2="217.88428"
       y2="-128.3981" />
    <linearGradient
       inkscape:collect="always"
       xlink:href="#linearGradient5076"
       id="linearGradient4304"
       gradientUnits="userSpaceOnUse"
       x1="220.51286"
       y1="314.41678"
       x2="217.88428"
       y2="-128.3981" />
    <linearGradient
       inkscape:collect="always"
       xlink:href="#linearGradient5076"
       id="linearGradient4306"
       gradientUnits="userSpaceOnUse"
       x1="220.51286"
       y1="314.41678"
       x2="217.88428"
       y2="-128.3981" />
    <linearGradient
       inkscape:collect="always"
       xlink:href="#linearGradient5076"
       id="linearGradient4308"
       gradientUnits="userSpaceOnUse"
       x1="220.51286"
       y1="314.41678"
       x2="217.88428"
       y2="-128.3981" />
    <linearGradient
       inkscape:collect="always"
       xlink:href="#linearGradient5076"
       id="linearGradient4310"
       gradientUnits="userSpaceOnUse"
       x1="220.51286"
       y1="314.41678"
       x2="217.88428"
       y2="-128.3981" />
    <linearGradient
       inkscape:collect="always"
       xlink:href="#linearGradient5076"
       id="linearGradient4312"
       gradientUnits="userSpaceOnUse"
       x1="220.51286"
       y1="314.41678"
       x2="217.88428"
       y2="-128.3981" />
    <linearGradient
       inkscape:collect="always"
       xlink:href="#linearGradient5076"
       id="linearGradient4314"
       gradientUnits="userSpaceOnUse"
       x1="220.51286"
       y1="314.41678"
       x2="217.88428"
       y2="-128.3981" />
    <linearGradient
       inkscape:collect="always"
       xlink:href="#linearGradient5076"
       id="linearGradient4316"
       gradientUnits="userSpaceOnUse"
       x1="220.51286"
       y1="314.41678"
       x2="217.88428"
       y2="-128.3981" />
    <linearGradient
       inkscape:collect="always"
       xlink:href="#linearGradient5076"
       id="linearGradient4318"
       gradientUnits="userSpaceOnUse"
       x1="220.51286"
       y1="314.41678"
       x2="217.88428"
       y2="-128.3981" />
    <linearGradient
       inkscape:collect="always"
       xlink:href="#linearGradient5076"
       id="linearGradient4320"
       gradientUnits="userSpaceOnUse"
       x1="220.51286"
       y1="314.41678"
       x2="217.88428"
       y2="-128.3981" />
    <linearGradient
       inkscape:collect="always"
       xlink:href="#linearGradient5076"
       id="linearGradient4322"
       gradientUnits="userSpaceOnUse"
       x1="220.51286"
       y1="314.41678"
       x2="217.88428"
       y2="-128.3981" />
    <linearGradient
       inkscape:collect="always"
       xlink:href="#linearGradient5076"
       id="linearGradient4324"
       gradientUnits="userSpaceOnUse"
       x1="220.51286"
       y1="314.41678"
       x2="217.88428"
       y2="-128.3981" />
    <linearGradient
       inkscape:collect="always"
       xlink:href="#linearGradient5076"
       id="linearGradient4326"
       gradientUnits="userSpaceOnUse"
       x1="220.51286"
       y1="314.41678"
       x2="217.88428"
       y2="-128.3981" />
    <linearGradient
       inkscape:collect="always"
       xlink:href="#linearGradient5076"
       id="linearGradient4328"
       gradientUnits="userSpaceOnUse"
       x1="220.51286"
       y1="314.41678"
       x2="217.88428"
       y2="-128.3981" />
    <linearGradient
       inkscape:collect="always"
       xlink:href="#linearGradient5076"
       id="linearGradient4330"
       gradientUnits="userSpaceOnUse"
       x1="220.51286"
       y1="314.41678"
       x2="217.88428"
       y2="-128.3981" />
    <linearGradient
       inkscape:collect="always"
       xlink:href="#linearGradient5076"
       id="linearGradient4332"
       gradientUnits="userSpaceOnUse"
       x1="220.51286"
       y1="314.41678"
       x2="217.88428"
       y2="-128.3981" />
  </defs>
  <g
     id="Calque.__202"
     transform="matrix(0.98038434,0,0,1,2.8432893,0)">
    <g
       id="shape">
      <path
         id="path"
         d="M 919.15,109.8 Q 918.7,89.9 904.5,75.7 C 894.75,65.95 882.95,61.05 869.15,61.05 l -674.2,0 c -13.8,0 -25.6,4.9 -35.35,14.65 -9.45,9.45 -14.35,20.85 -14.65,34.1 l 0,843.25 c 0,13.8 4.9,25.6 14.65,35.35 9.75,9.75 21.55,14.65 35.35,14.65 l 674.2,0 c 13.8,0 25.6,-4.9 35.35,-14.65 9.75,-9.75 14.65,-21.55 14.65,-35.35 l 0,-843.25 z"
         inkscape:connector-curvature="0"
         style="fill:#000000;fill-opacity:0.09803922" />
    </g>
  </g>
  <g
     id="Calque.__203"
     transform="translate(13.01695,17.355932)">
    <g
       id="shape2">
      <path
         id="path1"
         d="M 884.5,55.7 C 874.75,45.95 862.95,41.05 849.15,41.05 l -674.2,0 c -13.8,0 -25.6,4.9 -35.35,14.65 -9.45,9.45 -14.35,20.85 -14.65,34.1 l 0,-0.025 0,724.575 q 0.458,19.858 14.65,34.05 c 9.75,9.75 21.55,14.65 35.35,14.65 l 674.2,0 c 13.8,0 25.6,-4.9 35.35,-14.65 9.45,-9.45 14.35,-20.8 14.65,-34.05 l 0,-724.575 0,0.025 c -0.3,-13.25 -5.2,-24.65 -14.65,-34.1 z"
         inkscape:connector-curvature="0"
         style="fill:#cccccc;fill-opacity:1" />
      <path
         id="path2"
         d="m 139.6,848.4 q -14.192,-14.192 -14.65,-34.05 l 0,118.7 c 0,13.8 4.9,25.6 14.65,35.35 9.75,9.75 21.55,14.65 35.35,14.65 l 674.2,0 c 13.8,0 25.6,-4.9 35.35,-14.65 9.75,-9.75 14.65,-21.55 14.65,-35.35 l 0,-118.7 c -0.3,13.25 -5.2,24.6 -14.65,34.05 -9.75,9.75 -21.55,14.65 -35.35,14.65 l -674.2,0 c -13.8,0 -25.6,-4.9 -35.35,-14.65 z"
         inkscape:connector-curvature="0"
         style="fill:#86837c;fill-opacity:0.98823529" />
    </g>
  </g>
  <g
     id="Calque.__204">
    <g
       id="Symbole.__2026_1"
       overflow="visible">
      <g
         id="Calque.__208">
        <g
           id="shape17">
          <path
             id="path11"
             fill="#3B3A36"
             fill-opacity="1"
             d="M518,918 Q518,909.7 512.15,903.85 C508.25,899.95 503.55,898 498,898 L196,898 C190.45,898 185.75,899.95 181.85,903.85 177.95,907.75 176,912.45 176,918 L176,926.2 C176,931.75 177.95,936.45 181.85,940.35 185.75,944.25 190.45,946.2 196,946.2 L498,946.2 C503.55,946.2 508.25,944.25 512.15,940.35 516.05,936.45 518,931.75 518,926.2 L518,918z" />
        </g>
      </g>
    </g>
  </g>
  <g
     id="Calque.__205">
    <g
       id="shape6">
      <path
         id="path3"
         fill="#000000"
         fill-opacity="0.2"
         d="M849.65,912.15 Q843.1,905.6 833.8,905.6 C827.6,905.6 822.3,907.8 817.9,912.15 813.55,916.55 811.35,921.85 811.35,928.05 811.35,934.25 813.55,939.55 817.9,943.9 822.3,948.3 827.6,950.5 833.8,950.5 840,950.5 845.3,948.3 849.65,943.9 854.05,939.55 856.25,934.25 856.25,928.05 856.25,921.85 854.05,916.55 849.65,912.15z M784.8,928.05 C784.8,921.85 782.6,916.55 778.2,912.15 773.85,907.8 768.55,905.6 762.35,905.6 756.15,905.6 750.85,907.8 746.45,912.15 742.1,916.55 739.9,921.85 739.9,928.05 739.9,934.25 742.1,939.55 746.45,943.9 750.85,948.3 756.15,950.5 762.35,950.5 768.55,950.5 773.85,948.3 778.2,943.9 782.6,939.55 784.8,934.25 784.8,928.05z" />
    </g>
  </g>
  <path
     id="path6"
     d="m 721.4,642 q 79.25,-79.25 79.25,-191.35 c 0,-74.75 -26.4,-138.5 -79.25,-191.35 -52.85,-52.85 -116.6,-79.25 -191.35,-79.25 -74.75,0 -138.5,26.4 -191.35,79.25 -52.85,52.85 -79.25,116.6 -79.25,191.35 0,74.75 26.4,138.5 79.25,191.35 52.85,52.85 116.6,79.25 191.35,79.25 74.75,0 138.5,-26.4 191.35,-79.25 z"
     inkscape:connector-curvature="0"
     style="fill:#ffffff;fill-opacity:0.09803922" />
  <path
     id="path7"
     d="m 829.05,940.5 c 6.2,0 11.5,-2.2 15.85,-6.6 4.4,-4.35 6.6,-9.65 6.6,-15.85 0,-6.2 -2.2,-11.5 -6.6,-15.9 -4.35,-4.35 -9.65,-6.55 -15.85,-6.55 -6.2,0 -11.5,2.2 -15.9,6.55 -4.35,4.4 -6.55,9.7 -6.55,15.9 0,6.2 2.2,11.5 6.55,15.85 4.4,4.4 9.7,6.6 15.9,6.6 z m -49,-22.45 c 0,-6.2 -2.2,-11.5 -6.6,-15.9 -4.35,-4.35 -9.65,-6.55 -15.85,-6.55 -6.2,0 -11.5,2.2 -15.9,6.55 -4.35,4.4 -6.55,9.7 -6.55,15.9 0,6.2 2.2,11.5 6.55,15.85 4.4,4.4 9.7,6.6 15.9,6.6 6.2,0 11.5,-2.2 15.85,-6.6 4.4,-4.35 6.6,-9.65 6.6,-15.85 z"
     inkscape:connector-curvature="0"
     style="fill:#cccc00;fill-opacity:1" />
  <g
     transform="matrix(10.497124,0,0,10.497124,-3761.7789,-5047.5191)"
     id="layer1-3"
     inkscape:label="Capa 1">
    <g
       style="stroke:none"
       transform="translate(404.1321,272.69663)"
       id="g4381">
      <g
         style="stroke:none"
         transform="matrix(0.17573559,0,0,0.17573559,3.0344898,224.81171)"
         id="g4340">
        <g
           style="stroke:none"
           id="report">
          <g
             style="stroke:none"
             transform="matrix(0.5683014,0,0,0.5683014,-121.04596,94.32632)"
             id="g5136">
            <g
               style="stroke:url(#linearGradient4227)"
               transform="matrix(1.0579814,0,0,1.0579814,-15.137798,-6.7832385)"
               id="g4452">
              <path
                 style="fill:url(#linearGradient4975);fill-opacity:1;stroke:url(#linearGradient4294);stroke-width:14.31701088;stroke-miterlimit:4;stroke-dasharray:none"
                 sodipodi:nodetypes="ccccccccc"
                 inkscape:connector-curvature="0"
                 d="m 317.90518,-120.47228 -179.87527,0 L 9.2003779,8.3573022 l 0,182.3059978 128.8295321,126.39883 182.30602,0 128.82862,-128.82958 0,-179.8752478 z"
                 id="path4343" />
              <g
                 id="g5224"
                 transform="matrix(1.6171928,0,0,1.6171928,-39.055967,-194.0582)"
                 style="fill:#ffffff;fill-opacity:0.85204091;stroke:url(#linearGradient4332)">
                <g
                   id="g5180"
                   style="fill:#ffffff;fill-opacity:0.85204091;stroke:url(#linearGradient4300)">
                  <path
                     id="path5184"
                     d="m 147.281,131.031 7.25,83 c 0.423,4.886 4.301,8.913 9.355,9.355 5.661,0.495 10.651,-3.694 11.145,-9.355 l 7.25,-83 c 0.078,-0.97 0.088,-2.057 0,-3.057 -0.844,-9.666 -9.363,-16.816 -19.028,-15.973 -9.665,0.845 -16.816,9.366 -15.972,19.03 z"
                     inkscape:connector-curvature="0"
                     style="fill:#ffffff;fill-opacity:0.85204091;stroke:url(#linearGradient4296)" />
                  <circle
                     id="circle5186"
                     r="14.5"
                     cy="243.03101"
                     cx="164.78101"
                     style="fill:#ffffff;fill-opacity:0.85204091;stroke:url(#linearGradient4298)" />
                </g>
                <g
                   id="g5188"
                   style="fill:#ffffff;fill-opacity:0.85204091;stroke:url(#linearGradient4302)" />
                <g
                   id="g5190"
                   style="fill:#ffffff;fill-opacity:0.85204091;stroke:url(#linearGradient4304)" />
                <g
                   id="g5192"
                   style="fill:#ffffff;fill-opacity:0.85204091;stroke:url(#linearGradient4306)" />
                <g
                   id="g5194"
                   style="fill:#ffffff;fill-opacity:0.85204091;stroke:url(#linearGradient4308)" />
                <g
                   id="g5196"
                   style="fill:#ffffff;fill-opacity:0.85204091;stroke:url(#linearGradient4310)" />
                <g
                   id="g5198"
                   style="fill:#ffffff;fill-opacity:0.85204091;stroke:url(#linearGradient4312)" />
                <g
                   id="g5200"
                   style="fill:#ffffff;fill-opacity:0.85204091;stroke:url(#linearGradient4314)" />
                <g
                   id="g5202"
                   style="fill:#ffffff;fill-opacity:0.85204091;stroke:url(#linearGradient4316)" />
                <g
                   id="g5204"
                   style="fill:#ffffff;fill-opacity:0.85204091;stroke:url(#linearGradient4318)" />
                <g
                   id="g5206"
                   style="fill:#ffffff;fill-opacity:0.85204091;stroke:url(#linearGradient4320)" />
                <g
                   id="g5208"
                   style="fill:#ffffff;fill-opacity:0.85204091;stroke:url(#linearGradient4322)" />
                <g
                   id="g5210"
                   style="fill:#ffffff;fill-opacity:0.85204091;stroke:url(#linearGradient4324)" />
                <g
                   id="g5212"
                   style="fill:#ffffff;fill-opacity:0.85204091;stroke:url(#linearGradient4326)" />
                <g
                   id="g5214"
                   style="fill:#ffffff;fill-opacity:0.85204091;stroke:url(#linearGradient4328)" />
                <g
                   id="g5216"
                   style="fill:#ffffff;fill-opacity:0.85204091;stroke:url(#linearGradient4330)" />
              </g>
            </g>
          </g>
        </g>
      </g>
      <g
         style="stroke:none"
         id="g4345" />
      <g
         style="stroke:none"
         id="g4347" />
      <g
         style="stroke:none"
         id="g4349" />
      <g
         style="stroke:none"
         id="g4351" />
      <g
         style="stroke:none"
         id="g4353" />
      <g
         style="stroke:none"
         id="g4355" />
      <g
         style="stroke:none"
         id="g4357" />
      <g
         style="stroke:none"
         id="g4359" />
      <g
         style="stroke:none"
         id="g4361" />
      <g
         style="stroke:none"
         id="g4363" />
      <g
         style="stroke:none"
         id="g4365" />
      <g
         style="stroke:none"
         id="g4367" />
      <g
         style="stroke:none"
         id="g4369" />
      <g
         style="stroke:none"
         id="g4371" />
      <g
         style="stroke:none"
         id="g4373" />
    </g>
  </g>
</svg>
