<?xml version="1.0" encoding="UTF-8" standalone="no"?>
<svg
   xmlns:dc="http://purl.org/dc/elements/1.1/"
   xmlns:cc="http://creativecommons.org/ns#"
   xmlns:rdf="http://www.w3.org/1999/02/22-rdf-syntax-ns#"
   xmlns:svg="http://www.w3.org/2000/svg"
   xmlns="http://www.w3.org/2000/svg"
   xmlns:xlink="http://www.w3.org/1999/xlink"
   xmlns:sodipodi="http://sodipodi.sourceforge.net/DTD/sodipodi-0.dtd"
   xmlns:inkscape="http://www.inkscape.org/namespaces/inkscape"
   width="250"
   height="250"
   id="svg2"
   version="1.1"
   inkscape:version="0.91 r"
   sodipodi:docname="dvdisaster.svg">
  <metadata
     id="metadata33">
    <rdf:RDF>
      <cc:Work
         rdf:about="">
        <dc:format>image/svg+xml</dc:format>
        <dc:type
           rdf:resource="http://purl.org/dc/dcmitype/StillImage" />
      </cc:Work>
    </rdf:RDF>
  </metadata>
  <sodipodi:namedview
     pagecolor="#ffffff"
     bordercolor="#666666"
     borderopacity="1"
     objecttolerance="10"
     gridtolerance="10"
     guidetolerance="10"
     inkscape:pageopacity="0"
     inkscape:pageshadow="2"
     inkscape:window-width="1366"
     inkscape:window-height="744"
     id="namedview31"
     showgrid="false"
     inkscape:zoom="1.888"
     inkscape:cx="117.73258"
     inkscape:cy="118.43082"
     inkscape:window-x="0"
     inkscape:window-y="24"
     inkscape:window-maximized="1"
     inkscape:current-layer="svg2" />
  <defs
     id="defs4">
    <linearGradient
       inkscape:collect="always"
       id="linearGradient3384">
      <stop
         style="stop-color:#000000;stop-opacity:1;"
         offset="0"
         id="stop3386" />
      <stop
         id="stop3394"
         offset="0.07618502"
         style="stop-color:#000000;stop-opacity:1" />
      <stop
         style="stop-color:#4d4d4d;stop-opacity:1"
         offset="0.51184607"
         id="stop3396" />
      <stop
         id="stop3392"
         offset="0.91402376"
         style="stop-color:#999999;stop-opacity:1" />
      <stop
         style="stop-color:#000000;stop-opacity:0;"
         offset="1"
         id="stop3388" />
    </linearGradient>
    <path
       id="y"
       d="m 425,25 c 110.4,0 200,89.6 200,200 0,110.4 -89.6,200 -200,200 -110.4,0 -200,89.6 -200,200 0,110.4 89.6,200 200,200 C 645.8,825 825,645.8 825,425 825,204.2 645.8,25 425,25 z m 0,537.5 c 34.5,0 62.5,28 62.5,62.5 0,34.5 -28,62.5 -62.5,62.5 -34.5,0 -62.5,-28 -62.5,-62.5 0,-34.5 28,-62.5 62.5,-62.5 z" />
    <path
       id="d"
       d="m 450,200 c 0,27.61424 -22.38576,50 -50,50 -27.61424,0 -50,-22.38576 -50,-50 0,-27.61424 22.38576,-50 50,-50 27.61424,0 50,22.38576 50,50 z" />
    <filter
       id="f">
      <feGaussianBlur
         stdDeviation="12.375"
         id="feGaussianBlur9" />
    </filter>
    <linearGradient
       inkscape:collect="always"
       xlink:href="#linearGradient3384"
       id="linearGradient3390"
       x1="126.43559"
       y1="-77.800835"
       x2="874.05341"
       y2="892.79071"
       gradientUnits="userSpaceOnUse" />
    <linearGradient
       inkscape:collect="always"
       xlink:href="#linearGradient3384"
       id="linearGradient3398"
       gradientUnits="userSpaceOnUse"
       x1="126.43559"
       y1="-77.800835"
       x2="874.05341"
       y2="892.79071" />
    <linearGradient
       inkscape:collect="always"
       xlink:href="#linearGradient3384"
       id="linearGradient3400"
       gradientUnits="userSpaceOnUse"
       x1="126.43559"
       y1="-77.800835"
       x2="874.05341"
       y2="892.79071" />
  </defs>
  <g
     id="g3402"
     transform="matrix(-1,0,0,-1,250,250)">
    <g
       transform="matrix(0.28267752,0,0,0.28267752,4.862053,4.86205)"
       id="g13">
      <g
         style="fill:url(#linearGradient3390);fill-opacity:1"
         id="g19"
         transform="translate(25,25)">
        <use
           style="fill:url(#linearGradient3398);fill-opacity:1"
           height="100%"
           width="100%"
           y="0"
           x="0"
           id="use21"
           transform="translate(-25,-25)"
           xlink:href="#y" />
        <use
           style="fill:url(#linearGradient3400);fill-opacity:1"
           height="100%"
           width="100%"
           y="0"
           x="0"
           id="use23"
           transform="matrix(1.25,0,0,1.25,-100,-50)"
           xlink:href="#d" />
      </g>
      <g
         transform="matrix(-1,0,0,-1,850,850)"
         style="fill:#ffffff"
         id="g25">
        <use
           height="100%"
           width="100%"
           y="0"
           x="0"
           id="use27"
           xlink:href="#y" />
        <use
           height="100%"
           width="100%"
           y="0"
           x="0"
           id="use29"
           transform="matrix(1.25,0,0,-1.25,-75,475)"
           xlink:href="#d" />
      </g>
    </g>
  </g>
</svg>
