<?xml version="1.0" encoding="UTF-8" standalone="no"?>
<!-- Created with Inkscape (http://www.inkscape.org/) -->

<svg
   xmlns:dc="http://purl.org/dc/elements/1.1/"
   xmlns:cc="http://creativecommons.org/ns#"
   xmlns:rdf="http://www.w3.org/1999/02/22-rdf-syntax-ns#"
   xmlns:svg="http://www.w3.org/2000/svg"
   xmlns="http://www.w3.org/2000/svg"
   xmlns:xlink="http://www.w3.org/1999/xlink"
   xmlns:sodipodi="http://sodipodi.sourceforge.net/DTD/sodipodi-0.dtd"
   xmlns:inkscape="http://www.inkscape.org/namespaces/inkscape"
   version="1.0"
   width="128"
   height="128"
   id="svg2408"
   inkscape:version="0.91 r"
   sodipodi:docname="easytag.svg">
  <metadata
     id="metadata122">
    <rdf:RDF>
      <cc:Work
         rdf:about="">
        <dc:format>image/svg+xml</dc:format>
        <dc:type
           rdf:resource="http://purl.org/dc/dcmitype/StillImage" />
        <dc:title />
      </cc:Work>
    </rdf:RDF>
  </metadata>
  <sodipodi:namedview
     pagecolor="#ffffff"
     bordercolor="#666666"
     borderopacity="1"
     objecttolerance="10"
     gridtolerance="10"
     guidetolerance="10"
     inkscape:pageopacity="0"
     inkscape:pageshadow="2"
     inkscape:window-width="1366"
     inkscape:window-height="744"
     id="namedview120"
     showgrid="false"
     inkscape:zoom="2.4583333"
     inkscape:cx="-29.509725"
     inkscape:cy="44.874117"
     inkscape:window-x="0"
     inkscape:window-y="24"
     inkscape:window-maximized="1"
     inkscape:current-layer="svg2408" />
  <defs
     id="defs2410">
    <linearGradient
       inkscape:collect="always"
       id="linearGradient4228">
      <stop
         style="stop-color:#b77223;stop-opacity:1;"
         offset="0"
         id="stop4230" />
      <stop
         id="stop4236"
         offset="0.11961453"
         style="stop-color:#ecd450;stop-opacity:1" />
      <stop
         style="stop-color:#d4a81c;stop-opacity:1"
         offset="0.43546084"
         id="stop4238" />
      <stop
         id="stop4240"
         offset="0.92975253"
         style="stop-color:#985c00;stop-opacity:1" />
      <stop
         style="stop-color:#b77223;stop-opacity:0;"
         offset="1"
         id="stop4232" />
    </linearGradient>
    <linearGradient
       id="linearGradient4432">
      <stop
         id="stop4434"
         style="stop-color:#e7b67d;stop-opacity:0.71372551"
         offset="0" />
      <stop
         id="stop4436"
         style="stop-color:#e2ac6e;stop-opacity:1"
         offset="1" />
    </linearGradient>
    <linearGradient
       id="linearGradient4199">
      <stop
         id="stop4201"
         style="stop-color:#ffffff;stop-opacity:1"
         offset="0" />
      <stop
         id="stop4203"
         style="stop-color:#ffffff;stop-opacity:0"
         offset="1" />
    </linearGradient>
    <linearGradient
       id="linearGradient3953">
      <stop
         id="stop3955"
         style="stop-color:#d78a26;stop-opacity:1"
         offset="0" />
      <stop
         id="stop3957"
         style="stop-color:#eaac5e;stop-opacity:1"
         offset="1" />
    </linearGradient>
    <linearGradient
       id="linearGradient3816">
      <stop
         id="stop3818"
         style="stop-color:#e9e9e9;stop-opacity:1"
         offset="0" />
      <stop
         id="stop3820"
         style="stop-color:#828282;stop-opacity:1"
         offset="1" />
    </linearGradient>
    <linearGradient
       id="linearGradient3785">
      <stop
         id="stop3787"
         style="stop-color:#b77223;stop-opacity:1"
         offset="0" />
      <stop
         id="stop3789"
         style="stop-color:#b27024;stop-opacity:1"
         offset="1" />
    </linearGradient>
    <linearGradient
       id="linearGradient3705">
      <stop
         id="stop3707"
         style="stop-color:#305388;stop-opacity:1"
         offset="0" />
      <stop
         id="stop3709"
         style="stop-color:#7e9fd2;stop-opacity:1"
         offset="1" />
    </linearGradient>
    <linearGradient
       id="linearGradient3680">
      <stop
         id="stop3682"
         style="stop-color:#ebebeb;stop-opacity:1"
         offset="0" />
      <stop
         id="stop3684"
         style="stop-color:#ffffff;stop-opacity:1"
         offset="1" />
    </linearGradient>
    <linearGradient
       x1="45.447727"
       y1="92.539597"
       x2="45.447727"
       y2="7.0165396"
       id="ButtonShadow"
       gradientUnits="userSpaceOnUse"
       gradientTransform="scale(1.0058652,0.994169)">
      <stop
         id="stop3750"
         style="stop-color:#000000;stop-opacity:1"
         offset="0" />
      <stop
         id="stop3752"
         style="stop-color:#000000;stop-opacity:0.58823532"
         offset="1" />
    </linearGradient>
    <linearGradient
       id="linearGradient3737">
      <stop
         id="stop3739"
         style="stop-color:#ffffff;stop-opacity:1"
         offset="0" />
      <stop
         id="stop3741"
         style="stop-color:#ffffff;stop-opacity:0"
         offset="1" />
    </linearGradient>
    <filter
       id="filter3174"
       style="color-interpolation-filters:sRGB">
      <feGaussianBlur
         id="feGaussianBlur3176"
         stdDeviation="1.71" />
    </filter>
    <linearGradient
       x1="36.357143"
       y1="6"
       x2="36.357143"
       y2="63.893143"
       id="linearGradient3188"
       xlink:href="#linearGradient3737"
       gradientUnits="userSpaceOnUse" />
    <filter
       x="-0.192"
       y="-0.192"
       width="1.3839999"
       height="1.3839999"
       id="filter3794"
       style="color-interpolation-filters:sRGB">
      <feGaussianBlur
         id="feGaussianBlur3796"
         stdDeviation="5.28" />
    </filter>
    <linearGradient
       x1="48"
       y1="20.220806"
       x2="48"
       y2="138.66119"
       id="linearGradient3613"
       xlink:href="#linearGradient3737"
       gradientUnits="userSpaceOnUse" />
    <radialGradient
       cx="48"
       cy="90.171875"
       r="42"
       fx="48"
       fy="90.171875"
       id="radialGradient3619"
       xlink:href="#linearGradient3737"
       gradientUnits="userSpaceOnUse"
       gradientTransform="matrix(1.1573129,0,0,0.99590774,-7.5510206,0.19713193)" />
    <clipPath
       id="clipPath3613">
      <rect
         width="84"
         height="84"
         rx="6"
         ry="6"
         x="6"
         y="6"
         id="rect3615"
         style="fill:#ffffff;fill-opacity:1;fill-rule:nonzero;stroke:none" />
    </clipPath>
    <linearGradient
       x1="45.447727"
       y1="92.539597"
       x2="45.447727"
       y2="7.0165396"
       id="ButtonShadow-0"
       gradientUnits="userSpaceOnUse"
       gradientTransform="matrix(1.0058652,0,0,0.994169,100,0)">
      <stop
         id="stop3750-8"
         style="stop-color:#000000;stop-opacity:1"
         offset="0" />
      <stop
         id="stop3752-5"
         style="stop-color:#000000;stop-opacity:0.58823532"
         offset="1" />
    </linearGradient>
    <linearGradient
       x1="32.251034"
       y1="6.1317081"
       x2="32.251034"
       y2="90.238609"
       id="linearGradient3721"
       xlink:href="#ButtonShadow-0"
       gradientUnits="userSpaceOnUse"
       gradientTransform="matrix(1,0,0,-1,0,97)" />
    <linearGradient
       x1="59.445351"
       y1="69.246223"
       x2="59.445351"
       y2="13.154833"
       id="linearGradient3686"
       xlink:href="#linearGradient3680"
       gradientUnits="userSpaceOnUse"
       gradientTransform="matrix(1.2885607,0,0,1.2885585,-163.41261,-9.6622422)" />
    <linearGradient
       x1="72"
       y1="80"
       x2="32"
       y2="8"
       id="linearGradient3711"
       xlink:href="#linearGradient3705"
       gradientUnits="userSpaceOnUse"
       gradientTransform="translate(90,0)" />
    <linearGradient
       x1="72"
       y1="80"
       x2="32"
       y2="16"
       id="linearGradient3719"
       xlink:href="#linearGradient3705"
       gradientUnits="userSpaceOnUse"
       gradientTransform="translate(90,0)" />
    <linearGradient
       x1="48"
       y1="40"
       x2="60.594677"
       y2="87.003983"
       id="linearGradient3791"
       xlink:href="#linearGradient3785"
       gradientUnits="userSpaceOnUse"
       gradientTransform="matrix(1.2885607,0,0,1.2885585,-148.77431,118.9753)" />
    <linearGradient
       x1="48"
       y1="90"
       x2="48"
       y2="5.9877172"
       id="linearGradient3812"
       xlink:href="#linearGradient3953"
       gradientUnits="userSpaceOnUse" />
    <linearGradient
       x1="10"
       y1="16.5"
       x2="23"
       y2="16.5"
       id="linearGradient3822"
       xlink:href="#linearGradient3816"
       gradientUnits="userSpaceOnUse"
       gradientTransform="matrix(0,-1,-1,0,33,33)" />
    <linearGradient
       x1="10"
       y1="16.5"
       x2="23"
       y2="16.5"
       id="linearGradient3830"
       xlink:href="#linearGradient3816"
       gradientUnits="userSpaceOnUse"
       gradientTransform="matrix(0,1,-1,0,33,0)" />
    <linearGradient
       x1="32.251034"
       y1="6.1317081"
       x2="32.251034"
       y2="90.238609"
       id="linearGradient3847"
       xlink:href="#ButtonShadow-0"
       gradientUnits="userSpaceOnUse"
       gradientTransform="matrix(1.0238095,0,0,-1.0119048,-1.1428571,98.071429)" />
    <linearGradient
       x1="32.251034"
       y1="6.1317081"
       x2="32.251034"
       y2="90.238609"
       id="linearGradient3858"
       xlink:href="#ButtonShadow-0"
       gradientUnits="userSpaceOnUse"
       gradientTransform="matrix(1.0238095,0,0,-1.0119048,-1.1428571,98.071429)" />
    <linearGradient
       x1="32.251034"
       y1="6.1317081"
       x2="32.251034"
       y2="90.238609"
       id="linearGradient3866"
       xlink:href="#ButtonShadow-0"
       gradientUnits="userSpaceOnUse"
       gradientTransform="matrix(1.0238095,0,0,-1.0119048,-1.1428571,98.071429)" />
    <linearGradient
       x1="32.251034"
       y1="6.1317081"
       x2="32.251034"
       y2="90.238609"
       id="linearGradient3875"
       xlink:href="#ButtonShadow-0"
       gradientUnits="userSpaceOnUse"
       gradientTransform="matrix(1.0238095,0,0,-1.0119048,-1.1428571,98.071429)" />
    <linearGradient
       x1="47.474781"
       y1="51.296783"
       x2="45.96315"
       y2="-22.609013"
       id="linearGradient4205"
       xlink:href="#linearGradient4199"
       gradientUnits="userSpaceOnUse"
       gradientTransform="translate(100,0)" />
    <linearGradient
       x1="35.951328"
       y1="9.965951"
       x2="35.951328"
       y2="85.237114"
       id="linearGradient4430"
       xlink:href="#linearGradient4432"
       gradientUnits="userSpaceOnUse"
       gradientTransform="matrix(0.97368421,0,0,0.9736825,1.2631579,1.2633047)" />
    <linearGradient
       inkscape:collect="always"
       xlink:href="#linearGradient4228"
       id="linearGradient4234"
       x1="-5.9067774"
       y1="-2.9830554"
       x2="136.07626"
       y2="135.72881"
       gradientUnits="userSpaceOnUse" />
  </defs>
  <g
     id="layer2"
     style="display:none"
     transform="translate(0,32)">
    <rect
       width="86"
       height="85"
       rx="6"
       ry="6"
       x="5"
       y="7"
       id="rect3745"
       style="opacity:0.9;fill:url(#ButtonShadow);fill-opacity:1;fill-rule:nonzero;stroke:none;filter:url(#filter3174)" />
  </g>
  <g
     id="layer6"
     style="display:none"
     transform="translate(0,32)">
    <g
       transform="translate(2,0)"
       id="g3968"
       style="font-style:normal;font-variant:normal;font-weight:bold;font-stretch:normal;font-size:15.361413px;line-height:125%;font-family:dwerneck;-inkscape-font-specification:'dwerneck Bold';text-align:start;writing-mode:lr-tb;text-anchor:start;fill:#1e3352;fill-opacity:1;stroke:none">
      <path
         d="m 23.947883,33.230141 0,0.614457 c 0.614452,-0.08192 1.290354,-0.189448 2.027707,-0.32259 0.747582,-0.133122 1.49517,-0.235532 2.242766,-0.307228 0.757821,-0.08192 1.484927,-0.10752 2.181321,-0.07681 0.706613,0.02049 1.33131,0.143383 1.874092,0.368674 -0.614468,0.389165 -1.285249,0.681031 -2.012345,0.8756 -0.716876,0.194587 -1.454223,0.358442 -2.212044,0.491566 -0.747596,0.13314 -1.500304,0.276513 -2.258127,0.430119 -0.757835,0.143381 -1.484941,0.368681 -2.181321,0.675902 l -0.614456,0.937046 c 0.389152,7e-6 0.824392,-0.04096 1.30572,-0.122891 0.481319,-0.09216 0.962643,-0.168969 1.443972,-0.230421 0.481319,-0.06144 0.93704,-0.0768 1.367166,-0.04608 0.440353,0.03073 0.814147,0.163861 1.121383,0.399396 0.09216,0.153621 0.09216,0.276512 0,0.368674 -0.08193,0.09217 -0.199706,0.168981 -0.353312,0.230422 -0.153622,0.05121 -0.317477,0.102414 -0.491565,0.153614 -0.174104,0.04097 -0.296995,0.09729 -0.368674,0.168975 -0.778318,0.174101 -1.551508,0.348197 -2.319574,0.522288 -0.757833,0.16386 -1.525903,0.409642 -2.304212,0.737348 -2e-6,0.153618 -0.01536,0.322593 -0.04608,0.506927 -0.02048,0.174099 -0.03585,0.348195 -0.04608,0.522288 -2e-6,0.174098 0.0256,0.337953 0.07681,0.491565 0.0512,0.143375 0.153612,0.256026 0.307228,0.337951 0.46084,0.07169 0.942163,0.09729 1.443973,0.07681 0.501802,-0.03072 1.003607,-0.07681 1.505419,-0.138253 0.5018,-0.06144 1.003605,-0.122889 1.505418,-0.184337 0.501799,-0.06144 0.983122,-0.09217 1.443973,-0.09217 0.143364,0.08193 0.250894,0.163857 0.32259,0.245783 0.08192,0.08193 0.138243,0.174098 0.168975,0.276505 0.04096,0.09217 0.06144,0.1997 0.06145,0.32259 0.01023,0.112651 0.01535,0.245784 0.01536,0.399396 -0.696392,0.235543 -1.403017,0.440362 -2.119875,0.614457 -0.716872,0.163855 -1.433737,0.261144 -2.150598,0.291867 -0.706629,0.02048 -1.403012,-0.05633 -2.089152,-0.230421 -0.686145,-0.184337 -1.336444,-0.506926 -1.950899,-0.967769 -0.235543,-0.08193 -0.399397,-0.23042 -0.491566,-0.445481 -0.09217,-0.215058 -0.148493,-0.45572 -0.168975,-0.721987 -0.02048,-0.276502 -0.02048,-0.558128 0,-0.844878 0.02048,-0.286742 0.03072,-0.547886 0.03072,-0.783432 0.2253,-0.532524 0.424998,-1.080414 0.599095,-1.643671 0.174095,-0.573486 0.348191,-1.141858 0.522288,-1.705117 0.184335,-0.563243 0.378913,-1.111133 0.583734,-1.643671 0.204816,-0.532519 0.46084,-1.029204 0.76807,-1.490057 0.317466,1.1e-5 0.604213,0.07682 0.860239,0.230421 0.266261,0.153625 0.399393,0.389166 0.399397,0.706625"
         id="path3970"
         inkscape:connector-curvature="0" />
      <path
         d="m 36.219732,37.838565 c 0.112644,0.215065 0.17409,0.440365 0.184337,0.675902 0.01024,0.235546 -6e-6,0.471088 -0.03072,0.706625 -0.02049,0.225305 -0.05121,0.450605 -0.09217,0.675903 -0.03073,0.215062 -0.04097,0.419881 -0.03072,0.614456 0.01023,0.19458 0.06144,0.373797 0.153614,0.53765 0.09216,0.163856 0.250897,0.302109 0.476204,0.414758 0.327703,10e-7 0.634931,-0.03072 0.921685,-0.09217 0.296979,-0.07169 0.578605,-0.138251 0.844877,-0.199698 0.276497,-0.07169 0.537641,-0.117769 0.783432,-0.138253 0.256015,-0.03072 0.506917,-0.0051 0.75271,0.07681 0.08192,0.09217 0.158724,0.1997 0.230421,0.32259 0.07168,0.112652 0.128001,0.230422 0.168975,0.353312 0.04095,0.122893 0.05632,0.245784 0.04609,0.368674 -1.1e-5,0.112651 -0.04097,0.20994 -0.122892,0.291867 -0.32772,0.08193 -0.655429,0.194578 -0.98313,0.337951 -0.327719,0.133133 -0.660549,0.250903 -0.998492,0.353313 -0.327718,0.102409 -0.655428,0.163854 -0.98313,0.184337 -0.327717,0.02048 -0.655427,-0.0512 -0.983131,-0.21506 -0.163861,-0.08193 -0.332836,-0.194578 -0.506926,-0.337951 -0.163861,-0.143373 -0.332836,-0.276505 -0.506927,-0.399397 -0.16386,-0.12289 -0.332836,-0.215059 -0.506927,-0.276505 -0.163859,-0.06144 -0.327714,-0.0512 -0.491565,0.03072 -0.153618,0.327711 -0.348196,0.542771 -0.583734,0.64518 -0.235545,0.102409 -0.491568,0.133132 -0.76807,0.09217 -0.266267,-0.04096 -0.542772,-0.133132 -0.829517,-0.276505 -0.276507,-0.143373 -0.53765,-0.296987 -0.783432,-0.460843 -0.08193,-0.08193 -0.199699,-0.163854 -0.353312,-0.245782 -0.143374,-0.09217 -0.286747,-0.189456 -0.43012,-0.291867 -0.143373,-0.102408 -0.271385,-0.215058 -0.384035,-0.337951 -0.102409,-0.13313 -0.153614,-0.286744 -0.153614,-0.460842 0.245782,-0.409636 0.54789,-0.78343 0.906323,-1.121384 0.368673,-0.337947 0.757828,-0.660536 1.167468,-0.967769 0.419876,-0.307223 0.849995,-0.609331 1.290358,-0.906323 0.440357,-0.307223 0.865356,-0.624692 1.274998,-0.952408 0.153609,7e-6 0.291862,0.03585 0.414758,0.10753 0.133127,0.07169 0.250898,0.158741 0.353312,0.261144 0.112645,0.09217 0.209934,0.199704 0.291867,0.32259 0.09216,0.112656 0.179211,0.215065 0.261144,0.307228 m -3.318065,3.271981 c 0.09217,-0.163853 0.225298,-0.291864 0.399397,-0.384035 0.174093,-0.102407 0.332827,-0.215057 0.476203,-0.337951 0.14337,-0.122889 0.240659,-0.276503 0.291867,-0.460843 0.0512,-0.194574 -3e-6,-0.455718 -0.153614,-0.783432 l -1.336443,1.643672 c -2e-6,0.163857 0.01024,0.261145 0.03072,0.291866 0.03072,0.02048 0.128009,0.03073 0.291867,0.03072"
         id="path3972"
         inkscape:connector-curvature="0" />
      <path
         d="m 44.682911,35.82622 c 0.06144,0.133139 0.0768,0.25091 0.04609,0.353313 -0.02049,0.09217 -0.07681,0.174102 -0.168976,0.245782 -0.08193,0.06145 -0.189461,0.112657 -0.32259,0.153614 -0.122894,0.03073 -0.250905,0.04609 -0.384035,0.04608 0.266262,0.276511 0.542767,0.558137 0.829516,0.844877 0.286743,0.276511 0.542766,0.568378 0.768071,0.875601 0.225296,0.307232 0.394272,0.634942 0.506927,0.98313 0.122886,0.348196 0.148488,0.72199 0.07681,1.121383 -5e-6,0.419881 -0.07681,0.773193 -0.230422,1.059938 -0.153618,0.276507 -0.348196,0.506928 -0.583733,0.691264 -0.235546,0.184337 -0.50181,0.332831 -0.798794,0.445481 -0.286749,0.102409 -0.568375,0.189457 -0.844877,0.261144 -0.40964,0.143373 -0.809036,0.158734 -1.198191,0.04608 -0.378915,-0.122891 -0.701505,-0.32259 -0.967769,-0.599095 -0.07169,-0.266264 -0.0256,-0.44548 0.138253,-0.53765 0.174096,-0.102408 0.384035,-0.168974 0.629818,-0.199698 0.256022,-0.03072 0.517166,-0.05632 0.783432,-0.07681 0.276503,-0.03072 0.481322,-0.117769 0.614457,-0.261144 0.276502,-0.143372 0.491562,-0.291865 0.645179,-0.445481 0.163852,-0.163853 0.317466,-0.378913 0.460842,-0.64518 0.04096,-0.358429 -0.03585,-0.681019 -0.230421,-0.967769 -0.194581,-0.286742 -0.430122,-0.547886 -0.706625,-0.783432 -0.276508,-0.245777 -0.563254,-0.481319 -0.860239,-0.706625 -0.286748,-0.225295 -0.506928,-0.455716 -0.660541,-0.691263 -0.153615,-0.245777 -0.204819,-0.50692 -0.153614,-0.783432 0.0512,-0.28674 0.281625,-0.614449 0.691264,-0.983131 0.204817,8e-6 0.404515,-0.02047 0.599095,-0.06144 0.204816,-0.0512 0.389153,-0.0768 0.553011,-0.07681 0.174093,7e-6 0.327707,0.04609 0.460842,0.138252 0.133129,0.09218 0.235538,0.276513 0.307228,0.553011"
         id="path3974"
         inkscape:connector-curvature="0" />
      <path
         d="m 48.138267,37.270193 c 0.215058,-0.112645 0.363552,-0.266259 0.445481,-0.460842 0.08193,-0.204813 0.158733,-0.399391 0.230422,-0.583734 0.07168,-0.194571 0.163852,-0.363546 0.276505,-0.506927 0.112648,-0.143366 0.307225,-0.215052 0.583734,-0.21506 l 0.445481,0.660541 c 0.102405,1.208437 0.08704,2.375903 -0.04608,3.502402 -0.122894,1.126506 -0.343075,2.217165 -0.66054,3.271981 -0.317472,1.044575 -0.716869,2.058428 -1.198191,3.04156 -0.481325,0.993368 -1.024095,1.956015 -1.628309,2.887946 -0.266265,0.389149 -0.583734,0.7271 -0.952408,1.013853 -0.368673,0.29698 -0.768069,0.532522 -1.19819,0.706625 -0.430117,0.184329 -0.870477,0.3021 -1.321082,0.353313 -0.460838,0.0512 -0.911439,0.03071 -1.351804,-0.06145 -0.983125,-0.67591 -1.643665,-1.479823 -1.981622,-2.411742 -0.348185,-0.921689 -0.409631,-1.884337 -0.184337,-2.887946 l 0.199698,-0.675902 c 0.112657,0.501804 0.225307,1.013851 0.337951,1.536142 0.102416,0.532525 0.26115,1.024089 0.476204,1.474695 0.204824,0.460837 0.48645,0.849993 0.844878,1.167468 0.348196,0.327703 0.8244,0.542763 1.428611,0.645179 0.655423,-0.102416 1.223795,-0.353319 1.705117,-0.752709 0.481326,-0.389162 0.906324,-0.860245 1.274997,-1.41325 0.368674,-0.542774 0.696384,-1.126507 0.983131,-1.751201 0.296986,-0.6247 0.583732,-1.213554 0.860239,-1.766563 0.215058,-0.880721 0.419877,-1.771682 0.614456,-2.672886 0.204817,-0.911441 0.363551,-1.915052 0.476204,-3.010837 -0.215062,0.05121 -0.430121,0.07681 -0.645179,0.07681 -0.204821,5e-6 -0.399398,-0.03584 -0.583734,-0.10753 -0.174097,-0.07168 -0.327711,-0.174091 -0.460842,-0.307228 -0.122892,-0.143368 -0.20994,-0.327705 -0.261144,-0.553011 -0.06145,-0.163849 -0.112651,-0.317463 -0.153614,-0.460842 -0.03072,-0.143367 -0.05633,-0.28674 -0.07681,-0.43012 -0.01024,-0.143366 -0.02048,-0.302101 -0.03072,-0.476203 -1e-6,-0.174089 -1e-6,-0.373788 0,-0.599096 l 0.476203,-0.445481 c 0.215059,0.112659 0.353312,0.281634 0.414759,0.506927 0.06144,0.215067 0.102408,0.440368 0.122891,0.675902 0.02048,0.235548 0.06144,0.450608 0.122891,0.64518 0.06144,0.194583 0.199697,0.322595 0.414758,0.384035"
         id="path3976"
         inkscape:connector-curvature="0" />
      <path
         d="m 60.142253,33.276226 c -9e-6,0.143382 -0.06145,0.291876 -0.184337,0.445481 -0.1229,0.143382 -0.256033,0.286755 -0.399397,0.430119 l -4.13222,-0.291867 c 0.07168,0.66567 0.0512,1.346692 -0.06144,2.043068 -0.112655,0.696391 -0.261149,1.413256 -0.445481,2.150598 -0.184341,0.737352 -0.373799,1.495181 -0.568373,2.273489 -0.194581,0.768073 -0.327713,1.556624 -0.399396,2.365658 -0.143377,0.143373 -0.337954,0.21506 -0.583734,0.21506 -0.245785,0 -0.440363,-0.07169 -0.583734,-0.21506 -0.19458,-0.491565 -0.302109,-0.972888 -0.322589,-1.443973 -0.02048,-0.481322 0.01024,-0.957525 0.09217,-1.428611 0.08193,-0.47108 0.194576,-0.937043 0.337951,-1.397889 0.143371,-0.460837 0.276503,-0.9268 0.399397,-1.397889 0.133129,-0.471077 0.240659,-0.942159 0.32259,-1.41325 0.08192,-0.481316 0.09728,-0.96776 0.04608,-1.459334 -0.368677,-0.07168 -0.752712,-0.1024 -1.152106,-0.09217 -0.389157,0.01025 -0.768072,0.0051 -1.136745,-0.01536 -0.368674,-0.02047 -0.711745,-0.0768 -1.029214,-0.168975 -0.317469,-0.102401 -0.583733,-0.302099 -0.798794,-0.599095 0.215061,-0.368664 0.465964,-0.609326 0.752709,-0.721987 0.286747,-0.11264 0.583734,-0.179206 0.890962,-0.199698 0.317469,-0.02047 0.634938,-0.03071 0.952408,-0.03072 0.327708,-0.01023 0.640057,-0.08704 0.937046,-0.230421 0.737345,1.1e-5 1.408126,0.0051 2.012345,0.01536 0.614452,0.01025 1.198185,0.05634 1.751201,0.138253 0.553004,0.0717 1.095774,0.189468 1.62831,0.353312 0.532521,0.153625 1.090651,0.378925 1.674394,0.675903"
         id="path3978"
         inkscape:connector-curvature="0" />
      <path
         d="m 62.532152,37.838565 c 0.112644,0.215065 0.17409,0.440365 0.184337,0.675902 0.01023,0.235546 -6e-6,0.471088 -0.03072,0.706625 -0.02049,0.225305 -0.05121,0.450605 -0.09217,0.675903 -0.03073,0.215062 -0.04097,0.419881 -0.03072,0.614456 0.01024,0.19458 0.06144,0.373797 0.153614,0.53765 0.09216,0.163856 0.250897,0.302109 0.476204,0.414758 0.327703,10e-7 0.634931,-0.03072 0.921685,-0.09217 0.296979,-0.07169 0.578605,-0.138251 0.844877,-0.199698 0.276497,-0.07169 0.537641,-0.117769 0.783432,-0.138253 0.256015,-0.03072 0.506917,-0.0051 0.75271,0.07681 0.08192,0.09217 0.158724,0.1997 0.230421,0.32259 0.07168,0.112652 0.128001,0.230422 0.168975,0.353312 0.04095,0.122893 0.05631,0.245784 0.04608,0.368674 -1.1e-5,0.112651 -0.04097,0.20994 -0.122892,0.291867 -0.32772,0.08193 -0.65543,0.194578 -0.98313,0.337951 -0.327719,0.133133 -0.660549,0.250903 -0.998492,0.353313 -0.327718,0.102409 -0.655428,0.163854 -0.98313,0.184337 -0.327717,0.02048 -0.655427,-0.0512 -0.983131,-0.21506 -0.163861,-0.08193 -0.332836,-0.194578 -0.506927,-0.337951 -0.16386,-0.143373 -0.332836,-0.276505 -0.506926,-0.399397 -0.16386,-0.12289 -0.332836,-0.215059 -0.506927,-0.276505 -0.163859,-0.06144 -0.327714,-0.0512 -0.491565,0.03072 -0.153618,0.327711 -0.348196,0.542771 -0.583734,0.64518 -0.235545,0.102409 -0.491568,0.133132 -0.76807,0.09217 -0.266267,-0.04096 -0.542773,-0.133132 -0.829517,-0.276505 -0.276507,-0.143373 -0.537651,-0.296987 -0.783432,-0.460843 -0.08193,-0.08193 -0.199699,-0.163854 -0.353312,-0.245782 -0.143374,-0.09217 -0.286747,-0.189456 -0.43012,-0.291867 -0.143373,-0.102408 -0.271385,-0.215058 -0.384035,-0.337951 -0.102409,-0.13313 -0.153614,-0.286744 -0.153614,-0.460842 0.245782,-0.409636 0.54789,-0.78343 0.906323,-1.121384 0.368673,-0.337947 0.757828,-0.660536 1.167468,-0.967769 0.419876,-0.307223 0.849995,-0.609331 1.290358,-0.906323 0.440357,-0.307223 0.865356,-0.624692 1.274998,-0.952408 0.153609,7e-6 0.291861,0.03585 0.414758,0.10753 0.133127,0.07169 0.250898,0.158741 0.353312,0.261144 0.112645,0.09217 0.209934,0.199704 0.291867,0.32259 0.09216,0.112656 0.179211,0.215065 0.261144,0.307228 m -3.318065,3.271981 c 0.09217,-0.163853 0.225298,-0.291864 0.399397,-0.384035 0.174092,-0.102407 0.332827,-0.215057 0.476203,-0.337951 0.14337,-0.122889 0.240659,-0.276503 0.291867,-0.460843 0.0512,-0.194574 -4e-6,-0.455718 -0.153614,-0.783432 l -1.336443,1.643672 c -2e-6,0.163857 0.01024,0.261145 0.03072,0.291866 0.03072,0.02048 0.128009,0.03073 0.291867,0.03072"
         id="path3980"
         inkscape:connector-curvature="0" />
      <path
         d="m 71.917016,41.37169 c 0.0512,0.563253 0.09216,1.152107 0.122891,1.766563 0.04096,0.624696 0.0512,1.249393 0.03072,1.874092 -0.02049,0.624695 -0.08705,1.23403 -0.199698,1.828008 -0.112655,0.604211 -0.296992,1.167463 -0.553011,1.689756 -0.245786,0.532523 -0.573496,1.013846 -0.983131,1.443973 -0.40964,0.440353 -0.921686,0.803906 -1.536141,1.09066 -0.43012,0.430111 -0.911444,0.650291 -1.443973,0.660541 -0.542769,0.02047 -1.10602,-0.11778 -1.689755,-0.414759 0.573494,-0.3482 1.146986,-0.737355 1.720478,-1.167467 0.573492,-0.430126 1.080419,-0.90633 1.52078,-1.428611 0.4506,-0.512053 0.798791,-1.075304 1.044576,-1.689756 0.256021,-0.604219 0.348189,-1.259638 0.276506,-1.966261 l 0,-2.258127 c -0.143376,0.07169 -0.302111,0.11265 -0.476204,0.122891 -0.174098,0 -0.353315,-0.01536 -0.53765,-0.04608 -0.174097,-0.04096 -0.348193,-0.09217 -0.522288,-0.153614 -0.163856,-0.07169 -0.31747,-0.148494 -0.460842,-0.230422 -0.286747,-0.56325 -0.419879,-1.126502 -0.399397,-1.689755 0.02048,-0.563249 0.240662,-1.136741 0.660541,-1.720478 0.307227,-0.276502 0.650298,-0.471079 1.029215,-0.583734 0.378912,-0.122887 0.711742,-0.112646 0.998491,0.03072 0.348189,0.143377 0.588851,0.332835 0.721987,0.568372 0.143369,0.225304 0.240658,0.471087 0.291867,0.737348 0.06144,0.266267 0.107525,0.537652 0.138252,0.814155 0.03072,0.266266 0.112647,0.506928 0.245783,0.721986 m -2.549995,0.32259 c 0.12289,-0.133131 0.215058,-0.271383 0.276506,-0.414758 0.07168,-0.143372 0.13313,-0.281624 0.184337,-0.414758 0.0512,-0.143371 0.112648,-0.286744 0.184337,-0.43012 0.07168,-0.14337 0.168973,-0.286743 0.291867,-0.43012 -0.122894,0.143377 -0.266267,0.29187 -0.43012,0.445481 -0.163857,0.153617 -0.30723,0.30211 -0.43012,0.445481 -0.112652,0.143376 -0.189459,0.286749 -0.230421,0.43012 -0.03072,0.133134 0.02048,0.256025 0.153614,0.368674"
         id="path3982"
         inkscape:connector-curvature="0" />
    </g>
    <g
       transform="translate(6,0)"
       id="g3984"
       style="font-style:normal;font-variant:normal;font-weight:bold;font-stretch:normal;font-size:7.42044544px;line-height:125%;font-family:dwerneck;-inkscape-font-specification:'dwerneck Bold';text-align:start;writing-mode:lr-tb;text-anchor:start;fill:#1e3352;fill-opacity:1;stroke:none">
      <path
         d="m 23.799279,53.680226 c -0.08905,0.08905 -0.197883,0.158308 -0.3265,0.207772 -0.123677,0.04947 -0.257245,0.08905 -0.400704,0.118728 -0.138518,0.02969 -0.277033,0.05442 -0.415545,0.0742 -0.138517,0.01485 -0.267138,0.03711 -0.385863,0.06678 0.05936,0.262193 0.09399,0.549117 0.103886,0.860772 0.0099,0.311662 0.01484,0.633214 0.01484,0.964658 -2e-6,0.326502 0.0049,0.655474 0.01484,0.986919 0.0099,0.326501 0.04452,0.638159 0.103886,0.934976 0.178088,0.02968 0.353705,0.0371 0.526852,0.02226 0.178087,-0.01979 0.348757,-0.03215 0.51201,-0.0371 0.168194,-0.0099 0.331443,10e-7 0.48975,0.02968 0.163245,0.02968 0.319075,0.103887 0.467488,0.222613 -5e-6,0.05442 -0.01979,0.09894 -0.05936,0.133568 -0.03958,0.02968 -0.094,0.05442 -0.163249,0.0742 -0.06431,0.01979 -0.13852,0.03958 -0.222614,0.05936 -0.0841,0.01484 -0.170674,0.0371 -0.259715,0.06678 -0.291875,10e-7 -0.591166,0.01979 -0.897874,0.05936 -0.306715,0.03463 -0.613426,0.07173 -0.920136,0.111307 -0.306713,0.03463 -0.613424,0.06431 -0.920135,0.08904 -0.306712,0.01979 -0.606003,0.01484 -0.897874,-0.01484 -0.05442,-0.05442 -0.08657,-0.116254 -0.09647,-0.185511 -0.0099,-0.0742 -0.01484,-0.168197 -0.01484,-0.281977 0.143461,-0.05936 0.286923,-0.09399 0.430385,-0.103886 0.148409,-0.0099 0.296818,-0.01731 0.445227,-0.02226 0.148408,-0.0099 0.294343,-0.02721 0.437806,-0.05194 0.148408,-0.02473 0.294343,-0.08162 0.437807,-0.17067 -0.05442,-0.267135 -0.08905,-0.563952 -0.103887,-0.890453 -0.0099,-0.326498 -0.01979,-0.657944 -0.02968,-0.99434 -0.0049,-0.336391 -0.02226,-0.665363 -0.05194,-0.986919 -0.02474,-0.321549 -0.08163,-0.61342 -0.170671,-0.875613 -0.113781,0.02969 -0.242402,0.04947 -0.385863,0.05936 -0.138516,0.0099 -0.281977,0.0074 -0.430386,-0.0074 -0.148409,-0.01484 -0.294344,-0.04452 -0.437806,-0.08904 -0.138515,-0.04947 -0.264662,-0.118723 -0.378443,-0.207773 -0.02968,-0.02968 -0.04452,-0.0643 -0.04452,-0.103886 0,-0.03957 0.01237,-0.07667 0.0371,-0.111307 0.01979,-0.03957 0.05194,-0.07173 0.09647,-0.09647 0.03958,-0.02473 0.08904,-0.0371 0.148409,-0.0371 0.118727,6e-6 0.247348,0.005 0.385863,0.01484 0.138514,0.0099 0.277029,0.01237 0.415545,0.0074 0.143461,-0.0099 0.277029,-0.02968 0.400704,-0.05936 0.12862,-0.03462 0.237453,-0.09646 0.326499,-0.185511 0.113779,0.05937 0.234979,0.094 0.363602,0.103886 0.128619,0.005 0.25724,6e-6 0.385863,-0.01484 0.133566,-0.01483 0.267134,-0.02968 0.400704,-0.04452 0.133566,-0.01978 0.262187,-0.0272 0.385864,-0.02226 0.128617,0.005 0.249818,0.03216 0.363601,0.08162 0.113777,0.04453 0.220137,0.126153 0.31908,0.244875"
         id="path3986"
         inkscape:connector-curvature="0" />
      <path
         d="m 29.135159,55.884098 c -0.02474,0.257245 -0.08658,0.489752 -0.185512,0.697522 -0.09894,0.202828 -0.227564,0.385865 -0.385863,0.549113 -0.15336,0.158304 -0.328977,0.301766 -0.526851,0.430386 -0.192935,0.123675 -0.395761,0.239929 -0.608477,0.348761 -0.212722,0.103887 -0.427915,0.200353 -0.645579,0.289397 -0.212721,0.08905 -0.415547,0.175618 -0.608476,0.259716 -0.158305,0 -0.338869,0.02473 -0.541693,0.0742 -0.197879,0.04947 -0.398231,0.09152 -0.601056,0.126148 -0.197879,0.02968 -0.39081,0.0371 -0.578794,0.02226 -0.183038,-0.01979 -0.336394,-0.09399 -0.460068,-0.222613 -0.02473,-0.128621 -0.02473,-0.225087 0,-0.289398 0.02473,-0.06431 0.06431,-0.106359 0.118727,-0.126147 0.05442,-0.02473 0.121201,-0.03463 0.200352,-0.02968 0.0742,1e-6 0.153356,0.0025 0.237454,0.0074 0.0841,0.0049 0.165723,0.0049 0.244875,0 0.0841,-0.0099 0.158302,-0.0371 0.222613,-0.08162 0.321552,-0.09399 0.645578,-0.192931 0.972079,-0.296818 0.331444,-0.103885 0.645576,-0.227559 0.942396,-0.371022 0.296815,-0.143461 0.568898,-0.314131 0.816249,-0.512011 0.247345,-0.202823 0.452644,-0.450171 0.615897,-0.742045 -4e-6,-0.257239 -0.06431,-0.469958 -0.192931,-0.638158 -0.128625,-0.17314 -0.289401,-0.319075 -0.482329,-0.437806 -0.192935,-0.12367 -0.403181,-0.23003 -0.630738,-0.319079 -0.227563,-0.08904 -0.437809,-0.183034 -0.630738,-0.281977 -0.06431,0.262193 -0.106362,0.521908 -0.126148,0.779146 -0.01484,0.252299 -0.01979,0.504594 -0.01484,0.756886 0.0099,0.247351 0.02721,0.492225 0.05194,0.734624 0.02968,0.237456 0.05936,0.46749 0.08904,0.690101 -0.09894,0.06431 -0.187986,0.09399 -0.267136,0.08905 -0.07915,-0.0049 -0.155831,-0.02226 -0.230034,-0.05194 -0.06926,-0.03463 -0.136043,-0.06926 -0.200352,-0.103887 -0.06431,-0.03957 -0.128622,-0.05936 -0.192931,-0.05936 -0.03463,-0.09399 -0.05442,-0.195404 -0.05936,-0.304238 -0.0049,-0.108832 -0.0074,-0.215191 -0.0074,-0.31908 -2e-6,-0.103884 -0.0025,-0.202823 -0.0074,-0.296817 -0.0049,-0.09399 -0.02474,-0.173142 -0.05936,-0.237455 -0.06431,-0.1583 -0.133569,-0.324023 -0.207773,-0.49717 -0.0742,-0.17314 -0.143463,-0.348757 -0.207772,-0.526851 -0.06431,-0.178087 -0.118728,-0.353704 -0.16325,-0.526852 -0.03958,-0.178086 -0.05936,-0.348756 -0.05936,-0.512011 0.02968,-0.158297 0.09399,-0.267131 0.192932,-0.326499 0.103885,-0.05936 0.217665,-0.08904 0.34134,-0.08905 0.12862,6e-6 0.259715,0.01979 0.393284,0.05936 0.133566,0.03463 0.24982,0.06926 0.348761,0.103886 0.19293,0.06432 0.398228,0.128626 0.615897,0.192932 0.217664,0.05937 0.432856,0.126152 0.645579,0.200352 0.212716,0.07421 0.420488,0.163254 0.623317,0.267136 0.202822,0.09894 0.385859,0.217671 0.549113,0.356181 0.163245,0.138519 0.30176,0.304242 0.415545,0.49717 0.118722,0.187988 0.200347,0.410601 0.244875,0.66784"
         id="path3988"
         inkscape:connector-curvature="0" />
      <path
         d="m 32.751119,53.962203 0.09647,0.207772 c -0.202829,0.197883 -0.408128,0.3735 -0.615897,0.526852 -0.202829,0.15336 -0.427915,0.309189 -0.675261,0.467488 0.222611,0.04947 0.425436,0.138518 0.608477,0.267136 0.187981,0.123677 0.351231,0.27456 0.489749,0.452647 0.143458,0.173147 0.264659,0.361131 0.363602,0.563954 0.09893,0.202828 0.175613,0.405653 0.230034,0.608477 0.04946,0.252296 0.02968,0.477383 -0.05936,0.67526 -0.08905,0.192933 -0.234984,0.36855 -0.437806,0.526852 -0.202829,0.123674 -0.435336,0.22756 -0.697522,0.311659 -0.262192,0.07915 -0.531801,0.128621 -0.808829,0.148408 -0.272084,0.01484 -0.53922,-0.0049 -0.801408,-0.05936 -0.26219,-0.05442 -0.492223,-0.155829 -0.690101,-0.304238 -0.0742,-0.04947 -0.153356,-0.09894 -0.237454,-0.148409 -0.07915,-0.05442 -0.143463,-0.11378 -0.192932,-0.178091 -0.04947,-0.06431 -0.07668,-0.133567 -0.08163,-0.207772 0,-0.07915 0.0371,-0.168196 0.111307,-0.267137 l 0.09647,-0.200352 c 0.0742,0.04947 0.138514,0.116255 0.192931,0.200352 0.05936,0.07915 0.116253,0.160778 0.17067,0.244875 0.05936,0.07915 0.1212,0.153357 0.185511,0.222614 0.06926,0.06431 0.153355,0.111307 0.252296,0.140988 0.222612,0.02473 0.447698,0.02968 0.67526,0.01484 0.232506,-0.01979 0.457592,-0.06431 0.675261,-0.133568 0.22261,-0.06926 0.430383,-0.165723 0.623317,-0.289397 0.197875,-0.12862 0.373492,-0.29187 0.526852,-0.48975 0.02473,-0.148407 0.0099,-0.291869 -0.04452,-0.430386 -0.05442,-0.138513 -0.128624,-0.267134 -0.222613,-0.385863 -0.094,-0.118725 -0.197882,-0.225084 -0.311659,-0.319079 -0.113783,-0.09894 -0.220143,-0.185508 -0.319079,-0.259716 -0.11873,-0.04947 -0.23993,-0.07173 -0.363602,-0.06678 -0.118729,0.005 -0.237456,0.02227 -0.356181,0.05194 -0.118729,0.02474 -0.234983,0.05195 -0.348761,0.08163 -0.113782,0.02968 -0.222615,0.04205 -0.3265,0.0371 -0.09894,-0.0049 -0.192933,-0.0371 -0.281977,-0.09647 -0.0841,-0.05936 -0.158303,-0.163247 -0.222613,-0.311659 l 0.103886,-0.296818 c 0.296817,-0.148405 0.588687,-0.304234 0.875613,-0.467488 0.286922,-0.168192 0.556531,-0.378438 0.808828,-0.630738 -0.222615,5e-6 -0.440282,0.01485 -0.652999,0.04452 -0.212721,0.02969 -0.42544,0.05937 -0.638158,0.08904 -0.212721,0.02969 -0.42544,0.05442 -0.638159,0.0742 -0.212719,0.01485 -0.430386,0.0099 -0.652999,-0.01484 -0.05442,-0.04946 -0.106359,-0.09646 -0.155829,-0.140989 -0.04947,-0.04947 -0.09894,-0.09893 -0.148409,-0.148408 0,-0.05441 0.01979,-0.106355 0.05936,-0.15583 0.03958,-0.04946 0.0841,-0.09893 0.133568,-0.148409 0.301765,5e-6 0.596109,-0.01978 0.883033,-0.05936 0.29187,-0.03957 0.581267,-0.0742 0.868193,-0.103886 0.286922,-0.03462 0.573845,-0.05194 0.860771,-0.05194 0.286921,6e-6 0.578792,0.03958 0.875613,0.118728 l 0.215193,0.289397"
         id="path3990"
         inkscape:connector-curvature="0" />
      <path
         d="m 39.474737,56.255121 c 0.05441,0.103888 0.0841,0.212721 0.08905,0.326499 0.0049,0.113782 -2e-6,0.227562 -0.01484,0.341341 -0.0099,0.108835 -0.02474,0.217668 -0.04452,0.326499 -0.01484,0.103888 -0.01979,0.202827 -0.01484,0.296818 0.0049,0.09399 0.02968,0.180565 0.0742,0.259716 0.04452,0.07915 0.121198,0.145936 0.230034,0.200352 0.1583,0 0.306709,-0.01484 0.445227,-0.04452 0.143458,-0.03463 0.2795,-0.06678 0.408125,-0.09647 0.133563,-0.03463 0.259711,-0.05689 0.378442,-0.06678 0.12367,-0.01484 0.24487,-0.0025 0.363602,0.0371 0.03957,0.04452 0.07667,0.09647 0.111307,0.15583 0.03462,0.05442 0.06183,0.111307 0.08163,0.17067 0.01978,0.05936 0.0272,0.118728 0.02226,0.178091 -5e-6,0.05442 -0.01979,0.101413 -0.05936,0.140988 -0.158307,0.03958 -0.31661,0.09399 -0.474908,0.16325 -0.158307,0.06431 -0.319083,0.121201 -0.482329,0.17067 -0.158307,0.04947 -0.316609,0.07915 -0.474909,0.08905 -0.158306,0.0099 -0.316608,-0.02473 -0.474908,-0.103887 -0.07915,-0.03957 -0.160779,-0.09399 -0.244875,-0.163249 -0.07915,-0.06926 -0.160779,-0.133568 -0.244874,-0.192932 -0.07915,-0.05936 -0.160779,-0.103886 -0.244875,-0.133568 -0.07915,-0.02968 -0.158305,-0.02473 -0.237454,0.01484 -0.07421,0.158303 -0.168199,0.262189 -0.281977,0.311659 -0.113782,0.04947 -0.237456,0.06431 -0.371023,0.04452 -0.128622,-0.01979 -0.26219,-0.06431 -0.400704,-0.133568 -0.133569,-0.06926 -0.259716,-0.143461 -0.378442,-0.222613 -0.03958,-0.03957 -0.09647,-0.07915 -0.170671,-0.118727 -0.06926,-0.04452 -0.138515,-0.09152 -0.207772,-0.140989 -0.06926,-0.04947 -0.131095,-0.103885 -0.185511,-0.16325 -0.04947,-0.06431 -0.0742,-0.138514 -0.0742,-0.222613 0.118727,-0.197877 0.264663,-0.378441 0.437807,-0.541692 0.17809,-0.163248 0.366074,-0.319078 0.563953,-0.467489 0.202825,-0.148406 0.410597,-0.294341 0.623318,-0.437806 0.212718,-0.148406 0.418016,-0.301762 0.615897,-0.460067 0.0742,3e-6 0.140986,0.01732 0.200352,0.05194 0.06431,0.03463 0.121198,0.07668 0.17067,0.126147 0.05441,0.04453 0.10141,0.09647 0.140989,0.15583 0.04452,0.05442 0.08657,0.103888 0.126147,0.148409 m -1.602816,1.580554 c 0.04452,-0.07915 0.108832,-0.140987 0.192932,-0.185511 0.0841,-0.04947 0.160774,-0.103885 0.230033,-0.16325 0.06926,-0.05936 0.116252,-0.133566 0.140989,-0.222613 0.02473,-0.09399 -2e-6,-0.220138 -0.07421,-0.378443 l -0.645578,0.793988 c -2e-6,0.07915 0.0049,0.126149 0.01484,0.140989 0.01484,0.0099 0.06184,0.01484 0.140989,0.01484"
         id="path3992"
         inkscape:connector-curvature="0" />
      <path
         d="m 43.09545,56.455473 c -10e-7,0.07421 0.0074,0.14099 0.02226,0.200352 0.01979,0.05936 0.0371,0.111308 0.05194,0.155829 0.01979,0.04453 0.0371,0.08657 0.05194,0.126148 0.01979,0.03958 0.02968,0.07915 0.02968,0.118727 0.03463,-0.0742 0.07668,-0.138514 0.126147,-0.192932 0.05442,-0.05936 0.108832,-0.113778 0.16325,-0.16325 0.05441,-0.04947 0.106358,-0.09152 0.15583,-0.126147 0.05441,-0.03957 0.09894,-0.07915 0.133568,-0.118727 0.222611,-0.03957 0.403175,-0.01731 0.541692,0.06678 0.143459,0.07915 0.262186,0.192933 0.356181,0.34134 0.09399,0.148411 0.173141,0.319081 0.237455,0.512011 0.06925,0.192933 0.140985,0.380917 0.215193,0.563954 -4e-6,0.148409 0.0074,0.289398 0.02226,0.422965 0.01484,0.133568 0.02473,0.264663 0.02968,0.393284 0.0099,0.133568 0.01236,0.264662 0.0074,0.393283 -0.005,0.133568 -0.02474,0.274556 -0.05936,0.422966 -0.07421,-1e-6 -0.133572,0.01484 -0.178091,0.04452 -0.04453,0.02968 -0.08657,0.05689 -0.126148,0.08162 -0.03463,0.02968 -0.07421,0.04947 -0.118727,0.05936 -0.03958,0.01484 -0.09647,0.0049 -0.17067,-0.02968 -0.07421,-0.14841 -0.11873,-0.321553 -0.133568,-0.519431 -0.01484,-0.192932 -0.02721,-0.39081 -0.0371,-0.593636 -0.0099,-0.207772 -0.03216,-0.408124 -0.06678,-0.601056 -0.02968,-0.192931 -0.101415,-0.363601 -0.215193,-0.512011 -0.09894,0.04947 -0.185513,0.121202 -0.259716,0.215193 -0.06926,0.08905 -0.13357,0.185512 -0.192931,0.289398 -0.05937,0.103887 -0.118729,0.207773 -0.178091,0.311658 -0.05936,0.09894 -0.128623,0.185512 -0.207773,0.259716 -0.0742,0.06926 -0.163251,0.118727 -0.267136,0.148409 -0.103887,0.02473 -0.230034,0.01237 -0.378442,-0.0371 -0.123675,-0.04947 -0.215194,-0.116254 -0.274557,-0.200352 -0.05442,-0.08904 -0.08904,-0.190458 -0.103886,-0.304239 -0.01484,-0.113779 -0.01484,-0.23498 0,-0.363601 0.01484,-0.133567 0.03216,-0.269609 0.05194,-0.408125 0.01979,-0.138513 0.03463,-0.277028 0.04452,-0.415545 0.01484,-0.138513 0.0099,-0.269607 -0.01484,-0.393284 -1e-6,-0.10883 0.03216,-0.205296 0.09647,-0.289397 0.06431,-0.0841 0.136041,-0.140986 0.215193,-0.17067 0.0841,-0.02968 0.165722,-0.02226 0.244874,0.02226 0.0841,0.04453 0.145935,0.140991 0.185511,0.289398"
         id="path3994"
         inkscape:connector-curvature="0" />
      <path
         d="m 48.980561,52.2555 c 0.07915,0.192938 0.128617,0.410604 0.148409,0.653 0.02473,0.237459 0.03462,0.484807 0.02968,0.742044 -4e-6,0.2523 -0.0074,0.509542 -0.02226,0.771727 -0.01484,0.257246 -0.02226,0.50212 -0.02226,0.734624 -0.108837,0.272086 -0.16078,0.544169 -0.155829,0.816249 0.0049,0.267138 0.02473,0.534274 0.05936,0.801408 0.03957,0.267137 0.07668,0.534273 0.111307,0.801408 0.03462,0.267137 0.02968,0.536746 -0.01484,0.808828 -0.183041,0.113781 -0.368552,0.192932 -0.556533,0.237455 -0.187988,0.04452 -0.383393,0.06678 -0.586216,0.06678 -0.19788,0 -0.405653,-0.01484 -0.623317,-0.04452 -0.212721,-0.03463 -0.435334,-0.07173 -0.66784,-0.111307 -0.07915,-0.07915 -0.173145,-0.158302 -0.281977,-0.237454 -0.103887,-0.07915 -0.207773,-0.163249 -0.311659,-0.252295 -0.103886,-0.08904 -0.200352,-0.180563 -0.289397,-0.274557 -0.08905,-0.09894 -0.153356,-0.205297 -0.192932,-0.319079 0,-0.108832 0,-0.227559 0,-0.356181 0.0049,-0.128619 0.01731,-0.254767 0.0371,-0.378443 0.01979,-0.128619 0.04947,-0.249819 0.08905,-0.363602 0.03957,-0.113777 0.09646,-0.210243 0.17067,-0.289397 0.11378,-0.10883 0.237454,-0.192929 0.371022,-0.252295 0.133568,-0.06431 0.267135,-0.10883 0.400704,-0.133568 0.133567,-0.02968 0.264662,-0.04699 0.393284,-0.05194 0.133566,-0.0049 0.25724,-0.0074 0.371022,-0.0074 0.0742,3e-6 0.155828,0.02969 0.244875,0.08905 0.08904,0.05937 0.170668,0.108836 0.244875,0.148408 0.07915,0.03958 0.143459,0.04947 0.192931,0.02968 0.05441,-0.01978 0.08162,-0.10883 0.08163,-0.267136 L 48.386925,52.2555 c 0.03463,-0.113773 0.07915,-0.185504 0.133568,-0.215192 0.05441,-0.03462 0.10883,-0.04204 0.16325,-0.02226 0.05441,0.0198 0.106357,0.05442 0.155829,0.103886 0.05441,0.04453 0.10141,0.08905 0.140989,0.133568 m -0.942397,4.756506 C 47.963954,56.893283 47.857598,56.79187 47.719085,56.70777 47.585515,56.61873 47.447,56.559363 47.30354,56.529679 c -0.138516,-0.02968 -0.267137,-0.02226 -0.385863,0.02226 -0.118728,0.04453 -0.19788,0.140991 -0.237454,0.289398 -0.06926,0.0841 -0.103887,0.187986 -0.103886,0.311658 -1e-6,0.123676 0.03463,0.222615 0.103886,0.296818 0.237453,0.158304 0.467486,0.274558 0.690101,0.348761 0.227559,0.06926 0.450172,0.103887 0.66784,0.103886 l 0,-0.890453"
         id="path3996"
         inkscape:connector-curvature="0" />
      <path
         d="m 53.604191,56.388689 c 0,0.123676 0,0.259717 0,0.408124 0.0049,0.143464 0.01484,0.289399 0.02968,0.437806 0.01484,0.143464 0.03957,0.281978 0.0742,0.415545 0.03463,0.128622 0.08162,0.239929 0.140988,0.33392 0.08904,-0.123673 0.148408,-0.269608 0.178091,-0.437806 0.03463,-0.168195 0.0742,-0.328972 0.118727,-0.482329 0.04947,-0.153354 0.121199,-0.281975 0.215193,-0.385863 0.09399,-0.108831 0.247346,-0.163248 0.460067,-0.16325 0.123673,0.08905 0.212718,0.187987 0.267136,0.296818 0.05442,0.103888 0.09646,0.212721 0.126148,0.3265 0.02968,0.113781 0.05689,0.232508 0.08163,0.356181 0.02968,0.118728 0.0742,0.239929 0.133568,0.363602 0.09399,-0.08904 0.175615,-0.200351 0.244875,-0.33392 0.06925,-0.138514 0.140985,-0.264661 0.215193,-0.378443 0.07915,-0.118725 0.168193,-0.207771 0.267136,-0.267136 0.09894,-0.05936 0.225083,-0.05936 0.378442,0 0.123671,0.153358 0.210243,0.314134 0.259716,0.482329 0.04947,0.168198 0.0742,0.341341 0.0742,0.519431 -4e-6,0.178091 -0.02226,0.358655 -0.06678,0.541693 -0.03958,0.17809 -0.09152,0.358654 -0.155829,0.541692 -0.05442,0.05936 -0.113784,0.09894 -0.178091,0.118727 -0.05937,0.01979 -0.11873,0.06184 -0.17809,0.126148 -0.05937,-0.09399 -0.094,-0.180565 -0.103887,-0.259716 -0.0099,-0.07915 -0.01237,-0.155829 -0.0074,-0.230034 0.0099,-0.07915 0.01731,-0.155829 0.02226,-0.230033 0.0049,-0.07915 -0.0099,-0.16325 -0.04452,-0.252296 -0.05937,0.05936 -0.108837,0.118728 -0.148409,0.178091 -0.03463,0.05936 -0.07173,0.121201 -0.111307,0.185511 -0.03463,0.05936 -0.07668,0.118727 -0.126148,0.178091 -0.04947,0.06431 -0.118729,0.126147 -0.207772,0.185511 -0.128624,0 -0.252298,-0.0049 -0.371022,-0.01484 -0.11873,-0.0099 -0.242403,-0.04947 -0.371023,-0.118727 l -0.126147,-0.972078 c -0.05936,0.09399 -0.113782,0.195406 -0.16325,0.304238 -0.04947,0.103887 -0.101414,0.215193 -0.155829,0.33392 -0.04947,0.11378 -0.108835,0.230034 -0.178091,0.348761 -0.06431,0.118727 -0.14099,0.239927 -0.230034,0.363602 -0.08905,-10e-7 -0.168197,-0.0025 -0.237454,-0.0074 -0.06431,0 -0.123675,-0.0074 -0.178091,-0.02226 -0.05442,-0.01484 -0.10636,-0.03958 -0.155829,-0.0742 -0.04947,-0.03463 -0.10636,-0.08163 -0.17067,-0.140989 -0.123675,-0.435332 -0.195405,-0.885506 -0.215193,-1.350521 -0.01979,-0.465013 -0.02968,-0.910239 -0.02968,-1.33568 0,-0.153353 0.03216,-0.249819 0.09647,-0.289398 0.06431,-0.04452 0.136041,-0.05194 0.215193,-0.02226 0.07915,0.02969 0.150882,0.08658 0.215193,0.17067 0.06431,0.07915 0.09647,0.163253 0.09647,0.252296"
         id="path3998"
         inkscape:connector-curvature="0" />
      <path
         d="m 59.851279,56.403529 c 0.128618,0.341343 0.187981,0.650528 0.17809,0.927556 -0.0099,0.277031 -0.11873,0.551587 -0.326499,0.82367 -0.267139,0.267136 -0.561483,0.440279 -0.883033,0.519431 -0.321554,0.07915 -0.653001,0.08163 -0.99434,0.0074 -0.06926,-0.02968 -0.131095,-0.06678 -0.185511,-0.111306 -0.04947,-0.04947 -0.09894,-0.103886 -0.148409,-0.16325 -0.04947,-0.05936 -0.101413,-0.1212 -0.155829,-0.185511 -0.04947,-0.06431 -0.10636,-0.131094 -0.170671,-0.200352 -0.03957,-0.133568 -0.05936,-0.281976 -0.05936,-0.445227 0,-0.163249 0.01731,-0.324025 0.05194,-0.482329 0.03463,-0.163248 0.0841,-0.316604 0.148409,-0.460068 0.06431,-0.143459 0.145935,-0.26466 0.244875,-0.363602 0.168196,-0.237451 0.363601,-0.413068 0.586215,-0.526851 0.222612,-0.118724 0.442751,-0.173141 0.660419,-0.16325 0.222612,0.005 0.427911,0.07668 0.615897,0.215193 0.187982,0.133571 0.333918,0.336396 0.437807,0.608476 m -0.682681,0.534273 c 0.02968,-0.06926 0.03215,-0.140987 0.0074,-0.215193 -0.02474,-0.0742 -0.06679,-0.131093 -0.126147,-0.170671 -0.05937,-0.04452 -0.128623,-0.06183 -0.207773,-0.05194 -0.07421,0.0099 -0.14841,0.06431 -0.222613,0.16325 -0.05442,-0.06431 -0.118729,-0.0742 -0.192932,-0.02968 -0.06926,0.04453 -0.136043,0.103888 -0.200352,0.178091 -0.02968,0.06926 -0.07421,0.145937 -0.133568,0.230034 -0.05442,0.07915 -0.103887,0.165725 -0.148409,0.259715 -0.04452,0.09399 -0.07173,0.19046 -0.08162,0.289398 -0.0049,0.09894 0.02473,0.200353 0.08905,0.304238 l 0.66784,0 c 0.20777,-0.0742 0.351232,-0.200351 0.430386,-0.378443 0.07915,-0.183036 0.118725,-0.375967 0.118727,-0.578794"
         id="path4000"
         inkscape:connector-curvature="0" />
      <path
         d="m 61.40088,56.151234 0,0.281977 c 0.133566,-0.173141 0.262187,-0.32897 0.385863,-0.467488 0.128619,-0.138512 0.262187,-0.257239 0.400704,-0.356181 0.138513,-0.103883 0.286921,-0.190455 0.445226,-0.259716 0.158301,-0.06925 0.338865,-0.118723 0.541693,-0.148409 0.04452,0.158307 0.04947,0.304242 0.01484,0.437807 -0.03463,0.128624 -0.09647,0.252298 -0.185511,0.371022 -0.0841,0.113783 -0.185514,0.225089 -0.304239,0.33392 -0.118729,0.108835 -0.237456,0.217668 -0.356181,0.326499 -0.113782,0.108836 -0.220142,0.222616 -0.319079,0.341341 -0.09894,0.113782 -0.170672,0.239929 -0.215193,0.378443 -0.06926,0.103887 -0.123676,0.220141 -0.16325,0.348761 -0.03958,0.128622 -0.08163,0.257242 -0.126147,0.385863 -0.03958,0.128621 -0.08905,0.249822 -0.148409,0.363602 -0.05936,0.11378 -0.14099,0.205299 -0.244875,0.274556 -0.03958,0 -0.0841,-0.0025 -0.133568,-0.0074 -0.04452,0 -0.09399,-0.0074 -0.148409,-0.02226 -0.04947,-0.01979 -0.09894,-0.04947 -0.148409,-0.08904 -0.04947,-0.03958 -0.09152,-0.09399 -0.126147,-0.16325 -0.03463,-0.237454 -0.05442,-0.477381 -0.05936,-0.719783 0,-0.2424 0.0074,-0.492221 0.02226,-0.749465 0.01979,-0.25724 0.04452,-0.524376 0.0742,-0.801408 0.03463,-0.277027 0.07173,-0.571371 0.111307,-0.883033 -10e-7,-0.02968 0.0074,-0.06678 0.02226,-0.111307 0.01979,-0.04947 0.04452,-0.09646 0.0742,-0.140988 0.03463,-0.04452 0.07668,-0.08162 0.126148,-0.111307 0.05442,-0.02968 0.116253,-0.04452 0.185511,-0.04452 0.103885,0.06926 0.168196,0.15336 0.192932,0.252295 0.02968,0.09894 0.04452,0.205303 0.04452,0.31908 -1e-6,0.108836 -0.0025,0.220143 -0.0074,0.33392 -0.0049,0.113783 0.0099,0.222616 0.04452,0.326499"
         id="path4002"
         inkscape:connector-curvature="0" />
      <path
         d="m 65.013823,56.321905 c -2e-6,0.0841 0.0025,0.183039 0.0074,0.296817 0.0099,0.108836 0.0074,0.220142 -0.0074,0.33392 -0.01484,0.108835 -0.04947,0.212721 -0.103886,0.311659 -0.04947,0.09399 -0.13357,0.170672 -0.252295,0.230034 -0.237456,0.05442 -0.462543,0.06431 -0.67526,0.02968 -0.212721,-0.03957 -0.378444,-0.09152 -0.49717,-0.15583 -0.05936,0.03463 -0.09894,0.07173 -0.118727,0.111307 -0.01484,0.03958 -0.02226,0.07915 -0.02226,0.118727 0,0.04452 0.01237,0.08905 0.0371,0.133568 0.0841,0.113781 0.180564,0.2053 0.289398,0.274557 0.113779,0.06431 0.230032,0.126148 0.348761,0.185511 0.118725,0.05936 0.232505,0.123674 0.34134,0.192931 0.113779,0.06431 0.212718,0.15583 0.296818,0.274557 -0.0841,0.08904 -0.183039,0.133568 -0.296818,0.133568 -0.113781,0 -0.232509,-0.02226 -0.356181,-0.06678 -0.123675,-0.04452 -0.249823,-0.09647 -0.378443,-0.155829 -0.128622,-0.06431 -0.252296,-0.111307 -0.371022,-0.140989 -0.118728,-0.05442 -0.210246,-0.138514 -0.274557,-0.252295 -0.06431,-0.11378 -0.128621,-0.230033 -0.192931,-0.348761 -0.05936,-0.113779 -0.08657,-0.227559 -0.08162,-0.341341 0.0099,-0.118725 0.0371,-0.232505 0.08162,-0.34134 0.04452,-0.108832 0.09894,-0.212718 0.16325,-0.311659 0.06926,-0.09894 0.133567,-0.190456 0.192931,-0.274556 0.118727,-0.148407 0.259715,-0.281975 0.422966,-0.400704 0.168195,-0.123672 0.338865,-0.20777 0.51201,-0.252295 0.178089,-0.04452 0.348759,-0.0371 0.512011,0.02226 0.168195,0.05442 0.309183,0.185514 0.422965,0.393284 m -0.586215,0.111306 c -0.118729,0.06431 -0.232509,0.128623 -0.34134,0.192932 -0.103888,0.06431 -0.183039,0.153358 -0.237455,0.267136 l 0.230034,0 c 0.118726,-0.04947 0.205298,-0.108831 0.259716,-0.178091 0.05936,-0.0742 0.08904,-0.168194 0.08905,-0.281977"
         id="path4004"
         inkscape:connector-curvature="0" />
    </g>
    <rect
       width="56"
       height="1.0881424"
       x="20"
       y="42.911858"
       id="rect4182"
       style="color:#000000;display:inline;overflow:visible;visibility:visible;opacity:0.15;fill:#000000;fill-opacity:1;fill-rule:nonzero;stroke:none;stroke-width:1;marker:none;enable-background:accumulate" />
    <rect
       width="56"
       height="1.0881424"
       x="20"
       y="58.911858"
       id="rect4184"
       style="color:#000000;display:inline;overflow:visible;visibility:visible;opacity:0.15;fill:#000000;fill-opacity:1;fill-rule:nonzero;stroke:none;stroke-width:1;marker:none;enable-background:accumulate" />
    <rect
       width="56"
       height="1.0881424"
       x="20"
       y="74.911858"
       id="rect4186"
       style="color:#000000;display:inline;overflow:visible;visibility:visible;opacity:0.15;fill:#000000;fill-opacity:1;fill-rule:nonzero;stroke:none;stroke-width:1;marker:none;enable-background:accumulate" />
  </g>
  <circle
     style="opacity:1;fill:#de973c;fill-opacity:1;fill-rule:evenodd;stroke:url(#linearGradient4234);stroke-width:9.30076027;stroke-miterlimit:4;stroke-dasharray:none;stroke-opacity:1"
     id="path3422"
     cx="63.457626"
     cy="64.13559"
     r="56.57843" />
  <circle
     style="opacity:1;fill:#ededed;fill-opacity:1;fill-rule:evenodd;stroke:none;stroke-width:11;stroke-miterlimit:4;stroke-dasharray:none;stroke-opacity:1"
     id="path4224"
     cx="63.457619"
     cy="64.13559"
     r="49.011715" />
  <path
     inkscape:connector-curvature="0"
     style="fill:#333333"
     id="path4038"
     d="m 27.006911,52.171086 c -0.4662,-0.0028 -0.713954,0.186639 -0.716119,0.556981 -5.19e-4,0.148095 0.05938,0.256911 0.159138,0.35806 0.09977,0.101147 0.213606,0.158223 0.35806,0.159137 0.122471,6.37e-4 0.259492,-0.01095 0.437628,-0.03978 0.07792,-0.01933 0.202122,-0.04086 0.35806,-0.03978 0.567685,0.003 0.840054,0.411161 0.835472,1.193531 l -0.03978,6.325717 c -0.0051,0.792851 -0.267811,1.196842 -0.835472,1.193532 -0.111308,-4.84e-4 -0.23588,-0.008 -0.35806,-0.03978 -0.244731,-0.02223 -0.381816,-0.03937 -0.437628,-0.03978 -0.345064,-0.0019 -0.515033,0.17806 -0.517198,0.517196 -0.0023,0.382152 0.208174,0.554053 0.676335,0.556981 0.0112,1.51e-4 0.06385,-6.9e-5 0.119353,0 0.05581,-0.01341 0.11449,-2.7e-4 0.159138,0 1.003175,-0.05559 2.015763,-0.08593 3.063397,-0.07957 0.690759,0.0042 1.519334,0.01305 2.466633,0.03978 0.946902,0.02764 1.351217,0.0405 1.2731,0.03978 0.356547,0.0022 0.622078,0.0282 0.755903,0.03978 0.267371,0.02261 0.474001,0.03879 0.596766,0.03978 0.512485,0.0032 0.752848,-0.258847 0.755904,-0.755903 0.0012,-0.148048 0.01184,-0.385782 0,-0.676335 -0.0121,-0.290902 -0.04101,-0.487848 -0.03978,-0.63655 0.0013,-0.189757 0.02365,-0.483919 0.03978,-0.875256 0.01616,-0.39101 -9.3e-4,-0.684823 0,-0.875257 0.003,-0.486228 -0.177525,-0.713445 -0.596767,-0.716119 -0.397253,-0.0025 -0.593964,0.201264 -0.596765,0.676335 -9.3e-4,0.158901 -0.01722,0.404486 0,0.716118 0.0176,0.311656 0.04073,0.557545 0.03978,0.716119 -0.0028,0.506932 -0.151428,0.851515 -0.397844,1.034395 -0.246489,0.183854 -0.695055,0.28231 -1.352669,0.278491 l -2.26771,-0.03978 c -0.457332,-0.0028 -0.75323,-0.04452 -0.875257,-0.119354 -0.16673,-0.106317 -0.229794,-0.333199 -0.238706,-0.755903 8.45e-4,-0.116209 -0.03087,-0.36731 -0.03978,-0.71612 -0.0093,-0.285437 -7.25e-4,-0.507233 0,-0.676334 l 0,-0.99461 c 0.0018,-0.348028 0.04642,-0.57157 0.119353,-0.676334 0.07298,-0.105412 0.273712,-0.161175 0.596766,-0.159138 l 0.755903,0 c 0.634626,0.0038 0.957499,0.261075 0.954825,0.71612 -8.45e-4,0.116539 -0.0112,0.254813 -0.03978,0.477412 -0.02887,0.222248 -0.03925,0.400632 -0.03978,0.517197 -0.003,0.444519 0.16694,0.674043 0.556982,0.676335 0.401198,0.0025 0.594474,-0.175482 0.596765,-0.556982 7.38e-4,-0.137568 -0.008,-0.323783 -0.03978,-0.556981 -0.04272,-0.286213 -0.069,-0.47213 -0.07957,-0.556981 -0.0437,-0.54051 -0.04097,-0.94198 -0.03978,-1.153748 0.0022,-0.37067 0.01387,-0.786809 0.07957,-1.273101 0.07645,-0.571569 0.119125,-0.909553 0.119354,-0.994608 0.0027,-0.455372 -0.200796,-0.674298 -0.596766,-0.676336 -0.395597,-0.0027 -0.594093,0.213366 -0.596766,0.636551 -9.3e-4,0.158573 0.01362,0.315606 0.03978,0.517197 0.02595,0.200587 0.04041,0.39046 0.03978,0.517196 -0.0023,0.455069 -0.342304,0.680409 -1.034395,0.676336 l -0.676334,0 c -0.186816,-10e-4 -0.321229,-0.01815 -0.397843,-0.03978 -0.197664,-0.06453 -0.281037,-0.334026 -0.278491,-0.755903 l 0,-0.198923 c 3.82e-4,-0.06337 -8e-4,-0.170856 0,-0.318275 0.0011,-0.147721 -5.14e-4,-0.233894 0,-0.318275 l 0,-0.716119 c 0.003,-0.520374 0.236587,-0.841341 0.716118,-0.954825 0.144808,-0.0312 0.601214,-0.04436 1.392454,-0.03978 1.202591,0.0074 1.978666,0.04103 2.26771,0.159137 0.388392,0.161418 0.562456,0.702644 0.556981,1.591376 l 0,0.835473 c -0.003,0.561103 0.200819,0.833179 0.596766,0.835472 0.395948,0.0023 0.594347,-0.194915 0.596766,-0.596767 8.46e-4,-0.148398 -0.04529,-0.369051 -0.07957,-0.676334 -0.01727,-0.148063 -0.0022,-0.425345 0,-0.795688 0.0013,-0.285337 0.01466,-0.576578 0.03978,-0.915041 0.0338,-0.454109 0.0396,-0.751078 0.03978,-0.835472 0.0027,-0.48723 -0.258287,-0.712808 -0.835472,-0.716119 -0.144151,-5.48e-4 -0.339499,-0.0092 -0.517198,0 -0.499579,0.02729 -0.757685,0.04048 -0.835472,0.03978 l -4.018223,0.07957 -0.159137,0 c 0.111307,4.89e-4 -0.6828,-0.04378 -2.347279,-0.159137 -0.155488,-0.01184 -0.227885,1.26e-4 -0.238707,0 z m 65.604454,0.07957 c -1.52107,-0.009 -2.714464,0.510165 -3.620379,1.551591 -0.905659,1.042431 -1.381887,2.461014 -1.392454,4.217145 -0.01005,1.639243 0.439045,2.957851 1.312885,3.978438 0.873816,1.020915 2.023543,1.543317 3.46124,1.551592 1.147113,0.007 2.05595,-0.289539 2.705337,-0.835472 0.145726,-0.125783 0.337694,-0.35018 0.596771,-0.676335 -0.01353,0.232226 -0.02765,0.42216 -0.03982,0.517197 l -0.03974,0.358059 c -0.0017,0.369362 0.206722,0.55469 0.596771,0.556982 0.402173,0.0025 0.593963,-0.206155 0.596762,-0.636551 8.46e-4,-0.126061 -0.02055,-0.29673 -0.03974,-0.517196 -0.01919,-0.220467 -0.04143,-0.482751 -0.03982,-0.755904 l 0.03982,-1.233316 c 0.0068,-1.028914 0.227607,-1.554363 0.716117,-1.551591 0.03382,1.45e-4 0.103314,-9.3e-5 0.159136,0 0.05487,2.2e-5 0.09702,2.8e-5 0.119354,0 0.06663,2.55e-4 0.145193,-7.63e-4 0.27849,0 0.155289,10e-4 0.279894,-0.05402 0.397844,-0.159138 0.116657,-0.105208 0.198377,-0.209637 0.198927,-0.358059 0.0017,-0.349989 -0.231471,-0.554435 -0.676335,-0.556982 -0.167473,-5.97e-4 -0.303475,0.01959 -0.437634,0.03978 -0.612346,0.09239 -1.204838,0.162066 -1.750513,0.159138 -0.423185,-0.0027 -0.969918,-0.06052 -1.670941,-0.159138 -0.178254,-0.02405 -0.333263,-0.03922 -0.477417,-0.03978 -0.456676,-0.0028 -0.713698,0.186664 -0.716116,0.556982 -0.0017,0.359839 0.26021,0.514014 0.795688,0.517197 0.0893,5.48e-4 0.230998,0.0089 0.397845,0 0.167549,-0.0095 0.308844,-1.89e-4 0.397844,0 0.322424,0.0017 0.548779,0.05503 0.676334,0.198922 0.127505,0.144537 0.161555,0.395434 0.159136,0.755903 -0.0051,0.881545 -0.244948,1.553949 -0.716116,2.029004 -0.4705,0.474776 -1.130668,0.720957 -1.989221,0.716119 -1.114595,-0.007 -1.961356,-0.404816 -2.585985,-1.233316 -0.624582,-0.829152 -0.96361,-1.990401 -0.954826,-3.461242 0.0079,-1.386162 0.337702,-2.471984 0.954826,-3.262319 0.615795,-0.790103 1.467687,-1.199897 2.546203,-1.193531 0.856871,0.0055 1.525477,0.249089 2.029003,0.676334 0.503543,0.426918 0.760101,0.979566 0.755898,1.710729 l 0,0.477412 c -0.0034,0.51874 0.205099,0.793396 0.596771,0.795688 0.414315,0.0027 0.593837,-0.239415 0.596762,-0.716119 -6.93e-4,-0.09497 0,-0.159138 0,-0.159138 -0.05014,-0.656586 -0.08066,-1.071836 -0.07956,-1.2731 8.46e-4,-0.253827 0.03991,-0.493996 0.07956,-0.716119 l 0.119354,-0.755903 c 0.01226,-0.07401 0.03856,-0.1699 0.03974,-0.318275 0.0017,-0.455092 -0.194581,-0.7137 -0.596762,-0.716119 -0.368683,-0.0023 -0.554689,0.167557 -0.556981,0.517196 4.32e-4,0.02137 0.02063,0.146135 0.03974,0.35806 -2.28e-4,0.02134 -0.0076,0.129912 0.03974,0.27849 -0.900652,-0.799505 -1.905997,-1.227077 -3.02361,-1.233315 z M 65.99561,52.409794 c -0.422555,-0.0023 -0.633622,0.192359 -0.63655,0.63655 5.35e-4,-0.0847 0.0068,0.155359 0.03978,0.716118 0.0171,0.286006 0.0017,0.57119 0,0.835472 -4.2e-4,0.137593 -0.0093,0.447265 -0.03978,0.954826 -0.02971,0.338459 -0.03906,0.578878 -0.03978,0.716119 -0.0033,0.486856 0.224523,0.753357 0.63655,0.755903 0.434366,0.0025 0.632732,-0.328123 0.636551,-0.99461 0.0011,-0.169403 0.0112,-0.302437 0,-0.397843 l -0.07957,-0.596766 c -0.01057,-0.09535 -0.0014,-0.292022 0,-0.556982 0.0046,-0.740007 0.391788,-1.118673 1.193531,-1.113962 l 0.517197,0.03978 c 0.811896,0.0051 1.237645,0.362774 1.233316,1.113962 l -0.03978,2.585985 0,1.35267 0,1.392453 0,1.113963 c -0.0051,0.793177 -0.319427,1.196969 -0.875256,1.193531 -0.08932,-2.16e-4 -0.219499,-0.01248 -0.397844,-0.03978 -0.178066,-0.02666 -0.308867,-0.03927 -0.397844,-0.03978 -0.355895,-0.002 -0.514651,0.1383 -0.517197,0.477413 -0.0022,0.370016 0.225923,0.554435 0.716119,0.556981 0.02231,2.97e-4 0.06387,0.03939 0.119353,0.03978 0.04413,-0.01057 0.08555,-0.04026 0.119354,-0.03978 l 0.835472,-0.119353 c 0.323533,-0.04101 0.690452,-0.04246 1.113962,-0.03978 0.389738,0.0019 0.762737,0.03506 1.074179,0.07957 l 0.795687,0.119353 c 0.02232,3.05e-4 0.06302,-0.01133 0.119353,0 0.044,2.23e-4 0.09704,-2.97e-4 0.119354,0 0.501655,0.003 0.753484,-0.186662 0.755903,-0.556981 4.18e-4,-0.137592 -0.05382,-0.256505 -0.159138,-0.35806 -0.105692,-0.100918 -0.25339,-0.158224 -0.397843,-0.159138 -0.08965,-2.41e-4 -0.219337,0.01491 -0.397844,0.03978 -0.178856,0.0252 -0.308892,0.04063 -0.397844,0.03978 -0.568619,-0.0037 -0.84031,-0.400005 -0.835472,-1.193531 l 0.03978,-5.370892 0.07957,-1.113963 c 0.02424,-0.380896 0.09952,-0.672354 0.27849,-0.835473 0.178948,-0.162796 0.50334,-0.241252 0.915041,-0.238705 l 0.437629,0 c 0.878253,0.005 1.316958,0.38049 1.312884,1.113962 -0.0014,0.19139 -0.006,0.458225 -0.03978,0.835472 -0.03351,0.377272 -0.03839,0.683866 -0.03978,0.875257 -0.0033,0.531857 0.175542,0.793141 0.596765,0.795687 0.432708,0.0027 0.673916,-0.202839 0.676335,-0.63655 0.001,-0.105361 -0.04045,-0.390546 -0.07957,-0.835472 -0.03202,-0.338651 -0.04043,-0.596978 -0.03978,-0.755903 l 0,-0.159138 c 0.03419,-0.327624 0.09048,-0.629073 0.119354,-0.915041 0.02946,-0.284939 0.03902,-0.490729 0.03978,-0.596765 l 0,-0.03978 c 0.0028,-0.433361 -0.279643,-0.633113 -0.835472,-0.63655 -0.255763,-0.0014 -0.618434,0.01458 -1.074178,0.03978 -0.511248,0.02515 -0.863064,0.04091 -1.074179,0.03978 -0.966915,0.01291 -1.567701,0.0013 -1.790297,0 l -1.90965,0 c -0.855556,-0.04639 -1.296857,-0.07915 -1.35267,-0.07957 -0.56684,-0.03734 -0.918895,-0.03874 -1.074179,-0.03978 z m 15.078283,0 c -0.523013,-0.003 -0.853464,0.231543 -1.034394,0.676334 l -3.182751,7.996661 c -0.158287,0.413254 -0.251399,0.631611 -0.318275,0.71612 -0.157918,0.221788 -0.375267,0.359841 -0.676335,0.358059 l -0.238706,0 c -0.04466,-0.04099 -0.108964,-0.07898 -0.198922,-0.07957 -0.42253,-0.0027 -0.634131,0.187643 -0.63655,0.556982 -0.0022,0.347678 0.202536,0.514396 0.63655,0.517196 0.144781,9.3e-4 0.404076,-0.0078 0.716119,-0.03978 l 0.676335,-0.07957 c 0.154877,-0.01604 0.445429,-0.0023 0.835472,0 0.356196,0.0025 0.599981,-0.01948 0.755903,0 l 0.835472,0.119353 c 0.155126,0.02139 0.268433,0.03922 0.358059,0.03978 0.501678,0.0028 0.753103,-0.169565 0.755904,-0.517196 0.0017,-0.368732 -0.219657,-0.554181 -0.676335,-0.556982 -0.100129,-6.75e-4 -0.231608,-0.01928 -0.437628,0 -0.206019,0.01924 -0.366449,0.04058 -0.477413,0.03978 -0.434667,-0.0028 -0.678753,-0.179065 -0.676334,-0.517197 7.38e-4,-0.105706 0.03378,-0.202691 0.07957,-0.318276 l 0.517197,-1.233315 c 0.135319,-0.327215 0.234798,-0.523308 0.318275,-0.596766 0.08416,-0.07372 0.215055,-0.121008 0.437629,-0.119354 l 2.983828,0.03978 c 0.222248,0.0017 0.36552,0.03659 0.437628,0.07957 0.07115,0.04259 0.133638,0.149003 0.198922,0.318276 l 0.596767,1.551591 c 0.08798,0.232334 0.160105,0.357181 0.159137,0.397844 -0.0015,0.285313 -0.190281,0.440175 -0.556981,0.437628 -0.100486,-3.69e-4 -0.2428,-0.01782 -0.437628,-0.03978 -0.195203,-0.02133 -0.377284,-0.03912 -0.477413,-0.03978 -0.489869,-0.0025 -0.71421,0.158991 -0.716119,0.517198 -0.0019,0.358204 0.230813,0.554307 0.676334,0.556981 0.121785,9.3e-4 0.28296,-0.0209 0.517198,-0.03978 0.92549,-0.076 1.616624,-0.08174 2.029003,-0.07957 0.345718,0.002 0.850839,0.03522 1.551591,0.119353 0.200312,0.02334 0.354941,0.03915 0.477413,0.03978 0.424515,0.0025 0.634768,-0.187597 0.63655,-0.556981 0.0014,-0.347401 -0.212688,-0.514779 -0.63655,-0.517198 l -0.437629,0.03978 c -0.04436,0.01392 -0.15006,4.94e-4 -0.238705,0 -0.289911,-0.0015 -0.481236,-0.07902 -0.636551,-0.238707 -0.154313,-0.159939 -0.330512,-0.496321 -0.517197,-0.994609 L 82.108285,53.086127 C 81.943379,52.64098 81.586376,52.412975 81.073891,52.409792 Z m -0.07957,1.312884 1.511807,4.376283 c 0.02107,0.06359 2.04e-4,0.09835 0,0.119353 -8.41e-4,0.08434 -0.06561,0.119786 -0.198923,0.119353 l -2.625769,0 c -0.166771,-0.0012 -0.278802,-0.06391 -0.27849,-0.159138 7.76e-4,-0.01082 0.01711,-0.01584 0.03978,-0.07957 l 1.55159,-4.376282 z m -39.545681,0.954825 c -0.879862,-0.0055 -1.60742,0.217613 -2.227925,0.63655 -0.620855,0.419241 -0.951133,0.919545 -0.954826,1.511807 -0.0015,0.27481 0.08441,0.524729 0.278491,0.716119 0.194105,0.191067 0.466342,0.276581 0.755904,0.278491 0.245237,0.0017 0.43453,-0.06284 0.596765,-0.198922 0.162944,-0.136686 0.237504,-0.305104 0.238707,-0.517197 0.0012,-0.253151 -0.08316,-0.450487 -0.238707,-0.556981 -0.100155,-0.06405 -0.119429,-0.1171 -0.119353,-0.159138 5.17e-4,-0.116234 0.07118,-0.213448 0.238707,-0.318275 0.435704,-0.261494 0.891428,-0.400517 1.392453,-0.397844 0.567639,0.0036 1.03673,0.147396 1.352669,0.397844 0.315613,0.250425 0.440429,0.561249 0.437628,0.994609 -0.0027,0.455045 -0.112809,0.787547 -0.397843,0.954826 -0.284707,0.167302 -0.894426,0.308459 -1.830082,0.397844 -0.657724,0.07039 -1.095734,0.113076 -1.312885,0.159137 -0.217526,0.04668 -0.494021,0.161723 -0.795688,0.318275 -0.793121,0.407779 -1.188312,1.032728 -1.193531,1.909651 -0.0042,0.708171 0.257597,1.284597 0.795688,1.710729 0.537785,0.425779 1.24583,0.631076 2.148356,0.63655 1.21377,0.0073 2.132423,-0.36613 2.705339,-1.153748 0.207154,0.751363 0.757589,1.108362 1.670944,1.113963 1.114271,0.007 1.682414,-0.497287 1.710728,-1.511806 l 0,-0.915041 0,-0.07957 c 0.0032,-0.506907 -0.154719,-0.753995 -0.517196,-0.755904 -0.340116,-0.0023 -0.515416,0.182962 -0.517198,0.517197 l 0,0.755903 c -0.004,0.668773 -0.206397,0.996902 -0.596765,0.99461 -0.312226,-0.0019 -0.532143,-0.187727 -0.596766,-0.556981 -0.02137,-0.09483 -0.003,-0.369656 0,-0.875257 l 0,-3.222535 c 0.01108,-1.843797 -0.996943,-2.772813 -3.023614,-2.784907 z m 11.497688,0 c -0.200832,0.07268 -0.276867,0.261737 -0.278491,0.556981 l 0,0.07957 c -0.497429,-0.370641 -1.125914,-0.552526 -1.869866,-0.556981 -0.943885,-0.0058 -1.716181,0.220472 -2.307494,0.676334 -0.591313,0.455864 -0.910585,1.05127 -0.915041,1.790297 -0.0046,0.781064 0.315054,1.316172 0.915041,1.63116 0.599962,0.315314 1.478171,0.553341 2.625769,0.676335 1.203078,0.123389 1.794499,0.515622 1.790298,1.233316 -0.0025,0.400871 -0.198791,0.733095 -0.556982,0.99461 -0.35791,0.262192 -0.80669,0.401153 -1.352669,0.397843 -0.758074,-0.0046 -1.381213,-0.150064 -1.869866,-0.437628 -0.488698,-0.286909 -0.747628,-0.661079 -0.755903,-1.113963 -0.0087,-0.453233 -0.01891,-0.7296 -0.07957,-0.835472 -0.061,-0.105897 -0.203872,-0.157737 -0.437627,-0.159137 -0.35685,-0.0025 -0.554818,0.18664 -0.556982,0.556981 -9.31e-4,0.126711 0.03653,0.294681 0.07957,0.517197 0.04304,0.222517 0.04131,0.462339 0.03978,0.716119 -8.46e-4,0.148399 -0.01691,0.289178 -0.03978,0.437629 -0.07069,0.623879 -0.08,0.909667 -0.07957,0.835472 -0.0025,0.434363 0.184084,0.634003 0.596766,0.63655 0.379513,0.0025 0.594474,-0.175156 0.596765,-0.556982 6.3e-4,-0.09553 -7.65e-4,-0.172454 0,-0.27849 0.674432,0.498388 1.46514,0.750683 2.387064,0.755903 0.988208,0.0061 1.773336,-0.250051 2.387063,-0.716119 0.613729,-0.466068 0.950751,-1.070002 0.954825,-1.830082 0.0075,-1.245608 -0.971235,-2.013642 -2.864475,-2.26771 l -0.954831,-0.119348 c -0.980379,-0.132593 -1.476223,-0.517875 -1.472023,-1.193532 0.002,-0.369689 0.209775,-0.708939 0.556982,-0.954825 0.347231,-0.246217 0.760265,-0.360987 1.2731,-0.358059 0.501655,0.003 0.940841,0.129503 1.312885,0.358059 0.372022,0.228882 0.547688,0.519479 0.556982,0.835472 l 0,0.517197 c 0.0085,0.337277 0.206339,0.475376 0.556981,0.477413 0.361474,0.0022 0.515033,-0.19391 0.517197,-0.596766 0.001,-0.127367 0.02573,-0.313052 0,-0.556982 -0.02608,-0.243626 -0.04073,-0.430269 -0.03978,-0.556981 0.0012,-0.212094 0.0018,-0.42514 0.03978,-0.63655 0.01972,-0.254116 0.03948,-0.414038 0.03978,-0.477413 0.0022,-0.339135 -0.189604,-0.475121 -0.556982,-0.477412 -0.08905,-5.24e-4 -0.171762,-0.02423 -0.238706,0 z m 2.546201,0.35806 c -0.512508,-0.003 -0.753994,0.194832 -0.755903,0.556981 -0.0019,0.340793 0.2067,0.515288 0.596765,0.517197 0.05546,7.26e-4 0.145486,-0.01222 0.318276,-0.03978 0.172789,-0.02759 0.291068,-0.04003 0.358059,-0.03978 0.245237,0.0017 0.44994,0.239515 0.63655,0.71612 l 0.198922,0.477412 1.830082,4.416067 c 0.296714,0.721048 0.439283,1.247849 0.437628,1.511807 -0.0033,0.517737 -0.240748,0.97748 -0.716119,1.392453 -0.476,0.414601 -1.001399,0.600331 -1.591375,0.596766 -0.467834,-0.003 -0.789698,-0.125082 -0.954826,-0.358059 0.326307,-0.09303 0.475376,-0.298722 0.477413,-0.63655 0.0011,-0.210788 -0.07233,-0.374122 -0.238706,-0.517198 -0.166649,-0.143748 -0.37948,-0.237178 -0.63655,-0.238706 -0.323382,-0.002 -0.59395,0.112784 -0.795688,0.318275 -0.201716,0.20516 -0.276072,0.467406 -0.278491,0.795688 -0.0025,0.465898 0.2168,0.862089 0.676334,1.193532 0.460234,0.330836 1.031452,0.513122 1.710729,0.517196 1.1353,0.0068 2.062168,-0.436532 2.824692,-1.352669 0.448746,-0.53744 0.924621,-1.432718 1.432237,-2.625769 l 2.307496,-5.370893 c 0.226125,-0.538417 0.464566,-0.796866 0.676334,-0.795687 0.05548,3.94e-4 0.133902,0.0043 0.27849,0.03978 0.05511,0.02366 0.167184,0.03929 0.278491,0.03978 0.367355,0.0025 0.55469,-0.171175 0.556981,-0.517196 0.0022,-0.356876 -0.237126,-0.553927 -0.716119,-0.556981 -0.189126,-8.46e-4 -0.467565,0.03357 -0.835472,0.07956 -0.367838,0.04503 -0.646345,0.08042 -0.835472,0.07957 -0.178274,-10e-4 -0.361464,-0.0177 -0.517197,-0.03978 l -0.596762,-0.07957 c -0.155733,-0.02206 -0.251284,-0.03955 -0.318275,-0.03978 -0.479295,-0.0035 -0.753994,0.194831 -0.755903,0.556981 -0.0023,0.341097 0.187619,0.475375 0.556981,0.477412 0.05548,3.95e-4 0.179066,0.02253 0.35806,0 0.07854,-0.02322 0.183996,-0.04063 0.318274,-0.03978 0.257052,0.0018 0.398695,0.09856 0.397844,0.278491 -9.3e-4,0.08501 -0.02286,0.169971 -0.07957,0.318276 l -2.068788,5.291323 -1.90965,-5.370892 c -0.04398,-0.127663 -0.07948,-0.233194 -0.07957,-0.318275 0.0012,-0.148696 0.08212,-0.23984 0.238706,-0.238707 0.06699,2.43e-4 0.173235,0.01518 0.318276,0.03978 0.145064,0.02429 0.251284,0.03954 0.318275,0.03978 0.424188,0.0025 0.634513,-0.165573 0.63655,-0.517197 0.002,-0.350969 -0.208499,-0.514269 -0.676334,-0.517197 -0.111639,-5.09e-4 -0.330961,0.0056 -0.676335,0.03978 -0.457535,0.04544 -0.911337,0.08161 -1.312885,0.07957 -0.05548,-3.94e-4 -0.120907,-0.02858 -0.198922,-0.03978 -0.07749,-3.44e-4 -0.108532,1.26e-4 -0.119353,0 l -0.676335,-0.07956 c -0.08973,-0.01276 -0.230423,-0.03852 -0.397843,-0.03978 z m -12.33316,3.779516 0,1.113964 c -0.01492,0.674551 -0.244989,1.208364 -0.676335,1.591375 -0.431277,0.382029 -1.044361,0.601095 -1.790297,0.596765 -0.523339,-0.003 -0.928684,-0.123859 -1.233316,-0.358059 -0.304353,-0.233517 -0.439665,-0.554256 -0.437628,-0.954825 0.0045,-0.769906 0.644832,-1.204582 1.90965,-1.312885 0.699284,-0.05917 1.159879,-0.155916 1.432238,-0.238706 0.272009,-0.0825 0.550324,-0.228398 0.795688,-0.437629 z m -8.076227,13.646042 c -0.256649,-0.0012 -0.356854,0.08325 -0.35806,0.278491 -7.51e-4,0.07826 0.02782,0.145349 0.07957,0.198921 0.05181,0.05269 0.0831,0.07897 0.159137,0.07957 0.06407,1.79e-4 0.145388,0.01684 0.238707,0 0.04083,-0.01082 0.117099,-0.04036 0.198921,-0.03978 0.298007,0.0015 0.439793,0.225571 0.437629,0.636551 l 0,3.341889 c -0.0025,0.416292 -0.180323,0.598675 -0.477413,0.596765 -0.05827,-2.16e-4 -0.09462,0.01846 -0.159137,0 -0.127769,-0.01146 -0.20977,-0.03991 -0.238707,-0.03978 -0.180542,-0.0015 -0.277583,0.09968 -0.278491,0.278491 -0.0015,0.200558 0.107641,0.317088 0.35806,0.318275 0.01735,-8e-5 0.05022,-3.41e-4 0.07957,0 0.02932,-0.0053 0.0676,-0.04021 0.07957,-0.03978 l 0.397843,-0.03978 c 0.191948,-0.02701 0.391505,-0.04144 0.63655,-0.03978 0.169002,0.0011 0.325568,0.01679 0.477413,0.03978 l 0.477412,0.07957 c 0.01737,-1.27e-4 0.01709,-0.0061 0.03978,0 0.02935,3.4e-4 0.06709,-1e-5 0.07957,0 0.256176,0.0017 0.39673,-0.11813 0.397845,-0.318274 0.0013,-0.17833 -0.09791,-0.237672 -0.278491,-0.238707 -0.04715,-2.92e-4 -0.127591,-0.01688 -0.238707,0 -0.07603,0.01133 -0.152695,0.04046 -0.198921,0.03978 -0.298007,-0.0015 -0.440175,-0.219816 -0.437629,-0.63655 l 0.03978,-3.341888 c 0.0022,-0.410982 0.140539,-0.598676 0.437628,-0.596767 0.08186,1.28e-4 0.118615,-0.01184 0.159138,0 0.09841,0.01732 0.180907,0.03917 0.238706,0.03978 0.07606,5.99e-4 0.145757,-0.02734 0.198922,-0.07957 0.05231,-0.05273 0.07925,-0.120639 0.07957,-0.198921 0.0012,-0.195251 -0.101416,-0.317083 -0.35806,-0.318276 -0.03472,1.28e-4 -0.07268,0.03431 -0.119354,0.03978 l -0.397843,0.03978 c -0.215915,0.02621 -0.41616,0.04037 -0.596766,0.03978 -0.186771,-0.0015 -0.382497,-0.01606 -0.556982,-0.03978 l -0.477412,-0.07957 c -0.0471,-0.007 -0.08467,2.81e-4 -0.119353,0 z m 3.381673,0.03978 c -0.262879,-0.0012 -0.396799,0.08546 -0.397844,0.278491 -0.0017,0.176522 0.09791,0.23767 0.278491,0.238705 0.05246,6.75e-4 0.134413,0.01472 0.238706,0 0.07056,-0.0097 0.106648,-2.32e-4 0.159137,0 0.297974,0.0019 0.440175,0.180033 0.437629,0.596767 l 0,3.341888 c -0.0025,0.416291 -0.140098,0.63846 -0.437629,0.63655 -0.08135,-10e-4 -0.158424,-0.02756 -0.198921,-0.03978 -0.09345,-0.01832 -0.174644,1.79e-4 -0.238707,0 -0.07649,-6.36e-4 -0.146165,0.02687 -0.198922,0.07957 -0.05235,0.05317 -0.07928,0.121073 -0.07957,0.198923 -7.63e-4,0.19527 0.146981,0.277271 0.397844,0.27849 0.0178,-4.8e-5 0.01044,-3.41e-4 0.03978,0 0.02932,-0.0055 0.06798,5.4e-5 0.07957,0 l 0.437628,-0.07957 c 0.1226,-0.01563 0.244596,-0.001 0.437629,0 0.221931,0.0014 0.431832,0.02187 0.63655,0.03978 l 0.63655,0.03978 c 0.133959,0.01196 0.269314,-8.33e-4 0.397844,0 0.635978,0.0041 1.17988,-0.110352 1.63116,-0.358059 0.375515,-0.202903 0.657422,-0.520277 0.875256,-0.954825 0.2196,-0.434419 0.314583,-0.927675 0.318275,-1.472022 0.0027,-0.61606 -0.129059,-1.163674 -0.397844,-1.63116 -0.269194,-0.467962 -0.60837,-0.763209 -1.074178,-0.954825 -0.355623,-0.146283 -0.821191,-0.235397 -1.352669,-0.238707 -0.18105,-6.24e-4 -0.326512,-0.0107 -0.437629,0 l -0.556981,0.07957 c -0.16402,0.01618 -0.314165,6.73e-4 -0.477413,0 -0.199228,-0.0015 -0.422281,-0.01606 -0.596765,-0.03978 l -0.437628,-0.03978 c -0.04715,-0.0065 -0.09045,3.09e-4 -0.119354,0 z m 7.08162,0.03978 c -0.232208,-7.64e-4 -0.379422,0.004 -0.437628,0.03978 -0.05865,0.03582 -0.0785,0.128176 -0.07957,0.278491 -1.27e-4,0.09432 7.28e-4,0.200679 0,0.278491 1.28e-4,0.07832 0.001,0.2024 0,0.358059 -4.07e-4,0.06715 0.0098,0.142601 0,0.278491 -0.01031,0.1363 -0.03942,0.251565 -0.03978,0.318275 -0.0013,0.238853 0.119927,0.356659 0.318276,0.35806 0.203683,0.0014 0.276707,-0.147653 0.27849,-0.437629 4.97e-4,-0.05602 0.01095,-0.132453 0,-0.238706 -0.01108,-0.105808 -1.4e-5,-0.183084 0,-0.238706 9.3e-4,-0.173019 0.0529,-0.274099 0.198922,-0.318276 0.07628,-0.02739 0.249695,-0.04106 0.477413,-0.03978 l 2.029003,0 -1.830082,1.710728 c -0.09404,0.08842 -0.159208,0.171958 -0.159137,0.238707 -0.0011,0.144534 0.05929,0.197731 0.198922,0.198922 0.04718,-1.53e-4 0.10582,0.01133 0.159137,0 0.245245,-0.05035 0.48837,-0.08046 0.716119,-0.07957 0.864139,0.0055 1.276793,0.351849 1.273101,1.074178 -0.0025,0.410063 -0.12638,0.772563 -0.437629,1.034394 -0.310807,0.261867 -0.709228,0.361497 -1.193531,0.358059 -0.432767,-0.0023 -0.836743,-0.07805 -1.153747,-0.27849 -0.317413,-0.200916 -0.43941,-0.445717 -0.437628,-0.716119 l 0,-0.07957 0.07957,0 c 0.342906,0.002 0.515415,-0.121211 0.517197,-0.397843 6.83e-4,-0.138775 -0.06438,-0.231781 -0.159138,-0.318275 -0.09611,-0.08614 -0.206417,-0.157968 -0.358059,-0.159138 -0.233062,-0.0013 -0.437923,0.09998 -0.596766,0.278491 -0.158439,0.178989 -0.236797,0.416175 -0.238707,0.676334 -0.0025,0.454107 0.240058,0.809239 0.676335,1.113963 0.436342,0.303839 0.977348,0.473721 1.63116,0.477413 0.712496,0.0043 1.295813,-0.18805 1.750513,-0.556981 0.455175,-0.369342 0.672516,-0.843846 0.676335,-1.432238 0.002,-0.471943 -0.161256,-0.849249 -0.477413,-1.153748 -0.316158,-0.304499 -0.697623,-0.474484 -1.193531,-0.477413 -0.02314,1.08e-4 -0.06731,2.01e-4 -0.119354,0 -0.0578,-6.15e-4 -0.124446,2.82e-4 -0.159137,0 l 1.631155,-1.472021 c 0.146532,-0.131349 0.197774,-0.231335 0.198922,-0.358059 0.001,-0.199256 -0.13359,-0.316621 -0.477412,-0.318275 -0.185886,-0.0014 -0.377249,-0.0032 -0.517197,0 -0.27958,0.0083 -0.480252,8.45e-4 -0.596766,0 l -2.148357,0 z m 20.091116,0.03978 c -0.292631,-0.002 -0.436683,0.09301 -0.437629,0.278491 -9.3e-4,0.179684 0.102129,0.237306 0.318276,0.238706 0.04673,-1.91e-4 0.11351,0.0183 0.198922,0 0.08492,-0.01742 0.15225,-0.04048 0.198921,-0.03978 0.134757,8.4e-4 0.210202,0.106458 0.238707,0.278491 0.01235,0.05072 0.0014,0.175913 0,0.397844 l 0,0.835473 c -0.283582,-0.428956 -0.694479,-0.632987 -1.2731,-0.636551 -0.595098,-0.0035 -1.074012,0.195946 -1.432239,0.596766 -0.358637,0.400345 -0.553925,0.920173 -0.556981,1.591376 -0.0045,0.665319 0.158159,1.218109 0.517197,1.631159 0.359101,0.412165 0.837584,0.593456 1.432238,0.596766 0.588835,0.0038 1.041912,-0.166524 1.352669,-0.556981 l 0,0.119353 0,0.03978 c -0.0015,0.200551 0.08125,0.317574 0.238707,0.318274 0.05294,2.68e-4 0.127412,-0.02314 0.198922,-0.03978 0.116424,-0.01032 0.181595,-3.61e-4 0.198921,0 0.05783,1.78e-4 0.158068,0.0253 0.278491,0.03978 0.119061,0.01485 0.179583,-7.12e-4 0.238707,0 0.26332,0.0013 0.396315,-0.09039 0.397843,-0.27849 2.46e-4,-0.181973 -0.09767,-0.277233 -0.318274,-0.278491 -0.03646,-4.07e-4 -0.101747,0.03125 -0.198923,0.03978 -0.04114,0.009 -0.121517,2.55e-4 -0.198922,0 -0.113853,-6.64e-4 -0.16978,-0.03003 -0.198922,-0.119353 -0.03006,-0.08894 -0.0361,-0.349211 -0.03978,-0.716119 l 0,-1.392454 0,-0.795688 c 6.89e-4,-0.145003 0.025,-0.358189 0.03978,-0.63655 0.02092,-0.39449 0.04004,-0.603156 0.03978,-0.63655 0.0063,-0.278083 -0.0047,-0.421065 0,-0.437628 l 0,-0.119353 c 0.0018,-0.222337 -0.07464,-0.31662 -0.238706,-0.318275 -0.05294,-2.67e-4 -0.138526,-0.01322 -0.238706,0 -0.09926,0.01279 -0.185784,0.04005 -0.238707,0.03978 -0.0057,-4.08e-4 -0.09091,-0.02489 -0.27849,-0.03978 -0.122192,-0.01458 -0.192009,2.59e-4 -0.238706,0 z m -24.706104,0.47742 c 0.362034,0.0022 0.658261,0.04607 0.915041,0.119354 0.402067,0.113153 0.726382,0.330749 0.954825,0.716118 0.228784,0.38673 0.361115,0.8785 0.358059,1.432239 -0.0045,0.707594 -0.214233,1.281408 -0.596765,1.710729 -0.316865,0.357978 -0.810884,0.521524 -1.511807,0.517196 -0.403392,-0.0025 -0.668531,-0.01745 -0.755903,-0.03978 -0.262422,-0.05678 -0.399754,-0.22304 -0.397844,-0.477412 l 0.03978,-3.501026 c 0.0012,-0.232177 0.05678,-0.348282 0.159137,-0.397844 0.103185,-0.04861 0.373806,-0.08224 0.835472,-0.07957 z m 13.327769,0.795688 c -0.461664,-0.0027 -0.828143,0.09797 -1.153747,0.318275 -0.325193,0.220778 -0.515669,0.484781 -0.517197,0.795688 -0.0011,0.144529 0.05693,0.29746 0.159138,0.397844 0.101313,0.10032 0.245315,0.118118 0.397844,0.119353 0.129036,-2.6e-5 0.233028,-0.0083 0.318274,-0.07956 0.08534,-0.07259 0.118883,-0.167286 0.119354,-0.278491 7.51e-4,-0.133431 -0.03706,-0.222716 -0.119354,-0.278491 -0.05229,-0.03358 -0.08028,-0.05738 -0.07957,-0.07957 -1.1e-5,-0.06141 0.03172,-0.143847 0.119354,-0.198921 0.229319,-0.137824 0.493056,-0.200578 0.755903,-0.198923 0.297121,0.0014 0.510982,0.06729 0.676334,0.198923 0.165383,0.131197 0.279408,0.328787 0.278491,0.556981 -0.002,0.238341 -0.08904,0.389008 -0.238706,0.477412 -0.148712,0.08759 -0.463302,0.151678 -0.954826,0.198922 -0.344359,0.03651 -0.601832,0.05579 -0.716119,0.07957 -0.113916,0.0247 -0.239712,0.07668 -0.397843,0.159138 -0.415459,0.213811 -0.633495,0.573646 -0.63655,1.034394 -0.002,0.372278 0.155204,0.651951 0.437628,0.875257 0.28195,0.223708 0.640726,0.355513 1.113963,0.358059 0.637338,0.0038 1.131896,-0.223983 1.432238,-0.63655 0.10885,0.396306 0.39579,0.594092 0.875256,0.596765 0.584377,0.004 0.861723,-0.223831 0.875257,-0.755903 l 0.03978,-0.477412 0,-0.03978 c 0.0019,-0.266387 -0.127489,-0.436355 -0.318276,-0.437629 -0.179243,-9.3e-4 -0.23758,0.102816 -0.238706,0.278491 l 0,0.397844 c -0.0022,0.350904 -0.113255,0.518725 -0.318275,0.517197 -0.164133,-7.37e-4 -0.284704,-0.08429 -0.318275,-0.278491 -0.01108,-0.04974 -0.0014,-0.210994 0,-0.477412 l 0,-1.670944 c 0.0055,-0.969145 -0.52886,-1.46553 -1.591376,-1.472023 z m 5.80852,0.03978 c -0.585261,-0.0041 -1.037721,0.216345 -1.392453,0.636551 l 0,-0.238707 c 7.74e-4,-0.170802 -0.109487,-0.277402 -0.278491,-0.278491 -0.0057,-4.2e-4 -0.08733,0.02625 -0.238705,0.03978 -0.07004,0.01491 -0.145745,4.88e-4 -0.238707,0 l -0.318275,-0.03978 c -0.02313,-0.0061 -0.04353,-6.5e-5 -0.07957,0 -0.261485,-0.002 -0.396443,0.09305 -0.397843,0.278491 -5.29e-4,0.179721 0.104789,0.277301 0.318274,0.278491 0.0418,3.56e-4 0.117775,-0.02518 0.198923,-0.03978 0.08019,-0.01377 0.116858,5.9e-5 0.159137,0 0.09469,0.001 0.160818,0.0097 0.198922,0.07957 0.03808,0.07037 0.06875,0.20885 0.07957,0.397844 l 0,0.318275 0,0.99461 0,0.91504 c -0.0081,0.321558 -0.100601,0.478687 -0.278491,0.477413 -0.07741,-2.54e-4 -0.157992,0.01606 -0.238707,0 -0.08074,-0.01561 -0.129792,-0.03944 -0.159138,-0.03978 -0.190789,-0.0013 -0.317053,0.101492 -0.318274,0.278491 -0.0011,0.188133 0.151913,0.276708 0.397843,0.278491 0.03469,2.93e-4 0.180292,-0.013 0.437629,-0.03978 0.203991,-0.02129 0.354189,-0.04023 0.477412,-0.03978 0.157431,0.0011 0.308986,0.02203 0.437629,0.03978 0.256843,0.03547 0.39093,0.03953 0.437628,0.03978 0.233474,0.0018 0.356659,-0.09883 0.35806,-0.278491 0.0014,-0.185443 -0.09747,-0.277424 -0.278491,-0.278491 -0.05204,-1.91e-4 -0.117074,0.02167 -0.198922,0.03978 -0.08181,0.01771 -0.152186,0.0396 -0.198922,0.03978 -0.09341,-5.19e-4 -0.125057,-0.07035 -0.159137,-0.159137 -0.03492,-0.0893 -0.08122,-0.233253 -0.07957,-0.477413 l 0,-1.113963 c 0.003,-0.520824 0.09767,-0.898564 0.238707,-1.113963 0.205181,-0.31488 0.528487,-0.479959 0.994609,-0.477412 0.244159,0.0017 0.485401,0.07032 0.676335,0.198922 0.174375,0.117609 0.26814,0.305783 0.318275,0.517197 0.02931,0.111128 0.04234,0.30284 0.03978,0.596765 l 0,0.63655 0,0.477413 0,0.437628 c -0.0136,0.305142 -0.09683,0.47832 -0.238706,0.477413 -0.02981,6.4e-5 -0.08609,-0.01873 -0.198922,-0.03978 -0.05883,-0.01095 -0.112033,-0.03905 -0.159138,-0.03978 -0.20239,-8.32e-4 -0.317002,0.106826 -0.318275,0.278491 -0.0011,0.193471 0.125438,0.277254 0.358059,0.278491 0.01825,-2.6e-5 0.145601,-0.007 0.437628,-0.03978 0.0991,-0.0107 0.245758,-0.0012 0.397844,0 0.16369,7e-4 0.330255,0.01604 0.517197,0.03978 0.186058,0.02372 0.315984,-1.3e-4 0.397844,0 0.09831,4.32e-4 0.208216,-0.02459 0.278491,-0.07957 0.06976,-0.05413 0.07938,-0.11617 0.07956,-0.198921 7.52e-4,-0.07203 -0.02406,-0.108405 -0.07956,-0.159138 -0.05469,-0.04978 -0.123325,-0.079 -0.198922,-0.07957 -0.03472,1.66e-4 -0.07417,-0.01209 -0.159137,0 -0.08501,0.01248 -0.146878,0.03999 -0.198923,0.03978 -0.127641,-7.69e-4 -0.210532,-0.129361 -0.238706,-0.318275 -0.0056,-0.04491 -0.04144,-0.159027 -0.03978,-0.397844 l 0.03978,-1.591375 c 0.0017,-0.305564 -0.03917,-0.566345 -0.119353,-0.755904 -0.09831,-0.228243 -0.316941,-0.402386 -0.596766,-0.556981 -0.280743,-0.15422 -0.559037,-0.236797 -0.875256,-0.238707 z m 12.890142,0.07957 c -0.280679,-0.0012 -0.488255,0.02882 -0.676334,0.119353 -0.187607,0.09012 -0.384692,0.279347 -0.596766,0.517198 l 0,-0.238707 c 4.48e-4,-0.160152 -0.09949,-0.237989 -0.238707,-0.238706 l -0.238706,0 c -0.0063,-5e-6 -0.0051,2.82e-4 -0.03978,0 -0.03468,-2.82e-4 -0.08998,-1.02e-4 -0.119353,0 -0.08139,-5.47e-4 -0.167107,0.01031 -0.27849,0 -0.110532,-0.0097 -0.174238,-0.03913 -0.238707,-0.03978 -0.239727,-0.0013 -0.357366,0.09033 -0.35806,0.278491 -0.0013,0.17745 0.102128,0.27709 0.318276,0.27849 0.0356,-1.01e-4 0.06028,0.01082 0.119353,0 0.139589,-0.02906 0.215153,-0.04015 0.238706,-0.03978 0.116514,8.46e-4 0.214174,0.04302 0.238706,0.159137 0.02618,0.117138 0.04182,0.403758 0.03978,0.875257 l -0.03978,1.2731 0,0.477413 c -0.01385,0.271752 -0.07906,0.399116 -0.238706,0.397844 -0.01825,0 -0.03393,0.0048 -0.03978,0 l -0.238706,-0.03978 c -0.01196,-3.82e-4 -0.01657,0.0052 -0.03978,0 -0.02359,7.6e-5 -0.02782,-2.2e-5 -0.03978,0 -0.225951,-0.0012 -0.355641,0.06445 -0.35806,0.238707 -0.0018,0.191196 0.12544,0.317038 0.35806,0.318274 0.05337,3.06e-4 0.187379,-0.01871 0.437629,-0.03978 0.187985,-0.01528 0.327594,-0.04041 0.397843,-0.03978 0.13966,7.52e-4 0.318271,0.01562 0.517197,0.03978 0.145559,0.01763 0.25802,0.03878 0.35806,0.03978 0.262435,0.0012 0.395934,-0.09887 0.397844,-0.278491 2.6e-5,-0.1851 -0.130374,-0.276708 -0.35806,-0.27849 -0.01737,8e-5 -0.01619,-7.5e-5 -0.03978,0 -0.02321,0.0073 -0.0685,3.56e-4 -0.07957,0 -0.09333,0.0293 -0.129792,0.07991 -0.159138,0.07957 -0.104495,-8.45e-4 -0.177011,-0.128923 -0.198921,-0.318275 -0.0047,-0.03861 -5e-4,-0.175405 0,-0.397844 l 0,-1.074178 c 0.0025,-0.539542 0.108048,-0.937805 0.27849,-1.153748 0.205173,-0.265491 0.49052,-0.39988 0.875257,-0.397843 0.351346,0.0023 0.579494,0.08797 0.716119,0.27849 0.135799,0.189572 0.20185,0.550502 0.198922,1.034394 l 0,0.676335 c 4.5e-4,0.0053 0.001,0.05865 0,0.159137 -3.82e-4,0.116552 8.45e-4,0.235321 0,0.35806 l -0.03978,0.397844 c -0.0075,0.283329 -0.05926,0.438377 -0.198922,0.437628 -0.04094,1.52e-4 -0.116922,-0.01694 -0.198922,-0.03978 -0.03366,-0.01442 -0.09467,-0.03913 -0.159137,-0.03978 -0.174785,-0.0011 -0.23812,0.104115 -0.238707,0.278491 -0.0013,0.190787 0.119213,0.277249 0.35806,0.278491 0.111205,4.71e-4 0.212341,-0.01828 0.358059,-0.03978 0.14575,-0.02198 0.314443,-9.3e-4 0.437629,0 0.08674,4.83e-4 0.187558,-0.02345 0.358059,0 0.172271,0.02361 0.310229,0.03924 0.397844,0.03978 0.274419,0.0015 0.397503,-0.0952 0.397843,-0.278491 0.0011,-0.07689 -0.02419,-0.106634 -0.07957,-0.159137 -0.05538,-0.0525 -0.117086,-0.079 -0.198921,-0.07957 -0.03472,1.53e-4 -0.09242,-0.01209 -0.159138,0 -0.06724,0.013 -0.0847,7.25e-4 -0.119353,0 -0.111192,-4.72e-4 -0.213423,-0.02872 -0.238707,-0.159137 -0.02515,-0.131302 -0.003,-0.473344 0,-0.99461 l 0,-0.596766 c 0.0033,-0.538592 0.07034,-0.898554 0.198922,-1.113963 0.164611,-0.270647 0.421836,-0.400135 0.835473,-0.397843 0.214374,0.0013 0.42832,0.0182 0.596765,0.119352 0.167559,0.101098 0.297715,0.262853 0.35806,0.437629 0.06031,0.175218 0.08186,0.452981 0.07957,0.835472 l 0,0.556981 0,0.477413 c -0.0081,0.377174 -0.05274,0.621948 -0.07957,0.716119 -0.02682,0.09417 -0.09973,0.15963 -0.198922,0.159138 -0.05783,-1.78e-4 -0.08559,-0.02668 -0.119353,-0.03978 -0.09292,-0.01341 -0.135585,3.68e-4 -0.159137,0 -0.185038,-9.3e-4 -0.277371,0.06926 -0.278491,0.238706 -0.0013,0.195686 0.112987,0.277244 0.358059,0.278491 0.09916,9.3e-4 0.248532,0.01837 0.437628,0 0.190045,-0.01923 0.338442,-0.04028 0.437628,-0.03978 0.09388,1.02e-4 0.22048,0.01896 0.397844,0.03978 0.178219,0.02137 0.310255,0.03879 0.397844,0.03978 0.233533,8.45e-4 0.355895,-0.122205 0.35806,-0.318276 6.14e-4,-0.168589 -0.114146,-0.237305 -0.318276,-0.238706 -0.04091,-2.93e-4 -0.116666,0.02215 -0.198921,0.03978 -0.08096,0.01813 -0.11822,2.88e-4 -0.159138,0 -0.121848,-7.95e-4 -0.210443,-0.07845 -0.238706,-0.278491 -0.0048,-0.05018 -0.0018,-0.209498 0,-0.437627 l 0,-0.596767 0,-0.835472 c 0.0023,-0.394948 -0.0052,-0.6919 -0.07957,-0.875256 -0.10978,-0.272677 -0.345815,-0.485171 -0.63655,-0.63655 -0.263022,-0.134699 -0.541712,-0.19663 -0.875257,-0.198923 -0.321562,-0.0019 -0.591826,0.06574 -0.795688,0.159138 -0.204745,0.09333 -0.396647,0.244927 -0.596765,0.477413 C 73.9662,74.18545 73.529412,73.976375 72.957903,73.972937 Z m 7.559033,0.03978 c -0.625354,-0.0033 -1.098303,0.197066 -1.472022,0.596766 -0.374192,0.400112 -0.552653,0.954709 -0.556981,1.63116 -0.0032,0.67743 0.151765,1.186762 0.517197,1.591376 0.365905,0.404202 0.858682,0.633112 1.472022,0.63655 0.630635,0.0042 1.128499,-0.227309 1.511807,-0.63655 0.382356,-0.408421 0.593201,-0.914419 0.596766,-1.591376 0.0057,-0.67724 -0.190026,-1.235335 -0.556982,-1.63116 -0.365154,-0.396139 -0.874025,-0.592947 -1.511807,-0.596766 z m 5.291324,0.03978 c -0.507479,-0.0028 -0.888011,0.192582 -1.193532,0.596765 l 0,-0.238705 c 0.0022,-0.15913 -0.08773,-0.240744 -0.238706,-0.238707 -0.06399,-10e-4 -0.111791,0.02497 -0.159137,0.03978 -0.105578,0.01418 -0.19201,2.6e-4 -0.238707,0 -0.05827,-2.16e-4 -0.161289,0.01603 -0.27849,0 -0.117266,-0.01508 -0.180437,-0.03958 -0.238707,-0.03978 -0.251306,-0.0013 -0.397683,0.0854 -0.397844,0.278491 -0.0012,0.176118 0.08634,0.277509 0.278491,0.27849 0.04715,2.94e-4 0.115152,-0.02582 0.198922,-0.03978 0.08109,-0.01377 0.152225,-2.59e-4 0.198921,0 0.157018,6.68e-4 0.263902,0.149767 0.278491,0.477414 l 0,1.90965 0,0.437628 c -0.01356,0.255307 -0.09193,0.358877 -0.238706,0.35806 -0.024,-4.08e-4 -0.06012,0.01146 -0.119353,0 l -0.119353,-0.03978 c -0.02937,-0.0061 -0.09995,-1.73e-4 -0.159138,0 -0.224139,-0.0015 -0.31788,0.06699 -0.318275,0.238706 -0.0015,0.193891 0.117444,0.316875 0.35806,0.318275 l 0.477412,-0.03978 c 0.13341,-0.0112 0.324394,-0.04144 0.556982,-0.03978 0.08851,6.12e-4 0.221364,0.01902 0.397844,0.03978 0.178249,0.02088 0.310191,0.03968 0.397844,0.03978 l 0.03978,0 c 0.240613,0.0014 0.358059,-0.0876 0.358059,-0.278491 10e-4,-0.174349 -0.08992,-0.277323 -0.27849,-0.27849 -0.04671,-2.67e-4 -0.09453,0.02621 -0.159138,0.03978 -0.08187,0.0185 -0.162219,6.32e-4 -0.238707,0 -0.153001,-8.23e-4 -0.250202,-0.160791 -0.278491,-0.477413 -0.0043,-0.04481 -0.0025,-0.225403 0,-0.596766 l 0,-0.556981 c 0.0025,-0.48304 0.02475,-0.836294 0.119354,-1.074178 0.154843,-0.387931 0.460932,-0.599313 0.915041,-0.596766 0.222373,0.0014 0.408466,0.04695 0.556981,0.159137 0.14722,0.111639 0.240106,0.277099 0.238706,0.437629 -4.58e-4,0.05558 -0.0038,0.0932 -0.03978,0.159137 -0.05788,-0.01793 -0.102026,-0.03943 -0.119353,-0.03978 -0.09476,-1.78e-4 -0.208559,0.05055 -0.27849,0.119354 -0.07173,0.06911 -0.07937,0.149728 -0.07957,0.238705 -4.41e-4,0.110761 0.02671,0.199712 0.119353,0.278491 0.09358,0.07795 0.2233,0.118513 0.358059,0.119354 0.210835,0.001 0.387877,-0.08698 0.517197,-0.238707 0.130205,-0.151662 0.198626,-0.312725 0.198922,-0.556981 0.0025,-0.343758 -0.145487,-0.654569 -0.397844,-0.875257 -0.252357,-0.22068 -0.584547,-0.315728 -0.994609,-0.318275 z m 3.859085,0 c -0.620422,-0.004 -1.123337,0.217448 -1.511806,0.63655 -0.387648,0.420051 -0.59231,0.954268 -0.596766,1.63116 -0.0032,0.660073 0.197832,1.19834 0.556981,1.591376 0.360003,0.393541 0.818898,0.593328 1.432239,0.596765 0.491038,0.0025 0.926177,-0.120104 1.312884,-0.397844 0.388446,-0.277165 0.594344,-0.594593 0.596762,-0.954824 5.58e-4,-0.210873 -0.102124,-0.316876 -0.318271,-0.318276 -0.152118,-7.58e-4 -0.237752,0.06616 -0.278491,0.198922 l -0.07957,0.238706 c -0.06512,0.205312 -0.222986,0.345646 -0.437628,0.477413 -0.214644,0.131762 -0.459059,0.200577 -0.716119,0.198922 -0.391407,-0.002 -0.692528,-0.117711 -0.954825,-0.397844 -0.260529,-0.28001 -0.399499,-0.656494 -0.397845,-1.074179 5.36e-4,-0.04446 0.01662,-0.06078 0.03978,-0.07957 0.02411,-0.01968 0.08265,-0.04042 0.159138,-0.03978 l 2.784907,0.03978 c 0.140548,8.15e-4 0.209039,-0.03232 0.238709,-0.07956 0.02875,-0.04686 0.03839,-0.187043 0.03974,-0.397844 0.0042,-0.537201 -0.16342,-0.962509 -0.517196,-1.312884 -0.3546,-0.351328 -0.803832,-0.5538 -1.35267,-0.556982 z m -24.745888,0.397844 c 0.305563,0.0017 0.561135,0.13447 0.795688,0.318275 0.1991,0.157216 0.346309,0.358294 0.397843,0.636551 0.02865,0.133772 0.0422,0.384099 0.03978,0.755903 -0.0018,0.28909 -0.01541,0.53278 -0.03978,0.716119 -0.03733,0.288743 -0.146131,0.5021 -0.358059,0.676334 -0.213224,0.173692 -0.477699,0.280528 -0.795687,0.278491 -0.417621,-0.0025 -0.755002,-0.172662 -0.99461,-0.477413 -0.239676,-0.303866 -0.361115,-0.705379 -0.35806,-1.233316 0.0022,-0.511086 0.123771,-0.940561 0.35806,-1.233316 0.233841,-0.292786 0.542107,-0.440301 0.954825,-0.437628 z m 15.635264,0.119353 c 0.887791,0.0046 1.32065,0.560465 1.312885,1.670945 -0.0025,0.527526 -0.114223,0.937691 -0.35806,1.233315 -0.245608,0.295495 -0.568073,0.43992 -0.99461,0.437629 -0.415405,-0.0025 -0.765209,-0.139398 -0.99461,-0.437629 -0.228926,-0.29864 -0.32133,-0.711165 -0.318274,-1.233315 7.55e-4,-0.07203 0,-0.119354 0,-0.119354 0.0254,-0.499177 0.162028,-0.882905 0.397843,-1.153747 0.234932,-0.270906 0.545649,-0.400263 0.954826,-0.397844 z m 9.110624,0.03978 c 0.316219,0.0019 0.602495,0.10032 0.835472,0.318275 0.231685,0.217413 0.360225,0.501729 0.35806,0.795688 -2.87e-4,0.07785 -0.07663,0.120181 -0.198922,0.119353 l -2.108572,-0.03978 c -0.129414,-9.3e-4 -0.199207,-0.04151 -0.198922,-0.119353 0.0018,-0.277075 0.16663,-0.494094 0.437628,-0.716119 0.269769,-0.223449 0.547908,-0.359969 0.875256,-0.358059 z m -34.493063,1.432238 0,0.596766 c -0.0079,0.355389 -0.132198,0.634658 -0.358059,0.835472 -0.225831,0.200372 -0.524108,0.28091 -0.915041,0.278491 -0.274863,-0.0017 -0.516129,-0.07611 -0.676335,-0.198923 -0.16018,-0.123261 -0.239735,-0.266136 -0.238706,-0.477412 0.0025,-0.404719 0.331516,-0.65902 0.99461,-0.716119 0.366203,-0.03094 0.613455,-0.07537 0.755903,-0.119353 0.143269,-0.04305 0.309101,-0.08896 0.437628,-0.198922 z" />
  <rect
     style="color:#000000;display:inline;overflow:visible;visibility:visible;opacity:0.15;fill:#000000;fill-opacity:1;fill-rule:nonzero;stroke:none;stroke-width:1;marker:none;enable-background:accumulate"
     id="rect4190"
     y="47.364315"
     x="26.927341"
     height="1.3853145"
     width="71.293625" />
  <rect
     style="color:#000000;display:inline;overflow:visible;visibility:visible;opacity:0.15;fill:#000000;fill-opacity:1;fill-rule:nonzero;stroke:none;stroke-width:1;marker:none;enable-background:accumulate"
     id="rect3877"
     y="62.641518"
     x="26.927341"
     height="1.3853145"
     width="71.293625" />
  <rect
     style="color:#000000;display:inline;overflow:visible;visibility:visible;opacity:0.15;fill:#000000;fill-opacity:1;fill-rule:nonzero;stroke:none;stroke-width:1;marker:none;enable-background:accumulate"
     id="rect3905"
     y="77.918724"
     x="26.927341"
     height="1.3853145"
     width="71.293625" />
  <rect
     style="color:#000000;display:inline;overflow:visible;visibility:visible;opacity:0.15;fill:#000000;fill-opacity:1;fill-rule:nonzero;stroke:none;stroke-width:1;marker:none;enable-background:accumulate"
     id="rect4188"
     y="93.195915"
     x="36.213772"
     height="1.3853145"
     width="52.72076" />
  <rect
     style="color:#000000;display:inline;overflow:visible;visibility:visible;opacity:0.15;fill:#000000;fill-opacity:1;fill-rule:nonzero;stroke:none;stroke-width:1;marker:none;enable-background:accumulate"
     id="rect4207"
     y="32.087109"
     x="38.850475"
     height="1.3853145"
     width="46.701962" />
  <circle
     style="opacity:1;fill:#ffffff;fill-opacity:1;stroke:none;stroke-width:0.60000002;stroke-miterlimit:4;stroke-dasharray:none;stroke-dashoffset:0;stroke-opacity:1"
     id="path3474"
     cx="22.115915"
     cy="35.337318"
     r="7.7244582" />
  <circle
     style="opacity:1;fill:none;fill-opacity:1;stroke:#919191;stroke-width:2.12601423;stroke-miterlimit:4;stroke-dasharray:none;stroke-dashoffset:0;stroke-opacity:1"
     id="path3474-9"
     cx="21.763939"
     cy="35.030529"
     r="7.7244582" />
</svg>
