<?xml version="1.0" encoding="UTF-8" standalone="no"?>
<svg
   xmlns:dc="http://purl.org/dc/elements/1.1/"
   xmlns:cc="http://creativecommons.org/ns#"
   xmlns:rdf="http://www.w3.org/1999/02/22-rdf-syntax-ns#"
   xmlns:svg="http://www.w3.org/2000/svg"
   xmlns="http://www.w3.org/2000/svg"
   xmlns:sodipodi="http://sodipodi.sourceforge.net/DTD/sodipodi-0.dtd"
   xmlns:inkscape="http://www.inkscape.org/namespaces/inkscape"
   viewBox="0 0 128 128"
   id="svg2"
   version="1.1"
   inkscape:version="0.91 r"
   sodipodi:docname="fityk.svg"
   width="128"
   height="128">
  <metadata
     id="metadata42">
    <rdf:RDF>
      <cc:Work
         rdf:about="">
        <dc:format>image/svg+xml</dc:format>
        <dc:type
           rdf:resource="http://purl.org/dc/dcmitype/StillImage" />
        <dc:title></dc:title>
      </cc:Work>
    </rdf:RDF>
  </metadata>
  <sodipodi:namedview
     pagecolor="#ffffff"
     bordercolor="#666666"
     borderopacity="1"
     objecttolerance="10"
     gridtolerance="10"
     guidetolerance="10"
     inkscape:pageopacity="0"
     inkscape:pageshadow="2"
     inkscape:window-width="1366"
     inkscape:window-height="744"
     id="namedview40"
     showgrid="false"
     inkscape:zoom="3.4766083"
     inkscape:cx="62.232878"
     inkscape:cy="48.370431"
     inkscape:window-x="0"
     inkscape:window-y="24"
     inkscape:window-maximized="1"
     inkscape:current-layer="svg2" />
  <defs
     id="defs4">
    <clipPath
       id="1">
      <path
         transform="matrix(15.33333,0,0,11.5,415,-125.5)"
         d="m -24,13 c 0,1.105 -0.672,2 -1.5,2 -0.828,0 -1.5,-0.895 -1.5,-2 0,-1.105 0.672,-2 1.5,-2 0.828,0 1.5,0.895 1.5,2"
         id="path7"
         inkscape:connector-curvature="0"
         style="fill:#1890d0" />
    </clipPath>
    <linearGradient
       gradientTransform="matrix(1.1934182,0,0,1.1535112,215.49547,37.991214)"
       gradientUnits="userSpaceOnUse"
       y2="-26.049999"
       x2="-125.19"
       y1="73.5"
       x1="-123.97"
       id="0">
      <stop
         stop-color="#f15400"
         id="stop10" />
      <stop
         offset="1"
         stop-color="#fa8c00"
         id="stop12" />
    </linearGradient>
  </defs>
  <rect
     height="115.88226"
     width="115.88226"
     rx="14.999"
     id="rect14"
     x="6.3280067"
     y="6.365016"
     style="fill:url(#0);fill-rule:evenodd;stroke-width:1" />
  <g
     transform="matrix(3.0936698,0,0,3.1028439,-9.9800053,-11.712616)"
     id="g16"
     style="fill-opacity:0.66199999">
    <g
       clip-path="url(#1)"
       id="g18"
       style="fill-opacity:0.66199999">
      <g
         id="g20"
         style="fill-opacity:0.66199999">
        <path
           d="m 36,14.332 c 0,1.262 -1.02,2.281 -2.281,2.281 -1.258,0 -2.281,-1.02 -2.281,-2.281 0,-1.262 1.023,-2.281 2.281,-2.281 1.262,0 2.281,1.02 2.281,2.281"
           id="path22"
           inkscape:connector-curvature="0" />
        <path
           d="m 31.22,15.773 c 0,1.262 -1.02,2.281 -2.281,2.281 -1.258,0 -2.281,-1.02 -2.281,-2.281 0,-1.262 1.023,-2.281 2.281,-2.281 1.262,0 2.281,1.02 2.281,2.281"
           id="path24"
           inkscape:connector-curvature="0" />
        <path
           d="m 27.371,19.14 c 0,1.262 -1.02,2.281 -2.281,2.281 -1.258,0 -2.281,-1.02 -2.281,-2.281 0,-1.262 1.023,-2.281 2.281,-2.281 1.262,0 2.281,1.02 2.281,2.281"
           id="path26"
           inkscape:connector-curvature="0" />
        <path
           d="m 25.863,24.25 c 0,1.258 -1.023,2.281 -2.281,2.281 -1.262,0 -2.281,-1.023 -2.281,-2.281 0,-1.262 1.02,-2.285 2.281,-2.285 1.258,0 2.281,1.023 2.281,2.285"
           id="path28"
           inkscape:connector-curvature="0" />
        <path
           d="m 25,29.551 c 0,1.262 -1.023,2.285 -2.281,2.285 -1.262,0 -2.281,-1.023 -2.281,-2.285 0,-1.258 1.02,-2.281 2.281,-2.281 1.258,0 2.281,1.023 2.281,2.281"
           id="path30"
           inkscape:connector-curvature="0" />
        <path
           d="m 21.758,33.703 c 0,1.262 -1.023,2.281 -2.281,2.281 -1.258,0 -2.281,-1.02 -2.281,-2.281 0,-1.262 1.023,-2.281 2.281,-2.281 1.258,0 2.281,1.02 2.281,2.281"
           id="path32"
           inkscape:connector-curvature="0" />
        <path
           d="m 16.563,34.668 c 0,1.262 -1.023,2.281 -2.281,2.281 -1.262,0 -2.281,-1.02 -2.281,-2.281 0,-1.262 1.02,-2.281 2.281,-2.281 1.258,0 2.281,1.02 2.281,2.281"
           id="path34"
           inkscape:connector-curvature="0" />
        <path
           d="m 20.734,24.363 c 0,1.262 -1.02,2.285 -2.277,2.285 -1.262,0 -2.281,-1.023 -2.281,-2.285 0,-1.258 1.02,-2.281 2.281,-2.281 1.258,0 2.277,1.023 2.277,2.281"
           id="path36"
           inkscape:connector-curvature="0" />
        <path
           d="m 31.28,24.26 c 0,1.262 -1.023,2.281 -2.281,2.281 -1.258,0 -2.281,-1.02 -2.281,-2.281 0,-1.262 1.023,-2.281 2.281,-2.281 1.258,0 2.281,1.02 2.281,2.281"
           id="path38"
           inkscape:connector-curvature="0" />
      </g>
    </g>
  </g>
</svg>
