<?xml version="1.0" encoding="UTF-8" standalone="no"?>
<svg
   xmlns:dc="http://purl.org/dc/elements/1.1/"
   xmlns:cc="http://creativecommons.org/ns#"
   xmlns:rdf="http://www.w3.org/1999/02/22-rdf-syntax-ns#"
   xmlns:svg="http://www.w3.org/2000/svg"
   xmlns="http://www.w3.org/2000/svg"
   xmlns:xlink="http://www.w3.org/1999/xlink"
   xmlns:sodipodi="http://sodipodi.sourceforge.net/DTD/sodipodi-0.dtd"
   xmlns:inkscape="http://www.inkscape.org/namespaces/inkscape"
   viewBox="0 0 128 128"
   id="svg2"
   version="1.1"
   inkscape:version="0.91 r"
   sodipodi:docname="freemind.svg"
   width="128"
   height="128">
  <metadata
     id="metadata32">
    <rdf:RDF>
      <cc:Work
         rdf:about="">
        <dc:format>image/svg+xml</dc:format>
        <dc:type
           rdf:resource="http://purl.org/dc/dcmitype/StillImage" />
        <dc:title />
      </cc:Work>
    </rdf:RDF>
  </metadata>
  <sodipodi:namedview
     pagecolor="#ffffff"
     bordercolor="#666666"
     borderopacity="1"
     objecttolerance="10"
     gridtolerance="10"
     guidetolerance="10"
     inkscape:pageopacity="0"
     inkscape:pageshadow="2"
     inkscape:window-width="1366"
     inkscape:window-height="744"
     id="namedview30"
     showgrid="false"
     inkscape:zoom="2.4583333"
     inkscape:cx="60.450745"
     inkscape:cy="61.257539"
     inkscape:window-x="0"
     inkscape:window-y="24"
     inkscape:window-maximized="1"
     inkscape:current-layer="svg2" />
  <defs
     id="defs4">
    <linearGradient
       inkscape:collect="always"
       id="linearGradient3347">
      <stop
         style="stop-color:#383f45;stop-opacity:1;"
         offset="0"
         id="stop3349" />
      <stop
         id="stop3355"
         offset="0.19109689"
         style="stop-color:#949ea7;stop-opacity:1" />
      <stop
         style="stop-color:#393b3c;stop-opacity:1"
         offset="0.80447924"
         id="stop3357" />
      <stop
         style="stop-color:#383f45;stop-opacity:0;"
         offset="1"
         id="stop3351" />
    </linearGradient>
    <clipPath
       id="clipPath6">
      <path
         transform="matrix(15.33333,0,0,11.5,415,-125.5)"
         d="m -24,13 c 0,1.105 -0.672,2 -1.5,2 -0.828,0 -1.5,-0.895 -1.5,-2 0,-1.105 0.672,-2 1.5,-2 0.828,0 1.5,0.895 1.5,2"
         id="path8"
         inkscape:connector-curvature="0"
         style="fill:#1890d0" />
    </clipPath>
    <linearGradient
       y1="545.79999"
       x2="0"
       y2="517.79999"
       gradientUnits="userSpaceOnUse"
       id="linearGradient10">
      <stop
         stop-color="#3889e9"
         id="stop12" />
      <stop
         offset="1"
         stop-color="#5ea5fb"
         id="stop14" />
    </linearGradient>
    <linearGradient
       id="1"
       gradientUnits="userSpaceOnUse"
       y1="653.96002"
       x2="0"
       y2="301.29999"
       gradientTransform="matrix(0.35178568,0,0,0.35178568,178.92123,-103.72039)">
      <stop
         stop-color="#566069"
         id="stop17"
         style="stop-color:#383f45;stop-opacity:1" />
      <stop
         offset="1"
         stop-color="#6c7884"
         id="stop19"
         style="stop-color:#98a2ab;stop-opacity:1" />
    </linearGradient>
    <linearGradient
       id="0"
       y1="653.96002"
       x2="0"
       y2="301.29999"
       gradientUnits="userSpaceOnUse">
      <stop
         stop-color="#0a80fd"
         id="stop22" />
      <stop
         offset="1"
         stop-color="#56c5fa"
         id="stop24" />
    </linearGradient>
    <linearGradient
       inkscape:collect="always"
       xlink:href="#linearGradient3347"
       id="linearGradient3353"
       x1="-127.72881"
       y1="-10.305087"
       x2="7.7288136"
       y2="128.81355"
       gradientUnits="userSpaceOnUse"
       gradientTransform="translate(125.28814,4.4745764)" />
  </defs>
  <circle
     style="opacity:1;fill:url(#linearGradient3353);fill-opacity:1;fill-rule:nonzero;stroke:none;stroke-width:0.69999999;stroke-miterlimit:4;stroke-dasharray:none;stroke-opacity:1"
     id="path3345"
     cx="64.271187"
     cy="64.13559"
     r="58.169491" />
  <path
     d="m 107.44524,40.778753 c -0.56989,-1.838992 -3.54096,-3.007891 -6.72238,-3.324208 -3.910739,-0.391556 -8.91322,0.422928 -13.264178,2.227985 -3.305319,1.37124 -6.367639,3.078007 -9.51544,5.553793 -4.950614,3.891212 -7.573036,7.023004 -8.899133,8.772348 -1.071572,1.412863 -1.299525,3.025174 -2.282732,3.767643 -0.04963,-0.372353 0.0826,-1.352991 -0.556756,-1.724708 -0.188261,-0.109067 -0.399879,-0.235677 -0.612463,-0.35954 0.239464,-0.98801 1.477533,-5.73372 3.464436,-8.456351 2.413679,-3.313322 5.111337,-5.209944 5.46191,-5.427972 0.426772,-0.269253 0.880117,-0.290065 1.177545,-0.476076 0.22571,-0.139906 0.376185,-0.757815 0.252608,-0.825688 -0.458465,-0.250676 -0.966878,0.291343 -1.283836,0.636155 -0.334566,0.365622 -3.833902,2.762968 -5.974804,5.883877 -2.000991,2.914726 -3.262736,7.574952 -3.48973,8.451861 -0.374586,-0.200846 -0.718434,-0.356006 -0.911491,-0.356006 -0.174176,0 -0.469674,0.126355 -0.795914,0.293592 -0.26125,-1.015239 -1.515633,-5.576211 -3.472123,-8.432667 -2.141222,-3.119948 -5.641519,-5.474715 -5.976403,-5.840657 -0.313437,-0.344812 -0.824409,-0.886842 -1.280635,-0.636155 -0.128694,0.06755 0.02339,0.68578 0.249075,0.825688 0.29967,0.186024 0.749171,0.206821 1.179144,0.476076 0.349294,0.217702 3.04599,2.073029 5.461909,5.383791 1.945606,2.667243 3.170853,7.305371 3.451951,8.433312 -0.25421,0.144914 -0.512254,0.297405 -0.736683,0.426429 -0.633595,0.371718 -0.503289,1.352686 -0.555156,1.724708 -0.886839,-0.476081 -1.600794,-2.550058 -2.900639,-4.474214 -1.379883,-2.053183 -3.32869,-4.174875 -8.275465,-8.064806 -3.153883,-2.475468 -6.21364,-4.181274 -9.51736,-5.553792 -4.351596,-1.805377 -9.355038,-2.619861 -13.267379,-2.227985 -3.1859,0.316635 -6.15985,1.485536 -6.72269,3.324208 -0.43702,1.425986 1.51563,5.849621 3.32549,8.419215 1.345623,1.910386 1.626722,4.118211 2.122968,6.296551 0.707872,3.113241 1.992349,7.757463 5.522098,8.914184 3.230403,1.062297 9.549058,-0.848104 9.549058,-0.848104 0,0 0.138635,1.131119 -1.982745,1.980189 -2.207814,0.884613 -3.399126,2.263535 -4.669515,4.669188 -1.140727,2.157875 -2.049657,5.051151 -2.049657,6.328913 0,1.980825 0.494646,2.688363 0.421329,3.607551 -0.0858,1.137831 0.318878,2.26351 1.100067,3.11225 0.876274,0.960476 0.528261,1.804106 0.919494,2.865742 0.352815,0.959206 1.732381,1.733988 1.732381,1.733988 0,0 -0.155923,2.170688 1.415741,3.608517 1.269751,1.166001 2.708864,1.92736 3.644046,2.756879 0.951192,0.850981 1.662266,1.523961 3.711923,1.912311 1.181386,0.22449 1.911988,2.146988 4.386175,2.006118 2.685492,-0.15381 2.678447,-0.0448 4.389376,-0.74501 2.755608,-1.130488 3.988218,-6.467218 5.16096,-11.621766 0.922377,-4.034642 1.628328,-6.537972 2.848132,-7.386076 -0.346091,2.361492 0.170643,6.285999 0.170643,6.285999 0,0 -0.374265,2.014765 -0.02881,2.361187 -0.159761,1.035069 0.161363,2.451135 0.336486,2.416228 0.07172,0.845867 0.512895,2.384221 1.133044,2.384221 0.619506,0 1.062285,-1.538684 1.12984,-2.384221 0.179618,0.03483 0.496565,-1.380829 0.338408,-2.416228 0.344489,-0.346422 -0.02817,-2.361187 -0.02817,-2.361187 0,0 0.476717,-3.685017 0.159431,-6.338168 1.08918,0.555149 1.936959,3.402968 2.856137,7.437279 1.176902,5.154574 2.407913,10.490014 5.167363,11.621762 1.707084,0.70052 1.702284,-0.0102 4.385855,0.14212 2.476106,0.1411 3.204788,-2.201098 4.385854,-2.422968 2.053178,-0.38961 2.760729,-1.061328 3.713842,-1.911009 0.939345,-0.831146 2.370457,-1.59215 3.646289,-2.758811 1.565895,-1.438159 1.4119,-3.609483 1.4119,-3.609483 0,0 1.386928,-0.777656 1.737821,-1.733658 0.38323,-1.06067 0.03745,-1.905266 0.915655,-2.865107 0.778945,-0.847773 1.185866,-1.974418 1.096223,-3.111944 -0.06979,-0.920129 0.428054,-1.627997 0.428054,-3.607551 0,-1.277432 -0.911813,-3.150664 -2.056702,-5.308539 -1.271671,-2.405678 -2.458178,-3.784601 -4.666953,-4.669188 -2.121374,-0.84907 -1.980182,-1.980189 -1.980182,-1.980189 0,0 6.310649,1.910376 9.552897,0.848104 3.524946,-1.15545 4.811986,-5.801273 5.516976,-8.914184 0.49592,-2.178366 0.77894,-4.386495 2.12233,-6.296564 1.8057,-2.570875 3.76347,-6.993228 3.32485,-8.419215"
     id="path28"
     inkscape:connector-curvature="0"
     style="fill:#ffffff;fill-opacity:0.77600002" />
</svg>
