<?xml version="1.0" encoding="UTF-8" standalone="no"?>
<svg
   xmlns:dc="http://purl.org/dc/elements/1.1/"
   xmlns:cc="http://creativecommons.org/ns#"
   xmlns:rdf="http://www.w3.org/1999/02/22-rdf-syntax-ns#"
   xmlns:svg="http://www.w3.org/2000/svg"
   xmlns="http://www.w3.org/2000/svg"
   xmlns:xlink="http://www.w3.org/1999/xlink"
   xmlns:sodipodi="http://sodipodi.sourceforge.net/DTD/sodipodi-0.dtd"
   xmlns:inkscape="http://www.inkscape.org/namespaces/inkscape"
   width="128"
   height="128"
   version="1.1"
   id="svg2"
   inkscape:version="0.91 r"
   sodipodi:docname="frostwire.svg">
  <sodipodi:namedview
     pagecolor="#ffffff"
     bordercolor="#666666"
     borderopacity="1"
     objecttolerance="10"
     gridtolerance="10"
     guidetolerance="10"
     inkscape:pageopacity="0"
     inkscape:pageshadow="2"
     inkscape:window-width="1366"
     inkscape:window-height="744"
     id="namedview17"
     showgrid="false"
     inkscape:zoom="1.84375"
     inkscape:cx="-48.591738"
     inkscape:cy="36.338594"
     inkscape:window-x="0"
     inkscape:window-y="24"
     inkscape:window-maximized="1"
     inkscape:current-layer="svg2" />
  <title
     id="title4">Limewire Icon</title>
  <desc
     id="desc6">This icon is a part of Clarity icon theme for gtk</desc>
  <metadata
     id="metadata8">
    <rdf:RDF>
      <cc:Work
         rdf:about="">
        <dc:title>Limewire Icon</dc:title>
        <dc:description>This icon is a part of Clarity icon theme for gtk</dc:description>
        <dc:creator>
          <cc:Agent>
            <dc:title>Jakub Jankiewicz</dc:title>
          </cc:Agent>
        </dc:creator>
        <dc:rights>
          <cc:Agent>
            <dc:title>Jakub Jankiewicz</dc:title>
          </cc:Agent>
        </dc:rights>
        <dc:date>2010</dc:date>
        <dc:format>image/svg+xml</dc:format>
        <dc:type
           rdf:resource="http://purl.org/dc/dcmitype/StillImage" />
        <cc:license
           rdf:resource="http://www.gnu.org/copyleft/gpl.html" />
      </cc:Work>
    </rdf:RDF>
  </metadata>
  <defs
     id="defs10">
    <linearGradient
       x1="0"
       y1="128"
       x2="128"
       y2="0"
       id="gradient"
       gradientUnits="userSpaceOnUse">
      <stop
         id="start"
         style="stop-color:#dbdbdb;stop-opacity:1"
         offset="0" />
      <stop
         id="stop"
         style="stop-color:#757575;stop-opacity:1"
         offset="1" />
    </linearGradient>
    <linearGradient
       inkscape:collect="always"
       xlink:href="#linearGradient3354"
       id="linearGradient3345"
       x1="-24.949152"
       y1="-31.457626"
       x2="153.49153"
       y2="152.94916"
       gradientUnits="userSpaceOnUse"
       gradientTransform="matrix(-1,0,0,-1,127.45762,128.54237)" />
    <linearGradient
       id="linearGradient3354"
       inkscape:collect="always">
      <stop
         id="stop3356"
         offset="0"
         style="stop-color:#00ffff;stop-opacity:1;" />
      <stop
         style="stop-color:#28170b;stop-opacity:1"
         offset="0.11181399"
         id="stop3364" />
      <stop
         id="stop3363"
         offset="0.5664807"
         style="stop-color:#00ccff;stop-opacity:1" />
      <stop
         style="stop-color:#aaeeff;stop-opacity:1"
         offset="0.92436904"
         id="stop3361" />
      <stop
         id="stop3358"
         offset="1"
         style="stop-color:#00ffff;stop-opacity:0;" />
    </linearGradient>
  </defs>
  <circle
     style="opacity:1;fill:#ffffff;fill-opacity:1;stroke:none;stroke-width:2.06699991;stroke-miterlimit:4;stroke-dasharray:none;stroke-dashoffset:0;stroke-opacity:1"
     id="path3338"
     cx="63.593224"
     cy="64.406776"
     r="56.81356" />
  <path
     d="m 63.728811,122.56257 c 32.180683,0 58.291389,-26.110709 58.291389,-58.291392 0,-32.180685 -26.110706,-58.2913915 -58.291389,-58.2913815 -32.180683,0 -58.2913945,26.1106965 -58.2913845,58.2913815 0,32.180683 26.1107045,58.291392 58.2913845,58.291392 z m 0.152989,-2.83042 c -6.838754,0 -11.140968,-0.89617 -13.769621,-2.60093 -1.314322,-0.85238 -2.189123,-1.97681 -2.600928,-3.21291 -0.411802,-1.23611 -0.334442,-2.50025 0,-3.7484 0.733052,-2.73578 3.365615,-13.00125 7.114303,-24.555822 -1.192705,2.23205 -2.360754,4.41889 -3.518903,6.502319 -2.348823,4.225371 -4.562154,8.015953 -6.349324,10.939203 -1.787169,2.92324 -2.963852,4.7998 -3.901393,5.73734 -0.622983,0.62298 -1.328762,1.32612 -2.218437,1.83595 -0.889677,0.50982 -2.02088,0.76001 -3.289409,0.53548 -2.537058,-0.44905 -5.50789,-2.44798 -10.327212,-7.2673 -4.83571,-4.835717 -7.226,-8.486995 -7.87928,-11.551176 -0.32664,-1.532096 -0.20039,-2.965641 0.38249,-4.130889 0.58287,-1.165247 1.55836,-2.031336 2.67743,-2.677425 2.46449,-1.422881 11.672194,-6.781097 22.566868,-12.31616 -2.454938,0.746762 -4.866476,1.478483 -7.190802,2.141942 -4.648655,1.326916 -8.908896,2.409585 -12.239656,3.212911 -3.33076,0.803325 -5.55894,1.300464 -6.88481,1.300464 -0.88103,0 -1.76432,0.03908 -2.75393,-0.229483 -0.9896,-0.268596 -2.0157,-0.856698 -2.75391,-1.912448 C 9.4688165,75.623319 8.8033265,72.081209 8.8033265,65.26566 c 0,-6.838743 0.89616,-11.140972 2.6009395,-13.769618 0.85238,-1.314325 1.97679,-2.189126 3.21289,-2.600931 1.23611,-0.411801 2.50027,-0.334441 3.7484,0 2.67408,0.716513 12.558798,3.214892 23.790845,6.808313 -1.93151,-1.03746 -3.847522,-2.051916 -5.660844,-3.059914 -4.225372,-2.348825 -8.015954,-4.562153 -10.939191,-6.349327 -2.92324,-1.787171 -4.8763,-3.04034 -5.81384,-3.977888 -0.62298,-0.622981 -1.32613,-1.252267 -1.83596,-2.141941 -0.50982,-0.889678 -0.75999,-2.097377 -0.53548,-3.365906 0.44906,-2.53706 2.52449,-5.507893 7.3438,-10.327202 4.835726,-4.83572 8.486995,-7.226 11.551177,-7.87928 1.532091,-0.32666 2.889142,-0.12391 4.054386,0.45897 1.165245,0.58287 2.107835,1.55837 2.753925,2.67744 1.235937,2.14069 5.459443,9.38093 10.174218,18.359479 -3.0244,-9.7194 -5.173181,-17.880969 -5.813837,-20.271939 -0.334442,-1.24815 -0.335306,-2.58879 0.07649,-3.82489 0.411805,-1.23611 1.286602,-2.28403 2.600927,-3.13641 2.628653,-1.70476 6.854369,-2.60093 13.693121,-2.60093 6.815538,0 10.357662,0.589 12.469157,2.06545 1.055746,0.73822 1.720348,1.76432 1.988944,2.75392 0.2686,0.9896 0.229483,1.94939 0.229483,2.83042 0,1.32588 -0.497138,3.55404 -1.300463,6.88481 -0.803325,3.33076 -1.962493,7.590998 -3.289409,12.239655 -0.663459,2.324327 -1.40235,4.735866 -2.141941,7.190802 5.523853,-10.867309 10.89599,-20.030577 12.316159,-22.490367 0.64608,-1.11907 1.512182,-2.09457 2.677426,-2.67744 1.165245,-0.58287 2.598791,-0.70912 4.130887,-0.38248 3.064202,0.65327 6.715488,3.04355 11.551204,7.87927 4.81932,4.819313 6.81825,7.79015 7.2673,10.327208 0.22452,1.268532 -0.0257,2.399729 -0.53549,3.28941 -0.50982,0.889677 -1.21296,1.595454 -1.83595,2.218437 -0.93754,0.937538 -2.81409,2.114224 -5.73734,3.901393 -2.923246,1.787168 -6.713832,4.0005 -10.939198,6.349326 -1.89075,1.051038 -3.872843,2.130863 -5.890337,3.21291 11.330886,-3.656084 21.327445,-6.239749 24.020335,-6.96131 1.24815,-0.334437 2.51229,-0.411802 3.7484,0 1.2361,0.411806 2.36053,1.363103 3.21291,2.677429 1.70476,2.628648 2.60093,6.854376 2.60093,13.69312 0,6.815549 -0.6655,10.357659 -2.14194,12.469156 -0.73823,1.055751 -1.76433,1.720349 -2.75393,1.988946 -0.98959,0.268595 -1.94939,0.229482 -2.83042,0.229482 -1.32588,0 -3.47754,-0.497138 -6.80831,-1.300462 -3.33077,-0.803328 -7.591007,-1.962492 -12.239665,-3.289409 -3.453684,-0.985825 -7.115107,-2.151833 -10.786201,-3.289411 3.384597,1.778576 6.740909,3.61643 9.868228,5.354862 4.225365,2.348823 8.092448,4.562158 11.015698,6.349326 2.92324,1.787169 4.7998,2.963864 5.73734,3.901393 0.62298,0.622983 1.32612,1.32876 1.83595,2.218437 0.50982,0.889678 0.76001,2.020878 0.53548,3.28941 -0.44905,2.53706 -2.44797,5.507895 -7.2673,10.327211 -4.835705,4.83573 -8.486995,7.226 -11.551179,7.87929 -1.532091,0.32664 -2.96564,0.12387 -4.130884,-0.45899 -1.165246,-0.58287 -2.031344,-1.48187 -2.677429,-2.60093 -1.409146,-2.4407 -6.739099,-11.504482 -12.239658,-22.260885 0.712727,2.349133 1.429845,4.658096 2.065441,6.884811 1.326919,4.648654 2.409587,8.832394 3.212914,12.163164 0.803323,3.33076 1.300461,5.55893 1.300461,6.88481 0,0.88103 0.03908,1.84082 -0.229482,2.83042 -0.268596,0.9896 -0.856698,2.0157 -1.912446,2.75393 -2.111495,1.47645 -5.653617,2.14194 -12.469155,2.14194 z m 0,-2.44794 c 6.637641,0 9.769077,-0.81126 11.015695,-1.68295 0.62331,-0.43584 0.844598,-0.82478 0.994471,-1.37696 0.149862,-0.55218 0.152989,-1.33621 0.152989,-2.21844 0,-0.48437 -0.432218,-2.99006 -1.223966,-6.27283 C 74.02924,102.45027 72.927691,98.192932 71.608076,93.569869 69.283678,85.426678 66.280585,76.435454 63.499303,68.784553 56.594928,85.60323 51.006682,106.58712 49.882694,110.78189 c -0.246043,0.91827 -0.301661,1.69556 -0.0765,2.37144 0.225162,0.67587 0.736643,1.29873 1.682951,1.91244 1.892628,1.22743 5.778203,2.21844 12.392664,2.21844 z m 25.779786,-8.18527 c 0.238597,-0.0143 0.489203,-0.0177 0.764977,-0.0765 2.206202,-0.47037 5.650106,-2.59018 10.327217,-7.2673 4.69354,-4.693531 6.3902,-7.528883 6.65532,-9.026755 0.13255,-0.748933 -0.0215,-1.186529 -0.306,-1.682951 -0.28447,-0.496423 -0.75312,-0.982626 -1.37696,-1.606456 -0.3425,-0.342506 -2.47373,-1.833987 -5.35485,-3.595402 C 97.490169,84.08217 93.710694,81.906652 89.50859,79.57076 82.103968,75.454632 73.631764,71.157394 66.253234,67.713588 c 7.011161,16.766276 17.872512,35.637972 20.042452,39.396402 0.475322,0.8233 0.96933,1.36426 1.606457,1.68296 0.477844,0.23902 1.043657,0.34921 1.759452,0.30599 z M 36.72505,108.79295 c 0.265069,-0.0575 0.516768,-0.16375 0.764979,-0.30599 0.496423,-0.28448 0.982621,-0.75313 1.606455,-1.37697 0.342499,-0.34249 1.833987,-2.47373 3.595399,-5.35485 1.761416,-2.881115 3.936937,-6.660591 6.272829,-10.862699 4.116125,-7.404622 8.413354,-15.87682 11.857172,-23.255357 -16.766285,7.011158 -35.637978,17.872511 -39.396398,20.042448 -0.82331,0.475328 -1.36427,1.045824 -1.68296,1.682952 -0.3187,0.63713 -0.46467,1.34483 -0.22949,2.447932 0.47037,2.206206 2.59019,5.650092 7.2673,10.327214 4.693534,4.69353 7.528886,6.3902 9.026749,6.65532 0.374466,0.0663 0.652906,0.0575 0.917976,0 z m 75.12093,-31.287637 c 0.37531,-0.01961 0.71839,-0.07805 0.99447,-0.152989 0.55218,-0.149861 0.94112,-0.371163 1.37697,-0.994471 0.87168,-1.246618 1.68295,-4.454545 1.68295,-11.092195 0,-6.614455 -0.99102,-10.500039 -2.21844,-12.392658 -0.61371,-0.94631 -1.23657,-1.381293 -1.91245,-1.606455 -0.67587,-0.225163 -1.45315,-0.246042 -2.37143,0 -4.20228,1.125995 -25.240512,6.771323 -42.073839,13.693114 7.66254,2.788202 16.69591,5.777891 24.861812,8.108775 4.623066,1.319614 8.880397,2.421162 12.163167,3.212911 3.28277,0.791749 5.78845,1.223968 6.27283,1.223968 0.44111,0 0.84865,0.01961 1.22396,0 z m -95.392854,-0.0765 c 0.48436,0 3.06656,-0.432215 6.34932,-1.223964 3.28276,-0.791752 7.463599,-1.8933 12.086664,-3.212911 C 43.012332,70.673234 52.033844,67.658365 59.674422,64.88316 42.865319,57.990026 21.943556,52.312734 17.753586,51.190039 c -0.91826,-0.246043 -1.69557,-0.225164 -2.37143,0 -0.67588,0.225164 -1.29875,0.660147 -1.91245,1.606455 -1.22743,1.892623 -2.21843,5.854702 -2.21843,12.469156 0,6.637651 0.81125,9.769081 1.68294,11.015695 0.43585,0.623308 0.82478,0.844603 1.37697,0.994471 0.55217,0.149864 1.25969,0.15299 2.14194,0.15299 z M 66.100245,62.358734 c 7.390802,-3.446934 15.907901,-7.730299 23.331853,-11.857171 4.202107,-2.335895 7.981584,-4.511414 10.862702,-6.272827 2.88112,-1.761415 5.01235,-3.2529 5.35485,-3.595402 0.62384,-0.623831 1.09249,-1.186529 1.37696,-1.682952 0.28448,-0.496425 0.43856,-0.934018 0.306,-1.682954 -0.26512,-1.497871 -1.96179,-4.256722 -6.65532,-8.950242 -4.677114,-4.67713 -8.121012,-6.79694 -10.327216,-7.2673 -1.103101,-0.23519 -1.810809,-0.0892 -2.447931,0.22947 -0.637125,0.31871 -1.207633,0.85967 -1.682955,1.68296 -2.173653,3.76486 -13.10961,22.608447 -20.118943,39.396406 z m -5.201855,-0.0765 C 53.887074,45.517918 43.102053,26.720186 40.93244,22.962316 c -0.475331,-0.82329 -1.045825,-1.44074 -1.682951,-1.75944 -0.637128,-0.31871 -1.42133,-0.38819 -2.524432,-0.15299 -2.206202,0.47036 -5.650083,2.51368 -10.327211,7.1908 -4.69351,4.693525 -6.31371,7.528874 -6.57882,9.026746 -0.13256,0.748935 -0.0549,1.18653 0.22949,1.682955 0.28448,0.496407 0.82964,0.982607 1.45347,1.606438 0.34248,0.34249 2.39724,1.833985 5.27835,3.595401 2.881114,1.761421 6.660587,4.013438 10.862697,6.349333 7.386428,4.106008 15.888449,8.33986 23.255357,11.780673 z m 2.600928,-1.14747 c 2.781284,-7.6509 5.784377,-16.642124 8.108774,-24.785314 1.319615,-4.623065 2.421162,-8.880394 3.212914,-12.163164 0.791747,-3.28277 1.223965,-5.78846 1.223965,-6.27283 0,-0.88221 -0.0032,-1.58974 -0.152989,-2.14194 -0.149862,-0.55217 -0.371162,-0.94112 -0.994472,-1.37696 -1.246616,-0.87168 -4.454556,-1.68295 -11.092194,-1.68295 -6.614462,0 -10.500035,0.91453 -12.392656,2.14194 -0.946311,0.61372 -1.381292,1.23658 -1.606455,1.91244 -0.225164,0.67589 -0.246043,1.52967 0,2.44794 1.122753,4.19017 6.799422,25.111246 13.693121,41.920842 z"
     style="fill:url(#linearGradient3345);fill-opacity:1;stroke:none"
     id="path15"
     inkscape:connector-curvature="0" />
</svg>
