<?xml version="1.0" encoding="UTF-8" standalone="no"?>
<svg
   xmlns:dc="http://purl.org/dc/elements/1.1/"
   xmlns:cc="http://creativecommons.org/ns#"
   xmlns:rdf="http://www.w3.org/1999/02/22-rdf-syntax-ns#"
   xmlns:svg="http://www.w3.org/2000/svg"
   xmlns="http://www.w3.org/2000/svg"
   xmlns:xlink="http://www.w3.org/1999/xlink"
   xmlns:sodipodi="http://sodipodi.sourceforge.net/DTD/sodipodi-0.dtd"
   xmlns:inkscape="http://www.inkscape.org/namespaces/inkscape"
   width="128"
   height="128"
   version="1.1"
   id="svg2"
   inkscape:version="0.91 r"
   sodipodi:docname="gnome-xchat.svg">
  <sodipodi:namedview
     pagecolor="#ffffff"
     bordercolor="#666666"
     borderopacity="1"
     objecttolerance="10"
     gridtolerance="10"
     guidetolerance="10"
     inkscape:pageopacity="0"
     inkscape:pageshadow="2"
     inkscape:window-width="1366"
     inkscape:window-height="744"
     id="namedview17"
     showgrid="false"
     inkscape:zoom="2.6074563"
     inkscape:cx="25.903265"
     inkscape:cy="72.033184"
     inkscape:window-x="0"
     inkscape:window-y="24"
     inkscape:window-maximized="1"
     inkscape:current-layer="svg2" />
  <title
     id="title4">XChat Logo</title>
  <desc
     id="desc6">This icon is a part of Clarity icon theme for gtk</desc>
  <metadata
     id="metadata8">
    <rdf:RDF>
      <cc:Work
         rdf:about="">
        <dc:title>XChat Logo</dc:title>
        <dc:description>This icon is a part of Clarity icon theme for gtk</dc:description>
        <dc:creator>
          <cc:Agent>
            <dc:title>Jakub Jankiewicz</dc:title>
          </cc:Agent>
        </dc:creator>
        <dc:rights>
          <cc:Agent>
            <dc:title>Jakub Jankiewicz</dc:title>
          </cc:Agent>
        </dc:rights>
        <dc:date>2010</dc:date>
        <dc:format>image/svg+xml</dc:format>
        <dc:type
           rdf:resource="http://purl.org/dc/dcmitype/StillImage" />
        <cc:license
           rdf:resource="http://www.gnu.org/copyleft/gpl.html" />
      </cc:Work>
    </rdf:RDF>
  </metadata>
  <defs
     id="defs10">
    <linearGradient
       inkscape:collect="always"
       id="linearGradient3360">
      <stop
         style="stop-color:#000000;stop-opacity:1;"
         offset="0"
         id="stop3362" />
      <stop
         id="stop3368"
         offset="0.19342531"
         style="stop-color:#ff5563;stop-opacity:1" />
      <stop
         style="stop-color:#c20000;stop-opacity:1"
         offset="0.82761014"
         id="stop3370" />
      <stop
         style="stop-color:#000000;stop-opacity:0;"
         offset="1"
         id="stop3364" />
    </linearGradient>
    <linearGradient
       inkscape:collect="always"
       id="linearGradient3344">
      <stop
         style="stop-color:#dfe03c;stop-opacity:1;"
         offset="0"
         id="stop3346" />
      <stop
         id="stop3352"
         offset="0.10495215"
         style="stop-color:#ffeb00;stop-opacity:1" />
      <stop
         style="stop-color:#ffa400;stop-opacity:1"
         offset="0.89264482"
         id="stop3354" />
      <stop
         style="stop-color:#dfe03c;stop-opacity:0;"
         offset="1"
         id="stop3348" />
    </linearGradient>
    <linearGradient
       x1="0"
       y1="128"
       x2="128"
       y2="0"
       id="gradient"
       gradientUnits="userSpaceOnUse">
      <stop
         id="start"
         style="stop-color:#dbdbdb;stop-opacity:1"
         offset="0" />
      <stop
         id="stop"
         style="stop-color:#757575;stop-opacity:1"
         offset="1" />
    </linearGradient>
    <linearGradient
       inkscape:collect="always"
       xlink:href="#linearGradient3344"
       id="linearGradient3350"
       x1="-9.5878887"
       y1="10.644246"
       x2="139.21614"
       y2="60.884781"
       gradientUnits="userSpaceOnUse" />
    <linearGradient
       inkscape:collect="always"
       xlink:href="#linearGradient3360"
       id="linearGradient3366"
       x1="-22.2439"
       y1="83.895714"
       x2="149.57106"
       y2="111.89235"
       gradientUnits="userSpaceOnUse" />
    <linearGradient
       gradientUnits="userSpaceOnUse"
       y2="531.90002"
       x2="347.89001"
       y1="557.79999"
       x1="350.48001"
       id="4">
      <stop
         id="stop7"
         stop-color="#eb4646" />
      <stop
         id="stop9"
         stop-color="#ff8651"
         offset="1" />
    </linearGradient>
    <linearGradient
       gradientUnits="userSpaceOnUse"
       y2="510.53"
       x2="347.89001"
       y1="536.42999"
       x1="350.48001"
       id="5">
      <stop
         id="stop12"
         stop-color="#ffbc00" />
      <stop
         id="stop14"
         stop-color="#ffec00"
         offset="1" />
    </linearGradient>
    <linearGradient
       gradientUnits="userSpaceOnUse"
       y2="523.72998"
       x2="358.85999"
       y1="544.45001"
       x1="360.94"
       id="3">
      <stop
         id="stop17"
         stop-color="#dce2ff" />
      <stop
         id="stop19"
         stop-color="#f8feff"
         offset="1" />
    </linearGradient>
    <linearGradient
       gradientUnits="userSpaceOnUse"
       y2="510.53"
       x2="369.98999"
       y1="536.42999"
       x1="372.57999"
       id="1">
      <stop
         id="stop22"
         stop-color="#4fd127" />
      <stop
         id="stop24"
         stop-color="#c6f61a"
         offset="1" />
    </linearGradient>
    <linearGradient
       gradientUnits="userSpaceOnUse"
       y2="531.90002"
       x2="369.98999"
       y1="557.79999"
       x1="372.57999"
       id="0">
      <stop
         id="stop27"
         stop-color="#0976da" />
      <stop
         id="stop29"
         stop-color="#5de5f0"
         offset="1" />
    </linearGradient>
    <linearGradient
       gradientUnits="userSpaceOnUse"
       y2="529.40002"
       x2="0"
       y1="539.40002"
       id="2">
      <stop
         id="stop32"
         stop-color="#161719" />
      <stop
         id="stop34"
         stop-color="#424649"
         offset="1" />
    </linearGradient>
  </defs>
  <path
     style="fill:url(#linearGradient3350);fill-opacity:1;stroke:none"
     d="M 26.167808,7.4525203 7.4525207,26.087484 38.2966,56.931564 c 0.892934,-0.676956 2.012075,-1.050005 3.132602,-1.044201 l 2.570341,0 c 1.809761,-0.0162 3.593154,1.002988 4.498094,2.570339 l 16.305594,0 c 2.443733,-0.02979 4.758792,1.923556 5.140681,4.337449 0.37785,-2.387321 2.643329,-4.329161 5.060356,-4.337449 l 13.172992,0 L 120.54749,26.087484 101.91251,7.4525203 64.080323,45.284711 26.167808,7.4525203 Z"
     id="path3357"
     inkscape:connector-curvature="0" />
  <path
     style="fill:#a7a7a7;fill-opacity:1;stroke:none"
     d="m 9.5409211,59.100287 c -0.8980563,0.15178 -1.6191078,1.017051 -1.6064616,1.927755 l 0,20.562721 c 9.94e-5,1.009341 0.9184106,1.927655 1.9277541,1.927754 l 21.9282144,0 c 1.009339,-9.9e-5 1.927651,-0.918413 1.927754,-1.927754 l 0,-2.57034 c -1.03e-4,-1.009343 -0.918415,-1.927655 -1.927754,-1.927755 l -17.430119,0 0,-11.56653 17.510442,0 c 1.009339,-1.01e-4 1.927651,-0.918414 1.927754,-1.927755 l 0,-2.570341 c -1.03e-4,-1.009341 -0.918415,-1.927654 -1.927754,-1.927755 l -22.3298299,0 z"
     id="path3355"
     inkscape:connector-curvature="0" />
  <path
     style="fill:#a7a7a7;fill-opacity:1;stroke:none"
     d="m 41.10791,59.100287 c -0.89806,0.15178 -1.619109,1.017051 -1.606463,1.927755 l 0,20.562721 c 1.01e-4,1.009341 0.918411,1.927655 1.927755,1.927754 l 2.570341,0 c 1.009339,-9.9e-5 1.927651,-0.918413 1.927754,-1.927754 l 0,-13.494285 14.377839,0 0,13.494285 c 1.01e-4,1.009341 0.918411,1.927655 1.927755,1.927754 l 2.57034,0 c 1.00934,-9.9e-5 1.927653,-0.918413 1.927756,-1.927754 l 0,-17.99238 c -1.03e-4,-1.009342 -0.918416,-1.927655 -1.927756,-1.927755 l -18.875934,0 0,-0.642586 c -1.03e-4,-1.009341 -0.918415,-1.927654 -1.927754,-1.927755 -0.963678,-6.09e-4 -1.928619,0 -2.891633,0 z"
     id="path3353"
     inkscape:connector-curvature="0" />
  <path
     style="fill:#a7a7a7;fill-opacity:1;stroke:none"
     d="m 108.57934,59.100287 c -0.86925,0.185014 -1.54552,1.039248 -1.52614,1.927755 l 0,0.642586 -1.60646,0 c -1.00935,10e-5 -1.92766,0.918413 -1.92776,1.927755 l 0,2.57034 c 1e-4,1.009341 0.91841,1.927655 1.92776,1.927755 l 1.60646,0 0,13.494285 c 10e-5,1.009341 0.91841,1.927655 1.92776,1.927754 l 6.66681,0 c 1.00935,-9.9e-5 1.92766,-0.918413 1.92776,-1.927754 l 0,-3.132602 c -1e-4,-1.009342 -0.91841,-1.927655 -1.92776,-1.927755 l -2.16872,0 0,-8.433928 2.16872,0 c 1.00935,-1e-4 1.92766,-0.918414 1.92776,-1.927755 l 0,-2.57034 c -1e-4,-1.009342 -0.91841,-1.927655 -1.92776,-1.927755 l -2.16872,0 0,-0.642586 c -1e-4,-1.009341 -0.91841,-1.927654 -1.92775,-1.927755 l -2.57034,0 c -0.13338,-0.01388 -0.26824,-0.01388 -0.40162,0 z"
     id="path3351"
     inkscape:connector-curvature="0" />
  <path
     style="fill:#a7a7a7;fill-opacity:1;stroke:none"
     d="m 74.682975,61.670628 c -0.898056,0.151779 -1.619108,1.01705 -1.606462,1.927755 l 0,17.99238 c 10e-5,1.009341 0.918414,1.927655 1.927755,1.927754 l 11.807499,0 c 1.009342,-9.9e-5 1.927653,-0.918413 1.927755,-1.927754 l 0,-2.57034 C 88.73942,78.01108 87.821109,77.092768 86.811767,77.092668 l -7.309404,0 0,-8.99619 15.181071,0 0,13.494285 c 9.9e-5,1.009341 0.918413,1.927655 1.927754,1.927754 l 5.140682,0 c 1.00934,-9.9e-5 1.92765,-0.918413 1.92776,-1.927754 l 0,-7.711021 c -1.1e-4,-1.009341 -0.91842,-1.927654 -1.92776,-1.927755 l -0.64259,0 0,-8.353604 c -1e-4,-1.009342 -0.91841,-1.927655 -1.927752,-1.927755 l -24.17726,0 c -0.106849,-0.009 -0.214443,-0.009 -0.321293,0 z"
     id="path3349"
     inkscape:connector-curvature="0" />
  <g
     id="g3356"
     style="fill-opacity:1;fill:url(#linearGradient3366)">
    <path
       inkscape:connector-curvature="0"
       id="path3347"
       d="m 49.140222,71.309402 0,10.281361 c -2.7e-4,2.69158 -2.449102,5.14041 -5.140679,5.140679 l -2.570341,0 c -2.538252,0.01105 -4.90251,-2.131664 -5.14068,-4.65874 -0.238167,2.527076 -2.60243,4.669685 -5.140679,4.65874 l -8.594575,0 L 7.4525207,101.83219 26.167808,120.54748 60.385459,86.41015 c -1.930839,-0.743703 -3.30201,-2.750292 -3.293247,-4.819387 l 0,-10.281361 -7.95199,0 z"
       style="fill:url(#linearGradient3366);fill-opacity:1;stroke:none" />
    <path
       inkscape:connector-curvature="0"
       id="path15"
       d="m 69.943912,82.072702 c -0.168487,1.618648 -1.156011,3.130799 -2.57034,3.935832 l 34.538938,34.538946 18.63498,-18.71529 -16.06463,-16.144948 c -0.87158,0.660855 -1.95856,1.032716 -3.05228,1.0442 l -4.819392,0 c -2.172052,-0.0041 -4.254732,-1.540458 -4.89971,-3.614541 -0.644978,2.074083 -2.72766,3.610491 -4.899711,3.614541 l -11.807499,0 c -2.511422,-0.02842 -4.824829,-2.158224 -5.060356,-4.65874 z"
       style="fill:url(#linearGradient3366);fill-opacity:1;stroke:none" />
  </g>
</svg>
