<?xml version="1.0" encoding="UTF-8" standalone="no"?>
<!-- Created with Inkscape (http://www.inkscape.org/) -->

<svg
   xmlns:dc="http://purl.org/dc/elements/1.1/"
   xmlns:cc="http://creativecommons.org/ns#"
   xmlns:rdf="http://www.w3.org/1999/02/22-rdf-syntax-ns#"
   xmlns:svg="http://www.w3.org/2000/svg"
   xmlns="http://www.w3.org/2000/svg"
   xmlns:xlink="http://www.w3.org/1999/xlink"
   xmlns:sodipodi="http://sodipodi.sourceforge.net/DTD/sodipodi-0.dtd"
   xmlns:inkscape="http://www.inkscape.org/namespaces/inkscape"
   id="svg2"
   height="128"
   width="128"
   version="1.1"
   inkscape:version="0.91 r"
   sodipodi:docname="grooveoff.svg">
  <defs
     id="defs8">
    <linearGradient
       gradientUnits="userSpaceOnUse"
       y2="7.2690001"
       x2="0.021"
       y1="18.836"
       x1="0.152"
       id="0">
      <stop
         id="stop7"
         stop-color="#535e66" />
      <stop
         id="stop9"
         stop-color="#7d8b98"
         offset="1" />
    </linearGradient>
    <linearGradient
       gradientUnits="userSpaceOnUse"
       y2="-6.4439998"
       x2="4.7509999"
       y1="18.226999"
       x1="5.71"
       id="1">
      <stop
         id="stop12"
         stop-color="#566069" />
      <stop
         id="stop14"
         stop-color="#6c7884"
         offset="1" />
    </linearGradient>
    <linearGradient
       gradientUnits="userSpaceOnUse"
       y2="-6.9980001"
       x2="4.0650001"
       y1="12.926"
       x1="4.1989999"
       id="2">
      <stop
         id="stop17"
         stop-color="#197cf1" />
      <stop
         id="stop19"
         stop-color="#59d0ff"
         offset="1" />
    </linearGradient>
    <linearGradient
       inkscape:collect="always"
       xlink:href="#0"
       id="linearGradient4172"
       x1="3"
       y1="1040.4"
       x2="21"
       y2="1040.4"
       gradientUnits="userSpaceOnUse" />
  </defs>
  <sodipodi:namedview
     pagecolor="#ffffff"
     bordercolor="#666666"
     borderopacity="1"
     objecttolerance="10"
     gridtolerance="10"
     guidetolerance="10"
     inkscape:pageopacity="0"
     inkscape:pageshadow="2"
     inkscape:window-width="1267"
     inkscape:window-height="714"
     id="namedview6"
     showgrid="false"
     inkscape:zoom="2.4583333"
     inkscape:cx="78.03126"
     inkscape:cy="64.168376"
     inkscape:window-x="15"
     inkscape:window-y="24"
     inkscape:window-maximized="0"
     inkscape:current-layer="svg2" />
  <metadata
     id="metadata7">
    <rdf:RDF>
      <cc:Work
         rdf:about="">
        <dc:format>image/svg+xml</dc:format>
        <dc:type
           rdf:resource="http://purl.org/dc/dcmitype/StillImage" />
        <dc:title />
      </cc:Work>
    </rdf:RDF>
  </metadata>
  <g
     id="layer1"
     transform="matrix(6.5141243,0,0,6.5141243,-13.762711,-6713.2949)"
     style="fill:url(#linearGradient4172);fill-opacity:1.0">
    <path
       id="path2451"
       style="fill:url(#linearGradient4172);fill-opacity:1.0"
       d="m 12,3 c -4.9706,0 -9,4.0294 -9,9 0,4.971 4.0294,9 9,9 4.971,0 9,-4.029 9,-9 C 21,7.0294 16.971,3 12,3 z M 11.938,4.9062 C 13.116,4.9004 13.39,4.9345 14,5.125 c 2.008,0.627 3.506,1.9192 4.406,3.7812 0.519,1.0726 0.704,1.9398 0.656,3.1878 -0.042,1.132 -0.172,1.516 -0.624,1.75 -0.3,0.155 -0.504,0.175 -0.876,0.062 C 16.788,13.671 16.3,13.2 15.156,11.688 13.964,10.112 12.43,8.5672 11.438,7.9062 10.718,7.4274 9.6244,6.9066 9.0312,6.7812 8.7295,6.7174 8.6945,6.7277 8.75,6.9375 8.7823,7.0597 8.8415,7.6551 8.875,8.25 8.9749,10.027 8.6828,11.304 7.9688,12.25 7.1791,13.296 5.9205,13.792 5.3125,13.312 4.8587,12.954 4.7541,12.066 5,10.688 5.2561,9.2521 5.8946,8.086 7,6.9688 7.8573,6.1022 8.7114,5.5638 9.8125,5.1875 10.491,4.9557 10.708,4.9162 11.938,4.9062 z"
       transform="translate(0,1028.4)"
       inkscape:connector-curvature="0" />
  </g>
</svg>
