<?xml version="1.0" encoding="UTF-8" standalone="no"?>
<!-- Creator: CorelDRAW X5 -->

<svg
   xmlns:dc="http://purl.org/dc/elements/1.1/"
   xmlns:cc="http://creativecommons.org/ns#"
   xmlns:rdf="http://www.w3.org/1999/02/22-rdf-syntax-ns#"
   xmlns:svg="http://www.w3.org/2000/svg"
   xmlns="http://www.w3.org/2000/svg"
   xmlns:xlink="http://www.w3.org/1999/xlink"
   xmlns:sodipodi="http://sodipodi.sourceforge.net/DTD/sodipodi-0.dtd"
   xmlns:inkscape="http://www.inkscape.org/namespaces/inkscape"
   style="clip-rule:evenodd;fill-rule:evenodd;image-rendering:optimizeQuality;shape-rendering:geometricPrecision;text-rendering:geometricPrecision"
   xml:space="preserve"
   height="512mm"
   width="512mm"
   viewBox="0 0 56363.757 56362.64"
   id="svg2"
   version="1.1"
   inkscape:version="0.91 r"
   sodipodi:docname="gtranslator.svg"><metadata
     id="metadata17"><rdf:RDF><cc:Work
         rdf:about=""><dc:format>image/svg+xml</dc:format><dc:type
           rdf:resource="http://purl.org/dc/dcmitype/StillImage" /><dc:title /></cc:Work></rdf:RDF></metadata><sodipodi:namedview
     pagecolor="#ffffff"
     bordercolor="#666666"
     borderopacity="1"
     objecttolerance="10"
     gridtolerance="10"
     guidetolerance="10"
     inkscape:pageopacity="0"
     inkscape:pageshadow="2"
     inkscape:window-width="1366"
     inkscape:window-height="744"
     id="namedview15"
     showgrid="false"
     inkscape:zoom="0.1767767"
     inkscape:cx="1081.647"
     inkscape:cy="938.27956"
     inkscape:window-x="0"
     inkscape:window-y="24"
     inkscape:window-maximized="1"
     inkscape:current-layer="svg2" /><defs
     id="defs4"><linearGradient
       inkscape:collect="always"
       id="linearGradient3336"><stop
         style="stop-color:#0088aa;stop-opacity:1;"
         offset="0"
         id="stop3338" /><stop
         id="stop3350"
         offset="0.16053039"
         style="stop-color:#5fbdd3;stop-opacity:1" /><stop
         style="stop-color:#004455;stop-opacity:1"
         offset="0.93040806"
         id="stop3348" /><stop
         style="stop-color:#0088aa;stop-opacity:0;"
         offset="1"
         id="stop3340" /></linearGradient><style
       type="text/css"
       id="style6"><![CDATA[
    .fil0 {fill:red}
    .fil1 {fill:black;fill-rule:nonzero}
   ]]></style><linearGradient
       inkscape:collect="always"
       xlink:href="#linearGradient3336"
       id="linearGradient3342"
       x1="-3866.5076"
       y1="-2864.665"
       x2="58349.113"
       y2="58647.957"
       gradientUnits="userSpaceOnUse"
       gradientTransform="matrix(1.0170116,0,0,1.0170116,-391.50472,-567.05362)" /></defs><circle
     style="opacity:1;fill:url(#linearGradient3342);fill-opacity:1;fill-rule:nonzero;stroke:none;stroke-width:3644.72290039;stroke-miterlimit:4;stroke-dasharray:none;stroke-opacity:1"
     id="path4140"
     cx="28267.471"
     cy="28079.879"
     r="26267.396" /><path
     style="fill:#ffffff;fill-rule:nonzero"
     inkscape:connector-curvature="0"
     id="path13"
     d="m 19951.319,31782.094 0,-1265.405 2643.58,-446.294 -1525.141,-4208.028 -7239.112,0 -1623.518,4208.028 2628.886,446.294 0,1265.405 -6954.4761,0 0,-1265.405 2069.8184,-446.294 7758.8867,-19828.673 2771.05,0 7302.695,19828.673 2226.676,446.294 0,1265.405 -10059.046,0 z m -2300.164,-15473.691 -112.774,0 -2947.711,7611.62 5806.942,0 -2746.457,-7611.62 z"
     class="fil1" /><path
     style="opacity:1;fill:#ffffff;fill-opacity:1;fill-rule:evenodd;stroke:#ffffff;stroke-width:659.86657715;stroke-miterlimit:4;stroke-dasharray:none;stroke-opacity:1"
     d="m 37888.865,47498.649 c 2958.452,-1426.751 5300.209,-3322.563 6141.789,-4972.199 807.934,-1583.678 617.226,-3773.255 -435.791,-5003.469 -620.726,-725.178 -1780.848,-1315.063 -2967.303,-1508.782 -704.66,-115.055 -718.165,-107.553 -826.26,458.917 -292.471,1532.69 -1644.105,3698.089 -3393.863,5437.162 -672.53,668.427 -1223.713,1259.056 -1224.848,1312.509 -1.135,53.449 349.505,509.064 779.211,1012.473 1088.037,1274.671 1017.793,1755.023 -256.643,1755.023 -470.349,0 -1252.905,-686.077 -1705.962,-1495.646 -154.158,-275.463 -278.502,-246.869 -1455.55,334.72 -1420.859,702.061 -2899.859,1055.243 -3700.152,883.588 -1467.516,-314.765 -2055.247,-1103.195 -2059.21,-2762.391 -2.026,-852.854 103.393,-1241.798 577.993,-2132.238 634.452,-1190.353 2272.437,-2847.607 3560.683,-3602.571 731.292,-428.564 785.236,-509.709 785.458,-1181.541 0,-396.759 117.213,-1385.462 260.187,-2197.123 354.906,-2014.813 386.588,-1909.789 -576.146,-1909.789 -460.119,0 -1238.04,-119.22 -1728.717,-264.935 -1599.004,-474.855 -1366.479,-936.989 481.881,-957.731 620.683,-6.967 1433.921,-66.929 1807.194,-133.248 l 678.679,-120.589 470.859,-2162.198 c 489.201,-2246.43 476.843,-2722.54 -93.252,-3592.619 -335.761,-512.436 -209.712,-755.072 392.265,-755.072 558.226,0 2300.006,1711.678 2300.006,2260.253 0,196.812 -165.89,683.011 -368.647,1080.445 -353.219,692.372 -1020.291,2483.279 -1020.291,2739.212 0,67.412 1230.513,-184.256 2734.47,-559.257 2907.269,-724.907 4165.352,-783.273 4720.588,-218.998 245.693,249.694 238.883,299.052 -73.159,530.29 -551.741,408.87 -2840.464,1067.11 -5444.406,1565.818 l -2414.799,462.484 -204.784,1582.225 c -112.636,870.22 -239.486,1806.146 -281.895,2079.837 -69.307,447.293 -37.629,485.983 313.227,382.561 1536.227,-452.825 3724.996,-966.987 4116.43,-966.987 657.374,0 705.592,-103.636 447.391,-961.57 -125.176,-415.931 -184.397,-799.433 -131.601,-852.229 384.904,-384.905 1479.247,467.578 1688.675,1315.465 100.898,408.494 218.176,468.484 1114.039,569.836 2026.804,229.308 4365.831,1759.17 5255.008,3437.083 314.575,593.616 395.428,1027.322 397.822,2133.974 2.639,1216.73 -60.545,1503.662 -509.544,2314.225 -1334.485,2409.097 -5376.18,4870.909 -8490.025,5171.309 l -893.604,86.209 1232.597,-594.436 z M 31289.81,44254.245 c 564.314,-286.395 1215.529,-668.181 1447.136,-848.414 l 421.11,-327.692 -621.572,-1625.632 c -341.863,-894.098 -676.956,-1996.739 -744.652,-2450.316 -67.692,-453.574 -172.806,-823.921 -233.58,-822.995 -232.659,3.549 -1570.342,1174.14 -2283.992,1998.696 -839.735,970.237 -1376.175,2025.92 -1381.847,2719.384 -5.107,624.26 293.831,1394.114 644.847,1660.666 501.827,381.071 1653.692,253.982 2752.55,-303.697 z m 5523.242,-4861.413 c 775.936,-1183.094 1492.579,-2727.696 1492.579,-3216.991 0,-246.797 -130.234,-270.846 -911.491,-168.323 -501.321,65.788 -1629.505,354.884 -2507.079,642.439 l -1595.591,522.823 94.64,893.005 c 124.042,1170.438 540.458,2832.139 868.879,3467.234 l 261.781,506.221 778.071,-758.947 c 427.939,-417.422 1111.134,-1266.78 1518.211,-1887.461 z"
     id="path3338"
     inkscape:connector-curvature="0" /></svg>