<?xml version="1.0" encoding="UTF-8" standalone="no"?>
<svg
   xmlns:dc="http://purl.org/dc/elements/1.1/"
   xmlns:cc="http://creativecommons.org/ns#"
   xmlns:rdf="http://www.w3.org/1999/02/22-rdf-syntax-ns#"
   xmlns:svg="http://www.w3.org/2000/svg"
   xmlns="http://www.w3.org/2000/svg"
   xmlns:sodipodi="http://sodipodi.sourceforge.net/DTD/sodipodi-0.dtd"
   xmlns:inkscape="http://www.inkscape.org/namespaces/inkscape"
   viewBox="0 0 128 128"
   id="svg2"
   version="1.1"
   inkscape:version="0.91 r"
   sodipodi:docname="im-qq.svg"
   width="128"
   height="128">
  <metadata
     id="metadata21">
    <rdf:RDF>
      <cc:Work
         rdf:about="">
        <dc:format>image/svg+xml</dc:format>
        <dc:type
           rdf:resource="http://purl.org/dc/dcmitype/StillImage" />
        <dc:title></dc:title>
      </cc:Work>
    </rdf:RDF>
  </metadata>
  <sodipodi:namedview
     pagecolor="#ffffff"
     bordercolor="#666666"
     borderopacity="1"
     objecttolerance="10"
     gridtolerance="10"
     guidetolerance="10"
     inkscape:pageopacity="0"
     inkscape:pageshadow="2"
     inkscape:window-width="1366"
     inkscape:window-height="744"
     id="namedview19"
     showgrid="false"
     inkscape:zoom="3.4766083"
     inkscape:cx="11.768251"
     inkscape:cy="61.37388"
     inkscape:window-x="0"
     inkscape:window-y="24"
     inkscape:window-maximized="1"
     inkscape:current-layer="svg2" />
  <defs
     id="defs4">
    <linearGradient
       y2="518.14001"
       x2="0"
       y1="545.14001"
       gradientUnits="userSpaceOnUse"
       id="0">
      <stop
         stop-color="#197ff1"
         id="stop7" />
      <stop
         offset="1"
         stop-color="#21c6fb"
         id="stop9" />
    </linearGradient>
  </defs>
  <g
     transform="matrix(4.3338381,0,0,4.3338381,-1671.8871,-2240.5633)"
     id="g11">
    <circle
       r="14"
       cy="531.79999"
       cx="400.57001"
       id="circle13"
       style="fill:url(#0)" />
    <circle
       cx="400.57001"
       cy="531.79999"
       r="14"
       id="circle15"
       style="fill:#5ea5fb;fill-opacity:0" />
  </g>
  <path
     d="m 98.836002,79.103996 c -3.860357,-2.717671 -8.673794,-2.525538 -11.416746,1.367683 -2.737895,3.890694 -21.890523,27.909851 -53.266349,17.936628 1.183135,1.02892 2.429472,2.009813 3.736482,2.930033 20.580984,14.4934 49.014142,9.55609 63.505011,-11.027428 2.74296,-3.893222 1.2969,-8.489245 -2.560926,-11.209444 M 38.286295,76.037452 C 36.284067,71.719515 25.061982,43.122034 49.384504,20.940783 c -1.481446,0.508141 -2.952781,1.097181 -4.40389,1.769646 -22.853716,10.579956 -32.781431,37.675767 -22.206532,60.516842 2.002229,4.317937 6.701903,5.369612 10.989503,3.385081 4.280016,-1.982004 6.52241,-6.249379 4.525238,-10.569844 M 68.22618,18.675636 C 63.488584,18.248393 60.229907,21.797798 59.802664,26.5 c -0.422187,4.702203 2.151384,8.777445 6.88898,9.20216 4.737595,0.427243 35.114836,5.005571 42.165616,37.165097 0.30336,-1.539592 0.52583,-3.106993 0.66993,-4.702202 C 111.78728,43.091697 93.297009,20.935727 68.22618,18.675636 M 48.727207,66.75945 c -1.30701,3.074128 -1.516839,6.004156 -0.467692,6.552747 0.723027,0.376682 1.8556,-0.482861 2.917388,-2.060374 0.419659,1.719085 1.458694,3.276373 2.945197,4.525238 -1.557289,0.573871 -2.573571,1.514312 -2.573571,2.576099 0,1.749422 2.753064,3.165139 6.148256,3.165139 3.064016,0 5.599666,-1.15027 6.069886,-2.662054 0.126404,-2.52e-4 0.609264,-2.52e-4 0.730611,0 0.470221,1.509256 3.008399,2.662054 6.072415,2.662054 3.39772,0 6.148256,-1.418245 6.148256,-3.165139 0,-1.061787 -1.016282,-2.002228 -2.573571,-2.576099 1.481447,-1.251393 2.525538,-2.803625 2.945197,-4.525238 1.059259,1.577513 2.191833,2.437056 2.91486,2.060374 1.049147,-0.546062 0.841846,-3.481147 -0.467692,-6.552747 -1.026395,-2.414303 -2.41936,-4.194061 -3.481147,-4.585912 0.01517,-0.151684 0.02275,-0.308424 0.02275,-0.465164 0,-0.932856 -0.26039,-1.794927 -0.702802,-2.497729 0.0076,-0.05562 0.0076,-0.111235 0.0076,-0.164324 0,-0.429771 -0.10365,-0.831734 -0.275559,-1.180607 -0.267975,-6.279716 -4.355858,-11.265062 -10.969278,-11.265062 -6.618477,0 -10.706359,4.985346 -10.969278,11.265062 -0.176965,0.348873 -0.278087,0.750836 -0.278087,1.180607 0,0.05562 0.0051,0.111235 0.0051,0.164324 -0.439884,0.702802 -0.697746,1.564873 -0.697746,2.497729 0,0.15674 0.0051,0.310952 0.02022,0.465164 -1.056731,0.394379 -2.454752,2.174137 -3.47609,4.585912 z"
     id="path17"
     inkscape:connector-curvature="0"
     style="fill:#deeffd" />
</svg>
