<?xml version="1.0" encoding="UTF-8" standalone="no"?>
<!-- Created with Inkscape (http://www.inkscape.org/) -->

<svg
   xmlns:dc="http://purl.org/dc/elements/1.1/"
   xmlns:cc="http://creativecommons.org/ns#"
   xmlns:rdf="http://www.w3.org/1999/02/22-rdf-syntax-ns#"
   xmlns:svg="http://www.w3.org/2000/svg"
   xmlns="http://www.w3.org/2000/svg"
   xmlns:xlink="http://www.w3.org/1999/xlink"
   xmlns:sodipodi="http://sodipodi.sourceforge.net/DTD/sodipodi-0.dtd"
   xmlns:inkscape="http://www.inkscape.org/namespaces/inkscape"
   id="svg2"
   version="1.1"
   inkscape:version="0.91 r"
   width="524"
   height="520"
   sodipodi:docname="jabber.svg">
  <metadata
     id="metadata8">
    <rdf:RDF>
      <cc:Work
         rdf:about="">
        <dc:format>image/svg+xml</dc:format>
        <dc:type
           rdf:resource="http://purl.org/dc/dcmitype/StillImage" />
        <dc:title />
      </cc:Work>
    </rdf:RDF>
  </metadata>
  <defs
     id="defs6">
    <linearGradient
       inkscape:collect="always"
       id="linearGradient3337">
      <stop
         style="stop-color:#cd4a49;stop-opacity:1;"
         offset="0"
         id="stop3339" />
      <stop
         id="stop3345"
         offset="0.00788456"
         style="stop-color:#ffaaaa;stop-opacity:1" />
      <stop
         style="stop-color:#ff5454;stop-opacity:1"
         offset="0.06595221"
         id="stop3349" />
      <stop
         id="stop3351"
         offset="0.50614065"
         style="stop-color:#da3838;stop-opacity:1" />
      <stop
         style="stop-color:#c62929;stop-opacity:1"
         offset="0.9704935"
         id="stop3347" />
      <stop
         style="stop-color:#cd4a49;stop-opacity:0;"
         offset="1"
         id="stop3341" />
    </linearGradient>
    <linearGradient
       inkscape:collect="always"
       xlink:href="#linearGradient3337"
       id="linearGradient3343"
       x1="-32.71867"
       y1="-12.846903"
       x2="556.21741"
       y2="555.83472"
       gradientUnits="userSpaceOnUse" />
    <linearGradient
       gradientTransform="matrix(2.4955507,0,0,2.4955507,240.71244,33.087543)"
       id="0"
       y1="17.279"
       x2="0"
       y2="-30.721"
       gradientUnits="userSpaceOnUse">
      <stop
         stop-color="#dc3c30"
         id="stop3341-9" />
      <stop
         offset="1"
         stop-color="#ff786d"
         id="stop3343" />
    </linearGradient>
    <linearGradient
       gradientUnits="userSpaceOnUse"
       y2="-30.891"
       x2="-49.554"
       y1="-5.178"
       x1="-48.953"
       id="0-9">
      <stop
         stop-color="#566069"
         id="stop3394" />
      <stop
         offset="1"
         stop-color="#6c7884"
         id="stop3396" />
    </linearGradient>
    <linearGradient
       gradientUnits="userSpaceOnUse"
       y2="-4.937"
       x2="42.36"
       y1="15.429"
       x1="43.691"
       id="1">
      <stop
         stop-color="#d5dbff"
         id="stop3399" />
      <stop
         offset="1"
         stop-color="#f9ffff"
         id="stop3401" />
    </linearGradient>
    <linearGradient
       gradientUnits="userSpaceOnUse"
       y2="-26.783"
       x2="-56.38"
       y1="3.509"
       x1="-56.27"
       id="2">
      <stop
         stop-color="#197ff1"
         id="stop3404" />
      <stop
         offset="1"
         stop-color="#21c6fb"
         id="stop3406" />
    </linearGradient>
    <linearGradient
       id="0-7"
       x1="23.2"
       y1="48.821"
       x2="22.382"
       y2="-1.823"
       gradientUnits="userSpaceOnUse">
      <stop
         stop-color="#7737c5"
         id="stop3457" />
      <stop
         stop-color="#9371ff"
         offset="1"
         id="stop3459" />
    </linearGradient>
    <linearGradient
       id="0-3"
       y1="546.29"
       x2="0"
       y2="501.51"
       gradientUnits="userSpaceOnUse">
      <stop
         stop-color="#197cf1"
         id="stop3484" />
      <stop
         offset="1"
         stop-color="#20bcfa"
         id="stop3486" />
    </linearGradient>
    <linearGradient
       id="0-5"
       gradientUnits="userSpaceOnUse"
       y1="36.965"
       x2="0"
       y2="9.965">
      <stop
         stop-color="#2b65bd"
         id="stop3509" />
      <stop
         offset="1"
         stop-color="#64a3dc"
         id="stop3511" />
    </linearGradient>
    <linearGradient
       gradientUnits="userSpaceOnUse"
       y2="517.8"
       x2="0"
       y1="545.8"
       id="linearGradient3579">
      <stop
         stop-color="#3889e9"
         id="stop3581" />
      <stop
         offset="1"
         stop-color="#5ea5fb"
         id="stop3583" />
    </linearGradient>
    <linearGradient
       y2="518.14"
       x2="0"
       y1="545.14"
       gradientUnits="userSpaceOnUse"
       id="0-8">
      <stop
         stop-color="#00a661"
         id="stop3586" />
      <stop
         offset="1"
         stop-color="#37ce97"
         id="stop3588" />
    </linearGradient>
    <linearGradient
       id="0-6"
       gradientUnits="userSpaceOnUse"
       y1="-2.471"
       x2="0"
       y2="-51.27">
      <stop
         stop-color="#0a80fd"
         id="stop3639" />
      <stop
         offset="1"
         stop-color="#56c5fa"
         id="stop3641" />
    </linearGradient>
    <linearGradient
       gradientUnits="userSpaceOnUse"
       y2="517.8"
       x2="0"
       y1="545.8"
       id="linearGradient3663">
      <stop
         stop-color="#3889e9"
         id="stop3665" />
      <stop
         offset="1"
         stop-color="#5ea5fb"
         id="stop3667" />
    </linearGradient>
    <linearGradient
       y2="517.7"
       x2="387.16"
       y1="545.87"
       x1="414.43"
       gradientUnits="userSpaceOnUse"
       id="0-0">
      <stop
         stop-color="#80256c"
         id="stop3670" />
      <stop
         offset="1"
         stop-color="#4567bd"
         id="stop3672" />
    </linearGradient>
    <linearGradient
       gradientTransform="matrix(0.53361,0,0,0.53476,-221.94,-216.11)"
       xlink:href="#1-6"
       id="8"
       x1="543.95"
       y1="484.81"
       x2="543.74"
       y2="427.54"
       gradientUnits="userSpaceOnUse" />
    <linearGradient
       gradientUnits="userSpaceOnUse"
       y2="25.17"
       x2="0"
       y1="28.442"
       id="5"
       xlink:href="#3" />
    <linearGradient
       y2="21.988"
       x2="69.26"
       y1="24.14"
       x1="69.39"
       gradientUnits="userSpaceOnUse"
       id="7"
       xlink:href="#3" />
    <linearGradient
       y2="507.67"
       x2="390.88"
       y1="531.8"
       x1="391.57"
       gradientTransform="matrix(0.68488,0,0,0.84437,-199.89,-405.47)"
       gradientUnits="userSpaceOnUse"
       id="6">
      <stop
         stop-color="#d3d3d3"
         id="stop3726" />
      <stop
         offset="1"
         stop-color="#fcf9f9"
         id="stop3728" />
    </linearGradient>
    <linearGradient
       y2="40.747"
       x2="88.18"
       y1="26.87"
       x1="74.3"
       gradientUnits="userSpaceOnUse"
       id="4"
       xlink:href="#3" />
    <linearGradient
       id="3">
      <stop
         stop-color="#222c35"
         id="stop3732" />
      <stop
         offset="1"
         stop-color="#545e67"
         id="stop3734" />
    </linearGradient>
    <linearGradient
       y2="25.427"
       x2="80.06"
       y1="43.46"
       x1="80.34"
       gradientUnits="userSpaceOnUse"
       id="0-61"
       xlink:href="#1-6" />
    <linearGradient
       y2="22.484"
       x2="80.37"
       y1="44.46"
       x1="80.978"
       gradientUnits="userSpaceOnUse"
       id="2-0"
       xlink:href="#3" />
    <linearGradient
       id="1-6">
      <stop
         stop-color="#197ff1"
         id="stop3739" />
      <stop
         offset="1"
         stop-color="#21c6fb"
         id="stop3741" />
    </linearGradient>
    <linearGradient
       id="0-2"
       x1="-1092.91"
       y1="203.1"
       x2="-1060.26"
       y2="104.85"
       gradientUnits="userSpaceOnUse"
       gradientTransform="matrix(0.35533,0,0,0.34923,314.86,-49.68)">
      <stop
         stop-color="#f2b333"
         id="stop3816" />
      <stop
         offset="1"
         stop-color="#fcde3f"
         id="stop3818" />
    </linearGradient>
    <linearGradient
       id="1-3"
       x1="-50.952"
       y1="41.34"
       x2="-55.927"
       y2=".059"
       gradientUnits="userSpaceOnUse">
      <stop
         stop-color="#1584d8"
         id="stop3821" />
      <stop
         offset="1"
         stop-color="#1cb2ff"
         id="stop3823" />
    </linearGradient>
    <linearGradient
       gradientUnits="userSpaceOnUse"
       y2="25.17"
       x2="0"
       y1="28.442"
       id="5-1"
       xlink:href="#3" />
    <filter
       color-interpolation-filters="sRGB"
       id="filter4020">
      <feGaussianBlur
         stdDeviation="1.71"
         id="feGaussianBlur4022" />
    </filter>
    <linearGradient
       gradientTransform="scale(1.0059.99417)"
       gradientUnits="userSpaceOnUse"
       y2="7.02"
       x2="0"
       y1="92.54"
       id="linearGradient4024">
      <stop
         id="stop4026" />
      <stop
         offset="1"
         stop-opacity=".588"
         id="stop4028" />
    </linearGradient>
    <linearGradient
       gradientUnits="userSpaceOnUse"
       y2="-26.05"
       x2="-125.19"
       y1="73.5"
       x1="-123.97"
       id="0-52"
       gradientTransform="matrix(1.03458,0,0,1,4.382,0)">
      <stop
         stop-color="#c52828"
         id="stop4031" />
      <stop
         offset="1"
         stop-color="#ff5454"
         id="stop4033" />
    </linearGradient>
    <linearGradient
       id="3-7">
      <stop
         stop-color="#2e3436"
         id="stop4085" />
      <stop
         offset="1"
         stop-color="#555753"
         id="stop4087" />
    </linearGradient>
    <linearGradient
       id="4-7"
       x1="70.03"
       y1="569.24"
       x2="66.53"
       y2="491.06"
       gradientUnits="userSpaceOnUse">
      <stop
         stop-color="#0a80fd"
         id="stop4090" />
      <stop
         offset="1"
         stop-color="#56c5fa"
         id="stop4092" />
    </linearGradient>
    <linearGradient
       xlink:href="#3-7"
       id="2-4"
       x1="72.85"
       y1="491.15"
       x2="72.29"
       y2="462.68"
       gradientUnits="userSpaceOnUse"
       gradientTransform="matrix(1.0021,0,0,1,-0.15,0.002)" />
    <linearGradient
       xlink:href="#3-7"
       id="0-67"
       x1="96.68"
       y1="490.36"
       x2="96.33"
       y2="462.83"
       gradientUnits="userSpaceOnUse" />
    <linearGradient
       xlink:href="#3-7"
       id="1-5"
       x1="44.16"
       y1="490.59"
       x2="44.26"
       y2="461.93"
       gradientUnits="userSpaceOnUse" />
    <filter
       color-interpolation-filters="sRGB"
       id="filter4157">
      <feGaussianBlur
         stdDeviation="1.71"
         id="feGaussianBlur4159" />
    </filter>
    <linearGradient
       gradientTransform="scale(1.0059.99417)"
       gradientUnits="userSpaceOnUse"
       y2="7.02"
       x2="0"
       y1="92.54"
       id="linearGradient4161">
      <stop
         id="stop4163" />
      <stop
         offset="1"
         stop-opacity=".588"
         id="stop4165" />
    </linearGradient>
  </defs>
  <sodipodi:namedview
     pagecolor="#ffffff"
     bordercolor="#666666"
     borderopacity="1"
     objecttolerance="10"
     gridtolerance="10"
     guidetolerance="10"
     inkscape:pageopacity="0"
     inkscape:pageshadow="2"
     inkscape:window-width="1366"
     inkscape:window-height="744"
     id="namedview4"
     showgrid="false"
     inkscape:zoom="0.64183539"
     inkscape:cx="366.57382"
     inkscape:cy="147.22428"
     inkscape:window-x="0"
     inkscape:window-y="24"
     inkscape:window-maximized="1"
     inkscape:current-layer="svg2" />
  <rect
     style="fill:url(#linearGradient3343);fill-opacity:1;fill-rule:evenodd;stroke:none"
     id="rect2987"
     width="476.75775"
     height="476.75775"
     x="24.928501"
     y="21.429802"
     ry="55.224998" />
  <path
     style="fill:#ffffff;fill-opacity:1;fill-rule:nonzero;stroke:#f9f9f9;stroke-width:3;stroke-linecap:round;stroke-linejoin:miter;stroke-miterlimit:4;stroke-opacity:1;stroke-dasharray:none"
     d="M 198.56348,452.84796 C 166.0306,434.16135 125.44566,410.8493 108.37474,401.0434 91.303807,391.23752 74.287967,380.34174 70.561737,376.83053 l -6.77495,-6.38401 0.42023,-110.82848 0.42023,-110.82848 4.6741,-4.58563 C 77.007857,136.64327 254.43135,34.822046 261.29113,34.023286 c 5.3976,-0.62851 13.36169,3.64972 97.02513,52.12087 50.84411,29.456974 93.72825,55.312414 96.98748,58.475094 l 5.84262,5.66952 -0.0963,100.10354 c -0.053,55.05696 -0.61583,105.29437 -1.25078,111.63872 -1.0433,10.42453 -1.63591,11.93711 -6.15502,15.70982 -4.40332,3.67606 -160.2577,94.59784 -180.08327,105.05635 -4.19799,2.21455 -9.48087,4.02645 -11.73976,4.02645 -2.50347,0 -27.20186,-13.26549 -63.25774,-33.97569 l -3e-5,0 z m 73.87137,8.79207 c 34.32696,-19.31822 163.53274,-94.22391 165.73054,-96.08054 2.54664,-2.15131 2.72561,-9.1499 2.71213,-106.06046 l -0.0144,-103.75715 -9.72329,-5.56567 C 425.79203,147.1151 387.06196,124.73367 345.073,100.4397 303.08404,76.145736 266.93921,55.587116 264.75117,54.753866 c -3.54192,-1.34882 -9.35204,1.60166 -52.97308,26.90073 -26.94715,15.62864 -66.5837,38.579774 -88.08122,51.002514 l -39.086393,22.5868 -1.05246,103.78292 c -0.83826,82.66067 -0.65211,104.14834 0.91462,105.57837 1.9644,1.79298 133.649073,78.13964 161.665133,93.72839 8.14061,4.5296 15.41698,8.23565 16.16969,8.23565 0.75272,0 5.31004,-2.21814 10.1274,-4.92921 l 0,0 z"
     id="path2985"
     inkscape:connector-curvature="0" />
  <path
     style="fill:#ff8c00;fill-opacity:1;fill-rule:nonzero;stroke:#ff8c00;stroke-width:4;stroke-miterlimit:4;stroke-opacity:1;stroke-dasharray:none"
     d="m 218.09339,355.32577 0,-7.79016 44.40391,0 44.40391,0 0,7.79016 0,7.79016 -44.40391,0 -44.40391,0 0,-7.79016 z"
     id="path3757"
     inkscape:connector-curvature="0" />
  <path
     style="fill:#cccccc;fill-opacity:1;fill-rule:nonzero;stroke:none"
     d="m 231.04246,327.67349 c 12.69196,-0.26219 33.02427,-0.26158 45.18293,0.001 12.15865,0.26292 1.77433,0.47743 -23.07628,0.47669 -24.85061,-7.4e-4 -34.7986,-0.21585 -22.10665,-0.47803 z"
     id="path3759"
     inkscape:connector-curvature="0" />
  <path
     style="fill:#ff8c00;fill-opacity:1;fill-rule:nonzero;stroke:#ff8c00;stroke-width:4;stroke-miterlimit:4;stroke-opacity:1;stroke-dasharray:none"
     d="m 263.81694,129.40626 c -18.64366,0 -30.79692,2.59529 -44.90625,9.59375 -37.99386,18.84558 -58.89501,58.3975 -53.875,102 2.66069,23.1101 10.03308,36.59253 36.8125,67.28125 l 16.59375,19 44.625,-0.0937 44.625,-0.0937 17.90625,-20.84375 c 20.13091,-23.39667 30.63783,-41.463 34,-58.4375 9.76897,-49.32032 -18.35436,-97.91651 -65.9375,-113.90625 -11.39537,-3.82928 -15.83996,-4.5 -29.84375,-4.5 z m 0.5,16.125 c 26.00922,0.3 51.22005,13.6157 66.1875,35.65625 9.55217,14.0662 12.64563,24.11442 13.4375,43.59375 1.13643,27.95493 -4.4894,40.62941 -31.65625,71.25 l -12.40625,14 -37.375,-0.0312 -37.40625,0 -13.9375,-16.25 c -25.77212,-30.00132 -29.70958,-38.93637 -29.59375,-66.96875 0.064,-15.48754 0.65611,-20.19111 3.5,-27.375 5.74396,-14.50964 15.7924,-27.93784 27.46875,-36.75 12.84432,-9.69363 23.9978,-14.20036 40.625,-16.4375 3.72031,-0.50056 7.44065,-0.73036 11.15625,-0.6875 z m 23.875,237.75 -25.3125,0.4375 -25.3125,0.4375 -0.46875,8.1875 -0.46875,8.15625 25.78125,0 25.78125,0 0,-8.59375 0,-8.625 z"
     id="path3761"
     inkscape:connector-curvature="0" />
</svg>
