<?xml version="1.0" encoding="UTF-8" standalone="no"?>
<svg
   xmlns:dc="http://purl.org/dc/elements/1.1/"
   xmlns:cc="http://creativecommons.org/ns#"
   xmlns:rdf="http://www.w3.org/1999/02/22-rdf-syntax-ns#"
   xmlns:svg="http://www.w3.org/2000/svg"
   xmlns="http://www.w3.org/2000/svg"
   xmlns:sodipodi="http://sodipodi.sourceforge.net/DTD/sodipodi-0.dtd"
   xmlns:inkscape="http://www.inkscape.org/namespaces/inkscape"
   viewBox="0 0 128 128"
   id="svg2"
   version="1.1"
   inkscape:version="0.91 r"
   sodipodi:docname="kolab.svg"
   width="128"
   height="128">
  <metadata
     id="metadata33">
    <rdf:RDF>
      <cc:Work
         rdf:about="">
        <dc:format>image/svg+xml</dc:format>
        <dc:type
           rdf:resource="http://purl.org/dc/dcmitype/StillImage" />
        <dc:title></dc:title>
      </cc:Work>
    </rdf:RDF>
  </metadata>
  <sodipodi:namedview
     pagecolor="#ffffff"
     bordercolor="#666666"
     borderopacity="1"
     objecttolerance="10"
     gridtolerance="10"
     guidetolerance="10"
     inkscape:pageopacity="0"
     inkscape:pageshadow="2"
     inkscape:window-width="1366"
     inkscape:window-height="744"
     id="namedview31"
     showgrid="false"
     inkscape:zoom="1.7383042"
     inkscape:cx="41.639577"
     inkscape:cy="47.831506"
     inkscape:window-x="0"
     inkscape:window-y="24"
     inkscape:window-maximized="1"
     inkscape:current-layer="svg2" />
  <defs
     id="defs4">
    <linearGradient
       id="0"
       x1="0.152"
       y1="18.836"
       x2="0.021"
       y2="7.2690001"
       gradientUnits="userSpaceOnUse">
      <stop
         stop-color="#535e66"
         id="stop7" />
      <stop
         offset="1"
         stop-color="#7d8b98"
         id="stop9" />
    </linearGradient>
    <linearGradient
       id="1"
       x1="5.71"
       y1="18.226999"
       x2="4.7509999"
       y2="-6.4439998"
       gradientUnits="userSpaceOnUse">
      <stop
         stop-color="#566069"
         id="stop12" />
      <stop
         offset="1"
         stop-color="#6c7884"
         id="stop14" />
    </linearGradient>
    <linearGradient
       id="2"
       x1="4.1989999"
       y1="12.926"
       x2="4.0650001"
       y2="-6.9980001"
       gradientUnits="userSpaceOnUse">
      <stop
         stop-color="#197cf1"
         id="stop17" />
      <stop
         offset="1"
         stop-color="#59d0ff"
         id="stop19" />
    </linearGradient>
  </defs>
  <g
     transform="matrix(4.234635,0,0,4.234635,43.608789,38.380907)"
     id="g21"
     style="enable-background:new">
    <path
       d="m 18.792,1.925 -14.1,-8.582 -13.904,8.592 24.279,16.972 1.759,0 c 0,0 1.956,-0.014 1.962,-1.82 z"
       id="path23"
       inkscape:connector-curvature="0"
       style="fill:url(#1)" />
    <path
       d="m -4.292,-5.481 18.319,0 c 0.963,0 1.738,0.775 1.738,1.738 l 0,7.805 -11.433,7.88 -10.363,-7.341 0,-8.344 c 0,-0.963 0.775,-1.738 1.738,-1.738"
       id="path25"
       inkscape:connector-curvature="0"
       style="fill:url(#2)" />
    <path
       d="m -9.208,1.925 24.395,16.972 -22.433,0 c 0,0 -1.956,-0.014 -1.962,-1.82 z"
       id="path27"
       inkscape:connector-curvature="0"
       style="fill:url(#0)" />
    <path
       d="m 2.394,0.652 c 0.101,0 0.2,0.015 0.292,0.044 C 3.036,0.304 3.424,-0.053 3.844,-0.369 3.826,-0.443 3.817,-0.521 3.817,-0.6 c 0,-0.11 0.018,-0.216 0.052,-0.315 -0.471,-0.337 -0.983,-0.62 -1.527,-0.839 -0.51,0.315 -0.955,0.726 -1.31,1.208 0.263,0.467 0.576,0.901 0.932,1.297 0.13,-0.063 0.275,-0.098 0.43,-0.098 M 1.401,1.646 C 1.401,1.507 1.43,1.374 1.482,1.254 1.163,0.903 0.875,0.526 0.622,0.123 0.305,0.753 0.125,1.465 0.125,2.218 0.125,3.09 0.365,3.906 0.782,4.605 0.931,3.766 1.214,2.972 1.604,2.245 1.477,2.079 1.402,1.87 1.402,1.645 m 3.409,-3.238 c 0.262,0 0.5,0.102 0.678,0.268 C 6.007,-1.548 6.552,-1.719 7.12,-1.828 6.435,-2.223 5.64,-2.45 4.793,-2.45 c -0.578,0 -1.131,0.106 -1.641,0.298 0.405,0.2 0.792,0.434 1.155,0.697 0.148,-0.088 0.32,-0.139 0.505,-0.139 z M 6.295,3.083 C 6.357,2.954 6.445,2.84 6.553,2.75 6.26,1.849 5.796,1.023 5.198,0.314 5.079,0.365 4.948,0.392 4.81,0.392 4.594,0.392 4.396,0.323 4.233,0.207 3.873,0.48 3.54,0.787 3.237,1.122 3.332,1.274 3.388,1.453 3.388,1.645 3.388,1.748 3.372,1.848 3.342,1.942 4.213,2.523 5.216,2.923 6.295,3.083 M 7.583,4.424 C 7.596,4.612 7.604,4.801 7.604,4.993 7.604,5.33 7.583,5.662 7.542,5.988 8.333,5.41 8.936,4.589 9.24,3.635 8.88,3.722 8.511,3.785 8.134,3.82 8.046,4.092 7.844,4.312 7.584,4.425 M 6.064,3.752 C 4.912,3.561 3.844,3.121 2.914,2.492 2.763,2.584 2.586,2.639 2.396,2.639 2.325,2.639 2.258,2.632 2.192,2.618 1.747,3.461 1.463,4.402 1.381,5.4 1.825,5.877 2.367,6.261 2.976,6.518 3.733,5.355 4.79,4.393 6.064,3.752 M 7.927,-1.241 C 7.179,-1.168 6.465,-0.98 5.8,-0.699 c 0.003,0.033 0.005,0.066 0.005,0.1 0,0.157 -0.038,0.304 -0.102,0.436 0.665,0.781 1.18,1.689 1.506,2.684 C 7.613,2.529 7.958,2.776 8.107,3.127 8.556,3.081 8.994,2.995 9.415,2.871 9.445,2.658 9.462,2.44 9.462,2.218 9.4619,0.846 8.87,-0.387 7.928,-1.241 M 6.565,4.282 C 5.376,4.839 4.382,5.697 3.662,6.745 4.025,6.836 4.404,6.884 4.795,6.884 5.499,6.884 6.166,6.727 6.764,6.448 6.86,5.977 6.911,5.491 6.911,4.993 6.911,4.813 6.903,4.634 6.889,4.458 6.769,4.419 6.659,4.36 6.564,4.281"
       id="path29"
       inkscape:connector-curvature="0"
       style="fill:#ffffff;fill-opacity:0.84600004" />
  </g>
</svg>
