<?xml version="1.0" encoding="UTF-8" standalone="no"?>
<svg
   xmlns:dc="http://purl.org/dc/elements/1.1/"
   xmlns:cc="http://creativecommons.org/ns#"
   xmlns:rdf="http://www.w3.org/1999/02/22-rdf-syntax-ns#"
   xmlns:svg="http://www.w3.org/2000/svg"
   xmlns="http://www.w3.org/2000/svg"
   xmlns:sodipodi="http://sodipodi.sourceforge.net/DTD/sodipodi-0.dtd"
   xmlns:inkscape="http://www.inkscape.org/namespaces/inkscape"
   viewBox="0 0 128 128"
   id="svg2"
   version="1.1"
   inkscape:version="0.91 r"
   sodipodi:docname="kompozer.svg"
   width="128"
   height="128">
  <metadata
     id="metadata78">
    <rdf:RDF>
      <cc:Work
         rdf:about="">
        <dc:format>image/svg+xml</dc:format>
        <dc:type
           rdf:resource="http://purl.org/dc/dcmitype/StillImage" />
        <dc:title></dc:title>
      </cc:Work>
    </rdf:RDF>
  </metadata>
  <sodipodi:namedview
     pagecolor="#ffffff"
     bordercolor="#666666"
     borderopacity="1"
     objecttolerance="10"
     gridtolerance="10"
     guidetolerance="10"
     inkscape:pageopacity="0"
     inkscape:pageshadow="2"
     inkscape:window-width="1366"
     inkscape:window-height="744"
     id="namedview76"
     showgrid="false"
     inkscape:zoom="3.4766083"
     inkscape:cx="54.633128"
     inkscape:cy="53.561494"
     inkscape:window-x="0"
     inkscape:window-y="24"
     inkscape:window-maximized="1"
     inkscape:current-layer="svg2" />
  <defs
     id="defs4">
    <linearGradient
       id="0"
       x1="64.459999"
       y1="13.252"
       x2="60.549999"
       y2="-36.791"
       gradientUnits="userSpaceOnUse">
      <stop
         stop-color="#0164c2"
         id="stop7" />
      <stop
         offset="1"
         stop-color="#00a9f3"
         id="stop9" />
    </linearGradient>
    <linearGradient
       id="1"
       gradientUnits="userSpaceOnUse"
       x1="62.599998"
       y1="11.846"
       x2="62.150002"
       y2="-35.476002">
      <stop
         stop-color="#197dec"
         id="stop12" />
      <stop
         offset="1"
         stop-color="#3fcffb"
         id="stop14" />
    </linearGradient>
  </defs>
  <g
     id="g16"
     style="enable-background:new"
     transform="matrix(2.4921301,0,0,2.4921301,4.604251,4.6282159)">
    <g
       transform="matrix(0.99999,0,0,0.99999,-38.471,35.822)"
       id="g18">
      <circle
         cx="62.470001"
         cy="-11.815"
         r="24"
         id="circle20"
         style="fill:url(#1)" />
      <path
         d="m 60.687,-35.591 c -3.01,0.235 -5.821,1.032 -8.386,2.246 -0.178,0.192 -0.418,0.347 -0.617,0.346 -0.027,0 -0.056,-0.016 -0.084,-0.024 -1.26,0.647 -2.444,1.412 -3.557,2.261 0.172,0.235 0.238,0.507 -0.065,0.665 -0.051,0.027 -0.708,0.145 -0.94,0.158 -3.144,2.683 -5.563,6.149 -6.974,10.09 0.027,-0.006 0.05,-0.021 0.078,-0.025 0.259,-0.024 0.638,0.021 0.892,0.054 0.234,0.029 0.431,0.169 0.631,0.168 0.568,0 0.669,-0.451 1.111,-0.733 0.481,0.03 0.785,-0.142 1.219,-0.128 0.296,0.009 0.532,0.306 0.761,0.306 0.194,0.005 0.347,-0.208 0.535,-0.194 0.183,0.014 0.525,0.383 0.571,0.601 0.059,0.272 -0.161,0.538 -0.059,0.833 0.311,0.271 0.838,0.289 1.262,0.426 0.25,-0.242 -0.014,-0.633 -0.074,-0.949 -0.015,-0.14 0,-0.268 -0.031,-0.396 -0.042,-0.218 -0.152,-0.412 -0.169,-0.6 -0.072,-0.869 0.601,-1.331 1.158,-1.72 0.241,-0.169 0.419,-0.447 0.629,-0.574 0.297,-0.179 0.525,-0.233 0.77,-0.397 0.442,-0.296 0.823,-0.536 1.162,-0.859 0.136,-0.407 -0.056,-0.924 -0.072,-1.315 0.159,-0.116 0.315,0.02 0.491,-0.008 0.275,-0.08 0.267,-0.476 0.413,-0.646 0.085,-0.097 0.332,-0.182 0.439,-0.28 0.261,-0.24 0.326,-0.577 0.562,-0.69 0.084,-0.042 0.286,-0.048 0.421,-0.096 0.177,-0.062 0.418,-0.296 0.705,-0.42 0.187,-0.082 0.625,-0.129 0.693,-0.209 0.083,-0.099 -0.029,-0.351 -0.008,-0.491 0.094,-0.701 1.122,-0.929 1.717,-1.209 0.418,-0.197 0.836,-0.53 1.316,-0.475 -0.067,0.335 -0.517,0.253 -0.411,0.646 0.146,0.544 0.83,-0.224 1.019,-0.321 0.36,-0.186 0.992,-0.332 1.467,-0.548 0.417,-0.191 1.167,-0.49 0.724,-0.949 -0.339,0.007 -0.469,0.435 -0.753,0.583 -0.2,0.048 -0.178,-0.157 -0.352,-0.16 -0.166,-0.007 -0.245,0.172 -0.416,0.157 -0.17,-0.015 -0.427,-0.26 -0.469,-0.455 -0.107,-0.505 0.375,-0.754 0.556,-1.151 -0.176,-0.45 -0.785,-0.033 -1.185,-0.184 0.016,-0.278 0.285,-0.489 0.602,-0.567 0.26,-0.065 0.852,-0.089 1.019,0.04 0.096,0.07 0.026,0.269 0.185,0.386 0.167,0.128 0.357,0.099 0.556,0.05 0.046,-0.354 -0.473,-0.225 -0.434,-0.46 0.392,-0.302 1.08,-0.133 1.58,-0.248 0.288,-0.066 0.577,-0.295 0.823,-0.46 0.234,-0.159 0.534,-0.426 0.812,-0.218 0.09,0.244 -0.2,0.35 -0.33,0.485 -0.435,0.452 -0.879,0.966 -1.205,1.478 0.24,0.2 0.637,0.059 1.017,0.075 0.149,0.008 0.338,0.037 0.496,0.053 0.185,0.018 0.378,-0.006 0.524,0.02 0.262,0.043 0.352,0.312 0.606,0.292 0.418,-0.033 0.387,-0.486 0.129,-0.75 0.052,-0.294 0.158,-0.453 0.041,-0.647 -0.218,-0.362 -0.88,0.049 -0.953,-0.417 -0.046,-0.303 0.232,-0.311 0.325,-0.547 -0.096,-0.585 0.433,-0.669 0.335,-1.192 -0.042,-0.219 -0.228,-0.207 -0.399,-0.402 -0.085,-0.096 -0.141,-0.287 -0.237,-0.368 -0.718,-0.008 -1.442,1e-4 -2.172,0.067 m -11.919,5.769 0.002,0 c 0.144,0.009 0.328,0.149 0.501,0.148 0.163,-0.009 0.291,-0.113 0.393,-0.094 0.261,0.047 0.399,0.425 0.174,0.633 -0.198,0.041 -0.284,-0.065 -0.433,-0.027 -0.409,0.103 -0.505,0.928 -0.817,0.925 -0.294,-0.002 -0.508,-0.702 -0.228,-0.937 0.005,-0.187 -0.152,-0.204 -0.157,-0.388 0.079,-0.119 0.32,-0.26 0.565,-0.26 m -1.368,0.203 c 0.085,-0.004 0.151,0.012 0.186,0.046 -0.015,0.329 -0.272,0.327 -0.511,0.499 -0.414,0.296 -0.634,0.715 -0.728,1.286 -0.027,0.166 -0.422,0.631 -0.632,0.604 -0.492,-0.064 0.056,-1.01 0.156,-1.15 0.11,-0.16 0.264,-0.305 0.395,-0.49 0.127,-0.179 0.2,-0.413 0.327,-0.517 0.139,-0.114 0.551,-0.268 0.807,-0.279 m 3.702,0.815 c 0.155,-1e-4 0.297,0.005 0.365,0.063 -0.068,0.411 -0.946,0.373 -1.275,0.252 0.009,-0.154 0.243,-0.214 0.442,-0.25 0.14,-0.015 0.313,-0.057 0.468,-0.065 m -1.92,0.899 c 0.103,-10e-5 0.21,0.004 0.32,0.024 -0.263,0.257 -0.556,0.414 -1.027,0.605 -0.226,0.091 -0.62,0.214 -0.68,-0.043 -0.073,-0.314 0.32,-0.27 0.53,-0.315 0.264,-0.058 0.545,-0.236 0.857,-0.271 m 30.484,-0.564 c -0.029,0.089 -0.049,0.177 -0.038,0.261 0.031,0.146 0.203,0.275 0.255,0.472 0.028,0.104 -0.024,0.338 0.034,0.43 0.169,0.274 0.538,0.038 0.815,0.032 -0.347,-0.406 -0.693,-0.813 -1.065,-1.195 m 1.726,1.979 c -0.027,0.214 -0.149,0.5 -0.251,0.685 -0.235,0.426 -0.595,0.473 -0.96,0.719 -0.304,0.205 -0.418,0.517 -0.58,0.846 -0.176,0.355 -0.285,0.57 -0.163,1.055 -0.231,0.563 -0.618,0.927 -1.163,1.229 -0.161,0.088 -0.388,0.134 -0.532,0.257 -0.115,0.097 -0.166,0.339 -0.325,0.547 -0.196,0.255 -0.412,0.373 -0.511,0.564 -0.076,0.147 -0.085,0.43 -0.166,0.626 -0.11,0.267 -0.378,0.414 -0.529,0.688 -0.069,0.126 -0.102,0.374 -0.176,0.538 -0.166,0.367 -0.477,0.646 -0.417,0.953 0.059,0.296 0.402,0.322 0.446,0.581 0.015,0.147 -0.079,0.245 -0.06,0.405 0.022,0.234 0.194,0.386 0.227,0.565 0.081,0.45 -0.105,0.647 -0.166,0.963 -0.029,0.151 0,0.317 -0.029,0.435 -0.057,0.233 -0.358,0.463 -0.343,0.732 0.013,0.191 0.223,0.329 0.26,0.595 0.018,0.184 -0.061,0.389 -0.015,0.556 0.091,0.327 0.715,0.667 0.993,0.906 0.373,0.319 0.846,0.551 1.024,0.903 0.15,0.299 0.18,0.702 0.439,0.916 0.192,0.158 0.496,0.242 0.739,0.403 0.226,0.15 0.469,0.277 0.711,0.436 0.395,0.262 1,0.798 1.591,0.707 0.308,-0.047 0.605,-0.324 0.951,-0.414 0.356,-0.093 0.822,-0.163 1.189,-0.154 0.281,0.006 0.582,0.151 0.87,0.114 0.305,-0.043 0.638,-0.297 0.974,-0.477 0.27,-0.144 0.603,-0.306 0.973,-0.434 0.082,-1.176 0.081,-2.374 -0.014,-3.586 -0.382,-4.879 -2.194,-9.287 -4.986,-12.861 m -38.782,11.09 c -0.505,0.067 -0.836,0.117 -1.114,0.27 -0.638,0.353 -0.44,1.236 -1.084,1.499 -0.223,0.091 -0.536,0.119 -0.784,0.185 -0.214,0.057 -0.469,0.196 -0.693,0.209 -0.063,0.004 -0.154,-0.036 -0.234,-0.054 -0.026,0.423 -0.041,0.851 -0.045,1.279 0.638,0.071 1.027,0.879 1.604,1.111 0.158,0.064 0.357,0.052 0.556,0.081 0.161,0.023 0.286,0.08 0.442,0.12 0.332,0.084 0.726,0.04 0.994,0.135 0.403,0.142 0.746,0.852 1.096,1.022 0.035,0.196 -0.002,0.465 0.078,0.607 0.175,0.202 0.395,0.137 0.666,0.257 0.325,0.144 0.454,0.571 0.76,0.68 0.106,0.037 0.361,0.011 0.526,0.048 0.415,0.091 0.583,0.549 0.922,0.419 0.222,-0.085 0.186,-0.318 0.206,-0.538 0.138,-0.175 0.282,-0.446 0.516,-0.469 0.378,-0.049 0.444,0.36 0.611,0.718 0.094,0.202 0.312,0.368 0.383,0.583 0.124,0.372 0.166,1.512 0.104,1.745 -0.074,0.286 -0.442,0.433 -0.65,0.76 -0.098,0.153 -0.134,0.369 -0.208,0.478 -0.135,0.194 -0.354,0.259 -0.453,0.436 -0.056,0.1 -0.101,0.308 -0.153,0.44 -0.153,0.403 -0.377,0.698 -0.186,1.152 0.08,0.187 0.39,0.292 0.408,0.518 0.022,0.266 -0.526,0.548 -0.547,0.843 -0.015,0.219 0.223,0.59 0.314,0.867 0.067,0.209 0.481,0.311 0.618,0.443 0.233,0.224 0.431,0.552 0.651,0.839 0.434,0.564 0.794,1.266 1.216,1.813 0.223,0.286 0.524,0.536 0.681,0.839 0.08,0.153 0.086,0.342 0.159,0.479 0.257,0.476 1.261,0.915 1.778,1.12 0.242,0.095 0.503,0.115 0.726,0.217 0.338,0.155 1.017,0.59 1.203,0.861 0.166,0.244 0.305,0.858 0.407,1.258 0.137,0.529 0.075,0.948 0.15,1.526 0.044,0.313 0.169,0.62 0.197,0.935 1e-4,0.11 -0.043,0.197 -0.039,0.31 0,0.019 0.008,0.039 0.009,0.058 3.107,1.123 6.493,1.636 10.01,1.361 0.636,-0.05 1.262,-0.132 1.881,-0.229 0.023,-0.049 0.045,-0.1 0.075,-0.146 0.129,-0.199 0.243,-0.374 0.325,-0.547 0.047,-0.565 -0.297,-0.93 -0.203,-1.429 0.103,-0.56 0.835,-0.954 1.347,-1.243 0.176,-0.099 0.353,-0.252 0.497,-0.315 0.358,-0.157 0.822,-0.124 1.149,-0.273 0.556,-0.254 0.568,-0.873 0.809,-1.416 0.114,-0.257 0.27,-0.518 0.283,-0.696 1e-4,-0.16 -0.082,-0.302 -0.071,-0.491 C 70.518,5.089 70.671,4.917 70.707,4.71 70.753,4.44 70.751,4.05 70.728,3.755 70.709,3.513 70.579,3.31 70.552,3.092 70.45,2.303 70.769,2.189 71.029,1.734 c 0.13,-0.226 0.166,-0.474 0.257,-0.636 0.435,-0.773 1.261,-1.194 1.112,-2.299 -0.049,-0.366 -0.345,-1.178 -0.624,-1.274 -0.16,-0.055 -0.51,0.036 -0.74,-0.033 -0.743,-0.213 -1.237,-1.075 -1.99,-1.073 -0.161,-0.007 -0.301,0.09 -0.481,0.101 -0.298,0.004 -0.759,-0.149 -1.089,-0.161 -0.21,-0.006 -0.482,0.1 -0.612,0.048 -0.198,-0.078 -0.245,-0.428 -0.408,-0.521 -0.13,-0.075 -0.371,-0.086 -0.564,-0.143 -0.31,-0.092 -0.559,-0.208 -0.908,-0.205 -0.108,0.005 -0.237,0.07 -0.363,0.061 -0.195,-0.017 -0.364,-0.233 -0.55,-0.327 -0.233,-0.118 -0.443,-0.167 -0.55,-0.353 0.149,-0.674 -0.42,-0.814 -0.584,-1.183 -0.079,-0.173 -0.066,-0.39 -0.134,-0.544 -0.098,-0.221 -0.333,-0.335 -0.594,-0.506 -0.469,-0.306 -0.886,-0.594 -1.524,-0.623 -0.281,-0.014 -0.547,0.126 -0.884,0.132 -0.357,0.005 -0.828,-0.271 -1.118,-0.554 -0.282,-0.277 -0.428,-0.533 -0.665,-0.657 -0.224,-0.12 -0.507,-0.094 -0.664,-0.222 -0.07,-0.055 -0.067,-0.16 -0.147,-0.297 -0.125,-0.214 -0.314,-0.323 -0.201,-0.6 -0.253,-0.106 -0.232,0.252 -0.502,0.227 -0.264,-0.318 -0.477,-0.462 -1.01,-0.321 -0.243,0.065 -0.357,0.388 -0.644,0.418 -0.234,0.038 -0.442,-0.23 -0.757,-0.25 -0.238,-0.014 -0.498,0.103 -0.668,0.085 -0.265,-0.032 -0.362,-0.242 -0.613,-0.38 -0.184,-0.101 -0.538,-0.27 -0.636,-0.259 -0.306,0.044 -0.475,0.694 -0.916,0.502 -0.226,-0.245 0.304,-0.424 0.041,-0.649 -0.2,-0.171 -0.334,0.11 -0.474,0.224 -0.16,0.131 -0.311,0.259 -0.493,0.343 -0.407,0.19 -0.676,0.128 -0.991,0.323 -0.291,0.181 -0.284,0.445 -0.431,0.771 -0.121,0.267 -0.412,0.665 -0.622,0.697 -0.255,0.04 -0.529,-0.319 -0.769,-0.401 -0.723,-0.248 -1.017,0.35 -1.598,0.404 -0.538,0.062 -1.377,-0.768 -1.39,-1.277 -0.021,-0.31 0.117,-0.792 0.123,-1.178 0.009,-0.307 0.203,-0.507 0.184,-0.785 -0.025,-0.371 -0.544,-0.618 -0.788,-0.643 -0.579,-0.06 -1.345,0.336 -2.02,0.125 -0.141,-0.197 0.119,-0.362 0.173,-0.568 0.031,-0.118 -0.004,-0.269 0.027,-0.398 0.057,-0.2 0.249,-0.367 0.324,-0.58 0.056,-0.163 0.055,-0.391 0.108,-0.591 0.062,-0.228 0.199,-0.383 0.204,-0.54 0.007,-0.208 -0.09,-0.439 -0.262,-0.562 m 8.673,5.828 c 0.209,0.003 0.268,0.429 0.059,0.48 -0.226,0.053 -0.373,-0.331 -0.159,-0.451 0.036,-0.022 0.072,-0.026 0.101,-0.027 l 0,-0.002"
         id="path22"
         inkscape:connector-curvature="0"
         style="fill:url(#0)" />
      <g
         id="g24"
         style="fill:#ffffff;stroke:#ffffff;stroke-width:0.185">
        <path
           d="m 71.877,-27.853 c 0.07,0.04 0.146,0.059 0.221,0.059 0.153,0 0.302,-0.079 0.384,-0.221 l 0.989,-1.712 c 0.122,-0.212 0.05,-0.483 -0.162,-0.605 -0.212,-0.122 -0.483,-0.05 -0.605,0.162 l -0.989,1.712 c -0.122,0.212 -0.05,0.482 0.162,0.605 z"
           id="path26"
           inkscape:connector-curvature="0" />
        <path
           d="m 79.08,-20.81 c 0.075,0 0.151,-0.019 0.221,-0.059 l 1.712,-0.989 c 0.212,-0.122 0.284,-0.393 0.162,-0.605 -0.122,-0.212 -0.393,-0.284 -0.605,-0.162 l -1.712,0.989 c -0.212,0.122 -0.284,0.393 -0.162,0.605 0.082,0.142 0.231,0.222 0.384,0.222 z"
           id="path28"
           inkscape:connector-curvature="0" />
        <path
           d="m 83.62,-12.156 -1.977,0 c -0.245,0 -0.443,0.198 -0.443,0.443 0,0.245 0.198,0.443 0.443,0.443 l 1.977,0 c 0.245,0 0.443,-0.198 0.443,-0.443 0,-0.245 -0.198,-0.443 -0.443,-0.443 z"
           id="path30"
           inkscape:connector-curvature="0" />
        <path
           d="m 81.02,-1.568 -1.712,-0.989 c -0.212,-0.122 -0.483,-0.05 -0.605,0.162 -0.122,0.212 -0.05,0.483 0.162,0.605 l 1.712,0.989 c 0.07,0.04 0.146,0.059 0.221,0.059 0.153,0 0.302,-0.079 0.384,-0.221 0.122,-0.212 0.05,-0.483 -0.162,-0.605 z"
           id="path32"
           inkscape:connector-curvature="0" />
        <path
           d="M 72.48,4.589 C 72.358,4.377 72.087,4.305 71.875,4.427 71.663,4.549 71.591,4.82 71.713,5.032 l 0.989,1.712 c 0.082,0.142 0.231,0.221 0.384,0.221 0.075,0 0.151,-0.019 0.221,-0.059 0.212,-0.122 0.284,-0.393 0.162,-0.605 L 72.48,4.589"
           id="path34"
           inkscape:connector-curvature="0" />
        <path
           d="m 62.56,6.924 c -0.245,0 -0.443,0.198 -0.443,0.443 l 0,1.978 c 0,0.245 0.198,0.443 0.443,0.443 0.245,0 0.443,-0.198 0.443,-0.443 l 0,-1.978 c 0,-0.245 -0.198,-0.443 -0.443,-0.443 z"
           id="path36"
           inkscape:connector-curvature="0" />
        <path
           d="M 53.24,4.427 C 53.028,4.305 52.757,4.377 52.635,4.589 l -0.989,1.712 c -0.122,0.212 -0.05,0.483 0.162,0.605 0.07,0.04 0.146,0.059 0.221,0.059 0.153,0 0.302,-0.079 0.384,-0.221 L 53.402,5.032 C 53.524,4.82 53.452,4.549 53.24,4.427 Z"
           id="path38"
           inkscape:connector-curvature="0" />
        <path
           d="m 45.814,-2.556 -1.712,0.989 c -0.212,0.122 -0.284,0.393 -0.162,0.605 0.082,0.142 0.231,0.221 0.384,0.221 0.075,0 0.151,-0.019 0.221,-0.059 l 1.712,-0.989 c 0.212,-0.122 0.284,-0.393 0.162,-0.605 -0.122,-0.212 -0.393,-0.285 -0.605,-0.162 z"
           id="path40"
           inkscape:connector-curvature="0" />
        <path
           d="m 43.479,-12.156 -1.977,0 c -0.245,0 -0.443,0.198 -0.443,0.443 0,0.245 0.198,0.443 0.443,0.443 l 1.977,0 c 0.245,0 0.443,-0.198 0.443,-0.443 0,-0.245 -0.198,-0.443 -0.443,-0.443 z"
           id="path42"
           inkscape:connector-curvature="0" />
        <path
           d="m 46.26,-21.636 -1.712,-0.989 c -0.212,-0.122 -0.483,-0.05 -0.605,0.162 -0.122,0.212 -0.05,0.483 0.162,0.605 l 1.712,0.989 c 0.07,0.04 0.146,0.059 0.221,0.059 0.153,0 0.302,-0.079 0.384,-0.221 0.122,-0.212 0.05,-0.483 -0.162,-0.605 z"
           id="path44"
           inkscape:connector-curvature="0" />
        <path
           d="m 52.636,-28.02 c 0.082,0.142 0.231,0.221 0.384,0.221 0.075,0 0.151,-0.019 0.221,-0.059 0.212,-0.122 0.284,-0.393 0.162,-0.605 l -0.989,-1.712 c -0.122,-0.212 -0.393,-0.284 -0.605,-0.162 -0.212,0.122 -0.284,0.393 -0.162,0.605 l 0.989,1.713 z"
           id="path46"
           inkscape:connector-curvature="0" />
        <path
           d="m 62.56,-30.35 c 0.245,0 0.443,-0.198 0.443,-0.443 l 0,-1.977 c 0,-0.245 -0.198,-0.443 -0.443,-0.443 -0.245,0 -0.443,0.198 -0.443,0.443 l 0,1.977 c 0,0.245 0.198,0.443 0.443,0.443 z"
           id="path48"
           inkscape:connector-curvature="0" />
        <path
           d="m 67.56,-29.676 c 0.077,0.022 0.156,0.021 0.229,0.003 0.148,-0.038 0.273,-0.152 0.317,-0.31 l 0.531,-1.905 c 0.066,-0.236 -0.072,-0.48 -0.308,-0.545 -0.235,-0.066 -0.48,0.072 -0.545,0.308 l -0.531,1.905 c -0.066,0.235 0.072,0.48 0.308,0.545 z"
           id="path50"
           inkscape:connector-curvature="0" />
        <path
           d="m 76.3,-24.65 c 0.073,-0.019 0.142,-0.056 0.199,-0.113 l 1.412,-1.384 c 0.175,-0.171 0.177,-0.451 0.006,-0.626 -0.171,-0.175 -0.451,-0.178 -0.626,-0.006 l -1.412,1.384 c -0.175,0.171 -0.177,0.451 -0.006,0.626 0.115,0.117 0.279,0.157 0.427,0.119 z"
           id="path52"
           inkscape:connector-curvature="0" />
        <path
           d="m 82.84,-17.398 -1.915,0.493 c -0.237,0.061 -0.379,0.302 -0.319,0.539 0.061,0.237 0.302,0.379 0.539,0.319 l 1.915,-0.493 c 0.237,-0.061 0.379,-0.302 0.319,-0.539 -0.061,-0.237 -0.302,-0.379 -0.539,-0.319 z"
           id="path54"
           inkscape:connector-curvature="0" />
        <path
           d="m 82.962,-6.496 -1.905,-0.531 c -0.236,-0.066 -0.48,0.072 -0.545,0.308 -0.066,0.236 0.072,0.48 0.308,0.545 l 1.905,0.531 c 0.077,0.022 0.156,0.021 0.229,0.003 0.148,-0.038 0.273,-0.152 0.317,-0.31 0.066,-0.236 -0.072,-0.48 -0.308,-0.545 z"
           id="path56"
           inkscape:connector-curvature="0" />
        <path
           d="M 76.23,1.593 C 76.059,1.418 75.779,1.415 75.604,1.587 75.429,1.758 75.427,2.039 75.598,2.213 l 1.384,1.412 c 0.115,0.117 0.279,0.157 0.427,0.119 0.073,-0.019 0.142,-0.056 0.199,-0.113 0.175,-0.171 0.177,-0.452 0.006,-0.626 L 76.23,1.593"
           id="path58"
           inkscape:connector-curvature="0" />
        <path
           d="m 67.2,6.326 c -0.237,0.061 -0.379,0.302 -0.319,0.539 l 0.493,1.915 c 0.061,0.237 0.302,0.379 0.539,0.319 C 68.15,9.038 68.292,8.797 68.232,8.56 L 67.739,6.645 C 67.678,6.408 67.437,6.266 67.2,6.326"
           id="path60"
           inkscape:connector-curvature="0" />
        <path
           d="M 57.56,6.23 C 57.324,6.164 57.08,6.302 57.015,6.538 l -0.531,1.905 c -0.066,0.236 0.072,0.48 0.308,0.545 0.078,0.022 0.156,0.021 0.229,0.003 0.148,-0.038 0.273,-0.152 0.317,-0.31 L 57.869,6.776 C 57.935,6.54 57.797,6.296 57.561,6.231 Z"
           id="path62"
           inkscape:connector-curvature="0" />
        <path
           d="m 48.624,1.317 -1.412,1.384 c -0.175,0.171 -0.177,0.451 -0.006,0.626 0.115,0.117 0.279,0.157 0.427,0.119 0.073,-0.019 0.142,-0.056 0.199,-0.113 L 49.244,1.949 C 49.419,1.778 49.421,1.498 49.25,1.323 49.079,1.148 48.798,1.145 48.624,1.317 Z"
           id="path64"
           inkscape:connector-curvature="0" />
        <path
           d="m 43.971,-7.398 -1.915,0.493 c -0.237,0.061 -0.379,0.302 -0.319,0.539 0.061,0.237 0.302,0.379 0.539,0.319 l 1.915,-0.493 c 0.237,-0.061 0.379,-0.302 0.319,-0.539 -0.061,-0.237 -0.303,-0.379 -0.539,-0.319 z"
           id="path66"
           inkscape:connector-curvature="0" />
        <path
           d="m 44.3,-17.271 -1.905,-0.531 c -0.236,-0.065 -0.48,0.072 -0.545,0.308 -0.066,0.236 0.072,0.48 0.308,0.545 l 1.905,0.531 c 0.078,0.021 0.156,0.021 0.229,0.002 0.148,-0.038 0.273,-0.152 0.317,-0.31 0.066,-0.236 -0.072,-0.48 -0.308,-0.545 z"
           id="path68"
           inkscape:connector-curvature="0" />
        <path
           d="m 48.887,-25.04 c 0.115,0.117 0.279,0.157 0.427,0.119 0.073,-0.019 0.142,-0.056 0.199,-0.113 0.175,-0.171 0.177,-0.451 0.006,-0.626 l -1.384,-1.412 c -0.171,-0.175 -0.451,-0.178 -0.626,-0.006 -0.175,0.171 -0.177,0.451 -0.006,0.626 l 1.384,1.412 z"
           id="path70"
           inkscape:connector-curvature="0" />
        <path
           d="m 57.916,-29.772 c 0.237,-0.061 0.379,-0.302 0.319,-0.539 l -0.493,-1.915 c -0.061,-0.237 -0.302,-0.379 -0.539,-0.319 -0.237,0.061 -0.379,0.302 -0.319,0.539 l 0.493,1.915 c 0.061,0.237 0.302,0.379 0.539,0.319 z"
           id="path72"
           inkscape:connector-curvature="0" />
      </g>
    </g>
    <path
       d="m 68.4,-18.588 -0.012,4.462 4.462,0.012 11.296,-11.238 -4.45,-4.472 z m 19.703,-10.688 c 0.474,-0.47 0.475,-1.215 0.004,-1.687 l -2.781,-2.795 c -0.47,-0.474 -1.215,-0.475 -1.687,-0.004 l -2.337,2.339 4.45,4.472 z"
       transform="matrix(0.99999,0,0,0.99999,-54.43,48.11)"
       id="path74"
       inkscape:connector-curvature="0"
       style="fill:#ffffff" />
  </g>
</svg>
