<?xml version="1.0" encoding="UTF-8" standalone="no"?>
<svg
   xmlns:dc="http://purl.org/dc/elements/1.1/"
   xmlns:cc="http://creativecommons.org/ns#"
   xmlns:rdf="http://www.w3.org/1999/02/22-rdf-syntax-ns#"
   xmlns:svg="http://www.w3.org/2000/svg"
   xmlns="http://www.w3.org/2000/svg"
   xmlns:xlink="http://www.w3.org/1999/xlink"
   xmlns:sodipodi="http://sodipodi.sourceforge.net/DTD/sodipodi-0.dtd"
   xmlns:inkscape="http://www.inkscape.org/namespaces/inkscape"
   viewBox="0 0 128 128"
   id="svg2"
   version="1.1"
   inkscape:version="0.91 r"
   sodipodi:docname="kraft.svg"
   width="128"
   height="128">
  <metadata
     id="metadata21">
    <rdf:RDF>
      <cc:Work
         rdf:about="">
        <dc:format>image/svg+xml</dc:format>
        <dc:type
           rdf:resource="http://purl.org/dc/dcmitype/StillImage" />
        <dc:title></dc:title>
      </cc:Work>
    </rdf:RDF>
  </metadata>
  <sodipodi:namedview
     pagecolor="#ffffff"
     bordercolor="#666666"
     borderopacity="1"
     objecttolerance="10"
     gridtolerance="10"
     guidetolerance="10"
     inkscape:pageopacity="0"
     inkscape:pageshadow="2"
     inkscape:window-width="1366"
     inkscape:window-height="744"
     id="namedview19"
     showgrid="false"
     inkscape:zoom="1.7383042"
     inkscape:cx="143.07276"
     inkscape:cy="8.8367748"
     inkscape:window-x="0"
     inkscape:window-y="24"
     inkscape:window-maximized="1"
     inkscape:current-layer="svg2" />
  <defs
     id="defs4">
    <linearGradient
       xlink:href="#1"
       id="0"
       gradientUnits="userSpaceOnUse"
       gradientTransform="matrix(1.1578091,0,0,1.1190929,211.55612,38.198774)"
       x1="-123.97"
       y1="73.5"
       x2="-125.19"
       y2="-26.049999" />
    <linearGradient
       id="1"
       x1="-123.97"
       y1="73.5"
       x2="-125.19"
       y2="-26.049999"
       gradientUnits="userSpaceOnUse"
       gradientTransform="matrix(0.49433,0,0,0.4778,86.64,13.1)">
      <stop
         stop-color="#2b65bd"
         id="stop8" />
      <stop
         stop-color="#64a3dc"
         offset="1"
         id="stop10" />
    </linearGradient>
    <linearGradient
       xlink:href="#1"
       id="2"
       x1="22.620001"
       y1="47.470001"
       x2="23.802999"
       y2="0.52999997"
       gradientUnits="userSpaceOnUse"
       gradientTransform="matrix(2.3421786,0,0,2.3421786,8.6297708,7.5162317)" />
  </defs>
  <path
     d="m 15.614147,7.5162337 98.465183,0 c 3.86928,0 6.98438,3.1150993 6.98438,6.9843783 l 0,98.465188 c 0,3.86928 -3.1151,6.98438 -6.98438,6.98438 l -98.465183,0 c -3.869279,0 -6.9843762,-3.1151 -6.9843762,-6.98438 l 0,-98.465188 c 0,-3.869279 3.1150972,-6.9843783 6.9843762,-6.9843783"
     id="path13"
     inkscape:connector-curvature="0"
     style="fill:url(#0);fill-rule:evenodd" />
  <path
     d="m 109.33877,53.706339 c 1.43575,0.901738 2.48505,0.257639 2.33046,-1.431072 L 109.2685,25.829729 c -0.15458,-1.68871 -1.57863,-2.583423 -3.16663,-1.988509 l -24.869249,9.310159 c -1.587997,0.594914 -1.712132,1.819873 -0.276377,2.721612 l 4.61175,2.897275 c 1.435755,0.901739 1.847979,2.798903 0.915792,4.215921 L 67.699514,71.535002 c -0.932187,1.417018 -2.993305,2.084539 -4.57896,1.482599 L 33.908903,61.955491 c -1.585654,-0.599597 -3.766223,-0.02108 -4.845967,1.285857 L 10.716652,85.449885 C 9.6369076,86.75682 8.7445376,89.213766 8.737511,90.909503 L 8.643824,109.04734 c -0.00703,1.69574 0.8876857,2.03067 1.993194,0.74481 L 34.269599,82.273891 c 1.105508,-1.285856 3.307156,-1.847979 4.890469,-1.246039 l 29.429473,11.153453 c 1.585655,0.60194 3.651457,-0.0632 4.59067,-1.473229 L 99.520352,51.167417 c 0.939218,-1.412334 2.883218,-1.826899 4.318978,-0.925161 l 5.51817,3.468767"
     id="path15"
     inkscape:connector-curvature="0"
     style="fill:#ffffff;fill-opacity:0.85100002" />
  <path
     d="m 17.106115,9.2189984 95.471885,0 c 3.75217,0 6.77358,3.0214106 6.77358,6.7735806 l 0,95.471891 c 0,3.75217 -3.02141,6.77358 -6.77358,6.77358 l -95.471885,0 c -3.75217,0 -6.77358,-3.02141 -6.77358,-6.77358 l 0,-95.471891 c 0,-3.75217 3.02141,-6.7735806 6.77358,-6.7735806 z"
     id="path17"
     inkscape:connector-curvature="0"
     style="fill:none;fill-rule:evenodd;stroke:url(#2);stroke-width:3.40786982" />
</svg>
