<?xml version="1.0" encoding="UTF-8" standalone="no"?>
<svg
   xmlns:dc="http://purl.org/dc/elements/1.1/"
   xmlns:cc="http://creativecommons.org/ns#"
   xmlns:rdf="http://www.w3.org/1999/02/22-rdf-syntax-ns#"
   xmlns:svg="http://www.w3.org/2000/svg"
   xmlns="http://www.w3.org/2000/svg"
   xmlns:sodipodi="http://sodipodi.sourceforge.net/DTD/sodipodi-0.dtd"
   xmlns:inkscape="http://www.inkscape.org/namespaces/inkscape"
   viewBox="0 0 128 128"
   id="svg2"
   version="1.1"
   inkscape:version="0.91 r"
   sodipodi:docname="leocad.svg"
   width="128"
   height="128">
  <metadata
     id="metadata22">
    <rdf:RDF>
      <cc:Work
         rdf:about="">
        <dc:format>image/svg+xml</dc:format>
        <dc:type
           rdf:resource="http://purl.org/dc/dcmitype/StillImage" />
        <dc:title></dc:title>
      </cc:Work>
    </rdf:RDF>
  </metadata>
  <sodipodi:namedview
     pagecolor="#ffffff"
     bordercolor="#666666"
     borderopacity="1"
     objecttolerance="10"
     gridtolerance="10"
     guidetolerance="10"
     inkscape:pageopacity="0"
     inkscape:pageshadow="2"
     inkscape:window-width="1366"
     inkscape:window-height="744"
     id="namedview20"
     showgrid="false"
     inkscape:zoom="2.4583333"
     inkscape:cx="68.999105"
     inkscape:cy="9.9933817"
     inkscape:window-x="0"
     inkscape:window-y="24"
     inkscape:window-maximized="1"
     inkscape:current-layer="svg2" />
  <defs
     id="defs4">
    <linearGradient
       id="0"
       x1="27.455999"
       y1="47.389999"
       x2="26.441999"
       y2="1.017"
       gradientUnits="userSpaceOnUse"
       gradientTransform="matrix(2.3642932,0,0,2.3642932,7.3247625,7.1891684)">
      <stop
         stop-color="#e1e1e1"
         id="stop7" />
      <stop
         stop-color="#f4f4ff"
         offset="1"
         id="stop9" />
    </linearGradient>
    <linearGradient
       id="1"
       x1="24.139999"
       y1="40.682999"
       x2="23.860001"
       y2="6.3099999"
       gradientUnits="userSpaceOnUse"
       gradientTransform="matrix(2.3642932,0,0,2.3642932,7.3247625,7.1891684)">
      <stop
         stop-color="#c52828"
         id="stop12" />
      <stop
         stop-color="#ff5454"
         offset="1"
         id="stop14" />
    </linearGradient>
  </defs>
  <path
     d="m 14.370357,7.1844404 99.394883,0 c 3.90581,0 7.05032,3.1445096 7.05032,7.0503216 l 0,99.394898 c 0,3.90581 -3.14451,7.0503 -7.05032,7.0503 l -99.394883,0 c -3.905813,0 -7.0503231,-3.14449 -7.0503231,-7.0503 l 0,-99.394898 c 0,-3.905812 3.1445101,-7.0503216 7.0503231,-7.0503216"
     id="path16"
     style="fill:url(#0);fill-rule:evenodd"
     inkscape:connector-curvature="0" />
  <path
     d="m 64.469729,23.739222 c -4.042943,0 -7.090516,1.761396 -7.092879,4.094956 l 0,2.964823 c -0.06148,0.0024 -0.125315,0.0213 -0.184409,0.04966 l -4.582,2.364293 c -0.196228,0.101678 -0.359371,0.24117 -0.494136,0.397201 -1.160869,-0.477586 -2.591265,-0.761301 -4.191893,-0.761301 -4.040576,0 -7.088151,1.756669 -7.088151,4.090228 l 0,2.525064 c -0.255342,0.0071 -0.510687,0.05438 -0.747117,0.184409 l -8.750248,4.752219 c -0.302629,0.16313 -0.505959,0.41848 -0.654909,0.702197 -0.04256,0.06384 -0.06856,0.125315 -0.101665,0.193869 -0.02837,0.0804 -0.04728,0.158413 -0.06384,0.24117 -0.04728,0.156054 -0.125307,0.30263 -0.125307,0.470496 l 0,38.521431 c 0,0.602886 0.326272,1.160856 0.85351,1.458761 l 31.821023,17.911892 c 0.0213,0.0127 0.04727,0.008 0.06855,0.0203 0.215148,0.1088 0.446852,0.17018 0.683279,0.17957 0.0024,0 0.04492,0.0203 0.06856,0.0203 0.21043,0 0.404294,-0.0898 0.600532,-0.16561 0.07094,-0.0284 0.15367,-0.0177 0.22225,-0.0543 l 0.0094,-0.005 c 0.0048,-2.5e-4 0.0094,-2.5e-4 0.0142,-0.005 0.0048,-2.5e-4 0.0048,-0.008 0.0094,-0.0101 L 96.850954,85.852806 c 0.529602,-0.295521 0.853508,-0.855875 0.853508,-1.458761 l 0.0331,-38.31337 c 0,-0.593439 -0.312085,-1.146681 -0.827502,-1.444583 -0.05438,-0.0331 -0.122956,-0.026 -0.179692,-0.04966 -0.07565,-0.05909 -0.130032,-0.132391 -0.217506,-0.179691 l -8.754978,-4.752229 c -0.03781,-0.02131 -0.07801,-0.01902 -0.115855,-0.03784 l 0,-2.702387 c 0,-2.33592 -3.047575,-4.094956 -7.088151,-4.094956 -1.716478,0 -3.23199,0.328637 -4.43305,0.872427 -0.08276,-0.0662 -0.151311,-0.146594 -0.248246,-0.198612 l -4.165749,-2.152719 c -0.04728,-0.0024 -0.09929,-0.0213 -0.148953,-0.04256 l 0,-3.463688 c 0,-2.335923 -3.047575,-4.094956 -7.088152,-4.094956 m -4.581997,7.241829 c 1.222339,0.586345 2.792231,0.940988 4.582,0.940988 1.787405,0 3.354933,-0.357006 4.577272,-0.940988 l 0,4.641107 c 0,0.48468 -1.728299,1.584076 -4.577272,1.584076 -2.848974,0 -4.582,-1.099396 -4.582,-1.584076 l 0,-4.641107 m -2.513243,3.541711 0,1.099396 c 0,2.333559 3.049936,4.090228 7.092879,4.090228 4.045304,0 7.090516,-1.756669 7.088149,-4.090228 l 0,-0.591073 2.035657,1.052111 c -0.08747,0.267166 -0.134775,0.543787 -0.134775,0.832232 l 0,7.785616 c 0,2.333557 3.049939,4.090228 7.092881,4.090228 4.042941,0 7.090513,-1.756671 7.08815,-4.090228 l 0,-1.302725 4.965015,2.702388 -28.709611,16.074828 -28.46609,-16.176493 5.416596,-2.945911 0,1.676286 c 0,2.333557 3.047573,4.094956 7.088152,4.094956 4.040576,0 7.088149,-1.761399 7.088149,-4.094956 l 0,-7.785619 c 0,-0.375922 -0.104036,-0.730565 -0.252989,-1.071026 l 2.617272,-1.347646 M 75.979088,40.0623 c 1.219976,0.586346 2.792231,0.945719 4.582003,0.945719 1.787405,0 3.35493,-0.361737 4.577269,-0.945719 l 0,4.641107 c 0,0.458674 -1.602988,1.579349 -4.577269,1.579349 -2.848974,0 -4.582003,-1.094668 -4.582003,-1.579349 l 0,-4.641107 m -32.629607,0.02838 c 1.222339,0.586345 2.792228,0.945718 4.581999,0.945718 1.78504,0 3.354931,-0.357009 4.57727,-0.940988 l 0,4.636379 c 0,0.458671 -1.602989,1.584076 -4.57727,1.584076 -2.97428,0 -4.581999,-1.125405 -4.581999,-1.584076 l 0,-4.641109 m 21.020929,1.704656 c -4.040577,0 -7.092879,1.761399 -7.092879,4.094956 l 0,7.785619 c 0,2.333556 3.052302,4.094955 7.092879,4.094955 4.040576,0 7.083421,-1.761399 7.083421,-4.094955 l 0,-7.785619 c 0,-2.333557 -3.042845,-4.094956 -7.083421,-4.094956 m -4.582,7.239465 c 1.222339,0.586346 2.79223,0.945719 4.582,0.945719 1.785042,0 3.352569,-0.35701 4.572542,-0.940988 l 0,4.636379 c 0,0.458671 -1.598261,1.584076 -4.572542,1.584076 -2.848974,0 -4.582,-1.099398 -4.582,-1.584076 l 0,-4.64111"
     id="path18"
     style="fill:url(#1)"
     inkscape:connector-curvature="0" />
</svg>
