<?xml version="1.0" encoding="UTF-8" standalone="no"?>
<svg
   xmlns:dc="http://purl.org/dc/elements/1.1/"
   xmlns:cc="http://creativecommons.org/ns#"
   xmlns:rdf="http://www.w3.org/1999/02/22-rdf-syntax-ns#"
   xmlns:svg="http://www.w3.org/2000/svg"
   xmlns="http://www.w3.org/2000/svg"
   xmlns:sodipodi="http://sodipodi.sourceforge.net/DTD/sodipodi-0.dtd"
   xmlns:inkscape="http://www.inkscape.org/namespaces/inkscape"
   viewBox="0 0 128 128"
   id="svg2"
   version="1.1"
   inkscape:version="0.91 r"
   sodipodi:docname="mendeley.svg"
   width="128"
   height="128">
  <metadata
     id="metadata43">
    <rdf:RDF>
      <cc:Work
         rdf:about="">
        <dc:format>image/svg+xml</dc:format>
        <dc:type
           rdf:resource="http://purl.org/dc/dcmitype/StillImage" />
        <dc:title />
      </cc:Work>
    </rdf:RDF>
  </metadata>
  <sodipodi:namedview
     pagecolor="#ffffff"
     bordercolor="#666666"
     borderopacity="1"
     objecttolerance="10"
     gridtolerance="10"
     guidetolerance="10"
     inkscape:pageopacity="0"
     inkscape:pageshadow="2"
     inkscape:window-width="1366"
     inkscape:window-height="744"
     id="namedview41"
     showgrid="false"
     inkscape:zoom="2.4583333"
     inkscape:cx="56.161597"
     inkscape:cy="37.293462"
     inkscape:window-x="0"
     inkscape:window-y="24"
     inkscape:window-maximized="1"
     inkscape:current-layer="svg2" />
  <defs
     id="defs4">
    <clipPath
       id="clipPath6">
      <rect
         y="6"
         x="6"
         rx="6"
         height="84"
         width="84"
         id="rect8"
         style="fill:#ffffff" />
    </clipPath>
    <filter
       id="filter10"
       style="color-interpolation-filters:sRGB">
      <feGaussianBlur
         stdDeviation="1.71"
         id="feGaussianBlur12" />
    </filter>
    <filter
       height="1.3839999"
       width="1.3839999"
       y="-0.192"
       x="-0.192"
       id="filter14"
       style="color-interpolation-filters:sRGB">
      <feGaussianBlur
         stdDeviation="5.28"
         id="feGaussianBlur16" />
    </filter>
    <linearGradient
       id="0"
       gradientUnits="userSpaceOnUse"
       x1="24.610001"
       y1="47.592999"
       x2="23.593"
       y2="-0.20299999"
       gradientTransform="matrix(2.3813559,0,0,2.3813559,6.9152543,7.1864404)">
      <stop
         stop-color="#c52828"
         id="stop19" />
      <stop
         offset="1"
         stop-color="#ff5454"
         id="stop21" />
    </linearGradient>
    <linearGradient
       gradientUnits="userSpaceOnUse"
       y2="138.66"
       x2="0"
       y1="20.221001"
       id="linearGradient23">
      <stop
         stop-color="#fff"
         id="stop25" />
      <stop
         offset="1"
         stop-color="#fff"
         stop-opacity="0"
         id="stop27" />
    </linearGradient>
    <linearGradient
       gradientTransform="scale(1.0059,0.99417)"
       gradientUnits="userSpaceOnUse"
       y2="7.02"
       x2="0"
       y1="92.540001"
       id="linearGradient29">
      <stop
         id="stop31" />
      <stop
         offset="1"
         stop-opacity=".588"
         id="stop33" />
    </linearGradient>
  </defs>
  <rect
     height="114.30509"
     width="114.30509"
     rx="15.001"
     id="rect35"
     x="6.9152546"
     y="7.1864409"
     style="fill:url(#0);fill-rule:evenodd" />
  <g
     transform="matrix(2.3813559,0,0,2.3813559,156.62871,-7.2993475)"
     id="g37">
    <path
       d="m -46.28,20.1 c -0.788,0.012 -1.592,0.212 -2.373,0.598 -2.329,1.151 -3.284,3.625 -2.561,6.574 0.345,1.41 0.465,3.314 0.256,4.081 -0.296,1.086 -1.203,1.655 -2.664,1.656 -1.443,0.002 -2.862,1.109 -3.142,2.459 -0.287,1.38 0.041,2.631 0.939,3.534 1.056,1.063 2.521,1.362 3.791,0.768 1.838,-0.86 2.44,-2.656 1.656,-4.9 -0.378,-1.082 -0.395,-1.227 -0.205,-1.912 0.805,-2.899 7.419,-3.112 8.503,-0.273 0.256,0.671 0.214,1.13 -0.256,2.305 -0.288,0.719 -0.323,0.97 -0.273,1.742 0.09,1.41 0.766,2.398 2.1,3.01 0.812,0.37 2.499,0.368 3.295,0 1.957,-0.904 2.692,-2.865 1.827,-4.849 -0.743,-1.704 -0.367,-2.836 1.195,-3.62 1.966,-0.986 4.805,-0.761 6.232,0.495 1.021,0.899 1.173,1.677 0.632,3.227 -0.719,2.058 -0.143,3.838 1.52,4.73 0.718,0.385 2.305,0.385 3.02,0 0.649,-0.349 1.383,-1.115 1.622,-1.69 0.699,-1.677 0.127,-3.788 -1.246,-4.593 -0.475,-0.278 -0.833,-0.363 -1.793,-0.444 -0.781,-0.066 -1.327,-0.189 -1.588,-0.341 -0.521,-0.304 -0.937,-1.058 -1.042,-1.895 -0.095,-0.762 0.117,-2.661 0.41,-3.671 0.303,-1.044 0.182,-3 -0.239,-3.927 -1.289,-2.831 -4.931,-3.939 -7.513,-2.271 -0.405,0.262 -0.924,0.727 -1.161,1.024 -0.83,1.045 -2.167,2.383 -2.578,2.578 -1.035,0.491 -2.097,0.089 -3.261,-1.229 -1.759,-1.992 -2.02,-2.244 -2.8,-2.629 -0.736,-0.362 -1.517,-0.542 -2.305,-0.529 m 7.444,5.805 c 2.383,-0.004 4,2.175 3.33,4.491 -0.294,1.01 -1.257,1.988 -2.22,2.271 -0.824,0.242 -1.503,0.254 -2.271,0.017 -1.335,-0.411 -2.331,-1.834 -2.322,-3.33 0.006,-1 0.23,-1.571 0.922,-2.322 0.723,-0.784 1.505,-1.125 2.561,-1.127"
       id="path39"
       inkscape:connector-curvature="0"
       style="color:#000000;fill:#ffffff;fill-opacity:0.8479996" />
  </g>
</svg>
