<?xml version="1.0" encoding="UTF-8" standalone="no"?>
<!-- Created with Inkscape (http://www.inkscape.org/) -->

<svg
   xmlns:dc="http://purl.org/dc/elements/1.1/"
   xmlns:cc="http://creativecommons.org/ns#"
   xmlns:rdf="http://www.w3.org/1999/02/22-rdf-syntax-ns#"
   xmlns:svg="http://www.w3.org/2000/svg"
   xmlns="http://www.w3.org/2000/svg"
   xmlns:xlink="http://www.w3.org/1999/xlink"
   xmlns:sodipodi="http://sodipodi.sourceforge.net/DTD/sodipodi-0.dtd"
   xmlns:inkscape="http://www.inkscape.org/namespaces/inkscape"
   id="svg2"
   version="1.1"
   inkscape:version="0.91 r"
   width="512"
   height="512"
   sodipodi:docname="gnome-mines.svg">
  <metadata
     id="metadata8">
    <rdf:RDF>
      <cc:Work
         rdf:about="">
        <dc:format>image/svg+xml</dc:format>
        <dc:type
           rdf:resource="http://purl.org/dc/dcmitype/StillImage" />
        <dc:title />
      </cc:Work>
    </rdf:RDF>
  </metadata>
  <defs
     id="defs6">
    <linearGradient
       inkscape:collect="always"
       id="linearGradient3335">
      <stop
         style="stop-color:#6476af;stop-opacity:1;"
         offset="0"
         id="stop3337" />
      <stop
         id="stop3343"
         offset="0.0768439"
         style="stop-color:#80e5ff;stop-opacity:1" />
      <stop
         style="stop-color:#004455;stop-opacity:1"
         offset="0.909226"
         id="stop3345" />
      <stop
         style="stop-color:#6476af;stop-opacity:0;"
         offset="1"
         id="stop3339" />
    </linearGradient>
    <linearGradient
       inkscape:collect="always"
       xlink:href="#linearGradient3335"
       id="linearGradient4162"
       x1="-19.798988"
       y1="256.02734"
       x2="581.24176"
       y2="265.92685"
       gradientUnits="userSpaceOnUse"
       gradientTransform="translate(2.8831177,-512.00001)" />
  </defs>
  <sodipodi:namedview
     pagecolor="#ffffff"
     bordercolor="#666666"
     borderopacity="1"
     objecttolerance="10"
     gridtolerance="10"
     guidetolerance="10"
     inkscape:pageopacity="0"
     inkscape:pageshadow="2"
     inkscape:window-width="1193"
     inkscape:window-height="692"
     id="namedview4"
     showgrid="false"
     inkscape:zoom="1"
     inkscape:cx="275.06855"
     inkscape:cy="182.66728"
     inkscape:window-x="15"
     inkscape:window-y="39"
     inkscape:window-maximized="0"
     inkscape:current-layer="svg2" />
  <path
     sodipodi:type="arc"
     style="fill:#ffffff;fill-opacity:1;fill-rule:nonzero;stroke:none"
     id="path2983"
     sodipodi:cx="71"
     sodipodi:cy="289"
     sodipodi:rx="163"
     sodipodi:ry="157"
     d="m 234,289 a 163,157 0 1 1 -326,0 163,157 0 1 1 326,0 z"
     transform="matrix(1,0,0,1.0127389,186,-39.681529)" />
  <rect
     style="opacity:1;fill:url(#linearGradient4162);fill-opacity:1;fill-rule:nonzero;stroke:none;stroke-width:2.00600004;stroke-miterlimit:4;stroke-dasharray:none;stroke-opacity:1"
     id="rect3354"
     width="461.03363"
     height="461.03363"
     x="26.924749"
     y="-485.07526"
     rx="57.854485"
     transform="matrix(0,1,-1,0,0,0)" />
  <path
     style="opacity:0.9;fill:#ffffff;fill-opacity:1;fill-rule:nonzero;stroke:none;stroke-width:2.00600004;stroke-miterlimit:4;stroke-dasharray:none;stroke-opacity:1"
     d="m 243.33796,442.4201 c -0.92098,-2.44345 -3.5777,-14.95224 -5.90381,-27.7973 -4.19784,-23.18095 -4.33015,-23.3847 -17.786,-27.39106 -7.45617,-2.22002 -18.61174,-6.67046 -24.79017,-9.88989 -11.13489,-5.80211 -11.40099,-5.75894 -30.32119,4.91894 l -19.0877,10.77244 -11.36683,-12.40336 -11.36683,-12.40335 10.50197,-18.35555 c 10.37963,-18.14167 10.43421,-18.48561 4.6848,-29.5188 -3.19944,-6.13979 -7.63237,-17.25287 -9.85096,-24.69574 l -4.03378,-13.53248 -26.746389,-5.10797 -26.746439,-5.10796 -1.023668,-14.02535 -1.023656,-14.02535 21.636309,-3.7678 c 11.899973,-2.0723 24.057743,-3.7678 27.017313,-3.7678 3.5031,0 7.38436,-6.20977 11.12118,-17.79316 3.15708,-9.78623 7.93117,-21.28724 10.60911,-25.55779 4.453,-7.10128 3.94777,-9.37474 -5.91375,-26.61088 l -10.78273,-18.84625 11.96331,-11.96331 11.96331,-11.96332 18.84625,10.78274 c 17.23614,9.86152 19.5096,10.36675 26.61088,5.91375 4.27055,-2.67794 15.77156,-7.45203 25.55779,-10.60912 11.58339,-3.73682 17.79315,-7.61808 17.79315,-11.12116 0,-2.95959 1.69551,-15.1174 3.7678,-27.017382 l 3.76781,-21.636309 14.02535,0.02366 14.27535,0.273668 4.56424,27.943925 c 4.19702,25.695652 5.08595,26.281732 16.94585,30.113902 6.6724,2.15598 17.93955,6.84009 25.03813,10.40912 l 12.90648,6.48913 16.94624,-10.42713 16.94623,-10.42713 13.51247,10.63975 c 11.92121,9.38679 11.93371,9.37068 12.57927,10.09527 0,0 -6.11857,15.20738 -10.06313,21.54487 l -10.18828,16.36893 8.4354,19.06148 c 4.63948,10.48381 8.97493,22.11173 9.63433,25.83982 0.98854,5.58893 5.80043,7.58348 27.42244,11.36677 l 26.22353,4.58844 0,14.43431 0,14.43432 -25.63296,4.13504 c -18.36103,2.96195 -26.18364,5.73795 -27.57413,9.78521 -1.06765,3.1076 -5.61148,15.08259 -10.09738,26.61111 l -8.15619,20.96095 10.1637,16.31995 10.16369,16.31995 -12.31137,12.61648 -12.31137,12.61651 -17.8949,-10.23843 c -17.66154,-10.1049 -18.04044,-10.16255 -29.05814,-4.42123 -6.13979,3.19945 -17.26376,7.6204 -24.71994,9.82435 l -13.55669,4.00716 -5.1582,26.77304 -5.15819,26.77307 -12.66219,1.05349 c -8.14205,0.67743 -13.25997,-0.53243 -14.33672,-3.38918 z"
     id="path3352"
     inkscape:connector-curvature="0"
     sodipodi:nodetypes="ssssscccssscccccssssscccssssscccssscccssscssscccssscccccssscccss" />
  <g
     id="g3363"
     transform="translate(-557.53552,27.656855)"
     style="opacity:0.28999999;fill:#64c2da;fill-opacity:1">
    <path
       inkscape:connector-curvature="0"
       id="path3345"
       d="m 721.03806,170.6881 c -0.48625,-1.93739 1.26382,-5.73592 4.59864,-9.98132 3.73052,-4.74914 14.32598,-15.12419 18.10939,-17.73266 4.01177,-2.76591 8.80087,-4.00289 8.80087,-2.27319 0,1.31822 -12.89628,15.15236 -22.8488,24.51044 -4.18972,3.93947 -7.75701,7.16267 -7.92731,7.16267 -0.1703,0 -0.50006,-0.75867 -0.73279,-1.68594 z"
       style="opacity:0.9;fill:#64c2da;fill-opacity:1;fill-rule:nonzero;stroke:none;stroke-width:2.00600004;stroke-miterlimit:4;stroke-dasharray:none;stroke-opacity:1" />
    <path
       inkscape:connector-curvature="0"
       id="path3347"
       d="m 795.33377,126.48853 c -3.45286,-0.52618 -3.91535,-1.97581 -1.3879,-4.35023 1.84089,-1.72942 1.90956,-1.73661 16.58896,-1.73661 13.88918,0 14.85571,0.0861 16.73682,1.49053 1.09802,0.81979 1.9964,2.09258 1.9964,2.82842 0,1.19935 -0.7689,1.38385 -7.42462,1.78159 -9.33069,0.55759 -22.80659,0.55062 -26.50966,-0.0137 z"
       style="opacity:0.9;fill:#64c2da;fill-opacity:1;fill-rule:nonzero;stroke:none;stroke-width:2.00600004;stroke-miterlimit:4;stroke-dasharray:none;stroke-opacity:1" />
    <path
       inkscape:connector-curvature="0"
       id="path3349"
       d="m 891.23512,164.41909 c -10.42361,-10.04656 -21.61667,-22.01616 -21.89061,-23.40928 -0.3261,-1.65838 2.26464,-1.49776 6.19256,0.38393 4.86856,2.33233 21.17225,18.90463 23.68733,24.07762 1.90487,3.91789 2.03038,6.19557 0.34142,6.19557 -0.44597,0 -4.19478,-3.26153 -8.3307,-7.24784 z"
       style="opacity:0.9;fill:#64c2da;fill-opacity:1;fill-rule:nonzero;stroke:none;stroke-width:2.00600004;stroke-miterlimit:4;stroke-dasharray:none;stroke-opacity:1" />
    <path
       inkscape:connector-curvature="0"
       id="path3351"
       d="m 914.45125,247.61998 c -1.04919,-2.75956 -0.62325,-34.5805 0.47758,-35.67947 0.59766,-0.59666 1.19161,-0.60129 2.28189,-0.0178 2.87173,1.5369 3.19185,3.29919 3.22016,17.72697 0.029,14.75439 -0.35904,16.76781 -3.64616,18.92108 -1.4806,0.96988 -1.62572,0.91075 -2.33347,-0.95079 z"
       style="opacity:0.9;fill:#64c2da;fill-opacity:1;fill-rule:nonzero;stroke:none;stroke-width:2.00600004;stroke-miterlimit:4;stroke-dasharray:none;stroke-opacity:1" />
    <path
       inkscape:connector-curvature="0"
       id="path3353"
       d="m 802.34788,247.05812 c -8.19964,-3.81814 -12.09969,-13.70967 -9.20189,-23.33834 2.14276,-7.11983 7.79258,-11.28432 16.55099,-12.19976 5.34246,-0.55839 9.63284,0.87934 13.78023,4.61783 9.60325,8.65646 7.57339,25.0583 -3.80276,30.72727 -5.10219,2.54253 -12.11312,2.62062 -17.32657,0.193 z"
       style="opacity:0.9;fill:#64c2da;fill-opacity:1;fill-rule:nonzero;stroke:none;stroke-width:2.00600004;stroke-miterlimit:4;stroke-dasharray:none;stroke-opacity:1" />
    <path
       inkscape:connector-curvature="0"
       id="path3355"
       d="m 703.43446,247.36208 c -1.85675,-2.05168 -2.76531,-11.81825 -2.15664,-23.18262 0.4694,-8.7641 0.65847,-9.74431 2.17143,-11.25728 4.10858,-4.10857 4.79424,-1.29009 4.32737,17.78817 -0.20938,8.55599 -0.59718,16.1132 -0.86179,16.79379 -0.6305,1.62165 -1.93233,1.56851 -3.48037,-0.14206 z"
       style="opacity:0.9;fill:#64c2da;fill-opacity:1;fill-rule:nonzero;stroke:none;stroke-width:2.00600004;stroke-miterlimit:4;stroke-dasharray:none;stroke-opacity:1" />
    <path
       inkscape:connector-curvature="0"
       id="path3357"
       d="m 743.33159,316.90465 c -5.67728,-4.17937 -16.08355,-14.74264 -19.30559,-19.59684 -2.81778,-4.24516 -3.62104,-6.72689 -2.65694,-8.20876 0.52163,-0.80178 1.66257,-0.11587 5.57097,3.3492 7.47737,6.62918 25.60693,25.52127 25.60693,26.68394 0,0.69615 -0.77248,1.02717 -2.39709,1.02717 -1.73716,0 -3.61425,-0.89603 -6.81828,-3.25471 z"
       style="opacity:0.9;fill:#64c2da;fill-opacity:1;fill-rule:nonzero;stroke:none;stroke-width:2.00600004;stroke-miterlimit:4;stroke-dasharray:none;stroke-opacity:1" />
    <path
       inkscape:connector-curvature="0"
       id="path3359"
       d="m 795.87357,339.20853 c -3.03926,-0.92755 -4.40851,-3.36821 -2.62235,-4.67428 1.81421,-1.32659 33.4041,-1.36007 35.21306,-0.0373 1.57941,1.15489 0.93356,2.87396 -1.53323,4.08102 -2.36348,1.15652 -27.6518,1.66996 -31.05748,0.63058 z"
       style="opacity:0.9;fill:#64c2da;fill-opacity:1;fill-rule:nonzero;stroke:none;stroke-width:2.00600004;stroke-miterlimit:4;stroke-dasharray:none;stroke-opacity:1" />
    <path
       inkscape:connector-curvature="0"
       id="path3361"
       d="m 868.84197,319.41333 c -0.57638,-0.93261 29.88191,-31.25623 31.01585,-30.87871 3.31015,1.10207 -0.38695,7.70559 -9.69157,17.31046 -9.70804,10.02131 -15.25638,14.31428 -18.50013,14.31428 -1.29969,0 -2.57056,-0.33571 -2.82415,-0.74603 z"
       style="opacity:0.9;fill:#64c2da;fill-opacity:1;fill-rule:nonzero;stroke:none;stroke-width:2.00600004;stroke-miterlimit:4;stroke-dasharray:none;stroke-opacity:1" />
  </g>
</svg>
