<?xml version="1.0" encoding="UTF-8" standalone="no"?>
<svg
   xmlns:dc="http://purl.org/dc/elements/1.1/"
   xmlns:cc="http://creativecommons.org/ns#"
   xmlns:rdf="http://www.w3.org/1999/02/22-rdf-syntax-ns#"
   xmlns:svg="http://www.w3.org/2000/svg"
   xmlns="http://www.w3.org/2000/svg"
   xmlns:sodipodi="http://sodipodi.sourceforge.net/DTD/sodipodi-0.dtd"
   xmlns:inkscape="http://www.inkscape.org/namespaces/inkscape"
   viewBox="0 0 128 128"
   id="svg2"
   version="1.1"
   inkscape:version="0.91 r"
   sodipodi:docname="moinmoin.svg"
   width="128"
   height="128">
  <metadata
     id="metadata30">
    <rdf:RDF>
      <cc:Work
         rdf:about="">
        <dc:format>image/svg+xml</dc:format>
        <dc:type
           rdf:resource="http://purl.org/dc/dcmitype/StillImage" />
        <dc:title></dc:title>
      </cc:Work>
    </rdf:RDF>
  </metadata>
  <sodipodi:namedview
     pagecolor="#ffffff"
     bordercolor="#666666"
     borderopacity="1"
     objecttolerance="10"
     gridtolerance="10"
     guidetolerance="10"
     inkscape:pageopacity="0"
     inkscape:pageshadow="2"
     inkscape:window-width="1366"
     inkscape:window-height="744"
     id="namedview28"
     showgrid="false"
     inkscape:zoom="2.4583333"
     inkscape:cx="60.301666"
     inkscape:cy="39.914608"
     inkscape:window-x="0"
     inkscape:window-y="24"
     inkscape:window-maximized="1"
     inkscape:current-layer="svg2" />
  <defs
     id="defs4">
    <clipPath
       id="1">
      <path
         transform="matrix(15.33333,0,0,11.5,415,-125.5)"
         d="m -24,13 c 0,1.105 -0.672,2 -1.5,2 -0.828,0 -1.5,-0.895 -1.5,-2 0,-1.105 0.672,-2 1.5,-2 0.828,0 1.5,0.895 1.5,2"
         id="path7"
         inkscape:connector-curvature="0"
         style="fill:#1890d0" />
    </clipPath>
    <linearGradient
       id="0"
       gradientUnits="userSpaceOnUse"
       x1="400.51001"
       y1="546.07001"
       x2="400.70001"
       y2="517.77002"
       gradientTransform="matrix(4.2421851,0,0,4.2421851,-1635.0277,-2191.8524)">
      <stop
         stop-color="#197ff1"
         id="stop10" />
      <stop
         offset="1"
         stop-color="#21c6fb"
         id="stop12" />
    </linearGradient>
  </defs>
  <circle
     r="59.390591"
     cy="64.141586"
     cx="64.264374"
     id="circle14"
     style="fill:url(#0)" />
  <circle
     cx="64.264374"
     cy="64.141586"
     r="59.390591"
     id="circle16"
     style="fill:#5ea5fb;fill-opacity:0" />
  <g
     transform="matrix(3.5650053,0,0,3.5650053,-310.98118,35.67462)"
     id="g18">
    <g
       clip-path="url(#1)"
       transform="translate(81.36,-16.07)"
       id="g20">
      <g
         id="g22">
        <path
           d="m 23.844,12.25 c -1.754,0 -3.188,1.434 -3.188,3.188 l -2.406,1.969 -3.406,1.938 0.094,6.313 4.281,2.781 3.125,-1.969 2.625,-0.313 3.438,2.219 -2.656,1.688 c -0.535,-0.398 -1.184,-0.656 -1.906,-0.656 -0.754,0 -1.449,0.254 -2,0.691 l -2.469,-1.566 -4.531,0.605 5.781,3.645 c 0.082,1.707 1.492,3.066 3.219,3.066 1.652,0 3,-1.242 3.188,-2.844 l 2.316,-1.973 2,-4.625 -4.5,-2.563 -4.656,-1.313 -4.813,3.406 c 0,0 -0.441,-2.25 -0.223,-2.406 0.223,-0.156 1.816,-3.375 1.816,-3.375 l 2.969,-2.188 c 0.527,0.398 1.191,0.625 1.906,0.625 0.703,0 1.348,-0.238 1.875,-0.625 l 2.469,2.125 2.469,-1.906 -3.625,-2.719 c 0,-0.012 0,-0.02 0,-0.031 l 0,-0.125 c -0.07,-1.703 -1.484,-3.063 -3.188,-3.063"
           id="path24"
           inkscape:connector-curvature="0"
           style="fill-opacity:0.54799996" />
        <path
           d="m 16.5,16.344 c -1.949,0 -3.531,1.582 -3.531,3.531 0,1.242 0.652,2.34 1.625,2.969 l 0,2.656 c -0.973,0.629 -1.625,1.723 -1.625,2.969 0,1.949 1.582,3.531 3.531,3.531 1.949,0 3.531,-1.582 3.531,-3.531 l 0,-0.125 C 19.98,27.063 19.242,25.985 18.187,25.406 l -0.031,-2.438 c 0.074,-0.043 0.176,-0.047 0.25,-0.094 l 1.906,1.188 c 0,0.02 0,0.039 0,0.063 0,1.949 1.582,3.531 3.531,3.531 1.918,0 3.48,-1.531 3.531,-3.438 l 1.969,-1.406 c 0.109,0.074 0.227,0.125 0.344,0.188 l 0.031,2.344 c -1.145,0.586 -1.938,1.754 -1.938,3.125 0,1.949 1.578,3.531 3.531,3.531 1.949,0 3.531,-1.582 3.531,-3.531 l 0,-0.125 c -0.059,-1.258 -0.77,-2.32 -1.781,-2.906 l 0.031,-2.531 c 1.039,-0.613 1.75,-1.734 1.75,-3.03 l 0,-0.156 c -0.078,-1.898 -1.645,-3.375 -3.531,-3.375 -1.773,0 -3.246,1.301 -3.5,3 l -2.344,1.656 c -0.488,-0.266 -1.039,-0.406 -1.625,-0.406 -0.563,0 -1.066,0.145 -1.531,0.375 l -2.316,-1.406 c -0.152,-1.816 -1.656,-3.219 -3.5,-3.219"
           id="path26"
           inkscape:connector-curvature="0"
           style="fill:#def4fe" />
      </g>
    </g>
  </g>
</svg>
