<?xml version="1.0" encoding="UTF-8" standalone="no"?>
<svg
   xmlns:dc="http://purl.org/dc/elements/1.1/"
   xmlns:cc="http://creativecommons.org/ns#"
   xmlns:rdf="http://www.w3.org/1999/02/22-rdf-syntax-ns#"
   xmlns:svg="http://www.w3.org/2000/svg"
   xmlns="http://www.w3.org/2000/svg"
   xmlns:sodipodi="http://sodipodi.sourceforge.net/DTD/sodipodi-0.dtd"
   xmlns:inkscape="http://www.inkscape.org/namespaces/inkscape"
   viewBox="0 0 128 128"
   id="svg2"
   version="1.1"
   inkscape:version="0.91 r"
   sodipodi:docname="mongodb.svg"
   width="128"
   height="128">
  <metadata
     id="metadata19">
    <rdf:RDF>
      <cc:Work
         rdf:about="">
        <dc:format>image/svg+xml</dc:format>
        <dc:type
           rdf:resource="http://purl.org/dc/dcmitype/StillImage" />
        <dc:title></dc:title>
      </cc:Work>
    </rdf:RDF>
  </metadata>
  <sodipodi:namedview
     pagecolor="#ffffff"
     bordercolor="#666666"
     borderopacity="1"
     objecttolerance="10"
     gridtolerance="10"
     guidetolerance="10"
     inkscape:pageopacity="0"
     inkscape:pageshadow="2"
     inkscape:window-width="1366"
     inkscape:window-height="744"
     id="namedview17"
     showgrid="false"
     inkscape:zoom="2.4583333"
     inkscape:cx="71.262822"
     inkscape:cy="58.687798"
     inkscape:window-x="0"
     inkscape:window-y="24"
     inkscape:window-maximized="1"
     inkscape:current-layer="svg2" />
  <defs
     id="defs4">
    <linearGradient
       id="0"
       x1="24.200001"
       y1="47.592999"
       x2="25.627001"
       y2="0"
       gradientUnits="userSpaceOnUse"
       gradientTransform="matrix(2.4915254,0,0,2.4915254,4.0677966,3.9322034)">
      <stop
         stop-color="#74cb32"
         id="stop7" />
      <stop
         offset="1"
         stop-color="#abeb6b"
         id="stop9" />
    </linearGradient>
  </defs>
  <circle
     r="59.796612"
     cy="63.728817"
     cx="63.864407"
     id="circle11"
     style="fill:url(#0)" />
  <g
     transform="matrix(0.12651966,0,0,0.12651966,28.983051,28.847457)"
     id="g13"
     style="fill:#283d16">
    <path
       d="m 413.69,0 c 0,0 -45.37,44.01 -94.43,61.759 -363.33,131.42 -210.1,387.52 -205.1,388.36 0,0 20.374,-35.48 47.896,-55.717 174.64,-128.39 210.14,-276.17 210.14,-276.17 0,0 -39.19,177.83 -194.56,288.48 -34.32,24.426 -57.55,84.57 -67.39,144.68 0,0 24.325,-9.828 34.785,-12.49 4.079,-26.618 12.607,-52.11 27.03,-74.875 217.15,25.854 288.27,-149.12 297.56,-210.14 21.929,-144.1 -55.928,-253.89 -55.928,-253.89"
       id="path15"
       inkscape:connector-curvature="0" />
  </g>
</svg>
