<?xml version="1.0" encoding="UTF-8" standalone="no"?>
<svg
   xmlns:dc="http://purl.org/dc/elements/1.1/"
   xmlns:cc="http://creativecommons.org/ns#"
   xmlns:rdf="http://www.w3.org/1999/02/22-rdf-syntax-ns#"
   xmlns:svg="http://www.w3.org/2000/svg"
   xmlns="http://www.w3.org/2000/svg"
   xmlns:sodipodi="http://sodipodi.sourceforge.net/DTD/sodipodi-0.dtd"
   xmlns:inkscape="http://www.inkscape.org/namespaces/inkscape"
   viewBox="0 0 128 128"
   id="svg2"
   version="1.1"
   inkscape:version="0.91 r"
   sodipodi:docname="newsblur.svg"
   width="128"
   height="128">
  <metadata
     id="metadata21">
    <rdf:RDF>
      <cc:Work
         rdf:about="">
        <dc:format>image/svg+xml</dc:format>
        <dc:type
           rdf:resource="http://purl.org/dc/dcmitype/StillImage" />
        <dc:title />
      </cc:Work>
    </rdf:RDF>
  </metadata>
  <sodipodi:namedview
     pagecolor="#ffffff"
     bordercolor="#666666"
     borderopacity="1"
     objecttolerance="10"
     gridtolerance="10"
     guidetolerance="10"
     inkscape:pageopacity="0"
     inkscape:pageshadow="2"
     inkscape:window-width="1366"
     inkscape:window-height="744"
     id="namedview19"
     showgrid="false"
     inkscape:zoom="3.4766083"
     inkscape:cx="25.074465"
     inkscape:cy="56.542373"
     inkscape:window-x="0"
     inkscape:window-y="24"
     inkscape:window-maximized="1"
     inkscape:current-layer="svg2" />
  <defs
     id="defs4">
    <clipPath
       id="clipPath6">
      <path
         transform="matrix(15.33333,0,0,11.5,415,-125.5)"
         d="m -24,13 c 0,1.105 -0.672,2 -1.5,2 -0.828,0 -1.5,-0.895 -1.5,-2 0,-1.105 0.672,-2 1.5,-2 0.828,0 1.5,0.895 1.5,2"
         id="path8"
         inkscape:connector-curvature="0"
         style="fill:#1890d0" />
    </clipPath>
    <linearGradient
       id="0"
       gradientUnits="userSpaceOnUse"
       x1="24.610001"
       y1="47.592999"
       x2="23.593"
       y2="-0.20299999"
       gradientTransform="matrix(2.3063498,0,0,2.3063498,8.3414631,9.2413826)">
      <stop
         stop-color="#ff433a"
         id="stop11" />
      <stop
         stop-color="#ff9436"
         offset="1"
         id="stop13" />
    </linearGradient>
  </defs>
  <rect
     height="110.70479"
     width="110.70479"
     rx="15.078"
     id="rect15"
     x="8.3414631"
     y="9.2413816"
     style="fill:url(#0);fill-rule:evenodd" />
  <path
     d="m 63.693859,20.773132 -2.400911,5.597511 c 0.797997,-0.05074 1.589075,-0.117624 2.400911,-0.117624 0.811835,0 1.602913,0.06688 2.40091,0.117624 l -2.40091,-5.597511 m 0,7.825445 c -1.155482,0 -2.299431,0.06919 -3.429543,0.177589 l -1.79434,4.19525 c 1.702086,-0.276762 3.441074,-0.46127 5.223883,-0.46127 1.782808,0 3.521796,0.184508 5.223882,0.46127 l -1.79434,-4.19525 c -1.130112,-0.108399 -2.271755,-0.177589 -3.429542,-0.177589 m -30.965053,5.018617 -0.01153,0.01153 2.244079,5.606736 c 1.054001,-1.194689 2.1795,-2.329413 3.374189,-3.37419 l -5.606738,-2.244076 m 61.932412,0 -5.606737,2.244078 c 1.194689,1.054002 2.329413,2.179501 3.37419,3.37419 l 2.246385,-5.606736 -0.01153,-0.01153 m -30.965053,2.417055 c -2.384765,0 -4.691115,0.320582 -6.907517,0.867187 l -2.018057,4.702647 c 2.774539,-1.056308 5.7751,-1.655959 8.925574,-1.655959 3.150474,0 6.151035,0.599651 8.925574,1.655959 L 70.605989,36.901436 C 68.38728,36.354831 66.080931,36.034249 63.698471,36.034249 m -22.902053,0.811835 c -1.764358,1.459919 -3.388028,3.081283 -4.845641,4.845641 l 1.690554,4.218314 c 2.04112,-2.84373 4.531977,-5.334588 7.375707,-7.375707 l -4.218314,-1.690555 m 45.804107,0 -4.218314,1.690555 c 2.84373,2.041119 5.334588,4.531977 7.375707,7.375707 l 1.690555,-4.218314 c -1.45992,-1.764358 -3.081284,-3.388028 -4.845641,-4.845641 M 48.95859,40.114181 c -3.983067,2.368622 -7.343418,5.65517 -9.797374,9.580578 l 1.872756,4.684196 c 2.578499,-5.512176 7.087413,-9.928836 12.682617,-12.359729 L 48.95859,40.111875 m 29.488988,0 -4.757999,1.907351 c 5.595204,2.430893 10.104118,6.847553 12.682617,12.359729 l 1.872756,-4.684196 c -2.453956,-3.925408 -5.816614,-7.211956 -9.797374,-9.580578 z m -14.744494,2.961353 c -12.101418,0 -21.908017,9.8066 -21.908017,21.908017 0,12.101418 9.806599,21.91263 21.908017,21.91263 12.101417,0 21.908017,-9.813519 21.908017,-21.91263 0,-12.101417 -9.8066,-21.908017 -21.908017,-21.908017 m -23.27107,12.721826 -4.739549,2.027281 c -0.588119,2.294818 -0.934071,4.68189 -0.934071,7.15891 0,2.158744 0.256005,4.255216 0.705743,6.280191 l 4.635763,1.983461 c -0.901783,-2.587725 -1.423018,-5.362264 -1.423018,-8.263652 0,-3.249647 0.641165,-6.340155 1.762051,-9.186191 m 46.565203,0 c 1.120886,2.846036 1.762051,5.936544 1.762051,9.186191 0,2.901388 -0.518928,5.675927 -1.423017,8.263652 l 4.635763,-1.983461 c 0.449738,-2.024975 0.705743,-4.121447 0.705743,-6.280191 0,-2.47702 -0.345953,-4.861785 -0.934072,-7.15891 l -4.739549,-2.027281 m -54.902657,3.572536 -4.19525,1.79434 c -0.108399,1.130111 -0.177589,2.271754 -0.177589,3.429542 0,1.155481 0.06919,2.299431 0.177589,3.429542 l 4.19525,1.79434 c -0.276762,-1.702086 -0.46127,-3.441074 -0.46127,-5.223882 0,-1.782808 0.184508,-3.521796 0.46127,-5.223882 m 63.244724,0 c 0.276762,1.702086 0.46127,3.441074 0.46127,5.223882 0,1.782808 -0.184508,3.521796 -0.46127,5.223882 l 4.195251,-1.79434 c 0.108398,-1.130111 0.177589,-2.271754 0.177589,-3.429542 0,-1.155481 -0.06919,-2.299431 -0.177589,-3.429542 l -4.195251,-1.79434 m -69.836272,2.822972 -5.597511,2.40091 5.597511,2.40091 c -0.05074,-0.797997 -0.117624,-1.589075 -0.117624,-2.40091 0,-0.811835 0.06688,-1.602913 0.117624,-2.40091 m 76.4555,0 c 0.0507,0.797997 0.11762,1.589075 0.11762,2.40091 0,0.811835 -0.0669,1.602913 -0.11762,2.40091 l 5.59751,-2.40091 -5.59751,-2.40091 m -61.065228,13.042408 -1.8889,4.723405 c 2.30635,3.805477 5.463743,7.03206 9.213867,9.426051 l 4.635764,-1.861224 C 47.567861,84.965766 43.310339,80.615991 40.897897,75.23297 m 45.681871,0 c -2.412442,5.380714 -6.669964,9.73049 -11.969956,12.288232 l 4.635763,1.861224 c 3.750125,-2.393991 6.900599,-5.620574 9.213868,-9.426051 L 86.570542,75.23297 m -48.894616,8.042242 -1.690554,4.218314 c 1.459919,1.764357 3.081283,3.388028 4.845641,4.845638 l 4.218314,-1.690552 C 42.205597,88.607493 39.71474,86.116635 37.67362,83.272906 m 52.118893,0 c -2.041119,2.843729 -4.531977,5.334587 -7.375707,7.375706 l 4.218314,1.690552 c 1.764358,-1.459917 3.388028,-3.081281 4.845641,-4.845638 l -1.690554,-4.218314 m -34.583716,5.235414 1.994993,4.658828 c 2.101085,0.48664 4.282891,0.77263 6.529276,0.77263 2.248691,0 4.428192,-0.28599 6.529277,-0.77263 l 1.994992,-4.658828 c -2.663834,0.961748 -5.526014,1.510659 -8.524269,1.510659 -3.000561,0 -5.862741,-0.548911 -8.524269,-1.510659 m -20.20593,1.439162 -2.246385,5.606736 0.01153,0.0115 5.606736,-2.24638 c -1.194689,-1.054 -2.329413,-2.179503 -3.37419,-3.374192 m 57.465012,0 c -1.054002,1.194689 -2.1795,2.329412 -3.37419,3.374192 l 5.606737,2.24638 0.01153,-0.0115 -2.244079,-5.606736 m -33.956388,6.264046 1.79434,4.195246 c 1.130111,0.1084 2.271755,0.17759 3.429542,0.17759 1.155481,0 2.299431,-0.0692 3.429542,-0.17759 l 1.794341,-4.195246 c -1.702087,0.27676 -3.441074,0.46127 -5.223883,0.46127 -1.782808,0 -3.521796,-0.18451 -5.223882,-0.46127 m 2.822972,6.603076 2.40091,5.59751 2.40091,-5.59751 c -0.797997,0.0507 -1.589075,0.11762 -2.40091,0.11762 -0.811835,0 -1.602913,-0.0669 -2.40091,-0.11762"
     id="path17"
     inkscape:connector-curvature="0"
     style="color:#bebebe;fill:#ffe8e1" />
</svg>
