<?xml version="1.0" encoding="UTF-8" standalone="no"?>
<!-- Created with Inkscape (http://www.inkscape.org/) -->

<svg
   xmlns:dc="http://purl.org/dc/elements/1.1/"
   xmlns:cc="http://creativecommons.org/ns#"
   xmlns:rdf="http://www.w3.org/1999/02/22-rdf-syntax-ns#"
   xmlns:svg="http://www.w3.org/2000/svg"
   xmlns="http://www.w3.org/2000/svg"
   xmlns:xlink="http://www.w3.org/1999/xlink"
   xmlns:sodipodi="http://sodipodi.sourceforge.net/DTD/sodipodi-0.dtd"
   xmlns:inkscape="http://www.inkscape.org/namespaces/inkscape"
   width="128"
   height="128"
   id="svg2"
   version="1.1"
   inkscape:version="0.91 r"
   viewBox="0 0 127.99999 128"
   sodipodi:docname="oggconvert.svg"
   inkscape:export-filename="/home/pacomaro/.icons/flattr/apps/22/banshee.png"
   inkscape:export-xdpi="41.25"
   inkscape:export-ydpi="41.25">
  <defs
     id="defs4">
    <linearGradient
       inkscape:collect="always"
       xlink:href="#2"
       id="linearGradient3355"
       x1="-4.5456901"
       y1="919.77966"
       x2="133.34013"
       y2="1056.6554"
       gradientUnits="userSpaceOnUse" />
    <linearGradient
       gradientTransform="matrix(2.4955507,0,0,2.4955507,240.71244,33.087543)"
       id="0"
       y1="17.279"
       x2="0"
       y2="-30.721"
       gradientUnits="userSpaceOnUse">
      <stop
         stop-color="#dc3c30"
         id="stop3341" />
      <stop
         offset="1"
         stop-color="#ff786d"
         id="stop3343" />
    </linearGradient>
    <linearGradient
       gradientUnits="userSpaceOnUse"
       y2="-30.891"
       x2="-49.554"
       y1="-5.178"
       x1="-48.953"
       id="0-9"
       gradientTransform="matrix(2.4307803,0,0,2.4307803,-70.562177,1004.2008)">
      <stop
         stop-color="#566069"
         id="stop3394" />
      <stop
         offset="1"
         stop-color="#6c7884"
         id="stop3396" />
    </linearGradient>
    <linearGradient
       gradientUnits="userSpaceOnUse"
       y2="-4.937"
       x2="42.36"
       y1="15.429"
       x1="43.691"
       id="1"
       gradientTransform="matrix(3.364542,0,0,3.364542,-81.095462,971.59124)">
      <stop
         stop-color="#d5dbff"
         id="stop3399" />
      <stop
         offset="1"
         stop-color="#f9ffff"
         id="stop3401" />
    </linearGradient>
    <linearGradient
       gradientUnits="userSpaceOnUse"
       y2="-26.783"
       x2="-56.38"
       y1="3.509"
       x1="-56.27"
       id="2"
       gradientTransform="matrix(2.4307759,0,0,2.4307759,-240.443,977.54047)">
      <stop
         stop-color="#197ff1"
         id="stop3404" />
      <stop
         offset="1"
         stop-color="#21c6fb"
         id="stop3406" />
    </linearGradient>
    <linearGradient
       gradientTransform="matrix(0,-1,1,0,-1.5e-6,47.999998)"
       gradientUnits="userSpaceOnUse"
       x2="47"
       x1="1"
       id="linearGradient3764">
      <stop
         id="stop7"
         stop-opacity="1"
         stop-color="#ed4141" />
      <stop
         id="stop9"
         stop-opacity="1"
         stop-color="#ef5353"
         offset="1" />
    </linearGradient>
    <clipPath
       id="clipPath-364739069">
      <g
         id="g12"
         transform="translate(0,-1004.3622)">
        <path
           style="fill:#1890d0"
           inkscape:connector-curvature="0"
           id="path14"
           transform="matrix(15.333333,0,0,11.5,414.99999,878.8622)"
           d="m -24,13 c 0,1.105 -0.672,2 -1.5,2 -0.828,0 -1.5,-0.895 -1.5,-2 0,-1.105 0.672,-2 1.5,-2 0.828,0 1.5,0.895 1.5,2 z" />
      </g>
    </clipPath>
    <clipPath
       id="clipPath-369902791">
      <g
         id="g17"
         transform="translate(0,-1004.3622)">
        <path
           style="fill:#1890d0"
           inkscape:connector-curvature="0"
           id="path19"
           transform="matrix(15.333333,0,0,11.5,414.99999,878.8622)"
           d="m -24,13 c 0,1.105 -0.672,2 -1.5,2 -0.828,0 -1.5,-0.895 -1.5,-2 0,-1.105 0.672,-2 1.5,-2 0.828,0 1.5,0.895 1.5,2 z" />
      </g>
    </clipPath>
  </defs>
  <sodipodi:namedview
     id="base"
     pagecolor="#ffffff"
     bordercolor="#666666"
     borderopacity="1.0"
     inkscape:pageopacity="0.0"
     inkscape:pageshadow="2"
     inkscape:zoom="1.979899"
     inkscape:cx="-19.589435"
     inkscape:cy="63.884983"
     inkscape:document-units="px"
     inkscape:current-layer="layer1"
     showgrid="false"
     borderlayer="true"
     inkscape:showpageshadow="false"
     units="px"
     inkscape:window-width="1366"
     inkscape:window-height="744"
     inkscape:window-x="0"
     inkscape:window-y="24"
     inkscape:window-maximized="1"
     showguides="false"
     inkscape:snap-global="false">
    <sodipodi:guide
       position="9.0000004,39.000018"
       orientation="29.999999,0"
       id="guide3266" />
    <sodipodi:guide
       position="9.0000004,9.0000182"
       orientation="0,30"
       id="guide3268" />
    <sodipodi:guide
       position="39.000001,9.0000182"
       orientation="-29.999999,0"
       id="guide3270" />
    <sodipodi:guide
       position="4.0000005,44.000017"
       orientation="39.999999,0"
       id="guide3276" />
    <sodipodi:guide
       position="4.0000005,4.0000183"
       orientation="0,40"
       id="guide3278" />
    <sodipodi:guide
       position="44.000001,4.0000183"
       orientation="-39.999999,0"
       id="guide3280" />
    <sodipodi:guide
       position="44.000001,44.000017"
       orientation="0,-40"
       id="guide3282" />
    <sodipodi:guide
       position="15,33.000018"
       orientation="18,0"
       id="guide4157" />
    <sodipodi:guide
       position="15,12"
       orientation="0,1"
       id="guide4159" />
    <sodipodi:guide
       position="33.000001,15.000018"
       orientation="-18,0"
       id="guide4161" />
    <sodipodi:guide
       position="33.000001,38"
       orientation="0,1"
       id="guide4163" />
    <inkscape:grid
       type="xygrid"
       id="grid3133"
       empspacing="5"
       visible="true"
       enabled="true"
       snapvisiblegridlinesonly="true" />
  </sodipodi:namedview>
  <metadata
     id="metadata7">
    <rdf:RDF>
      <cc:Work
         rdf:about="">
        <dc:format>image/svg+xml</dc:format>
        <dc:type
           rdf:resource="http://purl.org/dc/dcmitype/StillImage" />
        <dc:title />
      </cc:Work>
    </rdf:RDF>
  </metadata>
  <g
     inkscape:label="Capa 1"
     inkscape:groupmode="layer"
     id="layer1"
     transform="translate(0,-924.3622)">
    <rect
       style="fill:url(#linearGradient3355);fill-opacity:1.0;fill-rule:evenodd;stroke:none"
       id="rect3262"
       width="117.02413"
       height="117.02413"
       x="5.7474613"
       y="929.84302"
       ry="58.512066" />
    <path
       style="fill:url(#1)"
       inkscape:connector-curvature="0"
       d="m 63.596662,954.64707 a 35.215366,35.215366 0 0 0 -34.7288,35.69899 35.215366,35.215366 0 0 0 35.698972,34.72114 35.215366,35.215366 0 0 0 34.728784,-35.69128 35.215366,35.215366 0 0 0 -35.698956,-34.72885 M 53.22714,975.14045 79.164406,989.41967 53.832771,1004.7452 53.22714,975.14045 Z"
       id="path3414" />
    <g
       id="g33"
       transform="translate(147.38474,1008.5003)" />
    <g
       id="g51"
       transform="matrix(2.5757486,0,0,2.5757486,2.3267194,926.90463)"
       style="fill:#67737e;fill-opacity:1">
      <g
         clip-path="url(#clipPath-369902791)"
         id="g53"
         style="fill:#67737e;fill-opacity:1">
        <!-- color: #ef5353 -->
        <g
           id="g55"
           style="fill:#67737e;fill-opacity:1">
          <path
             d="M 23.988,9 C 15.726,9 9,15.699 9,23.984 c 0,8.289 6.727,15.01 14.988,15.01 8.262,0 15.01,-6.723 15.01,-15.01 C 38.998,15.695 32.248,9 23.988,9 m 0,2 c 7.211,0 13.02,5.809 13.02,12.984 0,7.176 -5.813,13.02 -13.02,13.02 -7.211,0 -12.996,-5.84 -12.996,-13.02 C 10.992,16.808 16.773,11 23.988,11 m 0,0"
             id="path57"
             inkscape:connector-curvature="0"
             style="fill:#67737e;fill-opacity:1;fill-rule:nonzero;stroke:none" />
          <path
             d="M 23.988,9 C 15.726,9 9,15.699 9,23.984 l 1.992,0 C 10.992,16.808 16.773,11 23.988,11 c 7.211,0 13.02,5.809 13.02,12.984 l 0,0.137 C 36.93,31.246 31.149,37 23.988,37 l 0,1.996 c 8.262,0 15.01,-6.723 15.01,-15.01 0,-8.289 -6.75,-14.977 -15.01,-14.977 m 0,0"
             id="path59"
             inkscape:connector-curvature="0"
             style="fill:#67737e;fill-opacity:1;fill-rule:nonzero;stroke:none" />
          <path
             d="M 9.563,20 C 9.211,21.273 9,22.617 9,24 c 0,1.727 0.305,3.395 0.844,4.938 l 0.156,0.063 6,-9 m -6.438,0"
             id="path61"
             inkscape:connector-curvature="0"
             style="fill:#67737e;fill-opacity:1;fill-rule:nonzero;stroke:none" />
        </g>
      </g>
    </g>
  </g>
</svg>
