<?xml version="1.0" encoding="UTF-8" standalone="no"?>
<!-- Created with Inkscape (http://www.inkscape.org/) -->

<svg
   xmlns:dc="http://purl.org/dc/elements/1.1/"
   xmlns:cc="http://creativecommons.org/ns#"
   xmlns:rdf="http://www.w3.org/1999/02/22-rdf-syntax-ns#"
   xmlns:svg="http://www.w3.org/2000/svg"
   xmlns="http://www.w3.org/2000/svg"
   xmlns:xlink="http://www.w3.org/1999/xlink"
   xmlns:sodipodi="http://sodipodi.sourceforge.net/DTD/sodipodi-0.dtd"
   xmlns:inkscape="http://www.inkscape.org/namespaces/inkscape"
   width="128"
   height="128"
   id="svg2"
   version="1.1"
   inkscape:version="0.91 r"
   sodipodi:docname="isomaster.svg">
  <defs
     id="defs4">
    <linearGradient
       inkscape:collect="always"
       id="linearGradient3349">
      <stop
         style="stop-color:#6bc1ff;stop-opacity:1;"
         offset="0"
         id="stop3351" />
      <stop
         id="stop3357"
         offset="0.45544782"
         style="stop-color:#87decd;stop-opacity:1" />
      <stop
         style="stop-color:#00aad4;stop-opacity:1"
         offset="0.68208575"
         id="stop3361" />
      <stop
         style="stop-color:#6bc1ff;stop-opacity:0;"
         offset="1"
         id="stop3353" />
    </linearGradient>
    <linearGradient
       gradientTransform="translate(-3.2958984e-7,-2.6329649e-5)"
       inkscape:collect="always"
       xlink:href="#linearGradient850"
       id="linearGradient1473"
       x1="23.864853"
       y1="-1052.4825"
       x2="23.864853"
       y2="-1004.4973"
       gradientUnits="userSpaceOnUse" />
    <style
       type="text/css"
       id="style2464" />
    <style
       id="style2464-7"
       type="text/css" />
    <linearGradient
       id="linearGradient850">
      <stop
         style="stop-color:#0768ad;stop-opacity:1"
         offset="0"
         id="stop852" />
      <stop
         style="stop-color:#0987e3;stop-opacity:1"
         offset="1"
         id="stop854" />
    </linearGradient>
    <style
       type="text/css"
       id="style2464-1" />
    <style
       id="style2464-7-1"
       type="text/css" />
    <linearGradient
       inkscape:collect="always"
       xlink:href="#linearGradient3349"
       id="linearGradient3355"
       x1="-4.071424"
       y1="923.32941"
       x2="145.31851"
       y2="1070.527"
       gradientUnits="userSpaceOnUse" />
    <style
       id="style2464-18"
       type="text/css" />
    <style
       type="text/css"
       id="style2464-7-7" />
    <style
       id="style2464-1-5"
       type="text/css" />
    <style
       type="text/css"
       id="style2464-7-1-0" />
    <linearGradient
       inkscape:collect="always"
       xlink:href="#linearGradient3863"
       id="linearGradient3907"
       gradientUnits="userSpaceOnUse"
       x1="-644.89142"
       y1="-262.48706"
       x2="-560.57697"
       y2="-260.20828" />
    <linearGradient
       inkscape:collect="always"
       id="linearGradient3863">
      <stop
         style="stop-color:#000000;stop-opacity:1;"
         offset="0"
         id="stop3865" />
      <stop
         style="stop-color:#000000;stop-opacity:0;"
         offset="1"
         id="stop3867" />
    </linearGradient>
    <linearGradient
       inkscape:collect="always"
       xlink:href="#linearGradient3863"
       id="linearGradient3445"
       gradientUnits="userSpaceOnUse"
       x1="-644.89142"
       y1="-262.48706"
       x2="-560.57697"
       y2="-260.20828" />
    <linearGradient
       inkscape:collect="always"
       xlink:href="#linearGradient3863"
       id="linearGradient3447"
       gradientUnits="userSpaceOnUse"
       x1="-644.89142"
       y1="-262.48706"
       x2="-560.57697"
       y2="-260.20828" />
    <linearGradient
       inkscape:collect="always"
       xlink:href="#linearGradient3863"
       id="linearGradient3449"
       gradientUnits="userSpaceOnUse"
       x1="-644.89142"
       y1="-262.48706"
       x2="-560.57697"
       y2="-260.20828" />
    <linearGradient
       inkscape:collect="always"
       xlink:href="#linearGradient3863"
       id="linearGradient3451"
       gradientUnits="userSpaceOnUse"
       x1="-644.89142"
       y1="-262.48706"
       x2="-560.57697"
       y2="-260.20828" />
    <linearGradient
       inkscape:collect="always"
       xlink:href="#linearGradient3863"
       id="linearGradient3453"
       gradientUnits="userSpaceOnUse"
       x1="-644.89142"
       y1="-262.48706"
       x2="-560.57697"
       y2="-260.20828" />
    <linearGradient
       inkscape:collect="always"
       xlink:href="#linearGradient3863"
       id="linearGradient3455"
       gradientUnits="userSpaceOnUse"
       x1="-644.89142"
       y1="-262.48706"
       x2="-560.57697"
       y2="-260.20828" />
    <linearGradient
       inkscape:collect="always"
       xlink:href="#linearGradient3863"
       id="linearGradient3457"
       gradientUnits="userSpaceOnUse"
       x1="-644.89142"
       y1="-262.48706"
       x2="-560.57697"
       y2="-260.20828" />
    <linearGradient
       inkscape:collect="always"
       xlink:href="#linearGradient3863"
       id="linearGradient3459"
       gradientUnits="userSpaceOnUse"
       x1="-644.89142"
       y1="-262.48706"
       x2="-560.57697"
       y2="-260.20828" />
  </defs>
  <sodipodi:namedview
     id="base"
     pagecolor="#ffffff"
     bordercolor="#666666"
     borderopacity="1.0"
     inkscape:pageopacity="0.0"
     inkscape:pageshadow="2"
     inkscape:zoom="3.1929861"
     inkscape:cx="151.63646"
     inkscape:cy="61.217737"
     inkscape:document-units="px"
     inkscape:current-layer="layer1"
     showgrid="false"
     inkscape:window-width="1366"
     inkscape:window-height="744"
     inkscape:window-x="0"
     inkscape:window-y="24"
     inkscape:window-maximized="1">
    <inkscape:grid
       type="xygrid"
       id="grid3964"
       empspacing="5"
       visible="true"
       enabled="true"
       snapvisiblegridlinesonly="true" />
  </sodipodi:namedview>
  <metadata
     id="metadata7">
    <rdf:RDF>
      <cc:Work
         rdf:about="">
        <dc:format>image/svg+xml</dc:format>
        <dc:type
           rdf:resource="http://purl.org/dc/dcmitype/StillImage" />
        <dc:title></dc:title>
      </cc:Work>
    </rdf:RDF>
  </metadata>
  <g
     inkscape:label="Capa 1"
     inkscape:groupmode="layer"
     id="layer1"
     transform="translate(0,-924.3622)">
    <text
       xml:space="preserve"
       style="font-size:38.09560013px;font-style:italic;font-variant:normal;font-weight:bold;font-stretch:normal;line-height:125%;letter-spacing:0px;word-spacing:0px;fill:#000000;fill-opacity:1;stroke:none;font-family:URW Chancery L;-inkscape-font-specification:URW Chancery L Bold Italic"
       x="16.042532"
       y="1027.6492"
       id="text3025"
       sodipodi:linespacing="125%"><tspan
         sodipodi:role="line"
         id="tspan3027"
         x="16.042532"
         y="1027.6492" /></text>
    <path
       inkscape:connector-curvature="0"
       id="path1489"
       d="m 64.087866,927.48055 c -33.575995,0 -60.7947236,27.21846 -60.7947236,60.79416 0,33.57509 27.2187286,60.79419 60.7947236,60.79419 33.575996,0 60.794724,-27.2191 60.794724,-60.79419 0,-33.5757 -27.218728,-60.79416 -60.794724,-60.79416 z m 0,54.26243 c 3.597436,0 6.530681,2.93363 6.530681,6.53173 0,3.5978 -2.933245,6.53111 -6.530681,6.53111 -3.597435,0 -6.53068,-2.93331 -6.53068,-6.53111 0,-3.5981 2.933245,-6.53173 6.53068,-6.53173 z"
       style="fill:#0080dc;fill-opacity:1;stroke:none" />
    <path
       inkscape:connector-curvature="0"
       id="path1491"
       d="m 64.087866,929.38007 c -32.526746,0 -58.8948914,26.36703 -58.8948914,58.89464 0,32.52699 26.3681454,58.89429 58.8948914,58.89429 32.52675,0 58.894894,-26.3673 58.894894,-58.89429 0,-32.52761 -26.368144,-58.89464 -58.894894,-58.89464 z m 0,52.36291 c 3.597436,0 6.530681,2.93363 6.530681,6.53173 0,3.5978 -2.933245,6.53111 -6.530681,6.53111 -3.597435,0 -6.53068,-2.93331 -6.53068,-6.53111 0,-3.5981 2.933245,-6.53173 6.53068,-6.53173 z"
       style="fill:#80b3ff;fill-opacity:1;stroke:none" />
    <path
       inkscape:connector-curvature="0"
       id="path1493"
       d="m 64.087866,932.34804 c -30.87793,0 -55.926395,25.04932 -55.926395,55.92667 0,30.87699 25.048465,55.92669 55.926395,55.92669 30.87793,0 55.926404,-25.0497 55.926404,-55.92669 0,-30.87735 -25.048474,-55.92667 -55.926404,-55.92667 z m 0,49.39494 c 3.597436,0 6.530681,2.93363 6.530681,6.53173 0,3.5978 -2.933245,6.53111 -6.530681,6.53111 -3.597435,0 -6.53068,-2.93331 -6.53068,-6.53111 0,-3.5981 2.933245,-6.53173 6.53068,-6.53173 z"
       style="fill:url(#linearGradient3355);fill-opacity:1;stroke:none" />
    <path
       inkscape:connector-curvature="0"
       id="path1495"
       d="m 64.087867,970.34469 c -9.892931,0 -17.929698,8.03699 -17.929698,17.93002 0,9.89243 8.036767,17.92999 17.929698,17.92999 9.892934,0 17.929698,-8.03756 17.929698,-17.92999 0,-9.89303 -8.036764,-17.93002 -17.929698,-17.93002 z m 0,11.3983 c 3.597436,0 6.53068,2.93362 6.53068,6.53172 0,3.5978 -2.933244,6.53112 -6.53068,6.53112 -3.597436,0 -6.53068,-2.93332 -6.53068,-6.53112 0,-3.5981 2.933244,-6.53172 6.53068,-6.53172 z"
       style="fill:#d3d5d7;fill-opacity:1;stroke:#ffffff;stroke-width:1;stroke-opacity:1" />
    <path
       inkscape:connector-curvature="0"
       id="path1497"
       d="m 64.087866,974.14523 c -7.794426,0 -14.130018,6.33445 -14.130018,14.12948 0,7.79472 6.335592,14.12919 14.130018,14.12919 7.794427,0 14.130019,-6.33447 14.130019,-14.12919 0,-7.79503 -6.335592,-14.12948 -14.130019,-14.12948 z m 0,7.59775 c 3.597436,0 6.530681,2.93363 6.530681,6.53173 0,3.5978 -2.933245,6.53111 -6.530681,6.53111 -3.597435,0 -6.53068,-2.93331 -6.53068,-6.53111 0,-3.5981 2.933245,-6.53173 6.53068,-6.53173 z"
       style="fill:#e0e0e2;fill-opacity:1;stroke:none" />
    <text
       xml:space="preserve"
       style="font-style:italic;font-variant:normal;font-weight:bold;font-stretch:normal;font-size:38.09560013px;line-height:125%;font-family:'URW Chancery L';-inkscape-font-specification:'URW Chancery L Bold Italic';letter-spacing:0px;word-spacing:0px;fill:#000000;fill-opacity:1;stroke:none"
       x="204.69614"
       y="1040.6873"
       id="text3025-5"
       sodipodi:linespacing="125%"><tspan
         sodipodi:role="line"
         id="tspan3027-5"
         x="204.69614"
         y="1040.6873" /></text>
    <g
       transform="matrix(0.26251095,0,0,0.26251095,45.512102,919.34485)"
       id="layer1-0"
       inkscape:label="Layer 1">
      <g
         transform="matrix(0.28576251,0.12385218,-0.12385218,0.28576251,291.61294,369.81688)"
         id="g3871">
        <g
           id="g3835">
          <rect
             y="-653.38037"
             x="-627.90662"
             height="742.85712"
             width="111.42857"
             style="fill:#1a1a1a;fill-opacity:1;stroke:none"
             id="rect3800" />
          <path
             sodipodi:nodetypes="ccccc"
             inkscape:connector-curvature="0"
             id="rect3774"
             d="m -627.90663,94.011379 111.42858,0 -20,171.428551 -68.57144,0 z"
             style="fill:#1a1a1a;fill-opacity:1;stroke:none" />
          <path
             style="fill:#1a1a1a;fill-opacity:1;stroke:none"
             d="m -592.19234,269.97461 40.00001,0 -16.71853,102.85708 c 0,0 -16.70168,-78.51182 -23.28148,-102.85708 z"
             id="path3777"
             inkscape:connector-curvature="0"
             sodipodi:nodetypes="cccc" />
          <path
             sodipodi:nodetypes="ccccc"
             inkscape:connector-curvature="0"
             id="rect3779"
             d="m -551.01835,-797.0098 c -15.66834,-13.97123 -29.38257,-10.35545 -42.34795,0 l 0,137.9349 42.34795,0 z"
             style="fill:#1a1a1a;fill-opacity:1;stroke:none" />
          <g
             style="fill:#1a1a1a"
             transform="matrix(0.75036419,0,0,1,-591.83887,-340.10467)"
             id="g3786">
            <rect
               style="fill:#1a1a1a;fill-opacity:1;stroke:none"
               id="rect3782"
               width="28.514853"
               height="285.14853"
               x="146.57425"
               y="-312.35068" />
            <path
               sodipodi:type="star"
               style="fill:#1a1a1a;fill-opacity:1;stroke:none"
               id="path3784"
               sodipodi:sides="3"
               sodipodi:cx="435.86987"
               sodipodi:cy="-438.55719"
               sodipodi:r1="49.05204"
               sodipodi:r2="24.52602"
               sodipodi:arg1="0.72664234"
               sodipodi:arg2="1.7738399"
               inkscape:flatsided="true"
               inkscape:rounded="0"
               inkscape:randomized="0"
               d="m 472.53182,-405.96879 -83.21531,-17.13242 56.44477,-63.50036 z"
               inkscape:transform-center-x="5.4416768"
               inkscape:transform-center-y="0.092569673"
               transform="matrix(-0.08787783,-0.65147294,0.43946435,-0.13027229,362.83379,169.1921)" />
          </g>
          <rect
             transform="matrix(0,-1,-1,0,0,0)"
             style="fill:#1a1a1a;fill-opacity:1;stroke:none"
             id="rect3792"
             width="28.514853"
             height="23.473345"
             x="623.97729"
             y="487.90433" />
        </g>
        <g
           id="g3845"
           style="fill:url(#linearGradient3907);fill-opacity:1">
          <rect
             id="rect3847"
             style="fill:url(#linearGradient3445);fill-opacity:1;stroke:none"
             width="111.42857"
             height="742.85712"
             x="-627.90662"
             y="-653.38037" />
          <path
             style="fill:url(#linearGradient3447);fill-opacity:1;stroke:none"
             d="m -627.90663,94.011379 111.42858,0 -20,171.428551 -68.57144,0 z"
             id="path3849"
             inkscape:connector-curvature="0"
             sodipodi:nodetypes="ccccc" />
          <path
             sodipodi:nodetypes="cccc"
             inkscape:connector-curvature="0"
             id="path3851"
             d="m -592.19234,269.97461 40.00001,0 -16.71853,102.85708 c 0,0 -16.70168,-78.51182 -23.28148,-102.85708 z"
             style="fill:url(#linearGradient3449);fill-opacity:1;stroke:none" />
          <path
             style="fill:url(#linearGradient3451);fill-opacity:1;stroke:none"
             d="m -551.01835,-797.0098 c -15.66834,-13.97123 -29.38257,-10.35545 -42.34795,0 l 0,137.9349 42.34795,0 z"
             id="path3853"
             inkscape:connector-curvature="0"
             sodipodi:nodetypes="ccccc" />
          <g
             id="g3855"
             transform="matrix(0.75036419,0,0,1,-591.83887,-340.10467)"
             style="fill:url(#linearGradient3457);fill-opacity:1">
            <rect
               y="-312.35068"
               x="146.57425"
               height="285.14853"
               width="28.514853"
               id="rect3857"
               style="fill:url(#linearGradient3453);fill-opacity:1;stroke:none" />
            <path
               transform="matrix(-0.08787783,-0.65147294,0.43946435,-0.13027229,362.83379,169.1921)"
               inkscape:transform-center-y="0.092569673"
               inkscape:transform-center-x="5.4416768"
               d="m 472.53182,-405.96879 -83.21531,-17.13242 56.44477,-63.50036 z"
               inkscape:randomized="0"
               inkscape:rounded="0"
               inkscape:flatsided="true"
               sodipodi:arg2="1.7738399"
               sodipodi:arg1="0.72664234"
               sodipodi:r2="24.52602"
               sodipodi:r1="49.05204"
               sodipodi:cy="-438.55719"
               sodipodi:cx="435.86987"
               sodipodi:sides="3"
               id="path3859"
               style="fill:url(#linearGradient3455);fill-opacity:1;stroke:none"
               sodipodi:type="star" />
          </g>
          <rect
             y="487.90433"
             x="623.97729"
             height="23.473345"
             width="28.514853"
             id="rect3861"
             style="fill:url(#linearGradient3459);fill-opacity:1;stroke:none"
             transform="matrix(0,-1,-1,0,0,0)" />
        </g>
      </g>
    </g>
  </g>
</svg>
