<?xml version="1.0" encoding="UTF-8" standalone="no"?>
<svg
   xmlns:dc="http://purl.org/dc/elements/1.1/"
   xmlns:cc="http://creativecommons.org/ns#"
   xmlns:rdf="http://www.w3.org/1999/02/22-rdf-syntax-ns#"
   xmlns:svg="http://www.w3.org/2000/svg"
   xmlns="http://www.w3.org/2000/svg"
   xmlns:sodipodi="http://sodipodi.sourceforge.net/DTD/sodipodi-0.dtd"
   xmlns:inkscape="http://www.inkscape.org/namespaces/inkscape"
   viewBox="0 0 128 128"
   id="svg2"
   version="1.1"
   inkscape:version="0.91 r"
   sodipodi:docname="onedrive.svg"
   width="128"
   height="128">
  <metadata
     id="metadata31">
    <rdf:RDF>
      <cc:Work
         rdf:about="">
        <dc:format>image/svg+xml</dc:format>
        <dc:type
           rdf:resource="http://purl.org/dc/dcmitype/StillImage" />
        <dc:title></dc:title>
      </cc:Work>
    </rdf:RDF>
  </metadata>
  <sodipodi:namedview
     pagecolor="#ffffff"
     bordercolor="#666666"
     borderopacity="1"
     objecttolerance="10"
     gridtolerance="10"
     guidetolerance="10"
     inkscape:pageopacity="0"
     inkscape:pageshadow="2"
     inkscape:window-width="1366"
     inkscape:window-height="744"
     id="namedview29"
     showgrid="false"
     inkscape:zoom="2.4583333"
     inkscape:cx="29.324485"
     inkscape:cy="54.211769"
     inkscape:window-x="0"
     inkscape:window-y="24"
     inkscape:window-maximized="1"
     inkscape:current-layer="svg2" />
  <defs
     id="defs4">
    <clipPath
       id="clipPath6">
      <path
         transform="matrix(15.33333,0,0,11.5,415,-125.5)"
         d="m -24,13 c 0,1.105 -0.672,2 -1.5,2 -0.828,0 -1.5,-0.895 -1.5,-2 0,-1.105 0.672,-2 1.5,-2 0.828,0 1.5,0.895 1.5,2"
         id="path8"
         inkscape:connector-curvature="0"
         style="fill:#1890d0" />
    </clipPath>
    <clipPath
       id="clipPath10">
      <path
         d="m 69.63,12.145 -0.052,0 c -22.727,-0.292 -46.47,4.077 -46.709,4.122 -2.424,0.451 -4.946,2.974 -5.397,5.397 -0.044,0.237 -4.414,23.983 -4.122,46.71 -0.292,22.777 4.078,46.523 4.122,46.761 0.451,2.423 2.974,4.945 5.398,5.398 0.237,0.044 23.982,4.413 46.709,4.121 22.779,0.292 46.524,-4.077 46.761,-4.121 2.423,-0.452 4.946,-2.976 5.398,-5.399 0.044,-0.236 4.413,-23.981 4.121,-46.709 0.292,-22.777 -4.077,-46.523 -4.121,-46.761 -0.453,-2.423 -2.976,-4.946 -5.398,-5.397 -0.238,-0.045 -23.984,-4.414 -46.71,-4.122"
         id="path12"
         inkscape:connector-curvature="0" />
    </clipPath>
    <clipPath
       id="clipPath14">
      <path
         transform="matrix(15.33333,0,0,11.5,415,-125.5)"
         d="m -24,13 c 0,1.105 -0.672,2 -1.5,2 -0.828,0 -1.5,-0.895 -1.5,-2 0,-1.105 0.672,-2 1.5,-2 0.828,0 1.5,0.895 1.5,2"
         id="path16"
         inkscape:connector-curvature="0"
         style="fill:#1890d0" />
    </clipPath>
    <linearGradient
       id="0"
       x1="-10.767"
       y1="4.6750002"
       x2="-11.233"
       y2="-22.851"
       gradientUnits="userSpaceOnUse"
       gradientTransform="matrix(1.77384,0,0,1.71427,42.46,39.38)">
      <stop
         stop-color="#155bc2"
         id="stop19" />
      <stop
         stop-color="#369dff"
         offset="1"
         id="stop21" />
    </linearGradient>
  </defs>
  <g
     id="g23"
     style="enable-background:new"
     transform="matrix(2.3644067,0,0,2.3644067,6.9152542,8)">
    <rect
       height="48"
       width="48"
       rx="3.085"
       id="rect25"
       x="0"
       y="0"
       style="fill:url(#0);stroke-width:1.71399999" />
  </g>
  <path
     d="m 67.791635,38.545771 c -2.877482,-0.0047 -5.282084,0.550907 -7.596838,1.759118 -2.144517,1.120729 -4.776103,3.321992 -6.06234,5.090569 -2.191804,2.990974 -2.075949,2.894033 -3.113923,2.463711 -3.26761,-1.359534 -7.048297,-1.598338 -10.051094,-0.631297 -5.563449,1.787492 -9.552203,7.358034 -9.783915,13.675729 -0.04256,1.016695 -0.156051,1.993195 -0.262449,2.175254 -0.106398,0.172603 -0.787348,0.48234 -1.508492,0.671492 -3.418931,0.896111 -6.142728,3.175398 -7.563737,6.331881 -0.673856,1.499034 -0.749517,1.986103 -0.749517,5.003085 0,3.170669 0.04966,3.433119 0.896111,5.225339 1.494304,3.161212 4.67916,5.929933 7.684322,6.672356 1.087627,0.267178 8.956372,0.349933 9.202271,0.09694 0.0993,-0.101671 -0.0662,-0.678585 -0.371213,-1.290967 -0.796804,-1.626711 -1.37372,-4.473457 -1.37372,-6.79294 -2.36e-4,-6.37917 3.688475,-11.363339 10.013263,-13.522043 2.042847,-0.6975 2.520457,-1.002508 2.520457,-1.617254 0,-0.867737 1.508493,-4.352873 2.69306,-6.223118 1.659813,-2.624492 3.856347,-4.641331 6.591966,-6.045788 6.844958,-3.511144 14.900491,-2.397508 19.835009,2.737983 l 1.752025,1.815864 1.917534,-0.517805 c 1.054525,-0.283729 2.262738,-0.527263 2.685966,-0.53672 0.964679,-0.01419 1.004873,-0.73533 0.184424,-3.28889 C 82.767788,43.806577 75.82589,38.569416 67.791635,38.5505 Z m -0.558,14.380321 c -3.409474,-0.01419 -4.835211,0.309739 -7.653584,1.778035 -2.69306,1.404458 -5.218246,4.837576 -6.580144,8.956372 -0.30028,0.905569 -0.543814,1.926992 -0.543814,2.269832 0,1.09472 -0.631296,1.567601 -2.693059,2.007381 -4.140077,0.884287 -7.289467,3.288889 -8.478763,6.473746 -0.484704,1.300423 -0.624204,2.26983 -0.621839,4.291397 0.0071,6.322424 2.879848,10.58545 8.031889,11.91661 1.071077,0.276636 7.268187,0.347569 26.757993,0.307374 l 25.365356,-0.04729 1.13728,-0.640755 c 2.42824,-1.352441 3.96038,-4.073872 4.21337,-7.483347 0.3854,-5.215881 -1.7402,-8.762491 -6.272769,-10.453043 L 98.304305,71.708943 98.136432,69.450934 C 97.488584,61.194426 89.45433,56.25518 81.396432,59.158671 L 79.727161,59.75923 77.873466,57.725841 C 74.494728,54.032635 72.07594,52.942644 67.233635,52.914271"
     id="path27"
     inkscape:connector-curvature="0"
     style="fill:#dfebfa" />
</svg>
