<?xml version="1.0" encoding="UTF-8" standalone="no"?>
<svg
   xmlns:dc="http://purl.org/dc/elements/1.1/"
   xmlns:cc="http://creativecommons.org/ns#"
   xmlns:rdf="http://www.w3.org/1999/02/22-rdf-syntax-ns#"
   xmlns:svg="http://www.w3.org/2000/svg"
   xmlns="http://www.w3.org/2000/svg"
   xmlns:sodipodi="http://sodipodi.sourceforge.net/DTD/sodipodi-0.dtd"
   xmlns:inkscape="http://www.inkscape.org/namespaces/inkscape"
   viewBox="0 0 128 128"
   id="svg2"
   version="1.1"
   inkscape:version="0.91 r"
   sodipodi:docname="openbravo-erp.svg"
   width="128"
   height="128">
  <metadata
     id="metadata32">
    <rdf:RDF>
      <cc:Work
         rdf:about="">
        <dc:format>image/svg+xml</dc:format>
        <dc:type
           rdf:resource="http://purl.org/dc/dcmitype/StillImage" />
        <dc:title></dc:title>
      </cc:Work>
    </rdf:RDF>
  </metadata>
  <sodipodi:namedview
     pagecolor="#ffffff"
     bordercolor="#666666"
     borderopacity="1"
     objecttolerance="10"
     gridtolerance="10"
     guidetolerance="10"
     inkscape:pageopacity="0"
     inkscape:pageshadow="2"
     inkscape:window-width="1366"
     inkscape:window-height="744"
     id="namedview30"
     showgrid="false"
     inkscape:zoom="2.4583333"
     inkscape:cx="74.956255"
     inkscape:cy="17.158295"
     inkscape:window-x="0"
     inkscape:window-y="24"
     inkscape:window-maximized="1"
     inkscape:current-layer="svg2" />
  <defs
     id="defs4">
    <linearGradient
       id="0"
       y1="1045.87"
       x2="0"
       y2="1006.87"
       gradientUnits="userSpaceOnUse">
      <stop
         stop-color="#d3d3d3"
         id="stop7" />
      <stop
         offset="1"
         stop-color="#fcf9f9"
         id="stop9" />
    </linearGradient>
    <linearGradient
       x1="0"
       x2="47"
       gradientUnits="userSpaceOnUse"
       id="linearGradient11">
      <stop
         stop-color="#a9a3d4"
         id="stop13" />
      <stop
         offset=".47"
         stop-color="#87baff"
         id="stop15" />
      <stop
         offset="1"
         stop-color="#89ec85"
         id="stop17" />
    </linearGradient>
    <linearGradient
       y2="36.609001"
       x2="56.818001"
       y1="81.489998"
       x1="56.580002"
       gradientUnits="userSpaceOnUse"
       id="1">
      <stop
         stop-color="#00a661"
         id="stop20" />
      <stop
         stop-color="#37ce97"
         offset="1"
         id="stop22" />
    </linearGradient>
  </defs>
  <g
     transform="matrix(2.9898306,0,0,2.9898306,12.289407,-3006.0277)"
     id="g24"
     style="stroke-width:1.31700003">
    <circle
       cx="17.386999"
       cy="1026.87"
       r="20"
       id="circle26"
       style="fill:url(#0)" />
    <path
       d="m 57.04,40.05 c -2.052,0 -4.03,0.33 -5.881,0.937 l 0,17.882 c 0,3.248 2.633,5.881 5.881,5.881 3.248,0 5.881,-2.633 5.881,-5.881 0,-3.248 -2.633,-5.881 -5.881,-5.881 l 0,-5.881 c 6.496,0 11.762,5.266 11.762,11.762 0,6.496 -5.266,11.762 -11.762,11.762 -6.496,0 -11.762,-5.266 -11.762,-11.762 l 0,-14.684 c -4.299,3.449 -7.06,8.743 -7.06,14.684 0,10.393 8.425,18.819 18.819,18.819 10.393,0 18.819,-8.425 18.819,-18.819 0,-10.393 -8.425,-18.819 -18.819,-18.819"
       transform="matrix(0.88564,0,0,0.88564,-33.13,974.73)"
       id="path28"
       inkscape:connector-curvature="0"
       style="color:#000000;fill:url(#1);stroke:none;stroke-width:0.94099998;stroke-linecap:round;stroke-linejoin:round" />
  </g>
</svg>
