<?xml version="1.0" encoding="UTF-8" standalone="no"?>
<svg
   xmlns:dc="http://purl.org/dc/elements/1.1/"
   xmlns:cc="http://creativecommons.org/ns#"
   xmlns:rdf="http://www.w3.org/1999/02/22-rdf-syntax-ns#"
   xmlns:svg="http://www.w3.org/2000/svg"
   xmlns="http://www.w3.org/2000/svg"
   xmlns:sodipodi="http://sodipodi.sourceforge.net/DTD/sodipodi-0.dtd"
   xmlns:inkscape="http://www.inkscape.org/namespaces/inkscape"
   viewBox="0 0 128 128"
   id="svg2"
   version="1.1"
   inkscape:version="0.91 r"
   sodipodi:docname="package_edutainment_science.svg"
   width="128"
   height="128">
  <metadata
     id="metadata17">
    <rdf:RDF>
      <cc:Work
         rdf:about="">
        <dc:format>image/svg+xml</dc:format>
        <dc:type
           rdf:resource="http://purl.org/dc/dcmitype/StillImage" />
        <dc:title></dc:title>
      </cc:Work>
    </rdf:RDF>
  </metadata>
  <sodipodi:namedview
     pagecolor="#ffffff"
     bordercolor="#666666"
     borderopacity="1"
     objecttolerance="10"
     gridtolerance="10"
     guidetolerance="10"
     inkscape:pageopacity="0"
     inkscape:pageshadow="2"
     inkscape:window-width="1366"
     inkscape:window-height="744"
     id="namedview15"
     showgrid="false"
     units="px"
     width="128in"
     inkscape:zoom="3.4766083"
     inkscape:cx="49.812246"
     inkscape:cy="70.106112"
     inkscape:window-x="0"
     inkscape:window-y="24"
     inkscape:window-maximized="1"
     inkscape:current-layer="svg2" />
  <defs
     id="defs4">
    <linearGradient
       id="0"
       x1="25.07"
       y1="47.785"
       x2="24.643"
       y2="-0.428"
       gradientUnits="userSpaceOnUse"
       gradientTransform="matrix(2.4921152,0,0,2.4921152,4.6021865,4.3515587)">
      <stop
         stop-color="#841ac8"
         id="stop7" />
      <stop
         stop-color="#b92ff5"
         offset="1"
         id="stop9" />
    </linearGradient>
  </defs>
  <circle
     cx="64.412949"
     cy="64.162331"
     r="59.810764"
     id="circle11"
     style="fill:url(#0)" />
  <path
     d="m 100.74518,38.216911 c -0.73822,-2.796153 -3.598238,-4.46587 -6.393963,-3.728204 -2.800484,0.735174 -4.469822,3.596122 -3.73398,6.394767 0.347679,1.313345 1.162105,2.372494 2.221815,3.057826 -0.254806,3.842842 -1.400245,8.525526 -4.786546,12.620071 C 78.527044,45.680796 74.488248,41.239847 72.623639,39.44054 c 0.99541,-0.630505 1.836031,-1.02426 2.381366,-1.246058 1.259742,1.049181 2.986231,1.497762 4.69129,1.049181 2.793341,-0.735174 4.46506,-3.601106 3.726835,-6.394767 -0.740604,-2.798646 -3.605387,-4.470855 -6.398726,-3.735681 -2.097986,0.550757 -3.560145,2.300222 -3.853051,4.316343 -3.943542,1.674702 -17.405402,9.126126 -15.397908,32.345163 -14.743035,0.428644 -22.496763,4.331296 -26.023564,6.878237 -0.9073,-0.284101 -1.900331,-0.331451 -2.888597,-0.07477 -2.795724,0.74265 -4.465061,3.601107 -3.7316,6.402244 0.738224,2.798645 3.600625,4.468362 6.396347,3.725712 2.305162,-0.603092 3.843524,-2.659087 3.898296,-4.926911 l 15.412197,16.178816 c -0.361967,0.22429 -0.716789,0.431136 -1.062087,0.613061 -1.228785,-0.89467 -2.833826,-1.251042 -4.419816,-0.839844 -2.795722,0.737667 -4.46744,3.601108 -3.731598,6.399734 0.738222,2.79865 3.600622,4.47085 6.398728,3.7307 2.18133,-0.57318 3.669683,-2.44476 3.874481,-4.568041 7.215538,-3.58116 13.180859,-12.378328 11.623446,-28.422565 4.626994,-0.02492 8.89202,-0.543281 12.723637,-1.550095 5.729564,-1.507731 10.492296,-4.08707 14.100066,-7.688176 4.550789,-4.550602 7.144096,-10.511741 7.591792,-17.362565 2.219427,-1.066626 3.450597,-3.586155 2.798107,-6.055841 M 52.891644,92.388019 36.810282,75.508922 c 1.03113,-0.560726 2.309924,-1.161326 3.886389,-1.737004 l 15.064517,15.01001 c -0.862052,1.482808 -1.85032,2.664071 -2.869544,3.606091 M 56.942346,86.339655 43.447148,72.892202 c 2.074168,-0.580663 4.529358,-1.096531 7.406046,-1.455396 l 7.720388,7.366693 c -0.226233,3.002998 -0.814428,5.487637 -1.631236,7.536156 M 54.208539,71.085418 c 1.314512,-0.09969 2.70285,-0.174448 4.169771,-0.19937 0.17385,1.587479 0.264332,3.070287 0.288146,4.458395 l -4.457917,-4.25404 m 8.715798,-5.330635 c -0.335772,-3.523851 -0.283383,-6.62155 0.04525,-9.335463 l 7.537023,8.839532 c -2.37184,0.343912 -4.905614,0.510884 -7.582268,0.495931 M 73.428553,64.742985 63.536361,53.144681 c 0.528662,-2.292745 1.264504,-4.254041 2.124176,-5.931234 3.212464,3.469025 9.180166,10.20272 13.902414,15.573228 -1.876517,0.819905 -3.926873,1.472839 -6.134398,1.95631 m 8.506236,-3.13508 C 73.561908,52.060611 69.28974,47.295686 67.010773,44.915717 c 1.140674,-1.674702 2.37422,-2.978078 3.550617,-3.96994 2.017015,1.993693 9.844564,10.803319 15.721774,17.492156 -1.274031,1.193724 -2.733808,2.25038 -4.348375,3.162495"
     id="path13"
     inkscape:connector-curvature="0"
     style="opacity:0.9;fill:#ffffff;fill-opacity:0.85" />
</svg>
