<?xml version="1.0" encoding="UTF-8" standalone="no"?>
<svg
   xmlns:dc="http://purl.org/dc/elements/1.1/"
   xmlns:cc="http://creativecommons.org/ns#"
   xmlns:rdf="http://www.w3.org/1999/02/22-rdf-syntax-ns#"
   xmlns:svg="http://www.w3.org/2000/svg"
   xmlns="http://www.w3.org/2000/svg"
   xmlns:sodipodi="http://sodipodi.sourceforge.net/DTD/sodipodi-0.dtd"
   xmlns:inkscape="http://www.inkscape.org/namespaces/inkscape"
   viewBox="0 0 128 128"
   id="svg2"
   version="1.1"
   inkscape:version="0.91 r"
   sodipodi:docname="package_edutainment_astronomy.svg"
   width="128"
   height="128">
  <metadata
     id="metadata25">
    <rdf:RDF>
      <cc:Work
         rdf:about="">
        <dc:format>image/svg+xml</dc:format>
        <dc:type
           rdf:resource="http://purl.org/dc/dcmitype/StillImage" />
        <dc:title></dc:title>
      </cc:Work>
    </rdf:RDF>
  </metadata>
  <sodipodi:namedview
     pagecolor="#ffffff"
     bordercolor="#666666"
     borderopacity="1"
     objecttolerance="10"
     gridtolerance="10"
     guidetolerance="10"
     inkscape:pageopacity="0"
     inkscape:pageshadow="2"
     inkscape:window-width="1366"
     inkscape:window-height="744"
     id="namedview23"
     showgrid="false"
     inkscape:zoom="2.4583333"
     inkscape:cx="89.968274"
     inkscape:cy="24.90259"
     inkscape:window-x="0"
     inkscape:window-y="24"
     inkscape:window-maximized="1"
     inkscape:current-layer="svg2" />
  <defs
     id="defs4">
    <linearGradient
       id="0"
       x1="25.07"
       y1="47.785"
       x2="24.643"
       y2="-0.428"
       gradientUnits="userSpaceOnUse"
       gradientTransform="matrix(2.5084746,0,0,2.5084746,3.661017,3.5254237)">
      <stop
         stop-color="#1d477c"
         id="stop7" />
      <stop
         stop-color="#2763b9"
         offset="1"
         id="stop9" />
    </linearGradient>
  </defs>
  <circle
     cx="63.864407"
     cy="63.728817"
     r="60.203388"
     id="circle11"
     style="fill:url(#0)" />
  <g
     transform="matrix(2.0905376,0,0,2.0905376,55.142441,29.054169)"
     id="g13"
     style="fill:#ffffff;fill-opacity:0.84600004">
    <path
       d="m 1.299,32.19 c -8.233,0 -14.931,-6.698 -14.931,-14.931 0,-5.702 3.174,-10.826 8.285,-13.37 0.23,-0.114 0.507,-0.07 0.688,0.111 0.181,0.181 0.228,0.458 0.115,0.687 -0.932,1.895 -1.405,3.932 -1.405,6.05 0,7.575 6.162,13.737 13.736,13.737 2.145,0 4.202,-0.484 6.115,-1.436 0.23,-0.114 0.506,-0.07 0.687,0.111 0.182,0.181 0.228,0.458 0.114,0.687 -2.532,5.151 -7.667,8.351 -13.403,8.351"
       id="path15"
       inkscape:connector-curvature="0"
       style="fill:#ffffff;fill-opacity:0.78500001" />
    <path
       d="M 10.477,0.988 9.263,4.226 6.977,4.988 9.263,5.75 10.477,8.988 11.69,5.75 13.977,4.988 11.691,4.226"
       id="path17"
       inkscape:connector-curvature="0" />
    <path
       d="m 14.477,16.988 1.214,-3.238 2.286,-0.762 -2.286,-0.762 -1.214,-3.238 -1.214,3.238 -2.286,0.762 2.286,0.762 z"
       id="path19"
       inkscape:connector-curvature="0" />
    <path
       d="M 18.61,7.559 19.477,9.988 20.344,7.559 21.977,6.988 20.344,6.417 19.477,3.988 18.61,6.417 16.977,6.988"
       id="path21"
       inkscape:connector-curvature="0" />
  </g>
</svg>
