<?xml version="1.0" encoding="UTF-8" standalone="no"?>
<svg
   xmlns:dc="http://purl.org/dc/elements/1.1/"
   xmlns:cc="http://creativecommons.org/ns#"
   xmlns:rdf="http://www.w3.org/1999/02/22-rdf-syntax-ns#"
   xmlns:svg="http://www.w3.org/2000/svg"
   xmlns="http://www.w3.org/2000/svg"
   xmlns:sodipodi="http://sodipodi.sourceforge.net/DTD/sodipodi-0.dtd"
   xmlns:inkscape="http://www.inkscape.org/namespaces/inkscape"
   viewBox="0 0 128 128"
   id="svg2"
   version="1.1"
   inkscape:version="0.91 r"
   sodipodi:docname="package_administration.svg"
   width="128"
   height="128">
  <metadata
     id="metadata19">
    <rdf:RDF>
      <cc:Work
         rdf:about="">
        <dc:format>image/svg+xml</dc:format>
        <dc:type
           rdf:resource="http://purl.org/dc/dcmitype/StillImage" />
        <dc:title></dc:title>
      </cc:Work>
    </rdf:RDF>
  </metadata>
  <sodipodi:namedview
     pagecolor="#ffffff"
     bordercolor="#666666"
     borderopacity="1"
     objecttolerance="10"
     gridtolerance="10"
     guidetolerance="10"
     inkscape:pageopacity="0"
     inkscape:pageshadow="2"
     inkscape:window-width="1366"
     inkscape:window-height="744"
     id="namedview17"
     showgrid="false"
     inkscape:zoom="2.4583333"
     inkscape:cx="64.165647"
     inkscape:cy="51.300932"
     inkscape:window-x="0"
     inkscape:window-y="24"
     inkscape:window-maximized="1"
     inkscape:current-layer="svg2" />
  <defs
     id="defs4">
    <linearGradient
       id="0"
       y1="653.96002"
       x2="0"
       y2="301.29999"
       gradientUnits="userSpaceOnUse">
      <stop
         stop-color="#0a80fd"
         id="stop7" />
      <stop
         offset="1"
         stop-color="#56c5fa"
         id="stop9" />
    </linearGradient>
  </defs>
  <g
     id="g11"
     style="fill:#ffffff"
     transform="matrix(2.4998743,0,0,2.4998743,4.0808018,3.9510802)">
    <circle
       r="173.45"
       cy="478.75"
       cx="-325.89001"
       transform="matrix(0.13838,0,0,0.13838,69.09,-42.26)"
       id="circle13"
       style="fill:url(#0)" />
  </g>
  <path
     d="M 93.483808,86.796916 71.992389,65.305496 c -0.20249,-0.20249 -0.417479,-0.382481 -0.637468,-0.549972 l 3.807308,-4.007299 c 0.194991,-0.19499 0.377481,-0.40248 0.547473,-0.614969 5.049746,1.904904 10.981948,0.834958 15.049243,-3.227338 2.962352,-2.962351 4.457276,-7.062145 4.094795,-11.244435 -0.04,-0.472476 -0.352483,-0.882455 -0.79746,-1.044947 -0.447478,-0.162492 -0.947453,-0.0525 -1.284936,0.282486 l -6.887154,6.887153 -6.972149,-1.757411 -1.977401,-7.194639 6.884654,-6.887153 c 0.337483,-0.337483 0.447478,-0.837458 0.284986,-1.284936 -0.162492,-0.447477 -0.569971,-0.757462 -1.044948,-0.79996 -4.182289,-0.359982 -8.279583,1.132443 -11.244434,4.097294 -4.057296,4.057297 -5.132242,9.984499 -3.227338,15.024245 -0.20749,0.174992 -0.412479,0.362482 -0.614969,0.559972 l -5.602219,5.37973 -10.286983,-10.286983 c -0.127493,-0.129994 -0.264986,-0.242488 -0.407479,-0.347483 0.119994,-0.212489 0.237488,-0.429978 0.347482,-0.654967 2.172391,0.417479 6.144692,-3.812308 9.517022,-7.184639 l -9.827006,-9.829506 c -4.394779,4.394779 -7.604618,7.344631 -7.187139,9.517022 -1.004949,0.489975 -1.899904,1.089945 -2.537372,1.727413 l -1.384931,1.384931 c -0.899954,0.899954 -1.439927,2.019898 -1.634917,3.18484 -0.134994,0.152492 -0.269987,0.314984 -0.40748,0.487475 l -0.514974,0.647467 c -0.015,0.015 -0.06,0.08 -0.07,0.095 l -0.467476,0.654967 c -0.292485,0.38998 -0.547473,0.814959 -0.79496,1.222438 -0.09,0.152493 -0.184991,0.304985 -0.279986,0.454977 -0.015,2.5e-4 -0.03,0.0525 -0.0425,0.0775 l -0.207489,0.39248 c -0.249988,0.469976 -0.512475,0.957452 -0.734964,1.494925 l -0.035,0.08499 c -0.262487,0.624969 -0.534973,1.272436 -0.724963,1.957402 l -0.0925,0.297485 c -0.075,0.244988 -0.152492,0.487476 -0.222489,0.777461 l -0.18999,0.944953 c -0.142493,0.59247 -0.18999,1.17494 -0.232488,1.692414 l -0.0275,0.339983 c -0.07,0.534973 -0.05,1.039948 -0.03,1.487426 0.0075,0.149992 0.0125,0.294985 0.0175,0.492475 0.005,0.0825 0.005,0.162492 0.0075,0.242488 0.005,0.19999 0.01,0.424978 0.0475,0.662466 l 0.119994,0.767462 c 2.5e-4,0.147492 0.0475,0.292485 0.0675,0.429978 0.045,0.312484 0.0925,0.634968 0.18499,0.939953 l 0.502475,1.744912 c 0.154992,0.529974 0.657467,0.879956 1.209939,0.842458 0.292485,-0.02 0.554972,-0.147493 0.749962,-0.342483 0.174992,-0.174991 0.294986,-0.40248 0.332484,-0.662467 l 0.259987,-1.772411 c 0.02,-0.139992 0.08,-0.347482 0.142493,-0.564971 0.045,-0.152492 0.0875,-0.304985 0.122493,-0.437478 l 0.184991,-0.662467 c 0.0225,-0.09 0.0675,-0.177491 0.104995,-0.267486 0.0375,-0.0825 0.0725,-0.167492 0.107494,-0.252488 0.0625,-0.139993 0.119994,-0.282486 0.177491,-0.424978 0.114995,-0.282486 0.222489,-0.549973 0.387481,-0.80996 0.0725,-0.119994 0.137493,-0.239988 0.20499,-0.362481 0.172491,-0.307485 0.334983,-0.59747 0.529973,-0.839958 0.0125,-0.015 0.0225,-0.03 0.035,-0.0475 L 39.829,57.615882 c 0.09,-0.112494 0.189991,-0.219988 0.287486,-0.327483 0.07,-0.075 0.139993,-0.152492 0.227488,-0.252487 0.257487,-0.309985 0.562472,-0.582471 0.854957,-0.847458 l 0.157493,-0.139993 c 0.217489,-0.20249 0.467476,-0.38998 0.732463,-0.58997 0.107494,-0.08 0.212489,-0.159992 0.317484,-0.239988 0.132493,-0.0875 0.262487,-0.172491 0.38998,-0.257487 0.237488,-0.159992 0.444978,-0.299985 0.682466,-0.424979 l 0.517474,-0.294985 0.524973,-0.257487 c 0.182491,-0.09499 0.362482,-0.167492 0.529974,-0.234988 0.0975,-0.04 0.19499,-0.08 0.287485,-0.119994 0.0925,-0.0325 0.179991,-0.0675 0.264987,-0.09749 0.112494,-0.04 0.209989,-0.08 0.339983,-0.114994 l 0.142493,-0.0325 c 0.154992,0.249988 0.334983,0.487476 0.552472,0.702465 L 56.815652,64.263048 35.091743,85.1295 c -0.0075,0.0075 -0.0175,0.0175 -2.5e-4,2.5e-4 -2.702364,2.702364 -3.142342,6.662165 -0.439977,9.367029 2.704864,2.702364 6.412177,2.009894 9.114541,-0.692465 0.0125,-0.0125 0.0225,-0.0225 0.0325,-0.035 L 62.962593,73.595329 c 0.112494,0.132494 0.222488,0.264987 0.347482,0.389981 l 21.48892,21.491419 c 2.407379,2.409884 6.314683,2.409884 8.722062,0 2.407379,-2.407379 2.407379,-6.312182 0,-8.719561 m -52.572358,4.824757 c -0.99495,0.99745 -2.609869,0.99745 -3.607319,0 -0.99495,-0.99495 -0.99495,-2.609869 0,-3.604819 0.99495,-0.99495 2.609869,-0.99495 3.607319,0 0.99495,0.99495 0.99495,2.609869 0,3.604819"
     id="path15"
     inkscape:connector-curvature="0"
     style="fill:#ddefff" />
</svg>
