<?xml version="1.0" encoding="UTF-8" standalone="no"?>
<svg
   xmlns:dc="http://purl.org/dc/elements/1.1/"
   xmlns:cc="http://creativecommons.org/ns#"
   xmlns:rdf="http://www.w3.org/1999/02/22-rdf-syntax-ns#"
   xmlns:svg="http://www.w3.org/2000/svg"
   xmlns="http://www.w3.org/2000/svg"
   xmlns:xlink="http://www.w3.org/1999/xlink"
   xmlns:sodipodi="http://sodipodi.sourceforge.net/DTD/sodipodi-0.dtd"
   xmlns:inkscape="http://www.inkscape.org/namespaces/inkscape"
   viewBox="0 0 128 128"
   id="svg2"
   version="1.1"
   inkscape:version="0.91 r"
   sodipodi:docname="pcsx-icon.svg"
   width="128"
   height="128">
  <metadata
     id="metadata32">
    <rdf:RDF>
      <cc:Work
         rdf:about="">
        <dc:format>image/svg+xml</dc:format>
        <dc:type
           rdf:resource="http://purl.org/dc/dcmitype/StillImage" />
        <dc:title></dc:title>
      </cc:Work>
    </rdf:RDF>
  </metadata>
  <sodipodi:namedview
     pagecolor="#ffffff"
     bordercolor="#666666"
     borderopacity="1"
     objecttolerance="10"
     gridtolerance="10"
     guidetolerance="10"
     inkscape:pageopacity="0"
     inkscape:pageshadow="2"
     inkscape:window-width="1366"
     inkscape:window-height="744"
     id="namedview30"
     showgrid="false"
     inkscape:zoom="3.4766083"
     inkscape:cx="48.416399"
     inkscape:cy="54.4841"
     inkscape:window-x="0"
     inkscape:window-y="24"
     inkscape:window-maximized="1"
     inkscape:current-layer="svg2" />
  <defs
     id="defs4">
    <linearGradient
       xlink:href="#0"
       id="3"
       x1="90.720001"
       y1="1035.16"
       x2="155.06"
       y2="818.41998"
       gradientUnits="userSpaceOnUse" />
    <linearGradient
       xlink:href="#0"
       id="2"
       y1="543.79999"
       x2="0"
       y2="507.79999"
       gradientUnits="userSpaceOnUse" />
    <linearGradient
       id="0">
      <stop
         stop-color="#197ff1"
         id="stop9" />
      <stop
         offset="1"
         stop-color="#21c6fb"
         id="stop11" />
    </linearGradient>
    <linearGradient
       id="1"
       y1="542.04999"
       x2="0"
       y2="507.04999"
       gradientUnits="userSpaceOnUse">
      <stop
         stop-color="#1d1e1e"
         id="stop14" />
      <stop
         offset="1"
         stop-color="#44484c"
         id="stop16" />
    </linearGradient>
    <linearGradient
       inkscape:collect="always"
       xlink:href="#0"
       id="linearGradient3360"
       gradientUnits="userSpaceOnUse"
       x1="90.720001"
       y1="1035.16"
       x2="155.06"
       y2="818.41998" />
    <linearGradient
       inkscape:collect="always"
       xlink:href="#0"
       id="linearGradient3362"
       gradientUnits="userSpaceOnUse"
       x1="90.720001"
       y1="1035.16"
       x2="155.06"
       y2="818.41998" />
    <linearGradient
       inkscape:collect="always"
       xlink:href="#0"
       id="linearGradient3364"
       gradientUnits="userSpaceOnUse"
       x1="90.720001"
       y1="1035.16"
       x2="155.06"
       y2="818.41998" />
  </defs>
  <g
     transform="matrix(2.8755189,0,0,2.8755189,-1101.3899,-1444.9044)"
     id="g18">
    <circle
       cx="405.28"
       cy="524.79999"
       r="20"
       id="circle20"
       style="fill:url(#1);stroke:url(#2);stroke-width:1.5;stroke-linecap:round;stroke-linejoin:round" />
    <g
       transform="matrix(0.06433,0,0,0.06433,313.06,442)"
       id="g22"
       style="fill:url(#3);fill-rule:evenodd">
      <path
         d="m 1442.96,1196.84 -0.242,234.32 -59.46,-20.418 -0.418,-274.2 75.897,21.19 c 48.583,13.786 78.31,40.584 77.83,87.55 -0.483,54.625 -25.865,75.82 -68.853,55.84 l 0,-101.28 c 0,-14.941 -24.754,-25.851 -24.754,-2.995"
         id="path24"
         inkscape:connector-curvature="0"
         style="fill:url(#linearGradient3360)" />
      <path
         d="m 1370.71,1303.15 -8.941,2.881 -86.55,31.04 c -18.219,8.355 -33.437,13.758 -33.534,27.371 0.457,17.231 27.459,25.614 66.997,32.22 21.07,4.223 42.596,1.392 61.03,-2.512 l 0.015,-32.465 c 0,0 -34.17,13.278 -42.29,14.383 l -16.439,-0.09 c -12.204,-0.067 -17.887,-7.884 -5.73,-12.08 l 65.44,-24.763 0.011,-35.99"
         id="path26"
         inkscape:connector-curvature="0"
         style="fill:url(#linearGradient3362)" />
      <path
         d="m 1524.5,1317.78 c -22.722,-0.075 -54.19,6.117 -69.787,13.373 l 0,37 41.13,-15.04 32.581,-10.358 c 33.932,-5.587 47.42,6.262 14.373,16.16 l -88.08,32.23 -0.107,35.882 128.69,-46.3 c 14.203,-4.953 34.18,-14.952 34.22,-27.24 -3.447,-19.03 -32.07,-30.13 -76.52,-34.839 -3.987,-0.411 -7.993,-0.669 -11.973,-0.788 -1.516,-0.044 -3.02,-0.083 -4.537,-0.088 z"
         id="path28"
         inkscape:connector-curvature="0"
         style="fill:url(#linearGradient3364)" />
    </g>
  </g>
</svg>
