<?xml version="1.0" encoding="UTF-8" standalone="no"?>
<svg
   xmlns:dc="http://purl.org/dc/elements/1.1/"
   xmlns:cc="http://creativecommons.org/ns#"
   xmlns:rdf="http://www.w3.org/1999/02/22-rdf-syntax-ns#"
   xmlns:svg="http://www.w3.org/2000/svg"
   xmlns="http://www.w3.org/2000/svg"
   xmlns:xlink="http://www.w3.org/1999/xlink"
   xmlns:sodipodi="http://sodipodi.sourceforge.net/DTD/sodipodi-0.dtd"
   xmlns:inkscape="http://www.inkscape.org/namespaces/inkscape"
   viewBox="0 0 128 128"
   id="svg2"
   version="1.1"
   inkscape:version="0.91 r"
   sodipodi:docname="pglgui.svg"
   width="128"
   height="128">
  <metadata
     id="metadata38">
    <rdf:RDF>
      <cc:Work
         rdf:about="">
        <dc:format>image/svg+xml</dc:format>
        <dc:type
           rdf:resource="http://purl.org/dc/dcmitype/StillImage" />
        <dc:title />
      </cc:Work>
    </rdf:RDF>
  </metadata>
  <sodipodi:namedview
     pagecolor="#ffffff"
     bordercolor="#666666"
     borderopacity="1"
     objecttolerance="10"
     gridtolerance="10"
     guidetolerance="10"
     inkscape:pageopacity="0"
     inkscape:pageshadow="2"
     inkscape:window-width="1366"
     inkscape:window-height="744"
     id="namedview36"
     showgrid="false"
     inkscape:zoom="3.4766084"
     inkscape:cx="61.41288"
     inkscape:cy="60.733595"
     inkscape:window-x="0"
     inkscape:window-y="24"
     inkscape:window-maximized="1"
     inkscape:current-layer="svg2" />
  <defs
     id="defs4">
    <linearGradient
       id="0"
       y1="546.92999"
       x2="0"
       y2="516.47998"
       gradientUnits="userSpaceOnUse">
      <stop
         stop-color="#187ced"
         id="stop7" />
      <stop
         offset="1"
         stop-color="#42d6fc"
         id="stop9" />
    </linearGradient>
    <linearGradient
       id="1"
       y1="29.504999"
       x2="0"
       y2="2.3199999"
       gradientUnits="userSpaceOnUse"
       gradientTransform="matrix(1.10376,0,0,1.10019,382.9,514.19)">
      <stop
         stop-color="#0164c2"
         id="stop12" />
      <stop
         offset="1"
         stop-color="#00a9f3"
         id="stop14" />
    </linearGradient>
    <linearGradient
       gradientTransform="matrix(6.7531165,0,0,6.7531165,277.28939,2673.1152)"
       gradientUnits="userSpaceOnUse"
       y2="-411.39157"
       x2="-24.748549"
       y1="-403.90805"
       x1="-37.121349"
       id="linearGradient3362"
       xlink:href="#3-4"
       inkscape:collect="always" />
    <linearGradient
       gradientTransform="matrix(2.4955507,0,0,2.4955507,240.71244,33.087543)"
       id="0-75"
       y1="17.279"
       x2="0"
       y2="-30.721"
       gradientUnits="userSpaceOnUse">
      <stop
         stop-color="#dc3c30"
         id="stop3341" />
      <stop
         offset="1"
         stop-color="#ff786d"
         id="stop3343" />
    </linearGradient>
    <linearGradient
       gradientUnits="userSpaceOnUse"
       y2="-30.891"
       x2="-49.554"
       y1="-5.178"
       x1="-48.953"
       id="0-9">
      <stop
         stop-color="#566069"
         id="stop3394" />
      <stop
         offset="1"
         stop-color="#6c7884"
         id="stop3396" />
    </linearGradient>
    <linearGradient
       gradientUnits="userSpaceOnUse"
       y2="-4.937"
       x2="42.36"
       y1="15.429"
       x1="43.691"
       id="1-35">
      <stop
         stop-color="#d5dbff"
         id="stop3399" />
      <stop
         offset="1"
         stop-color="#f9ffff"
         id="stop3401" />
    </linearGradient>
    <linearGradient
       gradientUnits="userSpaceOnUse"
       y2="-26.783"
       x2="-56.38"
       y1="3.509"
       x1="-56.27"
       id="2">
      <stop
         stop-color="#197ff1"
         id="stop3404" />
      <stop
         offset="1"
         stop-color="#21c6fb"
         id="stop3406" />
    </linearGradient>
    <linearGradient
       id="0-7"
       x1="23.2"
       y1="48.821"
       x2="22.382"
       y2="-1.823"
       gradientUnits="userSpaceOnUse">
      <stop
         stop-color="#7737c5"
         id="stop3457" />
      <stop
         stop-color="#9371ff"
         offset="1"
         id="stop3459" />
    </linearGradient>
    <linearGradient
       id="0-3"
       y1="546.29"
       x2="0"
       y2="501.51"
       gradientUnits="userSpaceOnUse">
      <stop
         stop-color="#197cf1"
         id="stop3484" />
      <stop
         offset="1"
         stop-color="#20bcfa"
         id="stop3486" />
    </linearGradient>
    <linearGradient
       id="0-5"
       gradientUnits="userSpaceOnUse"
       y1="36.965"
       x2="0"
       y2="9.965">
      <stop
         stop-color="#2b65bd"
         id="stop3509" />
      <stop
         offset="1"
         stop-color="#64a3dc"
         id="stop3511" />
    </linearGradient>
    <linearGradient
       gradientUnits="userSpaceOnUse"
       y2="517.8"
       x2="0"
       y1="545.8"
       id="linearGradient3579">
      <stop
         stop-color="#3889e9"
         id="stop3581" />
      <stop
         offset="1"
         stop-color="#5ea5fb"
         id="stop3583" />
    </linearGradient>
    <linearGradient
       y2="518.14"
       x2="0"
       y1="545.14"
       gradientUnits="userSpaceOnUse"
       id="0-8">
      <stop
         stop-color="#00a661"
         id="stop3586" />
      <stop
         offset="1"
         stop-color="#37ce97"
         id="stop3588" />
    </linearGradient>
    <linearGradient
       id="0-6"
       gradientUnits="userSpaceOnUse"
       y1="-2.471"
       x2="0"
       y2="-51.27">
      <stop
         stop-color="#0a80fd"
         id="stop3639" />
      <stop
         offset="1"
         stop-color="#56c5fa"
         id="stop3641" />
    </linearGradient>
    <linearGradient
       gradientUnits="userSpaceOnUse"
       y2="517.8"
       x2="0"
       y1="545.8"
       id="linearGradient3663">
      <stop
         stop-color="#3889e9"
         id="stop3665" />
      <stop
         offset="1"
         stop-color="#5ea5fb"
         id="stop3667" />
    </linearGradient>
    <linearGradient
       y2="517.7"
       x2="387.16"
       y1="545.87"
       x1="414.43"
       gradientUnits="userSpaceOnUse"
       id="0-0">
      <stop
         stop-color="#80256c"
         id="stop3670" />
      <stop
         offset="1"
         stop-color="#4567bd"
         id="stop3672" />
    </linearGradient>
    <linearGradient
       gradientTransform="matrix(0.53361,0,0,0.53476,-221.94,-216.11)"
       xlink:href="#1-6"
       id="8"
       x1="543.95"
       y1="484.81"
       x2="543.74"
       y2="427.54"
       gradientUnits="userSpaceOnUse" />
    <linearGradient
       gradientUnits="userSpaceOnUse"
       y2="25.17"
       x2="0"
       y1="28.442"
       id="5"
       xlink:href="#3" />
    <linearGradient
       y2="21.988"
       x2="69.26"
       y1="24.14"
       x1="69.39"
       gradientUnits="userSpaceOnUse"
       id="7"
       xlink:href="#3" />
    <linearGradient
       y2="507.67"
       x2="390.88"
       y1="531.8"
       x1="391.57"
       gradientTransform="matrix(0.68488,0,0,0.84437,-199.89,-405.47)"
       gradientUnits="userSpaceOnUse"
       id="6">
      <stop
         stop-color="#d3d3d3"
         id="stop3726" />
      <stop
         offset="1"
         stop-color="#fcf9f9"
         id="stop3728" />
    </linearGradient>
    <linearGradient
       y2="40.747"
       x2="88.18"
       y1="26.87"
       x1="74.3"
       gradientUnits="userSpaceOnUse"
       id="4"
       xlink:href="#3" />
    <linearGradient
       id="3">
      <stop
         stop-color="#222c35"
         id="stop3732" />
      <stop
         offset="1"
         stop-color="#545e67"
         id="stop3734" />
    </linearGradient>
    <linearGradient
       y2="25.427"
       x2="80.06"
       y1="43.46"
       x1="80.34"
       gradientUnits="userSpaceOnUse"
       id="0-61"
       xlink:href="#1-6" />
    <linearGradient
       y2="22.484"
       x2="80.37"
       y1="44.46"
       x1="80.978"
       gradientUnits="userSpaceOnUse"
       id="2-0"
       xlink:href="#3" />
    <linearGradient
       id="1-6">
      <stop
         stop-color="#197ff1"
         id="stop3739" />
      <stop
         offset="1"
         stop-color="#21c6fb"
         id="stop3741" />
    </linearGradient>
    <linearGradient
       id="0-2"
       x1="-1092.91"
       y1="203.1"
       x2="-1060.26"
       y2="104.85"
       gradientUnits="userSpaceOnUse"
       gradientTransform="matrix(0.35533,0,0,0.34923,314.86,-49.68)">
      <stop
         stop-color="#f2b333"
         id="stop3816" />
      <stop
         offset="1"
         stop-color="#fcde3f"
         id="stop3818" />
    </linearGradient>
    <linearGradient
       id="1-3"
       x1="-50.952"
       y1="41.34"
       x2="-55.927"
       y2=".059"
       gradientUnits="userSpaceOnUse">
      <stop
         stop-color="#1584d8"
         id="stop3821" />
      <stop
         offset="1"
         stop-color="#1cb2ff"
         id="stop3823" />
    </linearGradient>
    <linearGradient
       gradientUnits="userSpaceOnUse"
       y2="25.17"
       x2="0"
       y1="28.442"
       id="5-1"
       xlink:href="#3" />
    <filter
       color-interpolation-filters="sRGB"
       id="filter4020">
      <feGaussianBlur
         stdDeviation="1.71"
         id="feGaussianBlur4022" />
    </filter>
    <linearGradient
       gradientTransform="scale(1.0059.99417)"
       gradientUnits="userSpaceOnUse"
       y2="7.02"
       x2="0"
       y1="92.54"
       id="linearGradient4024">
      <stop
         id="stop4026" />
      <stop
         offset="1"
         stop-opacity=".588"
         id="stop4028" />
    </linearGradient>
    <linearGradient
       gradientUnits="userSpaceOnUse"
       y2="-26.05"
       x2="-125.19"
       y1="73.5"
       x1="-123.97"
       id="0-52"
       gradientTransform="matrix(1.03458,0,0,1,4.382,0)">
      <stop
         stop-color="#c52828"
         id="stop4031" />
      <stop
         offset="1"
         stop-color="#ff5454"
         id="stop4033" />
    </linearGradient>
    <linearGradient
       id="3-7">
      <stop
         stop-color="#2e3436"
         id="stop4085" />
      <stop
         offset="1"
         stop-color="#555753"
         id="stop4087" />
    </linearGradient>
    <linearGradient
       id="4-7"
       x1="70.03"
       y1="569.24"
       x2="66.53"
       y2="491.06"
       gradientUnits="userSpaceOnUse">
      <stop
         stop-color="#0a80fd"
         id="stop4090" />
      <stop
         offset="1"
         stop-color="#56c5fa"
         id="stop4092" />
    </linearGradient>
    <linearGradient
       xlink:href="#3-7"
       id="2-4"
       x1="72.85"
       y1="491.15"
       x2="72.29"
       y2="462.68"
       gradientUnits="userSpaceOnUse"
       gradientTransform="matrix(1.0021,0,0,1,-0.15,0.002)" />
    <linearGradient
       xlink:href="#3-7"
       id="0-67"
       x1="96.68"
       y1="490.36"
       x2="96.33"
       y2="462.83"
       gradientUnits="userSpaceOnUse" />
    <linearGradient
       xlink:href="#3-7"
       id="1-5"
       x1="44.16"
       y1="490.59"
       x2="44.26"
       y2="461.93"
       gradientUnits="userSpaceOnUse" />
    <filter
       color-interpolation-filters="sRGB"
       id="filter4157">
      <feGaussianBlur
         stdDeviation="1.71"
         id="feGaussianBlur4159" />
    </filter>
    <linearGradient
       gradientTransform="scale(1.0059.99417)"
       gradientUnits="userSpaceOnUse"
       y2="7.02"
       x2="0"
       y1="92.54"
       id="linearGradient4161">
      <stop
         id="stop4163" />
      <stop
         offset="1"
         stop-opacity=".588"
         id="stop4165" />
    </linearGradient>
    <linearGradient
       gradientUnits="userSpaceOnUse"
       y2="517.8"
       x2="0"
       y1="545.8"
       id="linearGradient4215">
      <stop
         stop-color="#3889e9"
         id="stop4217" />
      <stop
         offset="1"
         stop-color="#5ea5fb"
         id="stop4219" />
    </linearGradient>
    <linearGradient
       y2="518.14"
       x2="0"
       y1="545.14"
       gradientUnits="userSpaceOnUse"
       id="0-33">
      <stop
         stop-color="#7e19bf"
         id="stop4222" />
      <stop
         offset="1"
         stop-color="#bd30fa"
         id="stop4224" />
    </linearGradient>
    <linearGradient
       gradientUnits="userSpaceOnUse"
       y2="503.8"
       x2="409.57"
       y1="552.8"
       x1="408.57"
       id="linearGradient4255">
      <stop
         stop-color="#197cf1"
         id="stop4257" />
      <stop
         offset="1"
         stop-color="#59d0ff"
         id="stop4259" />
    </linearGradient>
    <linearGradient
       id="0-4"
       x1="511.29"
       y1="549.43"
       x2="462.18"
       y2="501.03"
       gradientUnits="userSpaceOnUse">
      <stop
         stop-color="#80256c"
         id="stop4262" />
      <stop
         offset="1"
         stop-color="#4567bd"
         id="stop4264" />
    </linearGradient>
    <linearGradient
       id="0-612"
       y1="546.8"
       x2="0"
       y2="507.87"
       gradientUnits="userSpaceOnUse"
       gradientTransform="matrix(-0.32279,0,0,0.35147,161.26,-143.94)">
      <stop
         stop-color="#4fd127"
         id="stop4309" />
      <stop
         offset="1"
         stop-color="#c6f61a"
         id="stop4311" />
    </linearGradient>
    <linearGradient
       id="1-69"
       x1="34.17"
       y1="46.44"
       x2="34.15"
       y2="22.749"
       gradientUnits="userSpaceOnUse">
      <stop
         stop-color="#1074f5"
         id="stop4314" />
      <stop
         offset="1"
         stop-color="#02befd"
         id="stop4316" />
    </linearGradient>
    <linearGradient
       xlink:href="#4-8"
       id="3-6"
       gradientUnits="userSpaceOnUse"
       x1="400.51"
       y1="546.07"
       x2="400.7"
       y2="517.77" />
    <linearGradient
       id="4-8">
      <stop
         stop-color="#566069"
         id="stop4343" />
      <stop
         offset="1"
         stop-color="#6c7884"
         id="stop4345" />
    </linearGradient>
    <linearGradient
       gradientTransform="matrix(1.31487,0,0,1.21841,-245.58,-140.56)"
       gradientUnits="userSpaceOnUse"
       y2="507.8"
       x2="0"
       y1="542.8"
       id="2-5">
      <stop
         stop-color="#2fae61"
         id="stop4348" />
      <stop
         offset="1"
         stop-color="#4bdf88"
         id="stop4350" />
    </linearGradient>
    <linearGradient
       id="0-81"
       gradientUnits="userSpaceOnUse"
       y1="542.2"
       x2="0"
       y2="526.2">
      <stop
         stop-color="#d0d0d0"
         id="stop4353" />
      <stop
         offset="1"
         stop-color="#f1eeee"
         id="stop4355" />
    </linearGradient>
    <linearGradient
       gradientTransform="matrix(1.31487,0,0,1.21841,-250.19,-160.77)"
       gradientUnits="userSpaceOnUse"
       y2="507.8"
       x2="0"
       y1="542.8"
       id="1-2"
       xlink:href="#4-8" />
    <linearGradient
       id="0-1"
       gradientUnits="userSpaceOnUse"
       y1="20.995"
       x2="0"
       y2="-25.291">
      <stop
         stop-color="#566069"
         id="stop4399" />
      <stop
         offset="1"
         stop-color="#6c7884"
         id="stop4401" />
    </linearGradient>
    <clipPath
       id="clipPath4429">
      <path
         d="m-24 13c0 1.105-.672 2-1.5 2-.828 0-1.5-.895-1.5-2 0-1.105.672-2 1.5-2 .828 0 1.5.895 1.5 2"
         transform="matrix(15.33333 0 0 11.5 415-125.5)"
         fill="#1890d0"
         id="path4431" />
    </clipPath>
    <clipPath
       id="clipPath4433">
      <path
         d="m-24 13c0 1.105-.672 2-1.5 2-.828 0-1.5-.895-1.5-2 0-1.105.672-2 1.5-2 .828 0 1.5.895 1.5 2"
         transform="matrix(15.33333 0 0 11.5 415-125.5)"
         fill="#1890d0"
         id="path4435" />
    </clipPath>
    <linearGradient
       gradientTransform="matrix(0.99978,0,0,0.98633,-0.833,5.996)"
       gradientUnits="userSpaceOnUse"
       y2="317.35"
       x2="-1003.64"
       y1="433.28"
       x1="-989.67"
       id="0-02">
      <stop
         stop-color="#1584d8"
         id="stop4438" />
      <stop
         offset="1"
         stop-color="#1cb2ff"
         id="stop4440" />
    </linearGradient>
    <linearGradient
       gradientTransform="matrix(0.99834,0,0,0.98513,-2.169,6.702)"
       gradientUnits="userSpaceOnUse"
       y2="104.85"
       x2="-1060.26"
       y1="203.1"
       x1="-1092.91"
       id="1-7">
      <stop
         stop-color="#f2b333"
         id="stop4443" />
      <stop
         offset="1"
         stop-color="#fcde3f"
         id="stop4445" />
    </linearGradient>
    <filter
       color-interpolation-filters="sRGB"
       id="filter4520">
      <feGaussianBlur
         stdDeviation="1.71"
         id="feGaussianBlur4522" />
    </filter>
    <linearGradient
       gradientTransform="scale(1.0059.99417)"
       gradientUnits="userSpaceOnUse"
       y2="7.02"
       x2="0"
       y1="92.54"
       id="linearGradient4524">
      <stop
         id="stop4526" />
      <stop
         offset="1"
         stop-opacity=".588"
         id="stop4528" />
    </linearGradient>
    <linearGradient
       gradientUnits="userSpaceOnUse"
       y2="-26.05"
       x2="-125.19"
       y1="73.5"
       x1="-123.97"
       id="0-339"
       gradientTransform="matrix(1.03458,0,0,1,4.382,0)">
      <stop
         stop-color="#1074f5"
         id="stop4531" />
      <stop
         offset="1"
         stop-color="#02befd"
         id="stop4533" />
    </linearGradient>
    <linearGradient
       id="8-8"
       x1="25.626"
       y1="48.41"
       x2="24.2"
       y2="0"
       gradientUnits="userSpaceOnUse">
      <stop
         stop-color="#141414"
         id="stop4580" />
      <stop
         offset="1"
         stop-color="#2d2d2f"
         id="stop4582" />
    </linearGradient>
    <linearGradient
       gradientUnits="userSpaceOnUse"
       y2="523.04"
       x2="405.25"
       y1="530.91"
       x1="405.3"
       id="5-5">
      <stop
         stop-color="#fc6e51"
         id="stop4585" />
      <stop
         offset="1"
         stop-color="#ff937d"
         id="stop4587" />
    </linearGradient>
    <linearGradient
       gradientUnits="userSpaceOnUse"
       y2="533.06"
       x2="0"
       y1="541.16"
       id="7-6">
      <stop
         stop-color="#0976da"
         id="stop4590" />
      <stop
         offset="1"
         stop-color="#5de5f0"
         id="stop4592" />
    </linearGradient>
    <linearGradient
       gradientUnits="userSpaceOnUse"
       y2="532.99"
       x2="404.17"
       y1="540.41"
       x1="405.15"
       id="6-5">
      <stop
         stop-color="#4fd127"
         id="stop4595" />
      <stop
         offset="1"
         stop-color="#c6f61a"
         id="stop4597" />
    </linearGradient>
    <linearGradient
       gradientUnits="userSpaceOnUse"
       y2="519.87"
       x2="400.45"
       y1="530.78"
       x1="400.62"
       id="4-1">
      <stop
         stop-color="#eb4646"
         id="stop4600" />
      <stop
         offset="1"
         stop-color="#ff8651"
         id="stop4602" />
    </linearGradient>
    <linearGradient
       gradientUnits="userSpaceOnUse"
       y2="528.59"
       x2="406.62"
       y1="534.79"
       x1="406.49"
       id="3-4">
      <stop
         stop-color="#ffbc00"
         id="stop4605" />
      <stop
         offset="1"
         stop-color="#ffec00"
         id="stop4607" />
    </linearGradient>
    <linearGradient
       gradientUnits="userSpaceOnUse"
       y2="532.99"
       x2="400.62"
       y1="543.89"
       x1="400.45"
       id="0-47">
      <stop
         stop-color="#41b99b"
         id="stop4610" />
      <stop
         offset="1"
         stop-color="#59ffd5"
         id="stop4612" />
    </linearGradient>
    <linearGradient
       gradientUnits="userSpaceOnUse"
       y2="523.38"
       x2="0"
       y1="530.78"
       id="2-3">
      <stop
         stop-color="#ec87c0"
         id="stop4615" />
      <stop
         offset="1"
         stop-color="#ffc1e4"
         id="stop4617" />
    </linearGradient>
    <linearGradient
       gradientUnits="userSpaceOnUse"
       y2="528.97"
       x2="394.27"
       y1="535.15"
       x1="394.52"
       id="1-52">
      <stop
         stop-color="#947ecb"
         id="stop4620" />
      <stop
         offset="1"
         stop-color="#cab5ff"
         id="stop4622" />
    </linearGradient>
    <linearGradient
       gradientTransform="matrix(.49433 0 0 .4778 86.64 13.1)"
       gradientUnits="userSpaceOnUse"
       y2="-26.05"
       x2="-125.19"
       y1="73.5"
       x1="-123.97"
       id="0-610">
      <stop
         stop-color="#2fae61"
         id="stop4692" />
      <stop
         offset="1"
         stop-color="#4bdf88"
         id="stop4694" />
    </linearGradient>
    <filter
       color-interpolation-filters="sRGB"
       id="filter4715">
      <feGaussianBlur
         stdDeviation="1.71"
         id="feGaussianBlur4717" />
    </filter>
    <linearGradient
       gradientTransform="scale(1.0059.99417)"
       gradientUnits="userSpaceOnUse"
       y2="7.02"
       x2="0"
       y1="92.54"
       id="linearGradient4719">
      <stop
         id="stop4721" />
      <stop
         offset="1"
         stop-opacity=".588"
         id="stop4723" />
    </linearGradient>
    <linearGradient
       gradientUnits="userSpaceOnUse"
       y2="-26.05"
       x2="-125.19"
       y1="73.5"
       x1="-123.97"
       id="0-03"
       gradientTransform="matrix(1.03458 0 0 1 4.382 0)">
      <stop
         stop-color="#4469b9"
         id="stop4726" />
      <stop
         offset="1"
         stop-color="#5d91ff"
         id="stop4728" />
    </linearGradient>
    <filter
       color-interpolation-filters="sRGB"
       id="filter4754">
      <feGaussianBlur
         stdDeviation="1.71"
         id="feGaussianBlur4756" />
    </filter>
    <linearGradient
       gradientTransform="scale(1.0059.99417)"
       gradientUnits="userSpaceOnUse"
       y2="7.02"
       x2="0"
       y1="92.54"
       id="linearGradient4758">
      <stop
         id="stop4760" />
      <stop
         offset="1"
         stop-opacity=".588"
         id="stop4762" />
    </linearGradient>
    <linearGradient
       gradientUnits="userSpaceOnUse"
       y2="-26.05"
       x2="-125.19"
       y1="73.5"
       x1="-123.97"
       id="0-619"
       gradientTransform="matrix(1.03458 0 0 1 4.382 0)">
      <stop
         stop-color="#566069"
         id="stop4765" />
      <stop
         offset="1"
         stop-color="#6c7884"
         id="stop4767" />
    </linearGradient>
    <filter
       color-interpolation-filters="sRGB"
       id="filter4837">
      <feGaussianBlur
         stdDeviation="1.71"
         id="feGaussianBlur4839" />
    </filter>
    <linearGradient
       gradientTransform="scale(1.0059.99417)"
       gradientUnits="userSpaceOnUse"
       y2="7.02"
       x2="0"
       y1="92.54"
       id="linearGradient4841">
      <stop
         id="stop4843" />
      <stop
         offset="1"
         stop-opacity=".588"
         id="stop4845" />
    </linearGradient>
    <linearGradient
       gradientUnits="userSpaceOnUse"
       y2="-33.3"
       x2="-72.48"
       y1="69.73"
       x1="-176.63"
       id="0-70"
       gradientTransform="matrix(1.03458 0 0 1 4.382 0)">
      <stop
         stop-color="#4fd127"
         id="stop4848" />
      <stop
         offset="1"
         stop-color="#c6f61a"
         id="stop4850" />
    </linearGradient>
    <linearGradient
       id="0-18"
       x1="-123.97"
       y1="73.5"
       x2="-125.19"
       y2="-26.05"
       gradientUnits="userSpaceOnUse"
       gradientTransform="matrix(1.03459 0 0 1 140.3 142.57)">
      <stop
         stop-color="#5dae33"
         id="stop4877" />
      <stop
         offset="1"
         stop-color="#9be058"
         id="stop4879" />
    </linearGradient>
    <linearGradient
       y2="145.15"
       x2="25.934"
       y1="265.58"
       x1="25.843"
       gradientUnits="userSpaceOnUse"
       id="0-05"
       gradientTransform="matrix(.43553-.00032.00033.41517 13.657-62.25)">
      <stop
         stop-color="#97a9b1"
         id="stop4904" />
      <stop
         offset="1"
         stop-color="#cfdce1"
         id="stop4906" />
    </linearGradient>
    <linearGradient
       xlink:href="#5-8"
       id="6-55"
       x1="-226.75"
       x2="-170.39"
       gradientUnits="userSpaceOnUse" />
    <linearGradient
       id="5-8">
      <stop
         stop-color="#007fe6"
         id="stop4930" />
      <stop
         offset="1"
         stop-color="#00aefc"
         id="stop4932" />
    </linearGradient>
    <linearGradient
       id="7-65"
       x1="-263.84"
       y1="247.6"
       x2="-148.44"
       y2="232.22"
       gradientUnits="userSpaceOnUse"
       gradientTransform="matrix(1 0 0 1.0085 2.747 1.166)">
      <stop
         stop-color="#007fe6"
         id="stop4935" />
      <stop
         offset="1"
         stop-color="#00abe5"
         id="stop4937" />
    </linearGradient>
    <linearGradient
       xlink:href="#5-8"
       id="4-5"
       x1="-335.91"
       y1="120.49"
       x2="-301.2"
       y2="85.6"
       gradientUnits="userSpaceOnUse" />
    <linearGradient
       id="3-42"
       gradientUnits="userSpaceOnUse"
       x1="253.92"
       y1="519.71"
       x2="263.68"
       y2="24.896">
      <stop
         stop-color="#08f"
         id="stop4941" />
      <stop
         offset="1"
         stop-color="#02c3ff"
         id="stop4943" />
    </linearGradient>
    <linearGradient
       id="0-79"
       gradientUnits="userSpaceOnUse"
       y1="542.2"
       x2="0"
       y2="526.2">
      <stop
         stop-color="#d0d0d0"
         id="stop4946" />
      <stop
         offset="1"
         stop-color="#f1eeee"
         id="stop4948" />
    </linearGradient>
    <linearGradient
       id="2-7"
       gradientUnits="userSpaceOnUse"
       x1="395.93"
       y1="539.09"
       x2="396.05"
       y2="513.03">
      <stop
         stop-color="#0c275c"
         id="stop4951" />
      <stop
         offset="1"
         stop-color="#1072c0"
         id="stop4953" />
    </linearGradient>
    <linearGradient
       id="1-64"
       gradientUnits="userSpaceOnUse"
       y1="537.65"
       x2="0"
       y2="494.02">
      <stop
         stop-color="#178aff"
         id="stop4956" />
      <stop
         offset="1"
         stop-color="#1bbded"
         id="stop4958" />
    </linearGradient>
    <linearGradient
       gradientTransform="matrix(.49433 0 0 .4778 86.64 13.1)"
       gradientUnits="userSpaceOnUse"
       y2="-26.05"
       x2="-125.19"
       y1="73.5"
       x1="-123.97"
       id="0-48">
      <stop
         stop-color="#c52828"
         id="stop5010" />
      <stop
         offset="1"
         stop-color="#ff5454"
         id="stop5012" />
    </linearGradient>
    <linearGradient
       id="0-25"
       x1="459"
       y1="573.28"
       x2="446.04"
       y2="526.72"
       gradientUnits="userSpaceOnUse">
      <stop
         stop-color="#1e56e6"
         id="stop5034" />
      <stop
         offset="1"
         stop-color="#1f9aed"
         id="stop5036" />
    </linearGradient>
    <linearGradient
       id="1-0"
       x1="-1092.91"
       y1="203.1"
       x2="-1060.26"
       y2="104.85"
       gradientUnits="userSpaceOnUse"
       gradientTransform="matrix(0.32822,0,0,0.32388,685.52,570.27)">
      <stop
         stop-color="#f2b333"
         id="stop5039" />
      <stop
         offset="1"
         stop-color="#fcde3f"
         id="stop5041" />
    </linearGradient>
    <linearGradient
       gradientTransform="matrix(2.51381 0 0 2.52731-1038.86-1347.67)"
       xlink:href="#0-86"
       id="2-2"
       gradientUnits="userSpaceOnUse"
       x1="395.09"
       y1="550.5"
       x2="394.69"
       y2="537.45" />
    <linearGradient
       xlink:href="#0-86"
       x1="12.613"
       y1="24.02"
       x2="11.598"
       y2="-.7"
       gradientUnits="userSpaceOnUse"
       id="linearGradient6190" />
    <linearGradient
       id="0-86">
      <stop
         stop-color="#00cafe"
         id="stop6193" />
      <stop
         offset="1"
         stop-color="#1460f3"
         id="stop6195" />
    </linearGradient>
    <linearGradient
       id="1-4"
       x1="401.49"
       y1="546.9"
       x2="401.62"
       y2="517.44"
       gradientUnits="userSpaceOnUse">
      <stop
         stop-color="#ececec"
         id="stop6198" />
      <stop
         offset="1"
         stop-color="#fcfcfc"
         id="stop6200" />
    </linearGradient>
    <linearGradient
       gradientTransform="matrix(2.4137886,0,0,2.4137886,31.683539,1004.9731)"
       gradientUnits="userSpaceOnUse"
       y2="-32.798"
       x2="-35.09"
       y1="-8.02"
       x1="-34.507"
       id="9"
       xlink:href="#3" />
    <linearGradient
       gradientTransform="matrix(2.4137893,0,0,2.4137893,-37.994148,1004.7543)"
       xlink:href="#3"
       id="6-0"
       y1="-.413"
       x2="0"
       y2="-3.765"
       gradientUnits="userSpaceOnUse" />
    <linearGradient
       gradientTransform="matrix(2.4137842,0,0,2.4137842,-139.82046,995.70327)"
       gradientUnits="userSpaceOnUse"
       y2="-27.631001"
       x2="-42.450001"
       y1="1.559"
       x1="-42.34"
       id="8-43"
       xlink:href="#0-2" />
    <linearGradient
       gradientTransform="matrix(2.4137893,0,0,2.4137893,-37.994148,1004.7543)"
       xlink:href="#3"
       id="7-9"
       gradientUnits="userSpaceOnUse"
       x1="24.406"
       y1="-4.811"
       x2="24.27"
       y2="-7.02" />
    <linearGradient
       id="5-4"
       gradientUnits="userSpaceOnUse"
       gradientTransform="matrix(1.6919215,0,0,2.0859243,-644.31388,-68.175044)"
       x1="391.57"
       y1="531.8"
       x2="390.88"
       y2="507.67">
      <stop
         stop-color="#d3d3d3"
         id="stop6231" />
      <stop
         offset="1"
         stop-color="#fcf9f9"
         id="stop6233" />
    </linearGradient>
    <linearGradient
       gradientTransform="matrix(2.4137893,0,0,2.4137893,-37.994148,1004.7543)"
       xlink:href="#0-2"
       id="0-60"
       gradientUnits="userSpaceOnUse"
       x1="35.611"
       y1="14.953"
       x2="35.32"
       y2="-3.4990001" />
    <linearGradient
       gradientTransform="matrix(2.4137893,0,0,2.4137893,-37.994148,1004.7543)"
       xlink:href="#3"
       id="4-51"
       gradientUnits="userSpaceOnUse"
       x1="36.26"
       y1="15.981"
       x2="35.638"
       y2="-6.51" />
    <linearGradient
       gradientTransform="matrix(2.4137893,0,0,2.4137893,-37.994148,1004.7543)"
       xlink:href="#3"
       id="2-1"
       gradientUnits="userSpaceOnUse"
       x1="29.43"
       y1="-2.02"
       x2="43.633"
       y2="12.181" />
  </defs>
  <g
     id="g18"
     transform="matrix(4.0718435,0,0,4.0745055,-1566.8422,-2102.5035)">
    <circle
       style="fill:url(#0);stroke:url(#0);stroke-width:1.42700005"
       id="circle20"
       r="14"
       cy="531.79999"
       cx="400.57001" />
    <path
       style="fill:url(#1)"
       inkscape:connector-curvature="0"
       id="path22"
       d="m 400.59,517.13 c -1.856,0 -3.623,0.353 -5.255,0.973 -0.119,0.109 -0.273,0.192 -0.395,0.182 -0.017,-0.002 -0.033,-0.012 -0.051,-0.019 -0.805,0.336 -1.568,0.747 -2.292,1.213 0.094,0.152 0.122,0.322 -0.071,0.404 -0.033,0.013 -0.442,0.055 -0.585,0.052 -2.058,1.491 -3.71,3.496 -4.765,5.837 0.017,-0.003 0.032,-1e-4 0.05,-0.011 0.16,-0.003 0.391,0.043 0.545,0.076 0.142,0.029 0.257,0.124 0.379,0.133 0.349,0.027 0.433,-0.244 0.717,-0.395 0.294,0.041 0.489,-0.05 0.754,-0.02 0.181,0.02 0.312,0.213 0.453,0.223 0.119,0.012 0.223,-0.111 0.338,-0.093 0.112,0.018 0.304,0.259 0.322,0.395 0.024,0.169 -0.125,0.321 -0.076,0.507 0.178,0.18 0.501,0.217 0.754,0.321 0.165,-0.136 0.022,-0.388 0,-0.584 -0.003,-0.087 0.012,-0.164 0,-0.244 -0.015,-0.135 -0.073,-0.259 -0.074,-0.375 -0.003,-0.535 0.433,-0.786 0.793,-0.997 0.156,-0.092 0.279,-0.253 0.414,-0.321 0.191,-0.095 0.333,-0.118 0.491,-0.206 0.286,-0.16 0.531,-0.288 0.754,-0.47 0.103,-0.243 10e-5,-0.568 0.019,-0.808 0.103,-0.063 0.192,0.027 0.302,0.019 0.172,-0.035 0.187,-0.278 0.285,-0.375 0.057,-0.056 0.212,-0.095 0.283,-0.15 0.172,-0.134 0.228,-0.337 0.378,-0.395 0.054,-0.022 0.178,-0.015 0.263,-0.038 0.112,-0.03 0.271,-0.161 0.453,-0.223 0.119,-0.041 0.39,-0.05 0.435,-0.094 0.056,-0.057 0,-0.216 0.019,-0.301 0.091,-0.425 0.733,-0.515 1.112,-0.657 0.266,-0.1 0.539,-0.284 0.831,-0.228 -0.057,0.202 -0.329,0.13 -0.283,0.375 0.064,0.34 0.52,-0.097 0.641,-0.148 0.23,-0.096 0.625,-0.156 0.927,-0.265 0.265,-0.096 0.74,-0.244 0.49,-0.546 -0.208,-0.012 -0.309,0.244 -0.49,0.321 -0.125,0.02 -0.101,-0.105 -0.208,-0.115 -0.101,-0.012 -0.159,0.093 -0.263,0.075 -0.104,-0.017 -0.25,-0.18 -0.266,-0.301 -0.041,-0.314 0.266,-0.443 0.397,-0.678 -0.087,-0.284 -0.48,-0.058 -0.719,-0.169 0.023,-0.169 0.198,-0.286 0.397,-0.318 0.162,-0.027 0.527,-0.013 0.624,0.072 0.056,0.048 0.004,0.166 0.095,0.245 0.096,0.087 0.214,0.077 0.339,0.058 0.044,-0.214 -0.28,-0.161 -0.244,-0.302 0.255,-0.166 0.669,-0.03 0.982,-0.076 0.18,-0.027 0.368,-0.153 0.527,-0.242 0.151,-0.086 0.348,-0.235 0.509,-0.095 0.043,0.154 -0.14,0.204 -0.226,0.281 -0.289,0.256 -0.586,0.549 -0.81,0.847 0.138,0.134 0.388,0.066 0.621,0.094 0.091,0.012 0.205,0.038 0.302,0.056 0.113,0.02 0.232,0.014 0.32,0.037 0.159,0.038 0.201,0.208 0.358,0.208 0.258,0 0.261,-0.279 0.115,-0.453 0.046,-0.177 0.119,-0.27 0.056,-0.394 -0.116,-0.232 -0.543,-0.012 -0.565,-0.301 -0.013,-0.188 0.157,-0.179 0.226,-0.319 -0.031,-0.362 0.298,-0.389 0.263,-0.713 -0.015,-0.136 -0.13,-0.138 -0.226,-0.265 -0.048,-0.062 -0.072,-0.183 -0.128,-0.236 -0.44,-0.038 -0.886,-0.063 -1.336,-0.063 z m -7.593,2.959 0.002,0 c 0.088,0.012 0.194,0.107 0.3,0.115 0.1,0.003 0.184,-0.056 0.246,-0.038 0.158,0.041 0.224,0.279 0.075,0.395 -0.123,0.015 -0.171,-0.054 -0.264,-0.037 -0.256,0.043 -0.355,0.544 -0.546,0.527 -0.181,-0.014 -0.278,-0.454 -0.095,-0.584 0.012,-0.114 -0.084,-0.132 -0.077,-0.245 0.055,-0.069 0.209,-0.144 0.359,-0.132 m -0.849,0.058 c 0.053,0.002 0.092,0.014 0.112,0.037 -0.025,0.2 -0.182,0.187 -0.338,0.281 -0.268,0.161 -0.423,0.407 -0.509,0.752 -0.025,0.1 -0.289,0.366 -0.417,0.339 -0.299,-0.063 0.083,-0.613 0.151,-0.696 0.076,-0.093 0.177,-0.174 0.266,-0.281 0.086,-0.104 0.142,-0.243 0.226,-0.301 0.091,-0.063 0.351,-0.138 0.509,-0.132 m 2.233,0.676 c 0.096,0.002 0.182,0.018 0.221,0.056 -0.062,0.248 -0.598,0.183 -0.795,0.093 0.012,-0.094 0.16,-0.12 0.283,-0.132 0.087,-0.003 0.195,-0.02 0.29,-0.017 m -1.221,0.458 c 0.064,-0.002 0.128,0.012 0.195,0.03 -0.174,0.145 -0.361,0.227 -0.66,0.321 -0.143,0.045 -0.391,0.101 -0.415,-0.059 -0.03,-0.196 0.21,-0.15 0.341,-0.168 0.165,-0.023 0.346,-0.118 0.539,-0.125 m 18.739,1.115 c -0.023,0.054 -0.038,0.106 -0.036,0.158 0.012,0.091 0.111,0.178 0.134,0.301 0.012,0.065 -0.031,0.206 0,0.265 0.091,0.176 0.329,0.05 0.499,0.059 -0.193,-0.265 -0.386,-0.531 -0.596,-0.782 m 0.964,1.293 c -0.027,0.13 -0.115,0.299 -0.187,0.407 -0.164,0.249 -0.388,0.261 -0.624,0.394 -0.197,0.111 -0.281,0.297 -0.397,0.49 -0.125,0.209 -0.202,0.335 -0.151,0.637 -0.169,0.333 -0.424,0.538 -0.773,0.696 -0.103,0.047 -0.244,0.064 -0.339,0.132 -0.075,0.054 -0.118,0.199 -0.226,0.319 -0.132,0.147 -0.271,0.209 -0.341,0.321 -0.054,0.087 -0.072,0.259 -0.132,0.375 -0.081,0.158 -0.252,0.235 -0.358,0.395 -0.048,0.074 -0.081,0.224 -0.134,0.321 -0.12,0.216 -0.324,0.372 -0.302,0.563 0.022,0.184 0.231,0.216 0.246,0.377 0.003,0.091 -0.06,0.146 -0.056,0.245 0.003,0.144 0.101,0.246 0.112,0.357 0.028,0.279 -0.095,0.391 -0.148,0.582 -0.025,0.091 -0.014,0.194 -0.038,0.265 -0.047,0.14 -0.242,0.266 -0.246,0.431 -0.002,0.117 0.121,0.212 0.131,0.377 0.003,0.114 -0.056,0.235 -0.036,0.339 0.04,0.205 0.407,0.443 0.566,0.602 0.213,0.213 0.493,0.377 0.585,0.602 0.077,0.19 0.077,0.438 0.226,0.582 0.11,0.106 0.293,0.172 0.434,0.282 0.132,0.103 0.275,0.192 0.415,0.301 0.23,0.179 0.577,0.536 0.943,0.509 0.191,-0.013 0.387,-0.169 0.604,-0.208 0.223,-0.039 0.512,-0.061 0.737,-0.037 0.172,0.017 0.35,0.12 0.529,0.112 0.189,-0.012 0.406,-0.151 0.621,-0.245 0.173,-0.075 0.385,-0.158 0.618,-0.219 0.107,-0.715 0.164,-1.448 0.164,-2.194 0,-3 -0.901,-5.787 -2.443,-8.107 m -24.338,4.929 c -0.313,0.017 -0.519,0.031 -0.697,0.112 -0.408,0.185 -0.329,0.735 -0.737,0.865 -0.141,0.045 -0.335,0.047 -0.49,0.075 -0.134,0.025 -0.297,0.097 -0.435,0.094 -0.038,0 -0.093,-0.029 -0.141,-0.044 -0.036,0.258 -0.066,0.519 -0.089,0.781 0.388,0.074 0.588,0.587 0.931,0.756 0.094,0.047 0.217,0.049 0.338,0.076 0.097,0.022 0.172,0.063 0.266,0.095 0.2,0.067 0.444,0.059 0.604,0.13 0.24,0.106 0.417,0.557 0.624,0.678 0.012,0.122 -0.024,0.285 0.019,0.375 0.097,0.132 0.236,0.103 0.397,0.189 0.193,0.104 0.252,0.371 0.434,0.453 0.063,0.028 0.221,0.024 0.32,0.055 0.25,0.075 0.332,0.364 0.546,0.301 0.141,-0.041 0.129,-0.185 0.152,-0.319 0.093,-0.1 0.194,-0.259 0.339,-0.262 0.234,-0.012 0.255,0.241 0.341,0.468 0.048,0.128 0.174,0.24 0.207,0.375 0.058,0.234 0.029,0.933 -0.021,1.073 -0.059,0.171 -0.292,0.244 -0.435,0.434 -0.067,0.089 -0.1,0.22 -0.151,0.282 -0.092,0.112 -0.23,0.141 -0.299,0.245 -0.039,0.058 -0.077,0.183 -0.115,0.262 -0.113,0.239 -0.265,0.409 -0.17,0.696 0.04,0.118 0.225,0.197 0.226,0.337 0,0.164 -0.349,0.31 -0.376,0.49 -0.021,0.134 0.108,0.372 0.151,0.546 0.031,0.131 0.28,0.213 0.358,0.301 0.132,0.148 0.238,0.358 0.359,0.544 0.239,0.366 0.427,0.813 0.66,1.167 0.123,0.186 0.296,0.353 0.378,0.546 0.042,0.097 0.036,0.213 0.074,0.301 0.135,0.303 0.73,0.62 1.038,0.771 0.144,0.069 0.303,0.094 0.435,0.168 0.2,0.111 0.596,0.41 0.697,0.584 0.09,0.157 0.146,0.539 0.19,0.789 0.059,0.33 0,0.584 0.019,0.941 0.012,0.193 0.074,0.388 0.076,0.582 0,0.068 -0.036,0.118 -0.039,0.188 0,0.011 0.004,0.024 0.004,0.035 1.853,0.836 3.907,1.312 6.08,1.312 0.393,0 0.781,-0.021 1.165,-0.051 0.017,-0.029 0.032,-0.059 0.054,-0.086 0.089,-0.116 0.167,-0.217 0.226,-0.319 0.056,-0.343 -0.137,-0.583 -0.056,-0.884 0.09,-0.338 0.558,-0.544 0.887,-0.696 0.113,-0.052 0.228,-0.137 0.32,-0.169 0.227,-0.079 0.511,-0.036 0.719,-0.112 0.354,-0.129 0.39,-0.507 0.565,-0.828 0.083,-0.152 0.191,-0.304 0.207,-0.412 0.014,-0.097 -0.036,-0.189 -0.021,-0.304 0.017,-0.114 0.119,-0.212 0.151,-0.337 0.041,-0.163 0.059,-0.402 0.059,-0.583 0,-0.149 -0.07,-0.28 -0.075,-0.414 -0.025,-0.488 0.177,-0.542 0.358,-0.808 0.091,-0.132 0.125,-0.282 0.188,-0.377 0.304,-0.452 0.831,-0.67 0.793,-1.354 -0.012,-0.226 -0.155,-0.737 -0.322,-0.809 -0.095,-0.041 -0.315,-0.003 -0.453,-0.056 -0.446,-0.166 -0.708,-0.717 -1.17,-0.752 -0.098,-0.012 -0.189,0.04 -0.3,0.038 -0.183,-0.012 -0.459,-0.128 -0.661,-0.15 -0.129,-0.013 -0.301,0.038 -0.378,0 -0.118,-0.057 -0.13,-0.274 -0.226,-0.338 -0.075,-0.053 -0.224,-0.07 -0.339,-0.115 -0.186,-0.071 -0.333,-0.154 -0.547,-0.169 -0.066,-0.003 -0.149,0.031 -0.226,0.02 -0.119,-0.02 -0.212,-0.16 -0.322,-0.226 -0.137,-0.083 -0.264,-0.123 -0.32,-0.242 0.124,-0.405 -0.218,-0.518 -0.302,-0.752 -0.04,-0.11 -0.022,-0.242 -0.056,-0.339 -0.05,-0.14 -0.188,-0.221 -0.341,-0.338 -0.273,-0.209 -0.515,-0.406 -0.905,-0.454 -0.172,-0.022 -0.342,0.052 -0.549,0.038 -0.22,-0.013 -0.495,-0.205 -0.66,-0.392 -0.16,-0.183 -0.237,-0.347 -0.377,-0.434 -0.132,-0.085 -0.307,-0.082 -0.397,-0.168 -0.04,-0.037 -0.033,-0.101 -0.076,-0.189 -0.066,-0.137 -0.178,-0.213 -0.095,-0.377 -0.15,-0.077 -0.154,0.143 -0.319,0.115 -0.147,-0.207 -0.271,-0.306 -0.604,-0.245 -0.152,0.028 -0.238,0.22 -0.415,0.225 -0.146,0.012 -0.26,-0.162 -0.453,-0.189 -0.145,-0.02 -0.31,0.039 -0.414,0.02 -0.161,-0.032 -0.211,-0.166 -0.358,-0.262 -0.108,-0.07 -0.317,-0.191 -0.378,-0.189 -0.19,0.012 -0.325,0.402 -0.586,0.264 -0.127,-0.161 0.207,-0.245 0.056,-0.395 -0.114,-0.114 -0.21,0.052 -0.302,0.115 -0.105,0.072 -0.203,0.143 -0.319,0.186 -0.259,0.096 -0.421,0.046 -0.624,0.15 -0.188,0.097 -0.196,0.259 -0.302,0.451 -0.087,0.158 -0.285,0.387 -0.415,0.397 -0.158,0.012 -0.309,-0.22 -0.453,-0.282 -0.432,-0.187 -0.641,0.166 -1,0.17 -0.333,0.012 -0.809,-0.536 -0.792,-0.848 0.003,-0.19 0.11,-0.479 0.132,-0.715 0.021,-0.187 0.149,-0.3 0.151,-0.471 0.003,-0.228 -0.304,-0.404 -0.453,-0.431 -0.352,-0.064 -0.842,0.141 -1.246,-0.02 -0.077,-0.127 0.091,-0.216 0.134,-0.339 0.025,-0.07 10e-5,-0.165 0.036,-0.242 0.044,-0.12 0.171,-0.213 0.227,-0.339 0.041,-0.097 0.053,-0.237 0.095,-0.357 0.05,-0.137 0.14,-0.225 0.151,-0.321 0.013,-0.127 -0.034,-0.273 -0.134,-0.357 z m 5.04,3.981 c 0.128,0.012 0.144,0.275 0.013,0.297 -0.141,0.022 -0.213,-0.221 -0.076,-0.284 0.023,-0.012 0.045,-0.012 0.063,-0.011 l 0,-0.002" />
  </g>
  <path
     style="fill:#bdc3c7;fill-opacity:1;stroke:none"
     d="m 65.607417,21.201558 c -14.25409,0 -25.729377,11.475065 -25.729377,25.729378 l 0,50.50581 5.717639,0 0,-50.50581 c 0,-11.086739 8.925173,-20.011742 20.011738,-20.011742 11.086565,0 20.011737,8.925003 20.011737,20.011742 l 0,50.50581 5.71764,0 0,-50.50581 c 0,-14.254313 -11.475287,-25.729378 -25.729377,-25.729378 z"
     id="rect4122"
     inkscape:connector-curvature="0" />
  <rect
     style="fill:url(#linearGradient3362);fill-opacity:1.0;stroke:none"
     id="rect4118"
     width="64.799927"
     height="38.117592"
     x="33.207447"
     y="-97.436592"
     transform="scale(1,-1)" />
  <path
     style="fill:#2c3e50;fill-opacity:1;stroke:none"
     d="m 65.607417,66.942666 a 4.7646993,4.7646993 0 0 0 -4.7647,4.764702 4.7646993,4.7646993 0 0 0 2.85882,4.362676 l 0,13.743176 3.81176,0 0,-13.743176 a 4.7646993,4.7646993 0 0 0 2.858819,-4.362676 4.7646993,4.7646993 0 0 0 -4.764699,-4.764702 z"
     id="path4135"
     inkscape:connector-curvature="0" />
</svg>
