<?xml version="1.0" encoding="UTF-8" standalone="no"?>
<svg
   xmlns:dc="http://purl.org/dc/elements/1.1/"
   xmlns:cc="http://creativecommons.org/ns#"
   xmlns:rdf="http://www.w3.org/1999/02/22-rdf-syntax-ns#"
   xmlns:svg="http://www.w3.org/2000/svg"
   xmlns="http://www.w3.org/2000/svg"
   xmlns:sodipodi="http://sodipodi.sourceforge.net/DTD/sodipodi-0.dtd"
   xmlns:inkscape="http://www.inkscape.org/namespaces/inkscape"
   viewBox="0 0 128 128"
   id="svg2"
   version="1.1"
   inkscape:version="0.91 r"
   sodipodi:docname="pino.svg"
   width="128"
   height="128">
  <metadata
     id="metadata23">
    <rdf:RDF>
      <cc:Work
         rdf:about="">
        <dc:format>image/svg+xml</dc:format>
        <dc:type
           rdf:resource="http://purl.org/dc/dcmitype/StillImage" />
        <dc:title></dc:title>
      </cc:Work>
    </rdf:RDF>
  </metadata>
  <sodipodi:namedview
     pagecolor="#ffffff"
     bordercolor="#666666"
     borderopacity="1"
     objecttolerance="10"
     gridtolerance="10"
     guidetolerance="10"
     inkscape:pageopacity="0"
     inkscape:pageshadow="2"
     inkscape:window-width="1366"
     inkscape:window-height="744"
     id="namedview21"
     showgrid="false"
     inkscape:zoom="3.4766083"
     inkscape:cx="36.573945"
     inkscape:cy="68.216333"
     inkscape:window-x="0"
     inkscape:window-y="24"
     inkscape:window-maximized="1"
     inkscape:current-layer="svg2" />
  <defs
     id="defs4">
    <filter
       id="filter6"
       style="color-interpolation-filters:sRGB">
      <feGaussianBlur
         stdDeviation="1.71"
         id="feGaussianBlur8" />
    </filter>
    <linearGradient
       id="0"
       x1="25.598"
       y1="47.73"
       x2="24.129999"
       y2="0.70099998"
       gradientUnits="userSpaceOnUse"
       gradientTransform="matrix(2.3721522,0,0,2.3721522,7.1936606,7.2306702)">
      <stop
         stop-color="#00a661"
         id="stop11" />
      <stop
         offset="1"
         stop-color="#37ce97"
         id="stop13" />
    </linearGradient>
  </defs>
  <path
     d="m 14.262674,7.2259262 99.725276,0 c 3.91879,0 7.07375,3.1549618 7.07375,7.0737568 l 0,99.725277 c 0,3.9188 -3.15496,7.07376 -7.07375,7.07376 l -99.725276,0 c -3.918796,0 -7.0737577,-3.15496 -7.0737577,-7.07376 l 0,-99.725277 c 0,-3.918795 3.1549617,-7.0737568 7.0737577,-7.0737568"
     id="path15"
     inkscape:connector-curvature="0"
     style="fill:url(#0);fill-rule:evenodd" />
  <g
     transform="matrix(2.9520011,0,0,2.9520011,-128.9916,28.976189)"
     id="g17"
     style="fill:#e6ffff">
    <path
       d="m 134.95,-4.37 -13.907,15.56 6.971,1.8 -13.659,13.08 7.183,1.8 -13.553,12.42 22.541,4.7 0,4.64 8.917,0 0,-4.62 22.541,-4.72 -13.553,-12.42 7.183,-1.8 -13.659,-13.08 6.971,-1.8 -13.907,-15.56 -0.071,0"
       transform="matrix(0.47619,0,0,0.47619,1.143,1.143)"
       id="path19"
       inkscape:connector-curvature="0"
       style="fill:#dcf4eb" />
  </g>
</svg>
