<?xml version="1.0" encoding="UTF-8" standalone="no"?>
<!-- Generator: flash2svg, http://dissentgraphics.com/tools/flash2svg -->

<svg
   xmlns:dc="http://purl.org/dc/elements/1.1/"
   xmlns:cc="http://creativecommons.org/ns#"
   xmlns:rdf="http://www.w3.org/1999/02/22-rdf-syntax-ns#"
   xmlns:svg="http://www.w3.org/2000/svg"
   xmlns="http://www.w3.org/2000/svg"
   xmlns:xlink="http://www.w3.org/1999/xlink"
   xmlns:sodipodi="http://sodipodi.sourceforge.net/DTD/sodipodi-0.dtd"
   xmlns:inkscape="http://www.inkscape.org/namespaces/inkscape"
   id="Plex-Home-Theater"
   image-rendering="optimizeSpeed"
   version="1.1"
   style="background-color:#ffffff"
   x="0px"
   y="0px"
   width="1024px"
   height="1024px"
   viewBox="0 0 1024 1024"
   enable-background="new 0 0 1024 1024"
   inkscape:version="0.91 r"
   sodipodi:docname="plex.svg">
  <metadata
     id="metadata25">
    <rdf:RDF>
      <cc:Work
         rdf:about="">
        <dc:format>image/svg+xml</dc:format>
        <dc:type
           rdf:resource="http://purl.org/dc/dcmitype/StillImage" />
      </cc:Work>
    </rdf:RDF>
  </metadata>
  <sodipodi:namedview
     pagecolor="#ffffff"
     bordercolor="#666666"
     borderopacity="1"
     objecttolerance="10"
     gridtolerance="10"
     guidetolerance="10"
     inkscape:pageopacity="0"
     inkscape:pageshadow="2"
     inkscape:window-width="1141"
     inkscape:window-height="714"
     id="namedview23"
     showgrid="false"
     inkscape:zoom="0.23046875"
     inkscape:cx="-39.022834"
     inkscape:cy="224.21284"
     inkscape:window-x="15"
     inkscape:window-y="24"
     inkscape:window-maximized="0"
     inkscape:current-layer="Plex-Home-Theater" />
  <defs
     transform="matrix(1 0 0 1 0 0) "
     id="defs3">
    <linearGradient
       inkscape:collect="always"
       id="linearGradient3353">
      <stop
         style="stop-color:#363f6a;stop-opacity:1;"
         offset="0"
         id="stop3355" />
      <stop
         id="stop3361"
         offset="0.14685664"
         style="stop-color:#2381dd;stop-opacity:1" />
      <stop
         style="stop-color:#1350a7;stop-opacity:1"
         offset="0.86565232"
         id="stop3363" />
      <stop
         style="stop-color:#363f6a;stop-opacity:0;"
         offset="1"
         id="stop3357" />
    </linearGradient>
    <linearGradient
       inkscape:collect="always"
       xlink:href="#linearGradient3353"
       id="linearGradient3359"
       x1="-82.440681"
       y1="-60.745762"
       x2="1052.2034"
       y2="1065.2203"
       gradientUnits="userSpaceOnUse" />
    <linearGradient
       y2="-3.038"
       x2="469.39"
       y1="76.873"
       x1="469.05"
       gradientUnits="userSpaceOnUse"
       id="0">
      <stop
         id="stop3356"
         stop-color="#fefffe" />
      <stop
         id="stop3358"
         stop-color="#f1f1f0"
         offset="1" />
    </linearGradient>
    <linearGradient
       id="1"
       x1="468.86"
       y1="130.35"
       x2="467.54"
       y2="-75.34"
       gradientUnits="userSpaceOnUse">
      <stop
         id="stop3361-0"
         stop-color="#124da4" />
      <stop
         id="stop3363-0"
         stop-color="#2896ff"
         offset="1" />
    </linearGradient>
    <linearGradient
       id="2"
       x1="469.01"
       y1="122.17"
       x2="472.17"
       y2="36.36"
       gradientUnits="userSpaceOnUse"
       gradientTransform="matrix(0.99787,0,0,1,0.79,0.581)">
      <stop
         id="stop3366"
         stop-color="#2381dd" />
      <stop
         id="stop3368"
         stop-color="#2381dd"
         offset="1" />
    </linearGradient>
  </defs>
  <g
     id="shadow">
    <g
       id="shape">
      <path
         id="path"
         fill="#000000"
         fill-opacity="0.09803921568627451"
         d="M957.65,339.3 Q949.037,318.427 938.25,298.45 C934.2,290.9 929.9,283.4 925.35,276.05 905.8,244.35 881.95,214.4 853.8,186.25 761.65,94.1 650.35,48 520,48 389.65,48 278.4,94.1 186.25,186.25 94.1,278.4 48,389.65 48,520 48,650.35 94.1,761.65 186.25,853.8 278.4,945.95 389.65,992 520,992 650.35,992 761.65,945.95 853.8,853.8 904.55,803 941.35,746.4 964.15,684.05 982.7,633.2 992,578.55 992,520 992,475.1 986.55,432.45 975.6,392.05 974.35,387.5 973.05,382.95 971.7,378.45 967.6,365.15 962.9,352.1 957.65,339.3z" />
    </g>
  </g>
  <path
     id="path1"
     d="m 969.75,392.05 c -1.1,-4.35 -2.35,-9 -3.65,-13.6 -2.5,-8.75 -5.35,-17.6 -8.45,-26.35 -6.45,-18.25 -14.15,-36.05 -23.15,-53.65 -3.8,-7.4 -7.95,-14.95 -12.3,-22.4 l -0.025,0 Q 891.574,224.04 845.85,178.3 C 753.7,86.15 642.4,40.05 512.05,40.05 381.7,40.05 270.45,86.15 178.3,178.3 86.15,270.45 40.05,381.7 40.05,512.05 c 0,130.35 46.1,241.65 138.25,333.8 92.15,92.15 203.4,138.2 333.75,138.2 12.7,0 25.2,-0.45 37.05,-1.25 20.2,-1.45 39.9,-4.05 58.7,-7.7 7.95,-1.55 15.8,-3.3 23.4,-5.15 80.8,-20.3 152.15,-61.6 214.65,-124.1 48.6,-48.6 84.4,-102.5 107.35,-161.8 18.45,-47.65 28.65,-98.8 30.55,-153.5 0.2,-6.05 0.3,-12.25 0.3,-18.5 0,-41.75 -4.7,-81.6 -14.3,-120 z"
     inkscape:connector-curvature="0"
     style="fill:url(#linearGradient3359);fill-opacity:1" />
  <g
     id="Calque.__204"
     transform="translate(-20,-17.830508)">
    <g
       id="shape4">
      <path
         id="path3"
         stroke-miterlimit="3"
         d="m 939.95,529.8 q 0,-169.9 -120.15,-290.05 c -80.05,-80.05 -176.75,-120.1 -290,-120.1 -113.25,0 -209.95,40.05 -290.05,120.1 -80.05,80.1 -120.1,176.8 -120.1,290.05 0,113.25 40.05,209.95 120.1,290 80.1,80.1 176.8,120.15 290.05,120.15 113.25,0 209.95,-40.05 290,-120.15 80.1,-80.05 120.15,-176.75 120.15,-290 z"
         inkscape:connector-curvature="0"
         style="fill:none;stroke:#cccccc;stroke-width:35.5;stroke-linecap:round;stroke-linejoin:miter;stroke-miterlimit:3;stroke-opacity:1" />
    </g>
  </g>
  <path
     id="path5"
     d="m 511.075,632.5 71.325,140.35 154.65,0 -156.6,-260.35 -69.375,120 z"
     inkscape:connector-curvature="0"
     style="fill:#bebebe;fill-opacity:1" />
  <path
     id="path6"
     d="m 586.25,247.9 -75.2,145.4 69.4,119.2 160.1,-264.6 -154.3,0 z"
     inkscape:connector-curvature="0"
     style="fill:#cccccc;fill-opacity:1" />
  <path
     id="path7"
     d="m 435.8,247.9 -79.75,0 155.6,264.6 -152.6,260.35 78.7,0 73.3,-140.4 0.025,0.05 69.375,-120 -69.4,-119.2 -75.25,-145.4 z"
     inkscape:connector-curvature="0"
     style="fill:#ffcc00;fill-opacity:1" />
  <path
     id="path8"
     d="m 361.21949,772.85 152.6,-260.35 -155.6,-264.6 -74.9,0 159.7,264.6 -157.4,260.35 75.6,0 z"
     inkscape:connector-curvature="0"
     style="fill:#ffcc00;fill-opacity:1" />
</svg>
