<?xml version="1.0" encoding="UTF-8" standalone="no"?>
<svg
   xmlns:dc="http://purl.org/dc/elements/1.1/"
   xmlns:cc="http://creativecommons.org/ns#"
   xmlns:rdf="http://www.w3.org/1999/02/22-rdf-syntax-ns#"
   xmlns:svg="http://www.w3.org/2000/svg"
   xmlns="http://www.w3.org/2000/svg"
   xmlns:xlink="http://www.w3.org/1999/xlink"
   xmlns:sodipodi="http://sodipodi.sourceforge.net/DTD/sodipodi-0.dtd"
   xmlns:inkscape="http://www.inkscape.org/namespaces/inkscape"
   viewBox="0 0 256 256"
   id="svg2"
   version="1.1"
   inkscape:version="0.91 r"
   sodipodi:docname="preferences-kcalc-constants.svg"
   width="256"
   height="256">
  <metadata
     id="metadata40">
    <rdf:RDF>
      <cc:Work
         rdf:about="">
        <dc:format>image/svg+xml</dc:format>
        <dc:type
           rdf:resource="http://purl.org/dc/dcmitype/StillImage" />
        <dc:title></dc:title>
      </cc:Work>
    </rdf:RDF>
  </metadata>
  <sodipodi:namedview
     pagecolor="#ffffff"
     bordercolor="#666666"
     borderopacity="1"
     objecttolerance="10"
     gridtolerance="10"
     guidetolerance="10"
     inkscape:pageopacity="0"
     inkscape:pageshadow="2"
     inkscape:window-width="1366"
     inkscape:window-height="744"
     id="namedview38"
     showgrid="false"
     inkscape:zoom="1.7383042"
     inkscape:cx="97.36864"
     inkscape:cy="111.5914"
     inkscape:window-x="0"
     inkscape:window-y="24"
     inkscape:window-maximized="1"
     inkscape:current-layer="svg2" />
  <defs
     id="defs4">
    <linearGradient
       inkscape:collect="always"
       id="linearGradient3410">
      <stop
         style="stop-color:#f4ba5f;stop-opacity:1;"
         offset="0"
         id="stop3412" />
      <stop
         id="stop3418"
         offset="0.42662403"
         style="stop-color:#ffeeaa;stop-opacity:1" />
      <stop
         style="stop-color:#c87137;stop-opacity:1"
         offset="0.6399262"
         id="stop3422" />
      <stop
         style="stop-color:#502d16;stop-opacity:1"
         offset="0.90675521"
         id="stop3420" />
      <stop
         style="stop-color:#f4ba5f;stop-opacity:0;"
         offset="1"
         id="stop3414" />
    </linearGradient>
    <linearGradient
       inkscape:collect="always"
       id="linearGradient3396">
      <stop
         style="stop-color:#86d0e3;stop-opacity:1;"
         offset="0"
         id="stop3398" />
      <stop
         id="stop3404"
         offset="0.0674232"
         style="stop-color:#d5f6ff;stop-opacity:1" />
      <stop
         style="stop-color:#00ccff;stop-opacity:1"
         offset="0.48262736"
         id="stop3408" />
      <stop
         style="stop-color:#004455;stop-opacity:1"
         offset="0.95640999"
         id="stop3406" />
      <stop
         style="stop-color:#86d0e3;stop-opacity:0;"
         offset="1"
         id="stop3400" />
    </linearGradient>
    <linearGradient
       inkscape:collect="always"
       id="linearGradient3382">
      <stop
         style="stop-color:#28a9c8;stop-opacity:1;"
         offset="0"
         id="stop3384" />
      <stop
         id="stop3390"
         offset="0.14903249"
         style="stop-color:#d5e5ff;stop-opacity:1" />
      <stop
         style="stop-color:#2a7fff;stop-opacity:1"
         offset="0.52311206"
         id="stop3394" />
      <stop
         style="stop-color:#003380;stop-opacity:1"
         offset="0.93031996"
         id="stop3392" />
      <stop
         style="stop-color:#28a9c8;stop-opacity:0;"
         offset="1"
         id="stop3386" />
    </linearGradient>
    <linearGradient
       inkscape:collect="always"
       id="linearGradient3368">
      <stop
         style="stop-color:#4cbed6;stop-opacity:1;"
         offset="0"
         id="stop3370" />
      <stop
         id="stop3376"
         offset="0.06714836"
         style="stop-color:#d7eef4;stop-opacity:1" />
      <stop
         style="stop-color:#37abc8;stop-opacity:1"
         offset="0.47938469"
         id="stop3380" />
      <stop
         style="stop-color:#164450;stop-opacity:1"
         offset="0.81675798"
         id="stop3378" />
      <stop
         style="stop-color:#4cbed6;stop-opacity:0;"
         offset="1"
         id="stop3372" />
    </linearGradient>
    <clipPath
       id="clipPath6">
      <g
         transform="translate(0,-1004.3622)"
         id="g8">
        <path
           d="m -24,13 c 0,1.105 -0.672,2 -1.5,2 -0.828,0 -1.5,-0.895 -1.5,-2 0,-1.105 0.672,-2 1.5,-2 0.828,0 1.5,0.895 1.5,2 z"
           transform="matrix(15.333333,0,0,11.5,414.99999,878.8622)"
           id="path10"
           inkscape:connector-curvature="0"
           style="fill:#1890d0" />
      </g>
    </clipPath>
    <clipPath
       id="clipPath12">
      <g
         transform="translate(0,-1004.3622)"
         id="g14">
        <path
           d="m -24,13 c 0,1.105 -0.672,2 -1.5,2 -0.828,0 -1.5,-0.895 -1.5,-2 0,-1.105 0.672,-2 1.5,-2 0.828,0 1.5,0.895 1.5,2 z"
           transform="matrix(15.333333,0,0,11.5,414.99999,878.8622)"
           id="path16"
           inkscape:connector-curvature="0"
           style="fill:#1890d0" />
      </g>
    </clipPath>
    <linearGradient
       inkscape:collect="always"
       xlink:href="#linearGradient3368"
       id="linearGradient3374"
       x1="-14.957107"
       y1="-15.529004"
       x2="172.00671"
       y2="174.31119"
       gradientUnits="userSpaceOnUse" />
    <linearGradient
       inkscape:collect="always"
       xlink:href="#linearGradient3382"
       id="linearGradient3388"
       x1="-39.118584"
       y1="96.07402"
       x2="147.26997"
       y2="272.68292"
       gradientUnits="userSpaceOnUse" />
    <linearGradient
       inkscape:collect="always"
       xlink:href="#linearGradient3396"
       id="linearGradient3402"
       x1="97.221191"
       y1="-21.85701"
       x2="285.91083"
       y2="173.16064"
       gradientUnits="userSpaceOnUse" />
    <linearGradient
       inkscape:collect="always"
       xlink:href="#linearGradient3410"
       id="linearGradient3416"
       x1="-9.2043734"
       y1="-4.5988107"
       x2="283.60974"
       y2="282.46259"
       gradientUnits="userSpaceOnUse" />
  </defs>
  <path
     d="m 191.61264,26.676957 c 31.2466,21.663028 51.66701,57.762741 51.66701,98.662243 0,66.26902 -53.70425,119.99461 -119.99461,119.99461 -40.899496,0 -76.999209,-20.41508 -98.662237,-51.66701 5.530418,9.71689 12.298115,18.66049 20.164428,26.50014 21.785689,19.79645 50.739057,31.83324 82.497629,31.83324 67.74629,0 122.66116,-54.9202 122.66116,-122.66116 0,-31.753245 -12.03146,-60.711945 -31.83324,-82.497634 -7.83431,-7.866314 -16.78324,-14.63401 -26.50014,-20.164429 z m 26.50014,20.164429 c 20.55375,21.935015 33.16652,51.395027 33.16652,83.830904 0,67.74629 -54.91487,122.66116 -122.66117,122.66116 -32.430538,0 -61.895883,-12.60743 -83.830899,-33.16651 C 66.972903,242.26728 97.4942,256 131.28468,256 c 67.74629,0 122.66116,-54.9202 122.66116,-122.66116 0,-33.785153 -13.73271,-64.317116 -35.83306,-86.497454 z"
     id="path18"
     inkscape:connector-curvature="0"
     style="opacity:0.05" />
  <path
     d="m 218.11812,46.841386 c 19.79644,21.785689 31.83324,50.739056 31.83324,82.497634 0,67.74629 -54.91487,122.66116 -122.66117,122.66116 -31.753236,0 -60.711936,-12.03146 -82.497626,-31.83324 21.935016,20.55375 51.395028,33.16651 83.830906,33.16651 67.74629,0 122.66116,-54.9202 122.66116,-122.66116 0,-32.430544 -12.60744,-61.895889 -33.16651,-83.830904 z"
     id="path20"
     inkscape:connector-curvature="0"
     style="opacity:0.1" />
  <path
     d="m 164.62718,12.677585 c 45.94461,16.820579 78.66314,60.887935 78.66314,112.688275 0,66.26903 -53.70426,119.99462 -119.99461,119.99462 -51.773678,0 -95.841034,-32.71853 -112.634947,-78.66314 A 122.66116,122.66116 0 0 0 249.98335,129.36568 122.66116,122.66116 0 0 0 164.65385,12.704251 Z"
     id="path22"
     inkscape:connector-curvature="0"
     style="opacity:0.2" />
  <path
     d="M 125.96225,5.344581 C 58.215962,5.344581 3.3010933,60.25945 3.3010933,128.00574 l 122.6611567,0 0,-122.661159 z"
     id="path24"
     inkscape:connector-curvature="0"
     style="fill:url(#linearGradient3374);fill-opacity:1;fill-rule:evenodd;stroke:none" />
  <path
     d="m 125.96225,128.00574 0,122.66117 c 67.7463,0 122.66116,-54.91487 122.66116,-122.66117 l -122.66116,0 z"
     id="path26"
     inkscape:connector-curvature="0"
     style="fill:url(#linearGradient3416);fill-opacity:1;fill-rule:evenodd;stroke:none" />
  <path
     d="m 125.96225,5.344581 0,122.661159 122.66116,0 c 0,-67.74629 -54.91486,-122.661159 -122.66116,-122.661159 z"
     id="path28"
     inkscape:connector-curvature="0"
     style="fill:url(#linearGradient3402);fill-opacity:1;fill-rule:evenodd;stroke:none" />
  <path
     d="m 3.3010933,128.00574 c 0,67.7463 54.9148687,122.66117 122.6611567,122.66117 l 0,-122.66117 -122.6611567,0 z"
     id="path30"
     inkscape:connector-curvature="0"
     style="fill:url(#linearGradient3388);fill-opacity:1;fill-rule:evenodd;stroke:none" />
  <path
     d="m 194.89783,69.341709 0,19.812445 -30.20665,0 -2.62388,41.208816 c -0.52264,7.14635 -0.7733,13.35407 -0.7733,18.5805 0,12.55944 1.37594,20.22843 4.16515,23.0603 2.87453,2.70921 6.29305,4.06382 10.27154,4.06382 8.33562,0 13.29007,-5.47709 14.85266,-16.41527 l 4.68779,0 c -2.87454,25.14554 -12.47944,37.70498 -28.91603,37.70498 -7.62633,0 -13.79138,-2.43723 -18.47917,-7.31167 -4.58113,-4.87445 -6.89569,-12.12213 -6.89569,-21.68436 0,-6.33572 0.91729,-19.72712 2.75187,-40.1422 l 3.49851,-39.038251 -27.60409,0 c -1.81326,32.894521 -4.04249,56.872111 -6.62371,72.119431 -2.52255,15.18865 -5.33309,25.00154 -8.47962,29.43868 -3.03986,4.4158 -7.189003,6.64503 -12.479432,6.64503 -3.999821,0 -7.37567,-1.22661 -10.143545,-3.66917 -2.68788,-2.43722 -4.063818,-5.64774 -4.063818,-9.62623 0,-3.79183 2.351895,-9.00226 7.039684,-15.5833 6.853026,-9.58357 11.978129,-19.51912 15.353981,-29.85466 3.39717,-10.37287 5.95706,-26.87879 7.70631,-49.475114 l -8.874261,0 c -7.125013,0 -12.580769,1.669258 -16.393931,5.002442 -3.749165,3.247854 -7.290339,7.956972 -10.666188,14.106032 l -4.687789,0 c 2.522553,-9.684897 5.770407,-17.625874 9.770228,-23.87626 3.99982,-6.229054 8.08497,-10.292872 12.250117,-12.207452 4.250476,-1.877249 11.748804,-2.853206 22.521654,-2.853206 l 83.07894,0"
     id="path32"
     inkscape:connector-curvature="0"
     style="opacity:0.1;fill:#000000;fill-opacity:1;fill-rule:nonzero;stroke:none" />
  <path
     d="m 189.56473,64.008615 0,19.812445 -30.20664,0 -2.62389,41.20882 c -0.52264,7.14634 -0.77329,13.35406 -0.77329,18.5805 0,12.55943 1.37593,20.22842 4.16514,23.0603 2.87454,2.70921 6.29305,4.06381 10.27154,4.06381 8.33563,0 13.29007,-5.47708 14.85267,-16.41526 l 4.68779,0 c -2.87454,25.14554 -12.47944,37.70497 -28.91604,37.70497 -7.62632,0 -13.79138,-2.43722 -18.47917,-7.31167 -4.58113,-4.87445 -6.89569,-12.12212 -6.89569,-21.68436 0,-6.33571 0.91729,-19.72711 2.75188,-40.1422 l 3.49851,-39.038245 -27.6041,0 c -1.81325,32.894525 -4.04248,56.872115 -6.6237,72.119435 -2.52255,15.18865 -5.33309,25.00154 -8.479616,29.43867 -3.039864,4.41581 -7.189011,6.64504 -12.479441,6.64504 -3.99982,0 -7.375669,-1.22661 -10.143544,-3.66917 -2.68788,-2.43722 -4.063818,-5.64775 -4.063818,-9.62623 0,-3.79183 2.351894,-9.00227 7.039684,-15.5833 6.853026,-9.58357 11.978129,-19.51913 15.353978,-29.85466 3.397181,-10.37287 5.957067,-26.8788 7.706317,-49.475118 l -8.874265,0 c -7.125013,0 -12.580769,1.669258 -16.393931,5.002442 -3.749165,3.247854 -7.290339,7.956976 -10.666188,14.106036 l -4.687789,0 c 2.522553,-9.684901 5.770407,-17.625878 9.770228,-23.876264 3.99982,-6.229054 8.08497,-10.292872 12.250117,-12.207452 4.250476,-1.877249 11.748806,-2.853206 22.521648,-2.853206 l 83.07894,0"
     id="path34"
     inkscape:connector-curvature="0"
     style="fill:#f9f9f9;fill-opacity:1;fill-rule:nonzero;stroke:none" />
  <path
     d="m 211.45175,40.175018 c 19.79644,21.780356 31.83324,50.739057 31.83324,82.497632 0,67.74629 -54.91487,122.66116 -122.66116,122.66116 -31.753243,0 -60.711944,-12.03146 -82.497633,-31.83324 22.281667,22.88431 53.384271,37.16634 87.830723,37.16634 67.74629,0 122.66116,-54.92021 122.66116,-122.66117 0,-34.46245 -14.27669,-65.549055 -37.16633,-87.830722 z"
     id="path36"
     inkscape:connector-curvature="0"
     style="opacity:0.1" />
</svg>
