<?xml version="1.0" encoding="UTF-8" standalone="no"?>
<!-- Created with Inkscape (http://www.inkscape.org/) -->

<svg
   xmlns:dc="http://purl.org/dc/elements/1.1/"
   xmlns:cc="http://creativecommons.org/ns#"
   xmlns:rdf="http://www.w3.org/1999/02/22-rdf-syntax-ns#"
   xmlns:svg="http://www.w3.org/2000/svg"
   xmlns="http://www.w3.org/2000/svg"
   xmlns:xlink="http://www.w3.org/1999/xlink"
   xmlns:sodipodi="http://sodipodi.sourceforge.net/DTD/sodipodi-0.dtd"
   xmlns:inkscape="http://www.inkscape.org/namespaces/inkscape"
   width="128"
   height="128"
   id="svg3066"
   version="1.1"
   inkscape:version="0.91 r"
   sodipodi:docname="scummvm.svg">
  <defs
     id="defs3068">
    <linearGradient
       inkscape:collect="always"
       id="linearGradient4233">
      <stop
         style="stop-color:#60822a;stop-opacity:1"
         offset="0"
         id="stop4235" />
      <stop
         id="stop4147"
         offset="0"
         style="stop-color:#73d216;stop-opacity:1" />
      <stop
         style="stop-color:#fce94f;stop-opacity:1"
         offset="1"
         id="stop4237" />
    </linearGradient>
    <linearGradient
       inkscape:collect="always"
       xlink:href="#linearGradient1373"
       id="linearGradient867"
       x1="26.25"
       y1="-1052.5408"
       x2="26.25"
       y2="-1004.6837"
       gradientUnits="userSpaceOnUse" />
    <linearGradient
       inkscape:collect="always"
       id="linearGradient1373">
      <stop
         style="stop-color:#282827;stop-opacity:1"
         offset="0"
         id="stop1375" />
      <stop
         style="stop-color:#292929;stop-opacity:1"
         offset="1"
         id="stop1377" />
    </linearGradient>
    <linearGradient
       inkscape:collect="always"
       xlink:href="#linearGradient4233"
       id="linearGradient4239"
       x1="32.779247"
       y1="1041.1317"
       x2="13.995275"
       y2="1015.3475"
       gradientUnits="userSpaceOnUse"
       gradientTransform="matrix(3.9714583,0,0,3.9714583,-30.803407,-3095.4606)" />
  </defs>
  <sodipodi:namedview
     id="base"
     pagecolor="#ffffff"
     bordercolor="#666666"
     borderopacity="1.0"
     inkscape:pageopacity="0.0"
     inkscape:pageshadow="2"
     inkscape:zoom="2.8284272"
     inkscape:cx="29.029798"
     inkscape:cy="43.728438"
     inkscape:document-units="px"
     inkscape:current-layer="layer1"
     showgrid="false"
     inkscape:window-width="1366"
     inkscape:window-height="744"
     inkscape:window-x="0"
     inkscape:window-y="24"
     inkscape:window-maximized="1">
    <inkscape:grid
       type="xygrid"
       id="grid3001" />
  </sodipodi:namedview>
  <metadata
     id="metadata3071">
    <rdf:RDF>
      <cc:Work
         rdf:about="">
        <dc:format>image/svg+xml</dc:format>
        <dc:type
           rdf:resource="http://purl.org/dc/dcmitype/StillImage" />
        <dc:title></dc:title>
      </cc:Work>
    </rdf:RDF>
  </metadata>
  <g
     inkscape:label="Capa 1"
     inkscape:groupmode="layer"
     id="layer1"
     transform="translate(0,-924.3622)">
    <path
       style="fill:url(#linearGradient4239);fill-opacity:1"
       d="m 61.602809,936.63567 c -2.818255,0.0671 -5.540247,0.29777 -7.368918,0.67466 -8.229938,1.70383 -14.757021,5.5636 -19.019561,11.24714 -2.328358,3.10459 -3.790288,6.45047 -4.700594,10.7819 -0.539053,2.5647 -0.601696,8.61171 -0.116366,10.88284 1.718578,8.05308 5.831352,14.25247 13.574322,20.44683 3.256063,2.60468 5.801755,4.30488 13.11667,8.76521 8.755313,5.33965 11.406703,7.46195 12.643511,10.13825 0.504124,1.091 0.593677,1.6205 0.511944,2.9089 -0.130569,2.0522 -0.859312,3.1683 -2.652807,4.0566 -1.183865,0.5866 -1.603993,0.6559 -3.862866,0.636 -4.116851,-0.047 -7.814269,-1.0305 -12.868454,-3.4593 -3.55344,-1.7084 -6.980461,-3.977 -9.889861,-6.5545 -2.91812,-2.5854 -3.193026,-2.7302 -4.033513,-2.1174 -0.65243,0.4756 -5.366349,6.2581 -8.889243,10.9058 -2.297812,3.0316 -2.369773,3.5662 -0.806704,5.6547 1.577089,2.1073 6.028007,6.6074 8.416082,8.5091 2.598239,2.0693 4.328893,3.1796 7.237054,4.6463 4.936181,2.4886 9.011727,3.5679 16.808882,4.46 1.771147,0.2013 8.062471,0.1482 10.285458,-0.098 12.143195,-1.3281 22.121734,-6.6129 27.334806,-14.4742 1.857737,-2.8012 2.924149,-5.1853 3.800809,-8.5091 0.86041,-3.2614 1.0696,-9.7564 0.44214,-13.582 -1.03084,-6.28438 -3.834256,-11.9162 -8.338517,-16.74699 -4.514221,-4.84141 -9.086409,-8.01925 -20.074482,-13.95471 -7.675015,-4.14578 -10.593856,-6.36966 -11.348133,-8.66399 -0.407475,-1.23999 -0.181344,-3.45603 0.434379,-4.28978 1.213029,-1.64204 3.619144,-2.29768 6.616514,-1.79945 5.626361,0.93412 12.882498,4.41084 19.252263,9.23073 1.233285,0.93327 2.435122,1.76953 2.67608,1.85369 1.038505,0.36151 1.615446,-0.30979 5.755514,-6.73285 5.102172,-7.91497 5.008262,-7.48803 2.218432,-10.20035 -8.360331,-8.12718 -18.063469,-12.87213 -29.204182,-14.29553 -2.214124,-0.28183 -5.13242,-0.38528 -7.950673,-0.31762 z"
       id="path4219"
       inkscape:connector-curvature="0" />
    <path
       inkscape:connector-curvature="0"
       style="fill:#e6e6e6"
       d="m 58.206671,1049.7272 c -9.478044,-1.3812 -16.52631,-3.47 -21.80005,-6.4605 -8.433721,-4.783 -16.703834,-12.8842 -18.977621,-18.5898 -0.480154,-1.2051 -0.569698,-1.8956 -0.574563,-4.4287 -0.0048,-2.8133 0.04289,-3.1136 0.767,-4.7839 1.24558,-2.8733 5.052375,-7.5375 11.665908,-14.2922 3.130146,-3.19677 3.765186,-4.1854 3.734638,-5.81095 -0.0286,-1.52937 -0.916695,-3.15771 -3.190913,-5.85214 -4.425908,-5.24374 -6.912207,-10.28143 -8.436676,-17.09396 -0.796357,-3.55977 -0.78387,-11.03969 0.02382,-14.79181 1.803936,-8.36959 4.75399,-13.7165 10.444443,-18.93033 6.642943,-6.08671 12.510542,-8.76017 23.353112,-10.63959 4.139297,-0.71771 11.459454,-0.77363 15.696023,-0.12022 9.401067,1.44968 17.103199,4.03339 23.536922,7.89511 6.250916,3.7524 12.507036,8.87956 14.407696,11.80801 2.22884,3.4345 2.71235,6.99091 1.45975,10.73688 -0.87623,2.62034 -1.61547,3.80693 -6.13732,9.84975 -4.554467,6.08615 -4.991391,6.8472 -4.983814,8.6816 0.0095,1.81875 0.542867,2.83003 3.346924,6.32577 5.28708,6.5897 7.01454,10.10613 8.72966,17.77008 2.21624,9.9036 0.22085,22.0239 -4.82127,29.2855 -5.09676,7.3404 -11.920273,12.7393 -19.921167,15.7628 -2.379162,0.8989 -7.408751,2.2208 -11.381914,2.9911 -3.146113,0.6101 -4.11075,0.6819 -9.841195,0.7359 -3.494202,0.048 -6.689451,0 -7.100546,-0.048 z m 11.781806,-10.6097 c 12.143192,-1.328 22.118161,-6.6092 27.331232,-14.4705 1.857737,-2.8015 2.924031,-5.1898 3.800691,-8.5136 0.86041,-3.2614 1.07354,-9.7516 0.44608,-13.5773 -1.03084,-6.28432 -3.836724,-11.91893 -8.340985,-16.74972 -4.514224,-4.84141 -9.082151,-8.01674 -20.070224,-13.9522 -7.675012,-4.14578 -10.593797,-6.37553 -11.348072,-8.66958 -0.407474,-1.23999 -0.184922,-3.4552 0.430823,-4.28894 1.213032,-1.64204 3.619546,-2.29657 6.616917,-1.79833 5.626361,0.93411 12.879363,4.41307 19.249129,9.23296 1.233285,0.93328 2.439497,1.76618 2.680453,1.85034 1.038504,0.36123 1.611109,-0.30588 5.751176,-6.72838 5.102173,-7.91525 5.009103,-7.48719 2.219267,-10.19923 -8.360329,-8.12718 -18.064219,-12.87996 -29.204935,-14.30309 -4.428251,-0.56617 -11.658472,-0.39338 -15.315808,0.36124 -8.229938,1.70383 -14.756356,5.56276 -19.018893,11.2463 -2.32836,3.10459 -3.787542,6.45466 -4.697846,10.78582 -0.539055,2.56469 -0.60687,8.60863 -0.121538,10.87976 1.718576,8.05308 5.835477,14.25191 13.578446,20.44627 3.256066,2.60496 5.796972,4.3032 13.111886,8.76353 8.755314,5.33935 11.40684,7.46615 12.643645,10.14245 0.504127,1.091 0.598154,1.6208 0.516423,2.9091 -0.130569,2.0525 -0.860223,3.1684 -2.653718,4.0569 -1.183865,0.5866 -1.602822,0.6554 -3.861695,0.6355 -4.11685,-0.048 -7.816075,-1.0314 -12.87026,-3.4599 -3.553439,-1.7086 -6.983593,-3.9831 -9.892992,-6.5606 -2.91812,-2.5854 -3.190342,-2.7283 -4.030831,-2.1157 -0.652431,0.4759 -5.363383,6.2573 -8.886277,10.9049 -2.297809,3.0313 -2.374535,3.5659 -0.811465,5.6545 1.577088,2.1073 6.032781,6.6123 8.420854,8.5141 2.598239,2.0693 4.322158,3.1759 7.230318,4.6426 4.936181,2.4887 9.014859,3.5721 16.812017,4.464 1.771144,0.2013 8.063944,0.1426 10.286931,-0.1035 z"
       id="path4133" />
    <path
       style="fill:#263211;fill-opacity:0.31372549"
       d="m 100.04529,952.59897 c -0.62298,1.21762 -1.732948,2.9195 -3.506058,5.67012 -4.140068,6.42307 -4.717009,7.09437 -5.755514,6.73286 -0.240952,-0.0839 -1.442795,-0.9207 -2.67608,-1.85398 -6.369766,-4.8196 -13.625902,-8.29633 -19.252263,-9.23044 -2.99737,-0.49852 -5.403482,0.15657 -6.616514,1.79945 -0.614635,0.83235 -0.838918,3.04084 -0.434377,4.28195 0.108454,-0.44595 0.246125,-0.8466 0.434377,-1.10159 1.213032,-1.64205 3.619144,-2.29797 6.616514,-1.79946 5.626361,0.93412 12.882497,4.41057 19.252263,9.23045 1.233285,0.93328 2.435125,1.76954 2.67608,1.85397 1.038505,0.36124 1.615446,-0.31006 5.755514,-6.73285 4.044428,-6.27432 4.746278,-7.34124 3.506058,-8.85048 z m -69.927146,11.2628 c -0.07577,2.45454 -0.0039,5.03517 0.279229,6.36044 1.718578,8.0528 5.831352,14.25247 13.574322,20.44683 3.256063,2.60496 5.801755,4.30488 13.11667,8.76521 8.755313,5.33935 11.406703,7.46195 12.643511,10.13825 0.171138,0.3705 0.232928,0.6459 0.318027,0.9386 0.0919,-0.3691 0.165127,-0.7577 0.193925,-1.2101 0.08172,-1.2883 -0.0078,-1.8179 -0.511947,-2.9089 -1.236808,-2.6762 -3.888197,-4.7986 -12.64351,-10.13821 -7.314915,-4.46033 -9.860608,-6.16025 -13.11667,-8.76521 -7.74297,-6.19408 -11.855744,-12.39375 -13.574323,-20.44683 -0.156711,-0.73337 -0.234382,-1.90374 -0.279228,-3.18008 z m 71.765496,42.69333 c -0.0884,2.444 -0.34056,4.8087 -0.76016,6.3993 -0.87667,3.3238 -1.943078,5.7076 -3.800815,8.5091 -5.213072,7.8613 -15.191611,13.1462 -27.334806,14.4742 -2.222988,0.2461 -8.514305,0.3034 -10.285455,0.1007 -7.797155,-0.8922 -11.872704,-1.9717 -16.808885,-4.4603 -2.908161,-1.4665 -4.638815,-2.577 -7.237054,-4.6463 -2.388072,-1.9018 -6.838993,-6.4018 -8.416079,-8.5091 -0.204941,-0.274 -0.302504,-0.4686 -0.449891,-0.6981 -0.970078,1.5802 -0.741517,2.2865 0.449891,3.8785 1.577086,2.107 6.028007,6.607 8.416079,8.5091 2.598239,2.0689 4.328893,3.1795 7.237054,4.6462 4.936181,2.4884 9.01173,3.5682 16.808885,4.4601 1.77115,0.2013 8.062467,0.1453 10.285455,-0.1007 12.143195,-1.3281 22.121734,-6.6132 27.334806,-14.4742 1.857737,-2.8015 2.924145,-5.1856 3.800815,-8.5091 0.60363,-2.2882 0.86161,-6.1468 0.76016,-9.5796 z"
       id="path4410"
       inkscape:connector-curvature="0" />
  </g>
</svg>
