<?xml version="1.0" encoding="UTF-8" standalone="no"?>
<svg
   xmlns:dc="http://purl.org/dc/elements/1.1/"
   xmlns:cc="http://creativecommons.org/ns#"
   xmlns:rdf="http://www.w3.org/1999/02/22-rdf-syntax-ns#"
   xmlns:svg="http://www.w3.org/2000/svg"
   xmlns="http://www.w3.org/2000/svg"
   xmlns:sodipodi="http://sodipodi.sourceforge.net/DTD/sodipodi-0.dtd"
   xmlns:inkscape="http://www.inkscape.org/namespaces/inkscape"
   viewBox="0 0 128 128"
   id="svg2"
   version="1.1"
   inkscape:version="0.91 r"
   sodipodi:docname="scuolabook.svg"
   width="128"
   height="128">
  <metadata
     id="metadata21">
    <rdf:RDF>
      <cc:Work
         rdf:about="">
        <dc:format>image/svg+xml</dc:format>
        <dc:type
           rdf:resource="http://purl.org/dc/dcmitype/StillImage" />
        <dc:title></dc:title>
      </cc:Work>
    </rdf:RDF>
  </metadata>
  <sodipodi:namedview
     pagecolor="#ffffff"
     bordercolor="#666666"
     borderopacity="1"
     objecttolerance="10"
     gridtolerance="10"
     guidetolerance="10"
     inkscape:pageopacity="0"
     inkscape:pageshadow="2"
     inkscape:window-width="1366"
     inkscape:window-height="744"
     id="namedview19"
     showgrid="false"
     inkscape:zoom="2.4583333"
     inkscape:cx="147.05411"
     inkscape:cy="45.768948"
     inkscape:window-x="0"
     inkscape:window-y="24"
     inkscape:window-maximized="1"
     inkscape:current-layer="svg2" />
  <defs
     id="defs4">
    <linearGradient
       id="0"
       y1="48.610001"
       x2="0"
       y2="-1.22"
       gradientUnits="userSpaceOnUse"
       gradientTransform="matrix(2.4745763,0,0,2.4745763,4.881356,4.7457627)">
      <stop
         stop-color="#c52828"
         id="stop7" />
      <stop
         stop-color="#ff5454"
         offset="1"
         id="stop9" />
    </linearGradient>
  </defs>
  <circle
     r="59.389832"
     cy="64.135597"
     cx="64.271187"
     id="circle11"
     style="fill:url(#0);fill-rule:evenodd" />
  <g
     transform="matrix(2.4745515,0,0,2.4745515,-102.44101,56.419864)"
     id="g13"
     style="fill:#ffffff;fill-opacity:0.85500004;enable-background:new">
    <path
       d="m 66.828,-5.545 c -0.235,-0.809 -1.026,-1.337 -2.273,-1.52 -0.993,-0.145 -3.737,0 -8.896,0.465 -3.635,0.329 -3.63,0.328 -3.843,0.749 -0.095,0.188 -0.1,0.749 -0.086,9.825 l 0.015,9.625 0.14,0.149 c 0.253,0.269 0.406,0.275 2.309,0.092 6.134,-0.59 9.596,-0.767 10.684,-0.548 0.536,0.108 1.18,0.395 1.484,0.662 0.224,0.197 0.486,0.646 0.511,0.875 0.008,0.072 0.021,-4.415 0.029,-9.972 0.013,-8.874 0.004,-10.14 -0.072,-10.403"
       id="path15"
       inkscape:connector-curvature="0" />
    <path
       d="m 68.05,14.381 c 0.25,-0.486 0.97,-0.916 1.821,-1.088 1.129,-0.228 4.913,-0.024 11.284,0.606 1.261,0.125 1.468,0.107 1.709,-0.15 l 0.14,-0.149 0.015,-9.625 c 0.014,-9.08 0.009,-9.636 -0.086,-9.825 -0.136,-0.269 -0.371,-0.392 -0.882,-0.461 -0.591,-0.08 -5.142,-0.49 -7.136,-0.642 -2.175,-0.166 -4.627,-0.183 -5.2,-0.035 -0.832,0.214 -1.417,0.622 -1.692,1.182 l -0.162,0.329 -0.009,10.22 c -0.005,5.621 10e-4,10.142 0.034,10.05 0.023,-0.095 0.097,-0.279 0.164,-0.408"
       id="path17"
       inkscape:connector-curvature="0" />
  </g>
</svg>
