<?xml version="1.0" encoding="UTF-8" standalone="no"?>
<!-- Generator: Adobe Illustrator 16.0.0, SVG Export Plug-In . SVG Version: 6.00 Build 0) -->

<svg
   xmlns:dc="http://purl.org/dc/elements/1.1/"
   xmlns:cc="http://creativecommons.org/ns#"
   xmlns:rdf="http://www.w3.org/1999/02/22-rdf-syntax-ns#"
   xmlns:svg="http://www.w3.org/2000/svg"
   xmlns="http://www.w3.org/2000/svg"
   xmlns:xlink="http://www.w3.org/1999/xlink"
   xmlns:sodipodi="http://sodipodi.sourceforge.net/DTD/sodipodi-0.dtd"
   xmlns:inkscape="http://www.inkscape.org/namespaces/inkscape"
   version="1.1"
   id="Layer_1"
   x="0px"
   y="0px"
   width="128"
   height="128"
   viewBox="1.464 25.444 128 128"
   enable-background="new 1.464 25.444 498.152 149.23"
   xml:space="preserve"
   inkscape:version="0.91 r"
   sodipodi:docname="Slack.svg"><metadata
     id="metadata51"><rdf:RDF><cc:Work
         rdf:about=""><dc:format>image/svg+xml</dc:format><dc:type
           rdf:resource="http://purl.org/dc/dcmitype/StillImage" /><dc:title>background</dc:title></cc:Work></rdf:RDF></metadata><defs
     id="defs49"><linearGradient
       inkscape:collect="always"
       id="linearGradient4157"><stop
         style="stop-color:#cccccc;stop-opacity:1;"
         offset="0"
         id="stop4159" /><stop
         id="stop4165"
         offset="0.07263283"
         style="stop-color:#f9f9f9;stop-opacity:1" /><stop
         style="stop-color:#e6e6e6;stop-opacity:1"
         offset="0.47989792"
         id="stop4167" /><stop
         id="stop4169"
         offset="0.89388198"
         style="stop-color:#b3b3b3;stop-opacity:1" /><stop
         style="stop-color:#cccccc;stop-opacity:0;"
         offset="1"
         id="stop4161" /></linearGradient><linearGradient
       inkscape:collect="always"
       xlink:href="#linearGradient4157"
       id="linearGradient4163"
       x1="-4.7454762"
       y1="17.682264"
       x2="141.45947"
       y2="166.7097"
       gradientUnits="userSpaceOnUse"
       gradientTransform="translate(0.28224893,0)" /></defs><sodipodi:namedview
     pagecolor="#ffffff"
     bordercolor="#666666"
     borderopacity="1"
     objecttolerance="10"
     gridtolerance="10"
     guidetolerance="10"
     inkscape:pageopacity="0"
     inkscape:pageshadow="2"
     inkscape:window-width="1366"
     inkscape:window-height="744"
     id="namedview47"
     showgrid="false"
     inkscape:zoom="3.5429718"
     inkscape:cx="33.077319"
     inkscape:cy="68.89043"
     inkscape:window-x="0"
     inkscape:window-y="24"
     inkscape:window-maximized="1"
     inkscape:current-layer="Layer_1" /><title
     id="title3">background</title><title
     id="title5">Layer 1</title><circle
     style="opacity:1;fill:url(#linearGradient4163);fill-opacity:1;fill-rule:nonzero;stroke:none;stroke-width:9.44200039;stroke-miterlimit:4;stroke-dasharray:none;stroke-opacity:1"
     id="path3355"
     cx="65.393387"
     cy="89.232368"
     r="61.389141" /><g
     id="g21"
     transform="matrix(0.71807068,0,0,0.71807068,11.929894,16.186311)"><g
       id="g23"><path
         d="M 13.997,105.78 C 8.503,105.822 3.849,102.548 2.133,97.438 2.067,97.24 2.01,97.048 1.955,96.855 0.085,90.311 3.711,83.465 10.21,81.273 L 114.45,46.35 c 1.267,-0.363 2.543,-0.548 3.807,-0.556 5.64,-0.044 10.422,3.302 12.18,8.52 l 0.156,0.504 c 1.95,6.816 -2.895,12.9 -8.7,14.85 -0.004,0.003 -1.06,0.36 -103.662,35.391 -1.387,0.471 -2.81,0.709 -4.234,0.721 l 0,0 z"
         id="path25"
         inkscape:connector-curvature="0"
         style="fill:#70cadb" /></g><g
       id="g27"><path
         d="m 31.372,157.045 c -5.537,0.04 -10.207,-3.188 -11.903,-8.225 -0.064,-0.192 -0.125,-0.385 -0.18,-0.579 -1.896,-6.622 1.726,-13.54 8.247,-15.735 L 131.78,97.263 c 1.347,-0.45 2.738,-0.68 4.137,-0.693 5.552,-0.042 10.43,3.35 12.151,8.444 l 0.16,0.53 c 1.007,3.521 0.412,7.478 -1.59,10.601 -1.492,2.322 -6.198,4.366 -6.198,4.366 L 35.8,156.29 c -1.458,0.487 -2.945,0.744 -4.428,0.757 l 0,-0.002 z"
         id="path29"
         inkscape:connector-curvature="0"
         style="fill:#e01765" /></g><g
       id="g31"><path
         d="m 118.148,157.268 c -5.56,0.043 -10.483,-3.465 -12.255,-8.723 l -34.79,-103.34 -0.174,-0.58 c -1.885,-6.59 1.74,-13.464 8.237,-15.654 1.3,-0.437 2.644,-0.665 3.997,-0.677 2.01,-0.015 3.955,0.438 5.787,1.343 3.063,1.525 5.354,4.15 6.449,7.392 l 34.787,103.331 0.101,0.332 c 1.954,6.842 -1.663,13.72 -8.16,15.91 -1.287,0.429 -2.627,0.654 -3.979,0.666 l 0,0 z"
         id="path33"
         inkscape:connector-curvature="0"
         style="fill:#e8a723" /></g><g
       id="g35"><path
         d="m 66.435,174.674 c -5.56,0.043 -10.487,-3.465 -12.26,-8.73 L 19.394,62.608 c -0.06,-0.19 -0.12,-0.38 -0.178,-0.575 -1.88,-6.588 1.734,-13.463 8.229,-15.655 1.295,-0.43 2.634,-0.657 3.985,-0.668 5.561,-0.044 10.485,3.463 12.257,8.723 l 34.782,103.34 c 0.065,0.18 0.124,0.379 0.177,0.569 1.884,6.593 -1.732,13.472 -8.237,15.664 -1.292,0.431 -2.629,0.656 -3.978,0.667 l 0.004,0 z"
         id="path37"
         inkscape:connector-curvature="0"
         style="fill:#3eb890" /></g><path
       d="m 100.997,133.996 24.258,-8.294 -7.93,-23.55 -24.286,8.207 7.958,23.637 z"
       id="path39"
       inkscape:connector-curvature="0"
       style="fill:#cc2027" /><path
       d="m 49.364,151.65 24.256,-8.293 -7.99,-23.73 -24.28,8.21 8.014,23.813 z"
       id="path41"
       inkscape:connector-curvature="0"
       style="fill:#361238" /><path
       d="M 83.727,82.7 107.987,74.417 100.15,51.142 75.845,59.285 83.727,82.7 Z"
       id="path43"
       inkscape:connector-curvature="0"
       style="fill:#65863a" /><path
       d="m 32.088,100.33 24.26,-8.283 -7.933,-23.572 -24.305,8.142 7.978,23.713 0,0 z"
       id="path45"
       inkscape:connector-curvature="0"
       style="fill:#1a937d" /></g></svg>