<?xml version="1.0" encoding="UTF-8" standalone="no"?>
<!-- Created with Inkscape (http://www.inkscape.org/) -->

<svg
   xmlns:dc="http://purl.org/dc/elements/1.1/"
   xmlns:cc="http://creativecommons.org/ns#"
   xmlns:rdf="http://www.w3.org/1999/02/22-rdf-syntax-ns#"
   xmlns:svg="http://www.w3.org/2000/svg"
   xmlns="http://www.w3.org/2000/svg"
   xmlns:xlink="http://www.w3.org/1999/xlink"
   xmlns:sodipodi="http://sodipodi.sourceforge.net/DTD/sodipodi-0.dtd"
   xmlns:inkscape="http://www.inkscape.org/namespaces/inkscape"
   id="svg2"
   version="1.1"
   inkscape:version="0.91 r"
   width="512"
   height="512"
   sodipodi:docname="supercollinder.svg">
  <metadata
     id="metadata8">
    <rdf:RDF>
      <cc:Work
         rdf:about="">
        <dc:format>image/svg+xml</dc:format>
        <dc:type
           rdf:resource="http://purl.org/dc/dcmitype/StillImage" />
        <dc:title />
      </cc:Work>
    </rdf:RDF>
  </metadata>
  <defs
     id="defs6">
    <linearGradient
       inkscape:collect="always"
       id="linearGradient3367">
      <stop
         style="stop-color:#420032;stop-opacity:1;"
         offset="0"
         id="stop3369" />
      <stop
         id="stop3375"
         offset="0.09124625"
         style="stop-color:#e8c4ac;stop-opacity:1" />
      <stop
         style="stop-color:#cc7b45;stop-opacity:1"
         offset="0.49570161"
         id="stop3379" />
      <stop
         style="stop-color:#6b3e1d;stop-opacity:1"
         offset="0.917386"
         id="stop3377" />
      <stop
         style="stop-color:#420032;stop-opacity:0;"
         offset="1"
         id="stop3371" />
    </linearGradient>
    <linearGradient
       inkscape:collect="always"
       xlink:href="#linearGradient3367"
       id="linearGradient3373"
       x1="-52.067795"
       y1="-62.915253"
       x2="574.91528"
       y2="570.57629"
       gradientUnits="userSpaceOnUse" />
  </defs>
  <sodipodi:namedview
     pagecolor="#ffffff"
     bordercolor="#666666"
     borderopacity="1"
     objecttolerance="10"
     gridtolerance="10"
     guidetolerance="10"
     inkscape:pageopacity="0"
     inkscape:pageshadow="2"
     inkscape:window-width="1366"
     inkscape:window-height="744"
     id="namedview4"
     showgrid="false"
     inkscape:zoom="0.65186406"
     inkscape:cx="-152.07858"
     inkscape:cy="203.24983"
     inkscape:window-x="0"
     inkscape:window-y="24"
     inkscape:window-maximized="1"
     inkscape:current-layer="svg2" />
  <rect
     style="fill:#ffffff;fill-opacity:0;fill-rule:nonzero;stroke:none"
     id="rect3775"
     width="330.16949"
     height="330.16949"
     x="1182.2664"
     y="47.62085"
     ry="0" />
  <path
     style="fill:#000000;fill-opacity:0.09589042;fill-rule:nonzero;stroke:none"
     d="m 1193.7982,47.429757 c -6.4802,0 -11.7319,4.923515 -11.7319,10.998737 l 0,287.727216 c 0,6.07546 5.2517,10.99911 11.7319,10.99911 l 306.9057,0 c 6.4802,0 11.7319,-4.92365 11.7319,-10.99911 l 0,-287.727216 c 0,-6.075222 -5.2517,-10.998737 -11.7319,-10.998737 z"
     id="rect3772"
     inkscape:connector-curvature="0"
     sodipodi:nodetypes="sssssssss" />
  <path
     style="fill:#000000;fill-opacity:0.18721463;fill-rule:nonzero;stroke:none"
     d="m 1185.8637,341.48691 0,25.52588 c 0,5.98157 5.0279,10.77763 11.2987,10.77763 l 297.0962,0 c 6.2708,0 11.2987,-4.79606 11.2987,-10.77763 l 0,-25.52588 -319.6936,0 z"
     id="rect3785"
     inkscape:connector-curvature="0" />
  <path
     style="fill:#000000;fill-opacity:0.38356168;fill-rule:nonzero;stroke:none"
     d="m 1185.8637,341.48691 0,18.50565 c 0,6.05999 5.0279,10.91933 11.2987,10.91933 l 297.0962,0 c 6.2708,0 11.2987,-4.85934 11.2987,-10.91933 l 0,-18.50565 -319.6936,0 z"
     id="rect3783"
     inkscape:connector-curvature="0" />
  <rect
     style="fill:#ff9900;fill-opacity:1;fill-rule:nonzero;stroke:none"
     id="rect2985"
     width="319.6936"
     height="306.09464"
     x="1185.8636"
     y="51.060116"
     ry="10.837605" />
  <path
     style="fill:#000000;fill-opacity:0.38356168;fill-rule:nonzero;stroke:none"
     d="m 1185.7056,343.39776 0.1581,9.44319 c 0.104,6.21063 5.0279,11.19241 11.2987,11.19241 l 297.0962,0 c 6.2708,0 11.2987,-4.98041 11.2987,-11.19241 l -0.1582,-9.44319 z"
     id="rect3781"
     inkscape:connector-curvature="0"
     sodipodi:nodetypes="csssscc" />
  <rect
     style="fill:#ffffff;fill-opacity:0.3;fill-rule:nonzero;stroke:none"
     id="rect3770"
     width="319.6936"
     height="6.8785486"
     x="1185.8636"
     y="336.51917" />
  <rect
     style="opacity:1;fill:url(#linearGradient3373);fill-opacity:1;fill-rule:nonzero;stroke:none;stroke-width:17.54899979;stroke-miterlimit:4;stroke-dasharray:none;stroke-opacity:1"
     id="rect3365"
     width="457.76273"
     height="457.76273"
     x="26.033897"
     y="28.20339"
     ry="56.062801" />
  <path
     style="color:#000000;font-style:normal;font-variant:normal;font-weight:normal;font-stretch:normal;font-size:medium;line-height:normal;font-family:Sans;-inkscape-font-specification:Sans;text-indent:0;text-align:start;text-decoration:none;text-decoration-line:none;letter-spacing:normal;word-spacing:normal;text-transform:none;direction:ltr;block-progression:tb;writing-mode:lr-tb;baseline-shift:baseline;text-anchor:start;display:inline;overflow:visible;visibility:visible;opacity:0.58436213;fill:#000000;fill-opacity:1;stroke:none;stroke-width:4.40246916;marker:none;enable-background:accumulate"
     d="m 26.153977,151.12919 0,39.94555 C 88.022623,121.5525 212.88338,96.10142 307.90603,140.80107 396.44418,182.4503 429.72932,274.81843 374.7502,343.71846 325.98143,404.8357 218.62329,427.67664 138.99862,389.13159 69.350163,355.41621 43.381173,281.99272 88.146693,227.83072 126.61523,181.28756 209.63138,163.93689 270.17135,194.56807 c 50.83117,25.71878 69.52341,80.43798 35.03933,119.83649 -28.05003,32.04781 -86.89038,43.74655 -128.29777,21.11216 -32.16336,-17.58115 -43.60388,-53.49193 -19.58608,-78.06859 17.32585,-17.72914 52.06445,-24.0808 74.21149,-9.72059 6.92768,4.49193 11.73065,11.65942 12.9375,18.52998 1.207,6.87002 -0.65472,12.8234 -7.00781,17.61857 -2.37611,1.79345 -7.69729,3.35651 -11.67977,3.64522 a 16.32137,12.612965 0 0 0 -4.13284,-20.20084 c -5.86328,-2.41018 -15.14305,-3.19959 -21.92206,-0.30135 -6.77888,2.89577 -9.61993,7.26372 -11.14065,10.78403 -3.04158,7.03965 -3.69928,12.59983 1.97661,20.35248 7.82307,10.68487 23.2424,15.31722 36.11744,14.88465 12.8749,-0.43256 24.59156,-4.43843 33.6017,-11.23943 14.22731,-10.73882 19.05642,-25.53258 16.71111,-38.88245 -2.34517,-13.34978 -11.25427,-25.84846 -24.79704,-34.6296 -37.93535,-24.59746 -93.3835,-14.39887 -121.1102,13.97335 -36.030227,36.86882 -19.19194,88.59063 27.13302,113.91324 57.36188,31.35522 136.29918,15.7182 174.11836,-27.49127 45.29236,-51.74757 21.10172,-121.94052 -44.38311,-155.07363 -76.53433,-38.72376 -179.55373,-17.4401 -227.486027,40.55307 -54.9875956,66.53001 -23.3204,155.58713 61.273827,196.53801 95.63569,46.29529 222.80362,18.9814 280.85358,-53.767 C 435.02973,316.2957 441.46209,269.01136 426.86,225.85864 412.33805,182.94269 376.893,144.10311 325.5155,119.69159 l -0.71874,-0.45541 C 227.01883,73.237774 102.99381,90.85294 26.153977,151.12919 Z"
     id="path3003"
     inkscape:connector-curvature="0" />
</svg>
