<?xml version="1.0" encoding="UTF-8" standalone="no"?>
<!-- Created with Inkscape (http://www.inkscape.org/) -->

<svg
   xmlns:dc="http://purl.org/dc/elements/1.1/"
   xmlns:cc="http://creativecommons.org/ns#"
   xmlns:rdf="http://www.w3.org/1999/02/22-rdf-syntax-ns#"
   xmlns:svg="http://www.w3.org/2000/svg"
   xmlns="http://www.w3.org/2000/svg"
   xmlns:xlink="http://www.w3.org/1999/xlink"
   xmlns:sodipodi="http://sodipodi.sourceforge.net/DTD/sodipodi-0.dtd"
   xmlns:inkscape="http://www.inkscape.org/namespaces/inkscape"
   id="svg2"
   version="1.1"
   inkscape:version="0.91 r"
   width="320"
   height="320"
   viewBox="0 0 320 320"
   sodipodi:docname="turpial.svg">
  <metadata
     id="metadata8">
    <rdf:RDF>
      <cc:Work
         rdf:about="">
        <dc:format>image/svg+xml</dc:format>
        <dc:type
           rdf:resource="http://purl.org/dc/dcmitype/StillImage" />
        <dc:title />
      </cc:Work>
    </rdf:RDF>
  </metadata>
  <defs
     id="defs6">
    <linearGradient
       inkscape:collect="always"
       id="linearGradient3334">
      <stop
         style="stop-color:#2ca5e0;stop-opacity:1;"
         offset="0"
         id="stop3336" />
      <stop
         id="stop3342"
         offset="0.1778792"
         style="stop-color:#80b3ff;stop-opacity:1" />
      <stop
         style="stop-color:#81005f;stop-opacity:1"
         offset="0.48619238"
         id="stop3373" />
      <stop
         style="stop-color:#420032;stop-opacity:1"
         offset="0.79774493"
         id="stop3344" />
      <stop
         style="stop-color:#2ca5e0;stop-opacity:0;"
         offset="1"
         id="stop3338" />
    </linearGradient>
    <linearGradient
       inkscape:collect="always"
       xlink:href="#linearGradient3334"
       id="linearGradient3340"
       x1="-32.542374"
       y1="-28.474577"
       x2="362.03391"
       y2="362.03391"
       gradientUnits="userSpaceOnUse" />
    <linearGradient
       id="linearGradient3790">
      <stop
         id="stop3792"
         offset="0"
         style="stop-color:#6a0050;stop-opacity:1;" />
      <stop
         id="stop3794"
         offset="1"
         style="stop-color:#9b0070;stop-opacity:1;" />
    </linearGradient>
  </defs>
  <sodipodi:namedview
     pagecolor="#ffffff"
     bordercolor="#666666"
     borderopacity="1"
     objecttolerance="10"
     gridtolerance="10"
     guidetolerance="10"
     inkscape:pageopacity="0"
     inkscape:pageshadow="2"
     inkscape:window-width="1366"
     inkscape:window-height="744"
     id="namedview4"
     showgrid="false"
     showguides="false"
     inkscape:zoom="1.475"
     inkscape:cx="156.45526"
     inkscape:cy="189.8017"
     inkscape:window-x="0"
     inkscape:window-y="24"
     inkscape:window-maximized="1"
     inkscape:current-layer="svg2" />
  <circle
     style="opacity:1;fill:url(#linearGradient3340);fill-opacity:1;stroke:none;stroke-width:60;stroke-miterlimit:4;stroke-dasharray:none;stroke-dashoffset:0;stroke-opacity:1"
     id="path3344"
     cx="159.99998"
     cy="160"
     r="147.7966" />
  <path
     style="fill:#ffffff;fill-opacity:1;fill-rule:nonzero;stroke:none"
     d="M 186.40723,77.513698 C 132.80771,78.285629 94.458739,143.86037 62.966417,183.84227 c 11.016979,6.24277 30.977269,13.04748 53.431033,13.04748 14.68123,0 30.39738,-2.89609 45.56794,-10.61312 18.51404,-9.41637 27.76094,-26.66656 27.75763,-42.25901 -0.003,-8.94422 -3.00765,-17.34577 -8.99992,-23.46635 -5.9991,-6.10952 -15.02242,-10.12663 -27.56814,-10.12663 -4.18193,0 -8.79164,0.48166 -13.73668,1.46103 l -0.8526,-4.47889 c 5.19486,-1.03076 10.09593,-1.55805 14.58928,-1.55805 13.46285,0 23.78155,4.42624 30.69441,11.48947 6.91626,7.06001 10.32957,16.69031 10.32617,26.67942 -0.003,17.42478 -10.26589,36.19701 -30.22069,46.34916 -15.88242,8.07818 -32.31838,11.09993 -47.5574,11.09993 -23.53438,0 -44.180004,-7.0433 -55.894112,-13.72931 l 1.421035,-2.62938 c -1.834519,2.30678 -3.704918,4.61318 -5.494688,6.71877 20.314098,13.05981 40.082913,21.66717 58.641475,26.38712 8.01369,2.03774 15.77992,3.3455 23.30497,3.99224 l 4.92633,28.04292 4.35781,-0.77894 -4.7368,-26.97181 c 3.82853,0.1927 7.60005,0.15416 11.2736,0 l 4.92626,27.75075 4.35783,-0.77894 -4.73682,-27.16645 c 48.6859,-3.93638 82.1636,-38.20587 84.03073,-85.8809 0.23934,-6.09553 -0.0435,-12.40027 -0.8526,-18.88998 l 18.8524,-10.02901 -20.74713,-1.36345 17.71558,-14.702541 -23.96814,1.752649 C 216.72566,81.925143 201.02065,77.303064 186.40723,77.513698 Z m 17.52614,20.350251 c 1.36889,0 2.594,0.398183 3.88415,1.071217 1.29017,0.676926 2.63053,1.670444 3.97891,2.823874 2.69329,2.30754 5.53053,5.50648 8.33679,9.3476 l -3.50527,2.72629 c -3.93895,-5.42042 -8.08607,-9.40928 -10.7999,-10.80804 -0.88971,-0.46883 -1.56957,-0.59085 -1.89468,-0.59085 l -0.28445,0 -0.18924,0.1927 c -0.20544,0.28908 -0.5786,1.29604 -0.56859,2.92085 -0.008,2.44049 0.62521,6.2386 2.1789,11.49009 l -4.16835,1.3628 c -1.62211,-5.51158 -2.45649,-9.65909 -2.46316,-12.85289 0.003,-1.59656 0.2012,-2.96967 0.66313,-4.1867 0.44864,-1.20674 1.32356,-2.316461 2.46316,-2.920815 0.75277,-0.404614 1.57439,-0.578017 2.36829,-0.578017 z m -38.74696,18.792851 -1.13685,10.22358 c -28.80579,10.87598 -47.859,36.46835 -54.37836,59.00659 l -9.852511,1.75292 1.326331,-4.38231 c 7.25212,-25.07165 27.23821,-52.65938 59.77825,-64.9458 l 4.26314,-1.65498 z"
     id="path5988"
     inkscape:connector-curvature="0" />
</svg>
