<?xml version="1.0" encoding="UTF-8" standalone="no"?>
<svg
   xmlns:dc="http://purl.org/dc/elements/1.1/"
   xmlns:cc="http://creativecommons.org/ns#"
   xmlns:rdf="http://www.w3.org/1999/02/22-rdf-syntax-ns#"
   xmlns:svg="http://www.w3.org/2000/svg"
   xmlns="http://www.w3.org/2000/svg"
   xmlns:xlink="http://www.w3.org/1999/xlink"
   xmlns:sodipodi="http://sodipodi.sourceforge.net/DTD/sodipodi-0.dtd"
   xmlns:inkscape="http://www.inkscape.org/namespaces/inkscape"
   viewBox="0 0 128 128"
   id="svg2"
   version="1.1"
   inkscape:version="0.91 r"
   sodipodi:docname="battleforwesnoth.svg"
   width="128"
   height="128">
  <metadata
     id="metadata25">
    <rdf:RDF>
      <cc:Work
         rdf:about="">
        <dc:format>image/svg+xml</dc:format>
        <dc:type
           rdf:resource="http://purl.org/dc/dcmitype/StillImage" />
        <dc:title></dc:title>
      </cc:Work>
    </rdf:RDF>
  </metadata>
  <sodipodi:namedview
     pagecolor="#ffffff"
     bordercolor="#666666"
     borderopacity="1"
     objecttolerance="10"
     gridtolerance="10"
     guidetolerance="10"
     inkscape:pageopacity="0"
     inkscape:pageshadow="2"
     inkscape:window-width="1366"
     inkscape:window-height="744"
     id="namedview23"
     showgrid="false"
     inkscape:zoom="3.4766083"
     inkscape:cx="42.097887"
     inkscape:cy="47.106728"
     inkscape:window-x="0"
     inkscape:window-y="24"
     inkscape:window-maximized="1"
     inkscape:current-layer="svg2" />
  <defs
     id="defs4">
    <linearGradient
       id="0"
       gradientUnits="userSpaceOnUse"
       x1="508.17999"
       y1="993.03003"
       x2="486.06"
       y2="1.252">
      <stop
         stop-color="#ff9300"
         id="stop7" />
      <stop
         offset="1"
         stop-color="#ffd702"
         id="stop9" />
    </linearGradient>
    <linearGradient
       id="1"
       gradientUnits="userSpaceOnUse"
       x1="24.190001"
       y1="32.743999"
       x2="24.624001"
       y2="14.642"
       xlink:href="#0"
       gradientTransform="matrix(2.517788,0,0,2.517788,3.8643925,3.9795387)" />
    <linearGradient
       id="2"
       x1="496.01694"
       y1="995.46265"
       x2="486.06"
       y2="1.252"
       gradientUnits="userSpaceOnUse"
       gradientTransform="matrix(0.11824187,0,0,0.11824187,6.2572676,6.3965842)">
      <stop
         stop-color="#212121"
         id="stop13" />
      <stop
         id="stop3359"
         stop-color="#212121"
         offset="0.0770779"
         style="stop-color:#1a1a1a;stop-opacity:1" />
      <stop
         id="stop3357"
         stop-color="#212121"
         offset="0.97734708"
         style="stop-color:#999999;stop-opacity:1" />
      <stop
         stop-color="#3f3f41"
         offset="1"
         id="stop15" />
    </linearGradient>
    <linearGradient
       inkscape:collect="always"
       xlink:href="#0"
       id="linearGradient3353"
       gradientUnits="userSpaceOnUse"
       x1="496.01694"
       y1="995.46265"
       x2="486.06"
       y2="1.252"
       gradientTransform="matrix(0.11824187,0,0,0.11824187,6.2572676,6.3965842)" />
  </defs>
  <path
     style="fill:url(#2);stroke:url(#linearGradient3353);stroke-width:4.83408213;stroke-linecap:round;stroke-linejoin:round"
     inkscape:connector-curvature="0"
     id="path19"
     d="M 118.14127,30.831267 C 118.1058,28.111704 116.01292,25.865108 113.3053,25.6168 90.80387,23.512095 72.440908,11.486897 66.386924,7.0882991 c -1.265188,-0.9222865 -2.979695,-0.9222865 -4.244883,0 -6.04216,4.3985979 -24.405122,16.4237959 -46.90655,18.5285009 -2.707739,0.248426 -4.788796,2.494904 -4.836092,5.214467 -0.271957,17.748104 2.577672,78.004163 52.511214,91.412793 0.886814,0.23648 1.820925,0.23648 2.707739,0 49.933538,-13.39681 52.783168,-73.664689 52.523038,-91.412793" />
  <path
     style="fill:url(#1);stroke-width:1.31700003"
     inkscape:connector-curvature="0"
     id="path21"
     d="m 41.807458,42.582264 c -0.657143,0 -1.316803,0.251779 -1.820361,0.752819 l -0.274439,0.274439 c -1.00208,1.004597 -1.00208,2.631088 0,3.633168 l 5.788395,5.788395 c -0.775479,1.767487 -2.542966,3.003721 -4.592446,3.003721 -2.764531,0 -5.010398,-2.245867 -5.010398,-5.005363 0,-0.518664 -0.312205,-0.986973 -0.790585,-1.185878 -0.480898,-0.198905 -1.034811,-0.09316 -1.402408,0.274439 -2.349096,2.349096 -3.49469,5.612149 -3.220251,9.179855 0.266886,3.49469 1.875752,6.876079 4.519429,9.519756 2.892939,2.892939 6.730048,4.554679 10.52939,4.554679 3.164859,0 6.065351,-1.158183 8.167704,-3.260536 0.367597,-0.367597 0.473344,-0.92151 0.274439,-1.402408 -0.198905,-0.480897 -0.664696,-0.790585 -1.185878,-0.790585 -2.746907,0 -5.060754,-2.323918 -5.060754,-5.060754 0,-2.049479 1.238752,-3.811931 3.003721,-4.58741 l 9.643128,9.648164 -13.641375,13.646411 c -0.480898,0.480897 -0.752819,1.133005 -0.752819,1.815325 0,0.682321 0.271921,1.336945 0.752819,1.820361 l 0.274439,0.274439 c 0.480897,0.480897 1.133004,0.752818 1.815325,0.752818 0.68232,0 1.336945,-0.269403 1.820361,-0.752818 L 64.291304,71.82889 77.93268,85.475301 c 0.480897,0.480897 1.133004,0.752818 1.815325,0.752818 0.682321,0 1.336945,-0.269403 1.820361,-0.752818 l 0.274439,-0.274439 c 0.480897,-0.480898 0.752818,-1.13804 0.752818,-1.820361 0,-0.68232 -0.271921,-1.33191 -0.752818,-1.815325 L 68.201429,67.918765 77.844557,58.270601 c 1.767487,0.775479 3.003721,2.542966 3.003721,4.58741 0,2.746907 -2.323918,5.060754 -5.060753,5.060754 -0.518665,0 -0.986973,0.312206 -1.185879,0.790585 -0.198905,0.480898 -0.08812,1.034811 0.279475,1.402408 2.102353,2.102353 5.005362,3.260536 8.167704,3.260536 3.799342,0 7.628898,-1.659223 10.52939,-4.554679 2.643677,-2.643677 4.247508,-6.025066 4.514393,-9.519756 0.274439,-3.570224 -0.866119,-6.830759 -3.215215,-9.179855 -0.367597,-0.367597 -0.92151,-0.475862 -1.402408,-0.274439 -0.480897,0.198905 -0.790585,0.664696 -0.790585,1.185878 0,2.762013 -2.250903,5.005363 -5.015434,5.005363 -2.049479,0 -3.814449,-1.236234 -4.58741,-3.003721 l 5.788395,-5.788395 c 1.00208,-1.00208 1.00208,-2.631089 0,-3.633168 l -0.274439,-0.274439 c -0.50104,-0.50104 -1.1607,-0.752819 -1.820361,-0.752819 -0.657142,0 -1.311767,0.251779 -1.815325,0.752819 l -5.926873,5.921837 -6.57898,-3.290749 c -0.493486,-0.246743 -1.09272,-0.148549 -1.485495,0.241708 -0.390257,0.390257 -0.488451,0.984455 -0.241707,1.480459 l 3.295784,6.584016 -9.721179,9.726215 -9.726215,-9.726215 3.290749,-6.584016 c 0.246743,-0.496004 0.153585,-1.090202 -0.236673,-1.480459 -0.390257,-0.390257 -0.98949,-0.488451 -1.485494,-0.241708 L 49.559727,49.25692 43.63789,43.335083 c -0.50104,-0.50104 -1.158183,-0.752819 -1.815326,-0.752819" />
</svg>
