<?xml version="1.0" encoding="UTF-8" standalone="no"?>
<svg
   xmlns:dc="http://purl.org/dc/elements/1.1/"
   xmlns:cc="http://creativecommons.org/ns#"
   xmlns:rdf="http://www.w3.org/1999/02/22-rdf-syntax-ns#"
   xmlns:svg="http://www.w3.org/2000/svg"
   xmlns="http://www.w3.org/2000/svg"
   xmlns:sodipodi="http://sodipodi.sourceforge.net/DTD/sodipodi-0.dtd"
   xmlns:inkscape="http://www.inkscape.org/namespaces/inkscape"
   viewBox="0 0 128 128"
   id="svg2"
   version="1.1"
   inkscape:version="0.91 r"
   sodipodi:docname="pidgin.svg"
   width="128"
   height="128">
  <metadata
     id="metadata24">
    <rdf:RDF>
      <cc:Work
         rdf:about="">
        <dc:format>image/svg+xml</dc:format>
        <dc:type
           rdf:resource="http://purl.org/dc/dcmitype/StillImage" />
        <dc:title></dc:title>
      </cc:Work>
    </rdf:RDF>
  </metadata>
  <sodipodi:namedview
     pagecolor="#ffffff"
     bordercolor="#666666"
     borderopacity="1"
     objecttolerance="10"
     gridtolerance="10"
     guidetolerance="10"
     inkscape:pageopacity="0"
     inkscape:pageshadow="2"
     inkscape:window-width="1366"
     inkscape:window-height="744"
     id="namedview22"
     showgrid="false"
     inkscape:zoom="3.4766083"
     inkscape:cx="74.075332"
     inkscape:cy="60.754714"
     inkscape:window-x="0"
     inkscape:window-y="24"
     inkscape:window-maximized="1"
     inkscape:current-layer="svg2" />
  <defs
     id="defs4">
    <linearGradient
       id="0"
       y1="546.79999"
       x2="0"
       y2="507.87"
       gradientUnits="userSpaceOnUse"
       gradientTransform="matrix(-0.32279,0,0,0.35147,161.26,-143.94)">
      <stop
         stop-color="#d3d3d3"
         id="stop7" />
      <stop
         offset="1"
         stop-color="#fcf9f9"
         id="stop9" />
    </linearGradient>
    <linearGradient
       id="1"
       x1="34.169998"
       y1="46.439999"
       x2="34.150002"
       y2="22.749001"
       gradientUnits="userSpaceOnUse">
      <stop
         stop-color="#69159f"
         id="stop12" />
      <stop
         offset="1"
         stop-color="#b92ff5"
         id="stop14" />
    </linearGradient>
  </defs>
  <g
     transform="matrix(4.3303895,0,0,4.3303895,-82.973489,-88.214465)"
     id="g16"
     style="enable-background:new">
    <path
       d="m 43.829,25.977 c -2.64,-2.149 -6.145,-3.332 -9.87,-3.332 -3.725,0 -7.231,1.183 -9.87,3.332 -2.663,2.167 -4.13,5.056 -4.13,8.133 0,2.937 1.337,5.702 3.774,7.832 -0.044,0.099 -0.079,0.203 -0.101,0.312 l -0.801,3.939 c -0.095,0.468 0.033,0.747 0.157,0.899 0.143,0.175 0.356,0.272 0.598,0.272 0.183,0 0.38,-0.054 0.585,-0.161 l 4.658,-2.42 c 1.613,0.519 3.346,0.791 5.13,0.791 3.725,0 7.23,-1.183 9.871,-3.332 2.663,-2.167 4.13,-5.055 4.13,-8.133 0,-3.078 -1.467,-5.966 -4.129,-8.133"
       id="path18"
       inkscape:connector-curvature="0"
       style="fill:url(#1)" />
    <path
       d="m 35.829,36.29 c 1.32,-1.17 3.073,-1.814 4.935,-1.814 1.863,0 3.615,0.644 4.935,1.814 1.331,1.18 2.065,2.752 2.065,4.428 0,1.599 -0.668,3.104 -1.887,4.264 0.022,0.054 0.039,0.11 0.051,0.17 l 0.4,2.144 c 0.048,0.255 -0.016,0.407 -0.078,0.489 -0.072,0.095 -0.178,0.148 -0.299,0.148 -0.092,0 -0.19,-0.029 -0.292,-0.087 L 43.33,46.529 c -0.806,0.283 -1.673,0.431 -2.565,0.431 -1.863,0 -3.615,-0.644 -4.935,-1.814 -1.331,-1.18 -2.065,-2.752 -2.065,-4.428 0,-1.675 0.733,-3.248 2.065,-4.428"
       id="path20"
       inkscape:connector-curvature="0"
       style="fill:url(#0)" />
  </g>
</svg>
