<?xml version="1.0" encoding="UTF-8" standalone="no"?>
<!-- Created with Inkscape (http://www.inkscape.org/) -->

<svg
   xmlns:dc="http://purl.org/dc/elements/1.1/"
   xmlns:cc="http://creativecommons.org/ns#"
   xmlns:rdf="http://www.w3.org/1999/02/22-rdf-syntax-ns#"
   xmlns:svg="http://www.w3.org/2000/svg"
   xmlns="http://www.w3.org/2000/svg"
   xmlns:xlink="http://www.w3.org/1999/xlink"
   xmlns:sodipodi="http://sodipodi.sourceforge.net/DTD/sodipodi-0.dtd"
   xmlns:inkscape="http://www.inkscape.org/namespaces/inkscape"
   width="128"
   height="128"
   id="svg2"
   sodipodi:version="0.32"
   inkscape:version="0.91 r"
   version="1.0"
   sodipodi:docname="applications-fonts.svg"
   inkscape:output_extension="org.inkscape.output.svg.inkscape">
  <defs
     id="defs4">
    <linearGradient
       inkscape:collect="always"
       id="linearGradient3355">
      <stop
         style="stop-color:#ffffff;stop-opacity:1;"
         offset="0"
         id="stop3357" />
      <stop
         id="stop3363"
         offset="0.05095206"
         style="stop-color:#e6e6e6;stop-opacity:1" />
      <stop
         style="stop-color:#f9f9f9;stop-opacity:1"
         offset="0.06732891"
         id="stop3367" />
      <stop
         id="stop3371"
         offset="0.51226771"
         style="stop-color:#37abc8;stop-opacity:1" />
      <stop
         style="stop-color:#4d4d4d;stop-opacity:1"
         offset="0.93721485"
         id="stop3365" />
      <stop
         style="stop-color:#ffffff;stop-opacity:0;"
         offset="1"
         id="stop3359" />
    </linearGradient>
    <linearGradient
       inkscape:collect="always"
       id="linearGradient4132">
      <stop
         style="stop-color:#f2f2f2;stop-opacity:1;"
         offset="0"
         id="stop4134" />
      <stop
         style="stop-color:#f2f2f2;stop-opacity:0;"
         offset="1"
         id="stop4136" />
    </linearGradient>
    <linearGradient
       inkscape:collect="always"
       id="linearGradient3155">
      <stop
         style="stop-color:#303030;stop-opacity:1;"
         offset="0"
         id="stop3157" />
      <stop
         style="stop-color:#303030;stop-opacity:0;"
         offset="1"
         id="stop3159" />
    </linearGradient>
    <linearGradient
       inkscape:collect="always"
       id="linearGradient6067">
      <stop
         style="stop-color:#ffffff;stop-opacity:1;"
         offset="0"
         id="stop6069" />
      <stop
         style="stop-color:#ffffff;stop-opacity:0;"
         offset="1"
         id="stop6071" />
    </linearGradient>
    <linearGradient
       inkscape:collect="always"
       id="linearGradient3142">
      <stop
         style="stop-color:#303030;stop-opacity:1;"
         offset="0"
         id="stop3144" />
      <stop
         style="stop-color:#303030;stop-opacity:0;"
         offset="1"
         id="stop3146" />
    </linearGradient>
    <linearGradient
       inkscape:collect="always"
       xlink:href="#linearGradient3142"
       id="linearGradient3148"
       x1="92.804863"
       y1="75.855133"
       x2="92.804863"
       y2="110.71667"
       gradientUnits="userSpaceOnUse"
       gradientTransform="matrix(1.6258627,0,0,1.6258627,-28.787153,-52.145846)" />
    <linearGradient
       inkscape:collect="always"
       xlink:href="#linearGradient6067"
       id="linearGradient6073"
       x1="29.731594"
       y1="96.211563"
       x2="29.731594"
       y2="119.78299"
       gradientUnits="userSpaceOnUse" />
    <linearGradient
       inkscape:collect="always"
       xlink:href="#linearGradient3155"
       id="linearGradient3161"
       x1="100.75668"
       y1="85.389313"
       x2="100.75668"
       y2="124.82345"
       gradientUnits="userSpaceOnUse" />
    <linearGradient
       inkscape:collect="always"
       xlink:href="#linearGradient4132"
       id="linearGradient4138"
       x1="96.899597"
       y1="-101.65641"
       x2="96.899597"
       y2="-115.67227"
       gradientUnits="userSpaceOnUse"
       gradientTransform="translate(-2.2728432,0)" />
    <linearGradient
       inkscape:collect="always"
       xlink:href="#linearGradient3355"
       id="linearGradient3361"
       x1="-4.0406103"
       y1="-4.8350587"
       x2="134.60283"
       y2="134.06091"
       gradientUnits="userSpaceOnUse" />
  </defs>
  <sodipodi:namedview
     id="base"
     pagecolor="#c8c8c8"
     bordercolor="#666666"
     borderopacity="1.0"
     inkscape:pageopacity="1"
     inkscape:pageshadow="2"
     inkscape:zoom="3.959798"
     inkscape:cx="128.89715"
     inkscape:cy="59.84219"
     inkscape:document-units="px"
     inkscape:current-layer="layer1"
     showgrid="true"
     width="128px"
     height="128px"
     showguides="true"
     inkscape:guide-bbox="true"
     inkscape:window-width="1366"
     inkscape:window-height="744"
     inkscape:window-x="0"
     inkscape:window-y="24"
     inkscape:window-maximized="1" />
  <metadata
     id="metadata7">
    <rdf:RDF>
      <cc:Work
         rdf:about="">
        <dc:format>image/svg+xml</dc:format>
        <dc:type
           rdf:resource="http://purl.org/dc/dcmitype/StillImage" />
      </cc:Work>
    </rdf:RDF>
  </metadata>
  <g
     inkscape:label="Livello 1"
     inkscape:groupmode="layer"
     id="layer1">
    <rect
       style="fill:url(#linearGradient3361);fill-opacity:1;fill-rule:nonzero;stroke:none;stroke-width:5;stroke-linejoin:miter;stroke-miterlimit:4;stroke-dasharray:none;stroke-opacity:1"
       id="rect4444"
       width="117.49806"
       height="115.84434"
       x="5.7766252"
       y="6.3789721"
       rx="14.185019"
       ry="17.116425" />
    <path
       style="fill:#1c1f24;fill-opacity:1"
       d="m 39.23074,90.536949 c -0.405163,1.194152 -0.714364,2.228367 -0.927596,3.102647 -0.213249,0.87429 -0.319867,1.514014 -0.319862,1.919166 -5e-6,0.554428 0.138603,0.959587 0.41582,1.215469 0.298528,0.255889 0.874278,0.437148 1.727246,0.543762 0.127936,0.02133 0.30919,0.05331 0.543767,0.09596 1.833854,0.277211 2.75079,0.735676 2.7508,1.3754 -1e-5,0.255888 -0.117291,0.458465 -0.351846,0.607735 -0.213254,0.149264 -0.53311,0.223899 -0.95958,0.223899 -0.127959,0 -0.991581,-0.07463 -2.590876,-0.223899 -1.59931,-0.14927 -3.134636,-0.223905 -4.605994,-0.223905 -0.916935,0 -1.972473,0.05331 -3.16662,0.159931 -1.194146,0.106617 -1.929822,0.159932 -2.207039,0.159932 -0.511772,0 -0.895607,-0.07463 -1.151496,-0.223905 -0.277211,-0.149265 -0.415814,-0.362508 -0.415819,-0.639719 5e-6,-0.277212 0.106628,-0.479793 0.319861,-0.607735 0.213244,-0.149269 0.671709,-0.245227 1.375401,-0.287877 0.02132,5e-6 0.04265,5e-6 0.06398,0 1.0662,-0.106618 1.844527,-0.298534 2.334981,-0.575745 0.91693,-0.533101 1.897838,-2.143067 2.942716,-4.829899 l 0.032,-0.03198 13.018332,-33.777289 c 0.04263,-0.106584 0.08527,-0.2132 0.127941,-0.319862 0.341168,-0.852924 0.756989,-1.279399 1.247459,-1.279443 0.575728,4.4e-5 1.098167,0.650423 1.567315,1.951151 0.170571,0.490492 0.30918,0.863661 0.415821,1.119512 l 12.378607,31.186413 c 0.788956,2.004469 1.460664,3.390531 2.015125,4.158191 0.554389,0.746343 1.215431,1.322093 1.983134,1.727246 0.277173,0.149276 0.575712,0.277217 0.895608,0.383836 0.319823,0.106617 0.661008,0.202581 1.023554,0.287873 -3.8e-5,5e-6 0.02128,0.01069 0.06398,0.032 0.724976,0.213238 1.087489,0.458465 1.087528,0.735675 -3.9e-5,0.298541 -0.117324,0.522439 -0.351846,0.671708 -0.213282,0.127948 -0.554467,0.191916 -1.023555,0.191916 -0.511815,0 -1.578019,-0.0533 -3.198609,-0.159926 -1.599337,-0.106628 -2.95341,-0.159931 -4.062227,-0.159931 -1.833899,0 -3.689092,0.0533 -5.56558,0.159931 -1.855216,0.106617 -2.793474,0.159926 -2.814775,0.159926 -0.533121,0 -0.90629,-0.0533 -1.119512,-0.159926 -0.213259,-0.127947 -0.319878,-0.341185 -0.319861,-0.639724 -1.7e-5,-0.554422 0.746321,-0.884946 2.239028,-0.99157 0.170565,-0.02132 0.287851,-0.03198 0.351846,-0.03198 1.002205,-0.0853 1.65259,-0.23456 1.951151,-0.447803 0.319835,-0.213238 0.479766,-0.586413 0.479788,-1.119512 -2.2e-5,-0.341185 -0.06399,-0.756999 -0.191915,-1.247459 -0.127969,-0.490449 -0.319884,-1.066194 -0.57575,-1.727246 l -3.230595,-8.38035 c -0.08532,-0.191904 -0.202598,-0.319845 -0.351845,-0.383835 -0.149287,-0.08528 -0.415836,-0.12793 -0.79965,-0.127941 l -10.171568,0 c -0.191927,1.1e-5 -0.373186,0.05333 -0.543767,0.159925 -0.170604,0.10664 -0.298545,0.255905 -0.383831,0.447809 l -1.951151,5.821463 m 3.390526,-9.979653 c -1.1e-5,0.04267 -0.01069,0.106639 -0.03198,0.191915 -0.04266,0.191937 -0.07465,0.351868 -0.09596,0.479793 -1.1e-5,0.127963 0.04264,0.223921 0.127948,0.287873 0.08529,0.06399 0.223888,0.09597 0.415819,0.09596 l 8.252402,0 c 0.191898,2.2e-5 0.341168,-0.05329 0.447809,-0.159931 0.127919,-0.106606 0.191893,-0.245206 0.191915,-0.415815 -2.2e-5,-0.08528 -0.02134,-0.213226 -0.06398,-0.383835 -0.02134,-0.08528 -0.04267,-0.159909 -0.06397,-0.223904 L 47.419174,69.04231 c -0.06399,-0.191887 -0.138625,-0.33049 -0.223904,-0.415819 -0.08531,-0.106595 -0.18127,-0.170559 -0.287873,-0.191915 -0.08531,0.02135 -0.170609,0.08532 -0.255888,0.191915 -0.08531,0.08533 -0.159948,0.202609 -0.223905,0.351846 l -3.806338,11.578958 m 44.588576,10.043627 0,-5.181744 c -0.02134,-0.255878 -0.06399,-0.447793 -0.127942,-0.575751 -0.06399,-0.12793 -0.159947,-0.202566 -0.287872,-0.223899 -0.08532,1.1e-5 -0.21326,0.03199 -0.383836,0.09596 -0.149286,0.04266 -0.298555,0.09596 -0.447804,0.159931 l -2.7508,1.055538 c -1.55667,0.618407 -2.750817,1.471369 -3.58244,2.558886 -0.810327,1.06621 -1.21548,2.313669 -1.215475,3.742371 -5e-6,1.343422 0.255884,2.36697 0.767666,3.070662 0.533094,0.703698 1.300754,1.055544 2.302997,1.055538 1.49267,6e-6 2.814763,-0.565083 3.966275,-1.695262 1.172803,-1.15149 1.759214,-2.505567 1.759231,-4.062227 m 6.589135,1.439373 c -2.9e-5,1.599306 0.159903,2.718817 0.479787,3.358536 0.319834,0.639724 0.842273,0.959586 1.56732,0.95958 0.426454,6e-6 0.991539,-0.23456 1.69526,-0.703692 0.70367,-0.490449 1.204776,-0.735676 1.503354,-0.735681 0.298498,5e-6 0.522406,0.0853 0.671706,0.255888 0.170558,0.170598 0.255848,0.405164 0.255878,0.703698 -3e-5,0.767666 -0.820994,1.737908 -2.462928,2.910732 -1.641974,1.172818 -3.177305,1.759231 -4.605991,1.759231 -1.194168,0 -2.271028,-0.3945 -3.230593,-1.183486 -0.959603,-0.788989 -1.737929,-1.919162 -2.334981,-3.390519 l -0.479793,0 -1.75923,1.151495 c -2.025803,1.364739 -3.614441,2.271013 -4.765925,2.718817 -1.151513,0.469133 -2.292347,0.703693 -3.422509,0.703693 -1.769903,0 -3.177287,-0.46913 -4.222164,-1.407386 -1.023554,-0.95958 -1.535331,-2.239023 -1.535331,-3.838328 0,-2.388287 0.92759,-4.446058 2.78279,-6.173314 1.855182,-1.727236 5.245701,-3.561101 10.171568,-5.501602 l 2.111082,-0.831639 c 0.362491,-0.149253 0.607718,-0.309179 0.735681,-0.479788 0.127926,-0.191904 0.191894,-0.554411 0.191916,-1.087527 l 0,-4.669968 c -2.2e-5,-2.047081 -0.245243,-3.433142 -0.735682,-4.15819 -0.469148,-0.724988 -1.322105,-1.087495 -2.558885,-1.087522 -1.194158,2.7e-5 -2.217712,0.309222 -3.070663,0.927591 -0.852973,0.618424 -1.727258,1.759263 -2.622859,3.422515 -0.916941,1.663294 -1.769903,2.750821 -2.558886,3.262577 -0.788994,0.49047 -1.791225,0.735698 -3.006689,0.735676 -0.447809,2.2e-5 -0.820978,-0.117258 -1.119512,-0.351846 -0.298539,-0.234544 -0.447808,-0.511755 -0.447803,-0.831633 -5e-6,-2.26033 1.482013,-4.350084 4.446063,-6.269273 2.964033,-1.940457 6.439848,-2.910704 10.427457,-2.910731 3.006673,2.7e-5 5.075103,0.511804 6.205298,1.535331 1.130152,1.002258 1.695235,2.996054 1.695264,5.981394 l 0,15.225371"
       id="flowRoot4401"
       inkscape:connector-curvature="0" />
    <g
       id="g3377"
       style="fill:#1c1f24">
      <path
         inkscape:connector-curvature="0"
         id="path4423"
         d="m 17.494141,47.253906 0,68.150394 4,0 0,-68.150394 -4,0 z"
         style="color:#000000;font-style:normal;font-variant:normal;font-weight:normal;font-stretch:normal;font-size:medium;line-height:normal;font-family:sans-serif;text-indent:0;text-align:start;text-decoration:none;text-decoration-line:none;text-decoration-style:solid;text-decoration-color:#000000;letter-spacing:normal;word-spacing:normal;text-transform:none;direction:ltr;block-progression:tb;writing-mode:lr-tb;baseline-shift:baseline;text-anchor:start;white-space:normal;clip-rule:nonzero;display:inline;overflow:visible;visibility:visible;opacity:1;isolation:auto;mix-blend-mode:normal;color-interpolation:sRGB;color-interpolation-filters:linearRGB;solid-color:#000000;solid-opacity:1;fill:#1c1f24;fill-opacity:1;fill-rule:nonzero;stroke:none;stroke-width:4;stroke-linecap:butt;stroke-linejoin:miter;stroke-miterlimit:4;stroke-dasharray:none;stroke-dashoffset:0;stroke-opacity:1;color-rendering:auto;image-rendering:auto;shape-rendering:auto;text-rendering:auto;enable-background:accumulate" />
      <path
         inkscape:connector-curvature="0"
         id="path4425"
         d="m 11.494141,105.4043 0,4 96.476559,0 0,-4 -96.476559,0 z"
         style="color:#000000;font-style:normal;font-variant:normal;font-weight:normal;font-stretch:normal;font-size:medium;line-height:normal;font-family:sans-serif;text-indent:0;text-align:start;text-decoration:none;text-decoration-line:none;text-decoration-style:solid;text-decoration-color:#000000;letter-spacing:normal;word-spacing:normal;text-transform:none;direction:ltr;block-progression:tb;writing-mode:lr-tb;baseline-shift:baseline;text-anchor:start;white-space:normal;clip-rule:nonzero;display:inline;overflow:visible;visibility:visible;opacity:1;isolation:auto;mix-blend-mode:normal;color-interpolation:sRGB;color-interpolation-filters:linearRGB;solid-color:#000000;solid-opacity:1;fill:#1c1f24;fill-opacity:1;fill-rule:nonzero;stroke:none;stroke-width:4;stroke-linecap:butt;stroke-linejoin:miter;stroke-miterlimit:4;stroke-dasharray:none;stroke-dashoffset:0;stroke-opacity:1;color-rendering:auto;image-rendering:auto;shape-rendering:auto;text-rendering:auto;enable-background:accumulate" />
    </g>
    <path
       style="fill:#1c1f24;fill-opacity:1;fill-rule:nonzero;stroke:none"
       d="m 107.49492,117.11999 9.73995,-9.74001 -9.73995,-9.740003 0,19.480013 z"
       id="rect4429"
       sodipodi:nodetypes="cccc"
       inkscape:connector-curvature="0" />
    <path
       style="fill:#1c1f24;fill-opacity:1;fill-rule:nonzero;stroke:none"
       d="m 28.974816,48.404818 -9.73995,-9.739951 -9.7399423,9.739951 19.4798923,0 z"
       id="path4432"
       sodipodi:nodetypes="cccc"
       inkscape:connector-curvature="0" />
  </g>
</svg>
