<?xml version="1.0" encoding="UTF-8" standalone="no"?>
<svg
   xmlns:dc="http://purl.org/dc/elements/1.1/"
   xmlns:cc="http://creativecommons.org/ns#"
   xmlns:rdf="http://www.w3.org/1999/02/22-rdf-syntax-ns#"
   xmlns:svg="http://www.w3.org/2000/svg"
   xmlns="http://www.w3.org/2000/svg"
   xmlns:sodipodi="http://sodipodi.sourceforge.net/DTD/sodipodi-0.dtd"
   xmlns:inkscape="http://www.inkscape.org/namespaces/inkscape"
   viewBox="0 0 128 128"
   id="svg2"
   version="1.1"
   inkscape:version="0.91 r"
   sodipodi:docname="evolution.svg"
   width="128"
   height="128">
  <metadata
     id="metadata35">
    <rdf:RDF>
      <cc:Work
         rdf:about="">
        <dc:format>image/svg+xml</dc:format>
        <dc:type
           rdf:resource="http://purl.org/dc/dcmitype/StillImage" />
        <dc:title />
      </cc:Work>
    </rdf:RDF>
  </metadata>
  <sodipodi:namedview
     pagecolor="#ffffff"
     bordercolor="#666666"
     borderopacity="1"
     objecttolerance="10"
     gridtolerance="10"
     guidetolerance="10"
     inkscape:pageopacity="0"
     inkscape:pageshadow="2"
     inkscape:window-width="1366"
     inkscape:window-height="744"
     id="namedview33"
     showgrid="false"
     inkscape:zoom="2.4583333"
     inkscape:cx="84.636775"
     inkscape:cy="52.917529"
     inkscape:window-x="0"
     inkscape:window-y="24"
     inkscape:window-maximized="1"
     inkscape:current-layer="svg2" />
  <defs
     id="defs4">
    <linearGradient
       id="0"
       x1="264.89999"
       y1="544.13"
       x2="264.45001"
       y2="534.56"
       gradientUnits="userSpaceOnUse">
      <stop
         stop-color="#d8d8d8"
         id="stop7" />
      <stop
         offset="1"
         stop-color="#f9f9f9"
         id="stop9" />
    </linearGradient>
    <linearGradient
       id="1"
       x1="269.5"
       y1="543.62"
       x2="268.70999"
       y2="523.21997"
       gradientUnits="userSpaceOnUse">
      <stop
         stop-color="#cfd0d2"
         id="stop12" />
      <stop
         offset="1"
         stop-color="#f4f4f5"
         id="stop14" />
    </linearGradient>
    <linearGradient
       id="2"
       x1="268.25"
       y1="539.23999"
       x2="268.14001"
       y2="522.76001"
       gradientUnits="userSpaceOnUse">
      <stop
         stop-color="#0a80fd"
         id="stop17" />
      <stop
         offset="1"
         stop-color="#56c5fa"
         id="stop19" />
    </linearGradient>
  </defs>
  <g
     transform="matrix(2.7155875,0,0,2.7155875,-1042.7303,-1357.6002)"
     id="g21">
    <g
       transform="matrix(1.84718,0,0,1.84718,-88.79,-462.21)"
       id="g23">
      <path
         d="m 280.32,530.14 -11.657,-7.097 -11.499,7.106 20.08,14.04 1.455,0 c 0,0 1.618,-0.012 1.623,-1.505 z"
         id="path25"
         inkscape:connector-curvature="0"
         style="fill:url(#1)" />
      <path
         d="m 261.23,524.02 15.15,0 c 0.796,0 1.438,0.641 1.438,1.438 l 0,6.455 -9.455,6.516 -8.57,-6.071 0,-6.9 c 0,-0.796 0.641,-1.438 1.438,-1.438"
         id="path27"
         inkscape:connector-curvature="0"
         style="fill:url(#2)" />
      <path
         d="m 257.16,530.14 20.17,14.04 -18.551,0 c 0,0 -1.618,-0.012 -1.623,-1.505 z"
         id="path29"
         inkscape:connector-curvature="0"
         style="fill:url(#0)" />
    </g>
    <path
       d="m 463.52,484.5 q 5.846,0 9.838,4.03 3.992,4.03 3.992,9.731 0,3.208 -1.39,5.311 -1.354,2.103 -3.956,2.103 -2.673,0 -3.992,-2.602 -1.747,2.602 -4.99,2.602 -2.923,0 -4.919,-2.032 -1.996,-2.067 -1.996,-5.24 0,-3.137 1.996,-5.204 1.996,-2.067 4.776,-2.067 2.745,0 4.562,2.103 l 0.143,0 0,-1.604 2.566,0 0,9.303 q 0,0.927 0.499,1.675 0.535,0.749 1.604,0.749 2.531,0 2.531,-5.097 0,-4.705 -3.279,-7.948 -3.279,-3.244 -7.984,-3.244 -4.705,0 -7.984,3.244 -3.279,3.244 -3.279,7.948 0,4.705 3.279,7.948 3.279,3.244 7.984,3.244 2.531,0 4.527,-0.998 l 0.998,2.424 q -2.495,1.141 -5.525,1.141 -5.917,0 -9.945,-3.992 -4.03,-4.03 -4.03,-9.766 0,-5.703 4.03,-9.731 4.063,-4.03 9.945,-4.03 m -3.315,17.216 q 1.283,1.248 3.065,1.248 1.782,0 3.03,-1.248 1.283,-1.248 1.283,-3.315 0,-2.067 -1.283,-3.315 -1.248,-1.248 -3.03,-1.248 -1.782,0 -3.065,1.248 -1.248,1.248 -1.248,3.315 0,2.067 1.248,3.315"
       transform="matrix(0.51813,0,0,0.51813,167.49,259.6)"
       id="path31"
       inkscape:connector-curvature="0"
       style="fill:#ffffff;fill-opacity:0.84899998" />
  </g>
</svg>
