<?xml version="1.0" encoding="UTF-8" standalone="no"?>
<svg
   xmlns:dc="http://purl.org/dc/elements/1.1/"
   xmlns:cc="http://creativecommons.org/ns#"
   xmlns:rdf="http://www.w3.org/1999/02/22-rdf-syntax-ns#"
   xmlns:svg="http://www.w3.org/2000/svg"
   xmlns="http://www.w3.org/2000/svg"
   xmlns:xlink="http://www.w3.org/1999/xlink"
   xmlns:sodipodi="http://sodipodi.sourceforge.net/DTD/sodipodi-0.dtd"
   xmlns:inkscape="http://www.inkscape.org/namespaces/inkscape"
   version="1.1"
   width="128"
   height="128"
   viewBox="0 0 128 128"
   style="overflow:visible;enable-background:new 0 0 128 128;"
   xml:space="preserve"
   id="svg2"
   sodipodi:version="0.32"
   inkscape:version="0.91 r"
   sodipodi:docname="applications-community.svg"
   inkscape:output_extension="org.inkscape.output.svg.inkscape"><metadata
     id="metadata51"><rdf:RDF><cc:Work
         rdf:about=""><dc:format>image/svg+xml</dc:format><dc:type
           rdf:resource="http://purl.org/dc/dcmitype/StillImage" /></cc:Work></rdf:RDF></metadata><defs
     id="defs49"><inkscape:perspective
       sodipodi:type="inkscape:persp3d"
       inkscape:vp_x="0 : 64 : 1"
       inkscape:vp_y="0 : 1000 : 0"
       inkscape:vp_z="128 : 64 : 1"
       inkscape:persp3d-origin="64 : 42.666667 : 1"
       id="perspective53" /><linearGradient
       inkscape:collect="always"
       xlink:href="#0-0"
       id="linearGradient3396"
       x1="-6.9063601"
       y1="-6.8557715"
       x2="134.12878"
       y2="134.54286"
       gradientUnits="userSpaceOnUse" /><linearGradient
       id="linearGradient3353"
       inkscape:collect="always"><stop
         id="stop3355"
         offset="0"
         style="stop-color:#000000;stop-opacity:1;" /><stop
         style="stop-color:#ff9136;stop-opacity:1"
         offset="0.04880558"
         id="stop3353" /><stop
         id="stop3356"
         offset="0.49487758"
         style="stop-color:#ff7438;stop-opacity:1" /><stop
         style="stop-color:#ff0000;stop-opacity:1"
         offset="0.99693769"
         id="stop3360" /><stop
         id="stop3357"
         offset="1"
         style="stop-color:#ff443a;stop-opacity:1" /></linearGradient><inkscape:perspective
       id="perspective53-5"
       inkscape:persp3d-origin="64 : 42.666667 : 1"
       inkscape:vp_z="128 : 64 : 1"
       inkscape:vp_y="0 : 1000 : 0"
       inkscape:vp_x="0 : 64 : 1"
       sodipodi:type="inkscape:persp3d" /><linearGradient
       gradientUnits="userSpaceOnUse"
       y2="78.136551"
       x2="174.26506"
       y1="43.180721"
       x1="-25.70281"
       id="linearGradient3359"
       xlink:href="#linearGradient3353"
       inkscape:collect="always" /><clipPath
       id="clipPath6"><path
         transform="matrix(15.33333,0,0,11.5,415,-125.5)"
         d="m -24,13 c 0,1.105 -0.672,2 -1.5,2 -0.828,0 -1.5,-0.895 -1.5,-2 0,-1.105 0.672,-2 1.5,-2 0.828,0 1.5,0.895 1.5,2"
         id="path8"
         inkscape:connector-curvature="0"
         style="fill:#1890d0" /></clipPath><linearGradient
       id="0"
       gradientUnits="userSpaceOnUse"
       x1="24.610001"
       y1="47.592999"
       x2="23.593"
       y2="-0.20299999"
       gradientTransform="matrix(2.3559322,0,0,2.3559322,8.1355933,7.5932205)"><stop
         stop-color="#ff433a"
         id="stop11" /><stop
         stop-color="#ff9436"
         offset="1"
         id="stop13" /></linearGradient><linearGradient
       inkscape:collect="always"
       xlink:href="#linearGradient3353"
       id="linearGradient3440"
       gradientUnits="userSpaceOnUse"
       x1="-25.70281"
       y1="43.180721"
       x2="174.26506"
       y2="78.136551" /><linearGradient
       inkscape:collect="always"
       xlink:href="#linearGradient3353"
       id="linearGradient3442"
       gradientUnits="userSpaceOnUse"
       x1="-25.70281"
       y1="43.180721"
       x2="174.26506"
       y2="78.136551" /><linearGradient
       inkscape:collect="always"
       xlink:href="#linearGradient3353"
       id="linearGradient3444"
       gradientUnits="userSpaceOnUse"
       x1="-25.70281"
       y1="43.180721"
       x2="174.26506"
       y2="78.136551" /><linearGradient
       inkscape:collect="always"
       xlink:href="#linearGradient3353"
       id="linearGradient3446"
       gradientUnits="userSpaceOnUse"
       x1="-25.70281"
       y1="43.180721"
       x2="174.26506"
       y2="78.136551" /><linearGradient
       inkscape:collect="always"
       xlink:href="#linearGradient3353"
       id="linearGradient3448"
       gradientUnits="userSpaceOnUse"
       x1="-25.70281"
       y1="43.180721"
       x2="174.26506"
       y2="78.136551" /><linearGradient
       inkscape:collect="always"
       xlink:href="#linearGradient3353"
       id="linearGradient3450"
       gradientUnits="userSpaceOnUse"
       x1="-25.70281"
       y1="43.180721"
       x2="174.26506"
       y2="78.136551" /><clipPath
       id="clipPath6-0"><path
         inkscape:connector-curvature="0"
         id="path8-6"
         d="m 69.63,12.145 -0.052,0 c -22.727,-0.292 -46.47,4.077 -46.709,4.122 -2.424,0.451 -4.946,2.974 -5.397,5.397 -0.044,0.237 -4.414,23.983 -4.122,46.71 -0.292,22.777 4.078,46.523 4.122,46.761 0.451,2.423 2.974,4.945 5.398,5.398 0.237,0.044 23.982,4.413 46.709,4.121 22.779,0.292 46.524,-4.077 46.761,-4.121 2.423,-0.452 4.946,-2.976 5.398,-5.399 0.044,-0.236 4.413,-23.981 4.121,-46.709 0.292,-22.777 -4.077,-46.523 -4.121,-46.761 -0.453,-2.423 -2.976,-4.946 -5.398,-5.397 -0.238,-0.045 -23.984,-4.414 -46.71,-4.122" /></clipPath><linearGradient
       y2="155.59"
       x2="20.030001"
       y1="261.26001"
       x1="18.6"
       gradientUnits="userSpaceOnUse"
       id="0-0"><stop
         id="stop11-6"
         stop-color="#d3d3d3" /><stop
         id="stop13-5"
         stop-color="#fcf9f9"
         offset="1" /></linearGradient><linearGradient
       id="linearGradient15"
       gradientUnits="userSpaceOnUse"
       x1="0"
       x2="459"><stop
         id="stop17"
         stop-color="#e3203a" /><stop
         id="stop19"
         stop-color="#fd5420"
         offset="1" /></linearGradient><linearGradient
       id="linearGradient21"
       gradientUnits="userSpaceOnUse"
       x2="47"
       x1="0"><stop
         id="stop23"
         stop-color="#a9a3d4" /><stop
         id="stop25"
         stop-color="#87baff"
         offset=".47" /><stop
         id="stop27"
         stop-color="#89ec85"
         offset="1" /></linearGradient></defs><sodipodi:namedview
     inkscape:window-height="714"
     inkscape:window-width="1046"
     inkscape:pageshadow="2"
     inkscape:pageopacity="0.0"
     guidetolerance="10.0"
     gridtolerance="10.0"
     objecttolerance="10.0"
     borderopacity="1.0"
     bordercolor="#666666"
     pagecolor="#ffffff"
     id="base"
     showgrid="false"
     inkscape:zoom="2.7510873"
     inkscape:cx="132.04252"
     inkscape:cy="81.492099"
     inkscape:window-x="52"
     inkscape:window-y="24"
     inkscape:current-layer="svg2"
     inkscape:window-maximized="0" /><circle
     style="opacity:1;fill:url(#linearGradient3396);fill-opacity:1.0;fill-rule:nonzero;stroke:none;stroke-width:18.79999924;stroke-miterlimit:4;stroke-dasharray:none;stroke-opacity:1"
     id="path3388"
     cx="64.156456"
     cy="64.570534"
     r="61.612003" /><linearGradient
     id="XMLID_3_"
     gradientUnits="userSpaceOnUse"
     x1="75.5039"
     y1="11.96"
     x2="85.5969"
     y2="36.3307"><stop
       offset="0"
       style="stop-color:#F99D77"
       id="stop33" /><stop
       offset="1"
       style="stop-color:#F7804E"
       id="stop35" /></linearGradient><linearGradient
     id="XMLID_4_"
     gradientUnits="userSpaceOnUse"
     x1="37.6743"
     y1="25.6035"
     x2="37.6743"
     y2="47.5006"><stop
       offset="0"
       style="stop-color:#FCB462"
       id="stop40" /><stop
       offset="1"
       style="stop-color:#FCAF55"
       id="stop42" /></linearGradient><g
     style="overflow:visible"
     id="g3431"
     transform="matrix(0.87486256,0,0,0.87486256,2.4882351,9.1476204)"><g
       style="fill:url(#linearGradient3359);fill-opacity:1"
       id="g3345"><path
         style="fill:url(#linearGradient3440);fill-opacity:1"
         d="m 41.573888,21.938 c -8.268,6.368 -14.483,15.328 -17.502,25.23 -0.118,0.387 0.012,0.807 0.331,1.059 4.155,3.291 6.635,8.357 6.635,13.553 0,5.196 -2.481,10.264 -6.637,13.555 -0.317,0.251 -0.449,0.67 -0.331,1.058 2.995,9.819 9.14,18.728 17.306,25.082 0.219,0.171 0.499,0.241 0.773,0.193 0.273,-0.047 0.514,-0.208 0.663,-0.441 l 10.209,-16.022 c 0.261,-0.409 0.185,-0.947 -0.18,-1.268 -6.409,-5.639 -10.084,-13.715 -10.084,-22.156 0,-8.504 3.714,-16.616 10.19,-22.257 0.365,-0.319 0.445,-0.856 0.186,-1.267 l -10.125,-16.065 c -0.148,-0.234 -0.388,-0.396 -0.661,-0.444 -0.273,-0.048 -0.556,0.021 -0.773,0.19 z"
         id="path10"
         inkscape:connector-curvature="0" /><ellipse
         style="fill:url(#linearGradient3442);fill-opacity:1;fill-rule:evenodd"
         cx="13.774888"
         cy="62.015999"
         rx="12.803"
         ry="12.794"
         id="ellipse14" /><path
         style="fill:url(#linearGradient3444);fill-opacity:1"
         d="m 50.025888,16.696 c -0.25,0.124 -0.436,0.348 -0.511,0.616 -0.076,0.268 -0.034,0.555 0.114,0.791 l 10.122,16.059 c 0.257,0.408 0.772,0.57 1.217,0.383 3.754,-1.587 7.654,-2.392 11.59,-2.392 14.478,0 27.106996,10.734 29.376992,24.969 0.076,0.478 0.488,0.829 0.971,0.829 l 19.08,0.029 c 0.278,0 0.543,-0.117 0.73,-0.323 0.187,-0.206 0.277,-0.479 0.251,-0.757 -1.028,-10.562 -5.524,-20.75 -12.659,-28.685 -0.322,-0.36 -0.859,-0.432 -1.266,-0.169 -2.877,1.858 -6.145,2.842 -9.446996,2.842 -9.632996,0 -17.468996,-7.79 -17.469996,-17.364 0.001,-0.005 0.019,-0.366 0.019,-0.382 0,-0.477 -0.343,-0.888 -0.816,-0.97 -3.012,-0.522 -5.962,-0.888 -8.77,-0.888 -7.711,10e-4 -15.502,1.938 -22.532,5.412 z"
         id="path18"
         inkscape:connector-curvature="0" /><ellipse
         style="clip-rule:evenodd;fill:url(#linearGradient3446);fill-opacity:1;fill-rule:evenodd"
         cx="98.971893"
         cy="14"
         rx="12.51"
         ry="12.5"
         id="ellipse22" /><path
         style="fill:url(#linearGradient3448);fill-opacity:1"
         d="m 121.96588,65.733 -19.078,0.062 c -0.481,0.001 -0.892,0.352 -0.969,0.826 -2.300996,14.129 -14.922992,24.784 -29.360992,24.784 -3.982,0 -7.926,-0.824 -11.722,-2.45 -0.444,-0.189 -0.958,-0.03 -1.219,0.375 l -10.203,16.015 c -0.149,0.235 -0.192,0.522 -0.118,0.791 0.074,0.268 0.259,0.493 0.508,0.617 7.085,3.547 14.954,5.421 22.754,5.421 2.893,0 5.906,-0.273 8.955,-0.814 0.428,-0.075 0.756,-0.424 0.807,-0.855 1.016,-8.775 8.443,-15.393 17.274996,-15.393 2.737996,0 5.523996,0.698 8.055996,2.018 0.385,0.201 0.854,0.127 1.159,-0.184 7.985,-8.143 13.008,-18.842 14.14,-30.129 0.028,-0.277 -0.063,-0.553 -0.251,-0.76 -0.188,-0.207 -0.455,-0.325 -0.733,-0.324 z"
         id="path26"
         inkscape:connector-curvature="0" /><ellipse
         style="fill:url(#linearGradient3450);fill-opacity:1;fill-rule:evenodd"
         cx="99.457893"
         cy="112.272"
         rx="12.803"
         ry="12.728"
         id="ellipse28" /></g></g></svg>