<?xml version="1.0" encoding="UTF-8" standalone="no"?>
<!-- Created with Inkscape (http://www.inkscape.org/) -->

<svg
   xmlns:dc="http://purl.org/dc/elements/1.1/"
   xmlns:cc="http://creativecommons.org/ns#"
   xmlns:rdf="http://www.w3.org/1999/02/22-rdf-syntax-ns#"
   xmlns:svg="http://www.w3.org/2000/svg"
   xmlns="http://www.w3.org/2000/svg"
   xmlns:xlink="http://www.w3.org/1999/xlink"
   xmlns:sodipodi="http://sodipodi.sourceforge.net/DTD/sodipodi-0.dtd"
   xmlns:inkscape="http://www.inkscape.org/namespaces/inkscape"
   id="svg2"
   version="1.1"
   inkscape:version="0.91 r"
   width="1024"
   height="1024"
   sodipodi:docname="applications-cardgames.svg">
  <metadata
     id="metadata8">
    <rdf:RDF>
      <cc:Work
         rdf:about="">
        <dc:format>image/svg+xml</dc:format>
        <dc:type
           rdf:resource="http://purl.org/dc/dcmitype/StillImage" />
        <dc:title />
      </cc:Work>
    </rdf:RDF>
  </metadata>
  <defs
     id="defs6">
    <linearGradient
       inkscape:collect="always"
       id="linearGradient3341">
      <stop
         style="stop-color:#d75151;stop-opacity:1;"
         offset="0"
         id="stop3343" />
      <stop
         id="stop3349"
         offset="0.22734565"
         style="stop-color:#ff6363;stop-opacity:1" />
      <stop
         style="stop-color:#df3b3b;stop-opacity:1"
         offset="0.50149602"
         id="stop3527" />
      <stop
         style="stop-color:#b21a1a;stop-opacity:1"
         offset="0.72482979"
         id="stop3351" />
      <stop
         style="stop-color:#d75151;stop-opacity:0;"
         offset="1"
         id="stop3345" />
    </linearGradient>
    <clipPath
       clipPathUnits="userSpaceOnUse"
       id="clipPath3341">
      <circle
         style="opacity:1;fill:none;fill-opacity:1;stroke:#000000;stroke-width:11.24822521;stroke-miterlimit:4;stroke-dasharray:none;stroke-dashoffset:0;stroke-opacity:1"
         id="circle3343"
         cx="515.44489"
         cy="510.69141"
         r="435.84955" />
    </clipPath>
    <linearGradient
       inkscape:collect="always"
       xlink:href="#linearGradient3341"
       id="linearGradient3347"
       x1="-173.55338"
       y1="-181.40744"
       x2="1253.1056"
       y2="1248.0991"
       gradientUnits="userSpaceOnUse" />
    <linearGradient
       gradientTransform="matrix(2.4955507,0,0,2.4955507,240.71244,33.087543)"
       id="0"
       y1="17.279"
       x2="0"
       y2="-30.721"
       gradientUnits="userSpaceOnUse">
      <stop
         stop-color="#dc3c30"
         id="stop3341" />
      <stop
         offset="1"
         stop-color="#ff786d"
         id="stop3343-8" />
    </linearGradient>
    <linearGradient
       gradientUnits="userSpaceOnUse"
       y2="-30.891"
       x2="-49.554"
       y1="-5.178"
       x1="-48.953"
       id="0-9">
      <stop
         stop-color="#566069"
         id="stop3394" />
      <stop
         offset="1"
         stop-color="#6c7884"
         id="stop3396" />
    </linearGradient>
    <linearGradient
       gradientUnits="userSpaceOnUse"
       y2="-4.937"
       x2="42.36"
       y1="15.429"
       x1="43.691"
       id="1">
      <stop
         stop-color="#d5dbff"
         id="stop3399" />
      <stop
         offset="1"
         stop-color="#f9ffff"
         id="stop3401" />
    </linearGradient>
    <linearGradient
       gradientUnits="userSpaceOnUse"
       y2="-26.783"
       x2="-56.38"
       y1="3.509"
       x1="-56.27"
       id="2">
      <stop
         stop-color="#197ff1"
         id="stop3404" />
      <stop
         offset="1"
         stop-color="#21c6fb"
         id="stop3406" />
    </linearGradient>
    <linearGradient
       id="0-7"
       x1="23.2"
       y1="48.821"
       x2="22.382"
       y2="-1.823"
       gradientUnits="userSpaceOnUse">
      <stop
         stop-color="#7737c5"
         id="stop3457" />
      <stop
         stop-color="#9371ff"
         offset="1"
         id="stop3459" />
    </linearGradient>
    <linearGradient
       id="0-3"
       y1="546.29"
       x2="0"
       y2="501.51"
       gradientUnits="userSpaceOnUse">
      <stop
         stop-color="#197cf1"
         id="stop3484" />
      <stop
         offset="1"
         stop-color="#20bcfa"
         id="stop3486" />
    </linearGradient>
    <linearGradient
       id="0-5"
       gradientUnits="userSpaceOnUse"
       y1="36.965"
       x2="0"
       y2="9.965">
      <stop
         stop-color="#2b65bd"
         id="stop3509" />
      <stop
         offset="1"
         stop-color="#64a3dc"
         id="stop3511" />
    </linearGradient>
    <linearGradient
       gradientUnits="userSpaceOnUse"
       y2="517.8"
       x2="0"
       y1="545.8"
       id="linearGradient3579">
      <stop
         stop-color="#3889e9"
         id="stop3581" />
      <stop
         offset="1"
         stop-color="#5ea5fb"
         id="stop3583" />
    </linearGradient>
    <linearGradient
       y2="518.14"
       x2="0"
       y1="545.14"
       gradientUnits="userSpaceOnUse"
       id="0-8">
      <stop
         stop-color="#00a661"
         id="stop3586" />
      <stop
         offset="1"
         stop-color="#37ce97"
         id="stop3588" />
    </linearGradient>
    <linearGradient
       id="0-6"
       gradientUnits="userSpaceOnUse"
       y1="-2.471"
       x2="0"
       y2="-51.27">
      <stop
         stop-color="#0a80fd"
         id="stop3639" />
      <stop
         offset="1"
         stop-color="#56c5fa"
         id="stop3641" />
    </linearGradient>
    <linearGradient
       gradientUnits="userSpaceOnUse"
       y2="517.8"
       x2="0"
       y1="545.8"
       id="linearGradient3663">
      <stop
         stop-color="#3889e9"
         id="stop3665" />
      <stop
         offset="1"
         stop-color="#5ea5fb"
         id="stop3667" />
    </linearGradient>
    <linearGradient
       y2="517.7"
       x2="387.16"
       y1="545.87"
       x1="414.43"
       gradientUnits="userSpaceOnUse"
       id="0-0">
      <stop
         stop-color="#80256c"
         id="stop3670" />
      <stop
         offset="1"
         stop-color="#4567bd"
         id="stop3672" />
    </linearGradient>
    <linearGradient
       gradientTransform="matrix(0.53361,0,0,0.53476,-221.94,-216.11)"
       xlink:href="#1-6"
       id="8"
       x1="543.95"
       y1="484.81"
       x2="543.74"
       y2="427.54"
       gradientUnits="userSpaceOnUse" />
    <linearGradient
       gradientUnits="userSpaceOnUse"
       y2="25.17"
       x2="0"
       y1="28.442"
       id="5"
       xlink:href="#3" />
    <linearGradient
       y2="21.988"
       x2="69.26"
       y1="24.14"
       x1="69.39"
       gradientUnits="userSpaceOnUse"
       id="7"
       xlink:href="#3" />
    <linearGradient
       y2="507.67"
       x2="390.88"
       y1="531.8"
       x1="391.57"
       gradientTransform="matrix(0.68488,0,0,0.84437,-199.89,-405.47)"
       gradientUnits="userSpaceOnUse"
       id="6">
      <stop
         stop-color="#d3d3d3"
         id="stop3726" />
      <stop
         offset="1"
         stop-color="#fcf9f9"
         id="stop3728" />
    </linearGradient>
    <linearGradient
       y2="40.747"
       x2="88.18"
       y1="26.87"
       x1="74.3"
       gradientUnits="userSpaceOnUse"
       id="4"
       xlink:href="#3" />
    <linearGradient
       id="3">
      <stop
         stop-color="#222c35"
         id="stop3732" />
      <stop
         offset="1"
         stop-color="#545e67"
         id="stop3734" />
    </linearGradient>
    <linearGradient
       y2="25.427"
       x2="80.06"
       y1="43.46"
       x1="80.34"
       gradientUnits="userSpaceOnUse"
       id="0-61"
       xlink:href="#1-6" />
    <linearGradient
       y2="22.484"
       x2="80.37"
       y1="44.46"
       x1="80.978"
       gradientUnits="userSpaceOnUse"
       id="2-0"
       xlink:href="#3" />
    <linearGradient
       id="1-6">
      <stop
         stop-color="#197ff1"
         id="stop3739" />
      <stop
         offset="1"
         stop-color="#21c6fb"
         id="stop3741" />
    </linearGradient>
    <linearGradient
       id="0-2"
       x1="-1092.91"
       y1="203.1"
       x2="-1060.26"
       y2="104.85"
       gradientUnits="userSpaceOnUse"
       gradientTransform="matrix(0.35533,0,0,0.34923,314.86,-49.68)">
      <stop
         stop-color="#f2b333"
         id="stop3816" />
      <stop
         offset="1"
         stop-color="#fcde3f"
         id="stop3818" />
    </linearGradient>
    <linearGradient
       id="1-3"
       x1="-50.952"
       y1="41.34"
       x2="-55.927"
       y2=".059"
       gradientUnits="userSpaceOnUse">
      <stop
         stop-color="#1584d8"
         id="stop3821" />
      <stop
         offset="1"
         stop-color="#1cb2ff"
         id="stop3823" />
    </linearGradient>
    <linearGradient
       gradientUnits="userSpaceOnUse"
       y2="25.17"
       x2="0"
       y1="28.442"
       id="5-1"
       xlink:href="#3" />
    <filter
       color-interpolation-filters="sRGB"
       id="filter4020">
      <feGaussianBlur
         stdDeviation="1.71"
         id="feGaussianBlur4022" />
    </filter>
    <linearGradient
       gradientTransform="scale(1.0059.99417)"
       gradientUnits="userSpaceOnUse"
       y2="7.02"
       x2="0"
       y1="92.54"
       id="linearGradient4024">
      <stop
         id="stop4026" />
      <stop
         offset="1"
         stop-opacity=".588"
         id="stop4028" />
    </linearGradient>
    <linearGradient
       gradientUnits="userSpaceOnUse"
       y2="-26.05"
       x2="-125.19"
       y1="73.5"
       x1="-123.97"
       id="0-52"
       gradientTransform="matrix(1.03458,0,0,1,4.382,0)">
      <stop
         stop-color="#c52828"
         id="stop4031" />
      <stop
         offset="1"
         stop-color="#ff5454"
         id="stop4033" />
    </linearGradient>
    <linearGradient
       id="3-7">
      <stop
         stop-color="#2e3436"
         id="stop4085" />
      <stop
         offset="1"
         stop-color="#555753"
         id="stop4087" />
    </linearGradient>
    <linearGradient
       id="4-7"
       x1="70.03"
       y1="569.24"
       x2="66.53"
       y2="491.06"
       gradientUnits="userSpaceOnUse">
      <stop
         stop-color="#0a80fd"
         id="stop4090" />
      <stop
         offset="1"
         stop-color="#56c5fa"
         id="stop4092" />
    </linearGradient>
    <linearGradient
       xlink:href="#3-7"
       id="2-4"
       x1="72.85"
       y1="491.15"
       x2="72.29"
       y2="462.68"
       gradientUnits="userSpaceOnUse"
       gradientTransform="matrix(1.0021,0,0,1,-0.15,0.002)" />
    <linearGradient
       xlink:href="#3-7"
       id="0-67"
       x1="96.68"
       y1="490.36"
       x2="96.33"
       y2="462.83"
       gradientUnits="userSpaceOnUse" />
    <linearGradient
       xlink:href="#3-7"
       id="1-5"
       x1="44.16"
       y1="490.59"
       x2="44.26"
       y2="461.93"
       gradientUnits="userSpaceOnUse" />
    <filter
       color-interpolation-filters="sRGB"
       id="filter4157">
      <feGaussianBlur
         stdDeviation="1.71"
         id="feGaussianBlur4159" />
    </filter>
    <linearGradient
       gradientTransform="scale(1.0059.99417)"
       gradientUnits="userSpaceOnUse"
       y2="7.02"
       x2="0"
       y1="92.54"
       id="linearGradient4161">
      <stop
         id="stop4163" />
      <stop
         offset="1"
         stop-opacity=".588"
         id="stop4165" />
    </linearGradient>
  </defs>
  <sodipodi:namedview
     pagecolor="#ffffff"
     bordercolor="#666666"
     borderopacity="1"
     objecttolerance="10"
     gridtolerance="10"
     guidetolerance="10"
     inkscape:pageopacity="0"
     inkscape:pageshadow="2"
     inkscape:window-width="1366"
     inkscape:window-height="744"
     id="namedview4"
     showgrid="false"
     inkscape:zoom="0.32593203"
     inkscape:cx="434.28776"
     inkscape:cy="553.57823"
     inkscape:window-x="0"
     inkscape:window-y="24"
     inkscape:window-maximized="1"
     inkscape:current-layer="svg2" />
  <path
     style="fill:#db6c6c"
     d="m 594.33653,577.14467 c -0.571,-1.30542 -8.8603,-22.62348 -18.4206,-47.37348 -12.9004,-33.39683 -17.1087,-45.33895 -16.3206,-46.31458 2.8933,-3.5821 76.0776,-62.21512 76.771,-61.50658 1.1718,1.19748 35.9387,91.65055 35.9387,93.50186 0,0.86028 -16.5375,14.96882 -36.75,31.35233 -20.2125,16.38351 -37.5218,30.44648 -38.4652,31.25106 -1.5374,1.31122 -1.8228,1.21682 -2.7533,-0.91061 z"
     id="path3007"
     inkscape:connector-curvature="0" />
  <path
     style="fill:url(#linearGradient3347);fill-opacity:1"
     d="m 148.22703,965.03305 c -23.2144,-4.9089 -47.757,-19.8269 -61.901697,-37.6265 -11.7989,-14.8477 -19.6959,-31.2422 -23.1181,-47.9943 -1.8508,-9.0598 -1.8946,-18.9145 -1.6433,-369.61854 l 0.2581,-360.31065 2.2435,-7.88441 c 11.2359,-39.48757 40.384497,-68.636164 79.872097,-79.872134 l 7.8844,-2.24346 360.3106,-0.25815 c 349.8033,-0.25062 360.5787,-0.2031 369.5,1.62959 23.5648,4.84085 47.8406,19.28322 62.1207,36.95746 12.1331,15.016884 20.1336,31.512804 23.6973,48.860454 1.8326,8.92137 1.8802,19.69677 1.6295,369.5 l -0.2581,360.31064 -2.2435,7.8844 c -11.2359,39.4875 -40.3845,68.6361 -79.8721,79.8721 l -7.8844,2.2435 -361,0.1837 c -345.4909,0.1759 -361.3693,0.1057 -369.595,-1.6337 z"
     id="path3017"
     inkscape:connector-curvature="0"
     clip-path="url(#clipPath3341)"
     transform="matrix(1.0774336,0,0,1.0774336,-40.048964,-35.408388)" />
  <path
     style="fill:#e6e6e6"
     d="m 398.80403,719.53543 c 40.344,-7.42043 88.8111,-16.32323 107.7047,-19.78399 l 34.352,-6.29229 57.1794,15.92092 c 31.4486,8.7565 63.4615,17.65527 71.14,19.77503 14.9573,4.12925 18.9191,4.26202 24.5734,0.82348 1.6363,-0.99515 4.17,-3.37586 5.6304,-5.29047 2.8333,-3.71475 1.9843,-0.55774 46.7205,-173.7178 11.0766,-42.87389 27.7008,-107.14699 36.9426,-142.82913 9.3362,-36.04616 16.8243,-66.92558 16.8503,-69.48736 0.058,-5.71568 -3.885,-12.9159 -8.7042,-15.89428 -4.4602,-2.75657 -226.6049,-64.48835 -232.0643,-64.48835 -5.2177,0 -9.7434,2.09596 -13.9931,6.48042 -3.8894,4.01294 -4.6745,6.63853 -18.153,60.71433 -5.144,20.63739 -9.6853,37.1583 -10.0918,36.71312 -0.6107,-0.66863 -10.3969,-57.1422 -12.6028,-72.72686 -1.4816,-10.4675 -9.8348,-18.37189 -19.342,-18.3027 -4.2423,0.0309 -38.1328,6.08923 -187.1942,33.46328 -24.0052,4.40838 -45.1707,8.7389 -47.0347,9.62339 -6.1046,2.89684 -11.4122,11.01943 -11.4122,17.46498 0,3.58361 63.8343,380.93189 65.3536,386.32993 2.3015,8.17687 10.3086,14.99606 17.6084,14.99606 1.7514,0 36.193,-6.07126 76.537,-13.49171 z"
     id="path3015"
     inkscape:connector-curvature="0" />
  <path
     inkscape:connector-curvature="0"
     id="path2984"
     d="m 338.78063,751.71357 c -2.2227,-1.00966 -5.2484,-3.27024 -6.7237,-5.02351 -3.0438,-3.61735 -5.3794,-10.85237 -3.9611,-12.27059 0.5056,-0.50565 14.1509,-3.34789 30.3228,-6.3161 16.1718,-2.96821 62.7034,-11.51698 103.4034,-18.99726 40.7,-7.48029 75.575,-13.62211 77.5,-13.6485 1.925,-0.0264 10.7,1.98852 19.5,4.47756 71.4894,20.22046 121.1099,33.65806 124.2877,33.65806 5.3586,0 12.1911,-3.77132 15.3995,-8.5 2.2027,-3.24657 8.4808,-26.32025 33.3307,-122.5 30.1973,-116.87648 54.6918,-211.57047 62.6409,-242.16525 l 4.0701,-15.66526 4.1192,1.45333 c 8.1549,2.87724 11.8047,6.38296 13.7269,13.18508 1.4788,5.23342 1.8653,3.36464 -11.1042,53.6921 -5.3859,20.9 -17.7537,69.05 -27.4839,107 -42.8675,167.19385 -56.5723,220.17853 -57.6166,222.7546 -1.5996,3.94559 -7.1644,8.47822 -12.0111,9.78329 -5.0883,1.37016 2.3969,3.21783 -79.4332,-19.6075 -36.3407,-10.13672 -66.96,-18.43039 -68.043,-18.43039 -1.0829,0 -31.4247,5.41714 -67.426,12.03808 -36.0014,6.62095 -83.734,15.39595 -106.0725,19.5 -22.3385,4.10406 -41.4635,7.45204 -42.5,7.43996 -1.0365,-0.0121 -3.7031,-0.84805 -5.9259,-1.8577 z m 177.1744,-390.12034 c -1.6366,-6.82735 -10.7547,-63.21171 -10.2963,-63.67009 1.031,-1.03095 7.8819,1.92316 11.1841,4.82258 3.7982,3.33486 5.802,8.64618 7.4879,19.84751 1.1069,7.35436 1.0423,7.83012 -3.3238,24.5 -3.2145,12.27285 -4.6193,16.30483 -5.0519,14.5 z"
     style="fill:#bf4141" />
  <rect
     style="fill:#ffffff;fill-opacity:1;fill-rule:evenodd;stroke:none"
     id="rect3027"
     width="272.43445"
     height="428.07959"
     x="181.13454"
     y="356.30261"
     ry="13.520902"
     transform="matrix(0.98187116,-0.18954952,0.16427005,0.9864154,0,0)" />
  <path
     style="fill:#d75151;fill-opacity:1"
     d="m 597.38843,570.62298 c -5.4667,-12.55759 -35.1345,-90.96082 -34.8602,-92.12517 0.4355,-1.84893 77.8282,-64.78969 79.1318,-64.35517 1.2906,0.43019 37.8141,94.70622 37.4518,96.67212 -0.3241,1.75845 -76.7287,64.05057 -78.567,64.05504 -0.7184,0.002 -2.1388,-1.90932 -3.1564,-4.24682 z"
     id="path3021"
     inkscape:connector-curvature="0" />
  <path
     style="fill:#d75151"
     d="m 411.93023,565.90101 c -38.0339,-23.09964 -50.8926,-34.34385 -60.4608,-52.86947 -12.1809,-23.58449 -13.814,-45.25459 -4.0562,-53.82205 6.4069,-5.62532 15.7918,-7.21067 29.8101,-5.03566 7.3936,1.14715 12.6292,3.90296 17.6312,9.28034 1.3334,1.43343 3.0144,2.60623 3.7356,2.60623 0.7212,0 2.6311,-2.61449 4.2442,-5.80999 5.0129,-9.93048 15.9065,-17.54382 29.0309,-20.28907 17.4028,-3.64018 28.0097,10.505 28.0502,37.40751 0.035,23.33235 -4.2733,36.37067 -19.7248,59.69155 -7.171,10.82312 -22.8588,31.013 -24.0743,30.98315 -0.3774,-0.009 -2.2611,-0.97341 -4.1861,-2.14254 z"
     id="path2988"
     inkscape:connector-curvature="0" />
</svg>
