<?xml version="1.0" encoding="UTF-8" standalone="no"?>
<svg
   xmlns:dc="http://purl.org/dc/elements/1.1/"
   xmlns:cc="http://creativecommons.org/ns#"
   xmlns:rdf="http://www.w3.org/1999/02/22-rdf-syntax-ns#"
   xmlns:svg="http://www.w3.org/2000/svg"
   xmlns="http://www.w3.org/2000/svg"
   xmlns:xlink="http://www.w3.org/1999/xlink"
   xmlns:sodipodi="http://sodipodi.sourceforge.net/DTD/sodipodi-0.dtd"
   xmlns:inkscape="http://www.inkscape.org/namespaces/inkscape"
   viewBox="0 0 128 128"
   id="svg2"
   version="1.1"
   inkscape:version="0.91 r"
   width="100%"
   height="100%"
   sodipodi:docname="preferencies-desktop-privacy.svg">
  <metadata
     id="metadata61">
    <rdf:RDF>
      <cc:Work
         rdf:about="">
        <dc:format>image/svg+xml</dc:format>
        <dc:type
           rdf:resource="http://purl.org/dc/dcmitype/StillImage" />
        <dc:title />
      </cc:Work>
    </rdf:RDF>
  </metadata>
  <sodipodi:namedview
     pagecolor="#ffffff"
     bordercolor="#666666"
     borderopacity="1"
     objecttolerance="10"
     gridtolerance="10"
     guidetolerance="10"
     inkscape:pageopacity="0"
     inkscape:pageshadow="2"
     inkscape:window-width="1366"
     inkscape:window-height="744"
     id="namedview59"
     showgrid="false"
     inkscape:zoom="1.7383042"
     inkscape:cx="85.405591"
     inkscape:cy="62.946335"
     inkscape:window-x="0"
     inkscape:window-y="24"
     inkscape:window-maximized="1"
     inkscape:current-layer="svg2" />
  <defs
     id="defs4">
    <linearGradient
       inkscape:collect="always"
       id="linearGradient3398">
      <stop
         style="stop-color:#000000;stop-opacity:1;"
         offset="0"
         id="stop3400" />
      <stop
         id="stop3359"
         offset="0.0532409"
         style="stop-color:#e6e6e6;stop-opacity:1" />
      <stop
         style="stop-color:#1a1a1a;stop-opacity:1"
         offset="0.89935344"
         id="stop3361" />
      <stop
         style="stop-color:#000000;stop-opacity:0;"
         offset="1"
         id="stop3402" />
    </linearGradient>
    <linearGradient
       id="linearGradient3764"
       x1="1"
       x2="47"
       gradientUnits="userSpaceOnUse"
       gradientTransform="matrix(0,-1,1,0,-1.5e-6,47.999998)">
      <stop
         stop-color="#3d3d3d"
         stop-opacity="1"
         id="stop7" />
      <stop
         offset="1"
         stop-color="#474747"
         stop-opacity="1"
         id="stop9" />
    </linearGradient>
    <clipPath
       id="clipPath-037357367">
      <g
         transform="translate(0,-1004.3622)"
         id="g12">
        <path
           d="m -24,13 c 0,1.105 -0.672,2 -1.5,2 -0.828,0 -1.5,-0.895 -1.5,-2 0,-1.105 0.672,-2 1.5,-2 0.828,0 1.5,0.895 1.5,2 z"
           transform="matrix(15.333333,0,0,11.5,414.99999,878.8622)"
           id="path14"
           inkscape:connector-curvature="0"
           style="fill:#1890d0" />
      </g>
    </clipPath>
    <clipPath
       id="clipPath-048207425">
      <g
         transform="translate(0,-1004.3622)"
         id="g17">
        <path
           d="m -24,13 c 0,1.105 -0.672,2 -1.5,2 -0.828,0 -1.5,-0.895 -1.5,-2 0,-1.105 0.672,-2 1.5,-2 0.828,0 1.5,0.895 1.5,2 z"
           transform="matrix(15.333333,0,0,11.5,414.99999,878.8622)"
           id="path19"
           inkscape:connector-curvature="0"
           style="fill:#1890d0" />
      </g>
    </clipPath>
    <linearGradient
       id="linearGradient3356"
       inkscape:collect="always">
      <stop
         id="stop3358"
         offset="0"
         style="stop-color:#f1c40f;stop-opacity:1;" />
      <stop
         style="stop-color:#e8d04c;stop-opacity:1"
         offset="0.04291511"
         id="stop3364" />
      <stop
         id="stop3366"
         offset="0.91152924"
         style="stop-color:#d09c14;stop-opacity:1" />
      <stop
         id="stop3360"
         offset="1"
         style="stop-color:#f1c40f;stop-opacity:0;" />
    </linearGradient>
    <linearGradient
       gradientUnits="userSpaceOnUse"
       y2="-411.39157"
       x2="-24.748549"
       y1="-403.90805"
       x1="-37.121349"
       id="linearGradient3362"
       xlink:href="#linearGradient3356"
       inkscape:collect="always"
       gradientTransform="matrix(6.3460649,0,0,6.3460652,262.99368,2506.7533)" />
    <linearGradient
       inkscape:collect="always"
       xlink:href="#linearGradient3398"
       id="linearGradient3404"
       x1="-2.6882949"
       y1="-2.7173681"
       x2="52.995689"
       y2="53.62952"
       gradientUnits="userSpaceOnUse" />
  </defs>
  <g
     id="g29"
     transform="matrix(2.6034214,0,0,2.6034214,1.8213053,1.0357746)"
     style="fill-opacity:1;fill:url(#linearGradient3404)">
    <path
       d="M 24,1 C 36.703,1 47,11.297 47,24 47,36.703 36.703,47 24,47 11.297,47 1,36.703 1,24 1,11.297 11.297,1 24,1 z"
       id="path31"
       inkscape:connector-curvature="0"
       style="fill:url(#linearGradient3404);fill-opacity:1" />
  </g>
  <g
     id="g33"
     transform="translate(0,80)" />
  <path
     inkscape:connector-curvature="0"
     style="fill:#dee3db;fill-opacity:1;stroke:none"
     d="m 64.071072,25.160632 c -13.394909,0 -24.17851,10.783396 -24.17851,24.178511 l 0,47.461521 5.373002,0 0,-47.461521 c 0,-10.418472 8.387198,-18.805508 18.805508,-18.805508 10.41831,0 18.805507,8.387036 18.805507,18.805508 l 0,47.461521 5.373002,0 0,-47.461521 c 0,-13.395115 -10.783601,-24.178511 -24.178509,-24.178511 z"
     id="rect4122" />
  <rect
     style="fill:url(#linearGradient3362);fill-opacity:1;stroke:none"
     id="rect4118"
     width="60.894039"
     height="35.820015"
     x="33.624046"
     y="-96.800514"
     transform="scale(1,-1)" />
  <path
     inkscape:connector-curvature="0"
     style="fill:#2c3e50;fill-opacity:1;stroke:none"
     d="m 64.071072,68.144651 a 4.4775017,4.477502 0 0 0 -4.477502,4.477502 4.4775017,4.477502 0 0 0 2.686501,4.099712 l 0,12.914796 3.582001,0 0,-12.914796 a 4.4775017,4.477502 0 0 0 2.686502,-4.099712 4.4775017,4.477502 0 0 0 -4.477502,-4.477502 z"
     id="path4135" />
</svg>
