<?xml version="1.0" encoding="UTF-8" standalone="no"?>
<svg
   xmlns:dc="http://purl.org/dc/elements/1.1/"
   xmlns:cc="http://creativecommons.org/ns#"
   xmlns:rdf="http://www.w3.org/1999/02/22-rdf-syntax-ns#"
   xmlns:svg="http://www.w3.org/2000/svg"
   xmlns="http://www.w3.org/2000/svg"
   xmlns:sodipodi="http://sodipodi.sourceforge.net/DTD/sodipodi-0.dtd"
   xmlns:inkscape="http://www.inkscape.org/namespaces/inkscape"
   width="128"
   height="128"
   viewBox="0 0 128 128"
   id="svg2"
   version="1.1"
   inkscape:version="0.91 r"
   sodipodi:docname="document-new.svg">
  <metadata
     id="metadata12">
    <rdf:RDF>
      <cc:Work
         rdf:about="">
        <dc:format>image/svg+xml</dc:format>
        <dc:type
           rdf:resource="http://purl.org/dc/dcmitype/StillImage" />
      </cc:Work>
    </rdf:RDF>
  </metadata>
  <defs
     id="defs10" />
  <sodipodi:namedview
     pagecolor="#ffffff"
     bordercolor="#666666"
     borderopacity="1"
     objecttolerance="10"
     gridtolerance="10"
     guidetolerance="10"
     inkscape:pageopacity="0"
     inkscape:pageshadow="2"
     inkscape:window-width="640"
     inkscape:window-height="480"
     id="namedview8"
     showgrid="false"
     inkscape:zoom="1.84375"
     inkscape:cx="64"
     inkscape:cy="64"
     inkscape:window-x="10"
     inkscape:window-y="34"
     inkscape:window-maximized="0"
     inkscape:current-layer="svg2" />
  <path
     style="fill:#e6e6e6;fill-rule:evenodd;fill-opacity:1"
     d="m 28.187283,11.38983 60.93294,0 c 12.187287,0 12.187287,0 12.187287,12.103004 l 0,84.717696 c 0,12.10301 0,12.10301 -12.187287,12.10301 l -60.93294,0 C 16,120.31354 16,120.31354 16,108.21053 L 16,23.492834 C 16,11.38983 16,11.38983 28.187283,11.38983 Z"
     id="path4"
     inkscape:connector-curvature="0" />
  <path
     style="fill:#00d400;fill-opacity:1"
     d="m 115.52542,77.659786 -21.326873,0 0,-21.326876 -21.326876,0 0,21.326876 -21.326877,0 0,21.326877 21.326877,0 0,21.326877 21.326876,0 0,-21.326877 21.326873,0 z"
     id="path6"
     inkscape:connector-curvature="0" />
</svg>
