<?xml version="1.0" encoding="UTF-8" standalone="no"?>
<svg
   xmlns:dc="http://purl.org/dc/elements/1.1/"
   xmlns:cc="http://creativecommons.org/ns#"
   xmlns:rdf="http://www.w3.org/1999/02/22-rdf-syntax-ns#"
   xmlns:svg="http://www.w3.org/2000/svg"
   xmlns="http://www.w3.org/2000/svg"
   xmlns:xlink="http://www.w3.org/1999/xlink"
   xmlns:sodipodi="http://sodipodi.sourceforge.net/DTD/sodipodi-0.dtd"
   xmlns:inkscape="http://www.inkscape.org/namespaces/inkscape"
   width="48"
   height="48"
   viewBox="0 0 48 48"
   id="svg2"
   version="1.1"
   inkscape:version="0.91 r"
   sodipodi:docname="document-export.svg">
  <metadata
     id="metadata14">
    <rdf:RDF>
      <cc:Work
         rdf:about="">
        <dc:format>image/svg+xml</dc:format>
        <dc:type
           rdf:resource="http://purl.org/dc/dcmitype/StillImage" />
      </cc:Work>
    </rdf:RDF>
  </metadata>
  <defs
     id="defs12">
    <linearGradient
       inkscape:collect="always"
       id="linearGradient3352">
      <stop
         style="stop-color:#268bd2;stop-opacity:1;"
         offset="0"
         id="stop3354" />
      <stop
         id="stop3360"
         offset="0.20620438"
         style="stop-color:#aaccff;stop-opacity:1" />
      <stop
         style="stop-color:#0066ff;stop-opacity:1"
         offset="0.57116789"
         id="stop3364" />
      <stop
         style="stop-color:#003380;stop-opacity:1"
         offset="0.93978101"
         id="stop3362" />
      <stop
         style="stop-color:#268bd2;stop-opacity:0;"
         offset="1"
         id="stop3356" />
    </linearGradient>
    <linearGradient
       inkscape:collect="always"
       xlink:href="#linearGradient3352"
       id="linearGradient3358"
       x1="-4.0677967"
       y1="-4.2711864"
       x2="51.661018"
       y2="51.457626"
       gradientUnits="userSpaceOnUse" />
  </defs>
  <sodipodi:namedview
     pagecolor="#ffffff"
     bordercolor="#666666"
     borderopacity="1"
     objecttolerance="10"
     gridtolerance="10"
     guidetolerance="10"
     inkscape:pageopacity="0"
     inkscape:pageshadow="2"
     inkscape:window-width="1366"
     inkscape:window-height="744"
     id="namedview10"
     showgrid="false"
     inkscape:zoom="4.9166667"
     inkscape:cx="24"
     inkscape:cy="24"
     inkscape:window-x="0"
     inkscape:window-y="24"
     inkscape:window-maximized="1"
     inkscape:current-layer="svg2" />
  <path
     inkscape:connector-curvature="0"
     id="path6"
     d="m 8,6 20,0 c 4,0 4,0 4,4 l 0,28 c 0,4 0,4 -4,4 L 8,42 C 4,42 4,42 4,38 L 4,10 C 4,6 4,6 8,6 Z"
     style="fill:#ffffff;fill-rule:evenodd" />
  <path
     inkscape:connector-curvature="0"
     id="path8"
     d="m 29.914062,38.210938 13.75,-11 c 2.757813,-2.757813 2.75,-2.75 0,-5.5 l -13.75,-11 C 28,9.175781 28,9.742188 28,13.539062 c -0.03906,1.375 -0.08594,2.921876 0,4.921876 -0.03125,0 0.03125,0 0,0 -13.664062,0 -20.085938,8.75 -20,19.835937 5.414062,-5.585937 11.75,-8.007813 20,-7.835937 0,1.96875 -0.03906,2.671874 0,4 0,2 0,5.105468 1.914062,3.75 z"
     style="fill:url(#linearGradient3358);fill-rule:evenodd;fill-opacity:1" />
</svg>
