<?xml version="1.0" encoding="UTF-8" standalone="no"?>
<!-- Created with Inkscape (http://www.inkscape.org/) -->

<svg
   xmlns:dc="http://purl.org/dc/elements/1.1/"
   xmlns:cc="http://creativecommons.org/ns#"
   xmlns:rdf="http://www.w3.org/1999/02/22-rdf-syntax-ns#"
   xmlns:svg="http://www.w3.org/2000/svg"
   xmlns="http://www.w3.org/2000/svg"
   xmlns:xlink="http://www.w3.org/1999/xlink"
   xmlns:sodipodi="http://sodipodi.sourceforge.net/DTD/sodipodi-0.dtd"
   xmlns:inkscape="http://www.inkscape.org/namespaces/inkscape"
   id="svg2"
   version="1.1"
   inkscape:version="0.91 r"
   width="512"
   height="512"
   sodipodi:docname="document-save.svg">
  <metadata
     id="metadata8">
    <rdf:RDF>
      <cc:Work
         rdf:about="">
        <dc:format>image/svg+xml</dc:format>
        <dc:type
           rdf:resource="http://purl.org/dc/dcmitype/StillImage" />
        <dc:title />
      </cc:Work>
    </rdf:RDF>
  </metadata>
  <defs
     id="defs6">
    <linearGradient
       inkscape:collect="always"
       id="linearGradient3342">
      <stop
         style="stop-color:#19aeff;stop-opacity:1;"
         offset="0"
         id="stop3344" />
      <stop
         id="stop3358"
         offset="0.11777776"
         style="stop-color:#50d0fc;stop-opacity:1" />
      <stop
         style="stop-color:#0d6bd2;stop-opacity:1"
         offset="0.83883393"
         id="stop3356" />
      <stop
         style="stop-color:#19aeff;stop-opacity:0;"
         offset="1"
         id="stop3346" />
    </linearGradient>
    <linearGradient
       inkscape:collect="always"
       xlink:href="#linearGradient3342"
       id="linearGradient3348"
       x1="-5.6382647"
       y1="-53.177921"
       x2="516.42157"
       y2="584.99194"
       gradientUnits="userSpaceOnUse" />
    <linearGradient
       gradientTransform="matrix(17.582245,0,0,17.582245,-7375.8113,-9074.483)"
       y2="518.14001"
       x2="0"
       y1="545.14001"
       gradientUnits="userSpaceOnUse"
       id="0">
      <stop
         stop-color="#197ff1"
         id="stop7" />
      <stop
         offset="1"
         stop-color="#21c6fb"
         id="stop9" />
    </linearGradient>
  </defs>
  <sodipodi:namedview
     pagecolor="#ffffff"
     bordercolor="#666666"
     borderopacity="1"
     objecttolerance="10"
     gridtolerance="10"
     guidetolerance="10"
     inkscape:pageopacity="0"
     inkscape:pageshadow="2"
     inkscape:window-width="1366"
     inkscape:window-height="744"
     id="namedview4"
     showgrid="false"
     inkscape:zoom="0.32593203"
     inkscape:cx="349.68756"
     inkscape:cy="316.62666"
     inkscape:window-x="0"
     inkscape:window-y="24"
     inkscape:window-maximized="1"
     inkscape:current-layer="svg2" />
  <path
     style="fill:url(#linearGradient3348);fill-opacity:1"
     d="M 103.98674,484.01491 C 87.245451,478.6989 73.587693,462.05567 69.30165,441.74794 68.163468,436.3551 68.001107,413.24553 68.001107,256.6389 c 0,-197.250397 -0.356899,-184.087477 5.368288,-197.991507 3.690979,-8.96382 12.907345,-20.08516 20.335745,-24.53906 11.52012,-6.90719 0.7033,-6.47789 163.22059,-6.47789 162.51729,0 151.70047,-0.4293 163.22059,6.47789 7.4284,4.4539 16.64476,15.57524 20.33575,24.53906 5.72518,13.90403 5.36828,0.74111 5.36828,197.991507 0,156.60663 -0.16236,179.7162 -1.30054,185.10904 -4.33511,20.54019 -18.05748,37.0989 -35.07931,42.33006 -7.51527,2.30958 -298.20071,2.24955 -305.48376,-0.0631 z"
     id="path2984"
     inkscape:connector-curvature="0" />
  <path
     style="fill:#ffffff"
     d="m 310.92488,312.32411 c 27.50282,-30.54894 46.94337,-52.95285 46.41088,-53.48534 -0.50397,-0.50398 -12.30029,-1.04114 -26.21402,-1.19369 l -25.2977,-0.27736 -0.51695,-54.79661 -0.51695,-54.79661 -42.90678,0 -42.90678,0 -0.51695,54.79661 -0.51695,54.79661 -25.84745,0.51695 c -16.7722,0.33544 -25.84746,0.89222 -25.84746,1.58578 0,2.0723 94.05246,105.88739 95.71733,105.65277 0.89792,-0.12655 22.92982,-23.88614 48.95978,-52.79911 z"
     id="path2982"
     inkscape:connector-curvature="0" />
  <ellipse
     style="fill:#ffffff;fill-opacity:1;fill-rule:nonzero;stroke:#5f6a78;stroke-width:0;stroke-linecap:round;stroke-linejoin:miter;stroke-miterlimit:4;stroke-dasharray:none;stroke-opacity:1"
     id="path2988"
     cx="1006.3193"
     cy="233.84157"
     rx="205.87068"
     ry="204.83615" />
  <text
     xml:space="preserve"
     style="font-style:normal;font-weight:bold;font-size:301.23687744px;line-height:125%;font-family:Sans;-inkscape-font-specification:'Helvetica Neue Bold';letter-spacing:0px;word-spacing:0px;fill:#ffffff;fill-opacity:1;stroke:none"
     x="909.42023"
     y="353.40366"
     id="text2987"
     sodipodi:linespacing="125%"
     transform="scale(1.0164597,0.98380683)"><tspan
       sodipodi:role="line"
       id="tspan2989"
       x="909.42023"
       y="353.40366"
       style="font-style:normal;font-variant:normal;font-weight:bold;font-stretch:normal;font-family:'Helvetica Neue';-inkscape-font-specification:'Helvetica Neue Bold';fill:#ffffff">?</tspan></text>
  <circle
     style="fill:#5ea5fb;fill-opacity:0"
     id="circle17"
     r="246.15143"
     cy="259.29614"
     cx="417.61578" />
</svg>
