<?xml version="1.0" encoding="UTF-8" standalone="no"?>
<svg
   xmlns:dc="http://purl.org/dc/elements/1.1/"
   xmlns:cc="http://creativecommons.org/ns#"
   xmlns:rdf="http://www.w3.org/1999/02/22-rdf-syntax-ns#"
   xmlns:svg="http://www.w3.org/2000/svg"
   xmlns="http://www.w3.org/2000/svg"
   xmlns:xlink="http://www.w3.org/1999/xlink"
   xmlns:sodipodi="http://sodipodi.sourceforge.net/DTD/sodipodi-0.dtd"
   xmlns:inkscape="http://www.inkscape.org/namespaces/inkscape"
   width="48"
   height="48"
   viewBox="0 0 48 48"
   id="svg2"
   version="1.1"
   inkscape:version="0.91 r"
   sodipodi:docname="extract-archive.svg">
  <metadata
     id="metadata16">
    <rdf:RDF>
      <cc:Work
         rdf:about="">
        <dc:format>image/svg+xml</dc:format>
        <dc:type
           rdf:resource="http://purl.org/dc/dcmitype/StillImage" />
      </cc:Work>
    </rdf:RDF>
  </metadata>
  <defs
     id="defs14">
    <linearGradient
       inkscape:collect="always"
       id="linearGradient3344">
      <stop
         style="stop-color:#268bd2;stop-opacity:1;"
         offset="0"
         id="stop3346" />
      <stop
         id="stop3352"
         offset="0.13697527"
         style="stop-color:#aaccff;stop-opacity:1" />
      <stop
         style="stop-color:#5599ff;stop-opacity:1"
         offset="0.46500993"
         id="stop3354" />
      <stop
         id="stop3356"
         offset="0.82739508"
         style="stop-color:#0044aa;stop-opacity:1" />
      <stop
         style="stop-color:#268bd2;stop-opacity:0;"
         offset="1"
         id="stop3348" />
    </linearGradient>
    <linearGradient
       inkscape:collect="always"
       xlink:href="#linearGradient3344"
       id="linearGradient3350"
       x1="-1.8305085"
       y1="26.440678"
       x2="57.152542"
       y2="30.101694"
       gradientUnits="userSpaceOnUse" />
  </defs>
  <sodipodi:namedview
     pagecolor="#ffffff"
     bordercolor="#666666"
     borderopacity="1"
     objecttolerance="10"
     gridtolerance="10"
     guidetolerance="10"
     inkscape:pageopacity="0"
     inkscape:pageshadow="2"
     inkscape:window-width="640"
     inkscape:window-height="480"
     id="namedview12"
     showgrid="false"
     inkscape:zoom="4.9166667"
     inkscape:cx="24"
     inkscape:cy="24"
     inkscape:window-x="10"
     inkscape:window-y="34"
     inkscape:window-maximized="0"
     inkscape:current-layer="svg2" />
  <path
     style="fill:#c19553"
     d="M 5.289062 3 C 4.144531 3 3 4.144531 3 5.289062 L 3 40.777344 C 3 41.855469 4.144531 43 5.222656 43 L 40.777344 43 C 41.855469 43 43 41.855469 43 40.777344 L 43 5.222656 C 43 4.144531 41.855469 3 40.777344 3 Z "
     id="path4" />
  <path
     style="fill:#fff;fill-opacity:.196"
     d="M 5.289062 3 C 4.144531 3 3 4.144531 3 5.289062 L 3 19 C 7.441406 19 38.558594 19 43 19 L 43 5.222656 C 43 4.144531 41.855469 3 40.777344 3 Z "
     id="path6" />
  <path
     style="fill:#fff"
     d="M 23 7 L 19 7 L 19 3 L 23 3 L 23 11 L 19 11 L 19 15 L 23 15 L 23 23.03125 L 19 23 L 19 31 L 27 31 L 27 23 L 23 23.03125 L 23 19 L 27 19 L 27 15 L 23 15 L 23 11 L 27 11 L 27 7 Z "
     id="path8" />
  <path
     style="fill:url(#linearGradient3350);fill-rule:evenodd;fill-opacity:1"
     d="M 29.183594 16.707031 L 42.933594 27.707031 C 45.691406 30.464844 45.683594 30.457031 42.933594 33.207031 L 29.183594 44.207031 C 27.269531 45.742188 27.269531 45.171875 27.269531 41.378906 C 27.230469 40.003906 27.183594 38.457031 27.269531 36.457031 C 27.238281 36.457031 27.300781 36.457031 27.269531 36.457031 C 13.605469 36.457031 7.183594 27.707031 7.269531 16.621094 C 12.683594 22.207031 19.019531 24.628906 27.269531 24.457031 C 27.269531 22.488281 27.230469 21.785156 27.269531 20.457031 C 27.269531 18.457031 27.269531 15.347656 29.183594 16.707031 Z "
     id="path10" />
</svg>
