<?xml version="1.0" encoding="UTF-8" standalone="no"?>
<svg
   xmlns:dc="http://purl.org/dc/elements/1.1/"
   xmlns:cc="http://creativecommons.org/ns#"
   xmlns:rdf="http://www.w3.org/1999/02/22-rdf-syntax-ns#"
   xmlns:svg="http://www.w3.org/2000/svg"
   xmlns="http://www.w3.org/2000/svg"
   xmlns:xlink="http://www.w3.org/1999/xlink"
   xmlns:sodipodi="http://sodipodi.sourceforge.net/DTD/sodipodi-0.dtd"
   xmlns:inkscape="http://www.inkscape.org/namespaces/inkscape"
   width="48"
   height="48"
   viewBox="0 0 48 48"
   id="svg2"
   version="1.1"
   inkscape:version="0.91 r"
   sodipodi:docname="go-bottom.svg">
  <metadata
     id="metadata16">
    <rdf:RDF>
      <cc:Work
         rdf:about="">
        <dc:format>image/svg+xml</dc:format>
        <dc:type
           rdf:resource="http://purl.org/dc/dcmitype/StillImage" />
      </cc:Work>
    </rdf:RDF>
  </metadata>
  <defs
     id="defs14">
    <linearGradient
       inkscape:collect="always"
       id="linearGradient3344">
      <stop
         style="stop-color:#268bd2;stop-opacity:1;"
         offset="0"
         id="stop3346" />
      <stop
         id="stop3352"
         offset="0.12262028"
         style="stop-color:#80b3ff;stop-opacity:1" />
      <stop
         style="stop-color:#0066ff;stop-opacity:1"
         offset="0.48296288"
         id="stop3356" />
      <stop
         style="stop-color:#0044aa;stop-opacity:1"
         offset="0.867989"
         id="stop3354" />
      <stop
         style="stop-color:#268bd2;stop-opacity:0;"
         offset="1"
         id="stop3348" />
    </linearGradient>
    <linearGradient
       inkscape:collect="always"
       xlink:href="#linearGradient3344"
       id="linearGradient3350"
       x1="-2.2372882"
       y1="-3.0508475"
       x2="51.254238"
       y2="51.254238"
       gradientUnits="userSpaceOnUse" />
  </defs>
  <sodipodi:namedview
     pagecolor="#ffffff"
     bordercolor="#666666"
     borderopacity="1"
     objecttolerance="10"
     gridtolerance="10"
     guidetolerance="10"
     inkscape:pageopacity="0"
     inkscape:pageshadow="2"
     inkscape:window-width="1366"
     inkscape:window-height="744"
     id="namedview12"
     showgrid="false"
     inkscape:zoom="4.9166667"
     inkscape:cx="24"
     inkscape:cy="24"
     inkscape:window-x="0"
     inkscape:window-y="24"
     inkscape:window-maximized="1"
     inkscape:current-layer="svg2" />
  <g
     style="fill-rule:evenodd"
     id="g4">
    <path
       style="fill:url(#linearGradient3350);fill-opacity:1"
       d="M 24 44 C 35.042969 44 44 35.042969 44 24 C 44 12.957031 35.042969 4 24 4 C 12.957031 4 4 12.957031 4 24 C 4 35.042969 12.957031 44 24 44 Z "
       id="path6" />
    <path
       style="fill:#fff;fill-opacity:.902"
       d="M 8 36 C 12 42 17.921875 44 24 44 C 30.066406 44 36 42 40 36 "
       id="path8" />
  </g>
  <path
     style="fill:#fff;fill-opacity:.902"
     d="M 23.992188 36 C 24.605469 36 25.1875 35.738281 25.617188 35.3125 L 33.304688 27.875 C 33.730469 27.472656 33.976562 26.898438 33.992188 26.3125 C 34.023438 25.382812 33.496094 24.550781 32.617188 24.1875 C 31.742188 23.824219 30.714844 24.019531 30.054688 24.6875 L 25.992188 28.625 L 25.992188 12 L 21.992188 12 L 21.992188 28.625 L 17.929688 24.6875 C 17.03125 23.8125 15.582031 23.8125 14.679688 24.6875 C 13.78125 25.5625 13.78125 27 14.679688 27.875 L 22.367188 35.3125 C 22.800781 35.738281 23.382812 36 23.992188 36 Z "
     id="path10" />
</svg>
