<?xml version="1.0" encoding="UTF-8" standalone="no"?>
<svg
   xmlns:dc="http://purl.org/dc/elements/1.1/"
   xmlns:cc="http://creativecommons.org/ns#"
   xmlns:rdf="http://www.w3.org/1999/02/22-rdf-syntax-ns#"
   xmlns:svg="http://www.w3.org/2000/svg"
   xmlns="http://www.w3.org/2000/svg"
   xmlns:xlink="http://www.w3.org/1999/xlink"
   xmlns:sodipodi="http://sodipodi.sourceforge.net/DTD/sodipodi-0.dtd"
   xmlns:inkscape="http://www.inkscape.org/namespaces/inkscape"
   width="48"
   height="48"
   viewBox="0 0 48 48"
   id="svg2"
   version="1.1"
   inkscape:version="0.91 r"
   sodipodi:docname="go-home.svg">
  <metadata
     id="metadata12">
    <rdf:RDF>
      <cc:Work
         rdf:about="">
        <dc:format>image/svg+xml</dc:format>
        <dc:type
           rdf:resource="http://purl.org/dc/dcmitype/StillImage" />
      </cc:Work>
    </rdf:RDF>
  </metadata>
  <defs
     id="defs10">
    <linearGradient
       inkscape:collect="always"
       id="linearGradient3340">
      <stop
         style="stop-color:#b58900;stop-opacity:1;"
         offset="0"
         id="stop3342" />
      <stop
         id="stop3348"
         offset="0.11850389"
         style="stop-color:#80b3ff;stop-opacity:1" />
      <stop
         style="stop-color:#2a7fff;stop-opacity:1"
         offset="0.47767767"
         id="stop3350" />
      <stop
         id="stop3352"
         offset="0.87217629"
         style="stop-color:#0044aa;stop-opacity:1" />
      <stop
         style="stop-color:#b58900;stop-opacity:0;"
         offset="1"
         id="stop3344" />
    </linearGradient>
    <linearGradient
       inkscape:collect="always"
       xlink:href="#linearGradient3340"
       id="linearGradient3346"
       x1="-3.2542372"
       y1="-4.0677967"
       x2="51.050846"
       y2="51.457626"
       gradientUnits="userSpaceOnUse" />
  </defs>
  <sodipodi:namedview
     pagecolor="#ffffff"
     bordercolor="#666666"
     borderopacity="1"
     objecttolerance="10"
     gridtolerance="10"
     guidetolerance="10"
     inkscape:pageopacity="0"
     inkscape:pageshadow="2"
     inkscape:window-width="1102"
     inkscape:window-height="642"
     id="namedview8"
     showgrid="false"
     inkscape:zoom="4.9166667"
     inkscape:cx="24"
     inkscape:cy="24"
     inkscape:window-x="10"
     inkscape:window-y="34"
     inkscape:window-maximized="0"
     inkscape:current-layer="svg2" />
  <path
     style="fill:url(#linearGradient3346);fill-rule:evenodd;fill-opacity:1"
     d="M 44 24 C 44 35.046875 35.042969 44 24 44 C 12.957031 44 4 35.046875 4 24 C 4 12.957031 12.953125 4 24 4 C 35.046875 4 44 12.957031 44 24 Z "
     id="path4" />
  <path
     style="fill:#fff;fill-opacity:.902"
     d="M 22.503906 12.554688 C 9.214844 22.378906 9.046875 19.710938 9.046875 22.417969 C 9.046875 23.824219 9.515625 24 14 24 L 14 34 C 14 36 14 36 16 36 L 20 36 C 22 36 22 36 22 34 L 22 26 C 24.492188 26 23.507812 26 26 26 L 26 34 C 26 36 26 36 28 36 L 32 36 C 34 36 34 36 34 34 L 34 24 C 38.484375 24 38.953125 23.824219 38.953125 22.417969 C 38.953125 19.703125 38.84375 22.425781 25.496094 12.554688 C 24 11.148438 24 11.148438 22.503906 12.554688 Z "
     id="path6" />
</svg>
