<?xml version="1.0" encoding="UTF-8" standalone="no"?>
<svg
   xmlns:dc="http://purl.org/dc/elements/1.1/"
   xmlns:cc="http://creativecommons.org/ns#"
   xmlns:rdf="http://www.w3.org/1999/02/22-rdf-syntax-ns#"
   xmlns:svg="http://www.w3.org/2000/svg"
   xmlns="http://www.w3.org/2000/svg"
   xmlns:xlink="http://www.w3.org/1999/xlink"
   xmlns:sodipodi="http://sodipodi.sourceforge.net/DTD/sodipodi-0.dtd"
   xmlns:inkscape="http://www.inkscape.org/namespaces/inkscape"
   width="48"
   height="48"
   viewBox="0 0 48 48"
   id="svg2"
   version="1.1"
   inkscape:version="0.91 r"
   sodipodi:docname="go-left.svg">
  <metadata
     id="metadata12">
    <rdf:RDF>
      <cc:Work
         rdf:about="">
        <dc:format>image/svg+xml</dc:format>
        <dc:type
           rdf:resource="http://purl.org/dc/dcmitype/StillImage" />
        <dc:title></dc:title>
      </cc:Work>
    </rdf:RDF>
  </metadata>
  <defs
     id="defs10">
    <linearGradient
       inkscape:collect="always"
       id="linearGradient3340">
      <stop
         style="stop-color:#268bd2;stop-opacity:1;"
         offset="0"
         id="stop3342" />
      <stop
         id="stop3348"
         offset="0.13407403"
         style="stop-color:#80b3ff;stop-opacity:1" />
      <stop
         style="stop-color:#2a7fff;stop-opacity:1"
         offset="0.49522501"
         id="stop3350" />
      <stop
         id="stop3352"
         offset="0.86407423"
         style="stop-color:#0044aa;stop-opacity:1" />
      <stop
         style="stop-color:#268bd2;stop-opacity:0;"
         offset="1"
         id="stop3344" />
    </linearGradient>
    <linearGradient
       inkscape:collect="always"
       xlink:href="#linearGradient3340"
       id="linearGradient3346"
       x1="-2.8474576"
       y1="-3.6610169"
       x2="51.457626"
       y2="51.254238"
       gradientUnits="userSpaceOnUse" />
  </defs>
  <sodipodi:namedview
     pagecolor="#ffffff"
     bordercolor="#666666"
     borderopacity="1"
     objecttolerance="10"
     gridtolerance="10"
     guidetolerance="10"
     inkscape:pageopacity="0"
     inkscape:pageshadow="2"
     inkscape:window-width="1366"
     inkscape:window-height="744"
     id="namedview8"
     showgrid="false"
     inkscape:zoom="4.9166667"
     inkscape:cx="24"
     inkscape:cy="24"
     inkscape:window-x="0"
     inkscape:window-y="24"
     inkscape:window-maximized="1"
     inkscape:current-layer="svg2" />
  <path
     style="fill:url(#linearGradient3346);fill-rule:evenodd;fill-opacity:1"
     d="M 24 44 C 35.042969 44 44 35.042969 44 24 C 44 12.957031 35.042969 4 24 4 C 12.957031 4 4 12.957031 4 24 C 4 35.042969 12.957031 44 24 44 Z "
     id="path4" />
  <path
     style="fill:#ffffff;fill-opacity:0.90200004"
     d="m 11.999682,23.992506 c 0,0.613281 0.261719,1.195312 0.6875,1.625 l 7.4375,7.6875 c 0.402344,0.425781 0.976562,0.671874 1.5625,0.6875 0.929688,0.03125 1.761719,-0.496094 2.125,-1.375 0.363281,-0.875 0.167969,-1.902344 -0.5,-2.5625 l -3.9375,-4.0625 16.625,0 0,-4 -16.625,0 3.9375,-4.0625 c 0.875,-0.898438 0.875,-2.347657 0,-3.25 -0.875,-0.898438 -2.3125,-0.898438 -3.1875,0 l -7.4375,7.6875 c -0.425781,0.433593 -0.6875,1.015624 -0.6875,1.625 z"
     id="path6"
     inkscape:connector-curvature="0" />
</svg>
