<?xml version="1.0" encoding="UTF-8" standalone="no"?>
<svg
   xmlns:dc="http://purl.org/dc/elements/1.1/"
   xmlns:cc="http://creativecommons.org/ns#"
   xmlns:rdf="http://www.w3.org/1999/02/22-rdf-syntax-ns#"
   xmlns:svg="http://www.w3.org/2000/svg"
   xmlns="http://www.w3.org/2000/svg"
   xmlns:sodipodi="http://sodipodi.sourceforge.net/DTD/sodipodi-0.dtd"
   xmlns:inkscape="http://www.inkscape.org/namespaces/inkscape"
   viewBox="0 0 128 128"
   id="svg2"
   version="1.1"
   inkscape:version="0.91 r"
   sodipodi:docname="help-about.svg"
   width="128"
   height="128">
  <metadata
     id="metadata27">
    <rdf:RDF>
      <cc:Work
         rdf:about="">
        <dc:format>image/svg+xml</dc:format>
        <dc:type
           rdf:resource="http://purl.org/dc/dcmitype/StillImage" />
        <dc:title></dc:title>
      </cc:Work>
    </rdf:RDF>
  </metadata>
  <sodipodi:namedview
     pagecolor="#ffffff"
     bordercolor="#666666"
     borderopacity="1"
     objecttolerance="10"
     gridtolerance="10"
     guidetolerance="10"
     inkscape:pageopacity="0"
     inkscape:pageshadow="2"
     inkscape:window-width="1366"
     inkscape:window-height="744"
     id="namedview25"
     showgrid="false"
     inkscape:zoom="1.7383042"
     inkscape:cx="114.93432"
     inkscape:cy="19.957356"
     inkscape:window-x="0"
     inkscape:window-y="24"
     inkscape:window-maximized="1"
     inkscape:current-layer="svg2" />
  <defs
     id="defs4">
    <linearGradient
       y2="518.14001"
       x2="0"
       y1="545.14001"
       gradientUnits="userSpaceOnUse"
       id="0">
      <stop
         stop-color="#197ff1"
         id="stop7" />
      <stop
         offset="1"
         stop-color="#21c6fb"
         id="stop9" />
    </linearGradient>
  </defs>
  <g
     transform="matrix(2.3280766,0,0,2.3280766,-1725.3997,-378.16236)"
     id="g11">
    <g
       transform="matrix(1.85714,0,0,1.85714,24.939,-797.69)"
       id="g13">
      <circle
         r="14"
         cy="531.79999"
         cx="400.57001"
         id="circle15"
         style="fill:url(#0)" />
      <circle
         cx="400.57001"
         cy="531.79999"
         r="14"
         id="circle17"
         style="fill:#5ea5fb;fill-opacity:0" />
    </g>
    <g
       transform="matrix(0.68376,0,0,0.68376,395.54,-163.65)"
       id="g19"
       style="fill:#ffffff;fill-opacity:0.85500004;fill-rule:evenodd">
      <path
         d="m 545.97707,495.17607 a 4.875,4.875 0 0 1 4.875,4.875 4.875,4.875 0 0 1 -4.875,4.875 4.875,4.875 0 0 1 -4.875,-4.875 4.875,4.875 0 0 1 4.875,-4.875"
         id="path21"
         inkscape:connector-curvature="0" />
      <path
         d="m 545.45,509.8 1.038,0 c 1.736,0 3.142,1.396 3.142,3.133 l 0,22.985 c 0,1.736 -1.406,3.133 -3.142,3.133 l -1.038,0 c -1.736,0 -3.133,-1.396 -3.133,-3.133 l 0,-22.985 c 0,-1.736 1.396,-3.133 3.133,-3.133"
         id="path23"
         inkscape:connector-curvature="0" />
    </g>
  </g>
</svg>
