<?xml version="1.0" encoding="UTF-8" standalone="no"?>
<svg
   xmlns:dc="http://purl.org/dc/elements/1.1/"
   xmlns:cc="http://creativecommons.org/ns#"
   xmlns:rdf="http://www.w3.org/1999/02/22-rdf-syntax-ns#"
   xmlns:svg="http://www.w3.org/2000/svg"
   xmlns="http://www.w3.org/2000/svg"
   xmlns:xlink="http://www.w3.org/1999/xlink"
   xmlns:sodipodi="http://sodipodi.sourceforge.net/DTD/sodipodi-0.dtd"
   xmlns:inkscape="http://www.inkscape.org/namespaces/inkscape"
   width="48"
   height="48"
   viewBox="0 0 48 48"
   id="svg2"
   version="1.1"
   inkscape:version="0.91 r"
   sodipodi:docname="media-playlist-repeat.svg">
  <metadata
     id="metadata12">
    <rdf:RDF>
      <cc:Work
         rdf:about="">
        <dc:format>image/svg+xml</dc:format>
        <dc:type
           rdf:resource="http://purl.org/dc/dcmitype/StillImage" />
      </cc:Work>
    </rdf:RDF>
  </metadata>
  <defs
     id="defs10">
    <linearGradient
       id="linearGradient3404"
       inkscape:collect="always">
      <stop
         id="stop3406"
         offset="0"
         style="stop-color:#21c5fa;stop-opacity:1" />
      <stop
         id="stop3408"
         offset="1"
         style="stop-color:#197ef1;stop-opacity:1" />
    </linearGradient>
    <linearGradient
       id="0"
       x1="61.57"
       y1="22.938999"
       x2="60.752998"
       y2="-27.705999"
       gradientUnits="userSpaceOnUse">
      <stop
         stop-color="#197cf1"
         id="stop7" />
      <stop
         offset="1"
         stop-color="#21c9fb"
         id="stop9" />
    </linearGradient>
    <linearGradient
       inkscape:collect="always"
       xlink:href="#linearGradient3404"
       id="linearGradient4206"
       x1="1.9999855"
       y1="26.765867"
       x2="46"
       y2="26.765867"
       gradientUnits="userSpaceOnUse" />
  </defs>
  <sodipodi:namedview
     pagecolor="#ffffff"
     bordercolor="#666666"
     borderopacity="1"
     objecttolerance="10"
     gridtolerance="10"
     guidetolerance="10"
     inkscape:pageopacity="0"
     inkscape:pageshadow="2"
     inkscape:window-width="1366"
     inkscape:window-height="744"
     id="namedview8"
     showgrid="false"
     inkscape:zoom="4.9166667"
     inkscape:cx="20.440678"
     inkscape:cy="24"
     inkscape:window-x="0"
     inkscape:window-y="24"
     inkscape:window-maximized="1"
     inkscape:current-layer="svg2" />
  <g
     id="g4"
     style="fill-opacity:1.0;fill:url(#linearGradient4206)">
    <path
       d="M 10 10 L 38 10 C 45.9375 10 46 10 46 18 L 46 30 C 46 38 46 38 38 38 C 34 38 34 38 30.921875 38 C 31.957031 38.882812 32.699219 40.191406 32.160156 41.621094 C 31.585938 43.695312 28.589844 44.214844 27.304688 42.511719 C 24.910156 40.097656 23.582031 37.734375 21.25 35.257812 C 23.722656 32.644531 25.179688 30.128906 27.722656 27.589844 C 29.394531 26.046875 32.492188 27.433594 32.359375 29.734375 C 32.414062 30.933594 31.667969 31.238281 30.890625 32 C 34 32 34 32 38 32 C 40 32 40 32 40 30 L 40 18 C 40 16 40 16 38 16 C 31.695312 16 10 16 10 16 C 8 16 8 16 8 18 L 8 30 C 8 32 8 32 10 32 L 14 32 C 16 32 16 32 16.023438 34.058594 C 16 34.703125 16.011719 35.378906 16 36 C 16 38 16 38 14 38 L 10 38 C 2 38 2 38 2 30 L 2 18 C 2 10 1.9375 10 10 10 Z "
       fill="#268bd1"
       id="path6"
       style="fill-opacity:1.0;fill:url(#linearGradient4206)" />
  </g>
</svg>
