<?xml version="1.0" encoding="UTF-8" standalone="no"?>
<svg
   xmlns:dc="http://purl.org/dc/elements/1.1/"
   xmlns:cc="http://creativecommons.org/ns#"
   xmlns:rdf="http://www.w3.org/1999/02/22-rdf-syntax-ns#"
   xmlns:svg="http://www.w3.org/2000/svg"
   xmlns="http://www.w3.org/2000/svg"
   xmlns:xlink="http://www.w3.org/1999/xlink"
   xmlns:sodipodi="http://sodipodi.sourceforge.net/DTD/sodipodi-0.dtd"
   xmlns:inkscape="http://www.inkscape.org/namespaces/inkscape"
   width="48"
   height="48"
   viewBox="0 0 48 48"
   id="svg2"
   version="1.1"
   inkscape:version="0.91 r"
   sodipodi:docname="process-stop.svg">
  <metadata
     id="metadata16">
    <rdf:RDF>
      <cc:Work
         rdf:about="">
        <dc:format>image/svg+xml</dc:format>
        <dc:type
           rdf:resource="http://purl.org/dc/dcmitype/StillImage" />
      </cc:Work>
    </rdf:RDF>
  </metadata>
  <defs
     id="defs14">
    <linearGradient
       inkscape:collect="always"
       id="linearGradient3360">
      <stop
         style="stop-color:#fd5252;stop-opacity:1"
         offset="0"
         id="stop3362" />
      <stop
         style="stop-color:#c72929;stop-opacity:1"
         offset="1"
         id="stop3364" />
    </linearGradient>
    <linearGradient
       gradientTransform="matrix(2.4745763,0,0,2.4745763,4.881356,4.7457627)"
       gradientUnits="userSpaceOnUse"
       y2="-1.22"
       x2="0"
       y1="48.610001"
       id="0">
      <stop
         id="stop7"
         stop-color="#c52828" />
      <stop
         id="stop9"
         offset="1"
         stop-color="#ff5454" />
    </linearGradient>
    <linearGradient
       inkscape:collect="always"
       xlink:href="#linearGradient3360"
       id="linearGradient4173"
       x1="4"
       y1="24"
       x2="44"
       y2="24"
       gradientUnits="userSpaceOnUse" />
  </defs>
  <sodipodi:namedview
     pagecolor="#ffffff"
     bordercolor="#666666"
     borderopacity="1"
     objecttolerance="10"
     gridtolerance="10"
     guidetolerance="10"
     inkscape:pageopacity="0"
     inkscape:pageshadow="2"
     inkscape:window-width="1366"
     inkscape:window-height="744"
     id="namedview12"
     showgrid="false"
     inkscape:zoom="4.9166667"
     inkscape:cx="20.440678"
     inkscape:cy="24"
     inkscape:window-x="0"
     inkscape:window-y="24"
     inkscape:window-maximized="1"
     inkscape:current-layer="svg2" />
  <path
     inkscape:connector-curvature="0"
     id="path6"
     d="M 44,24 C 44,35.046875 35.046875,44 24,44 12.953125,44 4,35.046875 4,24 4,12.953125 12.953125,4 24,4 35.046875,4 44,12.953125 44,24 Z"
     style="fill:url(#linearGradient4173);fill-rule:evenodd;fill-opacity:1.0" />
  <path
     inkscape:connector-curvature="0"
     id="path8"
     d="m 14.011719,14 0,3.332031 c -0.07422,0.9375 0.238281,1.890625 0.941406,2.539063 l 4.273437,4.203125 -4.273437,4.203125 c -0.628906,0.625 -0.941406,1.507812 -0.941406,2.390625 l 0,3.332031 3.332031,0 c 0.878906,0 1.761719,-0.316406 2.386719,-0.941406 l 4.273437,-4.277344 4.273438,4.277344 C 28.902344,33.683594 29.785156,34 30.667969,34 L 34,34 34,30.667969 c 0,-0.882813 -0.316406,-1.765625 -0.941406,-2.390625 l -4.199219,-4.203125 4.273437,-4.203125 C 33.847656,19.207031 34,18.289062 34,17.332031 L 34,14 30.667969,14 c -0.800781,0.02344 -1.433594,0.320312 -2.316407,1.085938 l -4.347656,4.203124 -4.273437,-4.203124 C 19.140625,14.476562 18.335938,14.039062 17.488281,14 17.453125,14 17.375,14 17.34375,14 Z"
     style="fill:#ffffff;fill-rule:evenodd" />
  <path
     inkscape:connector-curvature="0"
     id="path10"
     d="m 14.011719,14 0,3.332031 c -0.07422,0.9375 0.238281,1.890625 0.941406,2.539063 l 4.273437,4.203125 -4.273437,4.203125 c -0.628906,0.625 -0.941406,1.507812 -0.941406,2.390625 l 0,3.332031 3.332031,0 c 0.878906,0 1.761719,-0.316406 2.386719,-0.941406 l 4.273437,-4.277344 4.273438,4.277344 C 28.902344,33.683594 29.785156,34 30.667969,34 L 34,34 34,30.667969 c 0,-0.882813 -0.316406,-1.765625 -0.941406,-2.390625 l -4.199219,-4.203125 4.273437,-4.203125 C 33.847656,19.207031 34,18.289062 34,17.332031 L 34,14 30.667969,14 c -0.800781,0.02344 -1.433594,0.320312 -2.316407,1.085938 l -4.347656,4.203124 -4.273437,-4.203124 C 19.140625,14.476562 18.335938,14.039062 17.488281,14 17.453125,14 17.375,14 17.34375,14 Z"
     style="fill:#dc322f;fill-opacity:0.10199998;fill-rule:evenodd" />
</svg>
