<?xml version="1.0" encoding="UTF-8" standalone="no"?>
<svg
   xmlns:dc="http://purl.org/dc/elements/1.1/"
   xmlns:cc="http://creativecommons.org/ns#"
   xmlns:rdf="http://www.w3.org/1999/02/22-rdf-syntax-ns#"
   xmlns:svg="http://www.w3.org/2000/svg"
   xmlns="http://www.w3.org/2000/svg"
   xmlns:xlink="http://www.w3.org/1999/xlink"
   xmlns:sodipodi="http://sodipodi.sourceforge.net/DTD/sodipodi-0.dtd"
   xmlns:inkscape="http://www.inkscape.org/namespaces/inkscape"
   viewBox="0 0 48 48"
   id="svg2"
   version="1.1"
   inkscape:version="0.91 r"
   sodipodi:docname="stock-alarm.svg">
  <metadata
     id="metadata81">
    <rdf:RDF>
      <cc:Work
         rdf:about="">
        <dc:format>image/svg+xml</dc:format>
        <dc:type
           rdf:resource="http://purl.org/dc/dcmitype/StillImage" />
      </cc:Work>
    </rdf:RDF>
  </metadata>
  <sodipodi:namedview
     pagecolor="#ffffff"
     bordercolor="#666666"
     borderopacity="1"
     objecttolerance="10"
     gridtolerance="10"
     guidetolerance="10"
     inkscape:pageopacity="0"
     inkscape:pageshadow="2"
     inkscape:window-width="1180"
     inkscape:window-height="608"
     id="namedview79"
     showgrid="false"
     inkscape:zoom="4.9166667"
     inkscape:cx="24"
     inkscape:cy="24"
     inkscape:window-x="10"
     inkscape:window-y="34"
     inkscape:window-maximized="0"
     inkscape:current-layer="svg2" />
  <defs
     id="defs4">
    <linearGradient
       inkscape:collect="always"
       id="linearGradient3409">
      <stop
         style="stop-color:#000000;stop-opacity:1;"
         offset="0"
         id="stop3411" />
      <stop
         id="stop3417"
         offset="0.12927757"
         style="stop-color:#afe9c6;stop-opacity:1" />
      <stop
         style="stop-color:#5fd38d;stop-opacity:1"
         offset="0.38593158"
         id="stop3419" />
      <stop
         id="stop3421"
         offset="0.84790874"
         style="stop-color:#217844;stop-opacity:1" />
      <stop
         style="stop-color:#000000;stop-opacity:0;"
         offset="1"
         id="stop3413" />
    </linearGradient>
    <linearGradient
       id="linearGradient3764"
       x1="1"
       x2="47"
       gradientUnits="userSpaceOnUse"
       gradientTransform="matrix(0,-1,1,0,-1.5e-6,47.999998)">
      <stop
         stop-color="#18aa86"
         stop-opacity="1"
         id="stop7" />
      <stop
         offset="1"
         stop-color="#1abc95"
         stop-opacity="1"
         id="stop9" />
    </linearGradient>
    <clipPath
       id="clipPath-227146157">
      <g
         transform="translate(0,-1004.3622)"
         id="g12">
        <path
           d="m -24 13 c 0 1.105 -0.672 2 -1.5 2 -0.828 0 -1.5 -0.895 -1.5 -2 0 -1.105 0.672 -2 1.5 -2 0.828 0 1.5 0.895 1.5 2 z"
           transform="matrix(15.333333,0,0,11.5,414.99999,878.8622)"
           fill="#1890d0"
           id="path14" />
      </g>
    </clipPath>
    <clipPath
       id="clipPath-235619892">
      <g
         transform="translate(0,-1004.3622)"
         id="g17">
        <path
           d="m -24 13 c 0 1.105 -0.672 2 -1.5 2 -0.828 0 -1.5 -0.895 -1.5 -2 0 -1.105 0.672 -2 1.5 -2 0.828 0 1.5 0.895 1.5 2 z"
           transform="matrix(15.333333,0,0,11.5,414.99999,878.8622)"
           fill="#1890d0"
           id="path19" />
      </g>
    </clipPath>
    <linearGradient
       inkscape:collect="always"
       xlink:href="#linearGradient3409"
       id="linearGradient3415"
       x1="-3.4576271"
       y1="-3.4576271"
       x2="50.033897"
       y2="50.033897"
       gradientUnits="userSpaceOnUse" />
  </defs>
  <g
     id="g21">
    <path
       d="m 36.31 5 c 5.859 4.062 9.688 10.831 9.688 18.5 c 0 12.426 -10.07 22.5 -22.5 22.5 c -7.669 0 -14.438 -3.828 -18.5 -9.688 c 1.037 1.822 2.306 3.499 3.781 4.969 c 4.085 3.712 9.514 5.969 15.469 5.969 c 12.703 0 23 -10.298 23 -23 c 0 -5.954 -2.256 -11.384 -5.969 -15.469 c -1.469 -1.475 -3.147 -2.744 -4.969 -3.781 z m 4.969 3.781 c 3.854 4.113 6.219 9.637 6.219 15.719 c 0 12.703 -10.297 23 -23 23 c -6.081 0 -11.606 -2.364 -15.719 -6.219 c 4.16 4.144 9.883 6.719 16.219 6.719 c 12.703 0 23 -10.298 23 -23 c 0 -6.335 -2.575 -12.06 -6.719 -16.219 z"
       opacity="0.05"
       id="path23" />
    <path
       d="m 41.28 8.781 c 3.712 4.085 5.969 9.514 5.969 15.469 c 0 12.703 -10.297 23 -23 23 c -5.954 0 -11.384 -2.256 -15.469 -5.969 c 4.113 3.854 9.637 6.219 15.719 6.219 c 12.703 0 23 -10.298 23 -23 c 0 -6.081 -2.364 -11.606 -6.219 -15.719 z"
       opacity="0.1"
       id="path25" />
    <path
       d="m 31.25 2.375 c 8.615 3.154 14.75 11.417 14.75 21.13 c 0 12.426 -10.07 22.5 -22.5 22.5 c -9.708 0 -17.971 -6.135 -21.12 -14.75 a 23 23 0 0 0 44.875 -7 a 23 23 0 0 0 -16 -21.875 z"
       opacity="0.2"
       id="path27" />
  </g>
  <g
     id="g29"
     style="fill-opacity:1;fill:url(#linearGradient3415)">
    <path
       d="m 24 1 c 12.703 0 23 10.297 23 23 c 0 12.703 -10.297 23 -23 23 -12.703 0 -23 -10.297 -23 -23 0 -12.703 10.297 -23 23 -23 z"
       id="path31"
       fill-opacity="1"
       fill="url(#linearGradient3764)"
       style="fill-opacity:1;fill:url(#linearGradient3415)" />
  </g>
  <g
     id="g33" />
  <g
     id="g35">
    <g
       clip-path="url(#clipPath-227146157)"
       id="g37">
      <g
         transform="translate(1,1)"
         id="g39">
        <g
           opacity="0.1"
           id="g41">
          <!-- color: #1abc95 -->
          <g
             id="g43">
            <path
               d="m 24 6 c 9.941 0 18 8.06 18 18 c 0 9.941 -8.06 18 -18 18 c -9.941 0 -18 -8.06 -18 -18 c 0 -9.941 8.06 -18 18 -18 m 0 0"
               stroke="none"
               fill-rule="evenodd"
               fill-opacity="1"
               fill="#000"
               id="path45" />
            <path
               d="m 22.473 23.738 l -5.211 -5.211 c -0.348 -0.344 -0.348 -0.906 0 -1.25 l 0.039 -0.043 c 0.344 -0.344 0.906 -0.344 1.254 0 l 5.211 5.211 c 0.344 0.348 0.344 0.91 0 1.254 l -0.043 0.039 c -0.344 0.348 -0.906 0.348 -1.25 0 m 0 0"
               stroke="none"
               fill-rule="nonzero"
               fill-opacity="1"
               fill="#000"
               id="path47" />
            <path
               d="m 23.887 23 l 13.227 0 c 0.492 0 0.887 0.395 0.887 0.887 l 0 0.227 c 0 0.488 -0.395 0.887 -0.887 0.887 l -13.227 0 c -0.488 0 -0.887 -0.398 -0.887 -0.887 l 0 -0.227 c 0 -0.492 0.398 -0.887 0.887 -0.887 m 0 0"
               stroke="none"
               fill-rule="nonzero"
               fill-opacity="1"
               fill="#000"
               id="path49" />
            <path
               d="m 16.555 36.28 l 7.105 -13.09 c 0.117 -0.215 0.383 -0.285 0.59 -0.16 l 0.063 0.039 c 0.207 0.129 0.281 0.406 0.164 0.621 l -7.105 13.09 c -0.117 0.215 -0.379 0.285 -0.59 0.16 l -0.059 -0.039 c -0.211 -0.129 -0.285 -0.406 -0.168 -0.621 m 0 0"
               stroke="none"
               fill-rule="nonzero"
               fill-opacity="1"
               fill="#000"
               id="path51" />
            <path
               d="m 28 24 c 0 2.211 -1.789 4 -4 4 c -2.211 0 -4 -1.789 -4 -4 c 0 -2.211 1.789 -4 4 -4 c 2.211 0 4 1.789 4 4 m 0 0"
               stroke="none"
               fill-rule="nonzero"
               fill-opacity="1"
               fill="#000"
               id="path53" />
            <path
               d="m 26 24 c 0 1.105 -0.895 2 -2 2 c -1.105 0 -2 -0.895 -2 -2 c 0 -1.105 0.895 -2 2 -2 c 1.105 0 2 0.895 2 2 m 0 0"
               stroke="none"
               fill-rule="nonzero"
               fill-opacity="1"
               fill="#000"
               id="path55" />
          </g>
        </g>
      </g>
    </g>
  </g>
  <g
     id="g57">
    <g
       clip-path="url(#clipPath-235619892)"
       id="g59">
      <!-- color: #1abc95 -->
      <g
         id="g61">
        <path
           d="m 24 6 c 9.941 0 18 8.06 18 18 c 0 9.941 -8.06 18 -18 18 c -9.941 0 -18 -8.06 -18 -18 c 0 -9.941 8.06 -18 18 -18 m 0 0"
           fill="#ecedf1"
           stroke="none"
           fill-rule="evenodd"
           fill-opacity="1"
           id="path63" />
        <path
           d="m 22.473 23.738 l -5.211 -5.211 c -0.348 -0.344 -0.348 -0.906 0 -1.25 l 0.039 -0.043 c 0.344 -0.344 0.906 -0.344 1.254 0 l 5.211 5.211 c 0.344 0.348 0.344 0.91 0 1.254 l -0.043 0.039 c -0.344 0.348 -0.906 0.348 -1.25 0 m 0 0"
           fill="#2c3d4d"
           stroke="none"
           fill-rule="nonzero"
           fill-opacity="1"
           id="path65" />
        <path
           d="m 23.887 23 l 13.227 0 c 0.492 0 0.887 0.395 0.887 0.887 l 0 0.227 c 0 0.488 -0.395 0.887 -0.887 0.887 l -13.227 0 c -0.488 0 -0.887 -0.398 -0.887 -0.887 l 0 -0.227 c 0 -0.492 0.398 -0.887 0.887 -0.887 m 0 0"
           fill="#2f8ecf"
           stroke="none"
           fill-rule="nonzero"
           fill-opacity="1"
           id="path67" />
        <path
           d="m 16.555 36.28 l 7.105 -13.09 c 0.117 -0.215 0.383 -0.285 0.59 -0.16 l 0.063 0.039 c 0.207 0.129 0.281 0.406 0.164 0.621 l -7.105 13.09 c -0.117 0.215 -0.379 0.285 -0.59 0.16 l -0.059 -0.039 c -0.211 -0.129 -0.285 -0.406 -0.168 -0.621 m 0 0"
           fill="#e45344"
           stroke="none"
           fill-rule="nonzero"
           fill-opacity="1"
           id="path69" />
        <path
           d="m 28 24 c 0 2.211 -1.789 4 -4 4 c -2.211 0 -4 -1.789 -4 -4 c 0 -2.211 1.789 -4 4 -4 c 2.211 0 4 1.789 4 4 m 0 0"
           fill="#34495b"
           stroke="none"
           fill-rule="nonzero"
           fill-opacity="1"
           id="path71" />
        <path
           d="m 26 24 c 0 1.105 -0.895 2 -2 2 c -1.105 0 -2 -0.895 -2 -2 c 0 -1.105 0.895 -2 2 -2 c 1.105 0 2 0.895 2 2 m 0 0"
           fill="#ecedf1"
           stroke="none"
           fill-rule="nonzero"
           fill-opacity="1"
           id="path73" />
      </g>
    </g>
  </g>
  <g
     id="g75">
    <path
       d="m 40.03 7.531 c 3.712 4.084 5.969 9.514 5.969 15.469 0 12.703 -10.297 23 -23 23 c -5.954 0 -11.384 -2.256 -15.469 -5.969 4.178 4.291 10.01 6.969 16.469 6.969 c 12.703 0 23 -10.298 23 -23 0 -6.462 -2.677 -12.291 -6.969 -16.469 z"
       opacity="0.1"
       id="path77" />
  </g>
</svg>
