<?xml version="1.0" encoding="UTF-8" standalone="no"?>
<svg
   xmlns:dc="http://purl.org/dc/elements/1.1/"
   xmlns:cc="http://creativecommons.org/ns#"
   xmlns:rdf="http://www.w3.org/1999/02/22-rdf-syntax-ns#"
   xmlns:svg="http://www.w3.org/2000/svg"
   xmlns="http://www.w3.org/2000/svg"
   xmlns:xlink="http://www.w3.org/1999/xlink"
   xmlns:sodipodi="http://sodipodi.sourceforge.net/DTD/sodipodi-0.dtd"
   xmlns:inkscape="http://www.inkscape.org/namespaces/inkscape"
   width="48"
   height="48"
   viewBox="0 0 48 48"
   id="svg2"
   version="1.1"
   inkscape:version="0.91 r"
   sodipodi:docname="system-logout.svg">
  <metadata
     id="metadata16">
    <rdf:RDF>
      <cc:Work
         rdf:about="">
        <dc:format>image/svg+xml</dc:format>
        <dc:type
           rdf:resource="http://purl.org/dc/dcmitype/StillImage" />
      </cc:Work>
    </rdf:RDF>
  </metadata>
  <defs
     id="defs14">
    <linearGradient
       inkscape:collect="always"
       id="linearGradient3346">
      <stop
         style="stop-color:#859900;stop-opacity:1;"
         offset="0"
         id="stop3348" />
      <stop
         id="stop3354"
         offset="0.18164741"
         style="stop-color:#9ade00;stop-opacity:1" />
      <stop
         style="stop-color:#009100;stop-opacity:1"
         offset="0.78163528"
         id="stop3356" />
      <stop
         style="stop-color:#859900;stop-opacity:0;"
         offset="1"
         id="stop3350" />
    </linearGradient>
    <linearGradient
       inkscape:collect="always"
       xlink:href="#linearGradient3346"
       id="linearGradient3352"
       x1="-3.2542372"
       y1="-3.8644068"
       x2="52.067795"
       y2="51.661018"
       gradientUnits="userSpaceOnUse" />
  </defs>
  <sodipodi:namedview
     pagecolor="#ffffff"
     bordercolor="#666666"
     borderopacity="1"
     objecttolerance="10"
     gridtolerance="10"
     guidetolerance="10"
     inkscape:pageopacity="0"
     inkscape:pageshadow="2"
     inkscape:window-width="640"
     inkscape:window-height="480"
     id="namedview12"
     showgrid="false"
     inkscape:zoom="4.9166667"
     inkscape:cx="24"
     inkscape:cy="24"
     inkscape:window-x="10"
     inkscape:window-y="34"
     inkscape:window-maximized="0"
     inkscape:current-layer="svg2" />
  <path
     inkscape:connector-curvature="0"
     id="path6"
     d="M 24,4 C 35.046875,4 44,12.957031 44,24 44,35.050781 35.046875,44.007812 24,44 12.953125,44.007812 4,35.050781 4,24 4,12.957031 12.953125,4 24,4 Z"
     style="fill:url(#linearGradient3352);fill-rule:evenodd;fill-opacity:1" />
  <path
     inkscape:connector-curvature="0"
     id="path8"
     d="M 24,8 C 17.28125,8 11.558594,12.132812 9.1875,18 l 4.4375,0 c 2.074219,-3.585938 5.933594,-6 10.375,-6 6.628906,0 12,5.371094 12,12 0,6.628906 -5.371094,12 -12,12 -4.441406,0 -8.300781,-2.414062 -10.375,-6 L 9.1875,30 C 11.558594,35.867188 17.28125,40 24,40 32.835938,40 40,32.835938 40,24 40,15.164062 32.835938,8 24,8 Z"
     style="fill:#ffffff;fill-opacity:0.9020001;fill-rule:evenodd" />
  <path
     style="fill:#fff;fill-opacity:.902"
     d="M 24 22 L 24 26 L 8 26 L 8 22 Z "
     id="path10" />
</svg>
