<?xml version="1.0" encoding="UTF-8" standalone="no"?>
<svg
   xmlns:dc="http://purl.org/dc/elements/1.1/"
   xmlns:cc="http://creativecommons.org/ns#"
   xmlns:rdf="http://www.w3.org/1999/02/22-rdf-syntax-ns#"
   xmlns:svg="http://www.w3.org/2000/svg"
   xmlns="http://www.w3.org/2000/svg"
   xmlns:xlink="http://www.w3.org/1999/xlink"
   xmlns:sodipodi="http://sodipodi.sourceforge.net/DTD/sodipodi-0.dtd"
   xmlns:inkscape="http://www.inkscape.org/namespaces/inkscape"
   width="48"
   height="48"
   viewBox="0 0 48 48"
   id="svg2"
   version="1.1"
   inkscape:version="0.91 r"
   sodipodi:docname="system-shutdown.svg">
  <metadata
     id="metadata16">
    <rdf:RDF>
      <cc:Work
         rdf:about="">
        <dc:format>image/svg+xml</dc:format>
        <dc:type
           rdf:resource="http://purl.org/dc/dcmitype/StillImage" />
      </cc:Work>
    </rdf:RDF>
  </metadata>
  <defs
     id="defs14">
    <linearGradient
       inkscape:collect="always"
       id="linearGradient3352">
      <stop
         style="stop-color:#dc322f;stop-opacity:1;"
         offset="0"
         id="stop3354" />
      <stop
         id="stop3360"
         offset="0.16959682"
         style="stop-color:#ff4141;stop-opacity:1" />
      <stop
         style="stop-color:#b50000;stop-opacity:1"
         offset="0.85546392"
         id="stop3362" />
      <stop
         style="stop-color:#dc322f;stop-opacity:0;"
         offset="1"
         id="stop3356" />
    </linearGradient>
    <linearGradient
       inkscape:collect="always"
       xlink:href="#linearGradient3352"
       id="linearGradient3358"
       x1="0.40677965"
       y1="-2.6440678"
       x2="46.983051"
       y2="48"
       gradientUnits="userSpaceOnUse" />
  </defs>
  <sodipodi:namedview
     pagecolor="#ffffff"
     bordercolor="#666666"
     borderopacity="1"
     objecttolerance="10"
     gridtolerance="10"
     guidetolerance="10"
     inkscape:pageopacity="0"
     inkscape:pageshadow="2"
     inkscape:window-width="640"
     inkscape:window-height="480"
     id="namedview12"
     showgrid="false"
     inkscape:zoom="4.9166667"
     inkscape:cx="24"
     inkscape:cy="24"
     inkscape:window-x="10"
     inkscape:window-y="34"
     inkscape:window-maximized="0"
     inkscape:current-layer="svg2" />
  <g
     style="fill-rule:evenodd"
     id="g4">
    <path
       style="fill:url(#linearGradient3358);fill-opacity:1"
       d="M 44 24 C 44 35.046875 35.042969 44 24 44 C 12.949219 44 3.992188 35.046875 4 24 C 3.992188 12.953125 12.949219 4 24 4 C 35.042969 4 44 12.953125 44 24 Z "
       id="path6" />
    <path
       style="fill:#fff;fill-opacity:.902"
       d="M 40 24 C 40 17.28125 35.867188 11.558594 30 9.1875 L 30 13.625 C 33.585938 15.699219 36 19.558594 36 24 C 36 30.628906 30.628906 36 24 36 C 17.371094 36 12 30.628906 12 24 C 12 19.558594 14.414062 15.699219 18 13.625 L 18 9.1875 C 12.132812 11.558594 8 17.28125 8 24 C 8 32.835938 15.164062 40 24 40 C 32.835938 40 40 32.835938 40 24 Z "
       id="path8" />
  </g>
  <path
     style="fill:#fff;fill-opacity:.902"
     d="M 26 24 L 22 24 L 22 8 L 26 8 Z "
     id="path10" />
</svg>
