<?xml version="1.0" encoding="UTF-8" standalone="no"?>
<svg
   xmlns:dc="http://purl.org/dc/elements/1.1/"
   xmlns:cc="http://creativecommons.org/ns#"
   xmlns:rdf="http://www.w3.org/1999/02/22-rdf-syntax-ns#"
   xmlns:svg="http://www.w3.org/2000/svg"
   xmlns="http://www.w3.org/2000/svg"
   xmlns:xlink="http://www.w3.org/1999/xlink"
   xmlns:sodipodi="http://sodipodi.sourceforge.net/DTD/sodipodi-0.dtd"
   xmlns:inkscape="http://www.inkscape.org/namespaces/inkscape"
   width="48"
   height="48"
   viewBox="0 0 48 48"
   id="svg2"
   version="1.1"
   inkscape:version="0.91 r"
   sodipodi:docname="view-refresh.svg">
  <metadata
     id="metadata16">
    <rdf:RDF>
      <cc:Work
         rdf:about="">
        <dc:format>image/svg+xml</dc:format>
        <dc:type
           rdf:resource="http://purl.org/dc/dcmitype/StillImage" />
      </cc:Work>
    </rdf:RDF>
  </metadata>
  <defs
     id="defs14">
    <linearGradient
       inkscape:collect="always"
       id="linearGradient3344">
      <stop
         style="stop-color:#859900;stop-opacity:1;"
         offset="0"
         id="stop3346" />
      <stop
         id="stop3352"
         offset="0.16609132"
         style="stop-color:#9ade00;stop-opacity:1" />
      <stop
         style="stop-color:#009100;stop-opacity:1"
         offset="0.78173721"
         id="stop3354" />
      <stop
         style="stop-color:#859900;stop-opacity:0;"
         offset="1"
         id="stop3348" />
    </linearGradient>
    <linearGradient
       inkscape:collect="always"
       xlink:href="#linearGradient3344"
       id="linearGradient3350"
       x1="-2.8474576"
       y1="-2.2372882"
       x2="52.474575"
       y2="51.457626"
       gradientUnits="userSpaceOnUse" />
  </defs>
  <sodipodi:namedview
     pagecolor="#ffffff"
     bordercolor="#666666"
     borderopacity="1"
     objecttolerance="10"
     gridtolerance="10"
     guidetolerance="10"
     inkscape:pageopacity="0"
     inkscape:pageshadow="2"
     inkscape:window-width="640"
     inkscape:window-height="480"
     id="namedview12"
     showgrid="false"
     inkscape:zoom="4.9166667"
     inkscape:cx="24"
     inkscape:cy="24"
     inkscape:window-x="10"
     inkscape:window-y="34"
     inkscape:window-maximized="0"
     inkscape:current-layer="svg2" />
  <path
     style="fill:url(#linearGradient3350);fill-rule:evenodd;fill-opacity:1"
     d="M 44 24 C 44 35.042969 35.042969 44 24 44 C 12.957031 44 4 35.042969 4 24 C 4 12.957031 12.957031 4 24 4 C 35.042969 4 44 12.957031 44 24 Z "
     id="path4" />
  <g
     style="fill:#fff;fill-opacity:.902"
     id="g6">
    <path
       d="M 35.367188 19.214844 C 33.398438 14.824219 28.992188 12 24.027344 12 C 18.949219 12 14.300781 15.089844 12.472656 19.675781 L 16.324219 21.121094 C 17.542969 18.054688 20.640625 16.003906 24.027344 16.003906 C 27.292969 16.003906 30.183594 17.835938 31.523438 20.699219 L 28.714844 21.789062 L 35.898438 25.808594 L 38 18.199219 Z "
       id="path8" />
    <path
       d="M 24.027344 32.003906 C 20.785156 32.003906 17.835938 30.109375 16.515625 27.265625 L 19.28125 26.230469 L 12.175781 22.296875 L 10 29.707031 L 12.652344 28.710938 C 14.582031 33.089844 19.09375 36 24.027344 36 C 29.125 36 33.636719 33.035156 35.527344 28.445312 L 31.695312 26.964844 C 30.4375 30.027344 27.425781 32.003906 24.027344 32.003906 Z "
       id="path10" />
  </g>
</svg>
