<?xml version="1.0" encoding="UTF-8" standalone="no"?>
<!-- Created with Inkscape (http://www.inkscape.org/) -->

<svg
   xmlns:dc="http://purl.org/dc/elements/1.1/"
   xmlns:cc="http://creativecommons.org/ns#"
   xmlns:rdf="http://www.w3.org/1999/02/22-rdf-syntax-ns#"
   xmlns:svg="http://www.w3.org/2000/svg"
   xmlns="http://www.w3.org/2000/svg"
   xmlns:xlink="http://www.w3.org/1999/xlink"
   xmlns:sodipodi="http://sodipodi.sourceforge.net/DTD/sodipodi-0.dtd"
   xmlns:inkscape="http://www.inkscape.org/namespaces/inkscape"
   id="svg2"
   version="1.1"
   inkscape:version="0.91 r"
   width="512"
   height="512"
   sodipodi:docname="aptdaemon-update.svg">
  <metadata
     id="metadata8">
    <rdf:RDF>
      <cc:Work
         rdf:about="">
        <dc:format>image/svg+xml</dc:format>
        <dc:type
           rdf:resource="http://purl.org/dc/dcmitype/StillImage" />
        <dc:title />
      </cc:Work>
    </rdf:RDF>
  </metadata>
  <defs
     id="defs6">
    <linearGradient
       inkscape:collect="always"
       xlink:href="#0"
       id="linearGradient3340"
       x1="-60.745762"
       y1="-47.728813"
       x2="579.25421"
       y2="583.5932"
       gradientUnits="userSpaceOnUse" />
    <linearGradient
       gradientUnits="userSpaceOnUse"
       y2="-27.705999"
       x2="60.752998"
       y1="22.938999"
       x1="61.57"
       id="0">
      <stop
         id="stop7"
         stop-color="#197cf1"
         style="stop-color:#084183;stop-opacity:1" />
      <stop
         id="stop9"
         stop-color="#21c9fb"
         offset="1"
         style="stop-color:#21d9fb;stop-opacity:1" />
    </linearGradient>
    <linearGradient
       gradientTransform="matrix(-0.32279,0,0,0.35147,161.26,-143.94)"
       gradientUnits="userSpaceOnUse"
       y2="507.87"
       x2="0"
       y1="546.79999"
       id="0-7">
      <stop
         id="stop7-8"
         stop-color="#d3d3d3" />
      <stop
         id="stop9-3"
         stop-color="#fcf9f9"
         offset="1" />
    </linearGradient>
    <linearGradient
       gradientUnits="userSpaceOnUse"
       y2="22.749001"
       x2="34.150002"
       y1="46.439999"
       x1="34.169998"
       id="1">
      <stop
         id="stop12"
         stop-color="#1074f5" />
      <stop
         id="stop14"
         stop-color="#02befd"
         offset="1" />
    </linearGradient>
    <linearGradient
       id="0-0"
       x1="-10.767"
       y1="4.6750002"
       x2="-11.233"
       y2="-22.851"
       gradientUnits="userSpaceOnUse"
       gradientTransform="matrix(4.2993071,0,0,4.1549256,108.60645,101.41254)">
      <stop
         id="stop7-1"
         stop-color="#197cf1" />
      <stop
         id="stop9-5"
         offset="1"
         stop-color="#21c9fb" />
    </linearGradient>
    <linearGradient
       id="1-2"
       y1="35.139999"
       x2="0"
       y2="4.4450002"
       gradientUnits="userSpaceOnUse"
       gradientTransform="matrix(3.0135593,0,0,3.0133656,159.51634,4.8305753)">
      <stop
         id="stop12-7"
         stop-color="#d8d8d8" />
      <stop
         id="stop14-3"
         offset="1"
         stop-color="#fff" />
    </linearGradient>
    <linearGradient
       gradientTransform="matrix(2.378134,0,0,2.378134,-84.654771,68.762404)"
       gradientUnits="userSpaceOnUse"
       y2="-27.705999"
       x2="60.752998"
       y1="22.938999"
       x1="61.57"
       id="0-70">
      <stop
         id="stop7-0"
         stop-color="#197cf1" />
      <stop
         id="stop9-4"
         stop-color="#21c9fb"
         offset="1" />
    </linearGradient>
  </defs>
  <sodipodi:namedview
     pagecolor="#ffffff"
     bordercolor="#666666"
     borderopacity="1"
     objecttolerance="10"
     gridtolerance="10"
     guidetolerance="10"
     inkscape:pageopacity="0"
     inkscape:pageshadow="2"
     inkscape:window-width="1366"
     inkscape:window-height="744"
     id="namedview4"
     showgrid="false"
     inkscape:zoom="0.4609375"
     inkscape:cx="218.0339"
     inkscape:cy="256"
     inkscape:window-x="0"
     inkscape:window-y="24"
     inkscape:window-maximized="1"
     inkscape:current-layer="svg2" />
  <path
     sodipodi:type="arc"
     style="fill:#ffffff;fill-opacity:1;fill-rule:nonzero;stroke:none"
     id="path2987"
     sodipodi:cx="-483.7966"
     sodipodi:cy="170.30508"
     sodipodi:rx="193.08475"
     sodipodi:ry="183.32204"
     d="m -290.71185,170.30508 a 193.08475,183.32204 0 1 1 -386.1695,0 193.08475,183.32204 0 1 1 386.1695,0 z"
     transform="translate(742.47458,95.288136)" />
  <path
     inkscape:connector-curvature="0"
     id="path2984"
     d="m 68.686436,479.14933 c -18.00798,-6.162 -31.03613,-19.65052 -36.30474,-37.5876 -1.47021,-5.00536 -1.63594,-23.76312 -1.63594,-185.15921 0,-161.396088 0.16573,-180.153851 1.63594,-185.159208 5.39756,-18.3761 19.90924,-32.887782 38.28534,-38.285342 5.00482,-1.470052 23.67643,-1.63594 184.133794,-1.63594 197.31899,0 182.54715,-0.490749 195.85577,6.506702 7.87231,4.139132 17.55347,13.820296 21.6926,21.692606 6.99863,13.310852 6.5067,-1.573921 6.5067,196.881182 0,161.39609 -0.16573,180.15385 -1.63594,185.15921 -5.39756,18.37611 -19.90924,32.88778 -38.28534,38.28534 -5.00662,1.47058 -23.66362,1.63327 -184.57626,1.60947 l -179.006674,-0.0265 -6.66525,-2.28074 z M 280.15296,392.72847 c 4.91993,-0.81028 13.45658,-2.91042 18.97033,-4.66698 56.45028,-17.98386 95.63516,-67.59424 100.59057,-127.35367 l 0.69713,-8.40699 17.68856,-0.28057 c 15.93647,-0.25279 17.68856,-0.45528 17.68856,-2.04434 0,-2.16116 -58.33464,-60.73865 -60.48685,-60.73865 -2.1776,0 -60.51314,58.56361 -60.51314,60.74972 0,1.64927 1.51297,1.80112 17.94491,1.80112 l 17.94491,0 0,4.42608 c 0,10.2161 -3.97754,24.96573 -10.00574,37.10358 -22.61432,45.53413 -78.87157,65.15448 -125.01517,43.60043 -8.97396,-4.1918 -15.47061,-8.31408 -22.96032,-14.56887 -2.57422,-2.14977 -5.33746,-3.90868 -6.14052,-3.90868 -2.06919,0 -32.75959,30.8889 -32.75959,32.97147 0,2.30608 10.6545,11.82152 20.90869,18.67336 31.63625,21.13932 67.63764,28.86997 105.44767,22.64299 z M 168.40237,286.91551 c 16.25405,-16.2468 29.48745,-30.28262 29.48745,-31.27542 0,-1.64927 -1.51297,-1.80113 -17.94491,-1.80113 l -17.94492,0 0,-4.42608 c 0,-10.41065 3.99419,-25.0232 10.28202,-37.61629 22.53104,-45.12456 78.78152,-64.55478 124.7389,-43.08772 8.97395,4.1918 15.47061,8.31409 22.96032,14.56887 2.57421,2.14977 5.33745,3.90868 6.14051,3.90868 2.0692,0 32.75959,-30.88889 32.75959,-32.97147 0,-2.32441 -10.96489,-12.12729 -21.02118,-18.79346 -28.03413,-18.5834 -60.00253,-26.91319 -92.54449,-24.11366 -71.35062,6.13816 -126.38849,61.69992 -132.35158,133.61142 l -0.69714,8.407 -17.688564,0.28057 c -15.93646,0.25278 -17.68855,0.45527 -17.68855,2.04433 0,2.16116 58.334644,60.73865 60.486854,60.73865 0.84603,0 14.8076,-13.26343 31.02569,-29.47429 z"
     style="fill:url(#linearGradient3340);fill-opacity:1.0" />
</svg>
